<?xml version="1.0" encoding="UTF-8"?>
<svg id="Capa_2" data-name="Capa 2" xmlns="http://www.w3.org/2000/svg" xmlns:xlink="http://www.w3.org/1999/xlink" viewBox="0 0 288.6 283.12">
  <defs>
    <style>
      .cls-1 {
        letter-spacing: 0em;
      }

      .cls-1, .cls-2, .cls-3, .cls-4, .cls-5, .cls-6, .cls-7, .cls-8, .cls-9 {
        font-family: Italiana-Regular, Italiana;
      }

      .cls-10 {
        fill: url(#Nueva_muestra_de_motivo_3);
        font-family: GreatVibes-Regular, 'Great Vibes';
        font-size: 44.04px;
      }

      .cls-11, .cls-2 {
        letter-spacing: 0em;
      }

      .cls-12, .cls-4, .cls-13 {
        letter-spacing: .03em;
      }

      .cls-12, .cls-14 {
        font-family: TrajanPro-Regular, 'Trajan Pro';
      }

      .cls-15 {
        fill: url(#linear-gradient);
      }

      .cls-15, .cls-16, .cls-17, .cls-18, .cls-19 {
        stroke-width: 0px;
      }

      .cls-20 {
        stroke: url(#Nueva_muestra_de_motivo_1-4);
      }

      .cls-20, .cls-16, .cls-21, .cls-22 {
        fill: url(#Nueva_muestra_de_motivo_1);
      }

      .cls-20, .cls-21, .cls-23, .cls-22, .cls-24 {
        stroke-miterlimit: 10;
      }

      .cls-20, .cls-21, .cls-22, .cls-24 {
        stroke-width: .25px;
      }

      .cls-25 {
        letter-spacing: 0em;
      }

      .cls-26 {
        letter-spacing: 0em;
      }

      .cls-27, .cls-14, .cls-9 {
        letter-spacing: .03em;
      }

      .cls-21 {
        stroke: url(#Nueva_muestra_de_motivo_1-3);
      }

      .cls-28 {
        letter-spacing: .07em;
      }

      .cls-29 {
        letter-spacing: .05em;
      }

      .cls-23 {
        fill: #504322;
        font-size: 20.53px;
        stroke: #504322;
        stroke-width: .26px;
      }

      .cls-30 {
        fill: #5e402f;
        font-family: CormorantInfant-Regular, 'Cormorant Infant';
        font-size: 14px;
      }

      .cls-31 {
        letter-spacing: 0em;
      }

      .cls-32, .cls-7 {
        letter-spacing: 0em;
      }

      .cls-17 {
        fill: none;
      }

      .cls-3, .cls-33 {
        letter-spacing: .02em;
      }

      .cls-18, .cls-24 {
        fill: #fff;
      }

      .cls-34, .cls-6 {
        letter-spacing: -.02em;
      }

      .cls-19 {
        fill: url(#linear-gradient-2);
      }

      .cls-5 {
        letter-spacing: .02em;
      }

      .cls-35 {
        letter-spacing: 0em;
      }

      .cls-22 {
        stroke: url(#Nueva_muestra_de_motivo_1-2);
      }

      .cls-36 {
        letter-spacing: 0em;
      }

      .cls-24 {
        stroke: url(#Nueva_muestra_de_motivo_1-5);
      }
    </style>
    <linearGradient id="linear-gradient" x1="545" y1="-15422" x2="821" y2="-15422" gradientTransform="translate(-545 -15337.5) scale(1 -1)" gradientUnits="userSpaceOnUse">
      <stop offset="0" stop-color="#dcc173"/>
      <stop offset=".24" stop-color="#ab8136"/>
      <stop offset=".52" stop-color="#73582b"/>
      <stop offset=".86" stop-color="#dcc173"/>
    </linearGradient>
    <pattern id="Nueva_muestra_de_motivo_1" data-name="Nueva muestra de motivo 1" x="0" y="0" width="276" height="169" patternTransform="translate(1111.64 -2037.94)" patternUnits="userSpaceOnUse" viewBox="0 0 276 169">
      <g>
        <rect class="cls-17" width="276" height="169"/>
        <rect class="cls-15" width="276" height="169"/>
      </g>
    </pattern>
    <pattern id="Nueva_muestra_de_motivo_1-2" data-name="Nueva muestra de motivo 1" patternTransform="translate(1089.66 -2111.43)" xlink:href="#Nueva_muestra_de_motivo_1"/>
    <pattern id="Nueva_muestra_de_motivo_1-3" data-name="Nueva muestra de motivo 1" patternTransform="translate(1089.66 -2111.43)" xlink:href="#Nueva_muestra_de_motivo_1"/>
    <pattern id="Nueva_muestra_de_motivo_1-4" data-name="Nueva muestra de motivo 1" patternTransform="translate(1089.66 -2111.43)" xlink:href="#Nueva_muestra_de_motivo_1"/>
    <pattern id="Nueva_muestra_de_motivo_1-5" data-name="Nueva muestra de motivo 1" patternTransform="translate(1089.66 -2111.43)" xlink:href="#Nueva_muestra_de_motivo_1"/>
    <linearGradient id="linear-gradient-2" x1="1703.29" y1="554.85" x2="1944.16" y2="554.85" gradientTransform="translate(698.22 1944.16) rotate(-90) scale(1 -1)" xlink:href="#linear-gradient"/>
    <pattern id="Nueva_muestra_de_motivo_3" data-name="Nueva muestra de motivo 3" x="0" y="0" width="286.73" height="240.87" patternTransform="translate(1121.94 -2016.27)" patternUnits="userSpaceOnUse" viewBox="0 0 286.73 240.87">
      <g>
        <rect class="cls-17" width="286.73" height="240.87"/>
        <polygon class="cls-19" points="286.73 0 286.73 240.87 0 240.87 0 0 286.73 0"/>
      </g>
    </pattern>
  </defs>
  <g id="Capa_1-2" data-name="Capa 1">
    <text class="cls-30" transform="translate(12.8 261.16)"><tspan class="cls-26"><tspan x="0" y="0">Confirmar asistencia</tspan></tspan><tspan class="cls-35" x="25.49" y="18">c</tspan><tspan class="cls-36" x="31.23" y="18">on el novio</tspan></text>
    <text class="cls-30" transform="translate(161.35 261.16)"><tspan class="cls-26"><tspan x="0" y="0">Confirmar asistencia</tspan></tspan><tspan class="cls-35" x="24.84" y="18">c</tspan><tspan class="cls-36" x="30.58" y="18">on la novia</tspan></text>
    <g>
      <path class="cls-22" d="m172.32,216.4c-.01.16-.01.26-.03.35-.38,2.39-.73,4.79-1.14,7.18-.12.71-.01,1.33.44,1.86,1.14,1.36,2.25,2.76,3.48,4.03,1.87,1.94,3.6,3.96,4.72,6.44.21.46.6.61.97.42.35-.18.48-.56.25-.99-.51-.95-1.06-1.88-1.58-2.83-.11-.2-.23-.42-.24-.63-.18-5.1-.35-10.2-.51-15.31-.12-3.72-.23-7.45-.35-11.17-.04-1.29-.36-2.5-1.05-3.59-.17-.26-.21-.46-.05-.76.37-.73,0-1.47-.78-1.66-1.24-.29-2.48-.57-3.73-.85-.04-.18-.09-.32-.11-.47-.47-3.25-.94-6.51-1.41-9.77-.06-.41-.15-.84-.08-1.23.24-1.31.23-2.61-.04-3.91-.56-2.73-2.06-4.67-4.74-5.61-.31-.11-.33-.28-.32-.56.06-1.88-1.59-3.29-3.39-2.81-.62.17-1.17.62-1.78.96-1.21-1.01-2.52-.76-3.31.73-.06.12-.2.22-.32.27-.66.27-1.07.75-1.28,1.44-.05.16-.19.34-.34.43-.95.53-1.48,1.34-1.5,2.42-.02,1.08.46,1.93,1.41,2.46.29.16.34.32.29.63-.1.64-.15,1.28-.19,1.93-.03.46.05.94-.01,1.39-.54,3.78-1.11,7.56-1.66,11.34-.04.27-.12.41-.4.47-.94.21-1.86.48-2.8.67-.84.18-1.18.58-1.13,1.41.01.18-.04.39-.14.55-.6.95-.88,2-.92,3.12-.14,4.42-.28,8.84-.43,13.26-.03.96-.08,1.92-.11,2.88-.2-1.72-.34-3.45-.47-5.17-.14-1.74-.27-3.48-.41-5.22-.22-2.75-.44-5.5-.66-8.25-.07-.93-.2-1.86-.18-2.78.01-.82.03-.9-.72-1.16-3.13-1.05-6.26-2.1-9.39-3.15-.71-.24-.89-.47-.89-1.22,0-.98-.01-1.96,0-2.94,0-.2.08-.42.17-.6.26-.5.53-1,.84-1.47.15-.24.35-.48.59-.62,1.52-.94,2.09-3.38,1.11-4.85-.05-.08-.14-.18-.13-.26.09-.57.13-1.15.31-1.69.69-2.15.54-4.23-.44-6.25-.2-.42-.54-.79-.89-1.12-.34-.32-.76-.32-1.21-.15-.41.15-.84.31-1.27.32-1.61.04-3.23-.03-4.84.02-1.47.04-2.91.3-4.23.99-1.27.66-2,1.69-2.2,3.12-.22,1.57-.09,3.12.15,4.67.03.17.05.39-.04.52-.73,1.08-.36,3.31.69,4.19.62.52.95,1.16,1.28,1.84.09.19.22.37.31.57.07.15.14.31.14.47.01,1,.05,2-.01,2.99-.03.54-.21,1.15-.78,1.34-3.31,1.12-6.64,2.2-9.97,3.29-.39.13-.59.41-.6.82,0,.13.02.27.01.4-.24,3.06-.5,6.13-.74,9.19-.34,4.26-.67,8.52-1,12.77-.39,4.99-.77,9.98-1.16,14.96-.04.5.18.84.59.88.42.05.71-.27.75-.79.07-.96.14-1.92.22-2.88.22-2.78.45-5.57.67-8.35.19-2.35.36-4.71.54-7.06.29-3.69.58-7.39.87-11.08.1-1.2.2-2.4.3-3.6.11.08.15.17.17.26.54,2.45,1.12,4.89,1.62,7.34.48,2.39.91,4.8.91,7.26,0,3.74-.65,7.41-1.05,11.11-.25,2.31-.52,4.62-.75,6.93-.06.54.23.88.65.88.4,0,.67-.3.7-.81.03-.53.02-1.07.09-1.59.49-4.02,1.01-8.04,1.49-12.07.36-3,.31-6-.18-8.99-.71-4.36-1.7-8.66-2.82-12.94-.12-.48-.24-.95-.36-1.45,2.37-.79,4.69-1.57,7.07-2.37-.46.49-.86.91-1.27,1.32-.41.42-.41.79.03,1.19.42.38.82.78,1.27,1.12.35.27.36.52.14.87-.24.38-.4.8-.64,1.18-.26.41-.25.78-.05,1.22,2.35,5.33,4.7,10.67,7.03,16.01.13.29.2.64.2.96.01,4.17,0,8.35,0,12.52,0,1.03,0,2.06,0,3.09,0,.46.28.72.71.73.44.01.75-.27.78-.73,0-.13,0-.27,0-.4,0-5.02,0-10.05.01-15.07,0-.43.09-.89.27-1.29,2.31-5.3,4.63-10.59,6.96-15.88.18-.4.19-.74-.04-1.13-.33-.56-.61-1.14-.92-1.74.54-.48,1.08-.95,1.61-1.43.52-.47.52-.8.03-1.29-.39-.4-.77-.8-1.22-1.28,2.41.81,4.75,1.59,7.02,2.36-.77,3.32-1.61,6.55-2.26,9.82-.53,2.68-.99,5.4-1.22,8.12-.26,3.02.13,6.04.41,9.06.21,2.25.45,4.5.65,6.75.1,1.12.14,2.26.21,3.38.03.47.4.83.84.81.45-.02.68-.31.64-.87-.04-.6-.13-1.19-.18-1.78-.39-4.3-.79-8.61-1.15-12.91-.17-2.07-.26-4.16.09-6.22.56-3.29,1.22-6.56,1.85-9.83.13-.68.34-1.34.51-2.01.28,2.45.48,4.88.68,7.31.34,4.22.67,8.45,1,12.67.34,4.29.67,8.58,1,12.87.04.51.3.79.72.77.42-.02.66-.34.62-.85-.09-1.21-.2-2.42-.26-3.63-.01-.23.08-.54.24-.69.68-.66,1.38-1.3,2.1-1.91,1.62-1.34,3.17-2.74,4.39-4.47.16-.23.28-.54.29-.81.08-2.1-.08-4.19-.49-6.25-.16-.81-.34-1.61-.52-2.44.44.15.82.3,1.22.4,1.16.29,2.31.29,3.4-.27.42-.21.56-.6.37-.95-.22-.39-.56-.42-.94-.27-.25.1-.49.21-.75.25-1.45.27-2.67-.3-3.82-1.09-.1-.07-.15-.21-.2-.33-.27-.7-.54-1.39-.8-2.09-.38-1.03-.24-1.99.43-2.87,1.03-1.35,3.09-1.98,4.82-1.51,1.67.46,2.8,1.58,3.69,3.01.61.98,1.66.95,2.29,0,.37-.57.78-1.13,1.26-1.6,1.84-1.83,4.61-2.08,6.54-.58,1,.78,1.56,1.79,1.25,3.09-.24.96-.58,1.9-.9,2.84-.04.11-.16.21-.27.28-1.34.8-2.73,1.31-4.29.58-.33-.15-.68-.08-.86.28-.18.36-.1.68.25.9.17.1.35.19.54.26,1.11.38,2.22.33,3.33-.04.26-.09.52-.18.83-.29Zm-47.95,13.4c.88,0,1.76,0,2.64,0,.51,0,.83-.25.84-.65.02-.42-.31-.7-.84-.7-1.76,0-3.52,0-5.27,0-.53,0-.83.24-.84.65-.01.43.29.7.84.7.88,0,1.76,0,2.64,0Zm12.03,0c.88,0,1.76,0,2.64,0,.53,0,.81-.23.83-.65.01-.44-.28-.71-.83-.71-1.76,0-3.52,0-5.27,0-.52,0-.86.29-.84.71.02.41.31.65.84.65.88,0,1.76,0,2.64,0Z"/>
      <path class="cls-16" d="m172.32,216.4c-.31.11-.57.2-.83.29-1.1.36-2.22.41-3.33.04-.19-.06-.37-.15-.54-.26-.35-.22-.43-.55-.25-.9.18-.35.53-.43.86-.28,1.56.74,2.94.23,4.29-.58.11-.06.23-.17.27-.28.31-.94.66-1.88.9-2.84.32-1.3-.24-2.31-1.25-3.09-1.92-1.49-4.7-1.25-6.54.58-.48.48-.89,1.04-1.26,1.6-.63.95-1.69.98-2.29,0-.89-1.43-2.02-2.55-3.69-3.01-1.73-.48-3.78.16-4.82,1.51-.67.87-.81,1.84-.43,2.87.26.7.53,1.4.8,2.09.05.12.1.26.2.33,1.15.79,2.37,1.36,3.82,1.09.26-.05.5-.16.75-.25.39-.15.72-.12.94.27.2.35.06.73-.37.95-1.09.55-2.24.55-3.4.27-.4-.1-.78-.26-1.22-.4.18.83.36,1.63.52,2.44.41,2.06.56,4.15.49,6.25-.01.28-.13.59-.29.81-1.22,1.72-2.78,3.12-4.39,4.47-.73.6-1.43,1.25-2.1,1.91-.16.15-.25.46-.24.69.06,1.21.17,2.42.26,3.63.04.51-.2.83-.62.85-.42.02-.68-.25-.72-.77-.34-4.29-.67-8.58-1-12.87-.33-4.22-.66-8.45-1-12.67-.19-2.43-.4-4.86-.68-7.31-.17.67-.38,1.34-.51,2.01-.63,3.27-1.3,6.54-1.85,9.83-.35,2.06-.26,4.15-.09,6.22.36,4.31.76,8.61,1.15,12.91.05.6.14,1.19.18,1.78.04.56-.19.86-.64.87-.43.02-.81-.34-.84-.81-.07-1.13-.11-2.26-.21-3.38-.2-2.25-.44-4.5-.65-6.75-.28-3.01-.67-6.04-.41-9.06.24-2.72.69-5.44,1.22-8.12.65-3.27,1.49-6.5,2.26-9.82-2.28-.76-4.61-1.55-7.02-2.36.45.48.83.88,1.22,1.28.49.5.49.82-.03,1.29-.53.48-1.06.95-1.61,1.43.32.6.6,1.18.92,1.74.23.39.21.72.04,1.13-2.33,5.29-4.66,10.58-6.96,15.88-.17.4-.26.86-.27,1.29-.02,5.02-.01,10.05-.01,15.07,0,.13,0,.27,0,.4-.03.46-.33.74-.78.73-.43-.01-.7-.27-.71-.73-.01-1.03,0-2.06,0-3.09,0-4.17,0-8.35,0-12.52,0-.32-.07-.66-.2-.96-2.33-5.34-4.68-10.68-7.03-16.01-.19-.44-.21-.81.05-1.22.24-.38.4-.8.64-1.18.23-.36.21-.6-.14-.87-.45-.34-.86-.74-1.27-1.12-.44-.4-.44-.77-.03-1.19.4-.41.8-.84,1.27-1.32-2.39.8-4.7,1.58-7.07,2.37.12.5.24.98.36,1.45,1.12,4.27,2.11,8.57,2.82,12.94.49,2.99.53,5.99.18,8.99-.48,4.02-1,8.04-1.49,12.07-.06.53-.05,1.06-.09,1.59-.03.51-.3.81-.7.81-.42,0-.7-.34-.65-.88.24-2.31.5-4.62.75-6.93.4-3.7,1.05-7.37,1.05-11.11,0-2.45-.43-4.86-.91-7.26-.5-2.46-1.07-4.9-1.62-7.34-.02-.09-.06-.18-.17-.26-.1,1.2-.2,2.4-.3,3.6-.29,3.69-.58,7.39-.87,11.08-.18,2.35-.36,4.71-.54,7.06-.22,2.78-.45,5.57-.67,8.35-.08.96-.15,1.92-.22,2.88-.04.52-.34.84-.75.79-.41-.05-.63-.38-.59-.88.39-4.99.77-9.98,1.16-14.96.33-4.26.66-8.52,1-12.77.24-3.06.49-6.13.74-9.19.01-.13-.02-.26-.01-.4,0-.41.2-.69.6-.82,3.32-1.09,6.65-2.17,9.97-3.29.56-.19.75-.8.78-1.34.06-.99.02-2,.01-2.99,0-.16-.07-.32-.14-.47-.09-.2-.22-.37-.31-.57-.33-.68-.65-1.32-1.28-1.84-1.06-.88-1.42-3.11-.69-4.19.08-.13.06-.35.04-.52-.24-1.55-.37-3.1-.15-4.67.2-1.43.93-2.45,2.2-3.12,1.33-.69,2.77-.95,4.23-.99,1.61-.05,3.23.02,4.84-.02.43,0,.86-.17,1.27-.32.45-.17.88-.17,1.21.15.34.33.68.7.89,1.12.98,2.01,1.13,4.1.44,6.25-.17.54-.22,1.12-.31,1.69-.01.08.07.18.13.26.98,1.47.41,3.91-1.11,4.85-.24.15-.44.38-.59.62-.3.47-.58.97-.84,1.47-.1.18-.17.4-.17.6-.02.98-.01,1.96,0,2.94,0,.75.18.98.89,1.22,3.13,1.05,6.26,2.1,9.39,3.15.76.25.74.34.72,1.16-.01.93.11,1.86.18,2.78.22,2.75.44,5.5.66,8.25.14,1.74.27,3.48.41,5.22.14,1.72.27,3.44.47,5.17.04-.96.08-1.92.11-2.88.14-4.42.29-8.84.43-13.26.04-1.12.32-2.16.92-3.12.1-.15.15-.37.14-.55-.05-.84.29-1.24,1.13-1.41.94-.2,1.86-.46,2.8-.67.28-.06.36-.21.4-.47.55-3.78,1.12-7.56,1.66-11.34.07-.46-.02-.93.01-1.39.04-.64.09-1.29.19-1.93.05-.31,0-.47-.29-.63-.95-.53-1.43-1.38-1.41-2.46.02-1.08.55-1.89,1.5-2.42.15-.08.29-.26.34-.43.21-.68.61-1.16,1.28-1.44.12-.05.26-.15.32-.27.79-1.48,2.1-1.74,3.31-.73.62-.34,1.16-.79,1.78-.96,1.8-.48,3.45.92,3.39,2.81,0,.28,0,.45.32.56,2.68.93,4.19,2.88,4.74,5.61.27,1.3.27,2.6.04,3.91-.07.39.02.82.08,1.23.46,3.26.94,6.51,1.41,9.77.02.15.07.29.11.47,1.24.28,2.49.55,3.73.85.79.19,1.15.93.78,1.66-.16.3-.11.5.05.76.69,1.09,1.01,2.3,1.05,3.59.12,3.72.23,7.45.35,11.17.16,5.1.33,10.2.51,15.31,0,.21.13.44.24.63.52.94,1.07,1.87,1.58,2.83.23.42.1.81-.25.99-.37.19-.76.04-.97-.42-1.12-2.48-2.86-4.5-4.72-6.44-1.23-1.28-2.34-2.67-3.48-4.03-.45-.54-.56-1.15-.44-1.86.41-2.39.77-4.79,1.14-7.18.01-.09.02-.19.03-.35Zm-8.83-6.49c1.93-2.91,4.45-4.33,8.07-3.46.14-2.15.28-4.23.42-6.32-1.77-.4-3.41-.77-5.06-1.14-.63-.14-.76-.3-.8-.94-.04-.71-.1-1.41-.16-2.2-1.74,1.07-3.43.98-5.12-.06-.05.83-.09,1.56-.13,2.29-.03.6-.18.79-.76.92-1.47.33-2.94.67-4.42.99-.32.07-.45.19-.43.53.06,1.29.08,2.59.15,3.88.04.69.17,1.37.26,2.05,3.55-.85,6.05.59,7.98,3.47Zm-28.62-29.9c-.94.21-1.82.46-2.71.61-1.8.29-3.61.52-5.42.79-.16.02-.35.16-.44.3-.63.9-1.01,1.98-1.93,2.68-.05.04-.06.11-.09.17-.31.77.18,2.25.92,2.6.39.18.57.45.71.83.52,1.35,1.25,2.58,2.39,3.5,1.62,1.3,3.17,1.24,4.69-.18,1.01-.95,1.71-2.11,2.3-3.35.11-.24.28-.52.5-.63.94-.47,1.5-1.37,1.36-2.4-.03-.22-.15-.49-.32-.63-.28-.23-.37-.47-.36-.82.01-.33.07-.71-.07-.97-.48-.87-1.03-1.7-1.53-2.5Zm30.18,3.15c-2.14,2.33-4.48,4.34-7.57,5.23.39,1.97,2.25,4.86,3.87,6.06,1.44,1.06,2.71,1.08,4.17.03,1.16-.83,1.98-1.96,2.68-3.18.61-1.07,1.11-2.18,1.41-3.39-2.19-.96-3.4-2.81-4.56-4.76Zm-15.98,47.26c.77-.64,1.46-1.2,2.12-1.8.2-.18.38-.47.42-.73.42-3.11.76-6.23,1.25-9.33.32-2.03.36-3.94-.61-5.84-.74-1.44-.49-2.9.41-4.25.11-.17.17-.48.09-.67-.47-1.19-.97-2.36-1.49-3.53-.22-.51-.51-.99-.76-1.48-.06,0-.11,0-.17,0-.13.55-.35,1.1-.37,1.65-.13,3.09-.22,6.18-.33,9.26-.12,3.45-.24,6.91-.36,10.36-.07,2.07-.13,4.15-.2,6.35Zm28.79.04c-.03.05-.06.1-.09.16,0-.23,0-.45,0-.68-.13-3.77-.26-7.54-.38-11.31-.14-4.32-.27-8.64-.42-12.96-.03-.84-.21-1.66-.66-2.43-.07.06-.12.08-.13.12-.68,1.53-1.36,3.06-2.02,4.6-.05.12.03.35.12.48.93,1.34,1.04,2.75.49,4.27-.32.87-.56,1.77-.79,2.67-.11.39-.21.82-.16,1.22.44,3.63.91,7.25,1.39,10.87.04.3.09.68.28.87.76.74,1.58,1.43,2.38,2.13Zm-40.93-49.7c.67-1.44.24-4.31-.77-5.41-.98.44-2.03.35-3.08.35-1.34,0-2.69-.03-4.03.03-1.08.05-2.16.24-3.1.82-.46.29-.98.67-1.2,1.14-.64,1.35-.46,2.81-.24,4.26.21-.26.47-.52.51-.82.11-.68.56-.91,1.13-1,1.87-.28,3.75-.5,5.62-.82.91-.16,1.82-.4,2.66-.76.67-.29.89-.34,1.29.3.39.63.79,1.25,1.2,1.91Zm32.85,5.8l.18-.1c-.06-.84-.04-1.68-.18-2.51-.35-2.12-1.42-3.73-3.45-4.61-.53-.23-.97-.38-1.5.13-.55.54-1.34.6-2.1.51-.02.1-.03.14-.04.19-.14,1.39-1.19,2.16-2.55,1.85-.43-.1-.76.09-1,.39-.44.55-.96.96-1.65,1.13-.12.03-.27.15-.3.26-.29,1.05-.36,2.11-.12,3.2.1,0,.19.02.26,0,.42-.15.85-.29,1.26-.48,2.34-1.11,4.21-2.82,5.84-4.8.6-.73,1.05-.68,1.47.16.67,1.36,1.46,2.65,2.58,3.7.39.36.85.66,1.27.98Zm-39.59,29.86s.06.01.09.02c.04-.16.08-.31.11-.47.59-3.11,1.19-6.22,1.77-9.34.04-.23.05-.5-.01-.72-.58-1.9-1.17-3.8-1.77-5.7-.02-.08-.09-.14-.18-.27-.63,2.09-1.25,4.1-1.85,6.12-.04.13,0,.29.02.43.6,3.31,1.21,6.62,1.82,9.93Zm1.96-2.08s.06.02.09.03c.06-.11.12-.22.17-.34,1.35-3.07,2.66-6.15,4.07-9.19.46-.98.58-1.8-.12-2.67-.15-.19-.24-.44-.35-.66-.28-.54-.25-.77.2-1.18.47-.43.96-.86,1.46-1.31-.4-.39-.75-.74-1.1-1.08-.35-.34-.7-.68-1.14-1.1-1.11,5.92-2.2,11.71-3.28,17.5Zm-3.84-.09s.08-.02.12-.03c-1.07-5.76-2.14-11.52-3.23-17.36-.75.8-1.42,1.53-2.12,2.28.35.32.81.72,1.26,1.13.56.51.59.65.23,1.33-.25.49-.5.98-.78,1.45-.18.3-.17.56-.03.88,1.09,2.46,2.16,4.92,3.25,7.39.43.98.87,1.96,1.3,2.94Zm28.24-24.2c-.43,2.94-.84,5.73-1.26,8.59,1.34-.3,2.59-.57,3.84-.88.11-.03.23-.26.24-.41.07-.79.11-1.59.13-2.39,0-.17-.1-.37-.2-.52-.66-.97-1.36-1.92-2-2.9-.28-.42-.47-.9-.76-1.48Zm14.72,8.52c-.39-2.68-.76-5.26-1.15-7.91-.09.1-.13.13-.15.17-.69,1.39-1.5,2.7-2.59,3.82-.09.09-.14.27-.14.4.04.8.09,1.59.17,2.38.01.12.16.3.27.33,1.16.28,2.32.53,3.58.81Zm-44.24-6.37c-.13.81-.1,1.48.57,2.02.46.37.83.86,1.26,1.28.1.1.24.25.35.25,1.15-.04,2.41.38,3.26-.87.26-.38.63-.69,1-.96.58-.42.52-.96.45-1.64-2.34,2.14-4.61,1.83-6.89-.08Zm33.59-11.47c.6,0,.86-.47.64-.96-.3-.65-.28-.77.26-1.16.28-.21.38-.47.25-.78-.14-.32-.39-.46-.77-.38-.57.12-.81-.03-.94-.59-.1-.4-.32-.63-.73-.58-.39.05-.54.32-.55.71-.02.52-.23.75-.73.75-.4,0-.7.12-.78.53-.08.39.15.62.5.75.44.17.56.5.41.92-.13.35-.13.66.21.88.33.22.63.11.88-.17.3-.32.62-.33.98-.09.13.09.29.14.36.17Zm12.62,19.69c-.01.17-.03.3-.03.43-.04,1.11-.06,2.22-.14,3.33-.05.78-.19,1.55-.27,2.32-.02.2.02.41.03.61.03-.01.06-.03.09-.04.96-2.03,1.92-4.05,2.88-6.07-.82-.19-1.66-.38-2.56-.59Zm-19.63.02c-.79.18-1.63.38-2.45.57.97,2.05,1.93,4.08,2.89,6.12.04-.03.11-.06.11-.09-.18-2.19-.36-4.37-.55-6.61Zm-20.85,2.81s.06,0,.09-.01c.24-1.29.49-2.59.72-3.88.02-.12,0-.29-.07-.37-.59-.59-1.2-1.17-1.83-1.78-.1.9-.35,1.76,0,2.66.33.83.54,1.7.8,2.56.09.28.19.55.28.83Zm-5.05-.26s.07.01.1.02c.05-.13.11-.26.15-.39.29-.95.54-1.91.88-2.84.31-.84.13-1.64,0-2.48-.6.58-1.17,1.12-1.73,1.68-.07.07-.1.24-.08.35.22,1.22.45,2.44.68,3.66Zm25.41,23.65s.07.04.11.06c.37-.44.76-.86,1.09-1.33.17-.24.29-.57.28-.85-.03-1.21-.1-2.42-.19-3.63-.04-.49-.15-.98-.23-1.47-.04,0-.08,0-.12.01-.31,2.4-.62,4.81-.93,7.21Zm9.07-50.34c.88.82.99,1.1.96,2.28.65.08,1.21-.25,1.43-.87.23-.63-.02-1.35-.58-1.7-.59-.37-1.28-.27-1.81.29Zm-4.61,5.7c-.67-.72-.65-.72-.88-1.85-.04-.21-.27-.41-.46-.53-.07-.04-.32.12-.44.24-.49.5-.51,1.3-.07,1.86.45.56,1.2.68,1.84.28Zm15.43,39.16h-.12c-.15.99-.3,1.98-.43,2.98-.08.56.62,1.71,1.19,1.99-.21-1.66-.43-3.31-.64-4.97Zm-46.56-26.05c-.28.83.11,1.53.21,2.27.38-.37.73-.7,1.09-1.04-.41-.38-.81-.77-1.3-1.22Zm7.49,2.37c.06-.82.44-1.52.24-2.4-.51.48-.92.88-1.31,1.25.36.38.68.73,1.07,1.15Z"/>
      <path class="cls-21" d="m124.37,229.81c-.88,0-1.76,0-2.64,0-.54,0-.85-.27-.84-.7.01-.41.3-.65.84-.65,1.76,0,3.52,0,5.27,0,.53,0,.86.29.84.7-.02.4-.33.65-.84.65-.88,0-1.76,0-2.64,0Z"/>
      <path class="cls-20" d="m136.4,229.81c-.88,0-1.76,0-2.64,0-.53,0-.82-.24-.84-.65-.02-.41.32-.71.84-.71,1.76,0,3.52,0,5.27,0,.55,0,.84.26.83.71-.01.42-.29.65-.83.65-.88,0-1.76,0-2.64,0Z"/>
      <path class="cls-18" d="m163.48,209.92c-1.92-2.88-4.42-4.32-7.98-3.47-.09-.68-.22-1.36-.26-2.05-.08-1.29-.09-2.59-.15-3.88-.02-.33.11-.46.43-.53,1.48-.32,2.95-.66,4.42-.99.59-.13.73-.32.76-.92.04-.73.08-1.46.13-2.29,1.69,1.04,3.37,1.12,5.12.06.06.79.11,1.5.16,2.2.04.64.17.8.8.94,1.65.37,3.29.75,5.06,1.14-.14,2.1-.28,4.18-.42,6.32-3.61-.87-6.14.55-8.07,3.46Z"/>
      <path class="cls-24" d="m134.86,180.02c.5.8,1.06,1.63,1.53,2.5.14.26.08.64.07.97-.01.34.08.59.36.82.17.14.29.4.32.63.14,1.03-.42,1.94-1.36,2.4-.22.11-.39.39-.5.63-.59,1.24-1.28,2.41-2.3,3.35-1.52,1.42-3.06,1.48-4.69.18-1.15-.92-1.87-2.14-2.39-3.5-.14-.37-.32-.64-.71-.83-.74-.34-1.23-1.83-.92-2.6.02-.06.04-.14.09-.17.92-.7,1.3-1.78,1.93-2.68.1-.14.28-.28.44-.3,1.81-.27,3.62-.5,5.42-.79.9-.14,1.77-.39,2.71-.61Z"/>
      <path class="cls-18" d="m165.04,183.17c1.16,1.96,2.37,3.8,4.56,4.76-.3,1.21-.8,2.32-1.41,3.39-.7,1.22-1.52,2.34-2.68,3.18-1.45,1.05-2.73,1.03-4.17-.03-1.62-1.2-3.47-4.09-3.87-6.06,3.09-.89,5.43-2.9,7.57-5.23Z"/>
      <path class="cls-18" d="m149.07,230.43c.07-2.2.13-4.28.2-6.35.12-3.45.24-6.91.36-10.36.11-3.09.19-6.18.33-9.26.02-.56.24-1.1.37-1.65.06,0,.11,0,.17,0,.26.49.54.98.76,1.48.52,1.17,1.02,2.34,1.49,3.53.07.18.02.49-.09.67-.9,1.35-1.15,2.81-.41,4.25.97,1.9.93,3.81.61,5.84-.49,3.1-.82,6.22-1.25,9.33-.04.26-.22.55-.42.73-.66.6-1.36,1.16-2.12,1.8Z"/>
      <path class="cls-18" d="m177.86,230.47c-.8-.71-1.62-1.39-2.38-2.13-.19-.19-.24-.57-.28-.87-.48-3.62-.95-7.24-1.39-10.87-.05-.4.06-.82.16-1.22.24-.9.48-1.8.79-2.67.55-1.52.44-2.93-.49-4.27-.09-.13-.17-.35-.12-.48.66-1.54,1.34-3.07,2.02-4.6.02-.04.07-.06.13-.12.45.76.63,1.58.66,2.43.15,4.32.28,8.64.42,12.96.12,3.77.25,7.54.38,11.31,0,.23,0,.45,0,.68.03-.05.06-.1.09-.16Z"/>
      <path class="cls-18" d="m136.93,180.77c-.42-.66-.81-1.29-1.2-1.91-.4-.64-.63-.59-1.29-.3-.84.36-1.76.6-2.66.76-1.86.32-3.75.54-5.62.82-.57.09-1.02.32-1.13,1-.05.3-.3.56-.51.82-.22-1.45-.4-2.9.24-4.26.22-.47.73-.85,1.2-1.14.94-.58,2.02-.77,3.1-.82,1.34-.06,2.69-.03,4.03-.03,1.04,0,2.09.09,3.08-.35,1.02,1.09,1.45,3.97.77,5.41Z"/>
      <path class="cls-18" d="m169.78,186.58c-.43-.32-.88-.62-1.27-.98-1.12-1.05-1.91-2.33-2.58-3.7-.42-.85-.87-.89-1.47-.16-1.64,1.98-3.5,3.69-5.84,4.8-.4.19-.83.33-1.26.48-.07.03-.16,0-.26,0-.24-1.09-.18-2.15.12-3.2.03-.11.18-.23.3-.26.69-.17,1.21-.58,1.65-1.13.24-.3.56-.49,1-.39,1.36.31,2.41-.45,2.55-1.85,0-.05.02-.09.04-.19.76.09,1.55.03,2.1-.51.53-.51.97-.36,1.5-.13,2.02.89,3.09,2.5,3.45,4.61.14.82.12,1.67.18,2.51l-.18.1Z"/>
      <path class="cls-18" d="m130.2,216.44c-.61-3.31-1.21-6.62-1.82-9.93-.03-.14-.06-.3-.02-.43.6-2.02,1.21-4.03,1.85-6.12.09.13.15.2.18.27.6,1.9,1.19,3.8,1.77,5.7.07.22.06.49.01.72-.58,3.11-1.18,6.22-1.77,9.34-.03.16-.07.31-.11.47-.03,0-.06-.01-.09-.02Z"/>
      <path class="cls-18" d="m132.15,214.36c1.09-5.79,2.17-11.58,3.28-17.5.44.42.79.76,1.14,1.1.36.35.71.7,1.1,1.08-.5.45-.99.88-1.46,1.31-.45.41-.48.63-.2,1.18.11.22.2.47.35.66.7.87.58,1.69.12,2.67-1.42,3.04-2.72,6.12-4.07,9.19-.05.12-.11.22-.17.34-.03,0-.06-.02-.09-.03Z"/>
      <path class="cls-18" d="m128.31,214.27c-.44-.98-.87-1.96-1.3-2.94-1.08-2.46-2.15-4.93-3.25-7.39-.14-.32-.15-.57.03-.88.28-.47.53-.96.78-1.45.35-.67.33-.82-.23-1.33-.45-.41-.91-.82-1.26-1.13.7-.75,1.37-1.48,2.12-2.28,1.09,5.84,2.16,11.6,3.23,17.36-.04.01-.08.02-.12.03Z"/>
      <path class="cls-18" d="m156.55,190.07c.29.58.48,1.06.76,1.48.65.98,1.34,1.93,2,2.9.1.15.21.35.2.52-.02.8-.07,1.59-.13,2.39-.01.15-.13.38-.24.41-1.25.31-2.51.58-3.84.88.42-2.86.83-5.65,1.26-8.59Z"/>
      <path class="cls-18" d="m171.27,198.59c-1.26-.28-2.42-.53-3.58-.81-.11-.03-.26-.21-.27-.33-.08-.79-.13-1.59-.17-2.38,0-.13.05-.31.14-.4,1.09-1.12,1.9-2.43,2.59-3.82.02-.04.06-.07.15-.17.38,2.65.76,5.24,1.15,7.91Z"/>
      <path class="cls-18" d="m127.03,192.22c2.28,1.91,4.55,2.22,6.89.08.07.68.12,1.22-.45,1.64-.37.27-.75.59-1,.96-.85,1.25-2.11.83-3.26.87-.12,0-.25-.15-.35-.25-.42-.43-.79-.91-1.26-1.28-.67-.54-.7-1.21-.57-2.02Z"/>
      <path class="cls-18" d="m160.62,180.76c-.07-.03-.23-.08-.36-.17-.36-.24-.68-.23-.98.09-.26.28-.55.39-.88.17-.33-.22-.34-.53-.21-.88.15-.42.03-.75-.41-.92-.35-.13-.58-.36-.5-.75.08-.41.38-.53.78-.53.49,0,.71-.22.73-.75.01-.39.15-.66.55-.71.41-.05.63.18.73.58.13.56.38.71.94.59.38-.08.63.06.77.38.13.31.03.57-.25.78-.54.39-.56.51-.26,1.16.23.49-.04.96-.64.96Zm-.93-2.63c-.08,0-.15,0-.23,0-.14.21-.41.44-.38.62.03.2.32.47.53.51.29.05.57-.2.5-.53-.05-.22-.27-.41-.42-.61Z"/>
      <path class="cls-18" d="m173.24,200.45c.9.21,1.74.4,2.56.59-.96,2.01-1.92,4.04-2.88,6.07-.03.01-.06.03-.09.04-.01-.2-.05-.41-.03-.61.08-.77.22-1.55.27-2.32.08-1.11.09-2.22.14-3.33,0-.13.02-.26.03-.43Z"/>
      <path class="cls-18" d="m153.62,200.47c.19,2.23.37,4.42.55,6.61,0,.03-.07.06-.11.09-.96-2.04-1.92-4.07-2.89-6.12.82-.19,1.66-.39,2.45-.57Z"/>
      <path class="cls-18" d="m132.77,203.28c-.09-.28-.2-.55-.28-.83-.27-.85-.48-1.73-.8-2.56-.36-.9-.11-1.76,0-2.66.63.61,1.24,1.18,1.83,1.78.07.07.09.25.07.37-.23,1.3-.48,2.59-.72,3.88-.03,0-.06,0-.09.01Z"/>
      <path class="cls-18" d="m127.72,203.02c-.23-1.22-.46-2.44-.68-3.66-.02-.11.01-.28.08-.35.56-.56,1.13-1.1,1.73-1.68.12.84.3,1.64,0,2.48-.34.93-.59,1.9-.88,2.84-.04.13-.1.26-.15.39-.03,0-.07-.01-.1-.02Z"/>
      <path class="cls-18" d="m153.13,226.67c.31-2.4.62-4.81.93-7.21.04,0,.08,0,.12-.01.08.49.19.98.23,1.47.09,1.21.16,2.42.19,3.63,0,.28-.12.61-.28.85-.32.47-.72.89-1.09,1.33-.04-.02-.07-.04-.11-.06Z"/>
      <path class="cls-18" d="m162.21,176.32c.54-.56,1.22-.66,1.81-.29.56.35.81,1.07.58,1.7-.22.61-.78.95-1.43.87.03-1.18-.08-1.46-.96-2.28Z"/>
      <path class="cls-18" d="m157.6,182.02c-.65.41-1.39.28-1.84-.28-.45-.56-.43-1.36.07-1.86.12-.12.37-.29.44-.24.19.12.42.33.46.53.23,1.12.22,1.13.88,1.85Z"/>
      <path class="cls-18" d="m173.03,221.19c.21,1.65.42,3.31.64,4.97-.57-.27-1.26-1.43-1.19-1.99.14-1,.29-1.99.43-2.99h.12Z"/>
      <path class="cls-18" d="m126.47,195.14c.49.46.89.84,1.3,1.22-.36.34-.7.67-1.09,1.04-.1-.74-.49-1.44-.21-2.27Z"/>
      <path class="cls-18" d="m133.96,197.5c-.39-.42-.71-.77-1.07-1.15.39-.37.8-.77,1.31-1.25.2.89-.18,1.58-.24,2.4Z"/>
      <path class="cls-16" d="m159.69,178.13c.14.2.37.38.42.61.07.33-.21.58-.5.53-.21-.04-.5-.31-.53-.51-.03-.18.24-.41.38-.62.08,0,.15,0,.23,0Z"/>
    </g>
    <text class="cls-10" transform="translate(10.95 40.91)"><tspan x="0" y="0">Confirmar asistencia</tspan></text>
    <text class="cls-23" transform="translate(25.53 91)"><tspan class="cls-8"><tspan class="cls-11" x="0" y="0">A</tspan><tspan class="cls-28" x="12.67" y="0">g</tspan><tspan class="cls-11" x="24.69" y="0">r</tspan><tspan class="cls-25" x="31.96" y="0">a</tspan><tspan class="cls-34" x="42.72" y="0">d</tspan><tspan class="cls-27" x="54.48" y="0">e</tspan><tspan class="cls-33" x="65.23" y="0">c</tspan><tspan class="cls-11" x="75.42" y="0">em</tspan><tspan class="cls-25" x="101.87" y="0">o</tspan><tspan class="cls-13" x="113.47" y="0">s </tspan><tspan class="cls-29" x="129.3" y="0">q</tspan><tspan class="cls-27" x="140.92" y="0">ue pue</tspan><tspan class="cls-25" x="203.09" y="0">da</tspan><tspan class="cls-27" x="226.23" y="0">n</tspan></tspan><tspan class="cls-8"><tspan class="cls-25" x="-12.24" y="24.63">co</tspan><tspan class="cls-27" x="9.33" y="24.63">n</tspan><tspan class="cls-32" x="20.64" y="24.63">fi</tspan><tspan class="cls-27" x="31.07" y="24.63">r</tspan><tspan class="cls-25" x="38.95" y="24.63">ma</tspan><tspan class="cls-27" x="66.23" y="24.63">r su p</tspan><tspan class="cls-11" x="119.29" y="24.63">r</tspan><tspan class="cls-27" x="126.56" y="24.63">es</tspan><tspan class="cls-11" x="146.49" y="24.63">e</tspan><tspan class="cls-33" x="156.63" y="24.63">n</tspan><tspan class="cls-27" x="167.74" y="24.63">c</tspan><tspan class="cls-31" x="178.12" y="24.63">i</tspan><tspan class="cls-27" x="183.21" y="24.63">a </tspan><tspan class="cls-25" x="201.03" y="24.63">a</tspan><tspan class="cls-13" x="211.79" y="24.63">n</tspan><tspan class="cls-11" x="223.1" y="24.63">t</tspan><tspan class="cls-27" x="229.85" y="24.63">es</tspan></tspan><tspan class="cls-6" x="-25.4" y="49.26">d</tspan><tspan class="cls-9" x="-13.64" y="49.26">el V</tspan><tspan class="cls-6" x="21.69" y="49.26">i</tspan><tspan class="cls-1" x="26.16" y="49.26">e</tspan><tspan class="cls-5" x="36.3" y="49.26">r</tspan><tspan class="cls-3" x="44.18" y="49.26">n</tspan><tspan class="cls-4" x="55.29" y="49.26">es </tspan><tspan class="cls-14" x="81.87" y="49.26">19</tspan><tspan class="cls-5" x="106.34" y="49.26"> </tspan><tspan class="cls-6" x="112.99" y="49.26">d</tspan><tspan class="cls-9" x="124.75" y="49.26">e </tspan><tspan class="cls-2" x="142.16" y="49.26">A</tspan><tspan class="cls-9" x="154.82" y="49.26">g</tspan><tspan class="cls-7" x="165.83" y="49.26">o</tspan><tspan class="cls-4" x="177.42" y="49.26">s</tspan><tspan class="cls-6" x="186.6" y="49.26">t</tspan><tspan class="cls-5" x="192.94" y="49.26">o, </tspan><tspan class="cls-12" x="214" y="49.26">2024</tspan></text>
  </g>
</svg>