<?xml version="1.0" encoding="utf-8"?>
<!-- Generator: Adobe Illustrator 28.0.0, SVG Export Plug-In . SVG Version: 6.00 Build 0)  -->
<svg version="1.1" id="Capa_1" xmlns="http://www.w3.org/2000/svg" xmlns:xlink="http://www.w3.org/1999/xlink" x="0px" y="0px"
	 viewBox="0 0 122 29" style="enable-background:new 0 0 122 29;" xml:space="preserve">
<style type="text/css">
	.st0{fill:none;}
	.st1{fill:url(#SVGID_1_);}
	.st2{fill:url(#SVGID_00000105423171338407646880000010094884032686907578_);}
	.st3{enable-background:new    ;}
	.st4{fill:#FFFFFF;}
</style>
<pattern  x="-152" y="-426" width="276" height="169" patternUnits="userSpaceOnUse" id="Nueva_muestra_de_motivo_1" viewBox="0 -169 276 169" style="overflow:visible;">
	<g>
		<rect y="-169" class="st0" width="276" height="169"/>
		<g>
			<rect y="-169" class="st0" width="276" height="169"/>
			
				<linearGradient id="SVGID_1_" gradientUnits="userSpaceOnUse" x1="545" y1="-16302" x2="821" y2="-16302" gradientTransform="matrix(1 0 0 1 -545 16217.5)">
				<stop  offset="0" style="stop-color:#DCC173"/>
				<stop  offset="0.24" style="stop-color:#AB8136"/>
				<stop  offset="0.52" style="stop-color:#73582B"/>
				<stop  offset="0.86" style="stop-color:#DCC173"/>
			</linearGradient>
			<rect y="-169" class="st1" width="276" height="169"/>
		</g>
	</g>
</pattern>
<g>
	
		<pattern  id="SVGID_00000008861881857324844790000010571080943127054472_" xlink:href="#Nueva_muestra_de_motivo_1" patternTransform="matrix(0.89 0 0 -0.79 -431.5501 -10402.6514)">
	</pattern>
	<path style="fill:url(#SVGID_00000008861881857324844790000010571080943127054472_);" d="M12.1,0.2h97.8c6.6,0,12,5.4,12,12v4.7
		c0,6.6-5.4,12-12,12H12.1c-6.6,0-12-5.4-12-12v-4.7C0.1,5.5,5.5,0.2,12.1,0.2z"/>
	<g class="st3">
		<path class="st4" d="M27.6,9.8L24.6,18h-1.2l-3.1-8.2h1.1l2.6,7l2.6-7H27.6z"/>
		<path class="st4" d="M35.8,15.2h-5.1c0,0.6,0.3,1.1,0.7,1.5s0.9,0.5,1.4,0.5c0.5,0,0.8-0.1,1.2-0.3s0.5-0.5,0.7-0.9h1.1
			c-0.2,0.6-0.5,1.1-1,1.5s-1.2,0.6-1.9,0.6c-0.6,0-1.2-0.1-1.6-0.4c-0.5-0.3-0.9-0.7-1.1-1.2s-0.4-1.1-0.4-1.8
			c0-0.7,0.1-1.2,0.4-1.7c0.3-0.5,0.6-0.9,1.1-1.2c0.5-0.3,1-0.4,1.7-0.4c0.6,0,1.1,0.1,1.6,0.4s0.8,0.6,1.1,1.1
			c0.3,0.5,0.4,1,0.4,1.6C35.8,14.7,35.8,14.9,35.8,15.2z M34.5,13.3c-0.2-0.3-0.4-0.5-0.7-0.7s-0.7-0.2-1-0.2c-0.5,0-1,0.2-1.4,0.5
			c-0.4,0.3-0.6,0.8-0.7,1.4h4.1C34.7,13.9,34.6,13.5,34.5,13.3z"/>
		<path class="st4" d="M40.3,11.7c0.3-0.2,0.8-0.3,1.3-0.3v1.1h-0.3c-1.2,0-1.8,0.6-1.8,1.9V18h-1.1v-6.4h1.1v1
			C39.7,12.2,39.9,11.9,40.3,11.7z"/>
		<path class="st4" d="M57.3,11.8c0.4,0.2,0.7,0.5,0.9,0.9c0.2,0.4,0.3,0.9,0.3,1.5V18h-1.1v-3.6c0-0.6-0.2-1.1-0.5-1.5
			s-0.7-0.5-1.3-0.5c-0.6,0-1,0.2-1.3,0.5c-0.3,0.4-0.5,0.9-0.5,1.5V18h-1.1v-3.6c0-0.6-0.2-1.1-0.5-1.5s-0.7-0.5-1.3-0.5
			c-0.6,0-1,0.2-1.3,0.5c-0.3,0.4-0.5,0.9-0.5,1.5V18h-1.1v-6.4h1.1v0.9c0.2-0.3,0.5-0.6,0.9-0.8c0.4-0.2,0.7-0.3,1.2-0.3
			c0.5,0,1,0.1,1.4,0.4s0.7,0.6,0.9,1.1c0.2-0.5,0.5-0.8,0.9-1.1c0.4-0.2,0.9-0.4,1.4-0.4C56.5,11.4,56.9,11.5,57.3,11.8z"/>
		<path class="st4" d="M61.5,13c0.3-0.5,0.6-0.9,1.1-1.2s1-0.4,1.6-0.4c0.6,0,1.1,0.1,1.5,0.4s0.7,0.5,0.9,0.9v-1.2h1.1V18h-1.1
			v-1.2c-0.2,0.4-0.5,0.7-0.9,0.9s-0.9,0.4-1.5,0.4c-0.6,0-1.1-0.1-1.5-0.4s-0.8-0.7-1.1-1.2s-0.4-1.1-0.4-1.7
			C61.1,14.1,61.2,13.5,61.5,13z M66.2,13.5c-0.2-0.4-0.5-0.6-0.8-0.8c-0.3-0.2-0.7-0.3-1.1-0.3s-0.8,0.1-1.1,0.3s-0.6,0.5-0.8,0.8
			s-0.3,0.8-0.3,1.3c0,0.5,0.1,0.9,0.3,1.3s0.5,0.6,0.8,0.8s0.7,0.3,1.1,0.3s0.8-0.1,1.1-0.3s0.6-0.5,0.8-0.8s0.3-0.8,0.3-1.3
			C66.5,14.3,66.4,13.9,66.2,13.5z"/>
		<path class="st4" d="M72.6,11.8c0.4-0.2,0.9-0.4,1.5-0.4c0.6,0,1.1,0.1,1.6,0.4s0.8,0.7,1.1,1.2c0.3,0.5,0.4,1.1,0.4,1.7
			c0,0.6-0.1,1.2-0.4,1.7c-0.3,0.5-0.6,0.9-1.1,1.2s-1,0.4-1.6,0.4c-0.5,0-1-0.1-1.4-0.4s-0.7-0.6-1-0.9V21h-1.1v-9.5h1.1v1.2
			C71.9,12.4,72.2,12.1,72.6,11.8z M75.7,13.5c-0.2-0.4-0.5-0.6-0.8-0.8s-0.7-0.3-1.1-0.3c-0.4,0-0.8,0.1-1.1,0.3
			c-0.3,0.2-0.6,0.5-0.8,0.8c-0.2,0.4-0.3,0.8-0.3,1.3c0,0.5,0.1,0.9,0.3,1.3s0.5,0.6,0.8,0.8s0.7,0.3,1.1,0.3
			c0.4,0,0.8-0.1,1.1-0.3s0.6-0.5,0.8-0.8s0.3-0.8,0.3-1.3C76,14.3,75.9,13.8,75.7,13.5z"/>
		<path class="st4" d="M79.7,13c0.3-0.5,0.6-0.9,1.1-1.2s1-0.4,1.6-0.4c0.6,0,1.1,0.1,1.5,0.4s0.7,0.5,0.9,0.9v-1.2h1.1V18h-1.1
			v-1.2c-0.2,0.4-0.5,0.7-0.9,0.9s-0.9,0.4-1.5,0.4c-0.6,0-1.1-0.1-1.5-0.4S80,17,79.7,16.5s-0.4-1.1-0.4-1.7
			C79.3,14.1,79.4,13.5,79.7,13z M84.4,13.5c-0.2-0.4-0.5-0.6-0.8-0.8c-0.3-0.2-0.7-0.3-1.1-0.3s-0.8,0.1-1.1,0.3s-0.6,0.5-0.8,0.8
			s-0.3,0.8-0.3,1.3c0,0.5,0.1,0.9,0.3,1.3s0.5,0.6,0.8,0.8s0.7,0.3,1.1,0.3s0.8-0.1,1.1-0.3s0.6-0.5,0.8-0.8s0.3-0.8,0.3-1.3
			C84.7,14.3,84.6,13.9,84.4,13.5z"/>
	</g>
	<g>
		<path class="st4" d="M102.8,16.3c0.1,0.2,0.1,0.3,0.1,0.5c0,0.2,0,0.5,0.1,0.7c0,0.2,0.1,0.4,0.1,0.6c0,0,0.1,0.1,0.1,0.1
			c0.1,0.1,0.1,0.1,0.2,0.2s0.1,0.2,0.2,0.2s0.1,0.1,0.2,0.2c0.1,0.1,0.2,0.2,0.3,0.3c0.1,0.1,0.2,0.3,0.4,0.4
			c0.1,0.1,0.1,0.2,0.2,0.2c0,0,0,0,0.1,0.1c0.1,0.1,0.1,0.2,0.1,0.3c0,0.1-0.1,0.1-0.1,0.2c-0.1,0.1-0.1,0.1-0.2,0.2c0,0,0,0,0,0
			c-0.2,0.1-0.3,0.3-0.5,0.5c-0.1,0.1-0.2,0.2-0.3,0.3c-0.1,0.1-0.2,0.2-0.4,0.4c-0.1,0.1-0.2,0.2-0.3,0.3c-0.2,0.2-0.3,0.3-0.5,0.5
			c-0.1,0.1-0.1,0.1-0.2,0.2c-0.1,0.1-0.1,0.1-0.2,0.2c-0.1,0.1-0.1,0.1-0.2,0.2c-0.1,0.1-0.1,0.1-0.2,0.2c-0.1,0-0.2,0-0.3,0
			c-0.1-0.1-0.2-0.2-0.2-0.2c-0.1-0.1-0.1-0.1-0.2-0.2c-0.1-0.1-0.2-0.2-0.2-0.3c-0.1-0.1-0.1-0.1-0.2-0.2c-0.1-0.1-0.2-0.2-0.3-0.3
			c-0.2-0.2-0.3-0.4-0.5-0.6c-0.1-0.1-0.2-0.3-0.4-0.4c0,0-0.1,0-0.1,0c-0.1,0.1-0.2,0.1-0.3,0.2c-0.1,0.1-0.2,0.1-0.3,0.1
			c-0.1,0-0.2,0-0.3,0c-0.2,0-0.4-0.1-0.6-0.2c-0.1-0.1-0.3-0.1-0.4-0.2c-0.2-0.1-0.4-0.2-0.6-0.2c-0.1,0-0.2-0.1-0.3-0.1
			c-0.1,0-0.2,0-0.3,0c-0.3,0-0.5,0-0.8,0c-0.1,0-0.2,0-0.3,0.1c-0.1,0-0.2,0-0.3,0c-0.1,0-0.2-0.1-0.3-0.2
			c-0.1-0.1-0.1-0.2-0.2-0.3c0,0,0-0.1,0-0.2c-0.1-0.2,0-0.4,0-0.6c0.1-0.2,0.1-0.3,0.2-0.5c0.1-0.1,0.2-0.3,0.4-0.4
			c0.1,0,0.1-0.1,0.2-0.1c0.1,0,0.2-0.1,0.4-0.1c0.1,0,0.3-0.1,0.4-0.1c0.1,0,0.2,0,0.3,0c0,0,0.1,0,0.1,0c0,0,0-0.1,0-0.1
			c-0.1-0.1-0.1-0.1-0.2-0.2c-0.1-0.1-0.2-0.2-0.3-0.3c-0.1-0.1-0.3-0.3-0.4-0.4c-0.2-0.2-0.3-0.4-0.5-0.6c-0.1-0.1-0.2-0.3-0.4-0.4
			c-0.1-0.1-0.1-0.2-0.2-0.2c-0.1-0.1-0.2-0.2-0.2-0.2c-0.1-0.1-0.2-0.2-0.2-0.3c-0.1-0.1-0.2-0.2-0.2-0.2c-0.1-0.1-0.1-0.1-0.2-0.2
			c-0.1-0.1-0.3-0.3-0.4-0.4c-0.1-0.1-0.1-0.2-0.2-0.2c-0.1-0.1-0.2-0.2-0.3-0.3c-0.2-0.1-0.2-0.3-0.3-0.6c0-0.1,0-0.3,0-0.4
			c0-0.2,0.1-0.4,0.2-0.5c0-0.1,0.1-0.1,0.1-0.1c0.1-0.1,0.2-0.2,0.4-0.2c0,0,0.1,0,0.1,0c0.2,0,0.4,0,0.6,0.2
			c0.1,0.1,0.2,0.2,0.3,0.3c0,0,0.1,0,0.1,0.1c0.1,0.1,0.2,0.3,0.3,0.4c0.1,0.1,0.2,0.2,0.2,0.3c0.1,0.2,0.3,0.3,0.4,0.5
			c0.1,0.1,0.2,0.3,0.4,0.4c0,0,0,0,0,0.1c0,0.1,0.1,0.1,0.1,0c0.1-0.1,0.2-0.3,0.3-0.4c0.2-0.1,0.4-0.2,0.7-0.1c0,0,0.1,0,0.1,0
			c0.1,0,0.1,0,0.2-0.1c0-0.1,0.1-0.2,0.2-0.3c0.1-0.1,0.2-0.1,0.3-0.2c0.1-0.1,0.2-0.1,0.4-0.1c0.2,0,0.3,0,0.4,0.1
			c0.1,0,0.1,0,0.1-0.1c0.1-0.2,0.2-0.3,0.3-0.4c0.1-0.1,0.2-0.1,0.3-0.2c0.2-0.1,0.4-0.1,0.5,0c0.1,0,0.2,0.1,0.2,0.1
			c0.1,0.1,0.2,0.1,0.3,0.2c0.1,0.1,0.2,0.2,0.2,0.2c0.2,0.2,0.3,0.4,0.5,0.6c0.1,0.1,0.2,0.3,0.4,0.4s0.2,0.3,0.4,0.4
			c0.1,0.1,0.2,0.2,0.2,0.3c0.1,0.1,0.1,0.1,0.2,0.2c0.1,0.2,0.3,0.3,0.4,0.5c0.1,0.1,0.2,0.2,0.2,0.3
			C102.7,16,102.8,16.1,102.8,16.3L102.8,16.3z M102.3,16.5c0-0.1-0.1-0.2-0.2-0.4c-0.1-0.1-0.2-0.3-0.3-0.4
			c-0.1-0.1-0.2-0.3-0.4-0.4c-0.1-0.1-0.1-0.2-0.2-0.3s-0.2-0.2-0.2-0.3c-0.1-0.1-0.1-0.2-0.2-0.2c-0.1-0.1-0.2-0.2-0.2-0.3
			c-0.1-0.1-0.1-0.2-0.2-0.2c-0.1-0.1-0.2-0.2-0.2-0.2c-0.2-0.2-0.3-0.4-0.5-0.5c-0.1-0.1-0.2-0.1-0.3-0.1c-0.2,0-0.3,0.1-0.4,0.2
			c-0.1,0.2-0.1,0.4,0,0.5c0.1,0.1,0.2,0.3,0.3,0.4c0.1,0.1,0.2,0.2,0.1,0.3c-0.1,0.1-0.2,0.2-0.3,0.2c-0.1,0-0.1,0-0.2-0.1
			c-0.1-0.1-0.2-0.2-0.2-0.2c-0.1-0.1-0.1-0.2-0.2-0.2s-0.2-0.2-0.2-0.2c-0.1-0.1-0.3-0.2-0.4-0.1c-0.1,0-0.2,0.1-0.2,0.1
			c-0.1,0.1-0.2,0.4-0.1,0.5c0.1,0.1,0.2,0.2,0.2,0.3c0.2,0.2,0.3,0.3,0.4,0.5c0.1,0.1,0.1,0.3,0,0.4c-0.1,0.1-0.2,0.1-0.3,0.1
			c-0.1-0.1-0.2-0.2-0.3-0.3c-0.1-0.1-0.2-0.2-0.2-0.3c-0.1-0.1-0.1-0.1-0.2-0.2c-0.1-0.1-0.2-0.2-0.2-0.3c0-0.1-0.1-0.1-0.1-0.1
			c-0.1-0.1-0.2-0.1-0.2-0.1c-0.1,0-0.2,0.1-0.4,0.1s-0.2,0.3-0.1,0.4c0,0.1,0.2,0.2,0.2,0.3c0.1,0.1,0.2,0.2,0.3,0.3
			c0.1,0.1,0.2,0.2,0.3,0.3c0.1,0.1,0.1,0.2,0.2,0.2c0.1,0,0.1,0.1,0.1,0.2c0,0.2-0.2,0.3-0.4,0.3c-0.1,0-0.1-0.1-0.2-0.1
			c-0.1-0.1-0.3-0.3-0.4-0.4c-0.1-0.1-0.1-0.1-0.2-0.2c-0.1-0.1-0.3-0.3-0.4-0.4c-0.1-0.1-0.1-0.1-0.2-0.2c-0.1-0.1-0.1-0.2-0.2-0.2
			c-0.1-0.1-0.1-0.1-0.2-0.2c-0.1-0.1-0.2-0.3-0.4-0.4c-0.1-0.1-0.1-0.1-0.2-0.2c0,0-0.1-0.1-0.1-0.1c-0.1-0.1-0.1-0.2-0.2-0.2
			c-0.1-0.1-0.2-0.3-0.3-0.4c-0.1-0.1-0.2-0.3-0.4-0.4c-0.1-0.1-0.2-0.1-0.2-0.2s-0.2-0.1-0.3,0c-0.1,0.1-0.2,0.1-0.2,0.2
			c-0.1,0.1-0.1,0.2-0.1,0.3c0,0.2,0,0.3,0.1,0.5c0.1,0.1,0.2,0.2,0.2,0.2c0.1,0.1,0.2,0.3,0.3,0.4c0.1,0.1,0.2,0.2,0.3,0.3
			c0.1,0.1,0.1,0.1,0.2,0.2c0.1,0.1,0.2,0.2,0.3,0.3c0.1,0.1,0.1,0.2,0.2,0.2s0.1,0.1,0.2,0.2c0.1,0.1,0.2,0.2,0.2,0.3
			c0.1,0.1,0.3,0.3,0.4,0.4c0,0,0.1,0.1,0.1,0.1c0.1,0.1,0.1,0.2,0.2,0.2c0.1,0.1,0.2,0.2,0.3,0.3c0.1,0.1,0.2,0.2,0.3,0.3
			c0.1,0.1,0.1,0.1,0.2,0.2c0.1,0.1,0.2,0.2,0.3,0.3c0.2,0.2,0.3,0.4,0.5,0.5c0.2,0.2,0.3,0.4,0.5,0.6c0.1,0.2,0.1,0.3,0,0.4
			c0,0-0.1,0.1-0.2,0.1c-0.1,0-0.1,0-0.1,0c-0.1,0-0.2-0.2-0.3-0.3s-0.1-0.2-0.3-0.2c-0.1,0-0.2,0-0.4,0c0,0-0.1,0-0.1,0
			c-0.1,0-0.3,0-0.4,0c-0.2,0-0.3,0.1-0.5,0.1c-0.2,0.1-0.4,0.2-0.5,0.4c-0.1,0.2-0.2,0.4-0.1,0.6c0,0,0.1,0.1,0.1,0.1
			c0,0,0.1,0,0.1,0c0.2-0.1,0.4-0.1,0.7-0.1c0.1,0,0.3,0,0.4,0c0.2,0,0.3,0,0.5,0.1c0.2,0,0.3,0.1,0.5,0.1c0.2,0.1,0.3,0.1,0.5,0.2
			c0.2,0.1,0.5,0.2,0.8,0.3c0.1,0,0.1,0,0.2,0c0.2-0.1,0.4-0.3,0.6-0.4c0.1,0,0.2-0.1,0.2,0c0.1,0,0.1,0.1,0.2,0.1
			c0.1,0.1,0.2,0.2,0.3,0.4c0.1,0.1,0.2,0.3,0.4,0.4c0.1,0.1,0.2,0.2,0.3,0.4c0.1,0.1,0.3,0.3,0.4,0.5c0.1,0.1,0.1,0.2,0.2,0.2
			c0.1,0.1,0.2,0.2,0.2,0.2c0.1,0.1,0.1,0.1,0.1,0c0.1-0.1,0.1-0.1,0.2-0.2c0.1-0.1,0.1-0.1,0.2-0.2c0.2-0.2,0.4-0.4,0.6-0.6
			c0.1-0.1,0.2-0.2,0.3-0.3c0.1,0,0.1-0.1,0.2-0.1c0.1-0.1,0.2-0.2,0.3-0.3c0.1,0,0.1-0.1,0.1-0.1c0.1-0.1,0.2-0.2,0.4-0.4
			c0.1-0.1,0.1-0.1,0.2-0.2c0.1-0.1,0.1-0.1,0-0.2s-0.1-0.1-0.2-0.2c-0.2-0.2-0.3-0.4-0.5-0.6c-0.1-0.1-0.2-0.3-0.4-0.4
			c-0.1-0.1-0.1-0.1-0.2-0.2s-0.1-0.2-0.2-0.2c-0.1,0-0.1-0.1-0.1-0.2c0-0.1,0-0.2,0-0.3c0-0.2,0-0.3,0-0.5
			C102.5,17.1,102.4,16.8,102.3,16.5L102.3,16.5z"/>
		<path class="st4" d="M91.1,10.9c0.1,0,0.2,0,0.3,0.1c0.1,0.1,0.2,0.3,0.3,0.4c0.1,0.1,0.2,0.2,0.3,0.3c0.1,0.2,0.3,0.4,0.4,0.6
			c0,0.1,0,0.1,0,0.1c-0.1,0.1-0.1,0.1-0.2,0.1c0,0,0,0-0.1,0c-0.1-0.1-0.2-0.2-0.3-0.2c-0.1-0.1-0.2-0.2-0.3-0.2
			c-0.1-0.1-0.2-0.2-0.3-0.3s-0.2-0.2-0.3-0.3c0,0-0.1-0.1,0-0.1C90.9,11.1,91,11,91.1,10.9L91.1,10.9z"/>
		<path class="st4" d="M90.8,15.5c0-0.1,0-0.2,0.1-0.2c0,0,0.1,0,0.1-0.1c0,0,0.1-0.1,0.1-0.1c0,0,0,0,0.1-0.1c0,0,0.1-0.1,0.1-0.1
			c0,0,0.1-0.1,0.1-0.1c0.1-0.1,0.3-0.2,0.4-0.3c0.1-0.1,0.2-0.1,0.3-0.2c0.1-0.1,0.3,0,0.3,0.1c0,0,0,0.1,0,0.1
			c-0.1,0.1-0.1,0.1-0.2,0.2c-0.1,0.1-0.1,0.1-0.2,0.2c-0.1,0.1-0.1,0.1-0.1,0.1c-0.1,0.1-0.2,0.2-0.3,0.3c-0.1,0.1-0.1,0.1-0.2,0.2
			c-0.1,0.1-0.2,0.1-0.3,0.1C90.9,15.6,90.8,15.6,90.8,15.5L90.8,15.5z"/>
		<path class="st4" d="M93.4,10.6c0,0,0,0.1,0,0.1c0,0.2,0,0.4-0.1,0.5c0,0.2,0,0.4-0.1,0.5c0,0.1,0,0.2-0.1,0.3
			c0,0.1-0.1,0.1-0.1,0.1C93,12.1,93,12.1,93,12c0-0.2,0-0.3,0-0.5c0-0.1,0-0.3,0-0.4c0-0.1,0-0.3,0-0.4c0-0.1,0.1-0.2,0.2-0.2
			C93.2,10.4,93.4,10.5,93.4,10.6L93.4,10.6z"/>
		<path class="st4" d="M95.7,11.5c0,0.1,0,0.1-0.1,0.2c-0.1,0.1-0.3,0.2-0.4,0.3c-0.1,0.1-0.2,0.2-0.3,0.3c-0.1,0.1-0.3,0.2-0.4,0.3
			c0,0,0,0-0.1,0c-0.1,0-0.2-0.1-0.1-0.1c0-0.1,0.1-0.1,0.1-0.1c0.1-0.1,0.2-0.2,0.2-0.2c0.1-0.1,0.1-0.1,0.2-0.2
			c0.1-0.1,0.1-0.1,0.2-0.2s0.1-0.1,0.2-0.2c0,0,0,0,0.1-0.1c0.1-0.1,0.2-0.1,0.3-0.1C95.6,11.4,95.7,11.5,95.7,11.5z"/>
		<path class="st4" d="M91.8,13.4c0,0-0.1,0-0.2,0c-0.1,0-0.1,0-0.2,0s-0.2,0-0.2,0c-0.1,0-0.1,0-0.2,0c0,0-0.1,0-0.1,0
			c-0.1,0-0.1,0-0.2,0c0,0-0.1,0-0.1,0c-0.1,0-0.2,0-0.3,0c-0.1,0-0.2-0.1-0.1-0.2c0-0.1,0-0.1,0.1-0.2c0-0.1,0.1-0.1,0.2-0.1
			c0.1,0,0.2,0,0.3,0.1c0.1,0,0.3,0,0.4,0.1c0.2,0,0.4,0.1,0.6,0.1c0.1,0,0.2,0.1,0.2,0.1C91.9,13.3,91.9,13.4,91.8,13.4L91.8,13.4z
			"/>
		<path class="st4" d="M95.8,12.8c-0.2,0.1-0.4,0.1-0.6,0.2c-0.1,0-0.2,0.1-0.3,0.1c-0.1,0-0.1,0-0.2-0.1c0-0.1,0-0.1,0.1-0.2
			c0.1-0.1,0.2-0.1,0.3-0.1c0.1-0.1,0.3-0.1,0.4-0.2c0.1,0,0.2-0.1,0.3-0.1c0.1,0,0.2,0.1,0.2,0.1C96,12.7,96,12.8,95.8,12.8
			L95.8,12.8z"/>
		<path class="st4" d="M92.1,16.1c-0.1,0-0.1,0-0.1,0c0,0-0.1,0-0.1-0.1c0,0-0.1-0.1,0-0.1c0-0.1,0.1-0.1,0.1-0.2
			c0.1-0.2,0.2-0.4,0.4-0.6c0,0,0.1-0.1,0.1-0.1c0-0.1,0.1-0.1,0.2-0.1c0,0,0.1,0.1,0,0.2c0,0.1-0.1,0.1-0.1,0.2
			c-0.1,0.1-0.1,0.3-0.2,0.4c0,0.1-0.1,0.2-0.1,0.3C92.3,16.1,92.2,16.1,92.1,16.1L92.1,16.1z"/>
		<path class="st4" d="M90.9,14.3c0-0.1,0-0.2,0.1-0.2c0,0,0,0,0.1,0c0.2-0.1,0.4-0.1,0.7-0.2c0,0,0.1,0,0.1,0c0,0,0.1,0,0.1,0.1
			c0,0,0,0.1,0,0.1c-0.1,0-0.1,0.1-0.2,0.1c-0.2,0.1-0.3,0.1-0.5,0.2c0,0,0,0-0.1,0C91,14.4,90.9,14.4,90.9,14.3L90.9,14.3z"/>
		<path class="st4" d="M93.9,12.1C93.9,12.1,93.8,12.1,93.9,12.1c-0.1,0-0.1-0.1-0.1-0.1c0-0.1,0.1-0.2,0.1-0.4
			c0.1-0.1,0.1-0.3,0.2-0.4c0-0.1,0.1-0.1,0.2-0.1c0.2,0.1,0.2,0.1,0.1,0.2c-0.1,0.2-0.2,0.4-0.3,0.5C94,12,94,12.1,93.9,12.1
			C94,12.1,94,12.1,93.9,12.1L93.9,12.1z"/>
	</g>
</g>
</svg>
