<?xml version="1.0" encoding="UTF-8"?>
<svg id="Capa_2" data-name="Capa 2" xmlns="http://www.w3.org/2000/svg" xmlns:xlink="http://www.w3.org/1999/xlink" viewBox="0 0 114.36 26.9">
  <defs>
    <style>
      .cls-1 {
        fill: url(#linear-gradient);
      }

      .cls-1, .cls-2, .cls-3, .cls-4 {
        stroke-width: 0px;
      }

      .cls-2 {
        fill: url(#Nueva_muestra_de_motivo_1);
      }

      .cls-3 {
        fill: none;
      }

      .cls-4, .cls-5 {
        fill: #fff;
      }

      .cls-5 {
        font-family: Poppins-Regular, Poppins;
        font-size: 11px;
        letter-spacing: .1em;
      }
    </style>
    <linearGradient id="linear-gradient" x1="545" y1="-15422" x2="821" y2="-15422" gradientTransform="translate(-545 -15337.5) scale(1 -1)" gradientUnits="userSpaceOnUse">
      <stop offset="0" stop-color="#dcc173"/>
      <stop offset=".24" stop-color="#ab8136"/>
      <stop offset=".52" stop-color="#73582b"/>
      <stop offset=".86" stop-color="#dcc173"/>
    </linearGradient>
    <pattern id="Nueva_muestra_de_motivo_1" data-name="Nueva muestra de motivo 1" x="0" y="0" width="276" height="169" patternTransform="translate(72.6 -3369.62) scale(.89 .79)" patternUnits="userSpaceOnUse" viewBox="0 0 276 169">
      <g>
        <rect class="cls-3" width="276" height="169"/>
        <rect class="cls-1" width="276" height="169"/>
      </g>
    </pattern>
  </defs>
  <g id="Capa_1-2" data-name="Capa 1">
    <g>
      <rect class="cls-2" width="114.36" height="26.9" rx="12" ry="12"/>
      <text class="cls-5" transform="translate(18.14 16.72)"><tspan x="0" y="0">Click aquí</tspan></text>
      <g>
        <path class="cls-4" d="m96.47,15.15c.08.16.09.32.1.49.02.23.03.46.06.69.03.18.08.35.13.52.01.05.05.09.08.12.06.07.13.14.2.22.07.07.13.15.2.23.06.07.13.14.19.22.09.1.17.2.26.3.12.13.23.25.35.38.07.07.13.15.19.22.02.02.03.04.05.06.12.11.11.19.06.31-.02.06-.08.1-.12.15-.07.07-.13.14-.2.22,0,0,0,.01-.01.01-.18.14-.31.32-.48.47-.1.09-.18.2-.28.3-.11.11-.23.22-.34.33-.1.1-.2.21-.3.31-.16.16-.32.32-.48.48-.06.06-.12.13-.18.19-.06.06-.12.11-.18.17-.07.07-.13.14-.2.21-.05.05-.11.1-.17.15-.05.04-.19.01-.24-.04-.08-.07-.14-.15-.21-.23-.05-.06-.1-.11-.15-.17-.07-.08-.15-.16-.22-.24-.06-.06-.11-.13-.17-.19-.09-.1-.18-.21-.28-.31-.16-.19-.33-.38-.49-.57-.11-.13-.23-.25-.35-.38-.03-.03-.07-.04-.1-.01-.07.08-.17.12-.27.17-.1.05-.2.11-.3.14-.09.03-.2.03-.29.01-.18-.03-.35-.09-.52-.17-.13-.06-.25-.13-.38-.19-.17-.08-.34-.16-.52-.2-.09-.02-.17-.05-.25-.07-.09-.02-.19-.04-.28-.05-.25-.03-.49,0-.74.01-.11,0-.21.04-.32.06-.1.01-.21.03-.31.02-.12-.02-.22-.08-.29-.18-.06-.07-.11-.16-.15-.24-.02-.05-.02-.11-.03-.17-.05-.18-.02-.36.03-.53.04-.16.12-.3.22-.44.1-.13.22-.24.35-.34.05-.04.11-.07.16-.09.11-.04.23-.08.34-.12.13-.05.26-.05.4-.06.08,0,.17,0,.26,0,.02,0,.06-.01.06-.02,0-.03,0-.06-.02-.08-.05-.06-.11-.12-.16-.18-.1-.11-.19-.21-.28-.32-.12-.13-.25-.27-.37-.4-.16-.18-.3-.36-.46-.54-.12-.13-.24-.25-.36-.38-.07-.07-.13-.15-.19-.22-.07-.08-.15-.16-.22-.24-.07-.08-.14-.17-.22-.25-.07-.08-.14-.16-.21-.23-.06-.07-.12-.14-.18-.21-.13-.14-.25-.28-.38-.42-.07-.08-.13-.16-.2-.24-.08-.09-.16-.19-.25-.28-.15-.14-.23-.32-.28-.51-.03-.13-.02-.25,0-.38.03-.19.12-.35.22-.51.03-.05.08-.1.12-.13.12-.09.23-.2.38-.23.04,0,.08-.02.12-.02.21,0,.41.04.59.16.12.08.23.18.31.3.02.02.04.04.06.06.11.12.21.24.32.37.07.08.14.16.21.24.13.15.25.29.38.44.11.13.23.25.35.38.01.02.03.03.04.05.04.06.09.06.12,0,.07-.14.17-.26.31-.35.2-.13.42-.18.66-.14.04,0,.07.02.11.03.08.02.13-.01.15-.09.02-.1.09-.18.15-.26.06-.09.16-.14.24-.21.1-.08.22-.11.34-.12.14,0,.28,0,.41.05.04.02.09-.01.1-.06.05-.17.15-.29.27-.41.09-.08.19-.14.3-.17.17-.05.34-.07.51-.02.08.02.15.05.22.08.11.05.19.13.27.21.08.07.14.16.21.24.16.18.32.36.48.54.11.13.22.26.34.39.12.13.24.26.35.39.08.09.15.18.23.27.05.06.11.11.16.17.13.15.27.3.4.45.07.08.16.15.22.24.09.14.22.25.23.42Zm-.5.22c-.03-.07-.09-.21-.17-.33-.1-.14-.22-.26-.33-.39-.11-.13-.23-.25-.34-.38-.07-.08-.14-.16-.21-.24-.07-.08-.15-.17-.22-.25-.07-.08-.13-.16-.2-.23-.08-.09-.16-.18-.23-.27-.06-.07-.12-.15-.18-.22-.07-.08-.15-.16-.22-.24-.15-.17-.29-.33-.44-.5-.06-.07-.16-.1-.25-.1-.15,0-.29.05-.37.19-.09.15-.1.35.02.5.11.13.22.25.33.38.07.09.14.18.1.31-.04.14-.14.2-.28.18-.06-.01-.11-.04-.15-.08-.07-.08-.15-.16-.23-.24-.07-.07-.13-.15-.19-.23-.07-.08-.14-.15-.21-.23-.09-.11-.28-.17-.42-.12-.08.03-.14.06-.2.13-.11.12-.15.35-.06.48.07.1.15.18.23.27.14.16.28.32.43.48.09.1.1.25.03.36-.06.09-.2.12-.32.07-.12-.05-.16-.17-.24-.24-.08-.07-.14-.16-.21-.24-.06-.07-.13-.14-.19-.21-.07-.08-.14-.17-.21-.25-.04-.04-.07-.09-.12-.12-.07-.05-.14-.1-.24-.1-.13,0-.24.05-.34.12-.1.07-.15.28-.11.42.04.13.14.21.22.32.08.1.17.19.26.29.09.09.17.19.26.28.07.07.13.15.2.22.05.05.08.11.08.18,0,.18-.16.3-.33.26-.07-.02-.11-.07-.16-.12-.13-.14-.25-.28-.37-.41-.06-.07-.12-.14-.19-.22-.12-.14-.25-.27-.37-.41-.05-.05-.1-.1-.14-.15-.06-.07-.13-.15-.19-.22-.05-.05-.09-.11-.14-.16-.12-.13-.23-.25-.35-.38-.05-.06-.11-.12-.16-.18-.04-.04-.07-.08-.11-.12-.06-.07-.13-.15-.19-.22-.1-.12-.21-.24-.31-.36-.11-.13-.23-.26-.35-.39-.07-.07-.14-.14-.23-.18-.09-.04-.19-.05-.28,0-.07.04-.14.1-.19.16-.05.08-.1.16-.11.26-.02.17.02.31.13.43.07.08.14.16.21.24.11.12.21.25.32.37.09.1.17.19.26.29.05.06.11.12.16.18.08.09.16.18.24.27.07.08.13.15.2.23.06.07.13.14.2.21.07.08.14.17.21.25.12.14.25.28.38.43.04.05.09.09.13.14.07.07.13.15.19.23.08.09.16.18.24.27.09.1.18.2.27.31.06.07.12.14.18.21.09.1.17.19.26.29.15.17.31.34.46.51.16.18.32.36.47.54.12.16.1.24,0,.38-.04.05-.1.08-.17.06-.04-.01-.09-.02-.13-.04-.11-.05-.17-.16-.25-.25-.08-.08-.13-.19-.27-.19-.11,0-.23-.02-.34-.04-.03,0-.05,0-.08,0-.12,0-.25,0-.37.01-.15.03-.29.07-.44.12-.19.06-.34.19-.44.36-.1.19-.14.4-.06.61.02.05.05.06.09.07.04,0,.08,0,.11-.01.2-.07.41-.07.62-.08.12,0,.24.01.36,0,.16-.01.31.03.47.06.16.03.31.08.47.13.17.06.33.13.49.2.23.11.46.24.71.3.07.02.13,0,.18-.03.19-.12.38-.25.57-.37.07-.05.14-.08.22-.04.05.03.11.06.15.11.11.11.21.23.32.35.11.13.22.26.34.38.1.12.21.23.31.35.13.14.25.28.38.43.06.07.13.15.19.22.07.08.15.16.22.24.04.05.07.06.12,0,.05-.05.1-.11.15-.16.06-.06.13-.12.2-.19.19-.19.37-.38.56-.58.1-.11.21-.21.32-.32.05-.05.1-.09.15-.15.1-.11.2-.21.3-.32.04-.05.09-.09.14-.14.12-.12.23-.23.35-.35.06-.06.12-.13.18-.18.07-.06.07-.1,0-.16-.07-.07-.13-.13-.2-.2-.17-.19-.33-.38-.49-.57-.12-.13-.24-.26-.35-.39-.06-.07-.12-.14-.18-.21-.07-.08-.13-.16-.2-.23-.05-.05-.09-.1-.1-.16-.02-.09-.03-.19-.03-.28-.01-.16-.03-.32-.04-.48-.01-.25-.06-.49-.16-.8Z"/>
        <path class="cls-4" d="m85.4,10.12c.09-.03.2,0,.25.06.1.12.19.24.29.37.08.1.16.21.24.31.14.18.27.36.4.54.03.04.03.08,0,.12-.04.05-.07.13-.17.1-.02,0-.04-.01-.05-.03-.08-.08-.17-.15-.25-.23-.08-.08-.17-.15-.25-.23-.1-.1-.2-.21-.3-.31-.1-.1-.21-.2-.31-.3-.04-.03-.04-.07-.04-.12.02-.14.12-.21.2-.28Z"/>
        <path class="cls-4" d="m85.15,14.38c-.02-.06.02-.17.1-.23.03-.02.06-.04.09-.06.04-.03.07-.06.11-.09.02-.02.04-.03.06-.05.04-.03.07-.05.11-.08.03-.02.05-.04.08-.07.13-.1.25-.19.38-.29.08-.06.16-.13.25-.19.12-.08.24.02.25.12,0,.02,0,.04-.01.06-.05.06-.1.11-.15.16-.07.07-.13.14-.2.21-.04.05-.09.09-.13.13-.1.1-.21.21-.31.31-.06.06-.12.12-.17.19-.07.09-.2.11-.28.05-.06-.05-.13-.08-.16-.19Z"/>
        <path class="cls-4" d="m87.59,9.78s0,.06,0,.11c-.02.16-.04.33-.05.49-.02.16-.03.33-.04.49-.01.1-.02.21-.04.31-.01.06-.06.09-.12.08-.1-.02-.13-.06-.13-.16,0-.15-.02-.3-.03-.45,0-.13-.01-.26-.02-.39,0-.14-.01-.28-.02-.42,0-.09.07-.18.15-.21.1-.03.28.05.31.15Z"/>
        <path class="cls-4" d="m89.73,10.64c.03.08,0,.14-.06.19-.13.11-.27.21-.41.32-.1.08-.2.16-.3.24-.12.09-.24.18-.36.26-.01.01-.04,0-.06,0-.07-.02-.15-.09-.13-.14.02-.05.05-.1.09-.14.07-.08.15-.15.22-.23.05-.06.11-.11.17-.16.06-.06.13-.12.19-.19.06-.07.13-.14.19-.21.02-.02.04-.04.06-.06.07-.09.15-.11.25-.05.06.03.13.11.15.16Z"/>
        <path class="cls-4" d="m86.1,12.4s-.09,0-.15,0c-.07,0-.14,0-.2,0-.07,0-.14,0-.21,0-.07,0-.13,0-.2,0-.02,0-.04,0-.07,0-.05,0-.09,0-.14,0-.03,0-.07,0-.1,0-.09,0-.19,0-.28,0-.07,0-.14-.11-.13-.18.01-.06.03-.13.05-.19.03-.08.09-.08.16-.08.11.01.22.03.33.04.13.02.26.04.39.06.18.02.35.05.53.07.07,0,.14.06.14.1,0,.07-.04.15-.12.17Z"/>
        <path class="cls-4" d="m89.85,11.89c-.2.07-.4.14-.6.2-.09.03-.18.05-.27.08-.07.02-.13,0-.15-.05-.02-.04,0-.13.06-.16.09-.05.19-.09.29-.14.13-.06.26-.13.38-.19.09-.04.17-.08.26-.11.07-.02.16.05.18.14.03.12-.01.18-.15.22Z"/>
        <path class="cls-4" d="m86.41,15s-.09-.02-.12-.04c-.04-.02-.07-.04-.1-.07-.04-.03-.04-.07-.02-.12.04-.07.08-.13.12-.2.12-.19.24-.37.36-.56.03-.04.05-.08.07-.13.03-.05.1-.07.15-.04.04.03.06.1.04.15-.03.06-.07.13-.09.2-.06.14-.11.27-.17.41-.04.09-.08.18-.12.27-.02.04-.06.08-.1.13Z"/>
        <path class="cls-4" d="m85.25,13.26c-.03-.1.02-.17.12-.19.02,0,.03-.01.05-.02.21-.06.42-.13.63-.19.02,0,.04,0,.07,0,.04,0,.07.01.07.06,0,.03-.02.06-.04.08-.06.04-.12.07-.18.1-.16.07-.32.14-.47.21-.02,0-.03.02-.05.03-.09.06-.17.03-.21-.08Z"/>
        <path class="cls-4" d="m88.08,11.24s-.07-.01-.09-.03c-.01-.01-.01-.05,0-.07.04-.11.09-.22.13-.33.06-.14.12-.28.17-.41.02-.05.08-.1.15-.06.15.08.16.09.07.23-.1.17-.21.33-.31.5-.03.04-.05.09-.08.13,0,.01-.02.03-.04.05Z"/>
      </g>
    </g>
  </g>
</svg>