<?xml version="1.0" encoding="UTF-8"?>
<svg id="Capa_2" data-name="Capa 2" xmlns="http://www.w3.org/2000/svg" xmlns:xlink="http://www.w3.org/1999/xlink" viewBox="0 0 121.84 28.66">
  <defs>
    <style>
      .cls-1 {
        fill: url(#linear-gradient);
      }

      .cls-1, .cls-2, .cls-3, .cls-4 {
        stroke-width: 0px;
      }

      .cls-2 {
        fill: url(#Nueva_muestra_de_motivo_1);
      }

      .cls-3 {
        fill: none;
      }

      .cls-5 {
        filter: url(#drop-shadow-1);
      }

      .cls-4, .cls-6 {
        fill: #fff;
      }

      .cls-6 {
        font-family: Poppins-Regular, Poppins;
        font-size: 11.72px;
        letter-spacing: .1em;
      }
    </style>
    <filter id="drop-shadow-1" filterUnits="userSpaceOnUse">
      <feOffset dx="2.13" dy="4.26"/>
      <feGaussianBlur result="blur" stdDeviation="5.33"/>
      <feFlood flood-color="#000" flood-opacity=".68"/>
      <feComposite in2="blur" operator="in"/>
      <feComposite in="SourceGraphic"/>
    </filter>
    <linearGradient id="linear-gradient" x1="545" y1="-15422" x2="821" y2="-15422" gradientTransform="translate(-545 -15337.5) scale(1 -1)" gradientUnits="userSpaceOnUse">
      <stop offset="0" stop-color="#dcc173"/>
      <stop offset=".24" stop-color="#ab8136"/>
      <stop offset=".52" stop-color="#73582b"/>
      <stop offset=".86" stop-color="#dcc173"/>
    </linearGradient>
    <pattern id="Nueva_muestra_de_motivo_1" data-name="Nueva muestra de motivo 1" x="0" y="0" width="276" height="169" patternTransform="translate(139.03 -2147.39) scale(.89 .79)" patternUnits="userSpaceOnUse" viewBox="0 0 276 169">
      <g>
        <rect class="cls-3" width="276" height="169"/>
        <rect class="cls-1" width="276" height="169"/>
      </g>
    </pattern>
  </defs>
  <g id="Capa_1-2" data-name="Capa 1">
    <g class="cls-5">
      <rect class="cls-2" x="0" width="121.84" height="28.66" rx="12" ry="12"/>
      <text class="cls-6" transform="translate(19.9 17.81)"><tspan x="0" y="0">Ver mapa</tspan></text>
      <g>
        <path class="cls-4" d="m102.77,16.14c.09.17.09.34.11.52.02.24.03.49.07.73.03.19.09.37.14.56.01.05.05.09.09.13.07.08.14.15.21.23.07.08.14.16.21.24.07.08.14.15.2.23.09.11.18.21.28.32.12.14.25.27.37.4.07.08.14.16.2.24.02.02.03.04.06.06.13.12.12.2.06.33-.03.06-.08.11-.13.16-.07.08-.14.15-.22.23,0,0,0,.01-.01.02-.19.15-.33.34-.51.5-.11.1-.2.21-.3.31-.12.12-.24.23-.36.35-.11.11-.21.22-.32.33-.17.17-.34.34-.51.52-.07.07-.13.14-.19.21-.06.06-.13.12-.19.18-.07.07-.14.15-.21.22-.06.06-.11.11-.18.16-.05.04-.2.01-.26-.04-.08-.08-.15-.16-.23-.25-.05-.06-.1-.12-.16-.18-.08-.09-.16-.17-.23-.26-.06-.07-.12-.13-.18-.2-.1-.11-.2-.22-.29-.33-.18-.2-.35-.4-.53-.6-.12-.14-.25-.27-.37-.4-.03-.03-.07-.05-.1-.01-.08.09-.18.13-.28.18-.11.06-.21.12-.32.15-.1.03-.21.03-.31.01-.19-.03-.38-.1-.56-.18-.14-.06-.27-.14-.4-.2-.18-.08-.36-.18-.56-.22-.09-.02-.18-.06-.27-.08-.1-.02-.2-.04-.3-.05-.26-.03-.52,0-.78.01-.11,0-.23.05-.34.06-.11.02-.22.04-.33.02-.12-.02-.23-.09-.31-.19-.06-.08-.12-.17-.16-.26-.03-.05-.02-.12-.04-.18-.05-.19-.02-.38.03-.57.05-.17.13-.32.23-.47.11-.14.23-.26.38-.36.05-.04.11-.07.17-.09.12-.05.25-.08.37-.13.14-.05.28-.06.42-.07.09,0,.18,0,.27,0,.02,0,.06-.01.06-.02,0-.03,0-.06-.02-.08-.05-.07-.11-.13-.17-.19-.1-.11-.2-.23-.3-.34-.13-.14-.26-.28-.39-.43-.17-.19-.32-.38-.49-.57-.12-.14-.25-.27-.38-.41-.07-.08-.13-.16-.2-.24-.08-.09-.16-.17-.23-.25-.08-.09-.15-.18-.23-.27-.07-.08-.15-.17-.23-.25-.07-.07-.13-.15-.19-.22-.13-.15-.27-.3-.4-.45-.07-.08-.14-.17-.22-.25-.09-.1-.17-.2-.27-.3-.16-.15-.24-.34-.3-.55-.03-.13-.03-.27,0-.41.03-.2.13-.37.24-.54.04-.05.08-.1.13-.14.12-.1.24-.21.41-.25.04,0,.09-.02.13-.02.23,0,.44.04.63.17.13.08.25.19.33.32.02.03.05.04.07.07.11.13.23.26.34.39.07.09.15.17.22.26.14.16.27.31.41.47.12.14.25.27.37.4.02.02.03.04.04.06.04.07.09.06.13,0,.08-.15.18-.28.33-.37.22-.13.45-.19.7-.15.04,0,.08.03.12.04.08.02.14-.02.16-.1.02-.11.1-.19.16-.28.07-.1.17-.15.26-.22.11-.08.23-.11.37-.12.15,0,.29,0,.43.06.05.02.1-.01.11-.06.05-.18.16-.31.29-.44.1-.09.2-.15.32-.19.18-.06.36-.07.54-.02.08.02.16.05.23.08.12.05.2.14.28.23.08.08.15.17.22.25.17.19.34.38.51.57.12.14.24.28.36.42.12.14.25.27.37.41.08.09.16.19.24.29.05.06.11.12.17.18.14.16.29.32.43.47.08.09.18.16.24.26.09.14.23.27.24.44Zm-.53.24c-.04-.07-.09-.22-.18-.35-.1-.15-.23-.28-.35-.41-.12-.14-.25-.27-.37-.4-.08-.08-.14-.17-.22-.26-.08-.09-.16-.18-.24-.27-.07-.08-.14-.17-.21-.25-.08-.1-.17-.19-.25-.28-.07-.08-.13-.16-.2-.23-.08-.09-.16-.17-.23-.25-.16-.18-.31-.36-.47-.53-.07-.08-.17-.11-.26-.1-.15,0-.3.05-.4.2-.1.16-.11.38.03.53.11.14.23.27.35.4.08.09.15.19.11.33-.05.15-.15.22-.3.19-.07-.01-.11-.04-.16-.09-.08-.09-.16-.17-.24-.25-.07-.08-.13-.16-.2-.24-.07-.08-.15-.16-.22-.25-.1-.12-.3-.18-.45-.13-.08.03-.15.07-.21.13-.12.13-.16.37-.06.51.07.1.16.19.24.29.15.17.3.34.45.51.09.1.11.27.03.38-.07.1-.22.13-.34.08-.12-.05-.17-.18-.26-.26-.08-.08-.15-.17-.23-.26-.07-.08-.14-.15-.2-.23-.07-.09-.15-.18-.22-.27-.04-.05-.08-.09-.12-.13-.07-.06-.15-.1-.25-.11-.14,0-.25.05-.36.13-.11.08-.16.3-.12.44.04.14.15.23.24.34.09.11.18.21.28.31.09.1.18.2.27.3.07.08.14.16.21.24.06.05.09.12.09.19,0,.2-.17.32-.36.28-.08-.02-.12-.07-.17-.13-.13-.15-.27-.29-.4-.44-.07-.08-.13-.15-.2-.23-.13-.15-.26-.29-.39-.44-.05-.06-.1-.11-.15-.16-.07-.08-.13-.16-.2-.24-.05-.06-.1-.12-.15-.17-.12-.13-.25-.27-.37-.4-.06-.06-.11-.13-.17-.2-.04-.04-.07-.09-.11-.13-.07-.08-.14-.16-.21-.24-.11-.13-.22-.26-.33-.39-.12-.14-.24-.28-.37-.41-.07-.07-.15-.15-.24-.19-.09-.04-.2-.05-.3,0-.07.05-.15.1-.2.17-.06.08-.1.17-.12.28-.02.18.02.33.14.46.08.08.15.17.23.25.11.13.23.27.34.4.09.1.19.21.28.31.06.06.12.13.17.2.09.1.17.19.26.29.07.08.14.16.21.24.07.08.14.15.21.22.08.09.15.18.22.26.13.15.27.3.4.45.04.05.09.09.14.14.07.08.14.16.21.24.09.1.17.19.26.29.1.11.19.22.29.33.07.07.13.15.2.22.09.1.19.21.28.31.16.18.33.36.49.54.17.19.35.38.5.58.13.17.11.26-.01.4-.04.05-.1.08-.18.07-.05-.01-.09-.03-.13-.05-.12-.05-.18-.18-.27-.26-.09-.08-.14-.2-.29-.21-.12,0-.24-.03-.36-.04-.03,0-.06,0-.08,0-.13,0-.27,0-.39.01-.16.03-.31.08-.47.13-.2.07-.37.2-.47.38-.11.2-.15.42-.06.65.02.05.05.07.1.07.04,0,.08,0,.12-.01.21-.08.44-.07.66-.09.13,0,.26.01.38,0,.17-.01.34.03.5.06.17.03.33.09.5.14.18.06.35.13.53.21.25.12.49.25.76.32.07.02.14,0,.19-.03.21-.13.41-.26.61-.4.07-.05.15-.08.24-.04.06.03.11.07.16.11.12.12.23.25.34.37.12.14.24.27.36.41.11.12.22.25.33.37.13.15.27.3.4.45.07.08.14.16.2.24.08.09.16.17.23.25.05.06.07.06.12.01.05-.06.11-.12.16-.17.07-.07.14-.13.21-.2.2-.2.4-.41.6-.61.11-.11.22-.23.34-.34.05-.05.11-.1.16-.15.11-.11.21-.23.32-.34.05-.05.1-.1.14-.15.12-.12.25-.25.37-.37.06-.06.13-.13.2-.19.07-.06.07-.1,0-.17-.07-.07-.14-.14-.21-.21-.18-.2-.35-.4-.52-.6-.12-.14-.25-.28-.38-.42-.07-.07-.13-.14-.2-.22-.07-.08-.13-.17-.21-.24-.05-.05-.1-.11-.11-.18-.02-.1-.03-.2-.04-.3-.02-.17-.03-.34-.04-.52-.02-.27-.07-.52-.17-.85Z"/>
        <path class="cls-4" d="m90.99,10.78c.1-.03.21,0,.26.07.1.13.21.26.31.39.09.11.18.22.26.33.14.19.29.39.43.58.03.05.03.09,0,.13-.05.06-.08.14-.18.11-.02,0-.04-.02-.06-.03-.09-.08-.18-.16-.27-.25-.09-.08-.18-.16-.27-.25-.11-.11-.21-.22-.32-.33-.11-.11-.22-.22-.34-.32-.04-.04-.05-.07-.04-.13.02-.15.13-.22.21-.3Z"/>
        <path class="cls-4" d="m90.72,15.32c-.02-.06.02-.18.11-.25.03-.02.07-.04.1-.06.04-.03.07-.06.11-.09.02-.02.04-.03.07-.05.04-.03.08-.05.11-.08.03-.02.05-.05.08-.07.13-.1.27-.21.41-.31.09-.07.17-.14.26-.2.13-.09.26.02.26.13,0,.02,0,.05-.02.06-.05.06-.1.12-.16.17-.07.07-.14.15-.21.22-.05.05-.09.1-.14.14-.11.11-.22.22-.33.33-.06.06-.13.13-.18.2-.07.1-.22.12-.3.05-.06-.05-.13-.09-.17-.2Z"/>
        <path class="cls-4" d="m93.32,10.42s0,.07,0,.11c-.02.17-.04.35-.06.52-.02.17-.03.35-.05.52-.01.11-.03.22-.05.33-.01.07-.06.09-.13.08-.11-.02-.14-.06-.14-.17,0-.16-.02-.32-.03-.48,0-.14-.01-.28-.02-.41,0-.15-.02-.3-.02-.45,0-.09.07-.19.16-.22.1-.03.3.05.33.15Z"/>
        <path class="cls-4" d="m95.6,11.34c.03.08,0,.15-.06.21-.14.11-.29.22-.43.34-.11.09-.21.18-.32.26-.13.1-.26.19-.39.28-.02.01-.04,0-.07,0-.07-.02-.16-.09-.14-.15.03-.05.06-.11.1-.15.08-.09.16-.16.24-.25.06-.06.12-.12.18-.18.07-.07.13-.13.2-.2.07-.07.14-.15.2-.22.02-.02.04-.04.06-.06.08-.1.16-.12.27-.05.06.04.14.12.16.17Z"/>
        <path class="cls-4" d="m91.74,13.21s-.1,0-.16,0c-.07,0-.14,0-.22,0-.08,0-.15,0-.23,0-.07,0-.14,0-.21,0-.02,0-.05,0-.07,0-.05,0-.1,0-.15,0-.04,0-.07,0-.11,0-.1,0-.2,0-.3,0-.07,0-.15-.12-.14-.2.01-.07.03-.14.06-.2.03-.08.09-.09.17-.08.12.01.23.03.35.05.14.02.28.04.42.06.19.03.38.05.56.07.07,0,.15.06.15.11,0,.07-.04.16-.13.19Z"/>
        <path class="cls-4" d="m95.72,12.67c-.21.07-.43.15-.64.22-.1.03-.19.06-.29.09-.07.02-.14,0-.16-.05-.02-.05.01-.14.07-.17.1-.05.2-.1.31-.15.14-.07.27-.13.41-.2.09-.04.18-.08.28-.12.07-.03.17.05.19.15.03.13-.01.19-.16.23Z"/>
        <path class="cls-4" d="m92.06,15.98c-.05-.01-.09-.02-.13-.04-.04-.02-.07-.04-.1-.07-.04-.04-.05-.08-.02-.13.04-.07.08-.14.13-.21.13-.2.25-.4.38-.6.03-.04.05-.09.08-.13.03-.06.1-.08.16-.05.04.03.06.11.04.16-.04.07-.07.14-.1.21-.06.14-.12.29-.18.43-.04.1-.08.2-.13.29-.02.05-.07.09-.11.14Z"/>
        <path class="cls-4" d="m90.82,14.12c-.03-.1.02-.19.12-.2.02,0,.04-.01.06-.02.23-.07.45-.14.68-.2.02,0,.05,0,.07,0,.04,0,.08.01.08.06,0,.03-.02.07-.04.08-.06.04-.12.08-.19.11-.17.08-.34.15-.5.23-.02,0-.03.02-.05.03-.1.06-.19.03-.22-.08Z"/>
        <path class="cls-4" d="m93.84,11.97s-.08-.01-.1-.03c-.01-.01-.01-.06,0-.08.04-.12.09-.23.14-.35.06-.15.12-.29.19-.44.02-.06.08-.1.16-.06.16.08.17.09.08.25-.11.18-.22.35-.33.53-.03.05-.06.09-.09.14,0,.02-.02.03-.04.05Z"/>
      </g>
    </g>
  </g>
</svg>