<?xml version="1.0" encoding="UTF-8"?>
<svg id="Capa_2" data-name="Capa 2" xmlns="http://www.w3.org/2000/svg" xmlns:xlink="http://www.w3.org/1999/xlink" viewBox="0 0 117.72 155.59">
  <defs>
    <style>
      .cls-1 {
        fill: url(#linear-gradient);
      }

      .cls-1, .cls-2, .cls-3, .cls-4, .cls-5 {
        stroke-width: 0px;
      }

      .cls-2 {
        fill: url(#Nueva_muestra_de_motivo_1);
      }

      .cls-6 {
        letter-spacing: .03em;
      }

      .cls-7 {
        letter-spacing: 0em;
      }

      .cls-8 {
        letter-spacing: .02em;
      }

      .cls-3 {
        fill: none;
      }

      .cls-9 {
        letter-spacing: -.02em;
      }

      .cls-4 {
        fill: #fff;
      }

      .cls-5 {
        fill: url(#linear-gradient-2);
      }

      .cls-10 {
        fill: #504322;
        font-family: Italiana-Regular, Italiana;
        font-size: 18.83px;
        stroke: #504322;
        stroke-miterlimit: 10;
        stroke-width: .24px;
      }

      .cls-11 {
        fill: url(#Nueva_muestra_de_motivo_3);
        font-family: GreatVibes-Regular, 'Great Vibes';
        font-size: 32.95px;
      }

      .cls-12 {
        letter-spacing: 0em;
      }
    </style>
    <linearGradient id="linear-gradient" x1="1703.29" y1="554.85" x2="1944.16" y2="554.85" gradientTransform="translate(698.22 1944.16) rotate(-90) scale(1 -1)" gradientUnits="userSpaceOnUse">
      <stop offset="0" stop-color="#dcc173"/>
      <stop offset=".24" stop-color="#ab8136"/>
      <stop offset=".52" stop-color="#73582b"/>
      <stop offset=".86" stop-color="#dcc173"/>
    </linearGradient>
    <pattern id="Nueva_muestra_de_motivo_3" data-name="Nueva muestra de motivo 3" x="0" y="0" width="286.73" height="240.87" patternTransform="translate(1037.16 -2722.54)" patternUnits="userSpaceOnUse" viewBox="0 0 286.73 240.87">
      <g>
        <rect class="cls-3" width="286.73" height="240.87"/>
        <polygon class="cls-1" points="286.73 0 286.73 240.87 0 240.87 0 0 286.73 0"/>
      </g>
    </pattern>
    <linearGradient id="linear-gradient-2" x1="545" y1="-15422" x2="821" y2="-15422" gradientTransform="translate(-545 -15337.5) scale(1 -1)" xlink:href="#linear-gradient"/>
    <pattern id="Nueva_muestra_de_motivo_1" data-name="Nueva muestra de motivo 1" x="0" y="0" width="276" height="169" patternTransform="translate(82.1 -3275.08) scale(.93)" patternUnits="userSpaceOnUse" viewBox="0 0 276 169">
      <g>
        <rect class="cls-3" width="276" height="169"/>
        <rect class="cls-5" width="276" height="169"/>
      </g>
    </pattern>
  </defs>
  <g id="Capa_1-2" data-name="Capa 1">
    <text class="cls-11" transform="translate(.3 30.62)"><tspan x="0" y="0">Vestimenta</tspan></text>
    <text class="cls-10" transform="translate(23.59 68.61)"><tspan class="cls-8" x="0" y="0">E</tspan><tspan class="cls-9" x="10.36" y="0">l</tspan><tspan class="cls-6" x="14.27" y="0">eg</tspan><tspan class="cls-12" x="34.23" y="0">a</tspan><tspan class="cls-8" x="44.1" y="0">n</tspan><tspan class="cls-7" x="54.48" y="0">t</tspan><tspan class="cls-8" x="60.67" y="0">e</tspan></text>
    <g>
      <path class="cls-2" d="m92.19,155.41c-1.58-1.43-2.26-3.18-2.81-5.01-.86-2.85-1.04-5.79-1.08-8.73-.11-8.42-.16-16.84-.21-25.26-.02-2.94-.98-5.52-2.76-7.81-.23-.29-.72-.54-1.09-.55-2.94-.04-5.89-.04-8.83,0-.35,0-.82.21-1.03.48-1.76,2.26-2.76,4.81-2.79,7.71-.06,6.3-.1,12.6-.19,18.89-.06,3.73-.05,7.47-.36,11.18-.28,3.34-.96,6.65-3.57,9.27,2.52-.02,5.04-.05,7.54-.3,3.83-.38,5.95-2.82,6.74-6.36.55-2.45.76-4.99.97-7.51.15-1.76.02-3.54.07-5.32.01-.4.28-.79.43-1.18.12.38.34.76.35,1.14.04,1.96-.01,3.93.05,5.89.09,2.97.24,5.94,1.21,8.8.96,2.85,3,4.74,7.38,4.66Zm-40.47-42.23c-.03-.22-.03-.35-.06-.47-.65-2.23-.5-4.52-.37-6.79.02-.28.27-.56.41-.83.18.26.42.49.52.78.19.57.29,1.16.43,1.75.99,4.19,1.99,8.37,2.95,12.57.16.7.4.98,1.15.75.69-.22,1.42-.33,2.13-.46.52-.1.74-.32.63-.91-.67-3.57-1.31-7.15-1.96-10.73-1.04-5.76-2.08-11.52-3.09-17.28-.11-.6-.37-.91-.87-1.22-2.46-1.53-5.33-2.39-7.36-4.46-.23,3.13-.4,6.32-.73,9.49-.39,3.72-1.02,7.4-2.41,10.9-.11.27-.32.51-.49.76-.2-.25-.48-.47-.59-.76-1.6-4.05-2.19-8.31-2.59-12.6-.24-2.63-.37-5.28-.53-7.69-.83.57-1.72,1.24-2.67,1.8-1.28.76-2.57,1.52-3.93,2.11-1.2.52-1.6,1.35-1.81,2.57-1.29,7.51-2.66,15.01-4.01,22.51-.32,1.76-.63,3.52-.96,5.33,1.01.22,1.91.38,2.79.64.76.22,1.04,0,1.21-.77,1.12-4.9,2.28-9.8,3.45-14.69.06-.25.34-.45.51-.68.12.23.32.46.34.7.17,2.27.35,4.56-.29,6.79-.21.73.03,1.01.66,1.26,1.56.63,3.1,1.28,4.63,1.98.59.27.88.23,1.14-.41.65-1.58,1.38-3.13,2.1-4.68.1-.22.36-.38.54-.57.15.18.35.35.45.56.35.71.66,1.44.98,2.16.48,1.08.97,2.17,1.46,3.28,2.14-.92,4.14-1.79,6.21-2.68Zm-11.37,28.54c.39-3.07.8-6,1.12-8.94.29-2.67.45-5.36.71-8.03.02-.21.28-.41.43-.61.12.2.31.38.33.59.4,4.03.76,8.06,1.18,12.09.17,1.61.47,3.22.72,4.86,1.64-.38,2.92-1.09,4.02-2.14,3.08-2.93,4.09-6.78,4.61-10.78.52-4.02.17-8.03-.7-11.98-.17-.76-.36-1.5-.56-2.31-2.23.96-4.34,1.82-6.41,2.78-.8.37-1.11.16-1.42-.58-.54-1.33-1.16-2.62-1.82-4.08-.65,1.43-1.28,2.67-1.77,3.97-.34.91-.74,1.04-1.62.63-2.02-.95-4.1-1.79-6.21-2.7-.08.22-.13.36-.17.51-1.13,4.35-1.64,8.75-1.17,13.25.29,2.77.89,5.43,2.15,7.92,1.35,2.67,3.31,4.68,6.57,5.55Zm39.19-44.25c-.35-.56-.55-.87-.74-1.18-.67-1.14-1.55-2.21-1.94-3.44-.52-1.64-.7-3.39-.95-5.1-.08-.55-.27-.76-.76-.67-.45.08-1.14-.35-1.26.55-.22,1.63-.53,3.25-.69,4.88-.16,1.68-.49,3.43-.22,5.06.49,2.89,1.38,5.71,2.14,8.55.06.22.41.51.64.51,2.72.04,5.45.04,8.17,0,.22,0,.59-.28.64-.49.67-2.44,1.35-4.88,1.89-7.35.27-1.22.43-2.51.31-3.74-.26-2.63-.73-5.24-1.12-7.87-1.69-.37-1.75-.29-1.91,1.38-.26,2.61-.79,5.15-2.5,7.25-.48.59-1.1,1.07-1.7,1.66Zm-34.42-8.63c-.18-.4-.1-1.06-.3-1.09-.38-.06-.9.09-1.18.34-.75.68-1.35.71-2.12,0-.29-.27-.88-.2-1.34-.29,0,.67-.02,1.34-.02,2,.46-.07,1.01-.01,1.36-.25.78-.53,1.41-.5,2.15.04.3.22.88.44,1.1.29.29-.18.17-.64.35-1.06Z"/>
      <path class="cls-2" d="m92.19,155.41c-4.38.08-6.41-1.81-7.38-4.66-.97-2.86-1.11-5.83-1.21-8.8-.06-1.96,0-3.93-.05-5.89,0-.38-.23-.76-.35-1.14-.15.39-.42.78-.43,1.18-.06,1.77.07,3.55-.07,5.32-.21,2.51-.42,5.05-.97,7.51-.79,3.54-2.91,5.98-6.74,6.36-2.5.25-5.01.28-7.54.3,2.61-2.62,3.29-5.92,3.57-9.27.31-3.71.3-7.45.36-11.18.09-6.3.13-12.59.19-18.89.03-2.89,1.03-5.45,2.79-7.71.21-.27.68-.48,1.03-.48,2.94-.04,5.89-.04,8.83,0,.37,0,.86.25,1.09.55,1.78,2.29,2.75,4.87,2.76,7.81.05,8.42.1,16.84.21,25.26.04,2.94.21,5.88,1.08,8.73.55,1.83,1.23,3.58,2.81,5.01Z"/>
      <path class="cls-2" d="m51.72,113.18c-2.07.89-4.07,1.76-6.21,2.68-.49-1.11-.98-2.19-1.46-3.28-.32-.72-.64-1.45-.98-2.16-.1-.21-.3-.37-.45-.56-.18.19-.44.34-.54.57-.72,1.55-1.44,3.1-2.1,4.68-.27.64-.56.68-1.14.41-1.53-.7-3.07-1.35-4.63-1.98-.63-.25-.87-.54-.66-1.26.64-2.23.46-4.52.29-6.79-.02-.24-.22-.46-.34-.7-.18.22-.45.42-.51.68-1.17,4.89-2.34,9.78-3.45,14.69-.18.77-.46.99-1.21.77-.88-.25-1.78-.41-2.79-.64.33-1.81.64-3.57.96-5.33,1.35-7.5,2.72-15,4.01-22.51.21-1.22.61-2.05,1.81-2.57,1.36-.59,2.65-1.35,3.93-2.11.95-.56,1.84-1.24,2.67-1.8.16,2.42.29,5.06.53,7.69.4,4.29.99,8.55,2.59,12.6.11.29.39.5.59.76.16-.25.38-.48.49-.76,1.39-3.5,2.02-7.18,2.41-10.9.33-3.17.5-6.36.73-9.49,2.03,2.07,4.9,2.93,7.36,4.46.5.31.77.62.87,1.22,1.01,5.77,2.05,11.52,3.09,17.28.64,3.58,1.29,7.16,1.96,10.73.11.59-.11.81-.63.91-.72.14-1.44.25-2.13.46-.75.23-.99-.05-1.15-.75-.96-4.19-1.97-8.38-2.95-12.57-.14-.58-.24-1.18-.43-1.75-.09-.29-.34-.52-.52-.78-.14.28-.4.55-.41.83-.12,2.27-.28,4.56.37,6.79.03.12.03.25.06.47Zm-.92-18.39c-.11-.05-.22-.1-.32-.15-.7.4-1.42.79-2.1,1.22-.1.06-.03.39-.04.59.75-.03,1.53.06,2.21-.17.23-.08.17-.98.25-1.51Z"/>
      <path class="cls-2" d="m40.36,141.72c-3.26-.87-5.22-2.88-6.57-5.55-1.26-2.49-1.86-5.15-2.15-7.92-.47-4.5.04-8.9,1.17-13.25.04-.14.1-.28.17-.51,2.11.91,4.18,1.75,6.21,2.7.87.41,1.27.28,1.62-.63.49-1.29,1.12-2.53,1.77-3.97.65,1.46,1.27,2.75,1.82,4.08.3.74.62.95,1.42.58,2.06-.96,4.17-1.82,6.41-2.78.2.8.39,1.55.56,2.31.87,3.96,1.21,7.97.7,11.98-.51,4-1.53,7.84-4.61,10.78-1.1,1.05-2.38,1.76-4.02,2.14-.25-1.65-.55-3.25-.72-4.86-.42-4.03-.78-8.06-1.18-12.09-.02-.2-.22-.39-.33-.59-.15.2-.41.39-.43.61-.25,2.68-.42,5.36-.71,8.03-.31,2.94-.73,5.87-1.12,8.94Z"/>
      <path class="cls-2" d="m79.55,97.47c.61-.58,1.22-1.06,1.7-1.66,1.71-2.11,2.24-4.64,2.5-7.25.16-1.67.22-1.74,1.91-1.38.39,2.62.86,5.23,1.12,7.87.12,1.23-.04,2.52-.31,3.74-.54,2.47-1.22,4.91-1.89,7.35-.06.21-.42.49-.64.49-2.72.03-5.45.03-8.17,0-.22,0-.58-.29-.64-.51-.76-2.84-1.65-5.66-2.14-8.55-.28-1.63.05-3.38.22-5.06.16-1.63.47-3.25.69-4.88.12-.9.81-.47,1.26-.55.49-.09.68.13.76.67.24,1.71.42,3.47.95,5.1.39,1.23,1.27,2.3,1.94,3.44.19.32.39.63.74,1.18Z"/>
      <path class="cls-2" d="m45.01,88.85c-.18.41.05.87-.24,1.06-.23.14-.8-.08-1.1-.29-.74-.53-1.38-.56-2.15-.04-.35.24-.9.17-1.36.25,0-.67,0-1.47,0-2.14.45.09,1.07.16,1.36.42.77.71,1.37.68,2.12,0,.28-.26.81-.4,1.18-.34.2.03,0,.69.19,1.09Z"/>
      <path class="cls-4" d="m50.81,94.79c-.08.53-.02,1.43-.25,1.51-.68.23-1.47.13-2.21.17,0-.2-.06-.53.04-.59.68-.44,1.4-.82,2.1-1.22.11.05.22.1.32.15Z"/>
    </g>
  </g>
</svg>