<?xml version="1.0" encoding="UTF-8"?>
<svg id="Capa_2" data-name="Capa 2" xmlns="http://www.w3.org/2000/svg" xmlns:xlink="http://www.w3.org/1999/xlink" viewBox="0 0 214.72 120.12">
  <defs>
    <style>
      .cls-1 {
        fill: url(#linear-gradient);
      }

      .cls-1, .cls-2, .cls-3 {
        stroke-width: 0px;
      }

      .cls-2 {
        fill: none;
      }

      .cls-3 {
        fill: url(#linear-gradient-2);
      }

      .cls-4 {
        fill: url(#Nueva_muestra_de_motivo_3);
        font-family: GreatVibes-Regular, 'Great Vibes';
        font-size: 39.49px;
      }

      .cls-5 {
        fill: url(#Nueva_muestra_de_motivo_1);
        stroke: url(#Nueva_muestra_de_motivo_1);
        stroke-miterlimit: 10;
        stroke-width: .25px;
      }
    </style>
    <linearGradient id="linear-gradient" x1="1703.29" y1="554.85" x2="1944.16" y2="554.85" gradientTransform="translate(698.22 1944.16) rotate(-90) scale(1 -1)" gradientUnits="userSpaceOnUse">
      <stop offset="0" stop-color="#dcc173"/>
      <stop offset=".24" stop-color="#ab8136"/>
      <stop offset=".52" stop-color="#73582b"/>
      <stop offset=".86" stop-color="#dcc173"/>
    </linearGradient>
    <pattern id="Nueva_muestra_de_motivo_3" data-name="Nueva muestra de motivo 3" x="0" y="0" width="286.73" height="240.87" patternTransform="translate(1084.14 -3521.75)" patternUnits="userSpaceOnUse" viewBox="0 0 286.73 240.87">
      <g>
        <rect class="cls-2" width="286.73" height="240.87"/>
        <polygon class="cls-1" points="286.73 0 286.73 240.87 0 240.87 0 0 286.73 0"/>
      </g>
    </pattern>
    <linearGradient id="linear-gradient-2" x1="545" y1="-15422" x2="821" y2="-15422" gradientTransform="translate(-545 -15337.5) scale(1 -1)" xlink:href="#linear-gradient"/>
    <pattern id="Nueva_muestra_de_motivo_1" data-name="Nueva muestra de motivo 1" x="0" y="0" width="276" height="169" patternTransform="translate(2775.14 -1134.21) scale(1.25)" patternUnits="userSpaceOnUse" viewBox="0 0 276 169">
      <g>
        <rect class="cls-2" width="276" height="169"/>
        <rect class="cls-3" width="276" height="169"/>
      </g>
    </pattern>
  </defs>
  <g id="Capa_1-2" data-name="Capa 1">
    <text class="cls-4" transform="translate(0 36.69)"><tspan x="0" y="0">Mesa de regalos</tspan></text>
    <path class="cls-5" d="m105.51,119.78c-6.89,0-13.77,0-20.66,0-2.26,0-3.04-.77-3.04-3.05,0-7.63-.02-15.27.01-22.9,0-.98-.16-1.57-1.26-1.78-1.13-.22-1.82-1.14-1.83-2.34-.03-4.16-.04-8.31,0-12.47.02-1.56,1-2.45,2.67-2.48,2.31-.04,4.61-.03,6.92-.05,1.27,0,1.38-.2.81-1.36-1.41-2.91-.03-7.23,4.38-7.25,4.14-.02,7.25,1.92,9.96,4.78.51.54.97,1.14,1.43,1.73.65.82.8.83,1.43,0,1.65-2.17,3.53-4.07,5.99-5.34,1.7-.88,3.5-1.35,5.43-1.32,3.91.07,6.18,3.72,4.53,7.29-.56,1.2-.49,1.32.81,1.32,2.14,0,4.29-.01,6.43,0,2.12,0,3.13.99,3.13,3.08,0,3.44,0,6.89,0,10.33,0,1.8-.74,3.15-2.34,3.95-.74.37-.78.94-.78,1.61,0,7.73,0,15.47,0,23.2,0,.58,0,1.2-.21,1.72-.46,1.16-1.43,1.58-2.66,1.57-5.91-.03-11.83-.03-17.74-.04-1.14,0-2.27,0-3.41,0,0-.06,0-.12,0-.18Zm.14-19.8c0-.05,0-.11,0-.16-6.82,0-13.63,0-20.45,0-1.31,0-1.47.16-1.48,1.44,0,1.46,0,2.92,0,4.38,0,1.49.13,1.63,1.61,1.62,6.36-.04,12.72-.09,19.09-.12,7.21-.03,14.41-.04,21.62-.06,1.17,0,1.29-.12,1.29-1.28,0-1.46,0-2.92,0-4.38,0-1.38-.07-1.45-1.42-1.45-6.75,0-13.5,0-20.26,0Zm15.31-23.21s0-.04,0-.06c-2.69,0-5.39,0-8.08,0-1.43,0-1.51.08-1.51,1.47,0,2.43,0,4.87,0,7.3q0,1.74,1.71,1.74c4.38,0,8.77-.03,13.15,0,.42,0,1.18.38,1.19.61.04.77-.67.69-1.22.71-.19,0-.39,0-.58,0-4.25,0-8.51-.02-12.76-.02-.32,0-.69-.06-.96.08-.23.12-.48.46-.49.71,0,.25.24.57.46.74.18.13.5.08.76.08,5.16,0,10.32,0,15.49-.03,1.55,0,2.3-.77,2.31-2.37.01-3.21,0-6.43,0-9.64,0-1.15-.17-1.31-1.29-1.31-2.73,0-5.45,0-8.18,0Zm-30.82,10.61s0-.05,0-.08c2.86,0,5.71,0,8.57,0,.84,0,1.23-.33,1.22-1.23-.03-2.73-.03-5.46,0-8.18,0-.87-.33-1.23-1.21-1.23-5.62,0-11.24-.03-16.85-.06-.86,0-1.25.33-1.25,1.21.02,2.76,0,5.52.02,8.28,0,1.14.18,1.29,1.32,1.29,2.73,0,5.46,0,8.18,0Zm29.15,30.44h0c2.31-.01,4.61-.03,6.92,0,.77,0,1.13-.29,1.13-1.09-.02-2.14-.01-4.29,0-6.43,0-.61-.21-.99-.9-.99-4.67,0-9.35-.01-14.02-.03-.75,0-1.06.34-1.04,1.07.02.91.05,1.82,0,2.73-.05.94.33,1.26,1.26,1.24,3.21-.04,6.43-.03,9.64-.03.55,0,1.12-.07,1.65.03.3.06.55.41.82.63-.28.22-.53.5-.84.65-.21.1-.51.03-.77.03-3.51,0-7.01,0-10.52-.03-.75,0-1.24.13-1.25,1.05,0,.9.36,1.2,1.22,1.19,2.24-.03,4.48-.01,6.72-.01Zm-10.09-34.4c0-1.85-.02-3.7,0-5.55.01-.82-.32-1.18-1.15-1.17-1.65.02-3.31,0-4.96-.02-.73-.01-1.08.3-1.07,1.04,0,3.8.01,7.59,0,11.39,0,.75.32,1.05,1.06,1.03,1.65-.03,3.31-.04,4.96-.02.84.01,1.17-.34,1.16-1.16-.02-1.85,0-3.7,0-5.55Zm-17.3,8.82s0-.03,0-.04c-2.34,0-4.68,0-7.02,0-.75,0-1.17.29-1.17,1.08,0,1.2,0,2.4,0,3.61,0,.68.34,1.02,1.02,1.02,4.71-.02,9.42-.04,14.13-.06.72,0,1.06-.35,1.05-1.08-.02-1.1-.04-2.21,0-3.31.03-.88-.33-1.22-1.21-1.21-2.27.03-4.55.01-6.82.01Zm27.4,5.51s0-.01,0-.02c2.31,0,4.61-.02,6.92.01.79,0,1.13-.29,1.11-1.08-.03-1.14-.02-2.27,0-3.41,0-.65-.28-.95-.94-.95-4.68,0-9.35,0-14.03-.02-.69,0-1.01.29-1,1,.02,1.01,0,2.01,0,3.02,0,1.38.07,1.45,1.41,1.45,2.18,0,4.35,0,6.53,0Zm-27.48,16.69s0,0,0,0c2.34,0,4.67,0,7.01,0,.76,0,1.15-.29,1.13-1.1-.03-1.04-.01-2.08,0-3.12,0-.66-.27-1.05-.97-1.05-4.77,0-9.54-.02-14.31-.03-.64,0-.96.32-.96.96,0,1.01-.02,2.01-.01,3.02.01,1.12.2,1.31,1.31,1.32,2.27.01,4.54,0,6.82,0Zm10.16-.95h-.01c0,1.07.02,2.14,0,3.21-.03.85.29,1.27,1.19,1.24,1.68-.06,3.37-.09,5.05-.11.69,0,1-.32,1-1.01-.01-2.17-.01-4.34,0-6.52,0-.8-.39-1.08-1.15-1.08-1.65.01-3.31,0-4.96-.04-.78-.02-1.14.3-1.12,1.09.02,1.07,0,2.14,0,3.21Zm-3.59-38.95s0,0,0,0c1.3,0,2.6.02,3.9-.01.29,0,.57-.2.86-.31-.1-.26-.15-.57-.32-.77-.63-.74-1.25-1.5-1.96-2.17-1.91-1.8-4.08-3.09-6.77-3.33-1.53-.14-2.72.41-3.29,1.57-.61,1.21-.41,2.77.75,3.73.74.61,1.72,1.09,2.66,1.23,1.36.2,2.78.05,4.18.05Zm14.37-.01s0-.02,0-.02c1.33,0,2.66,0,3.99,0,.16,0,.32-.02.48-.05,2.09-.32,3.6-2.12,3.33-3.97-.24-1.67-1.55-2.57-3.52-2.38-3.86.36-6.5,2.69-8.79,5.53-.49.61-.11.88.52.89,1.33.01,2.66,0,3.99,0Zm-20.98,40.89s0,0,0,0c-2.27,0-4.55.02-6.82-.01-.89-.01-1.33.26-1.28,1.23.06,1.08.24,1.34,1.31,1.35,4.54.01,9.09.02,13.63.01,1.13,0,1.38-.25,1.39-1.26,0-1.05-.22-1.31-1.32-1.32-2.31-.02-4.61,0-6.92,0Zm13.67-17.65s0-.01,0-.02c.94,0,1.88,0,2.82,0,.59,0,.91-.27.91-.88,0-1.23,0-2.46,0-3.7,0-.6-.3-.9-.89-.9-1.78,0-3.57,0-5.35-.02-.66,0-.94.31-.94.95,0,1.2.01,2.4,0,3.6,0,.71.34.99,1.02.97.81-.02,1.62,0,2.43,0Zm-15.13-7.5s0-.06,0-.09c.52,0,1.04,0,1.56,0,2.31,0,4.61-.02,6.92-.03.57,0,1.06-.09,1.08-.81.02-.76-.47-.91-1.09-.93-.1,0-.19,0-.29,0-5.52-.02-11.05-.04-16.57-.07-.65,0-1.3,0-1.31.9,0,.89.59,1.04,1.32,1.04,2.79,0,5.59,0,8.38,0Z"/>
  </g>
</svg>