<?xml version="1.0" encoding="UTF-8"?>
<svg id="Capa_2" data-name="Capa 2" xmlns="http://www.w3.org/2000/svg" xmlns:xlink="http://www.w3.org/1999/xlink" viewBox="0 0 208.93 253.51">
  <defs>
    <style>
      .cls-1 {
        fill: url(#Nueva_muestra_de_motivo_3);
        font-family: GreatVibes-Regular, 'Great Vibes';
        font-size: 44.04px;
      }

      .cls-2, .cls-3 {
        letter-spacing: 0em;
      }

      .cls-4 {
        fill: url(#linear-gradient);
      }

      .cls-4, .cls-5, .cls-6, .cls-7, .cls-8 {
        stroke-width: 0px;
      }

      .cls-9 {
        letter-spacing: 0em;
      }

      .cls-10, .cls-11 {
        letter-spacing: 0em;
      }

      .cls-5 {
        fill: url(#Nueva_muestra_de_motivo_1);
      }

      .cls-12, .cls-13, .cls-14 {
        letter-spacing: .03em;
      }

      .cls-3, .cls-15, .cls-11, .cls-16, .cls-17, .cls-18, .cls-14 {
        font-family: Italiana-Regular, Italiana;
      }

      .cls-19 {
        letter-spacing: .01em;
      }

      .cls-20 {
        fill: #504322;
        font-size: 20.53px;
        stroke: #504322;
        stroke-miterlimit: 10;
        stroke-width: .26px;
      }

      .cls-6 {
        fill: none;
      }

      .cls-15, .cls-21 {
        letter-spacing: .02em;
      }

      .cls-7 {
        fill: #fff;
      }

      .cls-22 {
        letter-spacing: -.02em;
      }

      .cls-16 {
        letter-spacing: .05em;
      }

      .cls-23 {
        letter-spacing: -.02em;
      }

      .cls-8 {
        fill: url(#linear-gradient-2);
      }

      .cls-24 {
        letter-spacing: .02em;
      }

      .cls-13 {
        font-family: TrajanPro-Regular, 'Trajan Pro';
      }

      .cls-25 {
        letter-spacing: -.03em;
      }

      .cls-18 {
        letter-spacing: -.06em;
      }
    </style>
    <linearGradient id="linear-gradient" x1="545" y1="-15422" x2="821" y2="-15422" gradientTransform="translate(-545 -15337.5) scale(1 -1)" gradientUnits="userSpaceOnUse">
      <stop offset="0" stop-color="#dcc173"/>
      <stop offset=".24" stop-color="#ab8136"/>
      <stop offset=".52" stop-color="#73582b"/>
      <stop offset=".86" stop-color="#dcc173"/>
    </linearGradient>
    <pattern id="Nueva_muestra_de_motivo_1" data-name="Nueva muestra de motivo 1" x="0" y="0" width="276" height="169" patternTransform="translate(-54.78 -2450.96) scale(.88)" patternUnits="userSpaceOnUse" viewBox="0 0 276 169">
      <g>
        <rect class="cls-6" width="276" height="169"/>
        <rect class="cls-4" width="276" height="169"/>
      </g>
    </pattern>
    <linearGradient id="linear-gradient-2" x1="1703.29" y1="554.85" x2="1944.16" y2="554.85" gradientTransform="translate(698.22 1944.16) rotate(-90) scale(1 -1)" xlink:href="#linear-gradient"/>
    <pattern id="Nueva_muestra_de_motivo_3" data-name="Nueva muestra de motivo 3" x="0" y="0" width="286.73" height="240.87" patternTransform="translate(1084.64 -1400.85)" patternUnits="userSpaceOnUse" viewBox="0 0 286.73 240.87">
      <g>
        <rect class="cls-6" width="286.73" height="240.87"/>
        <polygon class="cls-8" points="286.73 0 286.73 240.87 0 240.87 0 0 286.73 0"/>
      </g>
    </pattern>
  </defs>
  <g id="Capa_1-2" data-name="Capa 1">
    <g>
      <g>
        <path class="cls-5" d="m67.05,249.44c.67-1.43,1.94-1.14,3.11-1.05.65.05,1.29.22,1.93.24,1.2.04,1.71-.32,2.14-1.43.96-2.48,1.69-5.03,2.41-7.58,1.16-4.13,2.26-8.27,3.13-12.47.41-1.97.23-3.93.02-5.9-.4-3.72-1.24-7.39-1.33-11.14-.1-4.07.74-8.02,1.62-11.95.87-3.86,2.16-7.6,3.24-11.4.14-.51.39-.55.86-.42,4.81,1.3,9.64,2.57,14.45,3.86.28.07.59.09.47.59-1.2,4.92-2.32,9.86-3.88,14.7-1.76,5.45-4.65,10.2-8.34,14.53-1.1,1.29-2.05,2.7-3.08,4.04-1.5,1.95-2.1,4.29-2.79,6.57-1.49,4.93-2.81,9.9-3.88,14.94-.17.79-.31,1.58-.41,2.38-.15,1.25.13,1.74,1.27,2.29.87.42,1.77.75,2.64,1.18.59.29,1.11.68,1.14,1.46.02.55-.14.76-.73.6-4.33-1.18-8.67-2.35-13.01-3.51-.32-.09-.64-.24-.99-.19v-.31Z"/>
        <path class="cls-5" d="m120.87,209.27c.07,3.39-.49,6.49-1.01,9.59-.66,3.98-.6,7.87.47,11.8,1.49,5.44,2.77,10.94,4.69,16.26.55,1.53,1.25,1.9,2.88,1.67.92-.14,1.85-.31,2.79-.26.38.02.73.09,1.02.34.29.24.57.55.48.92-.07.29-.47.25-.73.32-4.36,1.17-8.73,2.34-13.1,3.51-.73.2-.96-.03-.8-.77.15-.68.68-1.04,1.25-1.3.78-.37,1.58-.66,2.36-1.02,1.33-.61,1.66-1.23,1.39-2.66-1.33-7.06-3.19-13.99-5.49-20.79-.43-1.28-1.22-2.35-2-3.43-2.09-2.93-4.49-5.61-6.54-8.57-2.45-3.54-3.82-7.56-5.12-11.6-1.32-4.09-2.15-8.3-3.18-12.46-.14-.58.27-.54.54-.61,2.76-.75,5.52-1.48,8.28-2.22,2.03-.54,4.07-1.08,6.09-1.64.47-.13.69-.08.85.44,1.55,5.13,3.19,10.23,4.11,15.52.42,2.38.83,4.77.72,6.99Z"/>
        <path class="cls-5" d="m100.22,184.17c0,1.3,0,2.6,0,3.9,0,.37.02.79-.5.81-.53.02-.62-.36-.62-.8,0-2.65,0-5.31,0-7.96,0-.39.04-.75.55-.76.51,0,.57.35.57.75,0,1.35,0,2.71,0,4.06Z"/>
        <path class="cls-5" d="m101.78,188.9c-.5-.02-.65-.49-.33-1.08.8-1.46,1.62-2.91,2.44-4.36.14-.25.29-.49.42-.75.2-.42.49-.75.97-.48.46.26.25.67.06,1.02-.7,1.25-1.4,2.5-2.09,3.75-.27.48-.53.96-.8,1.43-.14.25-.31.49-.65.48Z"/>
        <path class="cls-5" d="m98.04,188.36c-.01.26-.12.46-.38.52-.33.08-.56-.08-.71-.35-.31-.54-.6-1.09-.91-1.63-.68-1.22-1.36-2.45-2.06-3.66-.22-.38-.3-.79.11-1.01.42-.24.7.07.92.45.93,1.68,1.88,3.35,2.81,5.02.11.2.24.41.22.65Z"/>
      </g>
      <path class="cls-7" d="m83.03,220.52c-.92-.23-1.2-.85-1.42-1.49-.43-1.24-.53-2.54-.71-3.83-.35-2.4-.61-4.79-.44-7.23.28-4.04,1.13-7.98,2.17-11.87.67-2.51,1.46-4.99,2.17-7.49.14-.49.32-.59.81-.46,3.51.96,7.02,1.9,10.54,2.81.69.18.84.42.65,1.13-.59,2.26-1.11,4.54-1.63,6.82-.13.58-.39.78-1.01.78-3.52-.03-7.03,0-10.55-.02-.48,0-.74.08-.85.62-.61,2.98-1.18,5.98-1.27,9.03-.08,2.66.35,5.29.8,7.9.18,1.07.41,2.13.74,3.29Z"/>
      <path class="cls-7" d="m111.64,199.26c-1.75,0-3.49.01-5.24,0-.49,0-.68.13-.53.64,1.25,4.16,2.51,8.33,4.71,12.12,1.66,2.85,3.79,5.35,6,7.78.13.14.44.24.32.47-.13.26-.44.27-.7.21-.66-.15-1.19-.54-1.63-1.03-3.07-3.5-5.8-7.21-7.49-11.62-2-5.21-3.36-10.6-4.58-16.03-.11-.49,0-.61.46-.73,3.54-.93,7.08-1.87,10.6-2.86.69-.2.97.05,1.12.62.85,3.21,1.89,6.37,2.65,9.61.15.65.1.85-.62.83-1.69-.05-3.39-.02-5.08-.02Z"/>
    </g>
    <text class="cls-1" transform="translate(32.17 40.91)"><tspan x="0" y="0">Recepción</tspan></text>
    <text class="cls-20" transform="translate(.13 84)"><tspan class="cls-17"><tspan class="cls-10" x="0" y="0">C</tspan><tspan class="cls-2" x="12.77" y="0">e</tspan><tspan class="cls-12" x="22.91" y="0">n</tspan><tspan class="cls-2" x="34.22" y="0">t</tspan><tspan class="cls-23" x="40.97" y="0">r</tspan><tspan class="cls-12" x="48.03" y="0">o </tspan><tspan class="cls-22" x="66.69" y="0">d</tspan><tspan class="cls-12" x="78.45" y="0">e Re</tspan><tspan class="cls-21" x="119.47" y="0">c</tspan><tspan class="cls-2" x="129.65" y="0">e</tspan><tspan class="cls-12" x="139.79" y="0">pc</tspan><tspan class="cls-22" x="161.57" y="0">i</tspan><tspan class="cls-10" x="166.04" y="0">o</tspan><tspan class="cls-21" x="177.64" y="0">n</tspan><tspan class="cls-12" x="188.75" y="0">es</tspan></tspan><tspan class="cls-17"><tspan class="cls-12" x="17.89" y="24.63">“C</tspan><tspan class="cls-9" x="38.83" y="24.63">L</tspan><tspan class="cls-21" x="48.58" y="24.63">U</tspan><tspan class="cls-12" x="61.8" y="24.63">B </tspan><tspan class="cls-24" x="80.66" y="24.63">D</tspan><tspan class="cls-12" x="93.74" y="24.63">F LE</tspan><tspan class="cls-19" x="132.88" y="24.63">O</tspan><tspan class="cls-12" x="147.97" y="24.63">NES”</tspan></tspan><tspan class="cls-18" x="20.2" y="49.26">A</tspan><tspan class="cls-14" x="31.63" y="49.26">v. </tspan><tspan class="cls-15" x="51.21" y="49.26">A</tspan><tspan class="cls-3" x="64.29" y="49.26">r</tspan><tspan class="cls-14" x="71.56" y="49.26">e</tspan><tspan class="cls-16" x="82.31" y="49.26">q</tspan><tspan class="cls-14" x="93.93" y="49.26">u</tspan><tspan class="cls-11" x="105.24" y="49.26">i</tspan><tspan class="cls-14" x="110.33" y="49.26">pa </tspan><tspan class="cls-13" x="139.54" y="49.26">4701</tspan><tspan class="cls-17"><tspan class="cls-12" x="60.07" y="73.9">M</tspan><tspan class="cls-10" x="76.88" y="73.9">i</tspan><tspan class="cls-2" x="81.97" y="73.9">r</tspan><tspan class="cls-10" x="89.24" y="73.9">a</tspan><tspan class="cls-19" x="100" y="73.9">f</tspan><tspan class="cls-25" x="105.54" y="73.9">l</tspan><tspan class="cls-10" x="109.81" y="73.9">o</tspan><tspan class="cls-2" x="121.41" y="73.9">r</tspan><tspan class="cls-12" x="128.67" y="73.9">es</tspan></tspan></text>
  </g>
</svg>