<?xml version="1.0" encoding="UTF-8"?>
<svg id="Capa_2" data-name="Capa 2" xmlns="http://www.w3.org/2000/svg" xmlns:xlink="http://www.w3.org/1999/xlink" viewBox="0 0 208.93 249.71">
  <defs>
    <style>
      .cls-1 {
        fill: url(#Nueva_muestra_de_motivo_3);
        font-family: GreatVibes-Regular, 'Great Vibes';
        font-size: 44.04px;
      }

      .cls-2, .cls-3 {
        letter-spacing: 0em;
      }

      .cls-4 {
        fill: url(#linear-gradient);
      }

      .cls-4, .cls-5, .cls-6, .cls-7 {
        stroke-width: 0px;
      }

      .cls-8 {
        letter-spacing: 0em;
      }

      .cls-9, .cls-10 {
        letter-spacing: 0em;
      }

      .cls-5 {
        fill: url(#Nueva_muestra_de_motivo_1);
      }

      .cls-11, .cls-12, .cls-13 {
        letter-spacing: .03em;
      }

      .cls-3, .cls-14, .cls-10, .cls-15, .cls-16, .cls-17, .cls-13 {
        font-family: Italiana-Regular, Italiana;
      }

      .cls-18 {
        letter-spacing: .01em;
      }

      .cls-19 {
        fill: #504322;
        font-size: 20.53px;
        stroke: #504322;
        stroke-miterlimit: 10;
        stroke-width: .26px;
      }

      .cls-6 {
        fill: none;
      }

      .cls-14, .cls-20 {
        letter-spacing: .02em;
      }

      .cls-21 {
        letter-spacing: -.02em;
      }

      .cls-15 {
        letter-spacing: .05em;
      }

      .cls-22 {
        letter-spacing: -.02em;
      }

      .cls-7 {
        fill: url(#linear-gradient-2);
      }

      .cls-23 {
        letter-spacing: .02em;
      }

      .cls-12 {
        font-family: TrajanPro-Regular, 'Trajan Pro';
      }

      .cls-24 {
        letter-spacing: -.03em;
      }

      .cls-17 {
        letter-spacing: -.06em;
      }
    </style>
    <linearGradient id="linear-gradient" x1="1703.29" y1="554.85" x2="1944.16" y2="554.85" gradientTransform="translate(698.22 1944.16) rotate(-90) scale(1 -1)" gradientUnits="userSpaceOnUse">
      <stop offset="0" stop-color="#dcc173"/>
      <stop offset=".24" stop-color="#ab8136"/>
      <stop offset=".52" stop-color="#73582b"/>
      <stop offset=".86" stop-color="#dcc173"/>
    </linearGradient>
    <pattern id="Nueva_muestra_de_motivo_3" data-name="Nueva muestra de motivo 3" x="0" y="0" width="286.73" height="240.87" patternTransform="translate(1083.45 -770.91)" patternUnits="userSpaceOnUse" viewBox="0 0 286.73 240.87">
      <g>
        <rect class="cls-6" width="286.73" height="240.87"/>
        <polygon class="cls-4" points="286.73 0 286.73 240.87 0 240.87 0 0 286.73 0"/>
      </g>
    </pattern>
    <linearGradient id="linear-gradient-2" x1="545" y1="-15422" x2="821" y2="-15422" gradientTransform="translate(-545 -15337.5) scale(1 -1)" xlink:href="#linear-gradient"/>
    <pattern id="Nueva_muestra_de_motivo_1" data-name="Nueva muestra de motivo 1" x="0" y="0" width="276" height="169" patternTransform="translate(1084.46 -725.94)" patternUnits="userSpaceOnUse" viewBox="0 0 276 169">
      <g>
        <rect class="cls-6" width="276" height="169"/>
        <rect class="cls-7" width="276" height="169"/>
      </g>
    </pattern>
  </defs>
  <g id="Capa_1-2" data-name="Capa 1">
    <text class="cls-1" transform="translate(34.34 40.91)"><tspan x="0" y="0">Ceremonia</tspan></text>
    <text class="cls-19" transform="translate(.13 86)"><tspan class="cls-16"><tspan class="cls-9" x="0" y="0">C</tspan><tspan class="cls-2" x="12.77" y="0">e</tspan><tspan class="cls-11" x="22.91" y="0">n</tspan><tspan class="cls-2" x="34.22" y="0">t</tspan><tspan class="cls-22" x="40.97" y="0">r</tspan><tspan class="cls-11" x="48.03" y="0">o </tspan><tspan class="cls-21" x="66.69" y="0">d</tspan><tspan class="cls-11" x="78.45" y="0">e Re</tspan><tspan class="cls-20" x="119.47" y="0">c</tspan><tspan class="cls-2" x="129.65" y="0">e</tspan><tspan class="cls-11" x="139.79" y="0">pc</tspan><tspan class="cls-21" x="161.57" y="0">i</tspan><tspan class="cls-9" x="166.04" y="0">o</tspan><tspan class="cls-20" x="177.64" y="0">n</tspan><tspan class="cls-11" x="188.75" y="0">es</tspan></tspan><tspan class="cls-16"><tspan class="cls-11" x="17.89" y="24.63">“C</tspan><tspan class="cls-8" x="38.83" y="24.63">L</tspan><tspan class="cls-20" x="48.58" y="24.63">U</tspan><tspan class="cls-11" x="61.8" y="24.63">B </tspan><tspan class="cls-23" x="80.66" y="24.63">D</tspan><tspan class="cls-11" x="93.74" y="24.63">F LE</tspan><tspan class="cls-18" x="132.88" y="24.63">O</tspan><tspan class="cls-11" x="147.97" y="24.63">NES”</tspan></tspan><tspan class="cls-17" x="20.2" y="49.26">A</tspan><tspan class="cls-13" x="31.63" y="49.26">v. </tspan><tspan class="cls-14" x="51.21" y="49.26">A</tspan><tspan class="cls-3" x="64.29" y="49.26">r</tspan><tspan class="cls-13" x="71.56" y="49.26">e</tspan><tspan class="cls-15" x="82.31" y="49.26">q</tspan><tspan class="cls-13" x="93.93" y="49.26">u</tspan><tspan class="cls-10" x="105.24" y="49.26">i</tspan><tspan class="cls-13" x="110.33" y="49.26">pa </tspan><tspan class="cls-12" x="139.54" y="49.26">4701</tspan><tspan class="cls-16"><tspan class="cls-11" x="60.07" y="73.9">M</tspan><tspan class="cls-9" x="76.88" y="73.9">i</tspan><tspan class="cls-2" x="81.97" y="73.9">r</tspan><tspan class="cls-9" x="89.24" y="73.9">a</tspan><tspan class="cls-18" x="100" y="73.9">f</tspan><tspan class="cls-24" x="105.54" y="73.9">l</tspan><tspan class="cls-9" x="109.81" y="73.9">o</tspan><tspan class="cls-2" x="121.41" y="73.9">r</tspan><tspan class="cls-11" x="128.67" y="73.9">es</tspan></tspan></text>
    <g>
      <path class="cls-5" d="m68.16,248.22c.37-.55.89-.72,1.54-.69.89.04,1.78,0,2.7,0v-21.21c-.38.13-.73.26-1.09.39-.84.29-1.43.09-1.65-.56-.22-.64.08-1.14.9-1.44,4.22-1.54,8.44-3.07,12.66-4.61.82-.3,1.64-.6,2.46-.89.84-.3,1.43-.1,1.65.56.22.64-.09,1.14-.9,1.44-3.74,1.37-7.49,2.74-11.24,4.08-.47.17-.62.39-.62.88.02,6.89.01,13.77.01,20.66,0,.2.02.41.03.65h14.86v-31.76c-.34.31-.6.65-.94.81-.36.17-.87.35-1.17.22-.31-.13-.62-.64-.64-1-.07-1.83-.07-3.67-.01-5.51.01-.39.31-.86.62-1.14,4.81-4.41,9.63-8.79,14.46-13.17.41-.37.6-.73.57-1.3-.05-1.09-.01-2.19-.01-3.38-.58,0-1.1.02-1.62,0-.78-.03-1.22-.46-1.2-1.12.02-.62.47-1,1.22-1.02.48-.01.96-.01,1.45-.02.02,0,.04-.02.15-.08,0-.49,0-1.03,0-1.57.01-.82.44-1.32,1.09-1.31.65,0,1.05.51,1.07,1.34,0,.48,0,.96.02,1.45,0,.04.03.08.08.2.49,0,1.01-.01,1.53,0,.74.02,1.19.42,1.19,1.05,0,.64-.41,1.05-1.16,1.09-.52.03-1.05,0-1.66,0,0,1.36-.02,2.66.02,3.96,0,.22.27.45.46.63,4.8,4.38,9.6,8.75,14.42,13.11.54.49.78,1.01.76,1.73-.04,1.61-.02,3.21,0,4.82,0,.56-.09,1.06-.68,1.3-.56.23-.97-.05-1.35-.41-.23-.21-.46-.42-.77-.7v31.77h14.87c.01-.22.04-.44.04-.66,0-6.86,0-13.73.02-20.59,0-.58-.21-.79-.7-.97-3.65-1.3-7.28-2.63-10.92-3.95-.15-.05-.3-.11-.45-.17-.64-.28-.89-.8-.68-1.38.21-.57.76-.83,1.4-.61,1.15.39,2.29.82,3.43,1.24,3.92,1.42,7.84,2.85,11.76,4.27.15.05.31.1.45.17.58.28.82.8.62,1.35-.2.55-.73.81-1.34.65-.24-.07-.47-.17-.71-.25-.21-.07-.43-.14-.68-.23v21.19c.86,0,1.73,0,2.59,0,.27,0,.56-.02.82.05.53.13.83.5.82,1.05,0,.51-.29.87-.8.99-.29.07-.59.07-.89.07-22.38,0-44.77,0-67.15.01-.68,0-1.26-.09-1.69-.66v-.83Zm28.51-.71c0-.33,0-.58,0-.83,0-3.24-.03-6.47.02-9.71.05-3.49,2.98-6.41,6.48-6.52,3.83-.12,6.97,2.84,7.02,6.67.04,3.21,0,6.43.01,9.64,0,.24,0,.49,0,.72h4.98v-.67c0-10.83,0-21.67.01-32.5,0-.46-.16-.76-.49-1.06-3.61-3.26-7.2-6.54-10.81-9.81-.15-.13-.31-.25-.47-.37-.13.1-.22.17-.31.24-3.69,3.35-7.38,6.69-11.04,10.06-.24.22-.37.67-.37,1.02-.02,10.79-.02,21.57-.02,32.36v.74h4.98Zm6.82-50.12c-.09.03-.14.04-.17.07-4.74,4.31-9.48,8.61-14.22,12.93-.12.11-.25.3-.26.45-.03.81-.01,1.62-.01,2.56.28-.24.46-.38.62-.53,4.3-3.91,8.6-7.81,12.9-11.72.91-.83,1.26-.83,2.16-.01,4.31,3.92,8.63,7.84,12.95,11.77.16.14.33.27.58.47,0-.76-.03-1.4,0-2.04.03-.5-.13-.84-.51-1.18-3.31-2.98-6.6-5.99-9.89-8.98-1.39-1.26-2.78-2.52-4.15-3.77Zm-1.17,50.13v-14.74c-.19.04-.35.06-.49.11-1.84.65-3.02,2.36-3.04,4.47-.02,3.21,0,6.42,0,9.63,0,.17.04.35.06.54h3.47Zm2.24-14.7v14.68h3.47c.02-.15.04-.26.04-.37,0-3.28,0-6.55,0-9.83,0-.32-.04-.64-.09-.96-.3-1.75-1.85-3.36-3.41-3.52Z"/>
      <path class="cls-5" d="m85.96,235.62c0,1.4,0,2.8,0,4.2,0,.93-.36,1.31-1.28,1.32-1.74.02-3.49.02-5.23,0-.92,0-1.31-.39-1.31-1.31-.01-2.76-.03-5.51,0-8.27.03-2.18,1.51-3.75,3.63-3.96,1.84-.18,3.62,1.11,4.08,2.99.09.37.1.77.11,1.16.01,1.29,0,2.57,0,3.86Zm-2.12,3.35c0-2.45,0-4.83,0-7.21,0-1.22-.72-2.01-1.79-2.01-1.07,0-1.77.78-1.78,2.01,0,2.23,0,4.45,0,6.68,0,.17.03.35.05.54h3.52Z"/>
      <path class="cls-5" d="m120.9,235.59c0-1.33-.01-2.66,0-3.99.03-2.24,1.63-3.92,3.8-4,2.09-.08,3.91,1.53,3.99,3.73.1,2.89.04,5.78.03,8.68,0,.73-.4,1.12-1.13,1.13-1.86.03-3.72.03-5.58,0-.75-.01-1.1-.42-1.11-1.2-.01-1.45,0-2.89,0-4.34Zm5.67,3.39c0-2.59.03-5.11-.01-7.63-.01-.92-.83-1.6-1.75-1.6-.97,0-1.76.7-1.77,1.73-.03,2.45,0,4.91,0,7.37,0,.04.05.07.09.13h3.44Z"/>
      <path class="cls-5" d="m110.18,217.77c0,.72-.4,1.75-1.22,2.59-1.54,1.57-3.1,3.13-4.67,4.68-.6.59-1.14.59-1.74,0-1.53-1.52-3.07-3.03-4.57-4.57-1.57-1.61-1.76-3.9-.53-5.66,1.25-1.79,3.49-2.35,5.57-1.45.26.11.66.06.93-.06,2.95-1.29,6.23.82,6.23,4.48Zm-6.7,5.03c1.32-1.31,2.66-2.6,3.94-3.94.85-.89.83-2.19.04-3.06-.78-.86-2.04-1-3-.33q-1.05.73-2.08,0c-.94-.66-2.15-.55-2.95.27-.79.81-.93,2.11-.15,2.94,1.34,1.41,2.77,2.73,4.2,4.11Z"/>
    </g>
  </g>
</svg>