<?xml version="1.0" encoding="utf-8"?>
<!-- Generator: Adobe Illustrator 28.0.0, SVG Export Plug-In . SVG Version: 6.00 Build 0)  -->
<svg version="1.1" id="Capa_1" xmlns="http://www.w3.org/2000/svg" xmlns:xlink="http://www.w3.org/1999/xlink" x="0px" y="0px"
	 viewBox="0 0 300 480" style="enable-background:new 0 0 300 480;" xml:space="preserve">
<style type="text/css">
	.st0{fill:none;}
	.st1{fill:url(#SVGID_1_);}
	.st2{fill:url(#XMLID_00000144297307003214776840000007391991149642971554_);}
	.st3{fill:url(#Nueva_muestra_de_motivo_3);}
	.st4{fill:#504322;stroke:#504322;stroke-width:0.2566;stroke-miterlimit:10;}
	.st5{fill:url(#SVGID_00000132770484840667188880000002509009499805837466_);}
	.st6{fill:url(#SVGID_00000142160627975724932560000007819387130097420715_);}
	.st7{fill:url(#SVGID_00000091006069043592671120000006886261751319111866_);}
	.st8{fill:url(#SVGID_00000111184530611539729620000003729527060901960103_);}
</style>
<pattern  width="276" height="169" patternUnits="userSpaceOnUse" id="Nueva_muestra_de_motivo_1" viewBox="0 -169 276 169" style="overflow:visible;">
	<g>
		<rect y="-169" class="st0" width="276" height="169"/>
		
			<linearGradient id="SVGID_1_" gradientUnits="userSpaceOnUse" x1="545" y1="-15591" x2="821" y2="-15591" gradientTransform="matrix(1 0 0 -1 -545 -15675.5)">
			<stop  offset="0" style="stop-color:#DCC173"/>
			<stop  offset="0.2398" style="stop-color:#AB8136"/>
			<stop  offset="0.5153" style="stop-color:#73582B"/>
			<stop  offset="0.8571" style="stop-color:#DCC173"/>
		</linearGradient>
		<rect y="-169" class="st1" width="276" height="169"/>
	</g>
</pattern>
<pattern  width="286.7" height="240.9" patternUnits="userSpaceOnUse" id="Nueva_muestra_de_motivo_3" viewBox="0 -240.9 286.7 240.9" style="overflow:visible;">
	<g>
		<rect y="-240.9" class="st0" width="286.7" height="240.9"/>
		
			<linearGradient id="XMLID_00000160908514158222470670000004285226228743518888_" gradientUnits="userSpaceOnUse" x1="1703.2894" y1="313.9805" x2="1944.1627" y2="313.9805" gradientTransform="matrix(4.489700e-11 -1 -1 -4.489700e-11 457.3437 1703.2894)">
			<stop  offset="0" style="stop-color:#DCC173"/>
			<stop  offset="0.2398" style="stop-color:#AB8136"/>
			<stop  offset="0.5153" style="stop-color:#73582B"/>
			<stop  offset="0.8571" style="stop-color:#DCC173"/>
		</linearGradient>
		<polygon id="XMLID_48_" style="fill:url(#XMLID_00000160908514158222470670000004285226228743518888_);" points="286.7,-240.9 
			286.7,0 0,0 0,-240.9 		"/>
	</g>
</pattern>
<g>
	<g>
		<g>
			<path class="st3" d="M101.1,109.2c-4.5,3.1-10.7,4.7-17.1,2c-11.1-4.7-8.3-20-2.2-27.7c-0.7-2.7-1.1-6.8-0.2-10.1
				c0.2-0.7,1.1-1,0.9,0.2c-0.5,2.8-0.1,6,0.4,8.4c4.8-6.1,11.4-8.9,18.3-8.1c17.2,1.9,10.9,23.1-7.2,20.5
				c-4.6-0.7-8.6-2.7-10.9-7.5c-1.6,2.1-8.8,19.9,2.6,23.4c4.7,1.4,10.4,0.7,14.8-1.8c3.8-2.2,5.4-5.1,7.2-8.9
				c0.4-0.7,1-0.4,0.5,0.4C106.3,103.9,104.8,106.6,101.1,109.2z M83.9,85.5c2,5.1,5.9,7.3,10.7,7.8c15.9,1.8,19.8-15.9,7-17.7
				C95,74.6,88.2,78.9,83.9,85.5z"/>
			<path class="st3" d="M110.7,108.3c-2.2,0-4.2-1.5-4.2-4.2c0-2.6,1.5-5.9,3.4-8.2c2.2-2.6,5.6-4.3,7.5-2.9
				c1.7,1.3,0.4,4.3-2.4,6.4c-1.4,1-4.2,1.9-5.4,1.9c-0.7,1.6-1.4,6,1.5,6c3.9,0,6.3-5.2,7.3-7.5c0.4-0.8,1.2-0.9,0.8,0
				C117.4,103.4,115.5,108.3,110.7,108.3z M112.5,96.4c-1.1,1.4-2.2,3.3-2.6,4.1c0.8,0,3.1-0.6,4.7-1.9
				C118.1,95.6,117.9,89.9,112.5,96.4z"/>
			<path class="st3" d="M124,108.1c-1.5,0.4-4.2-1-2.4-5.5c0.7-1.8,2.2-4.1,2.7-5.2c0.6-1.5-0.9-2-3.4-2.1l-0.5,1.4
				c-1.1,2.8-3.2,7.7-5.3,9.7c-0.4,0.3-0.6-0.2-0.4-0.6c3.5-4.6,5.9-11.2,6.8-16.2c0.4-2.5,3.3-1.4,2.7,1.6c-0.3,1.2-1.7,2.4-2.4,3
				c1.6,0.1,3.9,0,6.1-0.2c0.3,0.6-0.4,2.3-0.9,3.4c-0.7,1.4-5.2,9.4-2.5,9.6c1.8,0,4.5-5.5,5.5-7.4c0.4-0.7,1-0.4,0.5,0.4
				C129.2,102.7,126.9,107.4,124,108.1z"/>
			<path class="st3" d="M132.9,108.3c-2.2,0-4.2-1.5-4.2-4.2c0-2.6,1.5-5.9,3.4-8.2c2.2-2.6,5.6-4.3,7.5-2.9
				c1.7,1.3,0.4,4.3-2.4,6.4c-1.4,1-4.2,1.9-5.4,1.9c-0.7,1.6-1.4,6,1.5,6c3.9,0,6.3-5.2,7.3-7.5c0.4-0.8,1.2-0.9,0.8,0
				C139.7,103.4,137.8,108.3,132.9,108.3z M134.7,96.4c-1.1,1.4-2.2,3.3-2.6,4.1c0.8,0,3.1-0.6,4.7-1.9
				C140.4,95.6,140.2,89.9,134.7,96.4z"/>
			<path class="st3" d="M156.4,108.3c-1.6,0-3.7-1.1-2.4-5.2c0.4-1.1,1.2-2.6,2.4-4.6c1.1-1.7,0.3-2.9-3.1,0.3
				c-1.9,1.8-5.6,6.7-6.2,9.3c-1,0-1.6-1.1-1.4-2.4c0.3-1.9,1.1-3.4,1.8-5c1.5-3,2.9-6.2-1.8-1.9c-1.5,1.4-3.6,3.7-6.1,8.6
				c-0.3,0.7-0.7,0.7-1.7,0.7c-0.6,0-1,0-1.5,0.3c2.1-4.2,3.8-8.3,6-12.2c1.1-2.1,1.7-2.9,3.1-2.8c0.6,0,1.2,0.3,1.8,0.2
				c-1.3,0.7-3.7,5.1-5.3,8.3c0.9-1.1,2.3-2.8,3.7-4c2.1-1.9,4.9-4.7,6.4-4.1c0.8,0.3,1.1,1.1,0.7,1.9c-0.8,1.8-2.2,4-3.2,6.2
				c0.9-1.1,2.3-2.8,3.7-4c2.1-1.9,6.7-4.7,8.1-4.1c0,0-4.7,8.3-5.3,11.4c-0.3,1.8,0.2,2.2,0.7,2.2c2.3,0,5.1-5.6,6-7.6
				c0.4-0.8,1.1-0.5,0.6,0.4C162.3,102.7,159.7,108.3,156.4,108.3z"/>
			<path class="st3" d="M171.6,107.8c-1.3,0-2.2-0.5-2.8-1.1c-1.2,0.9-2.6,1.5-3.8,1.5c-3.3-0.1-3.8-4.1-2.2-8
				c1.7-4.1,5.4-7.5,8.4-7.4c3.3,0,3.8,4.1,2.2,8c-0.7,1.5-2,3.6-3.7,5.2c0.4,0.7,1,1.1,2.1,1.1c2.8,0,5.1-5.5,6.2-7.6
				c0.2-0.4,1-0.3,0.7,0.4C177.7,101.5,175.3,107.8,171.6,107.8z M165.8,99.9c-1.7,3.6-2.1,6.7-0.5,7.2c0.8,0.2,1.9-0.2,3-1.1
				c-0.5-0.7-0.7-1.5-0.7-2.2c0-1,0.4-1.9,1.5-1.9c0.7,0,1.3,0.6,1.3,1.3c0,0.2,0,0.3-0.1,0.5c0.5-0.7,1-1.5,1.4-2.4
				c1.7-3.6,1.9-6.7,0.4-7.2C170.2,93.6,167.4,96.4,165.8,99.9z"/>
			<path class="st3" d="M185.9,108.3c-1.5,0-3.7-1.1-2.3-5.2c0.4-1.1,1.2-2.6,2.4-4.6c1.1-1.7,0.3-2.9-3.1,0.3
				c-1.5,1.4-3.7,3.8-6.1,8.7c-0.4,0.6-0.7,0.7-1.7,0.7c-0.7,0-1.1,0-1.5,0.3c2.1-4.2,3.9-8.4,6.1-12.3c1.1-2.1,1.7-2.9,3.1-2.8
				c0.6,0,1.2,0.3,1.8,0.2c-1.3,0.7-3.7,5.1-5.3,8.3c0.9-1.1,2.3-2.8,3.7-4c2.1-1.9,6.6-4.7,8.1-4.1c0,0-4.7,8.3-5.3,11.4
				c-0.4,1.8,0.1,2.2,0.7,2.2c2.3,0,5.1-5.8,6-7.6c0.4-0.8,1.1-0.5,0.6,0.4C191.8,102.7,189.3,108.3,185.9,108.3z"/>
			<path class="st3" d="M194,107.1c0.7,0.1,1.5-0.4,2-0.8c1.5-1.5,2.9-4.2,4.1-6.6c0.4-0.8,1-0.5,0.6,0.4c-1.1,2.5-3.7,8.1-6.9,8.1
				c-3.3,0-3.3-3.4-2.4-5.7l2.8-7.2c0.4-0.8-0.3-1.6-0.4-1.8l2.4,0c1.4,0,1.4,0.5,0.9,1.5l-3.5,8.2c0,0-0.4,1-0.5,1.3
				C192.7,105.8,192.8,107,194,107.1z M197.2,91.5c-1,0-1.7-0.8-1.5-1.8c0.2-1,1.1-1.8,2.1-1.8c1,0,1.7,0.8,1.5,1.8
				C199.1,90.7,198.2,91.5,197.2,91.5z"/>
			<path class="st3" d="M209.6,108.2c-1.5,0.1-3.5-1.1-2.2-5.7c-0.7,1.1-1.9,2.9-3.2,4.1c-5.1,4.8-8.4-2.9-1.8-10.8
				c2.6-3.1,7.7-4.8,10.2-2c0.6,0.7,0.3,1.4-0.5,1.3c-0.5-1.6-2.1-2-3.7-1.1c-2,1.1-4.3,3.7-5.9,6.3c-0.4,0.6-1.5,2.8-1.8,4.4
				c-0.4,3.1,2,2.7,4.1,0.3c1.5-1.8,2.8-4,3.9-6.2c1-1.8,1.6-2.9,3-2.8c0.6,0,1.2,0.3,1.8,0.2c-0.9,0.9-3.5,5.5-4.1,8.2
				c-0.4,1.8-0.1,2.6,0.4,2.6c1.8,0.1,4.8-5.5,5.7-7.4c0.4-0.8,1.1-0.5,0.6,0.4C214.9,102.7,212.2,108,209.6,108.2z"/>
		</g>
	</g>
	<g>
		<g>
			<path class="st4" d="M47.8,153.3c-2.6,0-4.5-0.7-5.7-2.2c-0.4-0.5-0.8-1.2-1.1-2.1c-0.3-0.9-0.4-1.9-0.4-3.1s0.2-2.3,0.6-3.3
				c0.4-1,1-1.7,1.7-2.3c1.4-1,3-1.5,4.9-1.5c0.5,0,1.1,0,1.6,0.1c0.5,0.1,0.9,0.2,1.2,0.3l0.4,0.1l-0.1,0.2c-0.9-0.4-2-0.6-3.1-0.6
				c-1.5,0-2.7,0.5-3.6,1.4c-0.7,0.7-1.3,1.7-1.6,3.1c-0.2,0.8-0.3,1.7-0.3,2.8s0.2,2.1,0.5,3.1s0.7,1.6,1.1,2.1
				c0.4,0.5,0.9,0.8,1.5,1.1s1,0.4,1.4,0.5c0.3,0,0.8,0.1,1.2,0.1s1,0,1.7-0.1s1.1-0.2,1.4-0.3l0.5-0.1l0.1,0.2
				C50.5,153.1,49.2,153.3,47.8,153.3z"/>
			<path class="st4" d="M54.6,148.2c0,1.7,0.3,2.9,0.9,3.7s1.4,1.2,2.4,1.2c1.4,0,2.6-0.2,3.7-0.6l0.1,0.1c-1.1,0.4-2.3,0.6-3.7,0.6
				c-1.4,0-2.5-0.4-3.4-1.2s-1.3-2.1-1.3-3.8c0-1.7,0.5-3,1.4-4c0.9-0.9,2.1-1.4,3.4-1.4c1.1,0,2.1,0.3,2.8,1c0.8,0.7,1.1,1.7,1.1,3
				c0,0.1,0,0.1,0,0.2h-7.3C54.6,147.4,54.6,147.8,54.6,148.2z M59.8,144c-0.5-0.6-1.1-0.9-1.9-0.9c-0.8,0-1.5,0.3-2.1,1
				c-0.6,0.7-1,1.6-1.2,2.8h5.9C60.6,145.6,60.3,144.6,59.8,144z"/>
			<path class="st4" d="M71.8,153.2c-0.6,0-1-0.1-1.3-0.4c-0.3-0.2-0.4-0.5-0.5-0.7l0-0.3v-6.4c0-1.1-0.3-1.8-0.8-2.1
				c-0.3-0.1-0.6-0.2-1.1-0.2c-0.9,0-1.7,0.3-2.4,1c-0.7,0.7-1,1.3-1,1.9v7.3h-1.4v-10.3h1.4v2.3c0.2-0.6,0.7-1.1,1.3-1.7
				c0.6-0.5,1.3-0.8,2.1-0.8c0.8,0,1.4,0.1,1.8,0.2s0.8,0.3,1,0.6c0.3,0.4,0.5,1,0.5,1.6v6.4c0,0.4,0.1,0.7,0.2,0.9
				c0.2,0.2,0.3,0.3,0.5,0.3l0.2,0h0.6v0.2H71.8z"/>
			<path class="st4" d="M74.5,143.1v-0.2H75v-2.1h1.4v2.1h3.1v0.2h-3.1v7.5c0,0.9,0.1,1.5,0.3,1.9c0.2,0.4,0.6,0.6,1.3,0.6
				s1.3-0.1,1.9-0.4l0.1,0.2c-0.7,0.3-1.5,0.4-2.4,0.4c-0.9,0-1.5-0.2-2-0.5s-0.7-1.1-0.7-2.2v-7.5H74.5z"/>
			<path class="st4" d="M85.3,143.8v-0.4c-0.6,0.2-1.2,0.7-1.7,1.5c-0.5,0.7-0.8,1.4-0.8,2.1v6.2h-1.4v-10.3h1.4v3.3
				c0.2-0.8,0.6-1.5,1.3-2.2s1.3-1.1,2.1-1.1h0.1c0.3,0,0.5,0.1,0.7,0.3c0.2,0.2,0.3,0.4,0.3,0.7s-0.1,0.5-0.3,0.7
				c-0.2,0.2-0.4,0.3-0.7,0.3c-0.3,0-0.5-0.1-0.7-0.3C85.4,144.3,85.3,144.1,85.3,143.8z"/>
			<path class="st4" d="M93.3,153.3c-1.4,0-2.6-0.4-3.5-1.2s-1.4-2.1-1.4-3.8c0-1.7,0.5-3,1.4-4c0.9-0.9,2.1-1.4,3.6-1.4
				s2.6,0.4,3.5,1.2s1.4,2.1,1.4,3.8s-0.5,3-1.4,4C96,152.8,94.8,153.3,93.3,153.3z M93.5,143c-1,0-1.9,0.5-2.6,1.4
				c-0.7,0.9-1,2.2-1,3.9s0.3,2.9,0.9,3.7s1.5,1.2,2.5,1.2c1,0,1.9-0.5,2.6-1.4c0.7-0.9,1-2.2,1-3.9c0-1.6-0.3-2.9-0.9-3.7
				C95.3,143.4,94.5,143,93.5,143z"/>
			<path class="st4" d="M107.1,148.4c0-1.8,0.4-3.2,1.3-4.1c0.9-1,2.2-1.5,3.9-1.5c0.8,0,1.6,0.2,2.4,0.6v-5.6h1.4v13.9
				c0,0.4,0.1,0.7,0.2,0.9s0.3,0.3,0.5,0.3l0.2,0h0.6v0.2h-1.3c-0.6,0-1-0.1-1.3-0.4c-0.3-0.2-0.4-0.5-0.5-0.7l0-0.3v-0.3
				c-0.3,0.5-0.7,0.9-1.3,1.3c-0.6,0.4-1.3,0.6-2.1,0.6C108.5,153.2,107.1,151.6,107.1,148.4z M111.3,153.1c0.9,0,1.7-0.2,2.4-0.7
				c0.7-0.5,1-1,1-1.5v-7.2c-1-0.4-1.8-0.6-2.5-0.6c-1.2,0-2.1,0.5-2.8,1.4s-0.9,2.3-0.9,4C108.5,151.5,109.5,153.1,111.3,153.1z"/>
			<path class="st4" d="M120.3,148.2c0,1.7,0.3,2.9,0.9,3.7s1.4,1.2,2.4,1.2c1.4,0,2.6-0.2,3.7-0.6l0.1,0.1
				c-1.1,0.4-2.3,0.6-3.7,0.6c-1.4,0-2.5-0.4-3.4-1.2s-1.3-2.1-1.3-3.8c0-1.7,0.5-3,1.4-4c0.9-0.9,2.1-1.4,3.4-1.4
				c1.1,0,2.1,0.3,2.8,1c0.8,0.7,1.1,1.7,1.1,3c0,0.1,0,0.1,0,0.2h-7.3C120.3,147.4,120.3,147.8,120.3,148.2z M125.5,144
				c-0.5-0.6-1.1-0.9-1.9-0.9c-0.8,0-1.5,0.3-2.1,1c-0.6,0.7-1,1.6-1.2,2.8h5.9C126.2,145.6,126,144.6,125.5,144z"/>
			<path class="st4" d="M136.9,139c1.6-0.1,3-0.2,4.2-0.2c3.4,0,5.1,1.1,5.1,3.4c0,1-0.2,1.8-0.7,2.6s-1.3,1.3-2.4,1.5l4.1,6.9h-1.9
				l-4-6.8h-2.6v6.8h-1.7V139z M141.1,139c-0.8,0-1.6,0-2.5,0.1v7h3c1.9-0.1,2.9-1.4,2.9-3.9c0-1-0.3-1.8-0.9-2.4
				C143.1,139.3,142.2,139,141.1,139z"/>
			<path class="st4" d="M150.5,148.2c0,1.7,0.3,2.9,0.9,3.7s1.4,1.2,2.4,1.2c1.4,0,2.6-0.2,3.7-0.6l0.1,0.1
				c-1.1,0.4-2.3,0.6-3.7,0.6c-1.4,0-2.5-0.4-3.4-1.2s-1.3-2.1-1.3-3.8c0-1.7,0.5-3,1.4-4c0.9-0.9,2.1-1.4,3.4-1.4
				c1.1,0,2.1,0.3,2.8,1c0.8,0.7,1.1,1.7,1.1,3c0,0.1,0,0.1,0,0.2h-7.3C150.5,147.4,150.5,147.8,150.5,148.2z M155.7,144
				c-0.5-0.6-1.1-0.9-1.9-0.9c-0.8,0-1.5,0.3-2.1,1c-0.6,0.7-1,1.6-1.2,2.8h5.9C156.5,145.6,156.2,144.6,155.7,144z"/>
			<path class="st4" d="M164.7,143c-1,0-1.8,0.5-2.4,1.4s-1,2.2-1,3.9c0,1.6,0.3,2.9,0.9,3.7s1.4,1.2,2.4,1.2c1.2,0,2.3-0.2,3.2-0.6
				l0.1,0.1c-1,0.4-2.1,0.6-3.4,0.6s-2.4-0.4-3.2-1.2s-1.3-2.1-1.3-3.8c0-1.7,0.5-3,1.4-4c0.9-0.9,2.1-1.4,3.4-1.4
				c0.8,0,1.5,0.2,2.2,0.5c0.7,0.4,1.2,0.9,1.5,1.6H167c-0.2-0.7-0.5-1.2-0.9-1.5C165.6,143.2,165.2,143,164.7,143z"/>
			<path class="st4" d="M171.5,148.2c0,1.7,0.3,2.9,0.9,3.7s1.4,1.2,2.4,1.2c1.4,0,2.6-0.2,3.7-0.6l0.1,0.1
				c-1.1,0.4-2.3,0.6-3.7,0.6c-1.4,0-2.5-0.4-3.4-1.2s-1.3-2.1-1.3-3.8c0-1.7,0.5-3,1.4-4c0.9-0.9,2.1-1.4,3.4-1.4
				c1.1,0,2.1,0.3,2.8,1c0.8,0.7,1.1,1.7,1.1,3c0,0.1,0,0.1,0,0.2h-7.3C171.5,147.4,171.5,147.8,171.5,148.2z M176.7,144
				c-0.5-0.6-1.1-0.9-1.9-0.9c-0.8,0-1.5,0.3-2.1,1c-0.6,0.7-1,1.6-1.2,2.8h5.9C177.4,145.6,177.2,144.6,176.7,144z"/>
			<path class="st4" d="M180.4,142.9h1.4v2.5c0.2-0.6,0.7-1.2,1.3-1.8s1.3-0.8,2.1-0.8c2.8,0,4.2,1.6,4.2,4.9c0,3.7-1.8,5.5-5.4,5.5
				c-0.6,0-1.4-0.2-2.2-0.5v5.5h-1.4V142.9z M185.2,143c-0.8,0-1.6,0.4-2.3,1.1c-0.7,0.7-1.1,1.4-1.1,2v6.5c0.8,0.3,1.6,0.5,2.2,0.5
				c2.6,0,4-1.8,4-5.4C188,144.6,187.1,143,185.2,143z"/>
			<path class="st4" d="M196.4,143c-1,0-1.8,0.5-2.4,1.4s-1,2.2-1,3.9c0,1.6,0.3,2.9,0.9,3.7s1.4,1.2,2.4,1.2c1.2,0,2.3-0.2,3.2-0.6
				l0.1,0.1c-1,0.4-2.1,0.6-3.4,0.6s-2.4-0.4-3.2-1.2s-1.3-2.1-1.3-3.8c0-1.7,0.5-3,1.4-4c0.9-0.9,2.1-1.4,3.4-1.4
				c0.8,0,1.5,0.2,2.2,0.5c0.7,0.4,1.2,0.9,1.5,1.6h-1.3c-0.2-0.7-0.5-1.2-0.9-1.5C197.4,143.2,196.9,143,196.4,143z"/>
			<path class="st4" d="M202.4,140.6c-0.2-0.2-0.2-0.4-0.2-0.6c0-0.2,0.1-0.5,0.2-0.6c0.2-0.2,0.4-0.3,0.6-0.3
				c0.2,0,0.5,0.1,0.6,0.3c0.2,0.2,0.3,0.4,0.3,0.6c0,0.2-0.1,0.5-0.3,0.6c-0.2,0.2-0.4,0.2-0.6,0.2
				C202.8,140.9,202.6,140.8,202.4,140.6z M204.1,153.2c-0.6,0-1-0.1-1.3-0.4c-0.3-0.2-0.4-0.5-0.5-0.7l0-0.3v-8.8h1.4v8.8
				c0,0.4,0.1,0.7,0.2,0.9s0.3,0.3,0.5,0.3l0.2,0h0.6v0.2H204.1z"/>
			<path class="st4" d="M211.3,153.3c-1.4,0-2.6-0.4-3.5-1.2s-1.4-2.1-1.4-3.8c0-1.7,0.5-3,1.4-4c0.9-0.9,2.1-1.4,3.6-1.4
				s2.6,0.4,3.5,1.2s1.4,2.1,1.4,3.8s-0.5,3-1.4,4C214,152.8,212.8,153.3,211.3,153.3z M211.5,143c-1,0-1.9,0.5-2.6,1.4
				c-0.7,0.9-1,2.2-1,3.9s0.3,2.9,0.9,3.7s1.5,1.2,2.5,1.2c1,0,1.9-0.5,2.6-1.4c0.7-0.9,1-2.2,1-3.9c0-1.6-0.3-2.9-0.9-3.7
				C213.3,143.4,212.5,143,211.5,143z"/>
			<path class="st4" d="M226.6,153.2c-0.6,0-1-0.1-1.3-0.4c-0.3-0.2-0.4-0.5-0.5-0.7l0-0.3v-6.4c0-1.1-0.3-1.8-0.8-2.1
				c-0.3-0.1-0.6-0.2-1.1-0.2c-0.9,0-1.7,0.3-2.4,1c-0.7,0.7-1,1.3-1,1.9v7.3H218v-10.3h1.4v2.3c0.2-0.6,0.7-1.1,1.3-1.7
				c0.6-0.5,1.3-0.8,2.1-0.8c0.8,0,1.4,0.1,1.8,0.2s0.8,0.3,1,0.6c0.3,0.4,0.5,1,0.5,1.6v6.4c0,0.4,0.1,0.7,0.2,0.9
				c0.2,0.2,0.3,0.3,0.5,0.3l0.2,0h0.6v0.2H226.6z"/>
			<path class="st4" d="M230.5,148.2c0,1.7,0.3,2.9,0.9,3.7s1.4,1.2,2.4,1.2c1.4,0,2.6-0.2,3.7-0.6l0.1,0.1
				c-1.1,0.4-2.3,0.6-3.7,0.6c-1.4,0-2.5-0.4-3.4-1.2s-1.3-2.1-1.3-3.8c0-1.7,0.5-3,1.4-4c0.9-0.9,2.1-1.4,3.4-1.4
				c1.1,0,2.1,0.3,2.8,1c0.8,0.7,1.1,1.7,1.1,3c0,0.1,0,0.1,0,0.2h-7.3C230.6,147.4,230.5,147.8,230.5,148.2z M235.8,144
				c-0.5-0.6-1.1-0.9-1.9-0.9c-0.8,0-1.5,0.3-2.1,1c-0.6,0.7-1,1.6-1.2,2.8h5.9C236.5,145.6,236.3,144.6,235.8,144z"/>
			<path class="st4" d="M245.9,143.7c-0.2-0.2-0.6-0.3-1.1-0.5c-0.5-0.1-0.9-0.2-1.1-0.2c-0.2,0-0.4,0-0.4,0c-0.7,0-1.3,0.2-1.6,0.6
				c-0.3,0.4-0.5,0.8-0.5,1.2s0.1,0.8,0.4,1.1c0.3,0.3,0.6,0.5,1.1,0.7c0.4,0.2,0.9,0.4,1.4,0.6c0.5,0.2,1,0.4,1.4,0.7
				c0.4,0.2,0.8,0.6,1.1,1c0.3,0.4,0.4,1,0.4,1.6c0,0.6-0.2,1.2-0.7,1.6s-1,0.8-1.5,0.9s-1.2,0.2-1.8,0.2c-1.4,0-2.4-0.3-3.1-0.9
				l0.1-0.1c0.3,0.3,0.7,0.5,1.2,0.6s1.1,0.2,1.6,0.2c0.8,0,1.5-0.2,2-0.7s0.8-1,0.8-1.7c0-0.7-0.2-1.2-0.6-1.6
				c-0.4-0.4-0.9-0.7-1.4-0.9c-0.6-0.2-1.1-0.5-1.7-0.7s-1.1-0.5-1.5-0.9c-0.4-0.4-0.6-0.9-0.6-1.4c0-0.5,0.1-1,0.4-1.3
				c0.2-0.3,0.6-0.6,1-0.7c0.7-0.2,1.4-0.3,2.1-0.3c1.2,0,2.1,0.2,2.8,0.7L245.9,143.7z"/>
			<path class="st4" d="M59.9,167c-0.6-2.4-0.9-3.7-0.9-3.8s0.1-0.3,0.2-0.5c0.2-0.2,0.4-0.2,0.6-0.2c0.2,0,0.4,0.1,0.6,0.2
				c0.2,0.2,0.2,0.4,0.2,0.6c0,0.2-0.1,0.4-0.3,0.6c-0.2,0.2-0.4,0.2-0.6,0.2h-0.1l0.4,2.9H59.9z M62.1,167
				c-0.6-2.4-0.9-3.7-0.9-3.8s0.1-0.3,0.2-0.5c0.2-0.2,0.4-0.2,0.6-0.2c0.2,0,0.4,0.1,0.6,0.2c0.2,0.2,0.2,0.4,0.2,0.6
				c0,0.2-0.1,0.4-0.3,0.6c-0.2,0.2-0.4,0.2-0.6,0.2H62l0.4,2.9H62.1z"/>
			<path class="st4" d="M73.2,177.9c-2.6,0-4.5-0.7-5.7-2.2c-0.4-0.5-0.8-1.2-1.1-2.1c-0.3-0.9-0.4-1.9-0.4-3.1s0.2-2.3,0.6-3.3
				c0.4-1,1-1.7,1.7-2.3c1.4-1,3-1.5,4.9-1.5c0.5,0,1.1,0,1.6,0.1c0.5,0.1,0.9,0.2,1.2,0.3l0.4,0.1l-0.1,0.2c-0.9-0.4-2-0.6-3.1-0.6
				c-1.5,0-2.7,0.5-3.6,1.4c-0.7,0.7-1.3,1.7-1.6,3.1c-0.2,0.8-0.3,1.7-0.3,2.8s0.2,2.1,0.5,3.1s0.7,1.6,1.1,2.1
				c0.4,0.5,0.9,0.8,1.5,1.1s1,0.4,1.4,0.5c0.3,0,0.8,0.1,1.2,0.1s1,0,1.7-0.1s1.1-0.2,1.4-0.3l0.5-0.1l0.1,0.2
				C75.9,177.7,74.7,177.9,73.2,177.9z"/>
			<path class="st4" d="M87.4,177.8h-7.8v-14.4h1.7v14.2h6.1V177.8z"/>
			<path class="st4" d="M99.2,163.5h0.3v8.2c0,2.1-0.4,3.7-1.3,4.7c-0.8,1-2,1.5-3.3,1.5c-0.9,0-1.6-0.1-2.2-0.2s-1.2-0.4-1.7-0.9
				c-1.1-0.8-1.6-2.6-1.6-5.1v-8.2h1.7v8.2c0,2.5,0.4,4.2,1.1,5c0.4,0.4,0.8,0.7,1.2,0.8c0.4,0.2,0.9,0.2,1.5,0.2
				c1.3,0,2.4-0.5,3.2-1.4c0.8-1,1.2-2.5,1.2-4.6V163.5z"/>
			<path class="st4" d="M102.6,163.6c1.6-0.1,3-0.2,4.2-0.2c3.4,0,5.1,1.1,5.1,3.4c0,0.8-0.2,1.6-0.7,2.2c-0.5,0.6-1.3,1-2.4,1.2
				c1,0.1,1.9,0.4,2.5,0.9c0.6,0.5,0.9,1.4,0.9,2.6c0,2.6-1.7,4-5.1,4h-4.5V163.6z M106.8,163.7c-0.8,0-1.6,0-2.5,0.1v6.4h3
				c1.9-0.1,2.9-1.2,2.9-3.3c0-1-0.3-1.8-0.9-2.4C108.8,163.9,107.9,163.7,106.8,163.7z M104.3,177.6h2.8c1.2,0,2.1-0.3,2.6-1
				c0.5-0.6,0.8-1.6,0.8-2.9s-0.3-2.2-0.8-2.6c-0.5-0.4-1.3-0.7-2.3-0.7h-3V177.6z"/>
			<path class="st4" d="M123.1,163.5c0.6,0,1.2,0,1.8,0s1.2,0.1,1.8,0.2c0.6,0.1,1.3,0.4,1.9,0.7c0.6,0.3,1.2,0.8,1.6,1.3
				c0.4,0.5,0.8,1.2,1.1,2.1c0.3,0.9,0.4,1.9,0.4,3.1s-0.2,2.3-0.6,3.3s-1,1.7-1.7,2.2c-1.4,1-3,1.5-4.9,1.5c-0.7,0-1.4,0-2.1-0.1
				h-1v-14.3H123.1z M123.2,177.7c0.3,0,0.6,0,1.1,0s0.8,0,1,0c0.2,0,0.5-0.1,0.9-0.2c0.4-0.1,0.7-0.2,1.1-0.4
				c0.3-0.2,0.7-0.4,1-0.8c0.4-0.3,0.7-0.8,0.9-1.2c0.6-1.1,0.9-2.6,0.9-4.4c0-1.3-0.2-2.4-0.5-3.3c-0.3-0.9-0.7-1.6-1.1-2.1
				c-0.4-0.5-0.9-0.8-1.5-1.1c-0.6-0.3-1-0.4-1.4-0.5c-0.3,0-0.7-0.1-1.2-0.1c-0.5,0-0.9,0-1.3,0.1V177.7z"/>
			<path class="st4" d="M142.7,163.5v0.2h-6.5v6.2h6v0.2h-6v7.6h6.9v0.2h-8.6v-14.4H142.7z"/>
			<path class="st4" d="M160.3,177.8h-7.8v-14.4h1.7v14.2h6.1V177.8z"/>
			<path class="st4" d="M171,163.5v0.2h-6.5v6.2h6v0.2h-6v7.6h6.9v0.2h-8.6v-14.4H171z"/>
			<path class="st4" d="M173.7,171c0-2.5,0.6-4.4,1.8-5.7c1.2-1.3,2.8-1.9,4.7-1.9c1.9,0,3.4,0.6,4.5,1.7s1.7,2.9,1.7,5.4
				s-0.6,4.3-1.8,5.6c-1.2,1.3-2.8,1.9-4.8,1.9c-1.7,0-3.2-0.5-4.3-1.5c-0.6-0.5-1-1.2-1.3-2.2C173.9,173.3,173.7,172.2,173.7,171z
				 M180.1,163.6c-1.4,0-2.5,0.6-3.4,1.8c-0.9,1.2-1.3,3-1.3,5.4c0,2.4,0.4,4.1,1.3,5.2c0.8,1.1,1.9,1.6,3.3,1.6
				c1.4,0,2.5-0.6,3.4-1.9c0.9-1.2,1.3-3,1.3-5.4c0-2.4-0.4-4.1-1.3-5.2C182.6,164.1,181.5,163.6,180.1,163.6z"/>
			<path class="st4" d="M189.4,177.8h-0.3v-14.4h0.7l8.5,13.3v-13.3h0.3v14.4h-1.5l-7.7-11.9V177.8z"/>
			<path class="st4" d="M210.1,163.5v0.2h-6.5v6.2h6v0.2h-6v7.6h6.9v0.2h-8.6v-14.4H210.1z"/>
			<path class="st4" d="M220.8,164.3c-1.2-0.5-2.4-0.7-3.5-0.7c-1.1,0-2,0.2-2.6,0.7c-0.6,0.5-0.9,1.1-0.9,1.9c0,1,0.5,1.8,1.6,2.3
				c0.5,0.2,1,0.4,1.5,0.6c0.6,0.2,1.1,0.4,1.7,0.7c0.6,0.2,1.1,0.5,1.5,0.8c0.5,0.3,0.8,0.7,1.1,1.3c0.3,0.6,0.4,1.3,0.4,2.1
				s-0.2,1.6-0.7,2.2c-0.5,0.6-1.1,1-1.7,1.2c-0.7,0.2-1.5,0.3-2.4,0.3c-1.7,0-3.1-0.4-4.3-1.3l0.1-0.2c0.5,0.4,1,0.6,1.8,0.9
				s1.5,0.3,2.2,0.3c1.1,0,2.1-0.3,2.8-0.8c0.8-0.5,1.2-1.3,1.2-2.3c0-1.1-0.5-2-1.6-2.6c-0.5-0.3-1-0.5-1.5-0.8s-1.1-0.5-1.7-0.7
				c-0.6-0.3-1.1-0.5-1.5-0.9c-1-0.7-1.6-1.7-1.6-2.9c0-1,0.3-1.8,1-2.4c0.7-0.6,1.7-0.9,3-0.9c1.3,0,2.7,0.2,4.1,0.7L220.8,164.3z"
				/>
			<path class="st4" d="M225.4,162.4c0.2,0,0.4,0.1,0.6,0.2c0.2,0.2,0.2,0.3,0.2,0.5s-0.3,1.5-0.9,3.8H225l0.4-2.9h-0.1
				c-0.2,0-0.4-0.1-0.6-0.2c-0.2-0.2-0.3-0.4-0.3-0.6c0-0.2,0.1-0.4,0.2-0.6C224.9,162.5,225.1,162.4,225.4,162.4z M227.6,162.4
				c0.2,0,0.4,0.1,0.6,0.2c0.2,0.2,0.2,0.3,0.2,0.5s-0.3,1.5-0.9,3.8h-0.3l0.4-2.9h-0.1c-0.2,0-0.4-0.1-0.6-0.2
				c-0.2-0.2-0.3-0.4-0.3-0.6c0-0.2,0.1-0.4,0.2-0.6C227.2,162.5,227.4,162.4,227.6,162.4z"/>
			<path class="st4" d="M60.6,202.5h-0.2l6.1-14.4l0.2-0.1l5.2,14.5h-1.7l-1.6-4.5h-6L60.6,202.5z M65.9,190.3l-3.2,7.4h5.9
				L65.9,190.3z"/>
			<path class="st4" d="M79.6,192.3l0.1-0.1c0.1,0,0.1,0.1,0.2,0.2c0.1,0.1,0.1,0.3,0.2,0.4s0,0.2,0,0.3c0,0.4-0.1,0.7-0.2,1.1
				l-3.9,8.2h-0.2l-3.8-10.3h1.4l3.1,8.5l3.2-6.4c0.2-0.3,0.2-0.6,0.2-1C79.9,192.8,79.8,192.5,79.6,192.3z"/>
			<path class="st4" d="M82.6,202.5c-0.2,0-0.3-0.1-0.5-0.2c-0.1-0.1-0.2-0.3-0.2-0.5s0.1-0.3,0.2-0.5c0.1-0.1,0.3-0.2,0.5-0.2
				c0.2,0,0.3,0.1,0.5,0.2c0.1,0.1,0.2,0.3,0.2,0.5c0,0.2-0.1,0.3-0.2,0.5S82.8,202.5,82.6,202.5z"/>
			<path class="st4" d="M91.7,202.5h-0.2l6.1-14.4l0.2-0.1l5.2,14.5h-1.7l-1.6-4.5h-6L91.7,202.5z M96.9,190.3l-3.2,7.4h5.9
				L96.9,190.3z"/>
			<path class="st4" d="M108.6,193.1v-0.4c-0.6,0.2-1.2,0.7-1.7,1.5c-0.5,0.7-0.8,1.4-0.8,2.1v6.2h-1.4v-10.3h1.4v3.3
				c0.2-0.8,0.6-1.5,1.3-2.2s1.3-1.1,2.1-1.1h0.1c0.3,0,0.5,0.1,0.7,0.3c0.2,0.2,0.3,0.4,0.3,0.7s-0.1,0.5-0.3,0.7
				c-0.2,0.2-0.4,0.3-0.7,0.3c-0.3,0-0.5-0.1-0.7-0.3C108.7,193.6,108.6,193.4,108.6,193.1z"/>
			<path class="st4" d="M113.4,197.5c0,1.7,0.3,2.9,0.9,3.7s1.4,1.2,2.4,1.2c1.4,0,2.6-0.2,3.7-0.6l0.1,0.1
				c-1.1,0.4-2.3,0.6-3.7,0.6c-1.4,0-2.5-0.4-3.4-1.2s-1.3-2.1-1.3-3.8c0-1.7,0.5-3,1.4-4c0.9-0.9,2.1-1.4,3.4-1.4
				c1.1,0,2.1,0.3,2.8,1c0.8,0.7,1.1,1.7,1.1,3c0,0.1,0,0.1,0,0.2h-7.3C113.4,196.7,113.4,197.1,113.4,197.5z M118.6,193.2
				c-0.5-0.6-1.1-0.9-1.9-0.9c-0.8,0-1.5,0.3-2.1,1c-0.6,0.7-1,1.6-1.2,2.8h5.9C119.3,194.8,119.1,193.9,118.6,193.2z"/>
			<path class="st4" d="M122.7,197.7c0-1.8,0.4-3.2,1.3-4.1c0.9-1,2.2-1.5,3.9-1.5c0.8,0,1.6,0.2,2.4,0.6v-0.5h1.4v15.4h-1.4v-6.9
				c-0.3,0.5-0.7,0.9-1.3,1.3c-0.6,0.4-1.3,0.6-2.1,0.6C124.1,202.4,122.7,200.8,122.7,197.7z M126.9,202.3c0.9,0,1.7-0.2,2.4-0.7
				c0.7-0.5,1-1,1-1.5v-7.2c-1-0.4-1.8-0.6-2.5-0.6c-1.2,0-2.1,0.5-2.8,1.4s-0.9,2.3-0.9,4C124.2,200.8,125.1,202.3,126.9,202.3z"/>
			<path class="st4" d="M135.8,200.1c0,1.1,0.3,1.8,0.9,2.1c0.3,0.1,0.6,0.2,1,0.2c0.9,0,1.6-0.3,2.3-1c0.7-0.7,1-1.3,1.1-1.8v-7.4
				h1.4v8.8c0,0.4,0.1,0.7,0.2,0.9c0.2,0.2,0.3,0.3,0.5,0.3l0.2,0h0.6v0.2h-1.3c-0.6,0-1-0.1-1.3-0.4c-0.3-0.2-0.4-0.5-0.5-0.7
				l0-0.3v-0.9c-0.2,0.6-0.7,1.1-1.3,1.7c-0.6,0.5-1.3,0.8-2.1,0.8c-0.7,0-1.4-0.1-1.8-0.2c-0.5-0.1-0.8-0.3-1-0.6
				c-0.4-0.4-0.5-1-0.5-1.6v-7.9h1.4V200.1z"/>
			<path class="st4" d="M146.1,189.9c-0.2-0.2-0.2-0.4-0.2-0.6c0-0.2,0.1-0.5,0.2-0.6c0.2-0.2,0.4-0.3,0.6-0.3
				c0.2,0,0.5,0.1,0.6,0.3c0.2,0.2,0.3,0.4,0.3,0.6c0,0.2-0.1,0.5-0.3,0.6c-0.2,0.2-0.4,0.2-0.6,0.2
				C146.5,190.1,146.3,190.1,146.1,189.9z M147.7,202.5c-0.6,0-1-0.1-1.3-0.4c-0.3-0.2-0.4-0.5-0.5-0.7l0-0.3v-8.8h1.4v8.8
				c0,0.4,0.1,0.7,0.2,0.9s0.3,0.3,0.5,0.3l0.2,0h0.6v0.2H147.7z"/>
			<path class="st4" d="M150.9,192.2h1.4v2.5c0.2-0.6,0.7-1.2,1.3-1.8s1.3-0.8,2.1-0.8c2.8,0,4.2,1.6,4.2,4.9c0,3.7-1.8,5.5-5.4,5.5
				c-0.6,0-1.4-0.2-2.2-0.5v5.5h-1.4V192.2z M155.8,192.3c-0.8,0-1.6,0.4-2.3,1.1c-0.7,0.7-1.1,1.4-1.1,2v6.5
				c0.8,0.3,1.6,0.5,2.2,0.5c2.6,0,4-1.8,4-5.4C158.5,193.8,157.6,192.3,155.8,192.3z"/>
			<path class="st4" d="M170.6,202.5c-0.9,0-1.6-0.2-1.9-0.5c-0.3-0.3-0.5-0.6-0.5-0.8v-0.4c-0.7,1.2-1.7,1.8-3.2,1.8
				c-1.7,0-2.7-0.8-2.9-2.3c0-0.2,0-0.3,0-0.5s0-0.4,0.1-0.6c0.1-0.2,0.2-0.4,0.5-0.7c0.5-0.5,1.7-0.8,3.4-0.9
				c0.4,0,0.8-0.1,1.2-0.1c0.4,0,0.7,0,1,0v-3.4c0,0,0-0.1,0-0.2c0-0.1,0-0.3-0.1-0.5s-0.2-0.4-0.3-0.5c-0.1-0.2-0.3-0.3-0.7-0.5
				s-0.7-0.2-1.2-0.2c-0.5,0-1.1,0.1-1.8,0.3c-0.7,0.2-1.2,0.4-1.5,0.5l-0.1-0.1c1.2-0.6,2.5-0.8,3.7-0.8c1.4,0,2.3,0.3,2.8,0.8
				c0.4,0.4,0.5,0.8,0.5,1.3v6.9c0,0.4,0.1,0.7,0.2,0.9c0.2,0.2,0.3,0.3,0.5,0.3l0.2,0h0.6v0.2H170.6z M165.3,202.4
				c0.7,0,1.4-0.2,2-0.7c0.6-0.5,0.9-1,0.9-1.4v-2.5c-0.4,0-0.7,0-1.1,0s-0.7,0-1.1,0.1c-1,0.1-1.7,0.4-2,0.7
				c-0.3,0.3-0.5,0.8-0.5,1.4c0,0.1,0,0.2,0,0.4C163.6,201.7,164.2,202.4,165.3,202.4z"/>
			<path class="st4" d="M187.7,196.7h1.6c0.6,0,0.8-0.2,0.8-0.2c0.1,0,0.1,0.1,0.1,0.2s-0.1,0.6-0.2,0.8c-0.1,0.2-0.2,0.3-0.4,0.3
				h-1.9c0,0.7,0,2.3,0,3.2c0.1,0.6,0.2,1,0.9,1.1c0.3,0.1,0.7,0.1,0.9,0.1c0.1,0,0.2,0.1,0.2,0.2c0,0.1-0.1,0.1-0.3,0.1
				c-1.1,0-2.4-0.1-2.6-0.1c-0.1,0-1.3,0.1-2.4,0.1c-0.2,0-0.3,0-0.3-0.1c0-0.1,0.1-0.2,0.2-0.2c0.2,0,0.6,0,1-0.1
				c0.7-0.1,0.8-0.5,0.9-1.1c0.1-0.9,0-2.5,0-3.2h-6.3c-0.2,0-0.4-0.1-0.4-0.2c0-0.2,0.1-0.3,0.2-0.4c0.1-0.1,6.8-9.2,7.4-10.1
				c0.2-0.2,0.3-0.4,0.4-0.4c0.1,0,0.2,0.1,0.2,0.3c0,0.3,0,2,0,3.1V196.7z M186.1,189.5L186.1,189.5c-0.3,0.5-4.9,6.8-5.3,7.3h5.3
				V189.5z"/>
			<path class="st4" d="M202.2,187.1c0.3,0,0.4,0.1,0.4,0.2c0,0.1,0,0.2-0.1,0.4c-1.7,2.5-5,10.5-5.4,13.2c0,0.3,0,0.5,0,0.7
				c0,0.4-1.6,1.3-2,1.3c-0.1,0-0.2-0.1-0.2-0.2c0-0.2,0.1-0.5,0.1-0.7c0.8-2.7,3-8.2,6.1-13.5h-5c-0.6,0-1.4,0.1-1.9,0.5
				c-0.4,0.3-0.7,1-0.8,1.6c0,0.2-0.1,0.3-0.2,0.3s-0.1-0.1-0.1-0.3c0-0.7,0.3-3.1,0.3-3.3c0-0.2,0.1-0.3,0.2-0.3
				c0.1,0,0.6,0.2,1.9,0.2H202.2z"/>
			<path class="st4" d="M209.6,186.7c3.8,0,4.8,4.9,4.8,7.6c0,4.7-1.8,8.5-5.2,8.5c-3.2,0-4.8-3.9-4.8-7.6
				C204.5,190.4,206.3,186.7,209.6,186.7z M209.7,202c1.8,0,3.1-2.8,3.1-6.9c0-3.9-1.3-7.7-3.6-7.7c-1.9,0-3.1,2.8-3.1,6.9
				C206.1,198,207.2,202,209.7,202z"/>
			<path class="st4" d="M222.8,196.3c0,2.1,0,3.8,0.1,4.7c0.1,0.6,0.2,0.9,0.8,1.1c0.3,0.1,1.2,0.1,1.4,0.1c0.1,0,0.2,0.1,0.2,0.2
				c0,0.1-0.1,0.1-0.3,0.1c-1.5,0-2.9-0.1-3-0.1c-0.1,0-1.8,0.1-3.1,0.1c-0.2,0-0.3,0-0.3-0.1c0-0.1,0.1-0.2,0.2-0.2
				c0.2,0,1.3-0.1,1.6-0.1c0.7-0.1,0.8-0.4,0.9-1.1c0.1-0.9,0.1-2.7,0.1-4.7v-3.6c0-1.1,0-2,0-3.1c0-0.4,0-0.6-0.4-0.6
				c-0.4,0-1.8,0.7-2.3,1c-0.1,0.1-0.2,0.1-0.2,0.1c-0.1,0-0.1-0.1-0.1-0.2c0-0.1,0.1-0.1,0.1-0.2l4-2.6c0.2-0.1,0.3-0.2,0.5-0.2
				c0.2,0,0.2,0.2,0.2,0.4c0,0.2-0.1,2.2-0.1,5.3L222.8,196.3z"/>
			<path class="st4" d="M101.3,227.1H101l1.8-14.4h0.7l4.3,13.3l4.3-13.3h0.7l1.8,14.4h-1.7l-1.4-11.5l-3.7,11.5h-1.3l-3.8-11.4
				L101.3,227.1z"/>
			<path class="st4" d="M117.7,214.5c-0.2-0.2-0.2-0.4-0.2-0.6c0-0.2,0.1-0.5,0.2-0.6c0.2-0.2,0.4-0.3,0.6-0.3
				c0.2,0,0.5,0.1,0.6,0.3c0.2,0.2,0.3,0.4,0.3,0.6c0,0.2-0.1,0.5-0.3,0.6c-0.2,0.2-0.4,0.2-0.6,0.2
				C118.1,214.8,117.9,214.7,117.7,214.5z M119.4,227.1c-0.6,0-1-0.1-1.3-0.4c-0.3-0.2-0.4-0.5-0.5-0.7l0-0.3v-8.8h1.4v8.8
				c0,0.4,0.1,0.7,0.2,0.9s0.3,0.3,0.5,0.3l0.2,0h0.6v0.2H119.4z"/>
			<path class="st4" d="M126.3,217.7v-0.4c-0.6,0.2-1.2,0.7-1.7,1.5c-0.5,0.7-0.8,1.4-0.8,2.1v6.2h-1.4v-10.3h1.4v3.3
				c0.2-0.8,0.6-1.5,1.3-2.2s1.3-1.1,2.1-1.1h0.1c0.3,0,0.5,0.1,0.7,0.3c0.2,0.2,0.3,0.4,0.3,0.7s-0.1,0.5-0.3,0.7
				c-0.2,0.2-0.4,0.3-0.7,0.3c-0.3,0-0.5-0.1-0.7-0.3C126.4,218.2,126.3,218,126.3,217.7z"/>
			<path class="st4" d="M138.1,227.1c-0.9,0-1.6-0.2-1.9-0.5c-0.3-0.3-0.5-0.6-0.5-0.8v-0.4c-0.7,1.2-1.7,1.8-3.2,1.8
				c-1.7,0-2.7-0.8-2.9-2.3c0-0.2,0-0.3,0-0.5s0-0.4,0.1-0.6c0.1-0.2,0.2-0.4,0.5-0.7c0.5-0.5,1.7-0.8,3.4-0.9
				c0.4,0,0.8-0.1,1.2-0.1c0.4,0,0.7,0,1,0v-3.4c0,0,0-0.1,0-0.2c0-0.1,0-0.3-0.1-0.5s-0.2-0.4-0.3-0.5c-0.1-0.2-0.3-0.3-0.7-0.5
				s-0.7-0.2-1.2-0.2c-0.5,0-1.1,0.1-1.8,0.3c-0.7,0.2-1.2,0.4-1.5,0.5l-0.1-0.1c1.2-0.6,2.5-0.8,3.7-0.8c1.4,0,2.3,0.3,2.8,0.8
				c0.4,0.4,0.5,0.8,0.5,1.3v6.9c0,0.4,0.1,0.7,0.2,0.9c0.2,0.2,0.3,0.3,0.5,0.3l0.2,0h0.6v0.2H138.1z M132.9,227
				c0.7,0,1.4-0.2,2-0.7c0.6-0.5,0.9-1,0.9-1.4v-2.5c-0.4,0-0.7,0-1.1,0s-0.7,0-1.1,0.1c-1,0.1-1.7,0.4-2,0.7
				c-0.3,0.3-0.5,0.8-0.5,1.4c0,0.1,0,0.2,0,0.4C131.1,226.3,131.8,227,132.9,227z"/>
			<path class="st4" d="M142.2,215.9v1h1.6v0.2h-1.6v10.1h-1.4V217h-0.4v-0.2h0.4v-1c0-1.5,0.3-2.6,1-3.2c0.6-0.6,1.7-1,3.1-1v0.2
				c-0.9,0-1.6,0.3-2,1S142.2,214.5,142.2,215.9z"/>
			<path class="st4" d="M148.6,227.1c-1.2,0-2-0.3-2.3-0.9c-0.1-0.1-0.1-0.3-0.1-0.4v-14.1h1.4v13.9c0,0.4,0.1,0.7,0.2,0.9
				s0.3,0.3,0.5,0.3l0.2,0h0.6v0.2H148.6z"/>
			<path class="st4" d="M155.1,227.2c-1.4,0-2.6-0.4-3.5-1.2s-1.4-2.1-1.4-3.8c0-1.7,0.5-3,1.4-4c0.9-0.9,2.1-1.4,3.6-1.4
				s2.6,0.4,3.5,1.2s1.4,2.1,1.4,3.8s-0.5,3-1.4,4C157.7,226.7,156.5,227.2,155.1,227.2z M155.2,216.9c-1,0-1.9,0.5-2.6,1.4
				c-0.7,0.9-1,2.2-1,3.9s0.3,2.9,0.9,3.7s1.5,1.2,2.5,1.2c1,0,1.9-0.5,2.6-1.4c0.7-0.9,1-2.2,1-3.9c0-1.6-0.3-2.9-0.9-3.7
				C157.1,217.3,156.3,216.9,155.2,216.9z"/>
			<path class="st4" d="M165.7,217.7v-0.4c-0.6,0.2-1.2,0.7-1.7,1.5c-0.5,0.7-0.8,1.4-0.8,2.1v6.2h-1.4v-10.3h1.4v3.3
				c0.2-0.8,0.6-1.5,1.3-2.2s1.3-1.1,2.1-1.1h0.1c0.3,0,0.5,0.1,0.7,0.3c0.2,0.2,0.3,0.4,0.3,0.7s-0.1,0.5-0.3,0.7
				c-0.2,0.2-0.4,0.3-0.7,0.3c-0.3,0-0.5-0.1-0.7-0.3C165.8,218.2,165.7,218,165.7,217.7z"/>
			<path class="st4" d="M170.5,222.1c0,1.7,0.3,2.9,0.9,3.7s1.4,1.2,2.4,1.2c1.4,0,2.6-0.2,3.7-0.6l0.1,0.1
				c-1.1,0.4-2.3,0.6-3.7,0.6c-1.4,0-2.5-0.4-3.4-1.2s-1.3-2.1-1.3-3.8c0-1.7,0.5-3,1.4-4c0.9-0.9,2.1-1.4,3.4-1.4
				c1.1,0,2.1,0.3,2.8,1c0.8,0.7,1.1,1.7,1.1,3c0,0.1,0,0.1,0,0.2h-7.3C170.5,221.3,170.5,221.7,170.5,222.1z M175.7,217.9
				c-0.5-0.6-1.1-0.9-1.9-0.9c-0.8,0-1.5,0.3-2.1,1c-0.6,0.7-1,1.6-1.2,2.8h5.9C176.5,219.5,176.2,218.5,175.7,217.9z"/>
			<path class="st4" d="M185.8,217.5c-0.2-0.2-0.6-0.3-1.1-0.5c-0.5-0.1-0.9-0.2-1.1-0.2c-0.2,0-0.4,0-0.4,0c-0.7,0-1.3,0.2-1.6,0.6
				c-0.3,0.4-0.5,0.8-0.5,1.2s0.1,0.8,0.4,1.1c0.3,0.3,0.6,0.5,1.1,0.7c0.4,0.2,0.9,0.4,1.4,0.6c0.5,0.2,1,0.4,1.4,0.7
				c0.4,0.2,0.8,0.6,1.1,1c0.3,0.4,0.4,1,0.4,1.6c0,0.6-0.2,1.2-0.7,1.6s-1,0.8-1.5,0.9s-1.2,0.2-1.8,0.2c-1.4,0-2.4-0.3-3.1-0.9
				l0.1-0.1c0.3,0.3,0.7,0.5,1.2,0.6s1.1,0.2,1.6,0.2c0.8,0,1.5-0.2,2-0.7s0.8-1,0.8-1.7c0-0.7-0.2-1.2-0.6-1.6
				c-0.4-0.4-0.9-0.7-1.4-0.9c-0.6-0.2-1.1-0.5-1.7-0.7s-1.1-0.5-1.5-0.9c-0.4-0.4-0.6-0.9-0.6-1.4c0-0.5,0.1-1,0.4-1.3
				c0.2-0.3,0.6-0.6,1-0.7c0.7-0.2,1.4-0.3,2.1-0.3c1.2,0,2.1,0.2,2.8,0.7L185.8,217.5z"/>
		</g>
	</g>
	<g>
		<g>
			
				<pattern  id="SVGID_00000108296004861941767890000016918595206315817905_" xlink:href="#Nueva_muestra_de_motivo_1" patternTransform="matrix(1 0 0 1 1.0079 44.9755)">
			</pattern>
			<path style="fill:url(#SVGID_00000108296004861941767890000016918595206315817905_);" d="M107.6,315.4c0.4-0.5,0.9-0.7,1.5-0.7
				c0.9,0,1.8,0,2.7,0c0-7.1,0-14.1,0-21.2c-0.4,0.1-0.7,0.3-1.1,0.4c-0.8,0.3-1.4,0.1-1.7-0.6c-0.2-0.6,0.1-1.1,0.9-1.4
				c4.2-1.5,8.4-3.1,12.7-4.6c0.8-0.3,1.6-0.6,2.5-0.9c0.8-0.3,1.4-0.1,1.7,0.6c0.2,0.6-0.1,1.1-0.9,1.4c-3.7,1.4-7.5,2.7-11.2,4.1
				c-0.5,0.2-0.6,0.4-0.6,0.9c0,6.9,0,13.8,0,20.7c0,0.2,0,0.4,0,0.7c5,0,9.9,0,14.9,0c0-10.5,0-21.1,0-31.8
				c-0.3,0.3-0.6,0.6-0.9,0.8c-0.4,0.2-0.9,0.3-1.2,0.2c-0.3-0.1-0.6-0.6-0.6-1c-0.1-1.8-0.1-3.7,0-5.5c0-0.4,0.3-0.9,0.6-1.1
				c4.8-4.4,9.6-8.8,14.5-13.2c0.4-0.4,0.6-0.7,0.6-1.3c-0.1-1.1,0-2.2,0-3.4c-0.6,0-1.1,0-1.6,0c-0.8,0-1.2-0.5-1.2-1.1
				c0-0.6,0.5-1,1.2-1c0.5,0,1,0,1.4,0c0,0,0,0,0.2-0.1c0-0.5,0-1,0-1.6c0-0.8,0.4-1.3,1.1-1.3c0.6,0,1.1,0.5,1.1,1.3
				c0,0.5,0,1,0,1.4c0,0,0,0.1,0.1,0.2c0.5,0,1,0,1.5,0c0.7,0,1.2,0.4,1.2,1c0,0.6-0.4,1.1-1.2,1.1c-0.5,0-1,0-1.7,0
				c0,1.4,0,2.7,0,4c0,0.2,0.3,0.5,0.5,0.6c4.8,4.4,9.6,8.8,14.4,13.1c0.5,0.5,0.8,1,0.8,1.7c0,1.6,0,3.2,0,4.8
				c0,0.6-0.1,1.1-0.7,1.3c-0.6,0.2-1,0-1.4-0.4c-0.2-0.2-0.5-0.4-0.8-0.7c0,10.7,0,21.2,0,31.8c4.9,0,9.9,0,14.9,0
				c0-0.2,0-0.4,0-0.7c0-6.9,0-13.7,0-20.6c0-0.6-0.2-0.8-0.7-1c-3.6-1.3-7.3-2.6-10.9-4c-0.2-0.1-0.3-0.1-0.4-0.2
				c-0.6-0.3-0.9-0.8-0.7-1.4c0.2-0.6,0.8-0.8,1.4-0.6c1.1,0.4,2.3,0.8,3.4,1.2c3.9,1.4,7.8,2.8,11.8,4.3c0.2,0.1,0.3,0.1,0.5,0.2
				c0.6,0.3,0.8,0.8,0.6,1.4c-0.2,0.5-0.7,0.8-1.3,0.6c-0.2-0.1-0.5-0.2-0.7-0.3c-0.2-0.1-0.4-0.1-0.7-0.2c0,7.1,0,14.1,0,21.2
				c0.9,0,1.7,0,2.6,0c0.3,0,0.6,0,0.8,0c0.5,0.1,0.8,0.5,0.8,1c0,0.5-0.3,0.9-0.8,1c-0.3,0.1-0.6,0.1-0.9,0.1
				c-22.4,0-44.8,0-67.2,0c-0.7,0-1.3-0.1-1.7-0.7C107.6,316,107.6,315.7,107.6,315.4z M136.1,314.7c0-0.3,0-0.6,0-0.8
				c0-3.2,0-6.5,0-9.7c0.1-3.5,3-6.4,6.5-6.5c3.8-0.1,7,2.8,7,6.7c0,3.2,0,6.4,0,9.6c0,0.2,0,0.5,0,0.7c1.7,0,3.3,0,5,0
				c0-0.3,0-0.5,0-0.7c0-10.8,0-21.7,0-32.5c0-0.5-0.2-0.8-0.5-1.1c-3.6-3.3-7.2-6.5-10.8-9.8c-0.1-0.1-0.3-0.2-0.5-0.4
				c-0.1,0.1-0.2,0.2-0.3,0.2c-3.7,3.3-7.4,6.7-11,10.1c-0.2,0.2-0.4,0.7-0.4,1c0,10.8,0,21.6,0,32.4c0,0.2,0,0.5,0,0.7
				C132.8,314.7,134.4,314.7,136.1,314.7z M142.9,264.6c-0.1,0-0.1,0-0.2,0.1c-4.7,4.3-9.5,8.6-14.2,12.9c-0.1,0.1-0.3,0.3-0.3,0.4
				c0,0.8,0,1.6,0,2.6c0.3-0.2,0.5-0.4,0.6-0.5c4.3-3.9,8.6-7.8,12.9-11.7c0.9-0.8,1.3-0.8,2.2,0c4.3,3.9,8.6,7.8,12.9,11.8
				c0.2,0.1,0.3,0.3,0.6,0.5c0-0.8,0-1.4,0-2c0-0.5-0.1-0.8-0.5-1.2c-3.3-3-6.6-6-9.9-9C145.7,267.1,144.3,265.8,142.9,264.6z
				 M141.8,314.7c0-4.9,0-9.8,0-14.7c-0.2,0-0.3,0.1-0.5,0.1c-1.8,0.6-3,2.4-3,4.5c0,3.2,0,6.4,0,9.6c0,0.2,0,0.3,0.1,0.5
				C139.5,314.7,140.6,314.7,141.8,314.7z M144,300c0,4.9,0,9.8,0,14.7c1.2,0,2.3,0,3.5,0c0-0.1,0-0.3,0-0.4c0-3.3,0-6.6,0-9.8
				c0-0.3,0-0.6-0.1-1C147.1,301.8,145.6,300.2,144,300z"/>
			
				<pattern  id="SVGID_00000045583835012193947240000016508336668554608055_" xlink:href="#Nueva_muestra_de_motivo_1" patternTransform="matrix(1 0 0 1 1.0079 44.9755)">
			</pattern>
			<path style="fill:url(#SVGID_00000045583835012193947240000016508336668554608055_);" d="M125.4,302.8c0,1.4,0,2.8,0,4.2
				c0,0.9-0.4,1.3-1.3,1.3c-1.7,0-3.5,0-5.2,0c-0.9,0-1.3-0.4-1.3-1.3c0-2.8,0-5.5,0-8.3c0-2.2,1.5-3.8,3.6-4c1.8-0.2,3.6,1.1,4.1,3
				c0.1,0.4,0.1,0.8,0.1,1.2C125.4,300.2,125.4,301.5,125.4,302.8z M123.3,306.2c0-2.4,0-4.8,0-7.2c0-1.2-0.7-2-1.8-2
				c-1.1,0-1.8,0.8-1.8,2c0,2.2,0,4.5,0,6.7c0,0.2,0,0.3,0,0.5C121,306.2,122.1,306.2,123.3,306.2z"/>
			
				<pattern  id="SVGID_00000034055045220054640360000008346423940153324974_" xlink:href="#Nueva_muestra_de_motivo_1" patternTransform="matrix(1 0 0 1 1.0079 44.9755)">
			</pattern>
			<path style="fill:url(#SVGID_00000034055045220054640360000008346423940153324974_);" d="M160.4,302.8c0-1.3,0-2.7,0-4
				c0-2.2,1.6-3.9,3.8-4c2.1-0.1,3.9,1.5,4,3.7c0.1,2.9,0,5.8,0,8.7c0,0.7-0.4,1.1-1.1,1.1c-1.9,0-3.7,0-5.6,0
				c-0.8,0-1.1-0.4-1.1-1.2C160.3,305.7,160.4,304.2,160.4,302.8z M166,306.2c0-2.6,0-5.1,0-7.6c0-0.9-0.8-1.6-1.8-1.6
				c-1,0-1.8,0.7-1.8,1.7c0,2.5,0,4.9,0,7.4c0,0,0.1,0.1,0.1,0.1C163.7,306.2,164.8,306.2,166,306.2z"/>
			
				<pattern  id="SVGID_00000176749142525228063120000015040739456072836526_" xlink:href="#Nueva_muestra_de_motivo_1" patternTransform="matrix(1 0 0 1 1.0079 44.9755)">
			</pattern>
			<path style="fill:url(#SVGID_00000176749142525228063120000015040739456072836526_);" d="M149.6,285c0,0.7-0.4,1.8-1.2,2.6
				c-1.5,1.6-3.1,3.1-4.7,4.7c-0.6,0.6-1.1,0.6-1.7,0c-1.5-1.5-3.1-3-4.6-4.6c-1.6-1.6-1.8-3.9-0.5-5.7c1.2-1.8,3.5-2.4,5.6-1.5
				c0.3,0.1,0.7,0.1,0.9-0.1C146.4,279.2,149.6,281.3,149.6,285z M142.9,290c1.3-1.3,2.7-2.6,3.9-3.9c0.9-0.9,0.8-2.2,0-3.1
				c-0.8-0.9-2-1-3-0.3c-1,0.7-1,0.7-2.1,0c-0.9-0.7-2.2-0.6-2.9,0.3c-0.8,0.8-0.9,2.1-0.1,2.9C140.1,287.3,141.5,288.6,142.9,290z"
				/>
		</g>
	</g>
</g>
<g>
</g>
<g>
</g>
<g>
</g>
<g>
</g>
<g>
</g>
<g>
</g>
<g>
</g>
<g>
</g>
<g>
</g>
<g>
</g>
<g>
</g>
<g>
</g>
<g>
</g>
<g>
</g>
<g>
</g>
</svg>
