<?xml version="1.0" encoding="UTF-8"?>
<svg id="Capa_2" data-name="Capa 2" xmlns="http://www.w3.org/2000/svg" xmlns:xlink="http://www.w3.org/1999/xlink" viewBox="0 0 262.35 350.83">
  <defs>
    <style>
      .cls-1 {
        letter-spacing: -.02em;
      }

      .cls-2 {
        fill: url(#linear-gradient);
      }

      .cls-2, .cls-3 {
        stroke-width: 0px;
      }

      .cls-4 {
        letter-spacing: .03em;
      }

      .cls-5 {
        letter-spacing: 0em;
      }

      .cls-6 {
        letter-spacing: .04em;
      }

      .cls-7 {
        letter-spacing: -.01em;
      }

      .cls-8, .cls-9 {
        letter-spacing: .02em;
      }

      .cls-3 {
        fill: none;
      }

      .cls-10 {
        letter-spacing: -.02em;
      }

      .cls-11 {
        letter-spacing: .02em;
      }

      .cls-12 {
        letter-spacing: .02em;
      }

      .cls-13 {
        font-family: Italiana-Regular, Italiana;
      }

      .cls-13, .cls-9 {
        fill: #504322;
        font-size: 18.83px;
        stroke: #504322;
        stroke-miterlimit: 10;
        stroke-width: .24px;
      }

      .cls-9 {
        font-family: Rochester-Regular, Rochester;
      }

      .cls-14 {
        fill: url(#Nueva_muestra_de_motivo_3);
        font-family: GreatVibes-Regular, 'Great Vibes';
        font-size: 32.95px;
      }

      .cls-15 {
        letter-spacing: 0em;
      }

      .cls-16 {
        letter-spacing: 0em;
      }

      .cls-17 {
        letter-spacing: 0em;
      }
    </style>
    <linearGradient id="linear-gradient" x1="1703.29" y1="554.85" x2="1944.16" y2="554.85" gradientTransform="translate(698.22 1944.16) rotate(-90) scale(1 -1)" gradientUnits="userSpaceOnUse">
      <stop offset="0" stop-color="#dcc173"/>
      <stop offset=".24" stop-color="#ab8136"/>
      <stop offset=".52" stop-color="#73582b"/>
      <stop offset=".86" stop-color="#dcc173"/>
    </linearGradient>
    <pattern id="Nueva_muestra_de_motivo_3" data-name="Nueva muestra de motivo 3" x="0" y="0" width="286.73" height="240.87" patternTransform="translate(368.08 699.69)" patternUnits="userSpaceOnUse" viewBox="0 0 286.73 240.87">
      <g>
        <rect class="cls-3" width="286.73" height="240.87"/>
        <polygon class="cls-2" points="286.73 0 286.73 240.87 0 240.87 0 0 286.73 0"/>
      </g>
    </pattern>
  </defs>
  <g id="Capa_1-2" data-name="Capa 1">
    <g>
      <text class="cls-14" transform="translate(47.06 30.62)"><tspan x="0" y="0">Con la bendición</tspan><tspan x="-47.06" y="39.55">de Dios y nuestros padres</tspan></text>
      <text class="cls-13" transform="translate(2.57 113.5)"><tspan class="cls-17" x="0" y="0">F</tspan><tspan class="cls-16" x="9.57" y="0">r</tspan><tspan class="cls-17" x="16.23" y="0">a</tspan><tspan class="cls-12" x="26.1" y="0">n</tspan><tspan class="cls-8" x="36.29" y="0">c</tspan><tspan class="cls-11" x="45.82" y="0">i</tspan><tspan class="cls-8" x="50.67" y="0">s</tspan><tspan class="cls-17" x="59.09" y="0">c</tspan><tspan class="cls-8" x="68.24" y="0">o C</tspan><tspan class="cls-17" x="97.45" y="0">a</tspan><tspan class="cls-8" x="107.32" y="0">r</tspan><tspan class="cls-16" x="114.55" y="0">r</tspan><tspan class="cls-17" x="121.22" y="0">a</tspan><tspan class="cls-4" x="131.08" y="0">nza </tspan><tspan class="cls-12" x="167.09" y="0">A</tspan><tspan class="cls-8" x="179.08" y="0">l</tspan><tspan class="cls-15" x="183.94" y="0">tami</tspan><tspan class="cls-16" x="220.02" y="0">r</tspan><tspan class="cls-17" x="226.69" y="0">a</tspan><tspan class="cls-7" x="236.56" y="0">n</tspan><tspan class="cls-8" x="246.18" y="0">o</tspan><tspan class="cls-17" x="31.78" y="22.6">P</tspan><tspan class="cls-8" x="42.64" y="22.6">au</tspan><tspan class="cls-15" x="63.26" y="22.6">l</tspan><tspan class="cls-8" x="67.75" y="22.6">a </tspan><tspan class="cls-16" x="84.09" y="22.6">A</tspan><tspan class="cls-6" x="95.71" y="22.6">g</tspan><tspan class="cls-8" x="106.18" y="22.6">ui</tspan><tspan class="cls-15" x="121.6" y="22.6">la</tspan><tspan class="cls-8" x="135.95" y="22.6">r </tspan><tspan class="cls-17" x="149.28" y="22.6">P</tspan><tspan class="cls-8" x="160.15" y="22.6">a</tspan><tspan class="cls-10" x="170.39" y="22.6">l</tspan><tspan class="cls-17" x="174.31" y="22.6">omi</tspan><tspan class="cls-7" x="204.78" y="22.6">n</tspan><tspan class="cls-8" x="214.4" y="22.6">o</tspan></text>
      <text class="cls-9" transform="translate(123.97 168.74)"><tspan x="0" y="0">&amp;</tspan></text>
      <text class="cls-13" transform="translate(25.77 195.94)"><tspan class="cls-8" x="0" y="0">S</tspan><tspan class="cls-17" x="10.17" y="0">a</tspan><tspan class="cls-8" x="20.04" y="0">n</tspan><tspan class="cls-5" x="30.41" y="0">t</tspan><tspan class="cls-15" x="36.61" y="0">ia</tspan><tspan class="cls-8" x="51.15" y="0">go </tspan><tspan class="cls-15" x="78.36" y="0">G</tspan><tspan class="cls-8" x="90.67" y="0">u</tspan><tspan class="cls-5" x="101.05" y="0">t</tspan><tspan class="cls-1" x="107.24" y="0">i</tspan><tspan class="cls-5" x="111.35" y="0">e</tspan><tspan class="cls-8" x="120.65" y="0">r</tspan><tspan class="cls-5" x="127.88" y="0">r</tspan><tspan class="cls-8" x="134.55" y="0">ez </tspan><tspan class="cls-17" x="159.8" y="0">P</tspan><tspan class="cls-8" x="170.67" y="0">a</tspan><tspan class="cls-15" x="180.91" y="0">lm</tspan><tspan class="cls-8" x="200.55" y="0">a</tspan><tspan class="cls-12" x="6.91" y="22.6">D</tspan><tspan class="cls-8" x="18.91" y="22.6">e</tspan><tspan class="cls-15" x="28.77" y="22.6">li</tspan><tspan class="cls-8" x="37.93" y="22.6">a S</tspan><tspan class="cls-17" x="64.44" y="22.6">a</tspan><tspan class="cls-4" x="74.31" y="22.6">n</tspan><tspan class="cls-16" x="84.68" y="22.6">t</tspan><tspan class="cls-15" x="90.88" y="22.6">i</tspan><tspan class="cls-8" x="95.55" y="22.6">b</tspan><tspan class="cls-17" x="105.81" y="22.6">a</tspan><tspan class="cls-12" x="115.68" y="22.6">ñ</tspan><tspan class="cls-4" x="125.87" y="22.6">ez </tspan><tspan class="cls-17" x="151.12" y="22.6">Ga</tspan><tspan class="cls-5" x="173.3" y="22.6">r</tspan><tspan class="cls-8" x="179.97" y="22.6">c</tspan><tspan class="cls-17" x="189.5" y="22.6">í</tspan><tspan class="cls-8" x="193.64" y="22.6">a</tspan></text>
      <text class="cls-14" transform="translate(37.38 283.68)"><tspan x="0" y="0">Nuestros padrinos</tspan></text>
      <text class="cls-13" transform="translate(31.42 323.4)"><tspan class="cls-8" x="0" y="0">C</tspan><tspan class="cls-17" x="12.09" y="0">a</tspan><tspan class="cls-4" x="21.96" y="0">r</tspan><tspan class="cls-1" x="29.19" y="0">l</tspan><tspan class="cls-15" x="33.1" y="0">o</tspan><tspan class="cls-8" x="43.75" y="0">s </tspan><tspan class="cls-17" x="58.26" y="0">G</tspan><tspan class="cls-4" x="70.58" y="0">u</tspan><tspan class="cls-16" x="80.96" y="0">t</tspan><tspan class="cls-10" x="87.15" y="0">i</tspan><tspan class="cls-5" x="91.26" y="0">e</tspan><tspan class="cls-8" x="100.56" y="0">r</tspan><tspan class="cls-16" x="107.79" y="0">r</tspan><tspan class="cls-4" x="114.46" y="0">ez Vi</tspan><tspan class="cls-1" x="156.34" y="0">l</tspan><tspan class="cls-8" x="160.25" y="0">c</tspan><tspan class="cls-15" x="169.78" y="0">h</tspan><tspan class="cls-8" x="180.35" y="0">ez</tspan><tspan class="cls-12" x="11.71" y="22.6">D</tspan><tspan class="cls-8" x="23.71" y="22.6">a</tspan><tspan class="cls-15" x="33.95" y="22.6">li</tspan><tspan class="cls-8" x="43.1" y="22.6">a S</tspan><tspan class="cls-15" x="69.62" y="22.6">a</tspan><tspan class="cls-12" x="79.49" y="22.6">n</tspan><tspan class="cls-8" x="89.67" y="22.6">c</tspan><tspan class="cls-17" x="99.2" y="22.6">h</tspan><tspan class="cls-8" x="109.77" y="22.6">ez </tspan><tspan class="cls-17" x="135.02" y="22.6">Ga</tspan><tspan class="cls-16" x="157.2" y="22.6">r</tspan><tspan class="cls-8" x="163.87" y="22.6">c</tspan><tspan class="cls-17" x="173.4" y="22.6">í</tspan><tspan class="cls-8" x="177.54" y="22.6">a</tspan></text>
    </g>
  </g>
</svg>