<?xml version="1.0" encoding="UTF-8"?>
<svg id="Capa_2" data-name="Capa 2" xmlns="http://www.w3.org/2000/svg" viewBox="0 0 347.75 135.33">
  <defs>
    <style>
      .cls-1, .cls-2 {
        letter-spacing: -.01em;
      }

      .cls-3 {
        font-size: 22px;
      }

      .cls-3, .cls-4, .cls-5, .cls-6, .cls-7, .cls-2, .cls-8, .cls-9 {
        font-family: Italiana-Regular, Italiana;
      }

      .cls-10, .cls-6 {
        letter-spacing: 0em;
      }

      .cls-11 {
        letter-spacing: 0em;
      }

      .cls-4, .cls-5, .cls-6, .cls-7, .cls-2, .cls-8, .cls-9 {
        font-size: 20px;
      }

      .cls-4, .cls-12 {
        letter-spacing: .02em;
      }

      .cls-13, .cls-8 {
        letter-spacing: 0em;
      }

      .cls-14 {
        letter-spacing: -.03em;
      }

      .cls-15 {
        fill: #504322;
        stroke: #504322;
        stroke-miterlimit: 10;
        stroke-width: .25px;
      }

      .cls-16 {
        letter-spacing: 0em;
      }

      .cls-17 {
        font-family: TrajanPro-Regular, 'Trajan Pro';
        font-size: 18px;
      }

      .cls-7, .cls-18 {
        letter-spacing: .03em;
      }

      .cls-19 {
        letter-spacing: .07em;
      }

      .cls-20 {
        letter-spacing: .04em;
      }

      .cls-21 {
        letter-spacing: .01em;
      }

      .cls-9 {
        letter-spacing: -.02em;
      }
    </style>
  </defs>
  <g id="Capa_1-2" data-name="Capa 1">
    <text class="cls-15" transform="translate(105.94 17.12)"><tspan class="cls-5"><tspan class="cls-18" x="0" y="0">“El </tspan><tspan class="cls-13" x="30.2" y="0">h</tspan><tspan class="cls-10" x="41.22" y="0">om</tspan><tspan class="cls-18" x="68.62" y="0">b</tspan><tspan class="cls-13" x="79.52" y="0">r</tspan><tspan class="cls-18" x="86.6" y="0">e </tspan><tspan class="cls-20" x="103.56" y="0">q</tspan><tspan class="cls-18" x="114.88" y="0">ue</tspan></tspan><tspan class="cls-5"><tspan class="cls-13" x="-32.17" y="24">e</tspan><tspan class="cls-12" x="-22.29" y="24">n</tspan><tspan class="cls-18" x="-11.47" y="24">cu</tspan><tspan class="cls-13" x="9.67" y="24">e</tspan><tspan class="cls-18" x="19.55" y="24">n</tspan><tspan class="cls-13" x="30.57" y="24">tr</tspan><tspan class="cls-18" x="44.23" y="24">a a una muj</tspan><tspan class="cls-13" x="150.99" y="24">e</tspan><tspan class="cls-18" x="160.87" y="24">r</tspan></tspan><tspan class="cls-5"><tspan class="cls-18" x="-45.91" y="48">p</tspan><tspan class="cls-10" x="-34.81" y="48">a</tspan><tspan class="cls-16" x="-24.33" y="48">r</tspan><tspan class="cls-18" x="-17.25" y="48">a </tspan><tspan class="cls-11" x=".11" y="48">ama</tspan><tspan class="cls-18" x="37.17" y="48">r, </tspan><tspan class="cls-10" x="53.67" y="48">h</tspan><tspan class="cls-18" x="64.89" y="48">a </tspan><tspan class="cls-13" x="82.25" y="48">e</tspan><tspan class="cls-21" x="92.13" y="48">n</tspan><tspan class="cls-11" x="102.95" y="48">co</tspan><tspan class="cls-18" x="123.97" y="48">n</tspan><tspan class="cls-13" x="134.99" y="48">tr</tspan><tspan class="cls-11" x="148.65" y="48">a</tspan><tspan class="cls-14" x="159.13" y="48">d</tspan><tspan class="cls-18" x="170.59" y="48">o</tspan></tspan><tspan class="cls-5"><tspan class="cls-10" x="-53.21" y="72">l</tspan><tspan class="cls-18" x="-48.45" y="72">a </tspan><tspan class="cls-19" x="-31.09" y="72">g</tspan><tspan class="cls-13" x="-19.37" y="72">r</tspan><tspan class="cls-10" x="-12.29" y="72">a</tspan><tspan class="cls-18" x="-1.81" y="72">c</tspan><tspan class="cls-10" x="8.31" y="72">i</tspan><tspan class="cls-18" x="13.27" y="72">a </tspan><tspan class="cls-14" x="30.63" y="72">d</tspan><tspan class="cls-18" x="42.09" y="72">e nues</tspan><tspan class="cls-13" x="100.51" y="72">t</tspan><tspan class="cls-1" x="107.09" y="72">r</tspan><tspan class="cls-18" x="113.97" y="72">o S</tspan><tspan class="cls-13" x="142.95" y="72">e</tspan><tspan class="cls-1" x="152.83" y="72">ñ</tspan><tspan class="cls-10" x="163.05" y="72">o</tspan><tspan class="cls-18" x="174.35" y="72">r”</tspan></tspan><tspan class="cls-4" x="-4.3" y="107">P</tspan><tspan class="cls-2" x="7.44" y="107">r</tspan><tspan class="cls-8" x="14.32" y="107">o</tspan><tspan class="cls-6" x="25.42" y="107">v</tspan><tspan class="cls-8" x="34.92" y="107">e</tspan><tspan class="cls-7" x="44.8" y="107">rb</tspan><tspan class="cls-9" x="63.38" y="107">i</tspan><tspan class="cls-6" x="67.74" y="107">o</tspan><tspan class="cls-7" x="79.04" y="107">s</tspan><tspan class="cls-3" x="87.98" y="107"> </tspan><tspan class="cls-17" x="94.56" y="107">18:22</tspan></text>
  </g>
</svg>