<?xml version="1.0" encoding="UTF-8"?>
<svg id="Capa_2" data-name="Capa 2" xmlns="http://www.w3.org/2000/svg" xmlns:xlink="http://www.w3.org/1999/xlink" viewBox="0 0 173.77 164.61">
  <defs>
    <style>
      .cls-1 {
        filter: url(#drop-shadow-1);
      }

      .cls-2 {
        fill: #fff;
        stroke-width: 0px;
      }
    </style>
    <filter id="drop-shadow-1" filterUnits="userSpaceOnUse">
      <feOffset dx="6.33" dy="1.27"/>
      <feGaussianBlur result="blur" stdDeviation="5.07"/>
      <feFlood flood-color="#544431" flood-opacity=".83"/>
      <feComposite in2="blur" operator="in"/>
      <feComposite in="SourceGraphic"/>
    </filter>
  </defs>
  <g id="Capa_1-2" data-name="Capa 1">
    <g class="cls-1">
      <path class="cls-2" d="m58.31,68.26c-3.31-.86-10.44-1.37-16.2-1.3-9.22,13.32-28.81,21.17-36.87,18.22-13.4-4.9,1.08-16.42,19.01-18.94,3.75-.58,10.73-1.08,15.27-1.15,3.53-5.98,5.76-11.02,7.27-17.72l.29-1.22c-4.32,4.1-17.93,14.11-29.82,10.15-9-3.1-14.69-17-6.91-33.35-5.55-5.76-6.91-14.12-.29-20.89,1.01-1.08,2.09-.94.94.58-4.75,5.98-3.89,12.89.5,18.15.43-.94,1.01-1.87,1.58-2.81C20.72,5.54,35.27-1.52,46.86.28c22.25,3.46,17.36,29.89-13.11,30.32-6.99.14-14.33-1.87-18.94-4.97-6.34,13.68-3.53,25.57,4.9,28.3,9.51,3.1,22.61-4.54,24.63-9.36,4.18-9.79,9.07-6.91,8.57-3.24-1.01,7.99-4.54,15.12-9.79,23.77,6.41.07,11.45.79,15.77,1.87,2.09.5,2.16,1.95-.58,1.3Zm-33.2-.07c-12.75,1.95-28.59,12.89-18,15.12,6.41,1.44,22.83-4.18,31.26-16.28-4.54.14-9.22.5-13.25,1.15Zm-7.13-48.4c-.79,1.3-1.58,2.66-2.23,3.96,4.47,3.38,11.81,5.33,19.16,4.61,24.27-2.45,29.96-23.26,12.32-25.93-9.79-1.44-22.47,6.27-29.24,17.36Z"/>
      <path class="cls-2" d="m73.22,59.05c-2.38.14-5.76-1.73-3.6-9.29-1.15,1.87-3.1,4.75-5.19,6.77-8.28,7.92-13.76-4.68-2.88-17.72,4.32-5.11,12.6-7.78,16.71-3.31,1.01,1.08.43,2.3-.79,2.09-.79-2.67-3.46-3.24-6.12-1.8-3.24,1.8-6.99,6.05-9.58,10.3-.58,1.01-2.52,4.54-2.95,7.27-.72,5.04,3.24,4.46,6.63.43,2.52-3.02,4.54-6.55,6.41-10.08,1.58-3.03,2.59-4.75,4.9-4.61.94.07,2.02.5,3.02.29-1.51,1.51-5.76,9.08-6.7,13.47-.58,2.95-.22,4.32.72,4.32,3.03.14,7.78-9,9.29-12.1.65-1.3,1.73-.86,1.01.58-2.16,4.39-6.55,13.04-10.87,13.39Z"/>
      <path class="cls-2" d="m87.04,45c-.36,1.22-1.08,2.95-1.51,4.75-2.16,8.64,3.6,9.87,7.42,4.54,2.38-3.38,4.39-7.27,5.33-9.15.65-1.22,1.73-1.08,1.08.36-1.8,3.82-5.55,13.54-12.82,13.54-8.07,0-4.61-9.87-3.38-14.19,2.23-8.07,6.77-18.44,10.95-25.42,5.11-8.57,12.89-7.56,7.71,3.96-3.31,7.42-7.71,15.2-14.76,21.61Zm11.96-25.93c-3.53,4.97-9.15,17.86-11.38,23.62,5.11-5.19,10.3-13.68,13.11-20.38,1.44-3.31,2.16-8.79-1.73-3.24Z"/>
      <path class="cls-2" d="m103.39,59.19c-3.6,0-6.84-2.38-6.91-6.91-.07-4.32,2.38-9.72,5.55-13.47,3.67-4.32,9.15-7.06,12.32-4.68,2.74,2.09.65,6.99-3.96,10.52-2.23,1.66-6.91,3.17-8.86,3.17-1.08,2.59-2.3,9.87,2.45,9.87,6.34,0,10.23-8.5,11.88-12.32.58-1.3,2.02-1.44,1.3.07-2.66,5.76-5.76,13.76-13.76,13.76Zm2.95-19.37c-1.87,2.3-3.67,5.47-4.32,6.77,1.3,0,5.04-1.01,7.63-3.17,5.91-4.97,5.55-14.33-3.31-3.6Z"/>
      <path class="cls-2" d="m125.28,58.83c-2.45.58-6.84-1.58-3.96-9.08,1.08-2.95,3.67-6.7,4.47-8.5,1.01-2.38-1.51-3.31-5.55-3.38l-.86,2.3c-1.73,4.54-5.18,12.53-8.71,15.92-.58.5-1.01-.29-.58-.94,5.69-7.49,9.65-18.37,11.09-26.43.72-4.03,5.4-2.23,4.39,2.59-.43,2.02-2.74,3.96-3.96,4.83,2.66.14,6.41.07,9.94-.29.5,1.01-.65,3.74-1.51,5.55-1.08,2.23-8.43,15.41-4.11,15.63,2.95.07,7.42-8.93,8.93-12.03.65-1.22,1.58-.72.86.72-2.09,4.32-5.76,11.96-10.44,13.11Z"/>
      <path class="cls-2" d="m137.24,57.32c1.08.14,2.45-.65,3.24-1.37,2.38-2.38,4.75-6.84,6.77-10.87.58-1.3,1.58-.79.94.65-1.87,4.03-5.98,13.18-11.31,13.18s-5.4-5.62-3.89-9.36l4.61-11.74c.58-1.37-.43-2.66-.72-3.03l3.96-.07c2.3,0,2.3.79,1.51,2.52l-5.76,13.47s-.72,1.58-.86,2.09c-.65,2.38-.5,4.39,1.51,4.54Zm5.18-25.57c-1.66,0-2.74-1.3-2.52-2.95.29-1.66,1.87-2.95,3.46-2.95s2.81,1.3,2.52,2.95-1.8,2.95-3.46,2.95Z"/>
      <path class="cls-2" d="m162.66,59.05c-2.38.14-5.76-1.73-3.6-9.29-1.15,1.87-3.1,4.75-5.19,6.77-8.28,7.92-13.76-4.68-2.88-17.72,4.32-5.11,12.6-7.78,16.71-3.31,1.01,1.08.43,2.3-.79,2.09-.79-2.67-3.46-3.24-6.12-1.8-3.24,1.8-6.99,6.05-9.58,10.3-.58,1.01-2.52,4.54-2.95,7.27-.72,5.04,3.24,4.46,6.63.43,2.52-3.02,4.54-6.55,6.41-10.08,1.58-3.03,2.59-4.75,4.9-4.61.94.07,2.02.5,3.02.29-1.51,1.51-5.76,9.08-6.7,13.47-.58,2.95-.22,4.32.72,4.32,3.03.14,7.78-9,9.29-12.1.65-1.3,1.73-.86,1.01.58-2.16,4.39-6.55,13.04-10.87,13.39Z"/>
    </g>
    <g>
      <path class="cls-2" d="m47.9,119.77c0-1.34,0-2.48,0-3.62,0-1.49.72-2.24,2.24-2.24,2.72.02,5.45,0,8.17,0,1.43,0,2.13.72,2.1,2.15-.02,1.15,0,2.3,0,3.69,1.34,0,2.55.09,3.72-.05.4-.05.89-.62,1.07-1.06.76-1.88,1.45-3.78,2.1-5.7.43-1.27,1.2-1.83,2.57-1.83,9.85.03,19.7.03,29.56,0,1.36,0,2.16.52,2.6,1.8.63,1.86,1.4,3.68,1.98,5.56.31,1,.81,1.32,1.86,1.31,6.03-.05,12.05-.03,18.08-.02,2.54,0,2.86.3,2.86,2.75,0,13.1,0,26.2,0,39.29,0,2.32-.43,2.77-2.71,2.77-23.65,0-47.29,0-70.94,0-.52,0-1.18.1-1.51-.17-.51-.42-1.13-1.13-1.09-1.69.03-.54.73-1.21,1.3-1.51.51-.26,1.25-.1,1.88-.1,20.11,0,40.22,0,60.33,0h2.25v-2.02c0-7.53,0-15.07,0-22.6,0-.46-.17-1.05.05-1.37.44-.64,1.08-1.55,1.65-1.57.57-.01,1.25.88,1.71,1.5.22.3.06.9.06,1.36,0,7.53,0,15.07,0,22.6v1.99h3.44v-37.76c-.68,0-1.3,0-1.92,0-5.68,0-11.36-.04-17.04.02-1.56.02-2.49-.5-2.96-2.04-.56-1.82-1.35-3.57-1.93-5.39-.29-.91-.71-1.26-1.71-1.26-8.69.04-17.39.04-26.08,0-.9,0-1.33.28-1.61,1.15-.6,1.87-1.39,3.68-1.99,5.55-.46,1.45-1.33,1.99-2.83,1.97-5.68-.05-11.36-.02-17.04-.02-.63,0-1.26,0-2.13,0,0,.79,0,1.46,0,2.14,0,12,0,23.99,0,35.99,0,.58.18,1.31-.1,1.7-.44.61-1.19,1.33-1.84,1.37-.47.03-1.12-.9-1.48-1.53-.22-.4-.06-1.02-.06-1.54,0-12.81,0-25.62,0-38.42,0-3,.17-3.17,3.13-3.18.68,0,1.36,0,2.23,0Zm8.94-.1v-2.16h-5.34v2.16h5.34Z"/>
      <path class="cls-2" d="m84.58,155.4c-9.82-.06-16.82-9.66-13.82-18.94.38-1.18.88-2.31,2.39-1.85,1.5.46,1.28,1.66.94,2.87-1.82,6.57,1.87,12.82,8.35,14.21,6.22,1.34,12.28-2.93,13.2-9.47.58-4.1-.9-7.57-4.15-10.12-3.31-2.6-7.03-3.05-10.98-1.57-.43.16-.84.38-1.26.59-1.08.52-2.05.53-2.64-.68-.57-1.15.06-1.85,1.02-2.39,3.18-1.75,6.56-2.25,10.09-1.5,7.31,1.55,12.33,8.49,11.5,15.77-.87,7.56-7.1,13.12-14.65,13.08Z"/>
      <path class="cls-2" d="m94.7,95.66c.12-3.86,1.33-6.12,3.86-7.54,2.53-1.42,5.12-1.37,7.57.18.87.55,1.4.54,2.27,0,3.2-2.02,7.18-1.38,9.58,1.42,2.46,2.85,2.53,7.01-.09,9.82-2.95,3.18-6.09,6.18-9.16,9.24-1.01,1.01-2.02.91-3.02-.09-2.97-3-6.08-5.87-8.89-9.02-1.16-1.3-1.69-3.16-2.12-4Zm12.61,9.61c2.65-2.65,5.23-5.16,7.72-7.74,1.72-1.79,1.71-4.18.1-5.76-1.56-1.53-3.84-1.52-5.66.03q-2.21,1.89-4.49-.07c-1.8-1.54-4.08-1.51-5.63.08-1.48,1.51-1.59,3.87-.04,5.49,2.56,2.67,5.24,5.23,8,7.96Z"/>
      <path class="cls-2" d="m74.66,86.21c.28-3.98,4.11-6.52,7.76-5.19.7.26,1.65.26,2.36.02,2.45-.81,5.14-.09,6.5,1.93,1.46,2.15,1.33,4.75-.49,6.72-1.85,1.99-3.82,3.88-5.75,5.8-.95.95-1.93.95-2.88,0-1.92-1.93-3.94-3.78-5.72-5.83-.82-.95-1.19-2.29-1.77-3.45Zm8.95,6c1.64-1.72,3.12-3.25,4.56-4.82.78-.84.85-1.81.04-2.64-.87-.89-1.92-.87-2.77,0-1.27,1.3-2.4,1.37-3.68,0-.83-.89-1.89-.93-2.77-.05-.88.89-.75,1.89.08,2.78,1.42,1.51,2.87,3,4.52,4.72Z"/>
      <path class="cls-2" d="m116.05,127.67c.7-.48,1.35-1.24,2.1-1.35,1.03-.16,1.65.65,1.65,1.74,0,1.13-.54,2.04-1.7,1.86-.75-.12-1.38-.92-2.07-1.41,0-.28,0-.55.01-.83Z"/>
    </g>
  </g>
</svg>