<?xml version="1.0" encoding="utf-8"?>
<!-- Generator: Adobe Illustrator 28.0.0, SVG Export Plug-In . SVG Version: 6.00 Build 0)  -->
<svg version="1.1" id="Capa_1" xmlns="http://www.w3.org/2000/svg" xmlns:xlink="http://www.w3.org/1999/xlink" x="0px" y="0px"
	 viewBox="0 0 430 734" style="enable-background:new 0 0 430 734;" xml:space="preserve">
<style type="text/css">
	.st0{fill:none;}
	.st1{fill:url(#SVGID_1_);}
	.st2{fill:url(#XMLID_00000139270872407719587110000003595637486927105417_);}
	.st3{fill:url(#SVGID_00000022562093605365127680000017969442584671206825_);}
	.st4{fill:url(#SVGID_00000098935118694662623220000013694601102169134242_);}
	.st5{fill:url(#SVGID_00000179604427310708863560000009980027558645755530_);}
	.st6{fill:url(#SVGID_00000114073962967592737180000000730609620938230460_);}
	.st7{fill:url(#SVGID_00000042722982197784750910000011520837852565685438_);}
	.st8{fill:#FFFFFF;}
	.st9{fill:url(#Nueva_muestra_de_motivo_2);}
	.st10{font-family:'GreatVibes-Regular';}
	.st11{font-size:56.2565px;}
	.st12{fill:#504322;stroke:#504322;stroke-width:0.3278;stroke-miterlimit:10;}
	.st13{font-family:'Italiana-Regular';}
	.st14{font-size:26.2223px;}
	.st15{font-family:'TrajanPro-Regular';}
</style>
<pattern  y="734" width="276" height="169" patternUnits="userSpaceOnUse" id="Nueva_muestra_de_motivo_1" viewBox="0 -169 276 169" style="overflow:visible;">
	<g>
		<rect y="-169" class="st0" width="276" height="169"/>
		
			<linearGradient id="SVGID_1_" gradientUnits="userSpaceOnUse" x1="545" y1="-15591" x2="821" y2="-15591" gradientTransform="matrix(1 0 0 -1 -545 -15675.5)">
			<stop  offset="0" style="stop-color:#DCC173"/>
			<stop  offset="0.2398" style="stop-color:#AB8136"/>
			<stop  offset="0.5153" style="stop-color:#73582B"/>
			<stop  offset="0.8571" style="stop-color:#DCC173"/>
		</linearGradient>
		<rect y="-169" class="st1" width="276" height="169"/>
	</g>
</pattern>
<pattern  y="734" width="286.7" height="240.9" patternUnits="userSpaceOnUse" id="Nueva_muestra_de_motivo_2" viewBox="0 -240.9 286.7 240.9" style="overflow:visible;">
	<g>
		<rect y="-240.9" class="st0" width="286.7" height="240.9"/>
		
			<linearGradient id="XMLID_00000168091807126053794650000000011556569005864372_" gradientUnits="userSpaceOnUse" x1="1703.2894" y1="313.9805" x2="1944.1627" y2="313.9805" gradientTransform="matrix(4.489700e-11 -1 -1 -4.489700e-11 457.3437 1703.2894)">
			<stop  offset="0" style="stop-color:#DCC173"/>
			<stop  offset="0.2398" style="stop-color:#AB8136"/>
			<stop  offset="0.5153" style="stop-color:#73582B"/>
			<stop  offset="0.8571" style="stop-color:#DCC173"/>
		</linearGradient>
		<polygon id="XMLID_48_" style="fill:url(#XMLID_00000168091807126053794650000000011556569005864372_);" points="286.7,-240.9 
			286.7,0 0,0 0,-240.9 		"/>
	</g>
</pattern>
<g>
	<g>
		<g>
			
				<pattern  id="SVGID_00000101824056278166301170000007722993155351579806_" xlink:href="#Nueva_muestra_de_motivo_1" patternTransform="matrix(0.8767 0 0 0.8767 -1080.4236 -919.7363)">
			</pattern>
			<path style="fill:url(#SVGID_00000101824056278166301170000007722993155351579806_);" d="M168,501.7c0.9-1.8,2.5-1.5,4-1.3
				c0.8,0.1,1.6,0.3,2.5,0.3c1.5,0,2.2-0.4,2.7-1.8c1.2-3.2,2.2-6.4,3.1-9.7c1.5-5.3,2.9-10.6,4-15.9c0.5-2.5,0.3-5,0-7.5
				c-0.5-4.8-1.6-9.4-1.7-14.2c-0.1-5.2,0.9-10.2,2.1-15.3c1.1-4.9,2.8-9.7,4.1-14.6c0.2-0.6,0.5-0.7,1.1-0.5
				c6.2,1.7,12.3,3.3,18.5,4.9c0.4,0.1,0.8,0.1,0.6,0.8c-1.5,6.3-3,12.6-5,18.8c-2.2,7-5.9,13-10.7,18.6c-1.4,1.6-2.6,3.4-3.9,5.2
				c-1.9,2.5-2.7,5.5-3.6,8.4c-1.9,6.3-3.6,12.6-5,19.1c-0.2,1-0.4,2-0.5,3c-0.2,1.6,0.2,2.2,1.6,2.9c1.1,0.5,2.3,1,3.4,1.5
				c0.8,0.4,1.4,0.9,1.5,1.9c0,0.7-0.2,1-0.9,0.8c-5.5-1.5-11.1-3-16.6-4.5c-0.4-0.1-0.8-0.3-1.3-0.2C168,501.9,168,501.8,168,501.7
				z"/>
			
				<pattern  id="SVGID_00000004525888704620006110000014994065759800206255_" xlink:href="#Nueva_muestra_de_motivo_1" patternTransform="matrix(0.8767 0 0 0.8767 -1080.4236 -919.7363)">
			</pattern>
			<path style="fill:url(#SVGID_00000004525888704620006110000014994065759800206255_);" d="M236.7,450.3c0.1,4.3-0.6,8.3-1.3,12.3
				c-0.8,5.1-0.8,10.1,0.6,15.1c1.9,7,3.5,14,6,20.8c0.7,2,1.6,2.4,3.7,2.1c1.2-0.2,2.4-0.4,3.6-0.3c0.5,0,0.9,0.1,1.3,0.4
				c0.4,0.3,0.7,0.7,0.6,1.2c-0.1,0.4-0.6,0.3-0.9,0.4c-5.6,1.5-11.2,3-16.7,4.5c-0.9,0.2-1.2,0-1-1c0.2-0.9,0.9-1.3,1.6-1.7
				c1-0.5,2-0.8,3-1.3c1.7-0.8,2.1-1.6,1.8-3.4c-1.7-9-4.1-17.9-7-26.6c-0.6-1.6-1.6-3-2.5-4.4c-2.7-3.7-5.7-7.2-8.4-11
				c-3.1-4.5-4.9-9.7-6.5-14.8c-1.7-5.2-2.7-10.6-4.1-15.9c-0.2-0.7,0.3-0.7,0.7-0.8c3.5-1,7-1.9,10.6-2.8c2.6-0.7,5.2-1.4,7.8-2.1
				c0.6-0.2,0.9-0.1,1.1,0.6c2,6.5,4.1,13.1,5.3,19.8C236.4,444.4,236.9,447.5,236.7,450.3z"/>
			
				<pattern  id="SVGID_00000167385068043098548250000004740760844881215629_" xlink:href="#Nueva_muestra_de_motivo_1" patternTransform="matrix(0.8767 0 0 0.8767 -1080.4236 -919.7363)">
			</pattern>
			<path style="fill:url(#SVGID_00000167385068043098548250000004740760844881215629_);" d="M210.4,418.3c0,1.7,0,3.3,0,5
				c0,0.5,0,1-0.6,1c-0.7,0-0.8-0.5-0.8-1c0-3.4,0-6.8,0-10.2c0-0.5,0.1-1,0.7-1c0.7,0,0.7,0.4,0.7,1
				C210.4,414.8,210.4,416.5,210.4,418.3z"/>
			
				<pattern  id="SVGID_00000071527953889887926850000014320116676159723965_" xlink:href="#Nueva_muestra_de_motivo_1" patternTransform="matrix(0.8767 0 0 0.8767 -1080.4236 -919.7363)">
			</pattern>
			<path style="fill:url(#SVGID_00000071527953889887926850000014320116676159723965_);" d="M212.4,424.3c-0.6,0-0.8-0.6-0.4-1.4
				c1-1.9,2.1-3.7,3.1-5.6c0.2-0.3,0.4-0.6,0.5-1c0.3-0.5,0.6-1,1.2-0.6c0.6,0.3,0.3,0.9,0.1,1.3c-0.9,1.6-1.8,3.2-2.7,4.8
				c-0.3,0.6-0.7,1.2-1,1.8C213,424,212.8,424.3,212.4,424.3z"/>
			
				<pattern  id="SVGID_00000138540041488524961770000009992379864257811356_" xlink:href="#Nueva_muestra_de_motivo_1" patternTransform="matrix(0.8767 0 0 0.8767 -1080.4236 -919.7363)">
			</pattern>
			<path style="fill:url(#SVGID_00000138540041488524961770000009992379864257811356_);" d="M207.6,423.6c0,0.3-0.1,0.6-0.5,0.7
				c-0.4,0.1-0.7-0.1-0.9-0.4c-0.4-0.7-0.8-1.4-1.2-2.1c-0.9-1.6-1.7-3.1-2.6-4.7c-0.3-0.5-0.4-1,0.1-1.3c0.5-0.3,0.9,0.1,1.2,0.6
				c1.2,2.1,2.4,4.3,3.6,6.4C207.4,423,207.6,423.3,207.6,423.6z"/>
		</g>
		<path class="st8" d="M188.4,464.7c-1.2-0.3-1.5-1.1-1.8-1.9c-0.5-1.6-0.7-3.2-0.9-4.9c-0.4-3.1-0.8-6.1-0.6-9.2
			c0.4-5.2,1.4-10.2,2.8-15.2c0.9-3.2,1.9-6.4,2.8-9.6c0.2-0.6,0.4-0.8,1-0.6c4.5,1.2,9,2.4,13.5,3.6c0.9,0.2,1.1,0.5,0.8,1.4
			c-0.8,2.9-1.4,5.8-2.1,8.7c-0.2,0.7-0.5,1-1.3,1c-4.5,0-9,0-13.5,0c-0.6,0-0.9,0.1-1.1,0.8c-0.8,3.8-1.5,7.6-1.6,11.5
			c-0.1,3.4,0.4,6.8,1,10.1C187.7,461.9,188,463.2,188.4,464.7z"/>
		<path class="st8" d="M225,437.5c-2.2,0-4.5,0-6.7,0c-0.6,0-0.9,0.2-0.7,0.8c1.6,5.3,3.2,10.6,6,15.5c2.1,3.6,4.8,6.8,7.7,9.9
			c0.2,0.2,0.6,0.3,0.4,0.6c-0.2,0.3-0.6,0.3-0.9,0.3c-0.8-0.2-1.5-0.7-2.1-1.3c-3.9-4.5-7.4-9.2-9.6-14.8
			c-2.6-6.7-4.3-13.5-5.9-20.5c-0.1-0.6,0-0.8,0.6-0.9c4.5-1.2,9-2.4,13.5-3.7c0.9-0.2,1.2,0.1,1.4,0.8c1.1,4.1,2.4,8.1,3.4,12.3
			c0.2,0.8,0.1,1.1-0.8,1.1C229.3,437.5,227.1,437.5,225,437.5z"/>
	</g>
	<g>
		<text transform="matrix(1 0 0 1 123.4425 235.2642)" class="st9 st10 st11">Recepción</text>
	</g>
	<g>
		<text transform="matrix(1 0 0 1 78.7057 290.3105)"><tspan x="0" y="0" class="st12 st13 st14">Centro de Recepciones</tspan><tspan x="25.9" y="31.5" class="st12 st13 st14">“CLUB DF LEONES”</tspan><tspan x="27.9" y="62.9" class="st12 st13 st14">Av. Arequipa </tspan><tspan x="183.8" y="62.9" class="st12 st15 st14">4701</tspan><tspan x="78.2" y="94.4" class="st12 st13 st14">Miraflores</tspan></text>
	</g>
</g>
</svg>
