<?xml version="1.0" encoding="utf-8"?>
<!-- Generator: Adobe Illustrator 28.0.0, SVG Export Plug-In . SVG Version: 6.00 Build 0)  -->
<svg version="1.1" id="Capa_1" xmlns="http://www.w3.org/2000/svg" xmlns:xlink="http://www.w3.org/1999/xlink" x="0px" y="0px"
	 viewBox="0 0 430 734" style="enable-background:new 0 0 430 734;" xml:space="preserve">
<style type="text/css">
	.st0{fill:none;}
	.st1{fill:url(#XMLID_00000022531921130101452820000010832256387358381231_);}
	.st2{fill:url(#Nueva_muestra_de_motivo_2);}
	.st3{fill:#504322;stroke:#504322;stroke-width:0.2851;stroke-miterlimit:10;}
</style>
<pattern  y="734" width="286.7" height="240.9" patternUnits="userSpaceOnUse" id="Nueva_muestra_de_motivo_2" viewBox="0 -240.9 286.7 240.9" style="overflow:visible;">
	<g>
		<rect y="-240.9" class="st0" width="286.7" height="240.9"/>
		
			<linearGradient id="XMLID_00000181782295396315441350000002634072430034833586_" gradientUnits="userSpaceOnUse" x1="1703.2894" y1="313.9805" x2="1944.1627" y2="313.9805" gradientTransform="matrix(4.489700e-11 -1 -1 -4.489700e-11 457.3437 1703.2894)">
			<stop  offset="0" style="stop-color:#DCC173"/>
			<stop  offset="0.2398" style="stop-color:#AB8136"/>
			<stop  offset="0.5153" style="stop-color:#73582B"/>
			<stop  offset="0.8571" style="stop-color:#DCC173"/>
		</linearGradient>
		<polygon id="XMLID_48_" style="fill:url(#XMLID_00000181782295396315441350000002634072430034833586_);" points="286.7,-240.9 
			286.7,0 0,0 0,-240.9 		"/>
	</g>
</pattern>
<g>
	<g>
		<g>
			<path class="st2" d="M135.8,185.5c-4.1,2.8-9.7,4.3-15.5,1.8c-10-4.2-7.5-18.1-2-25.1c-0.6-2.5-1-6.2-0.2-9.1
				c0.2-0.7,1-0.9,0.8,0.2c-0.4,2.5-0.1,5.4,0.3,7.6c4.3-5.5,10.3-8,16.6-7.3c15.6,1.8,9.9,21-6.5,18.6c-4.2-0.6-7.8-2.5-9.9-6.8
				c-1.4,1.9-8,18,2.4,21.2c4.3,1.3,9.4,0.7,13.4-1.7c3.5-2,4.9-4.6,6.5-8.1c0.3-0.7,0.9-0.4,0.5,0.4
				C140.5,180.7,139.2,183.1,135.8,185.5z M120.2,164c1.8,4.6,5.3,6.6,9.7,7.1c14.4,1.6,18-14.4,6.3-16.1
				C130.3,154.2,124.2,158,120.2,164z"/>
			<path class="st2" d="M149.4,184.2c-1.2,0-2-0.4-2.6-1c-1.1,0.8-2.3,1.4-3.5,1.4c-3-0.1-3.5-3.7-2-7.3c1.6-3.7,4.9-6.8,7.6-6.7
				c3,0,3.5,3.7,2,7.3c-0.6,1.4-1.8,3.3-3.4,4.7c0.3,0.6,0.9,1,1.9,1c2.6,0,4.6-4.9,5.6-6.9c0.2-0.4,0.9-0.2,0.6,0.4
				C155,178.5,152.8,184.2,149.4,184.2z M144.2,177.1c-1.6,3.3-1.9,6.1-0.5,6.5c0.8,0.2,1.8-0.2,2.7-1c-0.4-0.6-0.6-1.4-0.6-2
				c0-0.9,0.4-1.7,1.4-1.7c0.7,0,1.2,0.6,1.2,1.2c0,0.2,0,0.3-0.1,0.4c0.4-0.6,0.9-1.4,1.2-2.2c1.6-3.3,1.8-6.1,0.3-6.5
				C148.1,171.4,145.7,173.9,144.2,177.1z"/>
			<path class="st2" d="M162.4,184.7c-1.4,0-3.3-1-2.1-4.7c0.3-1,1.1-2.4,2.2-4.2c1-1.6,0.2-2.6-2.8,0.2c-1.4,1.2-3.3,3.5-5.5,7.9
				c-0.3,0.6-0.7,0.6-1.5,0.6c-0.6,0-1,0-1.4,0.2c1.9-3.8,3.6-7.6,5.5-11.2c1-1.9,1.6-2.6,2.8-2.5c0.5,0,1.1,0.3,1.7,0.2
				c-1.2,0.6-3.4,4.6-4.8,7.5c0.8-1,2.1-2.5,3.3-3.6c1.9-1.7,6-4.2,7.4-3.8c0,0-4.3,7.5-4.8,10.3c-0.3,1.6,0.1,2,0.6,2
				c2.1,0,4.6-5.2,5.5-6.9c0.3-0.7,1-0.4,0.6,0.4C167.8,179.6,165.5,184.7,162.4,184.7z"/>
			<path class="st2" d="M180.9,176.8c-0.2,0.7-0.6,1.6-0.8,2.6c-1.2,4.8,2,5.5,4.1,2.5c1.3-1.9,2.4-4,3-5.1c0.4-0.7,1-0.6,0.6,0.2
				c-1,2.1-3.1,7.5-7.1,7.5c-4.5,0-2.6-5.5-1.9-7.9c1.2-4.5,3.8-10.2,6.1-14.1c2.8-4.7,7.1-4.2,4.3,2.2
				C187.3,168.9,184.9,173.2,180.9,176.8z M187.6,162.4c-2,2.8-5.1,9.9-6.3,13.1c2.8-2.9,5.7-7.6,7.3-11.3
				C189.3,162.4,189.7,159.4,187.6,162.4z"/>
			<path class="st2" d="M195.7,184.6c-1.3,0.1-3.2-1-2-5.1c-0.6,1-1.7,2.6-2.9,3.8c-4.6,4.4-7.6-2.6-1.6-9.8c2.4-2.8,7-4.3,9.3-1.8
				c0.6,0.6,0.2,1.3-0.4,1.2c-0.4-1.5-1.9-1.8-3.4-1c-1.8,1-3.9,3.4-5.3,5.7c-0.3,0.6-1.4,2.5-1.6,4c-0.4,2.8,1.8,2.5,3.7,0.2
				c1.4-1.7,2.5-3.6,3.6-5.6c0.9-1.7,1.4-2.6,2.7-2.6c0.5,0,1.1,0.3,1.7,0.2c-0.8,0.8-3.2,5-3.7,7.5c-0.3,1.6-0.1,2.4,0.4,2.4
				c1.7,0.1,4.3-5,5.1-6.7c0.4-0.7,1-0.5,0.6,0.3C200.5,179.6,198.1,184.4,195.7,184.6z"/>
			<path class="st2" d="M222.4,159.8h0.2c0.5,0,1.1,0.3,1.7,0.2c-1.4,1.5-6.1,8-8.8,13.3c-2,4-3.8,9.7-1,10.2c0.9,0.2,2-0.6,3.4-2.3
				c1.1-1.3,2.3-3.4,3-4.9c1-2.6,1-5.2-1.5-4.9c-1.2,0.1-1.2-1.1,0.6-0.8c2.9,0.4,3.7,3.1,3.2,5.6c-0.7,3.4-3.2,7.1-6.5,8
				c-4.6,1.2-6.2-1.1-5.5-4c0.3-1.2,1-2.8,1.8-4.4c-1.8,3.5-3.4,6.3-4.2,7.1c-0.3,0.3-0.6-0.2-0.3-0.5c2.7-3.6,8-15.5,11.4-20.6
				C220.7,160.4,221.5,159.8,222.4,159.8z"/>
			<path class="st2" d="M228.1,184.7c-2,0-3.8-1.3-3.8-3.8c0-2.4,1.3-5.4,3.1-7.5c2-2.4,5.1-3.9,6.8-2.6c1.5,1.2,0.4,3.9-2.2,5.8
				c-1.2,0.9-3.8,1.8-4.9,1.8c-0.6,1.4-1.3,5.5,1.4,5.5c3.5,0,5.7-4.7,6.6-6.8c0.3-0.7,1.1-0.8,0.7,0
				C234.2,180.2,232.5,184.7,228.1,184.7z M229.7,173.9c-1,1.3-2,3-2.4,3.8c0.7,0,2.8-0.6,4.2-1.8
				C234.8,173.2,234.6,168,229.7,173.9z"/>
			<path class="st2" d="M242.4,184.7c-1.4,0-3.3-1-2.1-4.7c0.3-1,1.1-2.4,2.2-4.2c1-1.6,0.2-2.6-2.8,0.2c-1.4,1.2-3.3,3.5-5.5,7.9
				c-0.3,0.6-0.7,0.6-1.5,0.6c-0.6,0-1,0-1.4,0.2c1.9-3.8,3.6-7.6,5.5-11.2c1-1.9,1.6-2.6,2.8-2.5c0.5,0,1.1,0.3,1.7,0.2
				c-1.2,0.6-3.4,4.6-4.8,7.5c0.8-1,2.1-2.5,3.3-3.6c1.9-1.7,6-4.2,7.4-3.8c0,0-4.3,7.5-4.8,10.3c-0.3,1.6,0.1,2,0.6,2
				c2.1,0,4.6-5.2,5.5-6.9c0.3-0.7,1-0.4,0.6,0.4C247.8,179.6,245.5,184.7,242.4,184.7z"/>
			<path class="st2" d="M257.7,179.2c-0.4,0.9-1.6,4.3,0.2,4.3c2,0,4.3-4.9,5.1-6.6c0.3-0.7,1-0.6,0.6,0.2c-1,2.2-3.3,7.4-6.5,7.4
				c-0.6,0-1.3-0.3-1.8-1.1c-0.4-0.7-0.8-1.9-0.4-3.5c-1.2,2-3.1,5.1-5.8,4.4c-3.8-1-1.6-7.5,1.4-11c2.2-2.6,5.7-4,8.6-2.3
				c1.9-3.6,3.7-7.3,4.6-9.5c0.8-1.8,1.4-2.2,2.7-2.1c0.5,0,1.1,0.2,1.7,0.2C267,160.8,260,173.7,257.7,179.2z M250.3,178.1
				c-2.6,4.9-0.2,7.4,3.2,2.6c1.5-2.1,3.5-5.5,5.3-9C256.8,169.7,252.5,174.2,250.3,178.1z"/>
			<path class="st2" d="M264.5,183.6c0.6,0.1,1.4-0.4,1.8-0.8c1.3-1.3,2.6-3.8,3.8-6c0.3-0.7,0.9-0.4,0.5,0.4
				c-1,2.2-3.3,7.3-6.3,7.3c-3,0-3-3.1-2.2-5.2l2.6-6.5c0.3-0.8-0.2-1.5-0.4-1.7l2.2,0c1.3,0,1.3,0.4,0.8,1.4l-3.2,7.5
				c0,0-0.4,0.9-0.5,1.2C263.3,182.4,263.4,183.5,264.5,183.6z M267.3,169.5c-0.9,0-1.5-0.7-1.4-1.6c0.2-0.9,1-1.6,1.9-1.6
				c0.9,0,1.6,0.7,1.4,1.6C269.1,168.7,268.3,169.5,267.3,169.5z"/>
			<path class="st2" d="M273.3,184.7c-6.3,0-4.2-7.2-1.4-11.1c1.5-2,3.4-3.2,5.3-3.2c2,0,3,1.1,2.8,2.8c-0.2,1.3-1.8,3-2.7,2.1
				c0.4-0.5,1-1.3,1.2-2c0.4-1.4,0-2-0.8-2c-1.4,0-3.2,1.8-4.3,3.4c-0.7,1-2.2,3.8-2.2,6.1c0,1.6,0.6,3.1,2.4,3.1c3.5,0,5.4-3.9,7-7
				c0.4-0.7,0.9-0.5,0.6,0.3C279.3,181.3,277.7,184.7,273.3,184.7z"/>
			<path class="st2" d="M281.8,183.6c0.6,0.1,1.4-0.4,1.8-0.8c1.3-1.3,2.6-3.8,3.8-6c0.3-0.7,0.9-0.4,0.5,0.4
				c-1,2.2-3.3,7.3-6.3,7.3c-3,0-3-3.1-2.2-5.2l2.6-6.5c0.3-0.8-0.2-1.5-0.4-1.7l2.2,0c1.3,0,1.3,0.4,0.8,1.4l-3.2,7.5
				c0,0-0.4,0.9-0.5,1.2C280.6,182.4,280.7,183.5,281.8,183.6z M284.7,169.5c-0.9,0-1.5-0.7-1.4-1.6c0.2-0.9,1-1.6,1.9-1.6
				c0.9,0,1.6,0.7,1.4,1.6C286.4,168.7,285.6,169.5,284.7,169.5z"/>
			<path class="st2" d="M295.1,184.2c-1.2,0-2-0.4-2.6-1c-1.1,0.8-2.3,1.4-3.5,1.4c-3-0.1-3.5-3.7-2-7.3c1.6-3.7,4.9-6.8,7.6-6.7
				c3,0,3.5,3.7,2,7.3c-0.6,1.4-1.8,3.3-3.4,4.7c0.3,0.6,0.9,1,1.9,1c2.6,0,4.6-4.9,5.6-6.9c0.2-0.4,0.9-0.2,0.6,0.4
				C300.7,178.5,298.5,184.2,295.1,184.2z M289.9,177.1c-1.6,3.3-1.9,6.1-0.5,6.5c0.8,0.2,1.8-0.2,2.7-1c-0.4-0.6-0.6-1.4-0.6-2
				c0-0.9,0.4-1.7,1.4-1.7c0.7,0,1.2,0.6,1.2,1.2c0,0.2,0,0.3-0.1,0.4c0.4-0.6,0.9-1.4,1.2-2.2c1.6-3.3,1.8-6.1,0.3-6.5
				C293.8,171.4,291.4,173.9,289.9,177.1z M295.3,167.8c-0.2-0.1-0.2-0.4-0.1-0.5c0.2-0.3,4.3-3.1,4.9-3.6c0.6-0.5,1.5-0.9,2.3-0.5
				c0.4,0.2,0.6,0.7,0.4,1.1C302.4,164.9,295.6,167.9,295.3,167.8z"/>
			<path class="st2" d="M308.1,184.7c-1.4,0-3.3-1-2.1-4.7c0.3-1,1.1-2.4,2.2-4.2c1-1.6,0.2-2.6-2.8,0.2c-1.4,1.2-3.3,3.5-5.5,7.9
				c-0.3,0.6-0.7,0.6-1.5,0.6c-0.6,0-1,0-1.4,0.2c1.9-3.8,3.6-7.6,5.5-11.2c1-1.9,1.6-2.6,2.8-2.5c0.5,0,1.1,0.3,1.7,0.2
				c-1.2,0.6-3.4,4.6-4.8,7.5c0.8-1,2.1-2.5,3.3-3.6c1.9-1.7,6-4.2,7.4-3.8c0,0-4.3,7.5-4.8,10.3c-0.3,1.6,0.1,2,0.6,2
				c2.1,0,4.6-5.2,5.5-6.9c0.3-0.7,1-0.4,0.6,0.4C313.5,179.6,311.2,184.7,308.1,184.7z"/>
			<path class="st2" d="M65.6,227.1c-0.4,0.9-1.6,4.3,0.2,4.3c2,0,4.3-5,5.1-6.6c0.3-0.7,1-0.6,0.6,0.2c-1,2.2-3.3,7.4-6.5,7.4
				c-0.6,0-1.3-0.3-1.8-1.1c-0.4-0.7-0.8-1.9-0.4-3.5c-1.2,2-3.1,5.1-5.8,4.4c-3.8-1-1.6-7.5,1.4-11c2.2-2.6,5.7-4,8.6-2.3
				c1.9-3.6,3.7-7.3,4.6-9.5c0.8-1.8,1.4-2.2,2.7-2.1c0.5,0,1.1,0.2,1.7,0.2C74.9,208.7,67.9,221.6,65.6,227.1z M58.2,226
				c-2.6,4.9-0.2,7.4,3.2,2.6c1.5-2.1,3.5-5.5,5.3-9C64.7,217.6,60.3,222.1,58.2,226z"/>
			<path class="st2" d="M73.8,232.5c-2,0-3.8-1.3-3.8-3.8c0-2.4,1.3-5.4,3.1-7.5c2-2.4,5.1-3.9,6.8-2.6c1.5,1.2,0.4,3.9-2.2,5.8
				c-1.2,0.9-3.8,1.8-4.9,1.8c-0.6,1.4-1.3,5.5,1.4,5.5c3.5,0,5.7-4.7,6.6-6.8c0.3-0.7,1.1-0.8,0.7,0
				C79.9,228.1,78.2,232.5,73.8,232.5z M75.4,221.8c-1,1.3-2,3-2.4,3.8c0.7,0,2.8-0.6,4.2-1.8C80.5,221.1,80.3,215.9,75.4,221.8z"/>
			<path class="st2" d="M103.8,231c-2.9,2.4-6.1,3.4-10,2.9c-8.1-1-5.4-10.4,3.6-7.3c1.5,0.6,4.8,2.3,6.1,3
				c5.9-5.7,8.9-16.6,15.2-23.6c-3.9-2.4-8.8-3.3-13.7-2.2c-11.1,2.4-14.4,12.2-8.5,14c4.7,1.5,7.1-3,7.2-4.4c0-0.4,0.9-0.4,0.8,0.4
				c-0.6,4-4.9,6.2-8.4,4.9c-7-2.4-6.7-14,9.7-16.4c4.9-0.7,9.9,0.2,14,2.4c2-2.4,4.1-3.9,5.2-3.6c0.5,0.1,0.3,0.5,0,0.5
				c-1.1,0-3,3.2-3.5,4.1c5.4,3.6,8.9,9.6,8.2,17.2C128.5,235.5,111.9,235.5,103.8,231z M96.5,227.6c-5.8-2-6.5,4.9-1.6,5.1
				c2.9,0.1,5.4-0.8,7.6-2.4C100.6,229.4,98.9,228.4,96.5,227.6z M120.6,207.2c-4.7,7.3-9.9,16.9-14.2,21.6c-0.5,0.6-1,1-1.5,1.4
				c7.7,4.6,21.3,3,22.4-7.3C127.9,216.4,125.1,210.8,120.6,207.2z"/>
			<path class="st2" d="M133,231.5c0.6,0.1,1.4-0.4,1.8-0.8c1.3-1.3,2.6-3.8,3.8-6c0.3-0.7,0.9-0.4,0.5,0.4c-1,2.2-3.3,7.3-6.3,7.3
				c-3,0-3-3.1-2.2-5.2l2.6-6.5c0.3-0.8-0.2-1.5-0.4-1.7l2.2,0c1.3,0,1.3,0.4,0.8,1.4l-3.2,7.5c0,0-0.4,0.9-0.5,1.2
				C131.8,230.3,131.9,231.4,133,231.5z M135.9,217.3c-0.9,0-1.5-0.7-1.4-1.6c0.2-0.9,1-1.6,1.9-1.6c0.9,0,1.6,0.7,1.4,1.6
				C137.6,216.6,136.8,217.3,135.9,217.3z"/>
			<path class="st2" d="M146.3,232.1c-1.2,0-2-0.4-2.6-1c-1.1,0.8-2.3,1.4-3.5,1.4c-3-0.1-3.5-3.7-2-7.3c1.6-3.7,4.9-6.8,7.6-6.7
				c3,0,3.5,3.7,2,7.3c-0.6,1.4-1.8,3.3-3.4,4.7c0.3,0.6,0.9,1,1.9,1c2.6,0,4.6-4.9,5.6-6.9c0.2-0.4,0.9-0.2,0.6,0.4
				C151.9,226.4,149.7,232.1,146.3,232.1z M141.1,225c-1.6,3.3-1.9,6.1-0.5,6.5c0.8,0.2,1.8-0.2,2.7-1c-0.4-0.6-0.6-1.4-0.6-2
				c0-0.9,0.4-1.7,1.4-1.7c0.7,0,1.2,0.6,1.2,1.2c0,0.2,0,0.3-0.1,0.4c0.4-0.6,0.9-1.4,1.2-2.2c1.6-3.3,1.8-6.1,0.3-6.5
				C145,219.3,142.6,221.8,141.1,225z"/>
			<path class="st2" d="M154.4,232.1c-0.6,0.2-1.1,0.4-1.6,0.4c-4.8,0-3.9-5.5-2-5.6c1.1-2,2.4-4.6,3.4-6.9c0.7-1.6,1.9-3.2,3.3-3.4
				c0.6-0.1,1.1,0,1.5,0.2c0.7,0.4,0.6,1-0.2,0.7c-0.4-0.2-0.9-0.2-1.3,0c-1.8,0.9-1.4,3.6-0.8,5.1c0.6,1.5,1.5,3,1.4,4.7
				c-0.1,1.6-1.3,3.4-2.8,4.4l0.3,0c1.4,0.2,2.6-0.6,3.6-1.8c0.9-1.1,2.2-3.6,3-5.2c0.2-0.4,0.8-0.2,0.6,0.2
				C161.3,228.2,158.9,233.5,154.4,232.1z M151.7,228.7c-1.3,1.3-0.8,3.2,0.8,3.2c0.3,0,0.6,0,0.8-0.2
				C152.5,231.2,151.8,230.2,151.7,228.7z M155.2,219.6c-1.1,2.2-2.8,5.6-3.8,7.4c0,0,0.9,0,0.8,1.3c-0.1,1.5,0.8,2.6,1.7,3.1
				c0.9-0.7,1.6-2,1.8-4.2C155.8,224.7,154.9,221.4,155.2,219.6z"/>
			<path class="st2" d="M179.4,234.4c-2.5,4.5-6.5,10.6-12.4,10.6c-4,0-4.4-2.6-3.2-4.9c0.8-1.5,2.2-2.6,3.8-3.3
				c2.7-1.3,6.5-2,9.7-2.9c1.5-2.6,2.8-6.9,3.4-9c-1.4,2.4-4,7.3-7,7.3c-0.8,0-2.2-0.3-2.5-1.8c-0.4-1.7,0.6-3.2,1.4-4.6
				c-0.2,0-0.6-0.1-0.4-0.6l0.7-1.4c0.8-1.5,1.6-3.2,2.2-4.4c0.3-0.6,0.8-0.8,1.6-0.8h2.4c-0.4,0.3-1,0.6-1.5,1.4
				c-1.4,2.3-2.5,4.7-3.6,7.1c-1.9,4.2-0.2,5.7,2.4,2.8c2.2-2.6,4.7-7.3,6.3-10.4c0.3-0.6,0.8-0.8,1.6-0.8h2.2
				c-1.5,1-2.1,2.6-3.1,5.3c-1,2.7-2,6-3.2,9.1c1.8-0.5,4.2-1.7,5.7-4c1.2-1.8,2.1-3.6,2.5-4.4c0.4-0.7,1-0.4,0.6,0.4
				C186.2,230.6,185.2,232.3,179.4,234.4z M168.3,237.7c-4.1,1.8-5.6,6.5-2.2,6.5c3.5,0,7.7-4.9,9.6-7.5l0.9-1.5
				C174,235.9,170.6,236.7,168.3,237.7z"/>
			<path class="st2" d="M206.1,232.5c-1.4,0-3.3-1-2.1-4.7c0.3-1,1.1-2.4,2.2-4.2c1-1.6,0.2-2.6-2.8,0.2c-1.4,1.2-3.3,3.5-5.5,7.9
				c-0.3,0.6-0.7,0.6-1.5,0.6c-0.6,0-1,0-1.4,0.2c1.9-3.8,3.6-7.6,5.5-11.2c1-1.9,1.6-2.6,2.8-2.5c0.5,0,1.1,0.3,1.7,0.2
				c-1.2,0.6-3.4,4.6-4.8,7.5c0.8-1,2.1-2.5,3.3-3.6c1.9-1.7,6-4.2,7.4-3.8c0,0-4.3,7.5-4.8,10.3c-0.3,1.6,0.1,2,0.6,2
				c2.1,0,4.6-5.2,5.5-6.9c0.3-0.7,1-0.4,0.6,0.4C211.5,227.5,209.2,232.5,206.1,232.5z"/>
			<path class="st2" d="M220.6,232.3c-1.8,0-2.9-1.9-1.8-5.1c-1.4,2.4-3.4,5.1-5.4,5.1c-0.8,0-2.2-0.3-2.5-1.8
				c-0.4-1.7,0.6-3.2,1.4-4.6c-0.2,0-0.6-0.1-0.4-0.6l0.7-1.4c0.8-1.5,1.6-3.2,2.2-4.4c0.3-0.6,0.8-0.8,1.6-0.8h2.4
				c-0.9,0.7-1.5,1.2-2.6,3.4c0,0-1.8,3.6-2.5,5.1c-1.9,4.2-0.2,5.7,2.4,2.8c2.2-2.6,4.4-7.3,5.9-10.4c0.3-0.6,0.8-0.8,1.6-0.8h2.2
				c-1.2,0.9-1.6,1.5-2.8,4c-1.1,2.2-2.4,5-2.7,6.3c-0.4,1.7,0.2,2.4,0.8,2.4c2,0,4-3.8,5.3-6.7c0.3-0.7,1-0.4,0.6,0.4
				C225.6,227.8,223.5,232.3,220.6,232.3z"/>
			<path class="st2" d="M229.2,232.5c-2,0-3.8-1.3-3.8-3.8c0-2.4,1.3-5.4,3.1-7.5c2-2.4,5.1-3.9,6.8-2.6c1.5,1.2,0.4,3.9-2.2,5.8
				c-1.2,0.9-3.8,1.8-4.9,1.8c-0.6,1.4-1.3,5.5,1.4,5.5c3.5,0,5.7-4.7,6.6-6.8c0.3-0.7,1.1-0.8,0.7,0
				C235.3,228.1,233.6,232.5,229.2,232.5z M230.8,221.8c-1,1.3-2,3-2.4,3.8c0.7,0,2.8-0.6,4.2-1.8
				C235.9,221.1,235.7,215.9,230.8,221.8z"/>
			<path class="st2" d="M238.6,232.1c-0.6,0.2-1.1,0.4-1.6,0.4c-4.8,0-3.9-5.5-2-5.6c1.1-2,2.4-4.6,3.4-6.9c0.7-1.6,1.9-3.2,3.3-3.4
				c0.6-0.1,1.1,0,1.5,0.2c0.7,0.4,0.6,1-0.2,0.7c-0.4-0.2-0.9-0.2-1.3,0c-1.8,0.9-1.4,3.6-0.8,5.1c0.6,1.5,1.5,3,1.4,4.7
				c-0.1,1.6-1.3,3.4-2.8,4.4l0.3,0c1.4,0.2,2.6-0.6,3.6-1.8c0.9-1.1,2.2-3.6,3-5.2c0.2-0.4,0.8-0.2,0.6,0.2
				C245.6,228.2,243.2,233.5,238.6,232.1z M235.9,228.7c-1.3,1.3-0.8,3.2,0.8,3.2c0.3,0,0.6,0,0.8-0.2
				C236.7,231.2,236,230.2,235.9,228.7z M239.4,219.6c-1.1,2.2-2.8,5.6-3.8,7.4c0,0,0.9,0,0.8,1.3c-0.1,1.5,0.8,2.6,1.7,3.1
				c0.9-0.7,1.6-2,1.8-4.2C240.1,224.7,239.1,221.4,239.4,219.6z"/>
			<path class="st2" d="M256.1,218.1h-2.3c-1.4,2.3-3,4.4-5.3,6.6c-0.4,1-0.9,4.1-0.9,4.1c-0.6,2.7,1.2,3,2.6,2.1
				c1.8-1.4,3.2-3.9,4.2-6c0.3-0.7,0.9-0.6,0.5,0.2c-1.8,3.7-2.4,4.7-3.9,6.2c-2.2,2.1-6.1,1.4-5.5-3c0.4-2.7,1.8-7.1,3.1-10.2h-2.1
				c-0.4,0-0.4-0.9,0.1-0.9h2.4c0.9-2,1.9-4,2.9-5.7c2.8-4.8,7.1-4.2,4.1,2.2c-0.6,1.2-1.1,2.3-1.7,3.4h1.9
				C256.6,217.2,256.5,218.1,256.1,218.1z M251,218.1c-0.8,2-1.6,3.9-2.2,5.3c1.5-1.6,2.9-3.4,4-5.3H251z M254.3,211.4
				c-1,1.4-1.8,3.6-2.8,5.8h2c0.8-1.4,1.4-2.8,2-4.1C256.2,211.5,256.7,207.9,254.3,211.4z"/>
			<path class="st2" d="M259.5,232.3c-1.4,0.3-3.8-0.9-2.2-5c0.6-1.6,2-3.7,2.5-4.7c0.6-1.3-0.8-1.8-3.1-1.9l-0.5,1.3
				c-1,2.5-2.9,6.9-4.8,8.8c-0.3,0.3-0.6-0.2-0.3-0.5c3.2-4.2,5.3-10.2,6.1-14.6c0.4-2.2,3-1.2,2.4,1.4c-0.2,1.1-1.5,2.2-2.2,2.7
				c1.5,0.1,3.6,0,5.5-0.2c0.3,0.6-0.4,2.1-0.8,3.1c-0.6,1.2-4.7,8.5-2.3,8.7c1.6,0,4.1-5,4.9-6.7c0.4-0.7,0.9-0.4,0.5,0.4
				C264.1,227.5,262.1,231.7,259.5,232.3z"/>
			<path class="st2" d="M272.5,232.1c-1.2,0-2-0.4-2.6-1c-1.1,0.8-2.3,1.4-3.5,1.4c-3-0.1-3.5-3.7-2-7.3c1.6-3.7,4.9-6.8,7.6-6.7
				c3,0,3.5,3.7,2,7.3c-0.6,1.4-1.8,3.3-3.4,4.7c0.3,0.6,0.9,1,1.9,1c2.6,0,4.6-4.9,5.6-6.9c0.2-0.4,0.9-0.2,0.6,0.4
				C278.1,226.4,275.8,232.1,272.5,232.1z M267.3,225c-1.6,3.3-1.9,6.1-0.5,6.5c0.8,0.2,1.8-0.2,2.7-1c-0.4-0.6-0.6-1.4-0.6-2
				c0-0.9,0.4-1.7,1.4-1.7c0.7,0,1.2,0.6,1.2,1.2c0,0.2,0,0.3-0.1,0.4c0.4-0.6,0.9-1.4,1.2-2.2c1.6-3.3,1.8-6.1,0.3-6.5
				C271.2,219.3,268.7,221.8,267.3,225z"/>
			<path class="st2" d="M280.6,232.1c-0.6,0.2-1.1,0.4-1.6,0.4c-4.8,0-3.9-5.5-2-5.6c1.1-2,2.4-4.6,3.4-6.9c0.7-1.6,1.9-3.2,3.3-3.4
				c0.6-0.1,1.1,0,1.5,0.2c0.7,0.4,0.6,1-0.2,0.7c-0.4-0.2-0.9-0.2-1.3,0c-1.8,0.9-1.4,3.6-0.8,5.1c0.6,1.5,1.5,3,1.4,4.7
				c-0.1,1.6-1.3,3.4-2.8,4.4l0.3,0c1.4,0.2,2.6-0.6,3.6-1.8c0.9-1.1,2.2-3.6,3-5.2c0.2-0.4,0.8-0.2,0.6,0.2
				C287.5,228.2,285.1,233.5,280.6,232.1z M277.9,228.7c-1.3,1.3-0.8,3.2,0.8,3.2c0.3,0,0.6,0,0.8-0.2
				C278.6,231.2,278,230.2,277.9,228.7z M281.4,219.6c-1.1,2.2-2.8,5.6-3.8,7.4c0,0,0.9,0,0.8,1.3c-0.1,1.5,0.8,2.6,1.7,3.1
				c0.9-0.7,1.6-2,1.8-4.2C282,224.7,281.1,221.4,281.4,219.6z"/>
			<path class="st2" d="M307.3,229.4c-2.2,2.6-5.7,4-8.5,2.3l-3.8,9.5c-0.8,1.7-1.4,2.2-2.7,2.1c-0.5,0-1.1-0.3-1.7-0.2
				c1-1,7.8-13.9,8.5-17.6c-0.4,0.7-1.2,0.9-0.9,0.4c0.2-0.4,0.6-1.3,0.8-1.8c0.8-1.8,1.2-4.8,0.2-5c0,0,1.6-0.3,2-0.3
				c1.2-0.1,1.5-0.3,1.4,1.6c0,1.3-0.6,3.4-1.1,4.8c1.2-2,4.4-7.5,7.1-6.7C312.4,219.5,310.2,225.8,307.3,229.4z M304.4,222
				c-1.5,2.1-3.5,5.5-5.3,9.1c2,2,6.3-2.5,8.5-6.4C310.2,219.7,307.8,217.3,304.4,222z"/>
			<path class="st2" d="M320.6,232.5c-1.3,0.1-3.2-1-2-5.1c-0.6,1-1.7,2.6-2.9,3.8c-4.6,4.4-7.6-2.6-1.6-9.8c2.4-2.8,7-4.3,9.3-1.8
				c0.6,0.6,0.2,1.3-0.4,1.2c-0.4-1.5-1.9-1.8-3.4-1c-1.8,1-3.9,3.4-5.3,5.7c-0.3,0.6-1.4,2.5-1.6,4c-0.4,2.8,1.8,2.5,3.7,0.2
				c1.4-1.7,2.5-3.6,3.6-5.6c0.9-1.7,1.4-2.6,2.7-2.6c0.5,0,1.1,0.3,1.7,0.2c-0.8,0.8-3.2,5-3.7,7.5c-0.3,1.6-0.1,2.4,0.4,2.4
				c1.7,0.1,4.3-5,5.1-6.7c0.4-0.7,1-0.5,0.6,0.3C325.4,227.5,323,232.3,320.6,232.5z"/>
			<path class="st2" d="M335.3,227.1c-0.4,0.9-1.6,4.3,0.2,4.3c2,0,4.3-5,5.1-6.6c0.3-0.7,1-0.6,0.6,0.2c-1,2.2-3.3,7.4-6.5,7.4
				c-0.6,0-1.3-0.3-1.8-1.1c-0.4-0.7-0.8-1.9-0.4-3.5c-1.2,2-3.1,5.1-5.8,4.4c-3.8-1-1.6-7.5,1.4-11c2.2-2.6,5.7-4,8.6-2.3
				c1.9-3.6,3.7-7.3,4.6-9.5c0.8-1.8,1.4-2.2,2.7-2.1c0.5,0,1.1,0.2,1.7,0.2C344.6,208.7,337.6,221.6,335.3,227.1z M327.9,226
				c-2.6,4.9-0.2,7.4,3.2,2.6c1.5-2.1,3.5-5.5,5.3-9C334.4,217.6,330,222.1,327.9,226z"/>
			<path class="st2" d="M345.8,232.3c-1.4,0.3-3.8-0.9-2.2-5c0.6-1.6,2-3.7,2.5-4.7c0.6-1.3-0.8-1.8-3.1-1.9l-0.5,1.3
				c-1,2.5-2.9,6.9-4.8,8.8c-0.3,0.3-0.6-0.2-0.3-0.5c3.2-4.2,5.3-10.2,6.1-14.6c0.4-2.2,3-1.2,2.4,1.4c-0.2,1.1-1.5,2.2-2.2,2.7
				c1.5,0.1,3.6,0,5.5-0.2c0.3,0.6-0.4,2.1-0.8,3.1c-0.6,1.2-4.7,8.5-2.3,8.7c1.6,0,4.1-5,4.9-6.7c0.4-0.7,0.9-0.4,0.5,0.4
				C350.4,227.5,348.4,231.7,345.8,232.3z"/>
			<path class="st2" d="M353.9,232.5c-2,0-3.8-1.3-3.8-3.8c0-2.4,1.3-5.4,3.1-7.5c2-2.4,5.1-3.9,6.8-2.6c1.5,1.2,0.4,3.9-2.2,5.8
				c-1.2,0.9-3.8,1.8-4.9,1.8c-0.6,1.4-1.3,5.5,1.4,5.5c3.5,0,5.7-4.7,6.6-6.8c0.3-0.7,1.1-0.8,0.7,0
				C360,228.1,358.3,232.5,353.9,232.5z M355.5,221.8c-1,1.3-2,3-2.4,3.8c0.7,0,2.8-0.6,4.2-1.8
				C360.6,221.1,360.4,215.9,355.5,221.8z"/>
			<path class="st2" d="M363.4,232.1c-0.6,0.2-1.1,0.4-1.6,0.4c-4.8,0-3.9-5.5-2-5.6c1.1-2,2.4-4.6,3.4-6.9c0.7-1.6,1.9-3.2,3.3-3.4
				c0.6-0.1,1.1,0,1.5,0.2c0.7,0.4,0.6,1-0.2,0.7c-0.4-0.2-0.9-0.2-1.3,0c-1.8,0.9-1.4,3.6-0.8,5.1c0.6,1.5,1.5,3,1.4,4.7
				c-0.1,1.6-1.3,3.4-2.8,4.4l0.3,0c1.4,0.2,2.6-0.6,3.6-1.8c0.9-1.1,2.2-3.6,3-5.2c0.2-0.4,0.8-0.2,0.6,0.2
				C370.3,228.2,367.9,233.5,363.4,232.1z M360.6,228.7c-1.3,1.3-0.8,3.2,0.8,3.2c0.3,0,0.6,0,0.8-0.2
				C361.4,231.2,360.7,230.2,360.6,228.7z M364.2,219.6c-1.1,2.2-2.8,5.6-3.8,7.4c0,0,0.9,0,0.8,1.3c-0.1,1.5,0.8,2.6,1.7,3.1
				c0.9-0.7,1.6-2,1.8-4.2C364.8,224.7,363.8,221.4,364.2,219.6z"/>
		</g>
	</g>
	<g>
		<g>
			<path class="st3" d="M67.9,268.9v0.2h-7.2v7.3h6.7v0.2h-6.7v8.2h-1.9v-16H67.9z"/>
			<path class="st3" d="M74.1,274.5V274c-0.7,0.3-1.3,0.8-1.9,1.7c-0.6,0.8-0.9,1.6-0.9,2.3v6.9h-1.6v-11.4h1.6v3.6
				c0.2-0.9,0.7-1.7,1.4-2.5s1.5-1.2,2.3-1.2h0.1c0.3,0,0.6,0.1,0.8,0.3c0.2,0.2,0.3,0.5,0.3,0.8s-0.1,0.6-0.3,0.8
				c-0.2,0.2-0.5,0.3-0.8,0.3c-0.3,0-0.6-0.1-0.8-0.3C74.2,275,74.1,274.8,74.1,274.5z"/>
			<path class="st3" d="M87.2,284.9c-1,0-1.7-0.2-2.1-0.6c-0.4-0.3-0.5-0.6-0.5-0.9v-0.5c-0.7,1.4-1.9,2-3.6,2c-1.9,0-3-0.9-3.3-2.6
				c0-0.2,0-0.4,0-0.6c0-0.2,0-0.4,0.1-0.6c0.1-0.2,0.2-0.5,0.5-0.8c0.6-0.5,1.8-0.9,3.8-1c0.5,0,0.9-0.1,1.3-0.1s0.8,0,1.1,0v-3.8
				c0,0,0-0.1,0-0.2c0-0.1,0-0.3-0.1-0.5c-0.1-0.2-0.2-0.4-0.3-0.6c-0.1-0.2-0.4-0.4-0.7-0.5c-0.4-0.1-0.8-0.2-1.4-0.2
				c-0.6,0-1.2,0.1-2,0.3c-0.8,0.2-1.3,0.4-1.7,0.6l-0.1-0.2c1.4-0.6,2.7-0.9,4.1-0.9c1.6,0,2.6,0.3,3.1,0.8
				c0.4,0.4,0.6,0.9,0.6,1.4v7.6c0,0.4,0.1,0.8,0.3,1c0.2,0.2,0.4,0.4,0.5,0.4l0.3,0h0.7v0.2H87.2z M81.3,284.8
				c0.8,0,1.5-0.3,2.2-0.8c0.6-0.6,1-1.1,1-1.6v-2.8c-0.4,0-0.8,0-1.2,0c-0.4,0-0.8,0-1.2,0.1c-1.2,0.1-1.9,0.4-2.3,0.8
				c-0.4,0.4-0.5,0.9-0.5,1.6c0,0.1,0,0.3,0,0.4C79.4,284,80.1,284.8,81.3,284.8z"/>
			<path class="st3" d="M99.2,284.9c-0.6,0-1.1-0.1-1.4-0.4c-0.3-0.3-0.5-0.5-0.5-0.8l0-0.4v-7.2c0-1.2-0.3-2-0.9-2.3
				c-0.3-0.2-0.7-0.2-1.2-0.2c-1,0-1.8,0.4-2.6,1.2c-0.8,0.8-1.2,1.5-1.2,2.1v8.1h-1.6v-11.4h1.6v2.6c0.3-0.7,0.7-1.3,1.4-1.8
				c0.7-0.6,1.5-0.9,2.3-0.9c0.8,0,1.5,0.1,2,0.2c0.5,0.2,0.9,0.4,1.2,0.7c0.4,0.5,0.6,1.1,0.6,1.8v7.1c0,0.4,0.1,0.8,0.3,1
				c0.2,0.2,0.4,0.4,0.5,0.4l0.3,0h0.7v0.2H99.2z"/>
			<path class="st3" d="M107.4,273.6c-1.1,0-2,0.5-2.7,1.6c-0.7,1-1.1,2.5-1.1,4.3c0,1.8,0.3,3.2,1,4.1c0.7,0.9,1.5,1.3,2.6,1.3
				c1.4,0,2.6-0.2,3.6-0.7l0.1,0.2c-1.1,0.5-2.3,0.7-3.8,0.7c-1.4,0-2.6-0.5-3.6-1.4c-1-0.9-1.4-2.3-1.4-4.2s0.5-3.4,1.5-4.4
				c1-1,2.3-1.6,3.8-1.6c0.9,0,1.7,0.2,2.4,0.6c0.7,0.4,1.3,1,1.6,1.8H110c-0.2-0.7-0.6-1.3-1-1.7
				C108.5,273.7,108,273.6,107.4,273.6z"/>
			<path class="st3" d="M114.1,270.9c-0.2-0.2-0.3-0.4-0.3-0.7c0-0.3,0.1-0.5,0.3-0.7c0.2-0.2,0.4-0.3,0.7-0.3
				c0.3,0,0.5,0.1,0.7,0.3c0.2,0.2,0.3,0.4,0.3,0.7c0,0.3-0.1,0.5-0.3,0.7c-0.2,0.2-0.4,0.3-0.7,0.3
				C114.5,271.2,114.3,271.1,114.1,270.9z M115.9,284.9c-0.6,0-1.1-0.1-1.4-0.4c-0.3-0.3-0.5-0.5-0.5-0.8l0-0.4v-9.8h1.6v9.8
				c0,0.4,0.1,0.8,0.3,1c0.2,0.2,0.3,0.4,0.5,0.4l0.3,0h0.7v0.2H115.9z"/>
			<path class="st3" d="M126.1,274.3c-0.2-0.2-0.6-0.4-1.2-0.5c-0.5-0.1-0.9-0.2-1.2-0.2c-0.3,0-0.4,0-0.5,0c-0.8,0-1.4,0.2-1.8,0.6
				c-0.4,0.4-0.5,0.9-0.5,1.4c0,0.5,0.2,0.9,0.5,1.3c0.3,0.3,0.7,0.6,1.2,0.8c0.5,0.2,1,0.4,1.6,0.7c0.6,0.2,1.1,0.5,1.6,0.7
				c0.5,0.3,0.9,0.6,1.2,1.1c0.3,0.5,0.5,1.1,0.5,1.8c0,0.7-0.3,1.3-0.8,1.8c-0.5,0.5-1.1,0.8-1.7,1s-1.3,0.3-2,0.3
				c-1.6,0-2.7-0.3-3.5-1l0.1-0.1c0.3,0.3,0.8,0.5,1.4,0.7c0.6,0.2,1.2,0.3,1.7,0.3c0.9,0,1.6-0.2,2.2-0.7c0.6-0.5,0.9-1.1,0.9-1.8
				c0-0.7-0.2-1.3-0.7-1.8c-0.4-0.4-1-0.8-1.6-1c-0.6-0.3-1.3-0.5-1.9-0.8c-0.6-0.3-1.2-0.6-1.6-1c-0.4-0.4-0.7-1-0.7-1.6
				c0-0.6,0.1-1.1,0.4-1.4c0.3-0.4,0.6-0.6,1.1-0.8c0.8-0.3,1.6-0.4,2.3-0.4c1.3,0,2.3,0.2,3.1,0.7L126.1,274.3z"/>
			<path class="st3" d="M135,273.6c-1.1,0-2,0.5-2.7,1.6c-0.7,1-1.1,2.5-1.1,4.3c0,1.8,0.3,3.2,1,4.1c0.7,0.9,1.5,1.3,2.6,1.3
				c1.4,0,2.6-0.2,3.6-0.7l0.1,0.2c-1.1,0.5-2.3,0.7-3.8,0.7c-1.4,0-2.6-0.5-3.6-1.4c-1-0.9-1.4-2.3-1.4-4.2s0.5-3.4,1.5-4.4
				c1-1,2.3-1.6,3.8-1.6c0.9,0,1.7,0.2,2.4,0.6c0.7,0.4,1.3,1,1.6,1.8h-1.5c-0.2-0.7-0.6-1.3-1-1.7
				C136.1,273.7,135.6,273.6,135,273.6z"/>
			<path class="st3" d="M146.2,285c-1.6,0-2.9-0.5-3.9-1.4s-1.5-2.3-1.5-4.2s0.5-3.4,1.6-4.4c1-1,2.4-1.6,4-1.6
				c1.6,0,2.9,0.5,3.9,1.4c1,0.9,1.5,2.3,1.5,4.2c0,1.9-0.5,3.4-1.6,4.4C149.1,284.4,147.8,285,146.2,285z M146.3,273.6
				c-1.2,0-2.1,0.5-2.9,1.5c-0.8,1-1.1,2.5-1.1,4.3c0,1.8,0.3,3.2,1,4.1c0.7,0.9,1.6,1.3,2.8,1.3s2.1-0.5,2.9-1.5
				c0.8-1,1.1-2.5,1.1-4.3s-0.4-3.2-1-4.1C148.4,274,147.5,273.6,146.3,273.6z"/>
			<path class="st3" d="M169.7,285c-2.8,0-4.9-0.8-6.3-2.4c-0.5-0.6-0.9-1.3-1.2-2.3c-0.3-1-0.5-2.1-0.5-3.5s0.2-2.6,0.7-3.7
				c0.4-1.1,1.1-1.9,1.8-2.5c1.5-1.1,3.3-1.7,5.4-1.7c0.6,0,1.2,0,1.8,0.1c0.6,0.1,1,0.2,1.3,0.3l0.4,0.2l-0.1,0.2
				c-1-0.4-2.2-0.6-3.4-0.6c-1.6,0-3,0.5-4,1.6c-0.8,0.8-1.4,1.9-1.7,3.4c-0.2,0.9-0.3,1.9-0.3,3.1s0.2,2.4,0.5,3.4
				c0.4,1,0.7,1.8,1.2,2.3c0.4,0.5,1,0.9,1.6,1.2c0.6,0.3,1.1,0.5,1.5,0.5c0.4,0,0.8,0.1,1.4,0.1c0.5,0,1.2-0.1,1.8-0.2
				c0.7-0.1,1.2-0.2,1.6-0.3l0.5-0.2l0.1,0.2C172.7,284.8,171.3,285,169.7,285z"/>
			<path class="st3" d="M185.5,284.9c-1,0-1.7-0.2-2.1-0.6c-0.4-0.3-0.5-0.6-0.5-0.9v-0.5c-0.7,1.4-1.9,2-3.6,2
				c-1.9,0-3-0.9-3.3-2.6c0-0.2,0-0.4,0-0.6c0-0.2,0-0.4,0.1-0.6c0.1-0.2,0.2-0.5,0.5-0.8c0.6-0.5,1.8-0.9,3.8-1
				c0.5,0,0.9-0.1,1.3-0.1c0.4,0,0.8,0,1.1,0v-3.8c0,0,0-0.1,0-0.2c0-0.1,0-0.3-0.1-0.5c-0.1-0.2-0.2-0.4-0.3-0.6
				c-0.1-0.2-0.4-0.4-0.7-0.5c-0.4-0.1-0.8-0.2-1.4-0.2c-0.6,0-1.2,0.1-2,0.3c-0.8,0.2-1.3,0.4-1.7,0.6l-0.1-0.2
				c1.4-0.6,2.7-0.9,4.1-0.9c1.6,0,2.6,0.3,3.1,0.8c0.4,0.4,0.6,0.9,0.6,1.4v7.6c0,0.4,0.1,0.8,0.3,1c0.2,0.2,0.4,0.4,0.5,0.4l0.3,0
				h0.7v0.2H185.5z M179.7,284.8c0.8,0,1.5-0.3,2.2-0.8c0.6-0.6,1-1.1,1-1.6v-2.8c-0.4,0-0.8,0-1.2,0s-0.8,0-1.2,0.1
				c-1.2,0.1-1.9,0.4-2.3,0.8c-0.4,0.4-0.5,0.9-0.5,1.6c0,0.1,0,0.3,0,0.4C177.8,284,178.5,284.8,179.7,284.8z"/>
			<path class="st3" d="M192.4,274.5V274c-0.7,0.3-1.3,0.8-1.9,1.7c-0.6,0.8-0.9,1.6-0.9,2.3v6.9h-1.6v-11.4h1.6v3.6
				c0.2-0.9,0.7-1.7,1.4-2.5s1.5-1.2,2.3-1.2h0.1c0.3,0,0.6,0.1,0.8,0.3c0.2,0.2,0.3,0.5,0.3,0.8s-0.1,0.6-0.3,0.8
				c-0.2,0.2-0.5,0.3-0.8,0.3c-0.3,0-0.6-0.1-0.8-0.3C192.5,275,192.4,274.8,192.4,274.5z"/>
			<path class="st3" d="M201.2,274.5V274c-0.7,0.3-1.3,0.8-1.9,1.7c-0.6,0.8-0.9,1.6-0.9,2.3v6.9h-1.6v-11.4h1.6v3.6
				c0.2-0.9,0.7-1.7,1.4-2.5s1.5-1.2,2.3-1.2h0.1c0.3,0,0.6,0.1,0.8,0.3c0.2,0.2,0.3,0.5,0.3,0.8s-0.1,0.6-0.3,0.8
				c-0.2,0.2-0.5,0.3-0.8,0.3c-0.3,0-0.6-0.1-0.8-0.3C201.3,275,201.2,274.8,201.2,274.5z"/>
			<path class="st3" d="M214.3,284.9c-1,0-1.7-0.2-2.1-0.6c-0.4-0.3-0.5-0.6-0.5-0.9v-0.5c-0.7,1.4-1.9,2-3.6,2
				c-1.9,0-3-0.9-3.3-2.6c0-0.2,0-0.4,0-0.6c0-0.2,0-0.4,0.1-0.6c0.1-0.2,0.2-0.5,0.5-0.8c0.6-0.5,1.8-0.9,3.8-1
				c0.5,0,0.9-0.1,1.3-0.1c0.4,0,0.8,0,1.1,0v-3.8c0,0,0-0.1,0-0.2c0-0.1,0-0.3-0.1-0.5c-0.1-0.2-0.2-0.4-0.3-0.6
				c-0.1-0.2-0.4-0.4-0.7-0.5c-0.4-0.1-0.8-0.2-1.4-0.2c-0.6,0-1.2,0.1-2,0.3c-0.8,0.2-1.3,0.4-1.7,0.6l-0.1-0.2
				c1.4-0.6,2.7-0.9,4.1-0.9c1.6,0,2.6,0.3,3.1,0.8c0.4,0.4,0.6,0.9,0.6,1.4v7.6c0,0.4,0.1,0.8,0.3,1c0.2,0.2,0.4,0.4,0.5,0.4l0.3,0
				h0.7v0.2H214.3z M208.5,284.8c0.8,0,1.5-0.3,2.2-0.8c0.6-0.6,1-1.1,1-1.6v-2.8c-0.4,0-0.8,0-1.2,0s-0.8,0-1.2,0.1
				c-1.2,0.1-1.9,0.4-2.3,0.8c-0.4,0.4-0.5,0.9-0.5,1.6c0,0.1,0,0.3,0,0.4C206.6,284,207.2,284.8,208.5,284.8z"/>
			<path class="st3" d="M226.3,284.9c-0.6,0-1.1-0.1-1.4-0.4c-0.3-0.3-0.5-0.5-0.5-0.8l0-0.4v-7.2c0-1.2-0.3-2-0.9-2.3
				c-0.3-0.2-0.7-0.2-1.2-0.2c-1,0-1.8,0.4-2.6,1.2c-0.8,0.8-1.2,1.5-1.2,2.1v8.1h-1.6v-11.4h1.6v2.6c0.3-0.7,0.7-1.3,1.4-1.8
				c0.7-0.6,1.5-0.9,2.3-0.9c0.8,0,1.5,0.1,2,0.2c0.5,0.2,0.9,0.4,1.2,0.7c0.4,0.5,0.6,1.1,0.6,1.8v7.1c0,0.4,0.1,0.8,0.3,1
				c0.2,0.2,0.4,0.4,0.5,0.4l0.3,0h0.7v0.2H226.3z"/>
			<path class="st3" d="M229.9,273.7v-0.2h7.9v0.2l-6.9,11h5.5c1,0,1.7-0.3,1.9-0.9l0.1,0.1c0,0.1-0.1,0.2-0.2,0.3
				c-0.1,0.1-0.2,0.3-0.4,0.4c-0.4,0.2-0.9,0.4-1.5,0.4h-7v-0.2l6.9-11H229.9z"/>
			<path class="st3" d="M250.1,284.9c-1,0-1.7-0.2-2.1-0.6c-0.4-0.3-0.5-0.6-0.5-0.9v-0.5c-0.7,1.4-1.9,2-3.6,2
				c-1.9,0-3-0.9-3.3-2.6c0-0.2,0-0.4,0-0.6c0-0.2,0-0.4,0.1-0.6c0.1-0.2,0.2-0.5,0.5-0.8c0.6-0.5,1.8-0.9,3.8-1
				c0.5,0,0.9-0.1,1.3-0.1c0.4,0,0.8,0,1.1,0v-3.8c0,0,0-0.1,0-0.2c0-0.1,0-0.3-0.1-0.5c-0.1-0.2-0.2-0.4-0.3-0.6
				c-0.1-0.2-0.4-0.4-0.7-0.5c-0.4-0.1-0.8-0.2-1.4-0.2c-0.6,0-1.2,0.1-2,0.3c-0.8,0.2-1.3,0.4-1.7,0.6l-0.1-0.2
				c1.4-0.6,2.7-0.9,4.1-0.9c1.6,0,2.6,0.3,3.1,0.8c0.4,0.4,0.6,0.9,0.6,1.4v7.6c0,0.4,0.1,0.8,0.3,1c0.2,0.2,0.4,0.4,0.5,0.4l0.3,0
				h0.7v0.2H250.1z M244.2,284.8c0.8,0,1.5-0.3,2.2-0.8c0.6-0.6,1-1.1,1-1.6v-2.8c-0.4,0-0.8,0-1.2,0c-0.4,0-0.8,0-1.2,0.1
				c-1.2,0.1-1.9,0.4-2.3,0.8c-0.4,0.4-0.5,0.9-0.5,1.6c0,0.1,0,0.3,0,0.4C242.3,284,243,284.8,244.2,284.8z"/>
			<path class="st3" d="M260.5,284.9h-0.3l6.8-16l0.3-0.1l5.7,16.1h-1.9l-1.8-5h-6.7L260.5,284.9z M266.3,271.4l-3.6,8.3h6.5
				L266.3,271.4z"/>
			<path class="st3" d="M277.9,284.9c-1.3,0-2.2-0.4-2.5-1c-0.1-0.2-0.1-0.3-0.1-0.4v-15.6h1.6v15.5c0,0.4,0.1,0.8,0.3,1
				c0.2,0.2,0.4,0.4,0.5,0.4l0.3,0h0.7v0.2H277.9z"/>
			<path class="st3" d="M280.7,273.7v-0.2h0.5v-2.3h1.6v2.3h3.5v0.2h-3.5v8.3c0,1,0.1,1.7,0.3,2.1c0.2,0.4,0.7,0.7,1.4,0.7
				c0.7,0,1.4-0.1,2.2-0.4l0.1,0.2c-0.8,0.3-1.6,0.4-2.6,0.4c-1,0-1.7-0.2-2.2-0.6c-0.5-0.4-0.7-1.2-0.7-2.4v-8.3H280.7z"/>
			<path class="st3" d="M298,284.9c-1,0-1.7-0.2-2.1-0.6c-0.4-0.3-0.5-0.6-0.5-0.9v-0.5c-0.7,1.4-1.9,2-3.6,2c-1.9,0-3-0.9-3.3-2.6
				c0-0.2,0-0.4,0-0.6c0-0.2,0-0.4,0.1-0.6c0.1-0.2,0.2-0.5,0.5-0.8c0.6-0.5,1.8-0.9,3.8-1c0.5,0,0.9-0.1,1.3-0.1s0.8,0,1.1,0v-3.8
				c0,0,0-0.1,0-0.2c0-0.1,0-0.3-0.1-0.5c-0.1-0.2-0.2-0.4-0.3-0.6c-0.1-0.2-0.4-0.4-0.7-0.5c-0.4-0.1-0.8-0.2-1.4-0.2
				c-0.6,0-1.2,0.1-2,0.3c-0.8,0.2-1.3,0.4-1.7,0.6l-0.1-0.2c1.4-0.6,2.7-0.9,4.1-0.9c1.6,0,2.6,0.3,3.1,0.8
				c0.4,0.4,0.6,0.9,0.6,1.4v7.6c0,0.4,0.1,0.8,0.3,1c0.2,0.2,0.4,0.4,0.5,0.4l0.3,0h0.7v0.2H298z M292.1,284.8
				c0.8,0,1.5-0.3,2.2-0.8c0.6-0.6,1-1.1,1-1.6v-2.8c-0.4,0-0.8,0-1.2,0c-0.4,0-0.8,0-1.2,0.1c-1.2,0.1-1.9,0.4-2.3,0.8
				c-0.4,0.4-0.5,0.9-0.5,1.6c0,0.1,0,0.3,0,0.4C290.3,284,290.9,284.8,292.1,284.8z"/>
			<path class="st3" d="M314.3,276.1c0-0.9-0.1-1.6-0.4-2c-0.2-0.4-0.7-0.6-1.4-0.6c-0.9,0-1.7,0.4-2.4,1.1
				c-0.7,0.8-1.1,1.4-1.1,2.1v8.1h-1.6v-8.8c0-0.9-0.1-1.6-0.4-2c-0.2-0.4-0.8-0.6-1.6-0.6s-1.5,0.4-2.2,1.1c-0.7,0.7-1.1,1.4-1.2,2
				v8.2h-1.6v-11.4h1.6v2.6c0.2-0.7,0.7-1.3,1.3-1.8c0.7-0.6,1.4-0.8,2.2-0.8c0.8,0,1.4,0.1,1.9,0.2c0.5,0.1,0.8,0.4,1,0.7
				c0.2,0.3,0.3,0.6,0.4,0.8c0,0.2,0.1,0.5,0.1,1c0.2-0.7,0.7-1.3,1.3-1.8c0.6-0.6,1.3-0.8,2.1-0.8c0.7,0,1.3,0.1,1.8,0.2
				c0.4,0.1,0.8,0.3,1,0.4c0.2,0.2,0.4,0.4,0.5,0.7c0.1,0.3,0.2,0.5,0.2,0.7c0,0.2,0,0.4,0,0.8v7.1c0,0.4,0.1,0.8,0.3,1
				c0.2,0.2,0.4,0.4,0.5,0.4l0.3,0h0.7v0.2h-1.4c-0.6,0-1.1-0.1-1.4-0.4c-0.3-0.3-0.5-0.5-0.5-0.8l0-0.4V276.1z"/>
			<path class="st3" d="M319.4,270.9c-0.2-0.2-0.3-0.4-0.3-0.7c0-0.3,0.1-0.5,0.3-0.7c0.2-0.2,0.4-0.3,0.7-0.3
				c0.3,0,0.5,0.1,0.7,0.3s0.3,0.4,0.3,0.7c0,0.3-0.1,0.5-0.3,0.7c-0.2,0.2-0.4,0.3-0.7,0.3C319.8,271.2,319.6,271.1,319.4,270.9z
				 M321.2,284.9c-0.6,0-1.1-0.1-1.4-0.4c-0.3-0.3-0.5-0.5-0.5-0.8l0-0.4v-9.8h1.6v9.8c0,0.4,0.1,0.8,0.3,1c0.2,0.2,0.3,0.4,0.5,0.4
				l0.3,0h0.7v0.2H321.2z"/>
			<path class="st3" d="M328.9,274.5V274c-0.7,0.3-1.3,0.8-1.9,1.7c-0.6,0.8-0.9,1.6-0.9,2.3v6.9h-1.6v-11.4h1.6v3.6
				c0.2-0.9,0.7-1.7,1.4-2.5c0.7-0.8,1.5-1.2,2.3-1.2h0.1c0.3,0,0.6,0.1,0.8,0.3c0.2,0.2,0.3,0.5,0.3,0.8s-0.1,0.6-0.3,0.8
				c-0.2,0.2-0.5,0.3-0.8,0.3c-0.3,0-0.6-0.1-0.8-0.3C329,275,328.9,274.8,328.9,274.5z"/>
			<path class="st3" d="M342,284.9c-1,0-1.7-0.2-2.1-0.6c-0.4-0.3-0.5-0.6-0.5-0.9v-0.5c-0.7,1.4-1.9,2-3.6,2c-1.9,0-3-0.9-3.3-2.6
				c0-0.2,0-0.4,0-0.6c0-0.2,0-0.4,0.1-0.6c0.1-0.2,0.2-0.5,0.5-0.8c0.6-0.5,1.8-0.9,3.8-1c0.5,0,0.9-0.1,1.3-0.1c0.4,0,0.8,0,1.1,0
				v-3.8c0,0,0-0.1,0-0.2c0-0.1,0-0.3-0.1-0.5c-0.1-0.2-0.2-0.4-0.3-0.6c-0.1-0.2-0.4-0.4-0.7-0.5c-0.4-0.1-0.8-0.2-1.4-0.2
				c-0.6,0-1.2,0.1-2,0.3c-0.8,0.2-1.3,0.4-1.7,0.6l-0.1-0.2c1.4-0.6,2.7-0.9,4.1-0.9c1.6,0,2.6,0.3,3.1,0.8
				c0.4,0.4,0.6,0.9,0.6,1.4v7.6c0,0.4,0.1,0.8,0.3,1c0.2,0.2,0.4,0.4,0.5,0.4l0.3,0h0.7v0.2H342z M336.2,284.8
				c0.8,0,1.5-0.3,2.2-0.8c0.6-0.6,1-1.1,1-1.6v-2.8c-0.4,0-0.8,0-1.2,0c-0.4,0-0.8,0-1.2,0.1c-1.2,0.1-1.9,0.4-2.3,0.8
				c-0.4,0.4-0.5,0.9-0.5,1.6c0,0.1,0,0.3,0,0.4C334.3,284,335,284.8,336.2,284.8z"/>
			<path class="st3" d="M354,284.9c-0.6,0-1.1-0.1-1.4-0.4c-0.3-0.3-0.5-0.5-0.5-0.8l0-0.4v-7.2c0-1.2-0.3-2-0.9-2.3
				c-0.3-0.2-0.7-0.2-1.2-0.2c-1,0-1.8,0.4-2.6,1.2c-0.8,0.8-1.2,1.5-1.2,2.1v8.1h-1.6v-11.4h1.6v2.6c0.3-0.7,0.7-1.3,1.4-1.8
				c0.7-0.6,1.5-0.9,2.3-0.9s1.5,0.1,2,0.2c0.5,0.2,0.9,0.4,1.2,0.7c0.4,0.5,0.6,1.1,0.6,1.8v7.1c0,0.4,0.1,0.8,0.3,1
				c0.2,0.2,0.4,0.4,0.5,0.4l0.3,0h0.7v0.2H354z"/>
			<path class="st3" d="M361.6,285c-1.6,0-2.9-0.5-3.9-1.4c-1-0.9-1.5-2.3-1.5-4.2s0.5-3.4,1.6-4.4c1-1,2.4-1.6,4-1.6
				c1.6,0,2.9,0.5,3.9,1.4c1,0.9,1.5,2.3,1.5,4.2c0,1.9-0.5,3.4-1.6,4.4C364.6,284.4,363.2,285,361.6,285z M361.8,273.6
				c-1.2,0-2.1,0.5-2.9,1.5s-1.1,2.5-1.1,4.3c0,1.8,0.3,3.2,1,4.1c0.7,0.9,1.6,1.3,2.8,1.3s2.1-0.5,2.9-1.5c0.8-1,1.1-2.5,1.1-4.3
				s-0.4-3.2-1-4.1C363.9,274,362.9,273.6,361.8,273.6z"/>
			<path class="st3" d="M97.3,296.5c1.8-0.1,3.3-0.2,4.7-0.2c3.8,0,5.7,1.3,5.7,4c0,1.2-0.3,2.3-1,3.2c-0.3,0.5-0.9,0.9-1.6,1.2
				c-0.7,0.3-1.5,0.4-2.5,0.4h-3.4v7.1h-1.9V296.5z M102,296.5c-0.9,0-1.8,0.1-2.8,0.2v8.3h3.4c2.1-0.1,3.2-1.6,3.2-4.6
				c0-1.2-0.3-2.2-1-2.8C104.2,296.8,103.2,296.5,102,296.5z"/>
			<path class="st3" d="M119.2,312.2c-1,0-1.7-0.2-2.1-0.6c-0.4-0.3-0.5-0.6-0.5-0.9v-0.5c-0.7,1.4-1.9,2-3.6,2
				c-1.9,0-3-0.9-3.3-2.6c0-0.2,0-0.4,0-0.6c0-0.2,0-0.4,0.1-0.6s0.2-0.5,0.5-0.8c0.6-0.5,1.8-0.9,3.8-1c0.5,0,0.9-0.1,1.3-0.1
				c0.4,0,0.8,0,1.1,0V303c0,0,0-0.1,0-0.2c0-0.1,0-0.3-0.1-0.5c-0.1-0.2-0.2-0.4-0.3-0.6c-0.1-0.2-0.4-0.4-0.7-0.5
				c-0.4-0.1-0.8-0.2-1.4-0.2c-0.6,0-1.2,0.1-2,0.3c-0.8,0.2-1.3,0.4-1.7,0.6l-0.1-0.2c1.4-0.6,2.7-0.9,4.1-0.9
				c1.6,0,2.6,0.3,3.1,0.8c0.4,0.4,0.6,0.9,0.6,1.4v7.6c0,0.4,0.1,0.8,0.3,1c0.2,0.2,0.4,0.4,0.5,0.4l0.3,0h0.7v0.2H119.2z
				 M113.3,312.1c0.8,0,1.5-0.3,2.2-0.8s1-1.1,1-1.6v-2.8c-0.4,0-0.8,0-1.2,0s-0.8,0-1.2,0.1c-1.2,0.1-1.9,0.4-2.3,0.8
				c-0.4,0.4-0.5,0.9-0.5,1.6c0,0.1,0,0.3,0,0.4C111.4,311.3,112.1,312.1,113.3,312.1z"/>
			<path class="st3" d="M123.8,309.6c0,1.2,0.3,2,1,2.3c0.3,0.2,0.7,0.2,1.2,0.2c1,0,1.8-0.4,2.6-1.1c0.8-0.7,1.2-1.4,1.2-2v-8.2
				h1.6v9.8c0,0.4,0.1,0.8,0.3,1c0.2,0.2,0.4,0.4,0.5,0.4l0.3,0h0.7v0.2h-1.4c-0.6,0-1.1-0.1-1.4-0.4c-0.3-0.3-0.5-0.5-0.5-0.8
				l0-0.4v-1c-0.3,0.7-0.8,1.3-1.5,1.8c-0.7,0.6-1.5,0.9-2.3,0.9c-0.8,0-1.5-0.1-2-0.2c-0.5-0.2-0.9-0.4-1.1-0.7
				c-0.4-0.5-0.6-1.1-0.6-1.8v-8.8h1.6V309.6z"/>
			<path class="st3" d="M137.6,312.2c-1.3,0-2.2-0.4-2.5-1c-0.1-0.2-0.1-0.3-0.1-0.4v-15.6h1.6v15.5c0,0.4,0.1,0.8,0.3,1
				c0.2,0.2,0.4,0.4,0.5,0.4l0.3,0h0.7v0.2H137.6z"/>
			<path class="st3" d="M149.6,312.2c-1,0-1.7-0.2-2.1-0.6c-0.4-0.3-0.5-0.6-0.5-0.9v-0.5c-0.7,1.4-1.9,2-3.6,2
				c-1.9,0-3-0.9-3.3-2.6c0-0.2,0-0.4,0-0.6c0-0.2,0-0.4,0.1-0.6c0.1-0.2,0.2-0.5,0.5-0.8c0.6-0.5,1.8-0.9,3.8-1
				c0.5,0,0.9-0.1,1.3-0.1c0.4,0,0.8,0,1.1,0V303c0,0,0-0.1,0-0.2c0-0.1,0-0.3-0.1-0.5c-0.1-0.2-0.2-0.4-0.3-0.6
				c-0.1-0.2-0.4-0.4-0.7-0.5c-0.4-0.1-0.8-0.2-1.4-0.2c-0.6,0-1.2,0.1-2,0.3c-0.8,0.2-1.3,0.4-1.7,0.6l-0.1-0.2
				c1.4-0.6,2.7-0.9,4.1-0.9c1.6,0,2.6,0.3,3.1,0.8c0.4,0.4,0.6,0.9,0.6,1.4v7.6c0,0.4,0.1,0.8,0.3,1c0.2,0.2,0.4,0.4,0.5,0.4l0.3,0
				h0.7v0.2H149.6z M143.7,312.1c0.8,0,1.5-0.3,2.2-0.8s1-1.1,1-1.6v-2.8c-0.4,0-0.8,0-1.2,0s-0.8,0-1.2,0.1
				c-1.2,0.1-1.9,0.4-2.3,0.8c-0.4,0.4-0.5,0.9-0.5,1.6c0,0.1,0,0.3,0,0.4C141.8,311.3,142.5,312.1,143.7,312.1z"/>
			<path class="st3" d="M160,312.2h-0.3l6.8-16l0.3-0.1l5.7,16.1h-1.9l-1.8-5h-6.7L160,312.2z M165.8,298.7l-3.6,8.3h6.5
				L165.8,298.7z"/>
			<path class="st3" d="M173.9,306.9c0-2,0.5-3.5,1.4-4.6c1-1.1,2.4-1.6,4.3-1.6c1.4,0,2.9,0.3,4.3,0.8v11c0,3.6-1.6,5.4-4.7,5.4
				c-1.7,0-3.2-0.6-4.4-1.7l0.2-0.1c1.3,1.1,2.7,1.6,4.3,1.6c2.1,0,3.1-1.7,3.1-5.2v-2.3c-0.3,0.5-0.8,1-1.4,1.4
				c-0.7,0.4-1.5,0.6-2.4,0.6C175.4,312.2,173.9,310.4,173.9,306.9z M178.6,312.1c1,0,1.9-0.3,2.6-0.8c0.7-0.5,1.1-1.1,1.2-1.6v-8
				c-1.1-0.5-2-0.7-2.8-0.7c-1.4,0-2.4,0.5-3.1,1.6c-0.7,1.1-1,2.5-1,4.4C175.5,310.4,176.5,312.1,178.6,312.1z"/>
			<path class="st3" d="M188.3,309.6c0,1.2,0.3,2,1,2.3c0.3,0.2,0.7,0.2,1.2,0.2c1,0,1.8-0.4,2.6-1.1c0.8-0.7,1.2-1.4,1.2-2v-8.2
				h1.6v9.8c0,0.4,0.1,0.8,0.3,1c0.2,0.2,0.4,0.4,0.5,0.4l0.3,0h0.7v0.2h-1.4c-0.6,0-1.1-0.1-1.4-0.4c-0.3-0.3-0.5-0.5-0.5-0.8
				l0-0.4v-1c-0.3,0.7-0.8,1.3-1.5,1.8c-0.7,0.6-1.5,0.9-2.3,0.9c-0.8,0-1.5-0.1-2-0.2s-0.9-0.4-1.1-0.7c-0.4-0.5-0.6-1.1-0.6-1.8
				v-8.8h1.6V309.6z"/>
			<path class="st3" d="M199.8,298.3c-0.2-0.2-0.3-0.4-0.3-0.7c0-0.3,0.1-0.5,0.3-0.7c0.2-0.2,0.4-0.3,0.7-0.3
				c0.3,0,0.5,0.1,0.7,0.3c0.2,0.2,0.3,0.4,0.3,0.7c0,0.3-0.1,0.5-0.3,0.7c-0.2,0.2-0.4,0.3-0.7,0.3
				C200.2,298.6,199.9,298.5,199.8,298.3z M201.6,312.2c-0.6,0-1.1-0.1-1.4-0.4c-0.3-0.3-0.5-0.5-0.5-0.8l0-0.4v-9.8h1.6v9.8
				c0,0.4,0.1,0.8,0.3,1c0.2,0.2,0.3,0.4,0.5,0.4l0.3,0h0.7v0.2H201.6z"/>
			<path class="st3" d="M208.3,312.2c-1.3,0-2.2-0.4-2.5-1c-0.1-0.2-0.1-0.3-0.1-0.4v-15.6h1.6v15.5c0,0.4,0.1,0.8,0.3,1
				c0.2,0.2,0.4,0.4,0.5,0.4l0.3,0h0.7v0.2H208.3z"/>
			<path class="st3" d="M220.2,312.2c-1,0-1.7-0.2-2.1-0.6c-0.4-0.3-0.5-0.6-0.5-0.9v-0.5c-0.7,1.4-1.9,2-3.6,2
				c-1.9,0-3-0.9-3.3-2.6c0-0.2,0-0.4,0-0.6c0-0.2,0-0.4,0.1-0.6c0.1-0.2,0.2-0.5,0.5-0.8c0.6-0.5,1.8-0.9,3.8-1
				c0.5,0,0.9-0.1,1.3-0.1c0.4,0,0.8,0,1.1,0V303c0,0,0-0.1,0-0.2s0-0.3-0.1-0.5c-0.1-0.2-0.2-0.4-0.3-0.6c-0.1-0.2-0.4-0.4-0.7-0.5
				c-0.4-0.1-0.8-0.2-1.4-0.2c-0.6,0-1.2,0.1-2,0.3c-0.8,0.2-1.3,0.4-1.7,0.6l-0.1-0.2c1.4-0.6,2.7-0.9,4.1-0.9
				c1.6,0,2.6,0.3,3.1,0.8c0.4,0.4,0.6,0.9,0.6,1.4v7.6c0,0.4,0.1,0.8,0.3,1c0.2,0.2,0.4,0.4,0.5,0.4l0.3,0h0.7v0.2H220.2z
				 M214.4,312.1c0.8,0,1.5-0.3,2.2-0.8s1-1.1,1-1.6v-2.8c-0.4,0-0.8,0-1.2,0s-0.8,0-1.2,0.1c-1.2,0.1-1.9,0.4-2.3,0.8
				c-0.4,0.4-0.5,0.9-0.5,1.6c0,0.1,0,0.3,0,0.4C212.5,311.3,213.1,312.1,214.4,312.1z"/>
			<path class="st3" d="M227.1,301.8v-0.5c-0.7,0.3-1.3,0.8-1.9,1.7c-0.6,0.8-0.9,1.6-0.9,2.3v6.9h-1.6v-11.4h1.6v3.6
				c0.2-0.9,0.7-1.7,1.4-2.5c0.7-0.8,1.5-1.2,2.3-1.2h0.1c0.3,0,0.6,0.1,0.8,0.3c0.2,0.2,0.3,0.5,0.3,0.8s-0.1,0.6-0.3,0.8
				c-0.2,0.2-0.5,0.3-0.8,0.3c-0.3,0-0.6-0.1-0.8-0.3C227.2,302.4,227.1,302.1,227.1,301.8z"/>
			<path class="st3" d="M239.6,296.5c1.8-0.1,3.3-0.2,4.7-0.2c3.8,0,5.7,1.3,5.7,4c0,1.2-0.3,2.3-1,3.2c-0.3,0.5-0.9,0.9-1.6,1.2
				c-0.7,0.3-1.5,0.4-2.5,0.4h-3.4v7.1h-1.9V296.5z M244.2,296.5c-0.9,0-1.8,0.1-2.8,0.2v8.3h3.4c2.1-0.1,3.2-1.6,3.2-4.6
				c0-1.2-0.3-2.2-1-2.8C246.5,296.8,245.5,296.5,244.2,296.5z"/>
			<path class="st3" d="M261.5,312.2c-1,0-1.7-0.2-2.1-0.6c-0.4-0.3-0.5-0.6-0.5-0.9v-0.5c-0.7,1.4-1.9,2-3.6,2
				c-1.9,0-3-0.9-3.3-2.6c0-0.2,0-0.4,0-0.6c0-0.2,0-0.4,0.1-0.6c0.1-0.2,0.2-0.5,0.5-0.8c0.6-0.5,1.8-0.9,3.8-1
				c0.5,0,0.9-0.1,1.3-0.1c0.4,0,0.8,0,1.1,0V303c0,0,0-0.1,0-0.2c0-0.1,0-0.3-0.1-0.5c-0.1-0.2-0.2-0.4-0.3-0.6
				c-0.1-0.2-0.4-0.4-0.7-0.5c-0.4-0.1-0.8-0.2-1.4-0.2c-0.6,0-1.2,0.1-2,0.3c-0.8,0.2-1.3,0.4-1.7,0.6l-0.1-0.2
				c1.4-0.6,2.7-0.9,4.1-0.9c1.6,0,2.6,0.3,3.1,0.8c0.4,0.4,0.6,0.9,0.6,1.4v7.6c0,0.4,0.1,0.8,0.3,1c0.2,0.2,0.4,0.4,0.5,0.4l0.3,0
				h0.7v0.2H261.5z M255.6,312.1c0.8,0,1.5-0.3,2.2-0.8c0.6-0.6,1-1.1,1-1.6v-2.8c-0.4,0-0.8,0-1.2,0c-0.4,0-0.8,0-1.2,0.1
				c-1.2,0.1-1.9,0.4-2.3,0.8c-0.4,0.4-0.5,0.9-0.5,1.6c0,0.1,0,0.3,0,0.4C253.7,311.3,254.4,312.1,255.6,312.1z"/>
			<path class="st3" d="M267.3,312.2c-1.3,0-2.2-0.4-2.5-1c-0.1-0.2-0.1-0.3-0.1-0.4v-15.6h1.6v15.5c0,0.4,0.1,0.8,0.3,1
				c0.2,0.2,0.4,0.4,0.5,0.4l0.3,0h0.7v0.2H267.3z"/>
			<path class="st3" d="M274.6,312.3c-1.6,0-2.9-0.5-3.9-1.4c-1-0.9-1.5-2.3-1.5-4.2s0.5-3.4,1.6-4.4c1-1,2.4-1.6,4-1.6
				c1.6,0,2.9,0.5,3.9,1.4c1,0.9,1.5,2.3,1.5,4.2s-0.5,3.4-1.6,4.4C277.5,311.8,276.2,312.3,274.6,312.3z M274.8,300.9
				c-1.2,0-2.1,0.5-2.9,1.5c-0.8,1-1.1,2.5-1.1,4.3c0,1.8,0.4,3.2,1,4.1c0.7,0.9,1.6,1.3,2.8,1.3c1.2,0,2.1-0.5,2.9-1.5
				c0.8-1,1.1-2.5,1.1-4.3c0-1.8-0.4-3.2-1-4.1C276.8,301.4,275.9,300.9,274.8,300.9z"/>
			<path class="st3" d="M295.8,303.5c0-0.9-0.1-1.6-0.4-2c-0.2-0.4-0.7-0.6-1.4-0.6c-0.9,0-1.7,0.4-2.4,1.1
				c-0.7,0.8-1.1,1.4-1.1,2.1v8.1H289v-8.8c0-0.9-0.1-1.6-0.4-2c-0.2-0.4-0.8-0.6-1.6-0.6s-1.5,0.4-2.2,1.1c-0.7,0.7-1.1,1.4-1.2,2
				v8.2h-1.6v-11.4h1.6v2.6c0.2-0.7,0.7-1.3,1.3-1.8c0.7-0.6,1.4-0.8,2.2-0.8c0.8,0,1.4,0.1,1.9,0.2c0.5,0.1,0.8,0.4,1,0.7
				c0.2,0.3,0.3,0.6,0.4,0.8c0,0.2,0.1,0.5,0.1,1c0.2-0.7,0.7-1.3,1.3-1.8c0.6-0.6,1.3-0.8,2.1-0.8c0.7,0,1.3,0.1,1.8,0.2
				s0.8,0.3,1,0.4c0.2,0.2,0.4,0.4,0.5,0.7c0.1,0.3,0.2,0.5,0.2,0.7c0,0.2,0,0.4,0,0.8v7.1c0,0.4,0.1,0.8,0.3,1s0.4,0.4,0.5,0.4
				l0.3,0h0.7v0.2h-1.4c-0.6,0-1.1-0.1-1.4-0.4c-0.3-0.3-0.5-0.5-0.5-0.8l0-0.4V303.5z"/>
			<path class="st3" d="M300.9,298.3c-0.2-0.2-0.3-0.4-0.3-0.7c0-0.3,0.1-0.5,0.3-0.7c0.2-0.2,0.4-0.3,0.7-0.3
				c0.3,0,0.5,0.1,0.7,0.3s0.3,0.4,0.3,0.7c0,0.3-0.1,0.5-0.3,0.7c-0.2,0.2-0.4,0.3-0.7,0.3C301.4,298.6,301.1,298.5,300.9,298.3z
				 M302.8,312.2c-0.6,0-1.1-0.1-1.4-0.4c-0.3-0.3-0.5-0.5-0.5-0.8l0-0.4v-9.8h1.6v9.8c0,0.4,0.1,0.8,0.3,1s0.3,0.4,0.5,0.4l0.3,0
				h0.7v0.2H302.8z"/>
			<path class="st3" d="M315.6,312.2c-0.6,0-1.1-0.1-1.4-0.4c-0.3-0.3-0.5-0.5-0.5-0.8l0-0.4v-7.2c0-1.2-0.3-2-0.9-2.3
				c-0.3-0.2-0.7-0.2-1.2-0.2c-1,0-1.8,0.4-2.6,1.2c-0.8,0.8-1.2,1.5-1.2,2.1v8.1h-1.6v-11.4h1.6v2.6c0.3-0.7,0.7-1.3,1.4-1.8
				s1.5-0.9,2.3-0.9s1.5,0.1,2,0.2c0.5,0.2,0.9,0.4,1.2,0.7c0.4,0.5,0.6,1.1,0.6,1.8v7.1c0,0.4,0.1,0.8,0.3,1s0.4,0.4,0.5,0.4l0.3,0
				h0.7v0.2H315.6z"/>
			<path class="st3" d="M323.2,312.3c-1.6,0-2.9-0.5-3.9-1.4c-1-0.9-1.5-2.3-1.5-4.2s0.5-3.4,1.6-4.4c1-1,2.4-1.6,4-1.6
				s2.9,0.5,3.9,1.4c1,0.9,1.5,2.3,1.5,4.2s-0.5,3.4-1.6,4.4C326.1,311.8,324.8,312.3,323.2,312.3z M323.3,300.9
				c-1.2,0-2.1,0.5-2.9,1.5c-0.8,1-1.1,2.5-1.1,4.3c0,1.8,0.4,3.2,1,4.1c0.7,0.9,1.6,1.3,2.8,1.3s2.1-0.5,2.9-1.5
				c0.8-1,1.1-2.5,1.1-4.3c0-1.8-0.4-3.2-1-4.1C325.4,301.4,324.5,300.9,323.3,300.9z"/>
		</g>
	</g>
	<g>
		<g>
			<path class="st3" d="M218.5,345.5c0.3,0,0.5-0.1,0.7-0.2c0.2-0.2,0.3-0.3,0.3-0.5c0-0.1,0-0.2-0.1-0.3c-0.1-0.1-0.1-0.2-0.3-0.3
				c-0.1-0.1-0.3-0.1-0.5-0.2c-0.2,0-0.4-0.1-0.7-0.1c-0.3,0-0.7,0-1,0.1c-0.3,0.1-0.7,0.2-1,0.3c0.3,0.3,0.6,0.7,0.7,1.1
				c0.2,0.4,0.3,0.9,0.3,1.4c0,0.8-0.2,1.5-0.5,2.1c-0.3,0.6-0.7,1.1-1.2,1.5c-0.5,0.4-1.1,0.7-1.8,0.9c-0.7,0.2-1.4,0.3-2.1,0.3
				c-0.7,0-1.4-0.1-2.1-0.3c-0.7-0.2-1.3-0.5-1.9-1c-0.5-0.4-1-1-1.3-1.6c-0.3-0.7-0.5-1.4-0.5-2.3c0-0.8,0.1-1.5,0.4-2.1
				c0.3-0.6,0.6-1.1,1-1.6c0.4-0.4,0.9-0.8,1.3-1.1c0.5-0.3,1-0.5,1.4-0.7c-0.3-0.1-0.6-0.3-0.9-0.5c-0.3-0.2-0.5-0.5-0.7-0.7
				c-0.2-0.3-0.4-0.6-0.5-0.9c-0.1-0.3-0.2-0.7-0.2-1c0-0.5,0.1-1,0.3-1.4c0.2-0.4,0.5-0.8,0.9-1.1c0.4-0.3,0.8-0.5,1.2-0.7
				c0.5-0.2,0.9-0.2,1.4-0.2c0.6,0,1.1,0.1,1.5,0.2s0.8,0.3,1,0.5c0.3,0.2,0.5,0.4,0.6,0.7c0.1,0.3,0.2,0.5,0.2,0.8
				c0,0.2,0,0.4-0.1,0.6c-0.1,0.2-0.2,0.4-0.3,0.5c-0.1,0.2-0.3,0.3-0.5,0.4c-0.2,0.1-0.4,0.1-0.7,0.1c-0.2,0-0.4,0-0.5-0.1
				c-0.2-0.1-0.3-0.2-0.4-0.2c-0.1-0.1-0.2-0.2-0.3-0.3c-0.1-0.1-0.1-0.2-0.1-0.2l0.4-0.2c0,0,0.1,0.1,0.2,0.1
				c0.1,0.1,0.2,0.1,0.2,0.2c0.1,0,0.2,0.1,0.3,0.1c0.1,0,0.2,0,0.3,0c0.3,0,0.5-0.1,0.7-0.3c0.2-0.2,0.3-0.5,0.3-0.8
				c0-0.2,0-0.3-0.1-0.5c-0.1-0.2-0.2-0.3-0.4-0.5c-0.2-0.1-0.4-0.3-0.6-0.4c-0.3-0.1-0.6-0.1-0.9-0.1c-0.5,0-0.9,0.1-1.2,0.3
				c-0.4,0.2-0.7,0.4-0.9,0.7c-0.2,0.3-0.4,0.6-0.5,1c-0.1,0.4-0.2,0.7-0.2,1.1c0,0.3,0,0.6,0.1,0.8c0.1,0.3,0.2,0.5,0.3,0.8
				c0.1,0.2,0.3,0.4,0.5,0.6c0.2,0.2,0.5,0.3,0.8,0.5c0.1,0,0.3-0.1,0.4-0.1c0.1,0,0.3,0,0.4,0c0.2,0,0.3,0,0.5,0.1
				c0.1,0.1,0.2,0.1,0.2,0.2c0,0.2-0.1,0.3-0.2,0.4c-0.1,0.1-0.3,0.1-0.5,0.1c-0.1,0-0.3,0-0.4,0c-0.1,0-0.3-0.1-0.5-0.1
				c-0.5,0.1-1,0.3-1.3,0.6c-0.4,0.3-0.7,0.6-1,1.1c-0.3,0.4-0.5,0.9-0.6,1.3c-0.1,0.5-0.2,1-0.2,1.5c0,0.6,0.1,1.2,0.3,1.8
				c0.2,0.6,0.5,1.1,0.9,1.6c0.4,0.5,0.9,0.8,1.4,1.1c0.6,0.3,1.2,0.4,2,0.4c0.5,0,1.1-0.1,1.6-0.3c0.5-0.2,1-0.4,1.3-0.8
				c0.4-0.3,0.7-0.7,0.9-1.2c0.2-0.5,0.4-1.1,0.4-1.7c0-0.5-0.1-1-0.3-1.4c-0.2-0.4-0.4-0.7-0.7-1c-0.3,0.1-0.6,0.3-0.9,0.4
				c-0.3,0.1-0.6,0.2-0.9,0.3c-0.3,0.1-0.6,0.2-1,0.3c-0.3,0.1-0.7,0.1-1,0.1c-0.3,0-0.5,0-0.7-0.1c-0.2-0.1-0.4-0.2-0.5-0.3
				c-0.1-0.1-0.2-0.2-0.3-0.4c-0.1-0.1-0.1-0.3-0.1-0.4c0-0.2,0.1-0.4,0.2-0.6c0.1-0.2,0.3-0.3,0.5-0.5c0.2-0.1,0.5-0.2,0.8-0.3
				c0.3-0.1,0.6-0.1,1-0.1c0.4,0,0.7,0,1.1,0.1c0.4,0.1,0.8,0.2,1.1,0.4c0.5-0.2,1-0.4,1.5-0.6c0.5-0.2,1.1-0.3,1.7-0.3
				c0.4,0,0.8,0.1,1.1,0.2c0.3,0.1,0.5,0.2,0.7,0.4c0.2,0.2,0.3,0.4,0.4,0.6c0.1,0.2,0.1,0.4,0.1,0.6c0,0.2,0,0.4-0.1,0.6
				c-0.1,0.2-0.2,0.4-0.3,0.5c-0.1,0.1-0.3,0.3-0.5,0.4c-0.2,0.1-0.4,0.1-0.7,0.1L218.5,345.5z M212.4,343.6c-0.4,0-0.8,0.1-1.1,0.2
				c-0.3,0.1-0.4,0.3-0.4,0.5c0,0.1,0.1,0.2,0.2,0.3c0.1,0.1,0.3,0.1,0.6,0.1c0.3,0,0.7-0.1,1.1-0.2c0.4-0.1,0.8-0.3,1.2-0.5
				c-0.3-0.1-0.6-0.2-0.8-0.2C212.9,343.6,212.6,343.6,212.4,343.6z"/>
		</g>
	</g>
	<g>
		<g>
			<path class="st3" d="M95.3,369.7c-1.4-0.5-2.7-0.8-3.9-0.8c-1.2,0-2.2,0.3-2.9,0.8c-0.7,0.5-1,1.2-1,2.1c0,1.1,0.6,2,1.7,2.6
				c0.5,0.3,1.1,0.5,1.7,0.7c0.6,0.2,1.2,0.5,1.9,0.7c0.6,0.3,1.2,0.6,1.7,0.9c0.5,0.4,0.9,0.8,1.3,1.4c0.3,0.6,0.5,1.4,0.5,2.3
				c0,1-0.3,1.8-0.8,2.4c-0.5,0.7-1.2,1.1-1.9,1.4c-0.8,0.2-1.6,0.4-2.6,0.4c-1.9,0-3.5-0.5-4.8-1.4l0.1-0.2c0.5,0.4,1.2,0.7,1.9,1
				c0.8,0.3,1.6,0.4,2.5,0.4c1.2,0,2.3-0.3,3.2-0.9c0.9-0.6,1.3-1.4,1.3-2.5c0-1.2-0.6-2.2-1.7-2.9c-0.5-0.3-1.1-0.6-1.7-0.8
				c-0.6-0.3-1.2-0.5-1.9-0.8c-0.6-0.3-1.2-0.6-1.7-0.9c-1.2-0.8-1.7-1.8-1.7-3.2c0-1.1,0.4-2,1.1-2.7c0.7-0.7,1.9-1,3.4-1
				s3,0.3,4.6,0.8L95.3,369.7z"/>
			<path class="st3" d="M107.9,384.7c-1,0-1.7-0.2-2.1-0.6c-0.4-0.3-0.5-0.6-0.5-0.9v-0.5c-0.7,1.4-1.9,2-3.6,2
				c-1.9,0-3-0.9-3.3-2.6c0-0.2,0-0.4,0-0.6c0-0.2,0-0.4,0.1-0.6c0.1-0.2,0.2-0.5,0.5-0.8c0.6-0.5,1.8-0.9,3.8-1
				c0.5,0,0.9-0.1,1.3-0.1c0.4,0,0.8,0,1.1,0v-3.8c0,0,0-0.1,0-0.2c0-0.1,0-0.3-0.1-0.5c-0.1-0.2-0.2-0.4-0.3-0.6
				c-0.1-0.2-0.4-0.4-0.7-0.5c-0.4-0.1-0.8-0.2-1.4-0.2c-0.6,0-1.2,0.1-2,0.3c-0.8,0.2-1.3,0.4-1.7,0.6l-0.1-0.2
				c1.4-0.6,2.7-0.9,4.1-0.9c1.6,0,2.6,0.3,3.1,0.8c0.4,0.4,0.6,0.9,0.6,1.4v7.6c0,0.4,0.1,0.8,0.3,1c0.2,0.2,0.4,0.4,0.5,0.4l0.3,0
				h0.7v0.2H107.9z M102.1,384.6c0.8,0,1.5-0.3,2.2-0.8c0.6-0.6,1-1.1,1-1.6v-2.8c-0.4,0-0.8,0-1.2,0s-0.8,0-1.2,0.1
				c-1.2,0.1-1.9,0.4-2.3,0.8c-0.4,0.4-0.5,0.9-0.5,1.6c0,0.1,0,0.3,0,0.4C100.2,383.8,100.9,384.6,102.1,384.6z"/>
			<path class="st3" d="M119.9,384.7c-0.6,0-1.1-0.1-1.4-0.4c-0.3-0.3-0.5-0.5-0.5-0.8l0-0.4v-7.2c0-1.2-0.3-2-0.9-2.3
				c-0.3-0.2-0.7-0.2-1.2-0.2c-1,0-1.8,0.4-2.6,1.2c-0.8,0.8-1.2,1.5-1.2,2.1v8.1h-1.6v-11.4h1.6v2.6c0.3-0.7,0.7-1.3,1.4-1.8
				c0.7-0.6,1.5-0.9,2.3-0.9c0.8,0,1.5,0.1,2,0.2c0.5,0.2,0.9,0.4,1.2,0.7c0.4,0.5,0.6,1.1,0.6,1.8v7.1c0,0.4,0.1,0.8,0.3,1
				c0.2,0.2,0.4,0.4,0.5,0.4l0.3,0h0.7v0.2H119.9z"/>
			<path class="st3" d="M122.9,373.5v-0.2h0.5V371h1.6v2.3h3.5v0.2H125v8.3c0,1,0.1,1.7,0.3,2.1c0.2,0.4,0.7,0.7,1.4,0.7
				c0.7,0,1.4-0.1,2.2-0.4l0.1,0.2c-0.8,0.3-1.6,0.4-2.6,0.4c-1,0-1.7-0.2-2.2-0.6c-0.5-0.4-0.7-1.2-0.7-2.4v-8.3H122.9z"/>
			<path class="st3" d="M131,370.7c-0.2-0.2-0.3-0.4-0.3-0.7c0-0.3,0.1-0.5,0.3-0.7c0.2-0.2,0.4-0.3,0.7-0.3c0.3,0,0.5,0.1,0.7,0.3
				c0.2,0.2,0.3,0.4,0.3,0.7c0,0.3-0.1,0.5-0.3,0.7c-0.2,0.2-0.4,0.3-0.7,0.3C131.4,371,131.2,370.9,131,370.7z M132.9,384.7
				c-0.6,0-1.1-0.1-1.4-0.4c-0.3-0.3-0.5-0.5-0.5-0.8l0-0.4v-9.8h1.6v9.8c0,0.4,0.1,0.8,0.3,1c0.2,0.2,0.3,0.4,0.5,0.4l0.3,0h0.7
				v0.2H132.9z"/>
			<path class="st3" d="M145.6,384.7c-1,0-1.7-0.2-2.1-0.6c-0.4-0.3-0.5-0.6-0.5-0.9v-0.5c-0.7,1.4-1.9,2-3.6,2
				c-1.9,0-3-0.9-3.3-2.6c0-0.2,0-0.4,0-0.6c0-0.2,0-0.4,0.1-0.6c0.1-0.2,0.2-0.5,0.5-0.8c0.6-0.5,1.8-0.9,3.8-1
				c0.5,0,0.9-0.1,1.3-0.1s0.8,0,1.1,0v-3.8c0,0,0-0.1,0-0.2c0-0.1,0-0.3-0.1-0.5c-0.1-0.2-0.2-0.4-0.3-0.6
				c-0.1-0.2-0.4-0.4-0.7-0.5c-0.4-0.1-0.8-0.2-1.4-0.2c-0.6,0-1.2,0.1-2,0.3c-0.8,0.2-1.3,0.4-1.7,0.6l-0.1-0.2
				c1.4-0.6,2.7-0.9,4.1-0.9c1.6,0,2.6,0.3,3.1,0.8c0.4,0.4,0.6,0.9,0.6,1.4v7.6c0,0.4,0.1,0.8,0.3,1c0.2,0.2,0.4,0.4,0.5,0.4l0.3,0
				h0.7v0.2H145.6z M139.8,384.6c0.8,0,1.5-0.3,2.2-0.8c0.6-0.6,1-1.1,1-1.6v-2.8c-0.4,0-0.8,0-1.2,0s-0.8,0-1.2,0.1
				c-1.2,0.1-1.9,0.4-2.3,0.8c-0.4,0.4-0.5,0.9-0.5,1.6c0,0.1,0,0.3,0,0.4C137.9,383.8,138.5,384.6,139.8,384.6z"/>
			<path class="st3" d="M148,379.4c0-2,0.5-3.5,1.4-4.6c1-1.1,2.4-1.6,4.3-1.6c1.4,0,2.9,0.3,4.3,0.8v11c0,3.6-1.6,5.4-4.7,5.4
				c-1.7,0-3.2-0.6-4.4-1.7l0.2-0.1c1.3,1.1,2.7,1.6,4.3,1.6c2.1,0,3.1-1.7,3.1-5.2v-2.3c-0.3,0.5-0.8,1-1.4,1.4s-1.5,0.6-2.4,0.6
				C149.6,384.7,148,382.9,148,379.4z M152.7,384.6c1,0,1.9-0.3,2.6-0.8c0.7-0.5,1.1-1.1,1.2-1.6v-8c-1.1-0.5-2-0.7-2.8-0.7
				c-1.4,0-2.4,0.5-3.1,1.6c-0.7,1.1-1,2.5-1,4.4C149.6,382.8,150.7,384.6,152.7,384.6z"/>
			<path class="st3" d="M165.8,384.8c-1.6,0-2.9-0.5-3.9-1.4s-1.5-2.3-1.5-4.2s0.5-3.4,1.6-4.4c1-1,2.4-1.6,4-1.6
				c1.6,0,2.9,0.5,3.9,1.4c1,0.9,1.5,2.3,1.5,4.2c0,1.9-0.5,3.4-1.6,4.4C168.7,384.3,167.4,384.8,165.8,384.8z M165.9,373.4
				c-1.2,0-2.1,0.5-2.9,1.5c-0.8,1-1.1,2.5-1.1,4.3c0,1.8,0.3,3.2,1,4.1c0.7,0.9,1.6,1.3,2.8,1.3s2.1-0.5,2.9-1.5
				c0.8-1,1.1-2.5,1.1-4.3s-0.4-3.2-1-4.1C168,373.8,167.1,373.4,165.9,373.4z"/>
			<path class="st3" d="M189.3,384.8c-2.8,0-4.9-0.8-6.3-2.4c-0.5-0.6-0.9-1.3-1.2-2.3c-0.3-1-0.5-2.1-0.5-3.5s0.2-2.6,0.7-3.7
				c0.4-1.1,1.1-1.9,1.8-2.5c1.5-1.1,3.3-1.7,5.4-1.7c0.7,0,1.4,0,2,0.1c0.7,0.1,1.1,0.2,1.5,0.3l0.5,0.2l-0.1,0.2
				c-1.2-0.4-2.5-0.6-3.9-0.6c-1.6,0-3,0.5-4,1.6c-0.8,0.8-1.4,1.9-1.7,3.4c-0.2,0.9-0.3,1.9-0.3,3.1s0.2,2.4,0.5,3.4
				c0.4,1,0.7,1.8,1.2,2.3c0.4,0.5,1,0.9,1.6,1.2c0.6,0.3,1.1,0.5,1.5,0.5c0.4,0,0.8,0.1,1.4,0.1c0.5,0,1.2-0.1,2.1-0.2v-4.7h-2.8
				v-0.2h5.6v0.2h-1v4.5C192.3,384.6,190.9,384.8,189.3,384.8z"/>
			<path class="st3" d="M197.6,382.1c0,1.2,0.3,2,1,2.3c0.3,0.2,0.7,0.2,1.2,0.2c1,0,1.8-0.4,2.6-1.1c0.8-0.7,1.2-1.4,1.2-2v-8.2
				h1.6v9.8c0,0.4,0.1,0.8,0.3,1c0.2,0.2,0.4,0.4,0.5,0.4l0.3,0h0.7v0.2h-1.4c-0.6,0-1.1-0.1-1.4-0.4c-0.3-0.3-0.5-0.5-0.5-0.8
				l0-0.4v-1c-0.3,0.7-0.8,1.3-1.5,1.8c-0.7,0.6-1.5,0.9-2.3,0.9c-0.8,0-1.5-0.1-2-0.2c-0.5-0.2-0.9-0.4-1.1-0.7
				c-0.4-0.5-0.6-1.1-0.6-1.8v-8.8h1.6V382.1z"/>
			<path class="st3" d="M208.5,373.5v-0.2h0.5V371h1.6v2.3h3.5v0.2h-3.5v8.3c0,1,0.1,1.7,0.3,2.1c0.2,0.4,0.7,0.7,1.4,0.7
				c0.7,0,1.4-0.1,2.2-0.4l0.1,0.2c-0.8,0.3-1.6,0.4-2.6,0.4c-1,0-1.7-0.2-2.2-0.6c-0.5-0.4-0.7-1.2-0.7-2.4v-8.3H208.5z"/>
			<path class="st3" d="M216.6,370.7c-0.2-0.2-0.3-0.4-0.3-0.7c0-0.3,0.1-0.5,0.3-0.7c0.2-0.2,0.4-0.3,0.7-0.3
				c0.3,0,0.5,0.1,0.7,0.3c0.2,0.2,0.3,0.4,0.3,0.7c0,0.3-0.1,0.5-0.3,0.7c-0.2,0.2-0.4,0.3-0.7,0.3
				C217,371,216.8,370.9,216.6,370.7z M218.4,384.7c-0.6,0-1.1-0.1-1.4-0.4c-0.3-0.3-0.5-0.5-0.5-0.8l0-0.4v-9.8h1.6v9.8
				c0,0.4,0.1,0.8,0.3,1c0.2,0.2,0.3,0.4,0.5,0.4l0.3,0h0.7v0.2H218.4z"/>
			<path class="st3" d="M222.6,379.1c0,1.9,0.3,3.3,1,4.1c0.7,0.9,1.5,1.3,2.6,1.3c1.5,0,2.9-0.2,4.1-0.7l0.1,0.2
				c-1.2,0.5-2.6,0.7-4.1,0.7s-2.8-0.5-3.7-1.4s-1.4-2.3-1.4-4.2s0.5-3.4,1.5-4.4c1-1,2.3-1.6,3.8-1.6c1.2,0,2.3,0.4,3.1,1.1
				c0.9,0.7,1.3,1.8,1.3,3.3c0,0.1,0,0.2,0,0.2h-8.1C222.6,378.3,222.6,378.7,222.6,379.1z M228.4,374.4c-0.5-0.7-1.3-1-2.1-1
				c-0.9,0-1.6,0.4-2.3,1.1c-0.7,0.8-1.1,1.8-1.3,3.1h6.6C229.2,376.2,229,375.1,228.4,374.4z"/>
			<path class="st3" d="M236.7,374.3v-0.5c-0.7,0.3-1.3,0.8-1.9,1.7c-0.6,0.8-0.9,1.6-0.9,2.3v6.9h-1.6v-11.4h1.6v3.6
				c0.2-0.9,0.7-1.7,1.4-2.5c0.7-0.8,1.5-1.2,2.3-1.2h0.1c0.3,0,0.6,0.1,0.8,0.3c0.2,0.2,0.3,0.5,0.3,0.8s-0.1,0.6-0.3,0.8
				c-0.2,0.2-0.5,0.3-0.8,0.3s-0.6-0.1-0.8-0.3C236.8,374.8,236.7,374.6,236.7,374.3z"/>
			<path class="st3" d="M245.4,374.3v-0.5c-0.7,0.3-1.3,0.8-1.9,1.7c-0.6,0.8-0.9,1.6-0.9,2.3v6.9h-1.6v-11.4h1.6v3.6
				c0.2-0.9,0.7-1.7,1.4-2.5c0.7-0.8,1.5-1.2,2.3-1.2h0.1c0.3,0,0.6,0.1,0.8,0.3c0.2,0.2,0.3,0.5,0.3,0.8s-0.1,0.6-0.3,0.8
				c-0.2,0.2-0.5,0.3-0.8,0.3c-0.3,0-0.6-0.1-0.8-0.3S245.4,374.6,245.4,374.3z"/>
			<path class="st3" d="M250.7,379.1c0,1.9,0.3,3.3,1,4.1c0.7,0.9,1.5,1.3,2.6,1.3c1.5,0,2.9-0.2,4.1-0.7l0.1,0.2
				c-1.2,0.5-2.6,0.7-4.1,0.7c-1.5,0-2.8-0.5-3.7-1.4s-1.4-2.3-1.4-4.2s0.5-3.4,1.5-4.4c1-1,2.3-1.6,3.8-1.6c1.2,0,2.3,0.4,3.1,1.1
				s1.3,1.8,1.3,3.3c0,0.1,0,0.2,0,0.2h-8.1C250.7,378.3,250.7,378.7,250.7,379.1z M256.5,374.4c-0.5-0.7-1.3-1-2.1-1
				s-1.6,0.4-2.3,1.1c-0.7,0.8-1.1,1.8-1.3,3.1h6.6C257.3,376.2,257.1,375.1,256.5,374.4z"/>
			<path class="st3" d="M261.5,373.5v-0.2h7.9v0.2l-6.9,11h5.5c1,0,1.7-0.3,1.9-0.9l0.1,0.1c0,0.1-0.1,0.2-0.2,0.3
				c-0.1,0.1-0.2,0.3-0.4,0.4c-0.4,0.2-0.9,0.4-1.5,0.4h-7v-0.2l6.9-11H261.5z"/>
			<path class="st3" d="M280.4,368.9c1.8-0.1,3.3-0.2,4.7-0.2c3.8,0,5.7,1.3,5.7,4c0,1.2-0.3,2.3-1,3.2c-0.3,0.5-0.9,0.9-1.6,1.2
				c-0.7,0.3-1.5,0.4-2.5,0.4h-3.4v7.1h-1.9V368.9z M285.1,369c-0.9,0-1.8,0.1-2.8,0.2v8.3h3.4c2.1-0.1,3.2-1.6,3.2-4.6
				c0-1.2-0.3-2.2-1-2.8C287.3,369.3,286.3,369,285.1,369z"/>
			<path class="st3" d="M302.3,384.7c-1,0-1.7-0.2-2.1-0.6c-0.4-0.3-0.5-0.6-0.5-0.9v-0.5c-0.7,1.4-1.9,2-3.6,2
				c-1.9,0-3-0.9-3.3-2.6c0-0.2,0-0.4,0-0.6c0-0.2,0-0.4,0.1-0.6c0.1-0.2,0.2-0.5,0.5-0.8c0.6-0.5,1.8-0.9,3.8-1
				c0.5,0,0.9-0.1,1.3-0.1c0.4,0,0.8,0,1.1,0v-3.8c0,0,0-0.1,0-0.2c0-0.1,0-0.3-0.1-0.5c-0.1-0.2-0.2-0.4-0.3-0.6
				c-0.1-0.2-0.4-0.4-0.7-0.5c-0.4-0.1-0.8-0.2-1.4-0.2c-0.6,0-1.2,0.1-2,0.3c-0.8,0.2-1.3,0.4-1.7,0.6l-0.1-0.2
				c1.4-0.6,2.7-0.9,4.1-0.9c1.6,0,2.6,0.3,3.1,0.8c0.4,0.4,0.6,0.9,0.6,1.4v7.6c0,0.4,0.1,0.8,0.3,1c0.2,0.2,0.4,0.4,0.5,0.4l0.3,0
				h0.7v0.2H302.3z M296.4,384.6c0.8,0,1.5-0.3,2.2-0.8c0.6-0.6,1-1.1,1-1.6v-2.8c-0.4,0-0.8,0-1.2,0c-0.4,0-0.8,0-1.2,0.1
				c-1.2,0.1-1.9,0.4-2.3,0.8c-0.4,0.4-0.5,0.9-0.5,1.6c0,0.1,0,0.3,0,0.4C294.5,383.8,295.2,384.6,296.4,384.6z"/>
			<path class="st3" d="M308.2,384.7c-1.3,0-2.2-0.4-2.5-1c-0.1-0.2-0.1-0.3-0.1-0.4v-15.6h1.6v15.5c0,0.4,0.1,0.8,0.3,1
				c0.2,0.2,0.4,0.4,0.5,0.4l0.3,0h0.7v0.2H308.2z"/>
			<path class="st3" d="M324.5,375.9c0-0.9-0.1-1.6-0.4-2c-0.2-0.4-0.7-0.6-1.4-0.6c-0.9,0-1.7,0.4-2.4,1.1
				c-0.7,0.8-1.1,1.4-1.1,2.1v8.1h-1.6v-8.8c0-0.9-0.1-1.6-0.4-2c-0.2-0.4-0.8-0.6-1.6-0.6c-0.8,0-1.5,0.4-2.2,1.1
				c-0.7,0.7-1.1,1.4-1.2,2v8.2h-1.6v-11.4h1.6v2.6c0.2-0.7,0.7-1.3,1.3-1.8c0.7-0.6,1.4-0.8,2.2-0.8c0.8,0,1.4,0.1,1.9,0.2
				c0.5,0.1,0.8,0.4,1,0.7c0.2,0.3,0.3,0.6,0.4,0.8c0,0.2,0.1,0.5,0.1,1c0.2-0.7,0.7-1.3,1.3-1.8c0.6-0.6,1.3-0.8,2.1-0.8
				c0.7,0,1.3,0.1,1.8,0.2c0.4,0.1,0.8,0.3,1,0.4c0.2,0.2,0.4,0.4,0.5,0.7c0.1,0.3,0.2,0.5,0.2,0.7c0,0.2,0,0.4,0,0.8v7.1
				c0,0.4,0.1,0.8,0.3,1c0.2,0.2,0.4,0.4,0.5,0.4l0.3,0h0.7v0.2h-1.4c-0.6,0-1.1-0.1-1.4-0.4c-0.3-0.3-0.5-0.5-0.5-0.8l0-0.4V375.9z
				"/>
			<path class="st3" d="M338.5,384.7c-1,0-1.7-0.2-2.1-0.6c-0.4-0.3-0.5-0.6-0.5-0.9v-0.5c-0.7,1.4-1.9,2-3.6,2
				c-1.9,0-3-0.9-3.3-2.6c0-0.2,0-0.4,0-0.6c0-0.2,0-0.4,0.1-0.6c0.1-0.2,0.2-0.5,0.5-0.8c0.6-0.5,1.8-0.9,3.8-1
				c0.5,0,0.9-0.1,1.3-0.1s0.8,0,1.1,0v-3.8c0,0,0-0.1,0-0.2c0-0.1,0-0.3-0.1-0.5c-0.1-0.2-0.2-0.4-0.3-0.6
				c-0.1-0.2-0.4-0.4-0.7-0.5c-0.4-0.1-0.8-0.2-1.4-0.2c-0.6,0-1.2,0.1-2,0.3c-0.8,0.2-1.3,0.4-1.7,0.6l-0.1-0.2
				c1.4-0.6,2.7-0.9,4.1-0.9c1.6,0,2.6,0.3,3.1,0.8c0.4,0.4,0.6,0.9,0.6,1.4v7.6c0,0.4,0.1,0.8,0.3,1c0.2,0.2,0.4,0.4,0.5,0.4l0.3,0
				h0.7v0.2H338.5z M332.6,384.6c0.8,0,1.5-0.3,2.2-0.8c0.6-0.6,1-1.1,1-1.6v-2.8c-0.4,0-0.8,0-1.2,0c-0.4,0-0.8,0-1.2,0.1
				c-1.2,0.1-1.9,0.4-2.3,0.8c-0.4,0.4-0.5,0.9-0.5,1.6c0,0.1,0,0.3,0,0.4C330.7,383.8,331.4,384.6,332.6,384.6z"/>
			<path class="st3" d="M97.1,396.1c0.7,0,1.3,0,2,0c0.6,0,1.3,0.1,2.1,0.2c0.7,0.1,1.4,0.4,2.1,0.8c0.7,0.4,1.3,0.9,1.8,1.4
				c0.5,0.6,0.9,1.4,1.2,2.3c0.3,1,0.5,2.1,0.5,3.5s-0.2,2.6-0.7,3.7c-0.4,1.1-1.1,1.9-1.8,2.5c-1.5,1.1-3.3,1.7-5.5,1.7
				c-0.7,0-1.5,0-2.3-0.1h-1.1v-15.9H97.1z M97.2,411.9c0.3,0,0.7,0,1.2,0c0.5,0,0.9,0,1.1,0c0.2,0,0.6-0.1,1-0.2
				c0.4-0.1,0.8-0.3,1.2-0.5c0.4-0.2,0.7-0.5,1.2-0.9c0.4-0.4,0.7-0.8,1-1.4c0.7-1.2,1-2.9,1-4.9c0-1.4-0.2-2.7-0.5-3.7
				c-0.4-1-0.7-1.8-1.2-2.3c-0.4-0.5-1-0.9-1.6-1.2c-0.6-0.3-1.1-0.5-1.5-0.5c-0.4,0-0.8-0.1-1.3-0.1c-0.5,0-1,0-1.5,0.1V411.9z"/>
			<path class="st3" d="M110.7,406.5c0,1.9,0.3,3.3,1,4.1c0.7,0.9,1.5,1.3,2.6,1.3c1.5,0,2.9-0.2,4.1-0.7l0.1,0.2
				c-1.2,0.5-2.6,0.7-4.1,0.7s-2.8-0.5-3.7-1.4c-1-0.9-1.4-2.3-1.4-4.2s0.5-3.4,1.5-4.4c1-1,2.3-1.6,3.8-1.6c1.2,0,2.3,0.4,3.1,1.1
				c0.9,0.7,1.3,1.8,1.3,3.3c0,0.1,0,0.2,0,0.2h-8.1C110.7,405.6,110.7,406.1,110.7,406.5z M116.5,401.8c-0.5-0.7-1.3-1-2.1-1
				c-0.9,0-1.6,0.4-2.3,1.1c-0.7,0.8-1.1,1.8-1.3,3.1h6.6C117.3,403.6,117,402.5,116.5,401.8z"/>
			<path class="st3" d="M123.9,412.1c-1.3,0-2.2-0.4-2.5-1c-0.1-0.2-0.1-0.3-0.1-0.4V395h1.6v15.5c0,0.4,0.1,0.8,0.3,1
				c0.2,0.2,0.4,0.4,0.5,0.4l0.3,0h0.7v0.2H123.9z"/>
			<path class="st3" d="M127,398.1c-0.2-0.2-0.3-0.4-0.3-0.7c0-0.3,0.1-0.5,0.3-0.7c0.2-0.2,0.4-0.3,0.7-0.3c0.3,0,0.5,0.1,0.7,0.3
				c0.2,0.2,0.3,0.4,0.3,0.7c0,0.3-0.1,0.5-0.3,0.7c-0.2,0.2-0.4,0.3-0.7,0.3C127.4,398.4,127.2,398.3,127,398.1z M128.8,412.1
				c-0.6,0-1.1-0.1-1.4-0.4c-0.3-0.3-0.5-0.5-0.5-0.8l0-0.4v-9.8h1.6v9.8c0,0.4,0.1,0.8,0.3,1c0.2,0.2,0.3,0.4,0.5,0.4l0.3,0h0.7
				v0.2H128.8z"/>
			<path class="st3" d="M141.6,412.1c-1,0-1.7-0.2-2.1-0.6c-0.4-0.3-0.5-0.6-0.5-0.9v-0.5c-0.7,1.4-1.9,2-3.6,2
				c-1.9,0-3-0.9-3.3-2.6c0-0.2,0-0.4,0-0.6c0-0.2,0-0.4,0.1-0.6c0.1-0.2,0.2-0.5,0.5-0.8c0.6-0.5,1.8-0.9,3.8-1
				c0.5,0,0.9-0.1,1.3-0.1c0.4,0,0.8,0,1.1,0v-3.8c0,0,0-0.1,0-0.2c0-0.1,0-0.3-0.1-0.5c-0.1-0.2-0.2-0.4-0.3-0.6
				c-0.1-0.2-0.4-0.4-0.7-0.5c-0.4-0.1-0.8-0.2-1.4-0.2c-0.6,0-1.2,0.1-2,0.3c-0.8,0.2-1.3,0.4-1.7,0.6l-0.1-0.2
				c1.4-0.6,2.7-0.9,4.1-0.9c1.6,0,2.6,0.3,3.1,0.8c0.4,0.4,0.6,0.9,0.6,1.4v7.6c0,0.4,0.1,0.8,0.3,1c0.2,0.2,0.4,0.4,0.5,0.4l0.3,0
				h0.7v0.2H141.6z M135.7,412c0.8,0,1.5-0.3,2.2-0.8c0.6-0.6,1-1.1,1-1.6v-2.8c-0.4,0-0.8,0-1.2,0s-0.8,0-1.2,0.1
				c-1.2,0.1-1.9,0.4-2.3,0.8c-0.4,0.4-0.5,0.9-0.5,1.6c0,0.1,0,0.3,0,0.4C133.8,411.2,134.5,412,135.7,412z"/>
			<path class="st3" d="M161,397.1c-1.4-0.5-2.7-0.8-3.9-0.8c-1.2,0-2.2,0.3-2.9,0.8c-0.7,0.5-1,1.2-1,2.1c0,1.1,0.6,2,1.7,2.6
				c0.5,0.3,1.1,0.5,1.7,0.7c0.6,0.2,1.2,0.5,1.9,0.7c0.6,0.3,1.2,0.6,1.7,0.9c0.5,0.4,0.9,0.8,1.3,1.4c0.3,0.6,0.5,1.4,0.5,2.3
				c0,1-0.3,1.8-0.8,2.4c-0.5,0.7-1.2,1.1-1.9,1.4c-0.8,0.2-1.6,0.4-2.6,0.4c-1.9,0-3.5-0.5-4.8-1.4l0.1-0.2c0.5,0.4,1.2,0.7,1.9,1
				c0.8,0.3,1.6,0.4,2.5,0.4c1.2,0,2.3-0.3,3.2-0.9c0.9-0.6,1.3-1.4,1.3-2.5c0-1.2-0.6-2.2-1.7-2.9c-0.5-0.3-1.1-0.6-1.7-0.8
				c-0.6-0.3-1.2-0.5-1.9-0.8c-0.6-0.3-1.2-0.6-1.7-0.9c-1.2-0.8-1.7-1.8-1.7-3.2c0-1.1,0.4-2,1.1-2.7c0.7-0.7,1.9-1,3.4-1
				s3,0.3,4.6,0.8L161,397.1z"/>
			<path class="st3" d="M173.7,412.1c-1,0-1.7-0.2-2.1-0.6c-0.4-0.3-0.5-0.6-0.5-0.9v-0.5c-0.7,1.4-1.9,2-3.6,2
				c-1.9,0-3-0.9-3.3-2.6c0-0.2,0-0.4,0-0.6c0-0.2,0-0.4,0.1-0.6c0.1-0.2,0.2-0.5,0.5-0.8c0.6-0.5,1.8-0.9,3.8-1
				c0.5,0,0.9-0.1,1.3-0.1c0.4,0,0.8,0,1.1,0v-3.8c0,0,0-0.1,0-0.2c0-0.1,0-0.3-0.1-0.5c-0.1-0.2-0.2-0.4-0.3-0.6
				c-0.1-0.2-0.4-0.4-0.7-0.5c-0.4-0.1-0.8-0.2-1.4-0.2c-0.6,0-1.2,0.1-2,0.3c-0.8,0.2-1.3,0.4-1.7,0.6l-0.1-0.2
				c1.4-0.6,2.7-0.9,4.1-0.9c1.6,0,2.6,0.3,3.1,0.8c0.4,0.4,0.6,0.9,0.6,1.4v7.6c0,0.4,0.1,0.8,0.3,1c0.2,0.2,0.4,0.4,0.5,0.4l0.3,0
				h0.7v0.2H173.7z M167.8,412c0.8,0,1.5-0.3,2.2-0.8c0.6-0.6,1-1.1,1-1.6v-2.8c-0.4,0-0.8,0-1.2,0c-0.4,0-0.8,0-1.2,0.1
				c-1.2,0.1-1.9,0.4-2.3,0.8c-0.4,0.4-0.5,0.9-0.5,1.6c0,0.1,0,0.3,0,0.4C165.9,411.2,166.6,412,167.8,412z"/>
			<path class="st3" d="M185.7,412.1c-0.6,0-1.1-0.1-1.4-0.4c-0.3-0.3-0.5-0.5-0.5-0.8l0-0.4v-7.2c0-1.2-0.3-2-0.9-2.3
				c-0.3-0.2-0.7-0.2-1.2-0.2c-1,0-1.8,0.4-2.6,1.2c-0.8,0.8-1.2,1.5-1.2,2.1v8.1h-1.6v-11.4h1.6v2.6c0.3-0.7,0.7-1.3,1.4-1.8
				c0.7-0.6,1.5-0.9,2.3-0.9s1.5,0.1,2,0.2c0.5,0.2,0.9,0.4,1.2,0.7c0.4,0.5,0.6,1.1,0.6,1.8v7.1c0,0.4,0.1,0.8,0.3,1
				c0.2,0.2,0.4,0.4,0.5,0.4l0.3,0h0.7v0.2H185.7z"/>
			<path class="st3" d="M188.6,400.8v-0.2h0.5v-2.3h1.6v2.3h3.5v0.2h-3.5v8.3c0,1,0.1,1.7,0.3,2.1c0.2,0.4,0.7,0.7,1.4,0.7
				c0.7,0,1.4-0.1,2.2-0.4l0.1,0.2c-0.8,0.3-1.6,0.4-2.6,0.4c-1,0-1.7-0.2-2.2-0.6c-0.5-0.4-0.7-1.2-0.7-2.4v-8.3H188.6z"/>
			<path class="st3" d="M196.8,398.1c-0.2-0.2-0.3-0.4-0.3-0.7c0-0.3,0.1-0.5,0.3-0.7c0.2-0.2,0.4-0.3,0.7-0.3
				c0.3,0,0.5,0.1,0.7,0.3c0.2,0.2,0.3,0.4,0.3,0.7c0,0.3-0.1,0.5-0.3,0.7c-0.2,0.2-0.4,0.3-0.7,0.3
				C197.2,398.4,196.9,398.3,196.8,398.1z M198.6,412.1c-0.6,0-1.1-0.1-1.4-0.4c-0.3-0.3-0.5-0.5-0.5-0.8l0-0.4v-9.8h1.6v9.8
				c0,0.4,0.1,0.8,0.3,1c0.2,0.2,0.3,0.4,0.5,0.4l0.3,0h0.7v0.2H198.6z"/>
			<path class="st3" d="M201.9,395h1.6v8.5c0.3-0.7,0.7-1.4,1.4-2c0.7-0.6,1.5-0.9,2.4-0.9c3.1,0,4.6,1.8,4.6,5.4c0,4.1-2,6.2-6,6.2
				c-1.2,0-2.5-0.2-4.1-0.6V395z M207.3,400.8c-0.9,0-1.8,0.4-2.6,1.2c-0.8,0.8-1.2,1.5-1.2,2.2v7.3c0.9,0.4,1.7,0.5,2.4,0.5
				c2.9,0,4.4-2,4.4-6C210.4,402.5,209.3,400.8,207.3,400.8z"/>
			<path class="st3" d="M223.8,412.1c-1,0-1.7-0.2-2.1-0.6c-0.4-0.3-0.5-0.6-0.5-0.9v-0.5c-0.7,1.4-1.9,2-3.6,2
				c-1.9,0-3-0.9-3.3-2.6c0-0.2,0-0.4,0-0.6c0-0.2,0-0.4,0.1-0.6c0.1-0.2,0.2-0.5,0.5-0.8c0.6-0.5,1.8-0.9,3.8-1
				c0.5,0,0.9-0.1,1.3-0.1c0.4,0,0.8,0,1.1,0v-3.8c0,0,0-0.1,0-0.2s0-0.3-0.1-0.5c-0.1-0.2-0.2-0.4-0.3-0.6
				c-0.1-0.2-0.4-0.4-0.7-0.5c-0.4-0.1-0.8-0.2-1.4-0.2c-0.6,0-1.2,0.1-2,0.3c-0.8,0.2-1.3,0.4-1.7,0.6l-0.1-0.2
				c1.4-0.6,2.7-0.9,4.1-0.9c1.6,0,2.6,0.3,3.1,0.8c0.4,0.4,0.6,0.9,0.6,1.4v7.6c0,0.4,0.1,0.8,0.3,1c0.2,0.2,0.4,0.4,0.5,0.4l0.3,0
				h0.7v0.2H223.8z M217.9,412c0.8,0,1.5-0.3,2.2-0.8c0.6-0.6,1-1.1,1-1.6v-2.8c-0.4,0-0.8,0-1.2,0c-0.4,0-0.8,0-1.2,0.1
				c-1.2,0.1-1.9,0.4-2.3,0.8c-0.4,0.4-0.5,0.9-0.5,1.6c0,0.1,0,0.3,0,0.4C216,411.2,216.7,412,217.9,412z"/>
			<path class="st3" d="M235.8,412.1c-0.6,0-1.1-0.1-1.4-0.4c-0.3-0.3-0.5-0.5-0.5-0.8l0-0.4v-7.2c0-1.2-0.3-2-0.9-2.3
				c-0.3-0.2-0.7-0.2-1.2-0.2c-1,0-1.8,0.4-2.6,1.2c-0.8,0.8-1.2,1.5-1.2,2.1v8.1h-1.6v-11.4h1.6v2.6c0.3-0.7,0.7-1.3,1.4-1.8
				c0.7-0.6,1.5-0.9,2.3-0.9c0.8,0,1.5,0.1,2,0.2c0.5,0.2,0.9,0.4,1.2,0.7c0.4,0.5,0.6,1.1,0.6,1.8v7.1c0,0.4,0.1,0.8,0.3,1
				c0.2,0.2,0.4,0.4,0.5,0.4l0.3,0h0.7v0.2H235.8z M229,398c-0.8,0-1.3,0.3-1.4,0.8l-0.2-0.1c0.1-0.5,0.3-0.9,0.6-1.2
				c0.1-0.1,0.3-0.2,0.5-0.3l0.5-0.1c0.3-0.1,0.7,0,1.4,0.1c0.7,0.2,1.3,0.3,1.8,0.4c0.6,0.1,1.1,0.2,1.6,0.2c0.5,0,0.8-0.1,1-0.2
				c0.2-0.1,0.3-0.4,0.4-0.7l0.2,0c-0.2,0.8-0.5,1.4-0.9,1.6c-0.2,0.1-0.4,0.2-0.5,0.2c-0.2,0-0.3,0-0.5,0c-0.4,0-0.7-0.1-1.2-0.2
				c-0.4-0.1-0.7-0.2-0.7-0.2c0,0-0.1,0-0.1,0c0,0-0.3-0.1-0.9-0.2S229.6,398,229,398z"/>
			<path class="st3" d="M240.2,406.5c0,1.9,0.3,3.3,1,4.1c0.7,0.9,1.5,1.3,2.6,1.3c1.5,0,2.9-0.2,4.1-0.7l0.1,0.2
				c-1.2,0.5-2.6,0.7-4.1,0.7c-1.5,0-2.8-0.5-3.7-1.4c-1-0.9-1.4-2.3-1.4-4.2s0.5-3.4,1.5-4.4c1-1,2.3-1.6,3.8-1.6
				c1.2,0,2.3,0.4,3.1,1.1c0.9,0.7,1.3,1.8,1.3,3.3c0,0.1,0,0.2,0,0.2h-8.1C240.2,405.6,240.2,406.1,240.2,406.5z M246,401.8
				c-0.5-0.7-1.3-1-2.1-1c-0.9,0-1.6,0.4-2.3,1.1c-0.7,0.8-1.1,1.8-1.3,3.1h6.6C246.8,403.6,246.5,402.5,246,401.8z"/>
			<path class="st3" d="M251,400.8v-0.2h7.9v0.2l-6.9,11h5.5c1,0,1.7-0.3,1.9-0.9l0.1,0.1c0,0.1-0.1,0.2-0.2,0.3
				c-0.1,0.1-0.2,0.3-0.4,0.4c-0.4,0.2-0.9,0.4-1.5,0.4h-7v-0.2l6.9-11H251z"/>
			<path class="st3" d="M277.4,412.2c-2.8,0-4.9-0.8-6.3-2.4c-0.5-0.6-0.9-1.3-1.2-2.3c-0.3-1-0.5-2.1-0.5-3.5
				c0-1.4,0.2-2.6,0.7-3.7c0.4-1.1,1.1-1.9,1.8-2.5c1.5-1.1,3.3-1.7,5.5-1.7c0.7,0,1.4,0,2,0.1c0.7,0.1,1.1,0.2,1.5,0.3l0.5,0.2
				l-0.1,0.2c-1.2-0.4-2.5-0.6-3.9-0.6c-1.6,0-3,0.5-4,1.6c-0.8,0.8-1.4,1.9-1.7,3.4c-0.2,0.9-0.3,1.9-0.3,3.1s0.2,2.4,0.5,3.4
				c0.4,1,0.7,1.8,1.2,2.3c0.4,0.5,1,0.9,1.6,1.2c0.6,0.3,1.1,0.5,1.5,0.5c0.4,0,0.8,0.1,1.4,0.1c0.5,0,1.2-0.1,2.1-0.2V407h-2.8
				v-0.2h5.6v0.2h-1v4.5C280.4,412,279,412.2,277.4,412.2z"/>
			<path class="st3" d="M293.5,412.1c-1,0-1.7-0.2-2.1-0.6c-0.4-0.3-0.5-0.6-0.5-0.9v-0.5c-0.7,1.4-1.9,2-3.6,2
				c-1.9,0-3-0.9-3.3-2.6c0-0.2,0-0.4,0-0.6c0-0.2,0-0.4,0.1-0.6c0.1-0.2,0.2-0.5,0.5-0.8c0.6-0.5,1.8-0.9,3.8-1
				c0.5,0,0.9-0.1,1.3-0.1c0.4,0,0.8,0,1.1,0v-3.8c0,0,0-0.1,0-0.2c0-0.1,0-0.3-0.1-0.5c-0.1-0.2-0.2-0.4-0.3-0.6
				c-0.1-0.2-0.4-0.4-0.7-0.5c-0.4-0.1-0.8-0.2-1.4-0.2c-0.6,0-1.2,0.1-2,0.3c-0.8,0.2-1.3,0.4-1.7,0.6l-0.1-0.2
				c1.4-0.6,2.7-0.9,4.1-0.9c1.6,0,2.6,0.3,3.1,0.8c0.4,0.4,0.6,0.9,0.6,1.4v7.6c0,0.4,0.1,0.8,0.3,1c0.2,0.2,0.4,0.4,0.5,0.4l0.3,0
				h0.7v0.2H293.5z M287.7,412c0.8,0,1.5-0.3,2.2-0.8c0.6-0.6,1-1.1,1-1.6v-2.8c-0.4,0-0.8,0-1.2,0c-0.4,0-0.8,0-1.2,0.1
				c-1.2,0.1-1.9,0.4-2.3,0.8c-0.4,0.4-0.5,0.9-0.5,1.6c0,0.1,0,0.3,0,0.4C285.8,411.2,286.5,412,287.7,412z"/>
			<path class="st3" d="M300.4,401.6v-0.5c-0.7,0.3-1.3,0.8-1.9,1.7c-0.6,0.8-0.9,1.6-0.9,2.3v6.9h-1.6v-11.4h1.6v3.6
				c0.2-0.9,0.7-1.7,1.4-2.5c0.7-0.8,1.5-1.2,2.3-1.2h0.1c0.3,0,0.6,0.1,0.8,0.3c0.2,0.2,0.3,0.5,0.3,0.8s-0.1,0.6-0.3,0.8
				c-0.2,0.2-0.5,0.3-0.8,0.3c-0.3,0-0.6-0.1-0.8-0.3C300.5,402.2,300.4,401.9,300.4,401.6z"/>
			<path class="st3" d="M309.5,400.8c-1.1,0-2,0.5-2.7,1.6c-0.7,1-1.1,2.5-1.1,4.3s0.3,3.2,1,4.1c0.7,0.9,1.5,1.3,2.6,1.3
				c1.4,0,2.6-0.2,3.6-0.7l0.1,0.2c-1.1,0.5-2.3,0.7-3.8,0.7c-1.4,0-2.6-0.5-3.6-1.4c-1-0.9-1.4-2.3-1.4-4.2s0.5-3.4,1.5-4.4
				c1-1,2.3-1.6,3.8-1.6c0.9,0,1.7,0.2,2.4,0.6c0.7,0.4,1.3,1,1.6,1.8h-1.5c-0.2-0.7-0.6-1.3-1-1.7
				C310.6,400.9,310,400.8,309.5,400.8z"/>
			<path class="st3" d="M317.9,412.1c-0.6,0-1.1-0.1-1.4-0.4c-0.3-0.3-0.5-0.5-0.5-0.8l0-0.4v-9.8h1.6v9.8c0,0.4,0.1,0.8,0.3,1
				c0.2,0.2,0.4,0.4,0.5,0.4l0.3,0h0.7v0.2H317.9z M317.6,395.9l1.6,0l-2.4,3.3h-0.3L317.6,395.9z"/>
			<path class="st3" d="M330.1,412.1c-1,0-1.7-0.2-2.1-0.6c-0.4-0.3-0.5-0.6-0.5-0.9v-0.5c-0.7,1.4-1.9,2-3.6,2
				c-1.9,0-3-0.9-3.3-2.6c0-0.2,0-0.4,0-0.6c0-0.2,0-0.4,0.1-0.6c0.1-0.2,0.2-0.5,0.5-0.8c0.6-0.5,1.8-0.9,3.8-1
				c0.5,0,0.9-0.1,1.3-0.1s0.8,0,1.1,0v-3.8c0,0,0-0.1,0-0.2c0-0.1,0-0.3-0.1-0.5c-0.1-0.2-0.2-0.4-0.3-0.6
				c-0.1-0.2-0.4-0.4-0.7-0.5c-0.4-0.1-0.8-0.2-1.4-0.2c-0.6,0-1.2,0.1-2,0.3c-0.8,0.2-1.3,0.4-1.7,0.6l-0.1-0.2
				c1.4-0.6,2.7-0.9,4.1-0.9c1.6,0,2.6,0.3,3.1,0.8c0.4,0.4,0.6,0.9,0.6,1.4v7.6c0,0.4,0.1,0.8,0.3,1c0.2,0.2,0.4,0.4,0.5,0.4l0.3,0
				h0.7v0.2H330.1z M324.3,412c0.8,0,1.5-0.3,2.2-0.8c0.6-0.6,1-1.1,1-1.6v-2.8c-0.4,0-0.8,0-1.2,0c-0.4,0-0.8,0-1.2,0.1
				c-1.2,0.1-1.9,0.4-2.3,0.8c-0.4,0.4-0.5,0.9-0.5,1.6c0,0.1,0,0.3,0,0.4C322.4,411.2,323,412,324.3,412z"/>
		</g>
	</g>
	<g>
		<g>
			<path class="st2" d="M137.7,484.5c-3.6,7.9-2.3,12.9,2.3,10.7c2.8-1.3,2,1.6-0.9,1.5c-5.4-0.2-7-3.9-4.9-10.3
				c1.4-4.2,8.7-17.6,9.4-21.7c0.5-2.8-2.1-2.8-4.9-1.5c-3,1.4-6,3.9-8.9,7.3c-5.6,6.8-9.7,16.4-12.3,21.9c-0.7,1.4-3.6,1.5-3.3,0.2
				c2-2.9,8.2-15.3,10.1-23.8c2.3-10.5-5.7-9.7-12.5-5.4c-11.8,7.3-13.1,21.9-5.2,21.9c8.4,0,13.4-12.3,6.3-11.4
				c-0.8,0.1-0.5-0.6-0.1-0.6c9.5-2.3,4.3,12.8-6.3,12.8c-5.1,0-9.4-5.1-6-13.2c1.9-4.6,6.3-8.6,10.9-11.1
				c6.6-3.6,16.8-4.2,15.6,5.6c-0.4,3.1-2,6.3-3.3,9.3c-2.1,4.5-0.6,1.6,0.2,0.4c1.4-2.2,3.3-4.8,5.3-7.2c3-3.6,6.4-6.9,9.5-8.3
				c3.8-1.8,8.3-1.6,8.2,2.7C146.7,469,141.6,475.9,137.7,484.5z"/>
			<path class="st2" d="M151.5,490.9c-1.8,0-2.9-1.9-1.8-5.1c-1.4,2.4-3.4,5.1-5.4,5.1c-0.8,0-2.2-0.3-2.5-1.8
				c-0.4-1.7,0.6-3.2,1.4-4.6c-0.2,0-0.6-0.1-0.4-0.6l0.7-1.4c0.8-1.5,1.6-3.2,2.2-4.4c0.3-0.6,0.8-0.8,1.6-0.8h2.4
				c-0.9,0.7-1.5,1.2-2.6,3.4c0,0-1.8,3.6-2.5,5.1c-1.9,4.2-0.2,5.7,2.4,2.8c2.2-2.6,4.4-7.3,5.9-10.4c0.3-0.6,0.8-0.8,1.6-0.8h2.2
				c-1.2,0.9-1.6,1.5-2.8,4c-1.1,2.2-2.4,5-2.7,6.3c-0.4,1.7,0.2,2.4,0.8,2.4c2,0,4-3.8,5.3-6.7c0.3-0.7,1-0.4,0.6,0.4
				C156.6,486.3,154.5,490.9,151.5,490.9z"/>
			<path class="st2" d="M160.1,491.1c-2,0-3.8-1.3-3.8-3.8c0-2.4,1.3-5.4,3.1-7.5c2-2.4,5.1-3.9,6.8-2.6c1.5,1.2,0.4,3.9-2.2,5.8
				c-1.2,0.9-3.8,1.8-4.9,1.8c-0.6,1.4-1.3,5.5,1.4,5.5c3.5,0,5.7-4.7,6.6-6.8c0.3-0.7,1.1-0.8,0.7,0
				C166.3,486.7,164.6,491.1,160.1,491.1z M161.8,480.4c-1,1.3-2,3-2.4,3.8c0.7,0,2.8-0.6,4.2-1.8
				C166.9,479.6,166.7,474.4,161.8,480.4z"/>
			<path class="st2" d="M169.6,490.7c-0.6,0.2-1.1,0.4-1.6,0.4c-4.8,0-3.9-5.5-2-5.6c1.1-2,2.4-4.6,3.4-6.9c0.7-1.6,1.9-3.2,3.3-3.4
				c0.6-0.1,1.1,0,1.5,0.2c0.7,0.4,0.6,1-0.2,0.7c-0.4-0.2-0.9-0.2-1.3,0c-1.8,0.9-1.4,3.6-0.8,5.1c0.6,1.5,1.5,3,1.4,4.7
				c-0.1,1.6-1.3,3.4-2.8,4.4l0.3,0c1.4,0.2,2.6-0.6,3.6-1.8c0.9-1.1,2.2-3.6,3-5.2c0.2-0.4,0.8-0.2,0.6,0.2
				C176.5,486.7,174.1,492.1,169.6,490.7z M166.9,487.3c-1.3,1.3-0.8,3.2,0.8,3.2c0.3,0,0.6,0,0.8-0.2
				C167.7,489.8,167,488.8,166.9,487.3z M170.4,478.2c-1.1,2.2-2.8,5.6-3.8,7.4c0,0,0.9,0,0.8,1.3c-0.1,1.5,0.8,2.6,1.7,3.1
				c0.9-0.7,1.6-2,1.8-4.2C171.1,483.3,170.1,480,170.4,478.2z"/>
			<path class="st2" d="M187.1,476.7h-2.3c-1.4,2.3-3,4.4-5.3,6.6c-0.4,1-0.9,4.1-0.9,4.1c-0.6,2.7,1.2,3,2.6,2.1
				c1.8-1.4,3.2-3.9,4.2-6c0.3-0.7,0.9-0.6,0.5,0.2c-1.8,3.7-2.4,4.7-3.9,6.2c-2.2,2.1-6.1,1.4-5.5-3c0.4-2.7,1.8-7.1,3.1-10.2h-2.1
				c-0.4,0-0.4-0.9,0.1-0.9h2.4c0.9-2,1.9-4,2.9-5.7c2.8-4.8,7.1-4.2,4.1,2.2c-0.6,1.2-1.1,2.3-1.7,3.4h1.9
				C187.6,475.8,187.5,476.7,187.1,476.7z M182,476.7c-0.8,2-1.6,3.9-2.2,5.3c1.5-1.6,2.9-3.4,4-5.3H182z M185.2,470
				c-1,1.4-1.8,3.6-2.8,5.8h2c0.8-1.4,1.4-2.8,2-4.1C187.1,470,187.7,466.5,185.2,470z"/>
			<path class="st2" d="M190.5,490.9c-1.4,0.3-3.8-0.9-2.2-5c0.6-1.6,2-3.7,2.5-4.7c0.6-1.3-0.8-1.8-3.1-1.9l-0.5,1.3
				c-1,2.5-2.9,6.9-4.8,8.8c-0.3,0.3-0.6-0.2-0.3-0.5c3.2-4.2,5.3-10.2,6.1-14.6c0.4-2.2,3-1.2,2.4,1.4c-0.2,1.1-1.5,2.2-2.2,2.7
				c1.5,0.1,3.6,0,5.5-0.2c0.3,0.6-0.4,2.1-0.8,3.1c-0.6,1.2-4.7,8.5-2.3,8.7c1.6,0,4.1-4.9,4.9-6.7c0.4-0.7,0.9-0.4,0.5,0.4
				C195.1,486,193.1,490.3,190.5,490.9z"/>
			<path class="st2" d="M203.5,490.6c-1.2,0-2-0.4-2.6-1c-1.1,0.8-2.3,1.4-3.5,1.4c-3-0.1-3.5-3.7-2-7.3c1.6-3.7,4.9-6.8,7.6-6.7
				c3,0,3.5,3.7,2,7.3c-0.6,1.4-1.8,3.3-3.4,4.7c0.3,0.6,0.9,1,1.9,1c2.6,0,4.6-4.9,5.6-6.9c0.2-0.4,0.9-0.2,0.6,0.4
				C209.1,485,206.8,490.6,203.5,490.6z M198.2,483.5c-1.6,3.3-1.9,6.1-0.5,6.5c0.8,0.2,1.8-0.2,2.7-1c-0.4-0.6-0.6-1.4-0.6-2
				c0-0.9,0.4-1.7,1.4-1.7c0.7,0,1.2,0.6,1.2,1.2c0,0.2,0,0.3-0.1,0.4c0.4-0.6,0.9-1.4,1.2-2.2c1.6-3.3,1.8-6.1,0.3-6.5
				C202.2,477.8,199.7,480.4,198.2,483.5z"/>
			<path class="st2" d="M211.6,490.7c-0.6,0.2-1.1,0.4-1.6,0.4c-4.8,0-3.9-5.5-2-5.6c1.1-2,2.4-4.6,3.4-6.9c0.7-1.6,1.9-3.2,3.3-3.4
				c0.6-0.1,1.1,0,1.5,0.2c0.7,0.4,0.6,1-0.2,0.7c-0.4-0.2-0.9-0.2-1.3,0c-1.8,0.9-1.4,3.6-0.8,5.1c0.6,1.5,1.5,3,1.4,4.7
				c-0.1,1.6-1.3,3.4-2.8,4.4l0.3,0c1.4,0.2,2.6-0.6,3.6-1.8c0.9-1.1,2.2-3.6,3-5.2c0.2-0.4,0.8-0.2,0.6,0.2
				C218.5,486.7,216.1,492.1,211.6,490.7z M208.9,487.3c-1.3,1.3-0.8,3.2,0.8,3.2c0.3,0,0.6,0,0.8-0.2
				C209.6,489.8,208.9,488.8,208.9,487.3z M212.4,478.2c-1.1,2.2-2.8,5.6-3.8,7.4c0,0,0.9,0,0.8,1.3c-0.1,1.5,0.8,2.6,1.7,3.1
				c0.9-0.7,1.6-2,1.8-4.2C213,483.3,212,480,212.4,478.2z"/>
			<path class="st2" d="M238.3,487.9c-2.2,2.6-5.7,4-8.5,2.3l-3.8,9.5c-0.8,1.7-1.4,2.2-2.7,2.1c-0.5,0-1.1-0.3-1.7-0.2
				c1-1,7.8-13.9,8.5-17.6c-0.4,0.7-1.2,0.9-0.9,0.4c0.2-0.4,0.6-1.3,0.8-1.8c0.8-1.8,1.2-4.8,0.2-5c0,0,1.6-0.3,2-0.3
				c1.2-0.1,1.5-0.3,1.4,1.6c0,1.3-0.6,3.4-1.1,4.8c1.2-2,4.4-7.5,7.1-6.7C243.4,478,241.2,484.4,238.3,487.9z M235.4,480.6
				c-1.5,2.1-3.5,5.5-5.3,9.1c2,2,6.3-2.5,8.5-6.4C241.2,478.3,238.8,475.8,235.4,480.6z"/>
			<path class="st2" d="M251.6,491c-1.3,0.1-3.2-1-2-5.1c-0.6,1-1.7,2.6-2.9,3.8c-4.6,4.4-7.6-2.6-1.6-9.8c2.4-2.8,7-4.3,9.3-1.8
				c0.6,0.6,0.2,1.3-0.4,1.2c-0.4-1.5-1.9-1.8-3.4-1c-1.8,1-3.9,3.4-5.3,5.7c-0.3,0.6-1.4,2.5-1.6,4c-0.4,2.8,1.8,2.5,3.7,0.2
				c1.4-1.7,2.5-3.6,3.6-5.6c0.9-1.7,1.4-2.6,2.7-2.6c0.5,0,1.1,0.3,1.7,0.2c-0.8,0.8-3.2,5-3.7,7.5c-0.3,1.6-0.1,2.4,0.4,2.4
				c1.7,0.1,4.3-5,5.1-6.7c0.4-0.7,1-0.5,0.6,0.3C256.4,486,253.9,490.8,251.6,491z"/>
			<path class="st2" d="M266.2,485.6c-0.4,0.9-1.6,4.3,0.2,4.3c2,0,4.3-4.9,5.1-6.6c0.3-0.7,1-0.6,0.6,0.2c-1,2.2-3.3,7.4-6.5,7.4
				c-0.6,0-1.3-0.3-1.8-1.1c-0.4-0.7-0.8-1.9-0.4-3.5c-1.2,2-3.1,5.1-5.8,4.4c-3.8-1-1.6-7.5,1.4-11c2.2-2.6,5.7-4,8.6-2.3
				c1.9-3.6,3.7-7.3,4.6-9.5c0.8-1.8,1.4-2.2,2.7-2.1c0.5,0,1.1,0.2,1.7,0.2C275.6,467.2,268.6,480.1,266.2,485.6z M258.9,484.5
				c-2.6,4.9-0.2,7.4,3.2,2.6c1.5-2.1,3.5-5.5,5.3-9C265.4,476.2,261,480.6,258.9,484.5z"/>
			<path class="st2" d="M276.8,490.9c-1.4,0.3-3.8-0.9-2.2-5c0.6-1.6,2-3.7,2.5-4.7c0.6-1.3-0.8-1.8-3.1-1.9l-0.5,1.3
				c-1,2.5-2.9,6.9-4.8,8.8c-0.3,0.3-0.6-0.2-0.3-0.5c3.2-4.2,5.3-10.2,6.1-14.6c0.4-2.2,3-1.2,2.4,1.4c-0.2,1.1-1.5,2.2-2.2,2.7
				c1.5,0.1,3.6,0,5.5-0.2c0.3,0.6-0.4,2.1-0.8,3.1c-0.6,1.2-4.7,8.5-2.3,8.7c1.6,0,4.1-4.9,4.9-6.7c0.4-0.7,0.9-0.4,0.5,0.4
				C281.4,486,279.4,490.3,276.8,490.9z"/>
			<path class="st2" d="M283.4,490.1c0.6,0.1,1.4-0.4,1.8-0.8c1.3-1.3,2.6-3.8,3.8-6c0.3-0.7,0.9-0.4,0.5,0.4
				c-1,2.2-3.3,7.3-6.3,7.3c-3,0-3-3.1-2.2-5.2l2.6-6.5c0.3-0.8-0.2-1.5-0.4-1.7l2.2,0c1.3,0,1.3,0.4,0.8,1.4l-3.2,7.5
				c0,0-0.4,0.9-0.5,1.2C282.2,488.9,282.3,490,283.4,490.1z M286.3,475.9c-0.9,0-1.5-0.7-1.4-1.6c0.2-0.9,1-1.6,1.9-1.6
				c0.9,0,1.6,0.7,1.4,1.6C288,475.2,287.2,475.9,286.3,475.9z"/>
			<path class="st2" d="M296.3,491.1c-1.4,0-3.3-1-2.1-4.7c0.3-1,1.1-2.4,2.2-4.2c1-1.6,0.2-2.6-2.8,0.2c-1.4,1.2-3.3,3.5-5.5,7.9
				c-0.3,0.6-0.7,0.6-1.5,0.6c-0.6,0-1,0-1.4,0.2c1.9-3.8,3.6-7.6,5.5-11.2c1-1.9,1.6-2.6,2.8-2.5c0.5,0,1.1,0.3,1.7,0.2
				c-1.2,0.6-3.4,4.6-4.8,7.5c0.8-1,2.1-2.5,3.3-3.6c1.9-1.7,6-4.2,7.4-3.8c0,0-4.3,7.5-4.8,10.3c-0.3,1.6,0.1,2,0.6,2
				c2.1,0,4.6-5.2,5.5-6.9c0.3-0.7,1-0.4,0.6,0.4C301.7,486,299.4,491.1,296.3,491.1z"/>
			<path class="st2" d="M310.1,490.6c-1.2,0-2-0.4-2.6-1c-1.1,0.8-2.3,1.4-3.5,1.4c-3-0.1-3.5-3.7-2-7.3c1.6-3.7,4.9-6.8,7.6-6.7
				c3,0,3.5,3.7,2,7.3c-0.6,1.4-1.8,3.3-3.4,4.7c0.3,0.6,0.9,1,1.9,1c2.6,0,4.6-4.9,5.6-6.9c0.2-0.4,0.9-0.2,0.6,0.4
				C315.7,485,313.4,490.6,310.1,490.6z M304.9,483.5c-1.6,3.3-1.9,6.1-0.5,6.5c0.8,0.2,1.8-0.2,2.7-1c-0.4-0.6-0.6-1.4-0.6-2
				c0-0.9,0.4-1.7,1.4-1.7c0.7,0,1.2,0.6,1.2,1.2c0,0.2,0,0.3-0.1,0.4c0.4-0.6,0.9-1.4,1.2-2.2c1.6-3.3,1.8-6.1,0.3-6.5
				C308.8,477.8,306.3,480.4,304.9,483.5z"/>
			<path class="st2" d="M318.2,490.7c-0.6,0.2-1.1,0.4-1.6,0.4c-4.8,0-3.9-5.5-2-5.6c1.1-2,2.4-4.6,3.4-6.9c0.7-1.6,1.9-3.2,3.3-3.4
				c0.6-0.1,1.1,0,1.5,0.2c0.7,0.4,0.6,1-0.2,0.7c-0.4-0.2-0.9-0.2-1.3,0c-1.8,0.9-1.4,3.6-0.8,5.1c0.6,1.5,1.5,3,1.4,4.7
				c-0.1,1.6-1.3,3.4-2.8,4.4l0.3,0c1.4,0.2,2.6-0.6,3.6-1.8c0.9-1.1,2.2-3.6,3-5.2c0.2-0.4,0.8-0.2,0.6,0.2
				C325.1,486.7,322.7,492.1,318.2,490.7z M315.5,487.3c-1.3,1.3-0.8,3.2,0.8,3.2c0.3,0,0.6,0,0.8-0.2
				C316.2,489.8,315.6,488.8,315.5,487.3z M319,478.2c-1.1,2.2-2.8,5.6-3.8,7.4c0,0,0.9,0,0.8,1.3c-0.1,1.5,0.8,2.6,1.7,3.1
				c0.9-0.7,1.6-2,1.8-4.2C319.6,483.3,318.7,480,319,478.2z"/>
		</g>
	</g>
	<g>
		<g>
			<path class="st3" d="M101.2,539.1c-2.8,0-4.9-0.8-6.3-2.4c-0.5-0.6-0.9-1.3-1.2-2.3c-0.3-1-0.5-2.1-0.5-3.5
				c0-1.4,0.2-2.6,0.7-3.7c0.4-1.1,1.1-1.9,1.8-2.5c1.5-1.1,3.3-1.7,5.4-1.7c0.6,0,1.2,0,1.8,0.1c0.6,0.1,1,0.2,1.3,0.3l0.4,0.2
				l-0.1,0.2c-1-0.4-2.2-0.6-3.4-0.6c-1.6,0-3,0.5-4,1.6c-0.8,0.8-1.4,1.9-1.7,3.4c-0.2,0.9-0.3,1.9-0.3,3.1s0.2,2.4,0.5,3.4
				c0.4,1,0.7,1.8,1.2,2.3c0.4,0.5,1,0.9,1.6,1.2c0.6,0.3,1.1,0.5,1.5,0.5c0.4,0,0.8,0.1,1.4,0.1c0.5,0,1.2-0.1,1.8-0.2
				c0.7-0.1,1.2-0.2,1.6-0.3l0.5-0.2l0.1,0.2C104.3,538.9,102.9,539.1,101.2,539.1z"/>
			<path class="st3" d="M117.1,539.1c-1,0-1.7-0.2-2.1-0.6c-0.4-0.3-0.5-0.6-0.5-0.9v-0.5c-0.7,1.4-1.9,2-3.6,2
				c-1.9,0-3-0.9-3.3-2.6c0-0.2,0-0.4,0-0.6c0-0.2,0-0.4,0.1-0.6c0.1-0.2,0.2-0.5,0.5-0.8c0.6-0.5,1.8-0.9,3.8-1
				c0.5,0,0.9-0.1,1.3-0.1s0.8,0,1.1,0v-3.8c0,0,0-0.1,0-0.2c0-0.1,0-0.3-0.1-0.5c-0.1-0.2-0.2-0.4-0.3-0.6
				c-0.1-0.2-0.4-0.4-0.7-0.5c-0.4-0.1-0.8-0.2-1.4-0.2c-0.6,0-1.2,0.1-2,0.3c-0.8,0.2-1.3,0.4-1.7,0.6l-0.1-0.2
				c1.4-0.6,2.7-0.9,4.1-0.9c1.6,0,2.6,0.3,3.1,0.8c0.4,0.4,0.6,0.9,0.6,1.4v7.6c0,0.4,0.1,0.8,0.3,1c0.2,0.2,0.4,0.4,0.5,0.4l0.3,0
				h0.7v0.2H117.1z M111.2,539c0.8,0,1.5-0.3,2.2-0.8c0.6-0.6,1-1.1,1-1.6v-2.8c-0.4,0-0.8,0-1.2,0c-0.4,0-0.8,0-1.2,0.1
				c-1.2,0.1-1.9,0.4-2.3,0.8c-0.4,0.4-0.5,0.9-0.5,1.6c0,0.1,0,0.3,0,0.4C109.4,538.2,110,539,111.2,539z"/>
			<path class="st3" d="M124,528.6v-0.5c-0.7,0.3-1.3,0.8-1.9,1.7c-0.6,0.8-0.9,1.6-0.9,2.3v6.9h-1.6v-11.4h1.6v3.6
				c0.2-0.9,0.7-1.7,1.4-2.5c0.7-0.8,1.5-1.2,2.3-1.2h0.1c0.3,0,0.6,0.1,0.8,0.3c0.2,0.2,0.3,0.5,0.3,0.8c0,0.3-0.1,0.6-0.3,0.8
				c-0.2,0.2-0.5,0.3-0.8,0.3c-0.3,0-0.6-0.1-0.8-0.3C124.1,529.2,124,528.9,124,528.6z"/>
			<path class="st3" d="M131.3,539.1c-1.3,0-2.2-0.4-2.5-1c-0.1-0.2-0.1-0.3-0.1-0.4V522h1.6v15.5c0,0.4,0.1,0.8,0.3,1
				c0.2,0.2,0.4,0.4,0.5,0.4l0.3,0h0.7v0.2H131.3z"/>
			<path class="st3" d="M138.6,539.1c-1.6,0-2.9-0.5-3.9-1.4c-1-0.9-1.5-2.3-1.5-4.2c0-1.9,0.5-3.4,1.6-4.4s2.4-1.6,4-1.6
				c1.6,0,2.9,0.5,3.9,1.4c1,0.9,1.5,2.3,1.5,4.2s-0.5,3.4-1.6,4.4C141.5,538.6,140.2,539.1,138.6,539.1z M138.7,527.7
				c-1.2,0-2.1,0.5-2.9,1.5c-0.8,1-1.1,2.5-1.1,4.3c0,1.8,0.3,3.2,1,4.1c0.7,0.9,1.6,1.3,2.8,1.3s2.1-0.5,2.9-1.5
				c0.8-1,1.1-2.5,1.1-4.3s-0.4-3.2-1-4.1C140.8,528.2,139.9,527.7,138.7,527.7z"/>
			<path class="st3" d="M152.7,528.5c-0.2-0.2-0.6-0.4-1.2-0.5c-0.5-0.1-0.9-0.2-1.2-0.2c-0.3,0-0.4,0-0.5,0c-0.8,0-1.4,0.2-1.8,0.6
				c-0.4,0.4-0.5,0.9-0.5,1.4c0,0.5,0.2,0.9,0.5,1.3c0.3,0.3,0.7,0.6,1.2,0.8c0.5,0.2,1,0.4,1.6,0.7c0.6,0.2,1.1,0.5,1.6,0.7
				c0.5,0.3,0.9,0.6,1.2,1.1c0.3,0.5,0.5,1.1,0.5,1.8s-0.3,1.3-0.8,1.8c-0.5,0.5-1.1,0.8-1.7,1s-1.3,0.3-2,0.3c-1.6,0-2.7-0.3-3.5-1
				l0.1-0.1c0.3,0.3,0.8,0.5,1.4,0.7c0.6,0.2,1.2,0.3,1.7,0.3c0.9,0,1.6-0.2,2.2-0.7c0.6-0.5,0.9-1.1,0.9-1.8c0-0.7-0.2-1.3-0.7-1.8
				c-0.4-0.4-1-0.8-1.6-1c-0.6-0.3-1.3-0.5-1.9-0.8c-0.6-0.3-1.2-0.6-1.6-1c-0.4-0.4-0.7-1-0.7-1.6c0-0.6,0.1-1.1,0.4-1.4
				c0.3-0.4,0.6-0.6,1.1-0.8c0.8-0.3,1.6-0.4,2.3-0.4c1.3,0,2.3,0.2,3.1,0.7L152.7,528.5z"/>
			<path class="st3" d="M171.8,539.1c-2.8,0-4.9-0.8-6.3-2.4c-0.5-0.6-0.9-1.3-1.2-2.3c-0.3-1-0.5-2.1-0.5-3.5
				c0-1.4,0.2-2.6,0.7-3.7c0.4-1.1,1.1-1.9,1.8-2.5c1.5-1.1,3.3-1.7,5.4-1.7c0.7,0,1.4,0,2,0.1c0.7,0.1,1.1,0.2,1.5,0.3l0.5,0.2
				l-0.1,0.2c-1.2-0.4-2.5-0.6-3.9-0.6c-1.6,0-3,0.5-4,1.6c-0.8,0.8-1.4,1.9-1.7,3.4c-0.2,0.9-0.3,1.9-0.3,3.1s0.2,2.4,0.5,3.4
				c0.4,1,0.7,1.8,1.2,2.3c0.4,0.5,1,0.9,1.6,1.2c0.6,0.3,1.1,0.5,1.5,0.5c0.4,0,0.8,0.1,1.4,0.1c0.5,0,1.2-0.1,2.1-0.2V534h-2.8
				v-0.2h5.6v0.2h-1v4.5C174.8,538.9,173.4,539.1,171.8,539.1z"/>
			<path class="st3" d="M180.1,536.4c0,1.2,0.3,2,1,2.3c0.3,0.2,0.7,0.2,1.2,0.2c1,0,1.8-0.4,2.6-1.1c0.8-0.7,1.2-1.4,1.2-2v-8.2
				h1.6v9.8c0,0.4,0.1,0.8,0.3,1c0.2,0.2,0.4,0.4,0.5,0.4l0.3,0h0.7v0.2H188c-0.6,0-1.1-0.1-1.4-0.4c-0.3-0.3-0.5-0.5-0.5-0.8l0-0.4
				v-1c-0.3,0.7-0.8,1.3-1.5,1.8c-0.7,0.6-1.5,0.9-2.3,0.9c-0.8,0-1.5-0.1-2-0.2s-0.9-0.4-1.1-0.7c-0.4-0.5-0.6-1.1-0.6-1.8v-8.8
				h1.6V536.4z"/>
			<path class="st3" d="M191,527.8v-0.2h0.5v-2.3h1.6v2.3h3.5v0.2H193v8.3c0,1,0.1,1.7,0.3,2.1c0.2,0.4,0.7,0.7,1.4,0.7
				c0.7,0,1.4-0.1,2.2-0.4l0.1,0.2c-0.8,0.3-1.6,0.4-2.6,0.4c-1,0-1.7-0.2-2.2-0.6c-0.5-0.4-0.7-1.2-0.7-2.4v-8.3H191z"/>
			<path class="st3" d="M199.1,525.1c-0.2-0.2-0.3-0.4-0.3-0.7c0-0.3,0.1-0.5,0.3-0.7c0.2-0.2,0.4-0.3,0.7-0.3s0.5,0.1,0.7,0.3
				c0.2,0.2,0.3,0.4,0.3,0.7c0,0.3-0.1,0.5-0.3,0.7c-0.2,0.2-0.4,0.3-0.7,0.3S199.3,525.3,199.1,525.1z M200.9,539.1
				c-0.6,0-1.1-0.1-1.4-0.4c-0.3-0.3-0.5-0.5-0.5-0.8l0-0.4v-9.8h1.6v9.8c0,0.4,0.1,0.8,0.3,1c0.2,0.2,0.3,0.4,0.5,0.4l0.3,0h0.7
				v0.2H200.9z"/>
			<path class="st3" d="M205.1,533.5c0,1.9,0.3,3.3,1,4.1c0.7,0.9,1.5,1.3,2.6,1.3c1.5,0,2.9-0.2,4.1-0.7l0.1,0.2
				c-1.2,0.5-2.6,0.7-4.1,0.7s-2.8-0.5-3.7-1.4c-1-0.9-1.4-2.3-1.4-4.2c0-1.9,0.5-3.4,1.5-4.4s2.3-1.6,3.8-1.6
				c1.2,0,2.3,0.4,3.1,1.1c0.9,0.7,1.3,1.8,1.3,3.3c0,0.1,0,0.2,0,0.2h-8.1C205.1,532.6,205.1,533.1,205.1,533.5z M210.9,528.8
				c-0.5-0.7-1.3-1-2.1-1c-0.9,0-1.6,0.4-2.3,1.1c-0.7,0.8-1.1,1.8-1.3,3.1h6.6C211.8,530.6,211.5,529.5,210.9,528.8z"/>
			<path class="st3" d="M219.2,528.6v-0.5c-0.7,0.3-1.3,0.8-1.9,1.7c-0.6,0.8-0.9,1.6-0.9,2.3v6.9h-1.6v-11.4h1.6v3.6
				c0.2-0.9,0.7-1.7,1.4-2.5c0.7-0.8,1.5-1.2,2.3-1.2h0.1c0.3,0,0.6,0.1,0.8,0.3c0.2,0.2,0.3,0.5,0.3,0.8c0,0.3-0.1,0.6-0.3,0.8
				c-0.2,0.2-0.5,0.3-0.8,0.3c-0.3,0-0.6-0.1-0.8-0.3C219.3,529.2,219.2,528.9,219.2,528.6z"/>
			<path class="st3" d="M227.9,528.6v-0.5c-0.7,0.3-1.3,0.8-1.9,1.7c-0.6,0.8-0.9,1.6-0.9,2.3v6.9h-1.6v-11.4h1.6v3.6
				c0.2-0.9,0.7-1.7,1.4-2.5c0.7-0.8,1.5-1.2,2.3-1.2h0.1c0.3,0,0.6,0.1,0.8,0.3c0.2,0.2,0.3,0.5,0.3,0.8c0,0.3-0.1,0.6-0.3,0.8
				c-0.2,0.2-0.5,0.3-0.8,0.3s-0.6-0.1-0.8-0.3C228,529.2,227.9,528.9,227.9,528.6z"/>
			<path class="st3" d="M233.2,533.5c0,1.9,0.3,3.3,1,4.1c0.7,0.9,1.5,1.3,2.6,1.3c1.5,0,2.9-0.2,4.1-0.7l0.1,0.2
				c-1.2,0.5-2.6,0.7-4.1,0.7s-2.8-0.5-3.7-1.4c-1-0.9-1.4-2.3-1.4-4.2c0-1.9,0.5-3.4,1.5-4.4c1-1,2.3-1.6,3.8-1.6
				c1.2,0,2.3,0.4,3.1,1.1s1.3,1.8,1.3,3.3c0,0.1,0,0.2,0,0.2h-8.1C233.2,532.6,233.2,533.1,233.2,533.5z M239,528.8
				c-0.5-0.7-1.3-1-2.1-1c-0.9,0-1.6,0.4-2.3,1.1c-0.7,0.8-1.1,1.8-1.3,3.1h6.6C239.8,530.6,239.6,529.5,239,528.8z"/>
			<path class="st3" d="M244.1,527.8v-0.2h7.9v0.2l-6.9,11h5.5c1,0,1.7-0.3,1.9-0.9l0.1,0.1c0,0.1-0.1,0.2-0.2,0.3
				c-0.1,0.1-0.2,0.3-0.4,0.4c-0.4,0.2-0.9,0.4-1.5,0.4h-7v-0.2l6.9-11H244.1z"/>
			<path class="st3" d="M273.7,523.1c0.3,0.3,0.4,0.7,0.4,1.1c0,0.4-0.1,0.8-0.3,1.2l-5.8,13.7l-0.3,0.1l-5.7-16.1h1.9l4.8,13.5
				l4.9-11.2c0.2-0.4,0.3-0.8,0.3-1.2s-0.1-0.7-0.3-1L273.7,523.1z"/>
			<path class="st3" d="M276.8,525.1c-0.2-0.2-0.3-0.4-0.3-0.7c0-0.3,0.1-0.5,0.3-0.7c0.2-0.2,0.4-0.3,0.7-0.3
				c0.3,0,0.5,0.1,0.7,0.3c0.2,0.2,0.3,0.4,0.3,0.7c0,0.3-0.1,0.5-0.3,0.7c-0.2,0.2-0.4,0.3-0.7,0.3
				C277.2,525.4,276.9,525.3,276.8,525.1z M278.6,539.1c-0.6,0-1.1-0.1-1.4-0.4c-0.3-0.3-0.5-0.5-0.5-0.8l0-0.4v-9.8h1.6v9.8
				c0,0.4,0.1,0.8,0.3,1c0.2,0.2,0.3,0.4,0.5,0.4l0.3,0h0.7v0.2H278.6z"/>
			<path class="st3" d="M285.3,539.1c-1.3,0-2.2-0.4-2.5-1c-0.1-0.2-0.1-0.3-0.1-0.4V522h1.6v15.5c0,0.4,0.1,0.8,0.3,1
				c0.2,0.2,0.4,0.4,0.5,0.4l0.3,0h0.7v0.2H285.3z"/>
			<path class="st3" d="M292.4,527.7c-1.1,0-2,0.5-2.7,1.6c-0.7,1-1.1,2.5-1.1,4.3c0,1.8,0.3,3.2,1,4.1c0.7,0.9,1.5,1.3,2.6,1.3
				c1.4,0,2.6-0.2,3.6-0.7l0.1,0.2c-1.1,0.5-2.3,0.7-3.8,0.7c-1.4,0-2.6-0.5-3.6-1.4c-1-0.9-1.4-2.3-1.4-4.2c0-1.9,0.5-3.4,1.5-4.4
				c1-1,2.3-1.6,3.8-1.6c0.9,0,1.7,0.2,2.4,0.6c0.7,0.4,1.3,1,1.6,1.8H295c-0.2-0.7-0.6-1.3-1-1.7
				C293.5,527.9,293,527.7,292.4,527.7z"/>
			<path class="st3" d="M308.2,539.1c-0.6,0-1.1-0.1-1.4-0.4c-0.3-0.3-0.5-0.5-0.5-0.8l0-0.4v-7.2c0-1.2-0.3-2-1-2.3
				c-0.3-0.2-0.7-0.2-1.2-0.2c-0.9,0-1.8,0.4-2.5,1.2c-0.8,0.8-1.1,1.5-1.1,2.1v8.1h-1.6V522h1.6v8.3c0.2-0.7,0.7-1.3,1.4-1.8
				c0.7-0.6,1.5-0.9,2.3-0.9c1.5,0,2.5,0.3,3,0.8c0.5,0.5,0.7,1.2,0.7,2v7.1c0,0.4,0.1,0.8,0.3,1c0.2,0.2,0.3,0.4,0.5,0.4l0.3,0h0.7
				v0.2H308.2z"/>
			<path class="st3" d="M313,533.5c0,1.9,0.3,3.3,1,4.1c0.7,0.9,1.5,1.3,2.6,1.3c1.5,0,2.9-0.2,4.1-0.7l0.1,0.2
				c-1.2,0.5-2.6,0.7-4.1,0.7c-1.5,0-2.8-0.5-3.7-1.4c-1-0.9-1.4-2.3-1.4-4.2c0-1.9,0.5-3.4,1.5-4.4c1-1,2.3-1.6,3.8-1.6
				c1.2,0,2.3,0.4,3.1,1.1s1.3,1.8,1.3,3.3c0,0.1,0,0.2,0,0.2h-8.1C313,532.6,313,533.1,313,533.5z M318.8,528.8
				c-0.5-0.7-1.3-1-2.1-1c-0.9,0-1.6,0.4-2.3,1.1c-0.7,0.8-1.1,1.8-1.3,3.1h6.6C319.6,530.6,319.4,529.5,318.8,528.8z"/>
			<path class="st3" d="M323.8,527.8v-0.2h7.9v0.2l-6.9,11h5.5c1,0,1.7-0.3,1.9-0.9l0.1,0.1c0,0.1-0.1,0.2-0.2,0.3
				c-0.1,0.1-0.2,0.3-0.4,0.4c-0.4,0.2-0.9,0.4-1.5,0.4h-7v-0.2l6.9-11H323.8z"/>
			<path class="st3" d="M109.7,550.5c0.7,0,1.3,0,2,0c0.6,0,1.3,0.1,2.1,0.2c0.7,0.1,1.4,0.4,2.1,0.8c0.7,0.4,1.3,0.9,1.8,1.4
				c0.5,0.6,0.9,1.4,1.2,2.3c0.3,1,0.5,2.1,0.5,3.5c0,1.4-0.2,2.6-0.7,3.7c-0.4,1.1-1.1,1.9-1.8,2.5c-1.5,1.1-3.3,1.7-5.5,1.7
				c-0.7,0-1.5,0-2.3-0.1h-1.1v-15.9H109.7z M109.8,566.2c0.3,0,0.7,0,1.2,0c0.5,0,0.9,0,1.1,0c0.2,0,0.6-0.1,1-0.2
				c0.4-0.1,0.8-0.3,1.2-0.5s0.7-0.5,1.2-0.9c0.4-0.4,0.7-0.8,1-1.4c0.7-1.2,1-2.9,1-4.9c0-1.4-0.2-2.7-0.5-3.7
				c-0.4-1-0.7-1.8-1.2-2.3c-0.4-0.5-1-0.9-1.6-1.2c-0.6-0.3-1.1-0.5-1.5-0.5c-0.4,0-0.8-0.1-1.3-0.1c-0.5,0-1,0-1.5,0.1V566.2z"/>
			<path class="st3" d="M131.2,566.4c-1,0-1.7-0.2-2.1-0.6c-0.4-0.3-0.5-0.6-0.5-0.9v-0.5c-0.7,1.4-1.9,2-3.6,2
				c-1.9,0-3-0.9-3.3-2.6c0-0.2,0-0.4,0-0.6c0-0.2,0-0.4,0.1-0.6c0.1-0.2,0.2-0.5,0.5-0.8c0.6-0.5,1.8-0.9,3.8-1
				c0.5,0,0.9-0.1,1.3-0.1c0.4,0,0.8,0,1.1,0v-3.8c0,0,0-0.1,0-0.2c0-0.1,0-0.3-0.1-0.5c-0.1-0.2-0.2-0.4-0.3-0.6
				c-0.1-0.2-0.4-0.4-0.7-0.5c-0.4-0.1-0.8-0.2-1.4-0.2c-0.6,0-1.2,0.1-2,0.3c-0.8,0.2-1.3,0.4-1.7,0.6l-0.1-0.2
				c1.4-0.6,2.7-0.9,4.1-0.9c1.6,0,2.6,0.3,3.1,0.8c0.4,0.4,0.6,0.9,0.6,1.4v7.6c0,0.4,0.1,0.8,0.3,1c0.2,0.2,0.4,0.4,0.5,0.4l0.3,0
				h0.7v0.2H131.2z M125.3,566.3c0.8,0,1.5-0.3,2.2-0.8c0.6-0.6,1-1.1,1-1.6v-2.8c-0.4,0-0.8,0-1.2,0s-0.8,0-1.2,0.1
				c-1.2,0.1-1.9,0.4-2.3,0.8c-0.4,0.4-0.5,0.9-0.5,1.6c0,0.1,0,0.3,0,0.4C123.4,565.5,124.1,566.3,125.3,566.3z"/>
			<path class="st3" d="M137.1,566.4c-1.3,0-2.2-0.4-2.5-1c-0.1-0.2-0.1-0.3-0.1-0.4v-15.6h1.6v15.5c0,0.4,0.1,0.8,0.3,1
				c0.2,0.2,0.4,0.4,0.5,0.4l0.3,0h0.7v0.2H137.1z"/>
			<path class="st3" d="M140.1,552.5c-0.2-0.2-0.3-0.4-0.3-0.7c0-0.3,0.1-0.5,0.3-0.7c0.2-0.2,0.4-0.3,0.7-0.3s0.5,0.1,0.7,0.3
				c0.2,0.2,0.3,0.4,0.3,0.7c0,0.3-0.1,0.5-0.3,0.7c-0.2,0.2-0.4,0.3-0.7,0.3S140.3,552.7,140.1,552.5z M141.9,566.4
				c-0.6,0-1.1-0.1-1.4-0.4c-0.3-0.3-0.5-0.5-0.5-0.8l0-0.4V555h1.6v9.8c0,0.4,0.1,0.8,0.3,1c0.2,0.2,0.3,0.4,0.5,0.4l0.3,0h0.7v0.2
				H141.9z"/>
			<path class="st3" d="M154.7,566.4c-1,0-1.7-0.2-2.1-0.6c-0.4-0.3-0.5-0.6-0.5-0.9v-0.5c-0.7,1.4-1.9,2-3.6,2
				c-1.9,0-3-0.9-3.3-2.6c0-0.2,0-0.4,0-0.6c0-0.2,0-0.4,0.1-0.6c0.1-0.2,0.2-0.5,0.5-0.8c0.6-0.5,1.8-0.9,3.8-1
				c0.5,0,0.9-0.1,1.3-0.1c0.4,0,0.8,0,1.1,0v-3.8c0,0,0-0.1,0-0.2c0-0.1,0-0.3-0.1-0.5c-0.1-0.2-0.2-0.4-0.3-0.6
				c-0.1-0.2-0.4-0.4-0.7-0.5c-0.4-0.1-0.8-0.2-1.4-0.2c-0.6,0-1.2,0.1-2,0.3c-0.8,0.2-1.3,0.4-1.7,0.6l-0.1-0.2
				c1.4-0.6,2.7-0.9,4.1-0.9c1.6,0,2.6,0.3,3.1,0.8c0.4,0.4,0.6,0.9,0.6,1.4v7.6c0,0.4,0.1,0.8,0.3,1c0.2,0.2,0.4,0.4,0.5,0.4l0.3,0
				h0.7v0.2H154.7z M148.8,566.3c0.8,0,1.5-0.3,2.2-0.8s1-1.1,1-1.6v-2.8c-0.4,0-0.8,0-1.2,0s-0.8,0-1.2,0.1
				c-1.2,0.1-1.9,0.4-2.3,0.8c-0.4,0.4-0.5,0.9-0.5,1.6c0,0.1,0,0.3,0,0.4C146.9,565.5,147.6,566.3,148.8,566.3z"/>
			<path class="st3" d="M174.1,551.4c-1.4-0.5-2.7-0.8-3.9-0.8c-1.2,0-2.2,0.3-2.9,0.8c-0.7,0.5-1,1.2-1,2.1c0,1.1,0.6,2,1.7,2.6
				c0.5,0.3,1.1,0.5,1.7,0.7c0.6,0.2,1.2,0.5,1.9,0.7c0.6,0.3,1.2,0.6,1.7,0.9c0.5,0.4,0.9,0.8,1.3,1.4c0.3,0.6,0.5,1.4,0.5,2.3
				c0,1-0.3,1.8-0.8,2.4c-0.5,0.7-1.2,1.1-1.9,1.4c-0.8,0.2-1.6,0.4-2.6,0.4c-1.9,0-3.5-0.5-4.8-1.4l0.1-0.2c0.5,0.4,1.2,0.7,1.9,1
				s1.6,0.4,2.5,0.4c1.2,0,2.3-0.3,3.2-0.9c0.9-0.6,1.3-1.4,1.3-2.5c0-1.2-0.6-2.2-1.7-2.9c-0.5-0.3-1.1-0.6-1.7-0.8
				c-0.6-0.3-1.2-0.5-1.9-0.8c-0.6-0.3-1.2-0.6-1.7-0.9c-1.2-0.8-1.7-1.8-1.7-3.2c0-1.1,0.4-2,1.1-2.7c0.7-0.7,1.9-1,3.4-1
				c1.5,0,3,0.3,4.6,0.8L174.1,551.4z"/>
			<path class="st3" d="M186.8,566.4c-1,0-1.7-0.2-2.1-0.6c-0.4-0.3-0.5-0.6-0.5-0.9v-0.5c-0.7,1.4-1.9,2-3.6,2
				c-1.9,0-3-0.9-3.3-2.6c0-0.2,0-0.4,0-0.6c0-0.2,0-0.4,0.1-0.6c0.1-0.2,0.2-0.5,0.5-0.8c0.6-0.5,1.8-0.9,3.8-1
				c0.5,0,0.9-0.1,1.3-0.1c0.4,0,0.8,0,1.1,0v-3.8c0,0,0-0.1,0-0.2c0-0.1,0-0.3-0.1-0.5c-0.1-0.2-0.2-0.4-0.3-0.6
				c-0.1-0.2-0.4-0.4-0.7-0.5c-0.4-0.1-0.8-0.2-1.4-0.2c-0.6,0-1.2,0.1-2,0.3c-0.8,0.2-1.3,0.4-1.7,0.6l-0.1-0.2
				c1.4-0.6,2.7-0.9,4.1-0.9c1.6,0,2.6,0.3,3.1,0.8c0.4,0.4,0.6,0.9,0.6,1.4v7.6c0,0.4,0.1,0.8,0.3,1c0.2,0.2,0.4,0.4,0.5,0.4l0.3,0
				h0.7v0.2H186.8z M180.9,566.3c0.8,0,1.5-0.3,2.2-0.8s1-1.1,1-1.6v-2.8c-0.4,0-0.8,0-1.2,0s-0.8,0-1.2,0.1
				c-1.2,0.1-1.9,0.4-2.3,0.8c-0.4,0.4-0.5,0.9-0.5,1.6c0,0.1,0,0.3,0,0.4C179,565.5,179.7,566.3,180.9,566.3z"/>
			<path class="st3" d="M198.8,566.4c-0.6,0-1.1-0.1-1.4-0.4c-0.3-0.3-0.5-0.5-0.5-0.8l0-0.4v-7.2c0-1.2-0.3-2-0.9-2.3
				c-0.3-0.2-0.7-0.2-1.2-0.2c-1,0-1.8,0.4-2.6,1.2c-0.8,0.8-1.2,1.5-1.2,2.1v8.1h-1.6V555h1.6v2.6c0.3-0.7,0.7-1.3,1.4-1.8
				c0.7-0.6,1.5-0.9,2.3-0.9c0.8,0,1.5,0.1,2,0.2c0.5,0.2,0.9,0.4,1.2,0.7c0.4,0.5,0.6,1.1,0.6,1.8v7.1c0,0.4,0.1,0.8,0.3,1
				c0.2,0.2,0.4,0.4,0.5,0.4l0.3,0h0.7v0.2H198.8z"/>
			<path class="st3" d="M207,555.1c-1.1,0-2,0.5-2.7,1.6c-0.7,1-1.1,2.5-1.1,4.3c0,1.8,0.3,3.2,1,4.1c0.7,0.9,1.5,1.3,2.6,1.3
				c1.4,0,2.6-0.2,3.6-0.7l0.1,0.2c-1.1,0.5-2.3,0.7-3.8,0.7c-1.4,0-2.6-0.5-3.6-1.4c-1-0.9-1.4-2.3-1.4-4.2c0-1.9,0.5-3.4,1.5-4.4
				s2.3-1.6,3.8-1.6c0.9,0,1.7,0.2,2.4,0.6c0.7,0.4,1.3,1,1.6,1.8h-1.5c-0.2-0.7-0.6-1.3-1-1.7C208.1,555.3,207.5,555.1,207,555.1z"
				/>
			<path class="st3" d="M222.8,566.4c-0.6,0-1.1-0.1-1.4-0.4c-0.3-0.3-0.5-0.5-0.5-0.8l0-0.4v-7.2c0-1.2-0.3-2-1-2.3
				c-0.3-0.2-0.7-0.2-1.2-0.2c-0.9,0-1.8,0.4-2.5,1.2c-0.8,0.8-1.1,1.5-1.1,2.1v8.1h-1.6v-17.1h1.6v8.3c0.2-0.7,0.7-1.3,1.4-1.8
				s1.5-0.9,2.3-0.9c1.5,0,2.5,0.3,3,0.8c0.5,0.5,0.7,1.2,0.7,2v7.1c0,0.4,0.1,0.8,0.3,1c0.2,0.2,0.3,0.4,0.5,0.4l0.3,0h0.7v0.2
				H222.8z"/>
			<path class="st3" d="M227.5,560.9c0,1.9,0.3,3.3,1,4.1c0.7,0.9,1.5,1.3,2.6,1.3c1.5,0,2.9-0.2,4.1-0.7l0.1,0.2
				c-1.2,0.5-2.6,0.7-4.1,0.7s-2.8-0.5-3.7-1.4c-1-0.9-1.4-2.3-1.4-4.2c0-1.9,0.5-3.4,1.5-4.4c1-1,2.3-1.6,3.8-1.6
				c1.2,0,2.3,0.4,3.1,1.1s1.3,1.8,1.3,3.3c0,0.1,0,0.2,0,0.2h-8.1C227.5,560,227.5,560.4,227.5,560.9z M233.3,556.2
				c-0.5-0.7-1.3-1-2.1-1c-0.9,0-1.6,0.4-2.3,1.1c-0.7,0.8-1.1,1.8-1.3,3.1h6.6C234.2,557.9,233.9,556.9,233.3,556.2z"/>
			<path class="st3" d="M238.4,555.2V555h7.9v0.2l-6.9,11h5.5c1,0,1.7-0.3,1.9-0.9l0.1,0.1c0,0.1-0.1,0.2-0.2,0.3
				c-0.1,0.1-0.2,0.3-0.4,0.4c-0.4,0.2-0.9,0.4-1.5,0.4h-7v-0.2l6.9-11H238.4z"/>
			<path class="st3" d="M264.7,566.5c-2.8,0-4.9-0.8-6.3-2.4c-0.5-0.6-0.9-1.3-1.2-2.3c-0.3-1-0.5-2.1-0.5-3.5s0.2-2.6,0.7-3.7
				c0.4-1.1,1.1-1.9,1.8-2.5c1.5-1.1,3.3-1.7,5.5-1.7c0.7,0,1.4,0,2,0.1c0.7,0.1,1.1,0.2,1.5,0.3l0.5,0.2l-0.1,0.2
				c-1.2-0.4-2.5-0.6-3.9-0.6c-1.6,0-3,0.5-4,1.6c-0.8,0.8-1.4,1.9-1.7,3.4c-0.2,0.9-0.3,1.9-0.3,3.1s0.2,2.4,0.5,3.4
				c0.4,1,0.7,1.8,1.2,2.3s1,0.9,1.6,1.2c0.6,0.3,1.1,0.5,1.5,0.5c0.4,0,0.8,0.1,1.4,0.1c0.5,0,1.2-0.1,2.1-0.2v-4.7h-2.8v-0.2h5.6
				v0.2h-1v4.5C267.8,566.3,266.4,566.5,264.7,566.5z"/>
			<path class="st3" d="M280.9,566.4c-1,0-1.7-0.2-2.1-0.6c-0.4-0.3-0.5-0.6-0.5-0.9v-0.5c-0.7,1.4-1.9,2-3.6,2
				c-1.9,0-3-0.9-3.3-2.6c0-0.2,0-0.4,0-0.6c0-0.2,0-0.4,0.1-0.6c0.1-0.2,0.2-0.5,0.5-0.8c0.6-0.5,1.8-0.9,3.8-1
				c0.5,0,0.9-0.1,1.3-0.1c0.4,0,0.8,0,1.1,0v-3.8c0,0,0-0.1,0-0.2c0-0.1,0-0.3-0.1-0.5c-0.1-0.2-0.2-0.4-0.3-0.6s-0.4-0.4-0.7-0.5
				c-0.4-0.1-0.8-0.2-1.4-0.2c-0.6,0-1.2,0.1-2,0.3c-0.8,0.2-1.3,0.4-1.7,0.6l-0.1-0.2c1.4-0.6,2.7-0.9,4.1-0.9
				c1.6,0,2.6,0.3,3.1,0.8c0.4,0.4,0.6,0.9,0.6,1.4v7.6c0,0.4,0.1,0.8,0.3,1c0.2,0.2,0.4,0.4,0.5,0.4l0.3,0h0.7v0.2H280.9z
				 M275,566.3c0.8,0,1.5-0.3,2.2-0.8c0.6-0.6,1-1.1,1-1.6v-2.8c-0.4,0-0.8,0-1.2,0c-0.4,0-0.8,0-1.2,0.1c-1.2,0.1-1.9,0.4-2.3,0.8
				c-0.4,0.4-0.5,0.9-0.5,1.6c0,0.1,0,0.3,0,0.4C273.1,565.5,273.8,566.3,275,566.3z"/>
			<path class="st3" d="M287.8,556v-0.5c-0.7,0.3-1.3,0.8-1.9,1.7c-0.6,0.8-0.9,1.6-0.9,2.3v6.9h-1.6V555h1.6v3.6
				c0.2-0.9,0.7-1.7,1.4-2.5c0.7-0.8,1.5-1.2,2.3-1.2h0.1c0.3,0,0.6,0.1,0.8,0.3c0.2,0.2,0.3,0.5,0.3,0.8c0,0.3-0.1,0.6-0.3,0.8
				c-0.2,0.2-0.5,0.3-0.8,0.3c-0.3,0-0.6-0.1-0.8-0.3C287.9,556.6,287.8,556.3,287.8,556z"/>
			<path class="st3" d="M296.8,555.1c-1.1,0-2,0.5-2.7,1.6c-0.7,1-1.1,2.5-1.1,4.3c0,1.8,0.3,3.2,1,4.1c0.7,0.9,1.5,1.3,2.6,1.3
				c1.4,0,2.6-0.2,3.6-0.7l0.1,0.2c-1.1,0.5-2.3,0.7-3.8,0.7c-1.4,0-2.6-0.5-3.6-1.4c-1-0.9-1.4-2.3-1.4-4.2c0-1.9,0.5-3.4,1.5-4.4
				c1-1,2.3-1.6,3.8-1.6c0.9,0,1.7,0.2,2.4,0.6c0.7,0.4,1.3,1,1.6,1.8h-1.5c-0.2-0.7-0.6-1.3-1-1.7
				C297.9,555.3,297.4,555.1,296.8,555.1z"/>
			<path class="st3" d="M305.2,566.4c-0.6,0-1.1-0.1-1.4-0.4c-0.3-0.3-0.5-0.5-0.5-0.8l0-0.4V555h1.6v9.8c0,0.4,0.1,0.8,0.3,1
				c0.2,0.2,0.4,0.4,0.5,0.4l0.3,0h0.7v0.2H305.2z M304.9,550.3l1.6,0l-2.4,3.3h-0.3L304.9,550.3z"/>
			<path class="st3" d="M317.5,566.4c-1,0-1.7-0.2-2.1-0.6c-0.4-0.3-0.5-0.6-0.5-0.9v-0.5c-0.7,1.4-1.9,2-3.6,2
				c-1.9,0-3-0.9-3.3-2.6c0-0.2,0-0.4,0-0.6c0-0.2,0-0.4,0.1-0.6c0.1-0.2,0.2-0.5,0.5-0.8c0.6-0.5,1.8-0.9,3.8-1
				c0.5,0,0.9-0.1,1.3-0.1c0.4,0,0.8,0,1.1,0v-3.8c0,0,0-0.1,0-0.2c0-0.1,0-0.3-0.1-0.5c-0.1-0.2-0.2-0.4-0.3-0.6s-0.4-0.4-0.7-0.5
				c-0.4-0.1-0.8-0.2-1.4-0.2c-0.6,0-1.2,0.1-2,0.3c-0.8,0.2-1.3,0.4-1.7,0.6l-0.1-0.2c1.4-0.6,2.7-0.9,4.1-0.9
				c1.6,0,2.6,0.3,3.1,0.8c0.4,0.4,0.6,0.9,0.6,1.4v7.6c0,0.4,0.1,0.8,0.3,1c0.2,0.2,0.4,0.4,0.5,0.4l0.3,0h0.7v0.2H317.5z
				 M311.6,566.3c0.8,0,1.5-0.3,2.2-0.8c0.6-0.6,1-1.1,1-1.6v-2.8c-0.4,0-0.8,0-1.2,0c-0.4,0-0.8,0-1.2,0.1
				c-1.2,0.1-1.9,0.4-2.3,0.8c-0.4,0.4-0.5,0.9-0.5,1.6c0,0.1,0,0.3,0,0.4C309.7,565.5,310.4,566.3,311.6,566.3z"/>
		</g>
	</g>
</g>
</svg>
