<?xml version="1.0" encoding="utf-8"?>
<!-- Generator: Adobe Illustrator 28.0.0, SVG Export Plug-In . SVG Version: 6.00 Build 0)  -->
<svg version="1.1" id="Capa_1" xmlns="http://www.w3.org/2000/svg" xmlns:xlink="http://www.w3.org/1999/xlink" x="0px" y="0px"
	 viewBox="0 0 430 734" style="enable-background:new 0 0 430 734;" xml:space="preserve">
<style type="text/css">
	.st0{fill:none;}
	.st1{fill:url(#SVGID_1_);}
	.st2{fill:url(#XMLID_00000036235637720499659050000018282868072223870343_);}
	.st3{fill:#5E402F;}
	
		.st4{fill:url(#SVGID_00000031180067894993973240000010457954180179709586_);stroke:url(#SVGID_00000013892450267003587430000018076127006752843949_);stroke-width:0.3063;stroke-miterlimit:10;}
	.st5{fill:url(#SVGID_00000080911341284183225530000015047828949615878045_);}
	
		.st6{fill:url(#SVGID_00000044147850393411542480000010282403057867007371_);stroke:url(#SVGID_00000148625236383623458940000011991679964594717862_);stroke-width:0.3063;stroke-miterlimit:10;}
	
		.st7{fill:url(#SVGID_00000033363930023017144400000017309062472105924798_);stroke:url(#SVGID_00000070081495360080655250000018171947216792809865_);stroke-width:0.3063;stroke-miterlimit:10;}
	.st8{fill:#FFFFFF;}
	
		.st9{fill:#FFFFFF;stroke:url(#SVGID_00000165949550828010523140000017144568954232631203_);stroke-width:0.3063;stroke-miterlimit:10;}
	.st10{fill:url(#SVGID_00000167381581863234318670000002686893449643275431_);}
	.st11{fill:url(#Nueva_muestra_de_motivo_2);}
	.st12{fill:#504322;stroke:#504322;stroke-width:0.3144;stroke-miterlimit:10;}
</style>
<pattern  y="734" width="276" height="169" patternUnits="userSpaceOnUse" id="Nueva_muestra_de_motivo_1" viewBox="0 -169 276 169" style="overflow:visible;">
	<g>
		<rect y="-169" class="st0" width="276" height="169"/>
		
			<linearGradient id="SVGID_1_" gradientUnits="userSpaceOnUse" x1="545" y1="-15591" x2="821" y2="-15591" gradientTransform="matrix(1 0 0 -1 -545 -15675.5)">
			<stop  offset="0" style="stop-color:#DCC173"/>
			<stop  offset="0.2398" style="stop-color:#AB8136"/>
			<stop  offset="0.5153" style="stop-color:#73582B"/>
			<stop  offset="0.8571" style="stop-color:#DCC173"/>
		</linearGradient>
		<rect y="-169" class="st1" width="276" height="169"/>
	</g>
</pattern>
<pattern  y="734" width="286.7" height="240.9" patternUnits="userSpaceOnUse" id="Nueva_muestra_de_motivo_2" viewBox="0 -240.9 286.7 240.9" style="overflow:visible;">
	<g>
		<rect y="-240.9" class="st0" width="286.7" height="240.9"/>
		
			<linearGradient id="XMLID_00000039836795523035700200000002912107066661316491_" gradientUnits="userSpaceOnUse" x1="1703.2894" y1="313.9805" x2="1944.1627" y2="313.9805" gradientTransform="matrix(4.489700e-11 -1 -1 -4.489700e-11 457.3437 1703.2894)">
			<stop  offset="0" style="stop-color:#DCC173"/>
			<stop  offset="0.2398" style="stop-color:#AB8136"/>
			<stop  offset="0.5153" style="stop-color:#73582B"/>
			<stop  offset="0.8571" style="stop-color:#DCC173"/>
		</linearGradient>
		<polygon id="XMLID_48_" style="fill:url(#XMLID_00000039836795523035700200000002912107066661316491_);" points="286.7,-240.9 
			286.7,0 0,0 0,-240.9 		"/>
	</g>
</pattern>
<g>
	<g>
		<g>
			<path class="st3" d="M63.2,473.1c0.2,0.1,0.2,0.2,0.2,0.4l0.2,1.9c0,0.1-0.2,0.1-0.2,0c-0.5-1.8-2-2.6-3.9-2.6
				c-2.6,0-4.3,1.9-4.3,4.6c0,3.3,2.2,5.9,4.9,5.9c1.6,0,2.9-0.8,3.5-2.8c0-0.1,0.2,0,0.2,0l-0.3,1.9c0,0.3-0.1,0.3-0.3,0.4
				c-1.1,0.5-2.2,0.7-3.3,0.7c-4.4,0-6.1-3-6.1-5.7c0-3.3,3-5.5,6.3-5.5C61.3,472.5,62.5,472.7,63.2,473.1z"/>
			<path class="st3" d="M65.3,480c0-2.4,2-3.4,3.7-3.4c2.1,0,3.3,1.7,3.3,3.5c0,2.2-1.7,3.5-3.6,3.5C66.6,483.6,65.3,481.9,65.3,480
				z M71.1,480.6c0-2.2-1.1-3.7-2.7-3.7c-1.2,0-1.9,0.9-1.9,2.6c0,2.1,1.1,3.8,2.7,3.8C70.3,483.3,71.1,482.5,71.1,480.6z"/>
			<path class="st3" d="M81.5,483.4c-0.4,0-1,0-1.6,0c-0.6,0-1.1,0-1.6,0c-0.1,0-0.1-0.2,0-0.2c0.9,0,1.1-0.2,1.1-1.2v-2.8
				c0-1.4-0.5-2-1.6-2c-0.7,0-1.5,0.4-2.1,1.1v3.7c0,1,0.2,1.2,1.1,1.2c0.1,0,0.1,0.2,0,0.2c-0.4,0-1,0-1.6,0c-0.6,0-1.1,0-1.6,0
				c-0.1,0-0.1-0.2,0-0.2c0.9,0,1.1-0.2,1.1-1.2v-3.4c0-0.8-0.2-1.1-0.6-1.1c-0.2,0-0.5,0.1-0.9,0.3c-0.1,0.1-0.2-0.1-0.1-0.2l2-1
				c0.1,0,0.1,0,0.1,0c0.2,0,0.5,0.5,0.5,1.4c0.9-1,1.7-1.5,2.6-1.5c1.2,0,2,0.7,2,2.1v3.4c0,1,0.2,1.2,1.1,1.2
				C81.5,483.2,81.5,483.4,81.5,483.4z"/>
			<path class="st3" d="M84.7,475.9v1.1c0.7,0,1.4-0.1,2.2-0.2c0.1,0,0.1,0.2,0.1,0.4c0,0.2-0.1,0.5-0.2,0.4
				c-0.8-0.2-1.4-0.3-2.1-0.4v4.7c0,1,0.2,1.2,1.7,1.2c0.1,0,0.1,0.2,0,0.2c-0.8,0-1.4,0-2.2,0c-0.6,0-1.2,0-1.7,0
				c-0.1,0-0.1-0.2,0-0.2c1,0,1.2-0.2,1.2-1.2v-3.9c0-0.8-0.1-0.9-1.3-0.9c-0.1,0-0.1-0.2,0-0.2c0.9,0,1.2-0.2,1.2-0.8
				c0.1-3.8,1.7-5.3,4.1-5.3c1.3,0,2.2,0.6,2.2,1.3c0,0.3-0.2,0.5-0.5,0.5c-0.9,0-0.6-1.5-2.2-1.5C85.7,471.2,84.7,472.6,84.7,475.9
				z M91.1,483.4c-0.4,0-1,0-1.6,0s-1.1,0-1.6,0c-0.1,0-0.1-0.2,0-0.2c0.9,0,1.1-0.2,1.1-1.2v-3.2c0-1.2-0.3-1.4-1.3-0.9
				c-0.1,0.1-0.2-0.2-0.1-0.2l2.2-1c0.1-0.1,0.2,0.1,0.2,0.1c0,0.2,0,0.9,0,2v3.2c0,1,0.2,1.2,1.1,1.2
				C91.1,483.2,91.1,483.4,91.1,483.4z"/>
			<path class="st3" d="M97.6,477.3c0,0.3-0.2,0.5-0.6,0.5c-0.5,0-0.6-0.5-1.1-0.5c-0.3,0-0.5,0.1-1.3,1v3.7c0,1,0.3,1.2,1.7,1.2
				c0.1,0,0.1,0.2,0,0.2c-0.6,0-1.4,0-2.2,0c-0.6,0-1.1,0-1.6,0c-0.1,0-0.1-0.2,0-0.2c0.9,0,1.1-0.2,1.1-1.2v-3.4
				c0-0.8-0.2-1.1-0.6-1.1c-0.2,0-0.5,0.1-0.9,0.3c-0.1,0.1-0.2-0.1-0.1-0.2l2-1c0.1,0,0.1,0,0.1,0c0.2,0,0.5,0.5,0.5,1.4
				c1-1.1,1.4-1.4,1.9-1.4C97,476.6,97.6,476.9,97.6,477.3z"/>
			<path class="st3" d="M110.8,483.4c-0.4,0-1,0-1.6,0c-0.6,0-1.1,0-1.6,0c-0.1,0-0.1-0.2,0-0.2c0.9,0,1.1-0.2,1.1-1.2v-2.7
				c0-1.4-0.5-2-1.5-2c-0.7,0-1.4,0.4-2,1.1c0,0.1,0,0.2,0,0.3v3.4c0,1,0.2,1.2,1.1,1.2c0.1,0,0.1,0.2,0,0.2c-0.4,0-1,0-1.6,0
				s-1.1,0-1.6,0c-0.1,0-0.1-0.2,0-0.2c0.9,0,1.1-0.2,1.1-1.2v-2.7c0-1.4-0.5-2-1.5-2c-0.7,0-1.4,0.4-2,1v3.7c0,1,0.2,1.2,1.1,1.2
				c0.1,0,0.1,0.2,0,0.2c-0.4,0-1,0-1.6,0c-0.6,0-1.1,0-1.6,0c-0.1,0-0.1-0.2,0-0.2c0.9,0,1.1-0.2,1.1-1.2v-3.4
				c0-0.8-0.2-1.1-0.6-1.1c-0.2,0-0.5,0.1-0.9,0.3c-0.1,0.1-0.2-0.1-0.1-0.2l2-1c0.1,0,0.1,0,0.1,0c0.2,0,0.5,0.5,0.5,1.4
				c0.8-1,1.6-1.4,2.5-1.4c1,0,1.7,0.5,1.8,1.5c0.9-1.1,1.7-1.5,2.6-1.5c1.2,0,1.9,0.7,1.9,2.1v3.3c0,1,0.2,1.2,1.1,1.2
				C110.9,483.2,110.9,483.4,110.8,483.4z"/>
			<path class="st3" d="M119.6,482.6l-2,0.9c-0.1,0-0.1,0-0.1,0c-0.2,0-0.4-0.5-0.5-1.4c-0.7,0.7-1.6,1.4-2.7,1.4
				c-1.4,0-2.5-1-2.5-2.9c0-2.6,2.1-4.1,3.8-4.1c0.6,0,1.2,0.2,1.7,0.5c0.2-0.1,0.3-0.2,0.5-0.4c0,0,0.2,0,0.2,0.1v4.9
				c0,0.8,0.2,1.1,0.6,1.1c0.2,0,0.5-0.1,0.9-0.2C119.7,482.4,119.7,482.5,119.6,482.6z M117.1,481.9v-3.5c0-0.9-0.9-1.5-1.8-1.5
				c-1.4,0-2.3,1.3-2.3,3.2c0,1.7,0.7,2.9,1.9,2.9C115.8,483,116.5,482.4,117.1,481.9z"/>
			<path class="st3" d="M125.6,477.3c0,0.3-0.2,0.5-0.6,0.5c-0.5,0-0.6-0.5-1.1-0.5c-0.3,0-0.5,0.1-1.3,1v3.7c0,1,0.3,1.2,1.7,1.2
				c0.1,0,0.1,0.2,0,0.2c-0.6,0-1.4,0-2.2,0c-0.6,0-1.1,0-1.6,0c-0.1,0-0.1-0.2,0-0.2c0.9,0,1.1-0.2,1.1-1.2v-3.4
				c0-0.8-0.2-1.1-0.6-1.1c-0.2,0-0.5,0.1-0.9,0.3c-0.1,0.1-0.2-0.1-0.1-0.2l2-1c0.1,0,0.1,0,0.1,0c0.2,0,0.5,0.5,0.5,1.4
				c1-1.1,1.4-1.4,1.9-1.4C125,476.6,125.6,476.9,125.6,477.3z"/>
			<path class="st3" d="M138.6,482.6l-2,0.9c-0.1,0-0.1,0-0.1,0c-0.2,0-0.4-0.5-0.5-1.4c-0.7,0.7-1.6,1.4-2.7,1.4
				c-1.4,0-2.5-1-2.5-2.9c0-2.6,2.1-4.1,3.8-4.1c0.6,0,1.2,0.2,1.7,0.5c0.2-0.1,0.3-0.2,0.5-0.4c0,0,0.2,0,0.2,0.1v4.9
				c0,0.8,0.2,1.1,0.6,1.1c0.2,0,0.5-0.1,0.9-0.2C138.6,482.4,138.7,482.5,138.6,482.6z M136,481.9v-3.5c0-0.9-0.9-1.5-1.8-1.5
				c-1.4,0-2.3,1.3-2.3,3.2c0,1.7,0.7,2.9,1.9,2.9C134.7,483,135.4,482.4,136,481.9z"/>
			<path class="st3" d="M142,479.5c0.9,0.4,1.8,0.9,1.8,2c0,1.1-0.9,2.1-2.4,2.1c-0.5,0-1.1-0.1-1.6-0.5c-0.1-0.1-0.1-0.1-0.1-0.2
				l0-1.3c0-0.1,0.2-0.1,0.2,0c0.4,1.1,1.2,1.8,2.1,1.8c0.7,0,1.1-0.4,1.1-1.1c0-1-0.8-1.4-1.6-1.7c-0.8-0.4-1.7-0.8-1.7-2
				c0-1.3,1.2-1.9,2.3-1.9c0.4,0,0.8,0.1,1.3,0.3c0.1,0.1,0.2,0.1,0.2,0.2c0,0.4-0.1,0.8-0.1,1.3c0,0.1-0.2,0.1-0.2,0
				c0-0.8-1-1.4-1.8-1.4c-0.5,0-0.9,0.3-0.9,0.9C140.4,478.7,141.2,479.1,142,479.5z"/>
			<path class="st3" d="M145.5,483.2c0.9,0,1.1-0.2,1.1-1.2v-3.2c0-0.8-0.1-1.2-0.6-1.2c-0.2,0-0.4,0.1-0.8,0.2
				c-0.1,0.1-0.2-0.2-0.1-0.2l2.2-1c0,0,0,0,0.1,0c0.1,0,0.2,0.1,0.2,0.1c0,0.2,0,0.9,0,2v3.2c0,1,0.2,1.2,1.1,1.2
				c0.1,0,0.1,0.2,0,0.2c-0.4,0-1,0-1.6,0s-1.2,0-1.6,0C145.5,483.4,145.5,483.2,145.5,483.2z M146.2,473.9c0-0.4,0.3-0.7,0.8-0.7
				c0.5,0,0.7,0.3,0.7,0.7c0,0.5-0.3,0.7-0.7,0.7C146.5,474.6,146.2,474.4,146.2,473.9z"/>
			<path class="st3" d="M152.6,479.5c0.9,0.4,1.8,0.9,1.8,2c0,1.1-0.9,2.1-2.4,2.1c-0.5,0-1.1-0.1-1.6-0.5c-0.1-0.1-0.1-0.1-0.1-0.2
				l0-1.3c0-0.1,0.2-0.1,0.2,0c0.4,1.1,1.2,1.8,2.1,1.8c0.7,0,1.1-0.4,1.1-1.1c0-1-0.8-1.4-1.6-1.7c-0.8-0.4-1.7-0.8-1.7-2
				c0-1.3,1.2-1.9,2.3-1.9c0.4,0,0.8,0.1,1.3,0.3c0.1,0.1,0.2,0.1,0.2,0.2c0,0.4-0.1,0.8-0.1,1.3c0,0.1-0.2,0.1-0.2,0
				c0-0.8-1-1.4-1.8-1.4c-0.5,0-0.9,0.3-0.9,0.9C151.1,478.7,151.8,479.1,152.6,479.5z"/>
			<path class="st3" d="M160.7,482.7c-0.8,0.7-1.5,0.9-2.2,0.9c-0.8,0-1.6-0.3-1.6-1.4v-4c0-0.8-0.1-0.9-0.9-0.9
				c-0.1,0-0.1-0.2,0-0.2c0.9,0,1.5-0.5,1.6-1.3c0-0.1,0.3-0.1,0.3,0v1.3c0.8,0,1.5-0.1,2.4-0.2c0.1,0,0.1,0.2,0.1,0.4
				c0,0.2-0.1,0.4-0.2,0.4c-0.8-0.2-1.5-0.3-2.3-0.3v4.3c0,1,0.5,1.4,1.4,1.4c0.6,0,1.1-0.2,1.4-0.5
				C160.6,482.5,160.7,482.6,160.7,482.7z"/>
			<path class="st3" d="M167.5,482.6c-0.8,0.7-1.6,1-2.5,1c-2.1,0-3.2-1.6-3.2-3.3c0-2.1,1.6-3.7,3.7-3.7c1.3,0,2,0.7,2,1.7
				c0,0.3,0,0.4-0.2,0.4l-4.2,0c-0.1,0.3-0.1,0.6-0.1,0.9c0,2,1,3.4,2.7,3.4c0.6,0,1.2-0.2,1.8-0.6
				C167.4,482.4,167.5,482.5,167.5,482.6z M163,478.5l3.2-0.1c0-0.9-0.5-1.5-1.4-1.5C163.9,477,163.3,477.5,163,478.5z"/>
			<path class="st3" d="M176.7,483.4c-0.4,0-1,0-1.6,0c-0.6,0-1.1,0-1.6,0c-0.1,0-0.1-0.2,0-0.2c0.9,0,1.1-0.2,1.1-1.2v-2.8
				c0-1.4-0.5-2-1.6-2c-0.7,0-1.5,0.4-2.1,1.1v3.7c0,1,0.2,1.2,1.1,1.2c0.1,0,0.1,0.2,0,0.2c-0.4,0-1,0-1.6,0c-0.6,0-1.1,0-1.6,0
				c-0.1,0-0.1-0.2,0-0.2c0.9,0,1.1-0.2,1.1-1.2v-3.4c0-0.8-0.2-1.1-0.6-1.1c-0.2,0-0.5,0.1-0.9,0.3c-0.1,0.1-0.2-0.1-0.1-0.2l2-1
				c0.1,0,0.1,0,0.1,0c0.2,0,0.5,0.5,0.5,1.4c0.9-1,1.7-1.5,2.6-1.5c1.2,0,2,0.7,2,2.1v3.4c0,1,0.2,1.2,1.1,1.2
				C176.7,483.2,176.7,483.4,176.7,483.4z"/>
			<path class="st3" d="M177.8,480.2c0-2.3,2-3.6,3.8-3.6c0.9,0,2,0.4,2,1c0,0.3-0.2,0.5-0.6,0.5c-0.4,0-0.6-0.3-0.8-0.5
				c-0.3-0.4-0.5-0.7-1.2-0.7c-1.3,0-2,1.1-2,2.7c0,1.7,0.8,3.3,2.9,3.3c0.6,0,1.2-0.1,1.7-0.6c0.1,0,0.2,0.1,0.1,0.1
				c-0.8,0.7-1.6,1-2.5,1C178.7,483.6,177.8,481.8,177.8,480.2z"/>
			<path class="st3" d="M185.2,483.2c0.9,0,1.1-0.2,1.1-1.2v-3.2c0-0.8-0.1-1.2-0.6-1.2c-0.2,0-0.4,0.1-0.8,0.2
				c-0.1,0.1-0.2-0.2-0.1-0.2l2.2-1c0,0,0,0,0.1,0c0.1,0,0.2,0.1,0.2,0.1c0,0.2,0,0.9,0,2v3.2c0,1,0.2,1.2,1.1,1.2
				c0.1,0,0.1,0.2,0,0.2c-0.4,0-1,0-1.6,0c-0.6,0-1.2,0-1.6,0C185.1,483.4,185.1,483.2,185.2,483.2z M185.9,473.9
				c0-0.4,0.3-0.7,0.8-0.7c0.5,0,0.7,0.3,0.7,0.7c0,0.5-0.3,0.7-0.7,0.7C186.1,474.6,185.9,474.4,185.9,473.9z"/>
			<path class="st3" d="M197.4,482.6l-2,0.9c-0.1,0-0.1,0-0.1,0c-0.2,0-0.4-0.5-0.5-1.4c-0.7,0.7-1.6,1.4-2.7,1.4
				c-1.4,0-2.5-1-2.5-2.9c0-2.6,2.1-4.1,3.8-4.1c0.6,0,1.2,0.2,1.7,0.5c0.2-0.1,0.3-0.2,0.5-0.4c0,0,0.2,0,0.2,0.1v4.9
				c0,0.8,0.2,1.1,0.6,1.1c0.2,0,0.5-0.1,0.9-0.2C197.4,482.4,197.5,482.5,197.4,482.6z M194.8,481.9v-3.5c0-0.9-0.9-1.5-1.8-1.5
				c-1.4,0-2.3,1.3-2.3,3.2c0,1.7,0.7,2.9,1.9,2.9C193.5,483,194.2,482.4,194.8,481.9z"/>
			<path class="st3" d="M84.9,502.3c0-2.3,2-3.6,3.8-3.6c0.9,0,2,0.4,2,1c0,0.3-0.2,0.5-0.6,0.5c-0.4,0-0.6-0.3-0.8-0.5
				c-0.3-0.4-0.5-0.7-1.2-0.7c-1.3,0-2,1.1-2,2.7c0,1.7,0.8,3.3,2.9,3.3c0.6,0,1.2-0.1,1.7-0.6c0.1,0,0.2,0.1,0.1,0.1
				c-0.8,0.7-1.6,1-2.5,1C85.9,505.7,84.9,503.9,84.9,502.3z"/>
			<path class="st3" d="M92,502c0-2.4,2-3.4,3.7-3.4c2.1,0,3.3,1.7,3.3,3.5c0,2.2-1.7,3.5-3.6,3.5C93.3,505.7,92,504,92,502z
				 M97.8,502.6c0-2.2-1.1-3.7-2.7-3.7c-1.2,0-1.9,0.9-1.9,2.6c0,2.1,1.1,3.8,2.7,3.8C97,505.4,97.8,504.5,97.8,502.6z"/>
			<path class="st3" d="M108.2,505.4c-0.4,0-1,0-1.6,0c-0.6,0-1.1,0-1.6,0c-0.1,0-0.1-0.2,0-0.2c0.9,0,1.1-0.2,1.1-1.2v-2.8
				c0-1.4-0.5-2-1.6-2c-0.7,0-1.5,0.4-2.1,1.1v3.7c0,1,0.2,1.2,1.1,1.2c0.1,0,0.1,0.2,0,0.2c-0.4,0-1,0-1.6,0c-0.6,0-1.1,0-1.6,0
				c-0.1,0-0.1-0.2,0-0.2c0.9,0,1.1-0.2,1.1-1.2v-3.4c0-0.8-0.2-1.1-0.6-1.1c-0.2,0-0.5,0.1-0.9,0.3c-0.1,0.1-0.2-0.1-0.1-0.2l2-1
				c0.1,0,0.1,0,0.1,0c0.2,0,0.5,0.5,0.5,1.4c0.9-1,1.7-1.5,2.6-1.5c1.2,0,2,0.7,2,2.1v3.4c0,1,0.2,1.2,1.1,1.2
				C108.2,505.2,108.2,505.4,108.2,505.4z"/>
			<path class="st3" d="M119.1,504.6c-0.8,0.7-1.6,1-2.5,1c-2.1,0-3.2-1.6-3.2-3.3c0-2.1,1.6-3.7,3.7-3.7c1.3,0,2,0.7,2,1.7
				c0,0.3,0,0.4-0.2,0.4l-4.2,0c-0.1,0.3-0.1,0.6-0.1,0.9c0,2,1,3.4,2.7,3.4c0.6,0,1.2-0.2,1.8-0.6
				C119,504.4,119.1,504.6,119.1,504.6z M114.6,500.6l3.2-0.1c0-0.9-0.5-1.5-1.4-1.5C115.5,499,114.9,499.6,114.6,500.6z"/>
			<path class="st3" d="M120.5,505.2c0.9,0,1.1-0.2,1.1-1.2v-8.9c0-0.8-0.1-1.2-0.5-1.2c-0.2,0-0.4,0.1-0.8,0.2
				c-0.1,0.1-0.2-0.2-0.1-0.2l2.2-1c0,0,0.1,0,0.1,0c0.1,0,0.2,0.1,0.2,0.1v10.9c0,1,0.2,1.2,1.1,1.2c0.1,0,0.1,0.2,0,0.2
				c-0.4,0-1,0-1.6,0c-0.6,0-1.2,0-1.6,0C120.4,505.4,120.4,505.2,120.5,505.2z"/>
			<path class="st3" d="M136.9,505.4c-0.4,0-1,0-1.6,0c-0.6,0-1.1,0-1.6,0c-0.1,0-0.1-0.2,0-0.2c0.9,0,1.1-0.2,1.1-1.2v-2.8
				c0-1.4-0.5-2-1.6-2c-0.7,0-1.5,0.4-2.1,1.1v3.7c0,1,0.2,1.2,1.1,1.2c0.1,0,0.1,0.2,0,0.2c-0.4,0-1,0-1.6,0c-0.6,0-1.1,0-1.6,0
				c-0.1,0-0.1-0.2,0-0.2c0.9,0,1.1-0.2,1.1-1.2v-3.4c0-0.8-0.2-1.1-0.6-1.1c-0.2,0-0.5,0.1-0.9,0.3c-0.1,0.1-0.2-0.1-0.1-0.2l2-1
				c0.1,0,0.1,0,0.1,0c0.2,0,0.5,0.5,0.5,1.4c0.9-1,1.7-1.5,2.6-1.5c1.2,0,2,0.7,2,2.1v3.4c0,1,0.2,1.2,1.1,1.2
				C137,505.2,137,505.4,136.9,505.4z"/>
			<path class="st3" d="M138,502c0-2.4,2-3.4,3.7-3.4c2.1,0,3.3,1.7,3.3,3.5c0,2.2-1.7,3.5-3.6,3.5C139.3,505.7,138,504,138,502z
				 M143.8,502.6c0-2.2-1.1-3.7-2.7-3.7c-1.2,0-1.9,0.9-1.9,2.6c0,2.1,1.1,3.8,2.7,3.8C143,505.4,143.8,504.5,143.8,502.6z"/>
			<path class="st3" d="M153.1,499c-0.6,0-0.9,0.3-1.3,1.3l-2.1,5.1c-0.1,0.1-0.3,0.1-0.4,0l-2.4-5.2c-0.5-1-0.7-1.2-1.1-1.2
				c-0.1,0-0.1-0.2,0-0.2c0.3,0,0.7,0,1.2,0c0.8,0,1.3,0,1.8,0c0.1,0,0.1,0.2,0,0.2c-0.7,0-1.2,0.1-1,0.7l2.1,4.4l1.6-3.9
				c0.3-0.8,0-1.2-1.2-1.2c-0.1,0-0.1-0.2,0-0.2c0.5,0,0.9,0,1.7,0c0.5,0,0.7,0,1.2,0C153.1,498.8,153.1,499,153.1,499z"/>
			<path class="st3" d="M154.2,505.2c0.9,0,1.1-0.2,1.1-1.2v-3.2c0-0.8-0.1-1.2-0.6-1.2c-0.2,0-0.4,0.1-0.8,0.2
				c-0.1,0.1-0.2-0.2-0.1-0.2l2.2-1c0,0,0,0,0.1,0c0.1,0,0.2,0.1,0.2,0.1c0,0.2,0,0.9,0,2v3.2c0,1,0.2,1.2,1.1,1.2
				c0.1,0,0.1,0.2,0,0.2c-0.4,0-1,0-1.6,0s-1.2,0-1.6,0C154.1,505.4,154.1,505.2,154.2,505.2z M154.8,495.9c0-0.4,0.3-0.7,0.8-0.7
				c0.5,0,0.7,0.3,0.7,0.7c0,0.5-0.3,0.7-0.7,0.7C155.1,496.7,154.8,496.4,154.8,495.9z"/>
			<path class="st3" d="M158.6,502c0-2.4,2-3.4,3.7-3.4c2.1,0,3.3,1.7,3.3,3.5c0,2.2-1.7,3.5-3.6,3.5
				C159.9,505.7,158.6,504,158.6,502z M164.4,502.6c0-2.2-1.1-3.7-2.7-3.7c-1.2,0-1.9,0.9-1.9,2.6c0,2.1,1.1,3.8,2.7,3.8
				C163.6,505.4,164.4,504.5,164.4,502.6z"/>
		</g>
	</g>
</g>
<g>
	<path class="st3" d="M245.2,473.1c0.2,0.1,0.2,0.2,0.2,0.4l0.2,1.9c0,0.1-0.2,0.1-0.2,0c-0.5-1.8-2-2.6-3.9-2.6
		c-2.6,0-4.3,1.9-4.3,4.6c0,3.3,2.2,5.9,4.9,5.9c1.6,0,2.9-0.8,3.5-2.8c0-0.1,0.2,0,0.2,0l-0.3,1.9c0,0.3-0.1,0.3-0.3,0.4
		c-1.1,0.5-2.2,0.7-3.3,0.7c-4.4,0-6.1-3-6.1-5.7c0-3.3,3-5.5,6.3-5.5C243.3,472.5,244.5,472.7,245.2,473.1z"/>
	<path class="st3" d="M247.3,480c0-2.4,2-3.4,3.7-3.4c2.1,0,3.3,1.7,3.3,3.5c0,2.2-1.7,3.5-3.6,3.5
		C248.6,483.6,247.3,481.9,247.3,480z M253.1,480.6c0-2.2-1.1-3.7-2.7-3.7c-1.2,0-1.9,0.9-1.9,2.6c0,2.1,1.1,3.8,2.7,3.8
		C252.3,483.3,253.1,482.5,253.1,480.6z"/>
	<path class="st3" d="M263.5,483.4c-0.4,0-1,0-1.6,0c-0.6,0-1.1,0-1.6,0c-0.1,0-0.1-0.2,0-0.2c0.9,0,1.1-0.2,1.1-1.2v-2.8
		c0-1.4-0.5-2-1.6-2c-0.7,0-1.5,0.4-2.1,1.1v3.7c0,1,0.2,1.2,1.1,1.2c0.1,0,0.1,0.2,0,0.2c-0.4,0-1,0-1.6,0c-0.6,0-1.1,0-1.6,0
		c-0.1,0-0.1-0.2,0-0.2c0.9,0,1.1-0.2,1.1-1.2v-3.4c0-0.8-0.2-1.1-0.6-1.1c-0.2,0-0.5,0.1-0.9,0.3c-0.1,0.1-0.2-0.1-0.1-0.2l2-1
		c0.1,0,0.1,0,0.1,0c0.2,0,0.5,0.5,0.5,1.4c0.9-1,1.7-1.5,2.6-1.5c1.2,0,2,0.7,2,2.1v3.4c0,1,0.2,1.2,1.1,1.2
		C263.5,483.2,263.5,483.4,263.5,483.4z"/>
	<path class="st3" d="M266.6,475.9v1.1c0.7,0,1.4-0.1,2.2-0.2c0.1,0,0.1,0.2,0.1,0.4c0,0.2-0.1,0.5-0.2,0.4
		c-0.8-0.2-1.4-0.3-2.1-0.4v4.7c0,1,0.2,1.2,1.7,1.2c0.1,0,0.1,0.2,0,0.2c-0.8,0-1.4,0-2.2,0c-0.6,0-1.2,0-1.7,0
		c-0.1,0-0.1-0.2,0-0.2c1,0,1.2-0.2,1.2-1.2v-3.9c0-0.8-0.1-0.9-1.3-0.9c-0.1,0-0.1-0.2,0-0.2c0.9,0,1.2-0.2,1.2-0.8
		c0.1-3.8,1.7-5.3,4.1-5.3c1.3,0,2.2,0.6,2.2,1.3c0,0.3-0.2,0.5-0.5,0.5c-0.9,0-0.6-1.5-2.2-1.5
		C267.7,471.2,266.6,472.6,266.6,475.9z M273.1,483.4c-0.4,0-1,0-1.6,0s-1.1,0-1.6,0c-0.1,0-0.1-0.2,0-0.2c0.9,0,1.1-0.2,1.1-1.2
		v-3.2c0-1.2-0.3-1.4-1.3-0.9c-0.1,0.1-0.2-0.2-0.1-0.2l2.2-1c0.1-0.1,0.2,0.1,0.2,0.1c0,0.2,0,0.9,0,2v3.2c0,1,0.2,1.2,1.1,1.2
		C273.1,483.2,273.1,483.4,273.1,483.4z"/>
	<path class="st3" d="M279.6,477.3c0,0.3-0.2,0.5-0.6,0.5c-0.5,0-0.6-0.5-1.1-0.5c-0.3,0-0.5,0.1-1.3,1v3.7c0,1,0.3,1.2,1.7,1.2
		c0.1,0,0.1,0.2,0,0.2c-0.6,0-1.4,0-2.2,0c-0.6,0-1.1,0-1.6,0c-0.1,0-0.1-0.2,0-0.2c0.9,0,1.1-0.2,1.1-1.2v-3.4
		c0-0.8-0.2-1.1-0.6-1.1c-0.2,0-0.5,0.1-0.9,0.3c-0.1,0.1-0.2-0.1-0.1-0.2l2-1c0.1,0,0.1,0,0.1,0c0.2,0,0.5,0.5,0.5,1.4
		c1-1.1,1.4-1.4,1.9-1.4C279,476.6,279.6,476.9,279.6,477.3z"/>
	<path class="st3" d="M292.8,483.4c-0.4,0-1,0-1.6,0c-0.6,0-1.1,0-1.6,0c-0.1,0-0.1-0.2,0-0.2c0.9,0,1.1-0.2,1.1-1.2v-2.7
		c0-1.4-0.5-2-1.5-2c-0.7,0-1.4,0.4-2,1.1c0,0.1,0,0.2,0,0.3v3.4c0,1,0.2,1.2,1.1,1.2c0.1,0,0.1,0.2,0,0.2c-0.4,0-1,0-1.6,0
		s-1.1,0-1.6,0c-0.1,0-0.1-0.2,0-0.2c0.9,0,1.1-0.2,1.1-1.2v-2.7c0-1.4-0.5-2-1.5-2c-0.7,0-1.4,0.4-2,1v3.7c0,1,0.2,1.2,1.1,1.2
		c0.1,0,0.1,0.2,0,0.2c-0.4,0-1,0-1.6,0c-0.6,0-1.1,0-1.6,0c-0.1,0-0.1-0.2,0-0.2c0.9,0,1.1-0.2,1.1-1.2v-3.4c0-0.8-0.2-1.1-0.6-1.1
		c-0.2,0-0.5,0.1-0.9,0.3c-0.1,0.1-0.2-0.1-0.1-0.2l2-1c0.1,0,0.1,0,0.1,0c0.2,0,0.5,0.5,0.5,1.4c0.8-1,1.6-1.4,2.5-1.4
		c1,0,1.7,0.5,1.8,1.5c0.9-1.1,1.7-1.5,2.6-1.5c1.2,0,1.9,0.7,1.9,2.1v3.3c0,1,0.2,1.2,1.1,1.2C292.9,483.2,292.9,483.4,292.8,483.4
		z"/>
	<path class="st3" d="M301.6,482.6l-2,0.9c-0.1,0-0.1,0-0.1,0c-0.2,0-0.4-0.5-0.5-1.4c-0.7,0.7-1.6,1.4-2.7,1.4
		c-1.4,0-2.5-1-2.5-2.9c0-2.6,2.1-4.1,3.8-4.1c0.6,0,1.2,0.2,1.7,0.5c0.2-0.1,0.3-0.2,0.5-0.4c0,0,0.2,0,0.2,0.1v4.9
		c0,0.8,0.2,1.1,0.6,1.1c0.2,0,0.5-0.1,0.9-0.2C301.6,482.4,301.7,482.5,301.6,482.6z M299.1,481.9v-3.5c0-0.9-0.9-1.5-1.8-1.5
		c-1.4,0-2.3,1.3-2.3,3.2c0,1.7,0.7,2.9,1.9,2.9C297.8,483,298.5,482.4,299.1,481.9z"/>
	<path class="st3" d="M307.6,477.3c0,0.3-0.2,0.5-0.6,0.5c-0.5,0-0.6-0.5-1.1-0.5c-0.3,0-0.5,0.1-1.3,1v3.7c0,1,0.3,1.2,1.7,1.2
		c0.1,0,0.1,0.2,0,0.2c-0.6,0-1.4,0-2.2,0c-0.6,0-1.1,0-1.6,0c-0.1,0-0.1-0.2,0-0.2c0.9,0,1.1-0.2,1.1-1.2v-3.4
		c0-0.8-0.2-1.1-0.6-1.1c-0.2,0-0.5,0.1-0.9,0.3c-0.1,0.1-0.2-0.1-0.1-0.2l2-1c0.1,0,0.1,0,0.1,0c0.2,0,0.5,0.5,0.5,1.4
		c1-1.1,1.4-1.4,1.9-1.4C307,476.6,307.6,476.9,307.6,477.3z"/>
	<path class="st3" d="M320.5,482.6l-2,0.9c-0.1,0-0.1,0-0.1,0c-0.2,0-0.4-0.5-0.5-1.4c-0.7,0.7-1.6,1.4-2.7,1.4
		c-1.4,0-2.5-1-2.5-2.9c0-2.6,2.1-4.1,3.8-4.1c0.6,0,1.2,0.2,1.7,0.5c0.2-0.1,0.3-0.2,0.5-0.4c0,0,0.2,0,0.2,0.1v4.9
		c0,0.8,0.2,1.1,0.6,1.1c0.2,0,0.5-0.1,0.9-0.2C320.6,482.4,320.7,482.5,320.5,482.6z M318,481.9v-3.5c0-0.9-0.9-1.5-1.8-1.5
		c-1.4,0-2.3,1.3-2.3,3.2c0,1.7,0.7,2.9,1.9,2.9C316.7,483,317.4,482.4,318,481.9z"/>
	<path class="st3" d="M324,479.5c0.9,0.4,1.8,0.9,1.8,2c0,1.1-0.9,2.1-2.4,2.1c-0.5,0-1.1-0.1-1.6-0.5c-0.1-0.1-0.1-0.1-0.1-0.2
		l0-1.3c0-0.1,0.2-0.1,0.2,0c0.4,1.1,1.2,1.7,2.1,1.7c0.7,0,1.1-0.4,1.1-1.1c0-1-0.8-1.4-1.6-1.7c-0.8-0.4-1.7-0.8-1.7-2
		c0-1.3,1.2-1.9,2.3-1.9c0.4,0,0.8,0.1,1.3,0.3c0.1,0.1,0.2,0.1,0.2,0.2c0,0.4-0.1,0.8-0.1,1.3c0,0.1-0.2,0.1-0.2,0
		c0-0.8-1-1.4-1.8-1.4c-0.5,0-0.9,0.3-0.9,0.9C322.4,478.7,323.2,479.1,324,479.5z"/>
	<path class="st3" d="M327.5,483.2c0.9,0,1.1-0.2,1.1-1.2v-3.2c0-0.8-0.1-1.2-0.6-1.2c-0.2,0-0.4,0.1-0.8,0.2
		c-0.1,0.1-0.2-0.2-0.1-0.2l2.2-1c0,0,0,0,0.1,0c0.1,0,0.2,0.1,0.2,0.1c0,0.2,0,0.9,0,2v3.2c0,1,0.2,1.2,1.1,1.2
		c0.1,0,0.1,0.2,0,0.2c-0.4,0-1,0-1.6,0c-0.6,0-1.2,0-1.6,0C327.4,483.4,327.4,483.2,327.5,483.2z M328.2,473.9
		c0-0.4,0.3-0.7,0.8-0.7c0.5,0,0.7,0.3,0.7,0.7c0,0.5-0.3,0.7-0.7,0.7C328.5,474.6,328.2,474.4,328.2,473.9z"/>
	<path class="st3" d="M334.6,479.5c0.9,0.4,1.8,0.9,1.8,2c0,1.1-0.9,2.1-2.4,2.1c-0.5,0-1.1-0.1-1.6-0.5c-0.1-0.1-0.1-0.1-0.1-0.2
		l0-1.3c0-0.1,0.2-0.1,0.2,0c0.4,1.1,1.2,1.7,2.1,1.7c0.7,0,1.1-0.4,1.1-1.1c0-1-0.8-1.4-1.6-1.7c-0.8-0.4-1.7-0.8-1.7-2
		c0-1.3,1.2-1.9,2.3-1.9c0.4,0,0.8,0.1,1.3,0.3c0.1,0.1,0.2,0.1,0.2,0.2c0,0.4-0.1,0.8-0.1,1.3c0,0.1-0.2,0.1-0.2,0
		c0-0.8-1-1.4-1.8-1.4c-0.5,0-0.9,0.3-0.9,0.9C333.1,478.7,333.8,479.1,334.6,479.5z"/>
	<path class="st3" d="M342.6,482.7c-0.8,0.7-1.5,0.9-2.2,0.9c-0.8,0-1.6-0.3-1.6-1.4v-4c0-0.8-0.1-0.9-0.9-0.9c-0.1,0-0.1-0.2,0-0.2
		c0.9,0,1.5-0.5,1.6-1.3c0-0.1,0.3-0.1,0.3,0v1.3c0.8,0,1.5-0.1,2.4-0.2c0.1,0,0.1,0.2,0.1,0.4c0,0.2-0.1,0.4-0.2,0.4
		c-0.8-0.2-1.5-0.3-2.3-0.3v4.3c0,1,0.5,1.4,1.4,1.4c0.6,0,1.1-0.2,1.4-0.5C342.6,482.5,342.7,482.6,342.6,482.7z"/>
	<path class="st3" d="M349.4,482.6c-0.8,0.7-1.6,1-2.5,1c-2.1,0-3.2-1.6-3.2-3.3c0-2.1,1.6-3.7,3.7-3.7c1.3,0,2,0.7,2,1.7
		c0,0.3,0,0.4-0.2,0.4l-4.2,0c-0.1,0.3-0.1,0.6-0.1,0.9c0,2,1,3.4,2.7,3.4c0.6,0,1.2-0.2,1.8-0.6
		C349.4,482.4,349.5,482.5,349.4,482.6z M345,478.5l3.2-0.1c0-0.9-0.5-1.5-1.4-1.5C345.9,477,345.2,477.5,345,478.5z"/>
	<path class="st3" d="M358.7,483.4c-0.4,0-1,0-1.6,0c-0.6,0-1.1,0-1.6,0c-0.1,0-0.1-0.2,0-0.2c0.9,0,1.1-0.2,1.1-1.2v-2.8
		c0-1.4-0.5-2-1.6-2c-0.7,0-1.5,0.4-2.1,1.1v3.7c0,1,0.2,1.2,1.1,1.2c0.1,0,0.1,0.2,0,0.2c-0.4,0-1,0-1.6,0c-0.6,0-1.1,0-1.6,0
		c-0.1,0-0.1-0.2,0-0.2c0.9,0,1.1-0.2,1.1-1.2v-3.4c0-0.8-0.2-1.1-0.6-1.1c-0.2,0-0.5,0.1-0.9,0.3c-0.1,0.1-0.2-0.1-0.1-0.2l2-1
		c0.1,0,0.1,0,0.1,0c0.2,0,0.5,0.5,0.5,1.4c0.9-1,1.7-1.5,2.6-1.5c1.2,0,2,0.7,2,2.1v3.4c0,1,0.2,1.2,1.1,1.2
		C358.7,483.2,358.7,483.4,358.7,483.4z"/>
	<path class="st3" d="M359.7,480.2c0-2.3,2-3.6,3.8-3.6c0.9,0,2,0.4,2,1c0,0.3-0.2,0.5-0.6,0.5c-0.4,0-0.6-0.3-0.8-0.5
		c-0.3-0.4-0.5-0.7-1.2-0.7c-1.3,0-2,1.1-2,2.7c0,1.7,0.8,3.3,2.9,3.3c0.6,0,1.2-0.1,1.7-0.6c0.1,0,0.2,0.1,0.1,0.1
		c-0.8,0.7-1.6,1-2.5,1C360.7,483.6,359.7,481.8,359.7,480.2z"/>
	<path class="st3" d="M367.2,483.2c0.9,0,1.1-0.2,1.1-1.2v-3.2c0-0.8-0.1-1.2-0.6-1.2c-0.2,0-0.4,0.1-0.8,0.2
		c-0.1,0.1-0.2-0.2-0.1-0.2l2.2-1c0,0,0,0,0.1,0c0.1,0,0.2,0.1,0.2,0.1c0,0.2,0,0.9,0,2v3.2c0,1,0.2,1.2,1.1,1.2
		c0.1,0,0.1,0.2,0,0.2c-0.4,0-1,0-1.6,0c-0.6,0-1.2,0-1.6,0C367.1,483.4,367.1,483.2,367.2,483.2z M367.9,473.9
		c0-0.4,0.3-0.7,0.8-0.7c0.5,0,0.7,0.3,0.7,0.7c0,0.5-0.3,0.7-0.7,0.7C368.1,474.6,367.9,474.4,367.9,473.9z"/>
	<path class="st3" d="M379.3,482.6l-2,0.9c-0.1,0-0.1,0-0.1,0c-0.2,0-0.4-0.5-0.5-1.4c-0.7,0.7-1.6,1.4-2.7,1.4
		c-1.4,0-2.5-1-2.5-2.9c0-2.6,2.1-4.1,3.8-4.1c0.6,0,1.2,0.2,1.7,0.5c0.2-0.1,0.3-0.2,0.5-0.4c0,0,0.2,0,0.2,0.1v4.9
		c0,0.8,0.2,1.1,0.6,1.1c0.2,0,0.5-0.1,0.9-0.2C379.4,482.4,379.4,482.5,379.3,482.6z M376.8,481.9v-3.5c0-0.9-0.9-1.5-1.8-1.5
		c-1.4,0-2.3,1.3-2.3,3.2c0,1.7,0.7,2.9,1.9,2.9C375.5,483,376.2,482.4,376.8,481.9z"/>
	<path class="st3" d="M266.1,502.3c0-2.3,2-3.6,3.8-3.6c0.9,0,2,0.4,2,1c0,0.3-0.2,0.5-0.6,0.5c-0.4,0-0.6-0.3-0.8-0.5
		c-0.3-0.4-0.5-0.7-1.2-0.7c-1.3,0-2,1.1-2,2.7c0,1.7,0.8,3.3,2.9,3.3c0.6,0,1.2-0.1,1.7-0.6c0.1,0,0.2,0.1,0.1,0.1
		c-0.8,0.7-1.6,1-2.5,1C267.1,505.7,266.1,503.9,266.1,502.3z"/>
	<path class="st3" d="M273.2,502.1c0-2.4,2-3.4,3.7-3.4c2.1,0,3.3,1.7,3.3,3.5c0,2.2-1.7,3.5-3.6,3.5
		C274.5,505.7,273.2,504,273.2,502.1z M279,502.6c0-2.2-1.1-3.7-2.7-3.7c-1.2,0-1.9,0.9-1.9,2.6c0,2.1,1.1,3.8,2.7,3.8
		C278.2,505.4,279,504.5,279,502.6z"/>
	<path class="st3" d="M289.4,505.4c-0.4,0-1,0-1.6,0c-0.6,0-1.1,0-1.6,0c-0.1,0-0.1-0.2,0-0.2c0.9,0,1.1-0.2,1.1-1.2v-2.8
		c0-1.4-0.5-2-1.6-2c-0.7,0-1.5,0.4-2.1,1.1v3.7c0,1,0.2,1.2,1.1,1.2c0.1,0,0.1,0.2,0,0.2c-0.4,0-1,0-1.6,0c-0.6,0-1.1,0-1.6,0
		c-0.1,0-0.1-0.2,0-0.2c0.9,0,1.1-0.2,1.1-1.2v-3.4c0-0.8-0.2-1.1-0.6-1.1c-0.2,0-0.5,0.1-0.9,0.3c-0.1,0.1-0.2-0.1-0.1-0.2l2-1
		c0.1,0,0.1,0,0.1,0c0.2,0,0.5,0.5,0.5,1.4c0.9-1,1.7-1.5,2.6-1.5c1.2,0,2,0.7,2,2.1v3.4c0,1,0.2,1.2,1.1,1.2
		C289.4,505.2,289.4,505.4,289.4,505.4z"/>
	<path class="st3" d="M294.6,505.2c0.9,0,1.1-0.2,1.1-1.2v-8.9c0-0.8-0.1-1.2-0.5-1.2c-0.2,0-0.4,0.1-0.8,0.2
		c-0.1,0.1-0.2-0.2-0.1-0.2l2.2-1c0,0,0.1,0,0.1,0c0.1,0,0.2,0.1,0.2,0.1v10.9c0,1,0.2,1.2,1.1,1.2c0.1,0,0.1,0.2,0,0.2
		c-0.4,0-1,0-1.6,0c-0.6,0-1.2,0-1.6,0C294.5,505.4,294.5,505.2,294.6,505.2z"/>
	<path class="st3" d="M306.8,504.6l-2,0.9c-0.1,0-0.1,0-0.1,0c-0.2,0-0.4-0.5-0.5-1.4c-0.7,0.7-1.6,1.4-2.7,1.4
		c-1.4,0-2.5-1-2.5-2.9c0-2.6,2.1-4.1,3.8-4.1c0.6,0,1.2,0.2,1.7,0.5c0.2-0.1,0.3-0.2,0.5-0.4c0,0,0.2,0,0.2,0.1v4.9
		c0,0.8,0.2,1.1,0.6,1.1c0.2,0,0.5-0.1,0.9-0.2C306.8,504.4,306.9,504.6,306.8,504.6z M304.2,503.9v-3.5c0-0.9-0.9-1.5-1.8-1.5
		c-1.4,0-2.3,1.3-2.3,3.2c0,1.7,0.7,2.9,1.9,2.9C302.9,505.1,303.6,504.5,304.2,503.9z"/>
	<path class="st3" d="M319.5,505.4c-0.4,0-1,0-1.6,0c-0.6,0-1.1,0-1.6,0c-0.1,0-0.1-0.2,0-0.2c0.9,0,1.1-0.2,1.1-1.2v-2.8
		c0-1.4-0.5-2-1.6-2c-0.7,0-1.5,0.4-2.1,1.1v3.7c0,1,0.2,1.2,1.1,1.2c0.1,0,0.1,0.2,0,0.2c-0.4,0-1,0-1.6,0c-0.6,0-1.1,0-1.6,0
		c-0.1,0-0.1-0.2,0-0.2c0.9,0,1.1-0.2,1.1-1.2v-3.4c0-0.8-0.2-1.1-0.6-1.1c-0.2,0-0.5,0.1-0.9,0.3c-0.1,0.1-0.2-0.1-0.1-0.2l2-1
		c0.1,0,0.1,0,0.1,0c0.2,0,0.5,0.5,0.5,1.4c0.9-1,1.7-1.5,2.6-1.5c1.2,0,2,0.7,2,2.1v3.4c0,1,0.2,1.2,1.1,1.2
		C319.6,505.2,319.6,505.4,319.5,505.4z"/>
	<path class="st3" d="M320.6,502.1c0-2.4,2-3.4,3.7-3.4c2.1,0,3.3,1.7,3.3,3.5c0,2.2-1.7,3.5-3.6,3.5
		C321.9,505.7,320.6,504,320.6,502.1z M326.4,502.6c0-2.2-1.1-3.7-2.7-3.7c-1.2,0-1.9,0.9-1.9,2.6c0,2.1,1.1,3.8,2.7,3.8
		C325.7,505.4,326.4,504.5,326.4,502.6z"/>
	<path class="st3" d="M335.7,499c-0.6,0-0.9,0.3-1.3,1.3l-2.1,5.1c-0.1,0.1-0.3,0.1-0.4,0l-2.4-5.2c-0.5-1-0.7-1.2-1.1-1.2
		c-0.1,0-0.1-0.2,0-0.2c0.3,0,0.7,0,1.2,0c0.8,0,1.3,0,1.8,0c0.1,0,0.1,0.2,0,0.2c-0.7,0-1.2,0.1-1,0.7l2.1,4.4l1.6-3.9
		c0.3-0.8,0-1.2-1.2-1.2c-0.1,0-0.1-0.2,0-0.2c0.5,0,0.9,0,1.7,0c0.5,0,0.7,0,1.2,0C335.8,498.8,335.8,499,335.7,499z"/>
	<path class="st3" d="M336.8,505.2c0.9,0,1.1-0.2,1.1-1.2v-3.2c0-0.8-0.1-1.2-0.6-1.2c-0.2,0-0.4,0.1-0.8,0.2
		c-0.1,0.1-0.2-0.2-0.1-0.2l2.2-1c0,0,0,0,0.1,0c0.1,0,0.2,0.1,0.2,0.1c0,0.2,0,0.9,0,2v3.2c0,1,0.2,1.2,1.1,1.2
		c0.1,0,0.1,0.2,0,0.2c-0.4,0-1,0-1.6,0c-0.6,0-1.2,0-1.6,0C336.7,505.4,336.7,505.2,336.8,505.2z M337.4,495.9
		c0-0.4,0.3-0.7,0.8-0.7c0.5,0,0.7,0.3,0.7,0.7c0,0.5-0.3,0.7-0.7,0.7C337.7,496.7,337.4,496.4,337.4,495.9z"/>
	<path class="st3" d="M348.9,504.6l-2,0.9c-0.1,0-0.1,0-0.1,0c-0.2,0-0.4-0.5-0.5-1.4c-0.7,0.7-1.6,1.4-2.7,1.4
		c-1.4,0-2.5-1-2.5-2.9c0-2.6,2.1-4.1,3.8-4.1c0.6,0,1.2,0.2,1.7,0.5c0.2-0.1,0.3-0.2,0.5-0.4c0,0,0.2,0,0.2,0.1v4.9
		c0,0.8,0.2,1.1,0.6,1.1c0.2,0,0.5-0.1,0.9-0.2C348.9,504.4,349,504.6,348.9,504.6z M346.4,503.9v-3.5c0-0.9-0.9-1.5-1.8-1.5
		c-1.4,0-2.3,1.3-2.3,3.2c0,1.7,0.7,2.9,1.9,2.9C345.1,505.1,345.8,504.5,346.4,503.9z"/>
</g>
<g>
	<g>
		
			<pattern  id="SVGID_00000074425974472341317080000010299388516941722279_" xlink:href="#Nueva_muestra_de_motivo_1" patternTransform="matrix(1 0 0 1 48.6995 25.335)">
		</pattern>
		
			<pattern  id="SVGID_00000154409377335628390090000012487886310278853774_" xlink:href="#Nueva_muestra_de_motivo_1" patternTransform="matrix(1 0 0 1 -32.2762 -95.1582)">
		</pattern>
		
			<path style="fill:url(#SVGID_00000074425974472341317080000010299388516941722279_);stroke:url(#SVGID_00000154409377335628390090000012487886310278853774_);stroke-width:0.3063;stroke-miterlimit:10;" d="
			M248.5,428.6c0,0.2,0,0.3,0,0.4c-0.5,2.9-0.9,5.9-1.4,8.8c-0.2,0.9,0,1.6,0.5,2.3c1.4,1.7,2.8,3.4,4.3,4.9
			c2.3,2.4,4.4,4.8,5.8,7.9c0.3,0.6,0.7,0.7,1.2,0.5c0.4-0.2,0.6-0.7,0.3-1.2c-0.6-1.2-1.3-2.3-1.9-3.5c-0.1-0.2-0.3-0.5-0.3-0.8
			c-0.2-6.3-0.4-12.5-0.6-18.8c-0.1-4.6-0.3-9.1-0.4-13.7c-0.1-1.6-0.4-3.1-1.3-4.4c-0.2-0.3-0.3-0.6-0.1-0.9c0.5-0.9,0-1.8-1-2
			c-1.5-0.4-3-0.7-4.6-1c-0.1-0.2-0.1-0.4-0.1-0.6c-0.6-4-1.2-8-1.7-12c-0.1-0.5-0.2-1-0.1-1.5c0.3-1.6,0.3-3.2,0-4.8
			c-0.7-3.3-2.5-5.7-5.8-6.9c-0.4-0.1-0.4-0.3-0.4-0.7c0.1-2.3-1.9-4-4.1-3.4c-0.8,0.2-1.4,0.8-2.2,1.2c-1.5-1.2-3.1-0.9-4.1,0.9
			c-0.1,0.1-0.2,0.3-0.4,0.3c-0.8,0.3-1.3,0.9-1.6,1.8c-0.1,0.2-0.2,0.4-0.4,0.5c-1.2,0.7-1.8,1.6-1.8,3c0,1.3,0.6,2.4,1.7,3
			c0.3,0.2,0.4,0.4,0.4,0.8c-0.1,0.8-0.2,1.6-0.2,2.4c0,0.6,0.1,1.1,0,1.7c-0.7,4.6-1.4,9.3-2,13.9c0,0.3-0.1,0.5-0.5,0.6
			c-1.1,0.3-2.3,0.6-3.4,0.8c-1,0.2-1.4,0.7-1.4,1.7c0,0.2,0,0.5-0.2,0.7c-0.7,1.2-1.1,2.5-1.1,3.8c-0.2,5.4-0.3,10.8-0.5,16.2
			c0,1.2-0.1,2.3-0.1,3.5c-0.2-2.1-0.4-4.2-0.6-6.3c-0.2-2.1-0.3-4.3-0.5-6.4c-0.3-3.4-0.5-6.7-0.8-10.1c-0.1-1.1-0.2-2.3-0.2-3.4
			c0-1,0-1.1-0.9-1.4c-3.8-1.3-7.7-2.6-11.5-3.9c-0.9-0.3-1.1-0.6-1.1-1.5c0-1.2,0-2.4,0-3.6c0-0.2,0.1-0.5,0.2-0.7
			c0.3-0.6,0.7-1.2,1-1.8c0.2-0.3,0.4-0.6,0.7-0.8c1.9-1.2,2.6-4.1,1.4-5.9c-0.1-0.1-0.2-0.2-0.2-0.3c0.1-0.7,0.2-1.4,0.4-2.1
			c0.9-2.6,0.7-5.2-0.5-7.7c-0.2-0.5-0.7-1-1.1-1.4c-0.4-0.4-0.9-0.4-1.5-0.2c-0.5,0.2-1,0.4-1.6,0.4c-2,0-4,0-5.9,0
			c-1.8,0.1-3.6,0.4-5.2,1.2c-1.6,0.8-2.5,2.1-2.7,3.8c-0.3,1.9-0.1,3.8,0.2,5.7c0,0.2,0.1,0.5,0,0.6c-0.9,1.3-0.4,4.1,0.8,5.1
			c0.8,0.6,1.2,1.4,1.6,2.3c0.1,0.2,0.3,0.5,0.4,0.7c0.1,0.2,0.2,0.4,0.2,0.6c0,1.2,0.1,2.4,0,3.7c0,0.7-0.3,1.4-1,1.6
			c-4.1,1.4-8.1,2.7-12.2,4c-0.5,0.2-0.7,0.5-0.7,1c0,0.2,0,0.3,0,0.5c-0.3,3.8-0.6,7.5-0.9,11.3c-0.4,5.2-0.8,10.4-1.2,15.7
			c-0.5,6.1-0.9,12.2-1.4,18.3c0,0.6,0.2,1,0.7,1.1c0.5,0.1,0.9-0.3,0.9-1c0.1-1.2,0.2-2.4,0.3-3.5c0.3-3.4,0.6-6.8,0.8-10.2
			c0.2-2.9,0.4-5.8,0.7-8.6c0.4-4.5,0.7-9.1,1.1-13.6c0.1-1.5,0.2-2.9,0.4-4.4c0.1,0.1,0.2,0.2,0.2,0.3c0.7,3,1.4,6,2,9
			c0.6,2.9,1.1,5.9,1.1,8.9c0,4.6-0.8,9.1-1.3,13.6c-0.3,2.8-0.6,5.7-0.9,8.5c-0.1,0.7,0.3,1.1,0.8,1.1c0.5,0,0.8-0.4,0.9-1
			c0-0.7,0-1.3,0.1-2c0.6-4.9,1.2-9.9,1.8-14.8c0.4-3.7,0.4-7.4-0.2-11c-0.9-5.3-2.1-10.6-3.5-15.8c-0.2-0.6-0.3-1.2-0.4-1.8
			c2.9-1,5.7-1.9,8.7-2.9c-0.6,0.6-1.1,1.1-1.6,1.6c-0.5,0.5-0.5,1,0,1.5c0.5,0.5,1,1,1.6,1.4c0.4,0.3,0.4,0.6,0.2,1.1
			c-0.3,0.5-0.5,1-0.8,1.4c-0.3,0.5-0.3,1-0.1,1.5c2.9,6.5,5.8,13.1,8.6,19.6c0.2,0.4,0.2,0.8,0.2,1.2c0,5.1,0,10.2,0,15.3
			c0,1.3,0,2.5,0,3.8c0,0.6,0.3,0.9,0.9,0.9c0.5,0,0.9-0.3,1-0.9c0-0.2,0-0.3,0-0.5c0-6.2,0-12.3,0-18.5c0-0.5,0.1-1.1,0.3-1.6
			c2.8-6.5,5.7-13,8.5-19.5c0.2-0.5,0.2-0.9,0-1.4c-0.4-0.7-0.7-1.4-1.1-2.1c0.7-0.6,1.3-1.2,2-1.8c0.6-0.6,0.6-1,0-1.6
			c-0.5-0.5-0.9-1-1.5-1.6c3,1,5.8,2,8.6,2.9c-0.9,4.1-2,8-2.8,12c-0.7,3.3-1.2,6.6-1.5,9.9c-0.3,3.7,0.2,7.4,0.5,11.1
			c0.3,2.8,0.5,5.5,0.8,8.3c0.1,1.4,0.2,2.8,0.3,4.1c0,0.6,0.5,1,1,1c0.5,0,0.8-0.4,0.8-1.1c-0.1-0.7-0.2-1.5-0.2-2.2
			c-0.5-5.3-1-10.5-1.4-15.8c-0.2-2.5-0.3-5.1,0.1-7.6c0.7-4,1.5-8,2.3-12c0.2-0.8,0.4-1.6,0.6-2.5c0.3,3,0.6,6,0.8,9
			c0.4,5.2,0.8,10.4,1.2,15.5c0.4,5.3,0.8,10.5,1.2,15.8c0,0.6,0.4,1,0.9,0.9c0.5,0,0.8-0.4,0.8-1c-0.1-1.5-0.2-3-0.3-4.4
			c0-0.3,0.1-0.7,0.3-0.8c0.8-0.8,1.7-1.6,2.6-2.3c2-1.6,3.9-3.4,5.4-5.5c0.2-0.3,0.3-0.7,0.4-1c0.1-2.6-0.1-5.1-0.6-7.7
			c-0.2-1-0.4-2-0.6-3c0.5,0.2,1,0.4,1.5,0.5c1.4,0.4,2.8,0.4,4.2-0.3c0.5-0.3,0.7-0.7,0.4-1.2c-0.3-0.5-0.7-0.5-1.2-0.3
			c-0.3,0.1-0.6,0.3-0.9,0.3c-1.8,0.3-3.3-0.4-4.7-1.3c-0.1-0.1-0.2-0.3-0.2-0.4c-0.3-0.9-0.7-1.7-1-2.6c-0.5-1.3-0.3-2.4,0.5-3.5
			c1.3-1.7,3.8-2.4,5.9-1.8c2,0.6,3.4,1.9,4.5,3.7c0.7,1.2,2,1.2,2.8,0c0.5-0.7,1-1.4,1.5-2c2.3-2.2,5.7-2.5,8-0.7
			c1.2,1,1.9,2.2,1.5,3.8c-0.3,1.2-0.7,2.3-1.1,3.5c0,0.1-0.2,0.3-0.3,0.3c-1.6,1-3.3,1.6-5.3,0.7c-0.4-0.2-0.8-0.1-1.1,0.3
			c-0.2,0.4-0.1,0.8,0.3,1.1c0.2,0.1,0.4,0.2,0.7,0.3c1.4,0.5,2.7,0.4,4.1,0C247.8,428.8,248.2,428.7,248.5,428.6z M189.8,445
			c1.1,0,2.2,0,3.2,0c0.6,0,1-0.3,1-0.8c0-0.5-0.4-0.9-1-0.9c-2.2,0-4.3,0-6.5,0c-0.7,0-1,0.3-1,0.8c0,0.5,0.4,0.9,1,0.9
			C187.6,445,188.7,445,189.8,445z M204.5,445c1.1,0,2.2,0,3.2,0c0.7,0,1-0.3,1-0.8c0-0.5-0.3-0.9-1-0.9c-2.2,0-4.3,0-6.5,0
			c-0.6,0-1,0.4-1,0.9c0,0.5,0.4,0.8,1,0.8C202.4,445,203.5,445,204.5,445z"/>
		
			<pattern  id="SVGID_00000090292673188738255510000012057214906665908875_" xlink:href="#Nueva_muestra_de_motivo_1" patternTransform="matrix(1 0 0 1 48.6995 25.335)">
		</pattern>
		<path style="fill:url(#SVGID_00000090292673188738255510000012057214906665908875_);" d="M248.5,428.6c-0.4,0.1-0.7,0.2-1,0.3
			c-1.4,0.4-2.7,0.5-4.1,0c-0.2-0.1-0.5-0.2-0.7-0.3c-0.4-0.3-0.5-0.7-0.3-1.1c0.2-0.4,0.6-0.5,1.1-0.3c1.9,0.9,3.6,0.3,5.3-0.7
			c0.1-0.1,0.3-0.2,0.3-0.3c0.4-1.2,0.8-2.3,1.1-3.5c0.4-1.6-0.3-2.8-1.5-3.8c-2.4-1.8-5.8-1.5-8,0.7c-0.6,0.6-1.1,1.3-1.5,2
			c-0.8,1.2-2.1,1.2-2.8,0c-1.1-1.8-2.5-3.1-4.5-3.7c-2.1-0.6-4.6,0.2-5.9,1.8c-0.8,1.1-1,2.2-0.5,3.5c0.3,0.9,0.6,1.7,1,2.6
			c0.1,0.1,0.1,0.3,0.2,0.4c1.4,1,2.9,1.7,4.7,1.3c0.3-0.1,0.6-0.2,0.9-0.3c0.5-0.2,0.9-0.1,1.2,0.3c0.2,0.4,0.1,0.9-0.4,1.2
			c-1.3,0.7-2.7,0.7-4.2,0.3c-0.5-0.1-1-0.3-1.5-0.5c0.2,1,0.4,2,0.6,3c0.5,2.5,0.7,5.1,0.6,7.7c0,0.3-0.2,0.7-0.4,1
			c-1.5,2.1-3.4,3.8-5.4,5.5c-0.9,0.7-1.7,1.5-2.6,2.3c-0.2,0.2-0.3,0.6-0.3,0.8c0.1,1.5,0.2,3,0.3,4.4c0,0.6-0.2,1-0.8,1
			c-0.5,0-0.8-0.3-0.9-0.9c-0.4-5.3-0.8-10.5-1.2-15.8c-0.4-5.2-0.8-10.4-1.2-15.5c-0.2-3-0.5-6-0.8-9c-0.2,0.8-0.5,1.6-0.6,2.5
			c-0.8,4-1.6,8-2.3,12c-0.4,2.5-0.3,5.1-0.1,7.6c0.4,5.3,0.9,10.5,1.4,15.8c0.1,0.7,0.2,1.5,0.2,2.2c0.1,0.7-0.2,1-0.8,1.1
			c-0.5,0-1-0.4-1-1c-0.1-1.4-0.1-2.8-0.3-4.1c-0.2-2.8-0.5-5.5-0.8-8.3c-0.3-3.7-0.8-7.4-0.5-11.1c0.3-3.3,0.8-6.7,1.5-9.9
			c0.8-4,1.8-8,2.8-12c-2.8-0.9-5.6-1.9-8.6-2.9c0.6,0.6,1,1.1,1.5,1.6c0.6,0.6,0.6,1,0,1.6c-0.6,0.6-1.3,1.2-2,1.8
			c0.4,0.7,0.7,1.4,1.1,2.1c0.3,0.5,0.3,0.9,0,1.4c-2.9,6.5-5.7,13-8.5,19.5c-0.2,0.5-0.3,1.1-0.3,1.6c0,6.2,0,12.3,0,18.5
			c0,0.2,0,0.3,0,0.5c0,0.6-0.4,0.9-1,0.9c-0.5,0-0.9-0.3-0.9-0.9c0-1.3,0-2.5,0-3.8c0-5.1,0-10.2,0-15.3c0-0.4-0.1-0.8-0.2-1.2
			c-2.9-6.5-5.7-13.1-8.6-19.6c-0.2-0.5-0.3-1,0.1-1.5c0.3-0.5,0.5-1,0.8-1.4c0.3-0.4,0.3-0.7-0.2-1.1c-0.5-0.4-1-0.9-1.6-1.4
			c-0.5-0.5-0.5-0.9,0-1.5c0.5-0.5,1-1,1.6-1.6c-2.9,1-5.8,1.9-8.7,2.9c0.2,0.6,0.3,1.2,0.4,1.8c1.4,5.2,2.6,10.5,3.5,15.8
			c0.6,3.7,0.7,7.3,0.2,11c-0.6,4.9-1.2,9.9-1.8,14.8c-0.1,0.6-0.1,1.3-0.1,2c0,0.6-0.4,1-0.9,1c-0.5,0-0.9-0.4-0.8-1.1
			c0.3-2.8,0.6-5.7,0.9-8.5c0.5-4.5,1.3-9,1.3-13.6c0-3-0.5-6-1.1-8.9c-0.6-3-1.3-6-2-9c0-0.1-0.1-0.2-0.2-0.3
			c-0.1,1.5-0.2,2.9-0.4,4.4c-0.4,4.5-0.7,9.1-1.1,13.6c-0.2,2.9-0.4,5.8-0.7,8.6c-0.3,3.4-0.5,6.8-0.8,10.2
			c-0.1,1.2-0.2,2.4-0.3,3.5c0,0.6-0.4,1-0.9,1c-0.5-0.1-0.8-0.5-0.7-1.1c0.5-6.1,0.9-12.2,1.4-18.3c0.4-5.2,0.8-10.4,1.2-15.7
			c0.3-3.8,0.6-7.5,0.9-11.3c0-0.2,0-0.3,0-0.5c0-0.5,0.2-0.8,0.7-1c4.1-1.3,8.2-2.7,12.2-4c0.7-0.2,0.9-1,1-1.6
			c0.1-1.2,0-2.4,0-3.7c0-0.2-0.1-0.4-0.2-0.6c-0.1-0.2-0.3-0.5-0.4-0.7c-0.4-0.8-0.8-1.6-1.6-2.3c-1.3-1.1-1.7-3.8-0.8-5.1
			c0.1-0.2,0.1-0.4,0-0.6c-0.3-1.9-0.5-3.8-0.2-5.7c0.2-1.8,1.1-3,2.7-3.8c1.6-0.8,3.4-1.2,5.2-1.2c2-0.1,4,0,5.9,0
			c0.5,0,1.1-0.2,1.6-0.4c0.5-0.2,1.1-0.2,1.5,0.2c0.4,0.4,0.8,0.9,1.1,1.4c1.2,2.5,1.4,5,0.5,7.7c-0.2,0.7-0.3,1.4-0.4,2.1
			c0,0.1,0.1,0.2,0.2,0.3c1.2,1.8,0.5,4.8-1.4,5.9c-0.3,0.2-0.5,0.5-0.7,0.8c-0.4,0.6-0.7,1.2-1,1.8c-0.1,0.2-0.2,0.5-0.2,0.7
			c0,1.2,0,2.4,0,3.6c0,0.9,0.2,1.2,1.1,1.5c3.8,1.3,7.7,2.6,11.5,3.9c0.9,0.3,0.9,0.4,0.9,1.4c0,1.1,0.1,2.3,0.2,3.4
			c0.3,3.4,0.5,6.7,0.8,10.1c0.2,2.1,0.3,4.3,0.5,6.4c0.2,2.1,0.3,4.2,0.6,6.3c0-1.2,0.1-2.3,0.1-3.5c0.2-5.4,0.3-10.8,0.5-16.2
			c0-1.4,0.4-2.6,1.1-3.8c0.1-0.2,0.2-0.4,0.2-0.7c-0.1-1,0.4-1.5,1.4-1.7c1.2-0.2,2.3-0.6,3.4-0.8c0.3-0.1,0.4-0.3,0.5-0.6
			c0.7-4.6,1.4-9.3,2-13.9c0.1-0.6,0-1.1,0-1.7c0-0.8,0.1-1.6,0.2-2.4c0.1-0.4,0-0.6-0.4-0.8c-1.2-0.7-1.8-1.7-1.7-3
			c0-1.3,0.7-2.3,1.8-3c0.2-0.1,0.4-0.3,0.4-0.5c0.3-0.8,0.7-1.4,1.6-1.8c0.2-0.1,0.3-0.2,0.4-0.3c1-1.8,2.6-2.1,4.1-0.9
			c0.8-0.4,1.4-1,2.2-1.2c2.2-0.6,4.2,1.1,4.1,3.4c0,0.3,0,0.5,0.4,0.7c3.3,1.1,5.1,3.5,5.8,6.9c0.3,1.6,0.3,3.2,0,4.8
			c-0.1,0.5,0,1,0.1,1.5c0.6,4,1.1,8,1.7,12c0,0.2,0.1,0.4,0.1,0.6c1.5,0.3,3,0.7,4.6,1c1,0.2,1.4,1.1,1,2c-0.2,0.4-0.1,0.6,0.1,0.9
			c0.8,1.3,1.2,2.8,1.3,4.4c0.1,4.6,0.3,9.1,0.4,13.7c0.2,6.3,0.4,12.5,0.6,18.8c0,0.3,0.2,0.5,0.3,0.8c0.6,1.2,1.3,2.3,1.9,3.5
			c0.3,0.5,0.1,1-0.3,1.2c-0.5,0.2-0.9,0-1.2-0.5c-1.4-3-3.5-5.5-5.8-7.9c-1.5-1.6-2.9-3.3-4.3-4.9c-0.6-0.7-0.7-1.4-0.5-2.3
			c0.5-2.9,0.9-5.9,1.4-8.8C248.5,428.9,248.5,428.8,248.5,428.6z M237.7,420.6c2.4-3.6,5.5-5.3,9.9-4.2c0.2-2.6,0.3-5.2,0.5-7.7
			c-2.2-0.5-4.2-0.9-6.2-1.4c-0.8-0.2-0.9-0.4-1-1.2c-0.1-0.9-0.1-1.7-0.2-2.7c-2.1,1.3-4.2,1.2-6.3-0.1c-0.1,1-0.1,1.9-0.2,2.8
			c0,0.7-0.2,1-0.9,1.1c-1.8,0.4-3.6,0.8-5.4,1.2c-0.4,0.1-0.5,0.2-0.5,0.6c0.1,1.6,0.1,3.2,0.2,4.8c0.1,0.8,0.2,1.7,0.3,2.5
			C232.3,415.3,235.4,417.1,237.7,420.6z M202.6,384c-1.1,0.3-2.2,0.6-3.3,0.7c-2.2,0.4-4.4,0.6-6.6,1c-0.2,0-0.4,0.2-0.5,0.4
			c-0.8,1.1-1.2,2.4-2.4,3.3c-0.1,0-0.1,0.1-0.1,0.2c-0.4,0.9,0.2,2.8,1.1,3.2c0.5,0.2,0.7,0.6,0.9,1c0.6,1.7,1.5,3.2,2.9,4.3
			c2,1.6,3.9,1.5,5.7-0.2c1.2-1.2,2.1-2.6,2.8-4.1c0.1-0.3,0.3-0.6,0.6-0.8c1.2-0.6,1.8-1.7,1.7-2.9c0-0.3-0.2-0.6-0.4-0.8
			c-0.3-0.3-0.5-0.6-0.4-1c0-0.4,0.1-0.9-0.1-1.2C203.9,386,203.3,385,202.6,384z M239.6,387.9c-2.6,2.9-5.5,5.3-9.3,6.4
			c0.5,2.4,2.8,6,4.7,7.4c1.8,1.3,3.3,1.3,5.1,0c1.4-1,2.4-2.4,3.3-3.9c0.7-1.3,1.4-2.7,1.7-4.2C242.5,392.5,241,390.2,239.6,387.9z
			 M220.1,445.7c0.9-0.8,1.8-1.5,2.6-2.2c0.2-0.2,0.5-0.6,0.5-0.9c0.5-3.8,0.9-7.6,1.5-11.4c0.4-2.5,0.4-4.8-0.7-7.2
			c-0.9-1.8-0.6-3.5,0.5-5.2c0.1-0.2,0.2-0.6,0.1-0.8c-0.6-1.5-1.2-2.9-1.8-4.3c-0.3-0.6-0.6-1.2-0.9-1.8c-0.1,0-0.1,0-0.2,0
			c-0.2,0.7-0.4,1.3-0.5,2c-0.2,3.8-0.3,7.6-0.4,11.3c-0.1,4.2-0.3,8.5-0.4,12.7C220.2,440.5,220.1,443,220.1,445.7z M255.3,445.8
			c0,0.1-0.1,0.1-0.1,0.2c0-0.3,0-0.6,0-0.8c-0.2-4.6-0.3-9.2-0.5-13.9c-0.2-5.3-0.3-10.6-0.5-15.9c0-1-0.3-2-0.8-3
			c-0.1,0.1-0.1,0.1-0.2,0.1c-0.8,1.9-1.7,3.8-2.5,5.6c-0.1,0.2,0,0.4,0.1,0.6c1.1,1.6,1.3,3.4,0.6,5.2c-0.4,1.1-0.7,2.2-1,3.3
			c-0.1,0.5-0.3,1-0.2,1.5c0.5,4.4,1.1,8.9,1.7,13.3c0,0.4,0.1,0.8,0.3,1.1C253.3,444.1,254.4,444.9,255.3,445.8z M205.2,384.9
			c0.8-1.8,0.3-5.3-0.9-6.6c-1.2,0.5-2.5,0.4-3.8,0.4c-1.6,0-3.3,0-4.9,0c-1.3,0.1-2.7,0.3-3.8,1c-0.6,0.4-1.2,0.8-1.5,1.4
			c-0.8,1.7-0.6,3.4-0.3,5.2c0.3-0.3,0.6-0.6,0.6-1c0.1-0.8,0.7-1.1,1.4-1.2c2.3-0.3,4.6-0.6,6.9-1c1.1-0.2,2.2-0.5,3.3-0.9
			c0.8-0.4,1.1-0.4,1.6,0.4C204.2,383.3,204.7,384.1,205.2,384.9z M245.4,392c0.1,0,0.1-0.1,0.2-0.1c-0.1-1-0.1-2.1-0.2-3.1
			c-0.4-2.6-1.7-4.6-4.2-5.7c-0.6-0.3-1.2-0.5-1.8,0.2c-0.7,0.7-1.6,0.7-2.6,0.6c0,0.1,0,0.2,0,0.2c-0.2,1.7-1.5,2.6-3.1,2.3
			c-0.5-0.1-0.9,0.1-1.2,0.5c-0.5,0.7-1.2,1.2-2,1.4c-0.1,0-0.3,0.2-0.4,0.3c-0.4,1.3-0.4,2.6-0.1,3.9c0.1,0,0.2,0,0.3,0
			c0.5-0.2,1-0.3,1.5-0.6c2.9-1.4,5.2-3.5,7.2-5.9c0.7-0.9,1.3-0.8,1.8,0.2c0.8,1.7,1.8,3.2,3.2,4.5
			C244.4,391.3,244.9,391.6,245.4,392z M196.9,428.6c0,0,0.1,0,0.1,0c0-0.2,0.1-0.4,0.1-0.6c0.7-3.8,1.5-7.6,2.2-11.4
			c0.1-0.3,0.1-0.6,0-0.9c-0.7-2.3-1.4-4.7-2.2-7c0-0.1-0.1-0.2-0.2-0.3c-0.8,2.6-1.5,5-2.3,7.5c0,0.2,0,0.4,0,0.5
			C195.4,420.5,196.2,424.5,196.9,428.6z M199.3,426.1c0,0,0.1,0,0.1,0c0.1-0.1,0.1-0.3,0.2-0.4c1.7-3.8,3.3-7.5,5-11.3
			c0.6-1.2,0.7-2.2-0.1-3.3c-0.2-0.2-0.3-0.5-0.4-0.8c-0.3-0.7-0.3-0.9,0.2-1.4c0.6-0.5,1.2-1,1.8-1.6c-0.5-0.5-0.9-0.9-1.4-1.3
			c-0.4-0.4-0.9-0.8-1.4-1.3C202,411.9,200.7,419,199.3,426.1z M194.6,425.9c0,0,0.1,0,0.1,0c-1.3-7.1-2.6-14.1-4-21.3
			c-0.9,1-1.7,1.9-2.6,2.8c0.4,0.4,1,0.9,1.5,1.4c0.7,0.6,0.7,0.8,0.3,1.6c-0.3,0.6-0.6,1.2-1,1.8c-0.2,0.4-0.2,0.7,0,1.1
			c1.3,3,2.7,6,4,9C193.6,423.5,194.1,424.7,194.6,425.9z M229.2,396.3c-0.5,3.6-1,7-1.5,10.5c1.6-0.4,3.2-0.7,4.7-1.1
			c0.1,0,0.3-0.3,0.3-0.5c0.1-1,0.1-2,0.2-2.9c0-0.2-0.1-0.5-0.2-0.6c-0.8-1.2-1.7-2.4-2.5-3.6C229.8,397.6,229.6,397,229.2,396.3z
			 M247.3,406.7c-0.5-3.3-0.9-6.4-1.4-9.7c-0.1,0.1-0.2,0.2-0.2,0.2c-0.8,1.7-1.8,3.3-3.2,4.7c-0.1,0.1-0.2,0.3-0.2,0.5
			c0,1,0.1,1.9,0.2,2.9c0,0.1,0.2,0.4,0.3,0.4C244.3,406.1,245.7,406.4,247.3,406.7z M193.1,398.9c-0.2,1-0.1,1.8,0.7,2.5
			c0.6,0.5,1,1,1.5,1.6c0.1,0.1,0.3,0.3,0.4,0.3c1.4-0.1,3,0.5,4-1.1c0.3-0.5,0.8-0.8,1.2-1.2c0.7-0.5,0.6-1.2,0.6-2
			C198.6,401.7,195.9,401.3,193.1,398.9z M234.2,384.9c0.7,0,1.1-0.6,0.8-1.2c-0.4-0.8-0.3-0.9,0.3-1.4c0.3-0.3,0.5-0.6,0.3-1
			c-0.2-0.4-0.5-0.6-0.9-0.5c-0.7,0.2-1,0-1.2-0.7c-0.1-0.5-0.4-0.8-0.9-0.7c-0.5,0.1-0.7,0.4-0.7,0.9c0,0.6-0.3,0.9-0.9,0.9
			c-0.5,0-0.9,0.1-1,0.6c-0.1,0.5,0.2,0.8,0.6,0.9c0.5,0.2,0.7,0.6,0.5,1.1c-0.2,0.4-0.2,0.8,0.3,1.1c0.4,0.3,0.8,0.1,1.1-0.2
			c0.4-0.4,0.8-0.4,1.2-0.1C233.9,384.8,234.1,384.8,234.2,384.9z M249.7,409c0,0.2,0,0.4,0,0.5c-0.1,1.4-0.1,2.7-0.2,4.1
			c-0.1,1-0.2,1.9-0.3,2.8c0,0.2,0,0.5,0,0.8c0,0,0.1,0,0.1-0.1c1.2-2.5,2.4-5,3.5-7.4C251.8,409.5,250.8,409.3,249.7,409z
			 M225.6,409c-1,0.2-2,0.5-3,0.7c1.2,2.5,2.4,5,3.5,7.5c0,0,0.1-0.1,0.1-0.1C226.1,414.5,225.9,411.8,225.6,409z M200.1,412.5
			c0,0,0.1,0,0.1,0c0.3-1.6,0.6-3.2,0.9-4.8c0-0.1,0-0.4-0.1-0.4c-0.7-0.7-1.5-1.4-2.2-2.2c-0.1,1.1-0.4,2.2,0,3.3
			c0.4,1,0.7,2.1,1,3.1C199.8,411.8,200,412.1,200.1,412.5z M193.9,412.2c0,0,0.1,0,0.1,0c0.1-0.2,0.1-0.3,0.2-0.5
			c0.4-1.2,0.7-2.3,1.1-3.5c0.4-1,0.2-2,0-3c-0.7,0.7-1.4,1.4-2.1,2.1c-0.1,0.1-0.1,0.3-0.1,0.4
			C193.3,409.2,193.6,410.7,193.9,412.2z M225,441.1c0,0,0.1,0,0.1,0.1c0.4-0.5,0.9-1.1,1.3-1.6c0.2-0.3,0.4-0.7,0.3-1
			c0-1.5-0.1-3-0.2-4.4c0-0.6-0.2-1.2-0.3-1.8c-0.1,0-0.1,0-0.2,0C225.8,435.2,225.4,438.2,225,441.1z M236.2,379.5
			c1.1,1,1.2,1.3,1.2,2.8c0.8,0.1,1.5-0.3,1.8-1.1c0.3-0.8,0-1.6-0.7-2.1C237.7,378.7,236.8,378.8,236.2,379.5z M230.5,386.4
			c-0.8-0.9-0.8-0.9-1.1-2.3c-0.1-0.3-0.3-0.5-0.6-0.7c-0.1-0.1-0.4,0.2-0.5,0.3c-0.6,0.6-0.6,1.6-0.1,2.3
			C228.8,386.8,229.7,386.9,230.5,386.4z M249.4,434.4c0,0-0.1,0-0.1,0c-0.2,1.2-0.4,2.4-0.5,3.7c-0.1,0.7,0.8,2.1,1.5,2.4
			C249.9,438.5,249.7,436.4,249.4,434.4z M192.4,402.5c-0.3,1,0.1,1.9,0.3,2.8c0.5-0.5,0.9-0.9,1.3-1.3
			C193.5,403.5,193,403.1,192.4,402.5z M201.5,405.4c0.1-1,0.5-1.9,0.3-2.9c-0.6,0.6-1.1,1.1-1.6,1.5
			C200.7,404.5,201.1,404.9,201.5,405.4z"/>
		
			<pattern  id="SVGID_00000095299195083603288470000017369262172793114293_" xlink:href="#Nueva_muestra_de_motivo_1" patternTransform="matrix(1 0 0 1 48.6995 25.335)">
		</pattern>
		
			<pattern  id="SVGID_00000003794865243897465000000011719352648661290930_" xlink:href="#Nueva_muestra_de_motivo_1" patternTransform="matrix(1 0 0 1 -32.2762 -95.1582)">
		</pattern>
		
			<path style="fill:url(#SVGID_00000095299195083603288470000017369262172793114293_);stroke:url(#SVGID_00000003794865243897465000000011719352648661290930_);stroke-width:0.3063;stroke-miterlimit:10;" d="
			M189.8,445c-1.1,0-2.2,0-3.2,0c-0.7,0-1-0.3-1-0.9c0-0.5,0.4-0.8,1-0.8c2.2,0,4.3,0,6.5,0c0.7,0,1,0.4,1,0.9c0,0.5-0.4,0.8-1,0.8
			C192,445,190.9,445,189.8,445z"/>
		
			<pattern  id="SVGID_00000156566503092559917920000010790149077315883947_" xlink:href="#Nueva_muestra_de_motivo_1" patternTransform="matrix(1 0 0 1 48.6995 25.335)">
		</pattern>
		
			<pattern  id="SVGID_00000160904827926888585140000016214193585067726773_" xlink:href="#Nueva_muestra_de_motivo_1" patternTransform="matrix(1 0 0 1 -32.2762 -95.1582)">
		</pattern>
		
			<path style="fill:url(#SVGID_00000156566503092559917920000010790149077315883947_);stroke:url(#SVGID_00000160904827926888585140000016214193585067726773_);stroke-width:0.3063;stroke-miterlimit:10;" d="
			M204.5,445c-1.1,0-2.2,0-3.2,0c-0.6,0-1-0.3-1-0.8c0-0.5,0.4-0.9,1-0.9c2.2,0,4.3,0,6.5,0c0.7,0,1,0.3,1,0.9c0,0.5-0.4,0.8-1,0.8
			C206.7,445,205.6,445,204.5,445z"/>
		<path class="st8" d="M237.7,420.6c-2.4-3.5-5.4-5.3-9.8-4.3c-0.1-0.8-0.3-1.7-0.3-2.5c-0.1-1.6-0.1-3.2-0.2-4.8
			c0-0.4,0.1-0.6,0.5-0.6c1.8-0.4,3.6-0.8,5.4-1.2c0.7-0.2,0.9-0.4,0.9-1.1c0-0.9,0.1-1.8,0.2-2.8c2.1,1.3,4.1,1.4,6.3,0.1
			c0.1,1,0.1,1.8,0.2,2.7c0,0.8,0.2,1,1,1.2c2,0.5,4,0.9,6.2,1.4c-0.2,2.6-0.3,5.1-0.5,7.7C243.2,415.3,240.1,417.1,237.7,420.6z"/>
		
			<pattern  id="SVGID_00000168106173645911601490000012931359619430109585_" xlink:href="#Nueva_muestra_de_motivo_1" patternTransform="matrix(1 0 0 1 -32.2762 -95.1582)">
		</pattern>
		
			<path style="fill:#FFFFFF;stroke:url(#SVGID_00000168106173645911601490000012931359619430109585_);stroke-width:0.3063;stroke-miterlimit:10;" d="
			M202.6,384c0.6,1,1.3,2,1.9,3.1c0.2,0.3,0.1,0.8,0.1,1.2c0,0.4,0.1,0.7,0.4,1c0.2,0.2,0.3,0.5,0.4,0.8c0.2,1.3-0.5,2.4-1.7,2.9
			c-0.3,0.1-0.5,0.5-0.6,0.8c-0.7,1.5-1.6,2.9-2.8,4.1c-1.9,1.7-3.8,1.8-5.7,0.2c-1.4-1.1-2.3-2.6-2.9-4.3c-0.2-0.5-0.4-0.8-0.9-1
			c-0.9-0.4-1.5-2.2-1.1-3.2c0-0.1,0.1-0.2,0.1-0.2c1.1-0.9,1.6-2.2,2.4-3.3c0.1-0.2,0.3-0.3,0.5-0.4c2.2-0.3,4.4-0.6,6.6-1
			C200.4,384.6,201.5,384.3,202.6,384z"/>
		<path class="st8" d="M239.6,387.9c1.4,2.4,2.9,4.7,5.6,5.8c-0.4,1.5-1,2.8-1.7,4.2c-0.9,1.5-1.9,2.9-3.3,3.9
			c-1.8,1.3-3.3,1.3-5.1,0c-2-1.5-4.3-5-4.7-7.4C234.1,393.2,237,390.7,239.6,387.9z"/>
		<path class="st8" d="M220.1,445.7c0.1-2.7,0.2-5.2,0.2-7.8c0.1-4.2,0.3-8.5,0.4-12.7c0.1-3.8,0.2-7.6,0.4-11.3
			c0-0.7,0.3-1.3,0.5-2c0.1,0,0.1,0,0.2,0c0.3,0.6,0.7,1.2,0.9,1.8c0.6,1.4,1.2,2.9,1.8,4.3c0.1,0.2,0,0.6-0.1,0.8
			c-1.1,1.7-1.4,3.4-0.5,5.2c1.2,2.3,1.1,4.7,0.7,7.2c-0.6,3.8-1,7.6-1.5,11.4c0,0.3-0.3,0.7-0.5,0.9
			C221.8,444.3,221,445,220.1,445.7z"/>
		<path class="st8" d="M255.3,445.8c-1-0.9-2-1.7-2.9-2.6c-0.2-0.2-0.3-0.7-0.3-1.1c-0.6-4.4-1.2-8.9-1.7-13.3
			c-0.1-0.5,0.1-1,0.2-1.5c0.3-1.1,0.6-2.2,1-3.3c0.7-1.9,0.5-3.6-0.6-5.2c-0.1-0.2-0.2-0.4-0.1-0.6c0.8-1.9,1.6-3.8,2.5-5.6
			c0,0,0.1-0.1,0.2-0.1c0.6,0.9,0.8,1.9,0.8,3c0.2,5.3,0.3,10.6,0.5,15.9c0.2,4.6,0.3,9.2,0.5,13.9c0,0.3,0,0.6,0,0.8
			C255.3,445.9,255.3,445.9,255.3,445.8z"/>
		<path class="st8" d="M205.2,384.9c-0.5-0.8-1-1.6-1.5-2.3c-0.5-0.8-0.8-0.7-1.6-0.4c-1,0.4-2.2,0.7-3.3,0.9
			c-2.3,0.4-4.6,0.7-6.9,1c-0.7,0.1-1.3,0.4-1.4,1.2c-0.1,0.4-0.4,0.7-0.6,1c-0.3-1.8-0.5-3.6,0.3-5.2c0.3-0.6,0.9-1,1.5-1.4
			c1.1-0.7,2.5-0.9,3.8-1c1.6-0.1,3.3,0,4.9,0c1.3,0,2.6,0.1,3.8-0.4C205.5,379.6,206,383.1,205.2,384.9z"/>
		<path class="st8" d="M245.4,392c-0.5-0.4-1.1-0.8-1.6-1.2c-1.4-1.3-2.3-2.9-3.2-4.5c-0.5-1-1.1-1.1-1.8-0.2
			c-2,2.4-4.3,4.5-7.2,5.9c-0.5,0.2-1,0.4-1.5,0.6c-0.1,0-0.2,0-0.3,0c-0.3-1.3-0.2-2.6,0.1-3.9c0-0.1,0.2-0.3,0.4-0.3
			c0.8-0.2,1.5-0.7,2-1.4c0.3-0.4,0.7-0.6,1.2-0.5c1.7,0.4,2.9-0.6,3.1-2.3c0-0.1,0-0.1,0-0.2c0.9,0.1,1.9,0,2.6-0.6
			c0.6-0.6,1.2-0.4,1.8-0.2c2.5,1.1,3.8,3.1,4.2,5.7c0.2,1,0.2,2,0.2,3.1C245.6,391.9,245.5,392,245.4,392z"/>
		<path class="st8" d="M196.9,428.6c-0.7-4.1-1.5-8.1-2.2-12.2c0-0.2-0.1-0.4,0-0.5c0.7-2.5,1.5-4.9,2.3-7.5
			c0.1,0.2,0.2,0.2,0.2,0.3c0.7,2.3,1.5,4.7,2.2,7c0.1,0.3,0.1,0.6,0,0.9c-0.7,3.8-1.4,7.6-2.2,11.4c0,0.2-0.1,0.4-0.1,0.6
			C197,428.6,197,428.6,196.9,428.6z"/>
		<path class="st8" d="M199.3,426.1c1.3-7.1,2.7-14.2,4-21.4c0.5,0.5,1,0.9,1.4,1.3c0.4,0.4,0.9,0.9,1.4,1.3
			c-0.6,0.6-1.2,1.1-1.8,1.6c-0.5,0.5-0.6,0.8-0.2,1.4c0.1,0.3,0.2,0.6,0.4,0.8c0.9,1.1,0.7,2.1,0.1,3.3c-1.7,3.7-3.3,7.5-5,11.3
			c-0.1,0.1-0.1,0.3-0.2,0.4C199.4,426.1,199.4,426.1,199.3,426.1z"/>
		<path class="st8" d="M194.6,425.9c-0.5-1.2-1.1-2.4-1.6-3.6c-1.3-3-2.6-6-4-9c-0.2-0.4-0.2-0.7,0-1.1c0.3-0.6,0.6-1.2,1-1.8
			c0.4-0.8,0.4-1-0.3-1.6c-0.6-0.5-1.1-1-1.5-1.4c0.9-0.9,1.7-1.8,2.6-2.8c1.3,7.2,2.6,14.2,4,21.3
			C194.7,425.9,194.7,425.9,194.6,425.9z"/>
		<path class="st8" d="M229.2,396.3c0.4,0.7,0.6,1.3,0.9,1.8c0.8,1.2,1.6,2.4,2.5,3.6c0.1,0.2,0.3,0.4,0.2,0.6c0,1-0.1,2-0.2,2.9
			c0,0.2-0.2,0.5-0.3,0.5c-1.5,0.4-3.1,0.7-4.7,1.1C228.2,403.3,228.7,399.9,229.2,396.3z"/>
		<path class="st8" d="M247.3,406.7c-1.5-0.3-3-0.7-4.4-1c-0.1,0-0.3-0.3-0.3-0.4c-0.1-1-0.2-1.9-0.2-2.9c0-0.2,0.1-0.4,0.2-0.5
			c1.3-1.4,2.3-3,3.2-4.7c0,0,0.1-0.1,0.2-0.2C246.3,400.3,246.8,403.5,247.3,406.7z"/>
		<path class="st8" d="M193.1,398.9c2.8,2.3,5.6,2.7,8.4,0.1c0.1,0.8,0.2,1.5-0.6,2c-0.5,0.3-0.9,0.7-1.2,1.2c-1,1.5-2.6,1-4,1.1
			c-0.1,0-0.3-0.2-0.4-0.3c-0.5-0.5-1-1.1-1.5-1.6C192.9,400.8,192.9,399.9,193.1,398.9z"/>
		<path class="st8" d="M234.2,384.9c-0.1,0-0.3-0.1-0.4-0.2c-0.4-0.3-0.8-0.3-1.2,0.1c-0.3,0.3-0.7,0.5-1.1,0.2
			c-0.4-0.3-0.4-0.6-0.3-1.1c0.2-0.5,0-0.9-0.5-1.1c-0.4-0.2-0.7-0.4-0.6-0.9c0.1-0.5,0.5-0.6,1-0.6c0.6,0,0.9-0.3,0.9-0.9
			c0-0.5,0.2-0.8,0.7-0.9c0.5-0.1,0.8,0.2,0.9,0.7c0.2,0.7,0.5,0.9,1.2,0.7c0.5-0.1,0.8,0.1,0.9,0.5c0.2,0.4,0,0.7-0.3,1
			c-0.7,0.5-0.7,0.6-0.3,1.4C235.3,384.3,234.9,384.9,234.2,384.9z M233.1,381.7c-0.1,0-0.2,0-0.3,0c-0.2,0.3-0.5,0.5-0.5,0.8
			c0,0.2,0.4,0.6,0.7,0.6c0.4,0.1,0.7-0.2,0.6-0.6C233.5,382.1,233.2,381.9,233.1,381.7z"/>
		<path class="st8" d="M249.7,409c1.1,0.3,2.1,0.5,3.1,0.7c-1.2,2.5-2.4,5-3.5,7.4c0,0-0.1,0-0.1,0.1c0-0.3-0.1-0.5,0-0.8
			c0.1-0.9,0.3-1.9,0.3-2.8c0.1-1.4,0.1-2.7,0.2-4.1C249.6,409.4,249.7,409.2,249.7,409z"/>
		<path class="st8" d="M225.6,409c0.2,2.7,0.5,5.4,0.7,8.1c0,0-0.1,0.1-0.1,0.1c-1.2-2.5-2.4-5-3.5-7.5
			C223.6,409.5,224.7,409.3,225.6,409z"/>
		<path class="st8" d="M200.1,412.5c-0.1-0.3-0.2-0.7-0.3-1c-0.3-1-0.6-2.1-1-3.1c-0.4-1.1-0.1-2.2,0-3.3c0.8,0.7,1.5,1.4,2.2,2.2
			c0.1,0.1,0.1,0.3,0.1,0.4c-0.3,1.6-0.6,3.2-0.9,4.8C200.2,412.5,200.1,412.5,200.1,412.5z"/>
		<path class="st8" d="M193.9,412.2c-0.3-1.5-0.6-3-0.8-4.5c0-0.1,0-0.3,0.1-0.4c0.7-0.7,1.4-1.4,2.1-2.1c0.2,1,0.4,2,0,3
			c-0.4,1.1-0.7,2.3-1.1,3.5c-0.1,0.2-0.1,0.3-0.2,0.5C194,412.2,193.9,412.2,193.9,412.2z"/>
		<path class="st8" d="M225,441.1c0.4-2.9,0.8-5.9,1.1-8.8c0.1,0,0.1,0,0.2,0c0.1,0.6,0.2,1.2,0.3,1.8c0.1,1.5,0.2,3,0.2,4.4
			c0,0.3-0.1,0.8-0.3,1c-0.4,0.6-0.9,1.1-1.3,1.6C225.1,441.2,225.1,441.2,225,441.1z"/>
		<path class="st8" d="M236.2,379.5c0.7-0.7,1.5-0.8,2.2-0.4c0.7,0.4,1,1.3,0.7,2.1c-0.3,0.8-1,1.2-1.8,1.1
			C237.4,380.8,237.2,380.5,236.2,379.5z"/>
		<path class="st8" d="M230.5,386.4c-0.8,0.5-1.7,0.3-2.3-0.3c-0.5-0.7-0.5-1.7,0.1-2.3c0.1-0.1,0.5-0.4,0.5-0.3
			c0.2,0.2,0.5,0.4,0.6,0.7C229.7,385.6,229.7,385.6,230.5,386.4z"/>
		<path class="st8" d="M249.4,434.4c0.3,2,0.5,4.1,0.8,6.1c-0.7-0.3-1.5-1.7-1.5-2.4c0.2-1.2,0.4-2.4,0.5-3.7
			C249.3,434.4,249.4,434.4,249.4,434.4z"/>
		<path class="st8" d="M192.4,402.5c0.6,0.6,1.1,1,1.6,1.5c-0.4,0.4-0.9,0.8-1.3,1.3C192.5,404.4,192,403.5,192.4,402.5z"/>
		<path class="st8" d="M201.5,405.4c-0.5-0.5-0.9-0.9-1.3-1.4c0.5-0.5,1-0.9,1.6-1.5C202.1,403.5,201.6,404.4,201.5,405.4z"/>
		
			<pattern  id="SVGID_00000154412537024605982700000015709614923416063153_" xlink:href="#Nueva_muestra_de_motivo_1" patternTransform="matrix(1 0 0 1 48.6995 25.335)">
		</pattern>
		<path style="fill:url(#SVGID_00000154412537024605982700000015709614923416063153_);" d="M233.1,381.7c0.2,0.2,0.5,0.5,0.5,0.7
			c0.1,0.4-0.3,0.7-0.6,0.6c-0.3,0-0.6-0.4-0.7-0.6c0-0.2,0.3-0.5,0.5-0.8C232.9,381.7,233,381.7,233.1,381.7z"/>
	</g>
</g>
<g>
	<g>
		<path class="st11" d="M84.2,214.9c-5.5,3.8-13.2,5.8-21,2.4c-13.5-5.7-10.1-24.5-2.6-33.9c-0.9-3.3-1.3-8.4-0.2-12.4
			c0.2-0.9,1.3-1.2,1.1,0.3c-0.6,3.4-0.1,7.3,0.4,10.3c5.8-7.5,13.9-10.8,22.4-9.9c21,2.4,13.4,28.3-8.8,25.1
			c-5.6-0.8-10.6-3.3-13.4-9.2c-1.9,2.5-10.8,24.4,3.2,28.7c5.8,1.7,12.7,0.9,18.1-2.3c4.7-2.8,6.6-6.3,8.8-10.9
			c0.4-0.9,1.2-0.5,0.6,0.5C90.6,208.4,88.8,211.7,84.2,214.9z M63.2,185.9c2.4,6.2,7.2,9,13.1,9.6c19.5,2.2,24.3-19.5,8.5-21.7
			C76.8,172.6,68.5,177.7,63.2,185.9z"/>
		<path class="st11" d="M102.7,213.1c-1.6,0-2.8-0.6-3.5-1.4c-1.5,1.1-3.1,1.9-4.7,1.8c-4.1-0.1-4.7-5-2.6-9.8
			c2.1-5,6.6-9.2,10.3-9.1c4.1,0.1,4.7,5,2.6,9.8c-0.8,1.9-2.5,4.4-4.5,6.4c0.4,0.8,1.2,1.3,2.5,1.3c3.5,0,6.3-6.7,7.6-9.3
			c0.3-0.5,1.2-0.3,0.8,0.5C110.2,205.5,107.2,213.1,102.7,213.1z M95.6,203.5c-2.1,4.4-2.6,8.2-0.6,8.8c1,0.3,2.4-0.3,3.7-1.3
			c-0.6-0.9-0.9-1.8-0.9-2.6c0.1-1.2,0.5-2.3,1.9-2.3c0.9,0,1.6,0.8,1.6,1.6c0,0.2-0.1,0.4-0.1,0.6c0.6-0.9,1.2-1.9,1.7-2.9
			c2.1-4.4,2.4-8.3,0.4-8.8C101,195.8,97.6,199.3,95.6,203.5z"/>
		<path class="st11" d="M120.2,213.8c-1.9,0-4.5-1.3-2.9-6.3c0.4-1.4,1.5-3.2,3-5.7c1.3-2.1,0.3-3.6-3.8,0.3
			c-1.8,1.7-4.5,4.7-7.5,10.7c-0.4,0.8-0.9,0.8-2.1,0.8c-0.8,0.1-1.3,0-1.8,0.3c2.6-5.1,4.8-10.3,7.4-15.1c1.4-2.6,2.1-3.5,3.8-3.4
			c0.7,0.1,1.5,0.4,2.3,0.2c-1.6,0.9-4.6,6.3-6.5,10.1c1.1-1.3,2.8-3.4,4.5-4.9c2.6-2.3,8.1-5.7,10-5.1c0,0-5.8,10.1-6.5,13.9
			c-0.4,2.2,0.2,2.7,0.9,2.7c2.8,0,6.3-7.1,7.4-9.3c0.4-1,1.3-0.6,0.8,0.5C127.5,206.9,124.4,213.8,120.2,213.8z"/>
		<path class="st11" d="M129.1,207.8c0.7,0.9,1.3,2.2,1.7,4l0.2,0.7c3.2,0.2,6.3-5.8,8.1-9.5c0.4-0.7,1.2-0.4,0.8,0.4
			c-2,4.5-5,10.2-8.8,10.2c0.6,7.6-3.5,19-9.3,18.7c-1.5-0.1-2.8-0.6-2.8-2.8c-0.1-3.5,2.4-10,5.6-17.5c-1.1-1.7-0.6-4,0.4-4.8
			c0.5-0.4,1.2-0.7,1.9-0.6c3.9-8.7,8.1-17.5,11.1-23c1.2-2.3,2.3-3.8,4.6-3.8c0.6,0,1.6,0.4,2.4,0.3
			C141.5,183.2,134.5,195.7,129.1,207.8z M126.8,213c-1.9,4.7-3.6,9.8-4.5,13.3c-1.5,6.3,1,5.2,3.1,2.4c2.6-3.5,4.6-10.1,4.5-14.9
			C128.9,213.9,127.5,213.6,126.8,213z M129.3,210.4c-0.2-0.5-0.5-1-0.8-1.3l-1.2,2.7c0.3,0.6,1.2,1,2.2,1h0.3
			C129.8,211.9,129.6,211.1,129.3,210.4z"/>
		<path class="st11" d="M140.9,212.4c0.8,0.1,1.8-0.5,2.4-1c1.8-1.8,3.6-5.1,5.1-8.1c0.4-1,1.2-0.6,0.7,0.5c-1.4,3-4.5,9.9-8.5,9.9
			c-4,0-4-4.2-2.9-7l3.5-8.8c0.4-1-0.3-2-0.5-2.3l3-0.1c1.7,0,1.7,0.6,1.1,1.9l-4.3,10.1c0,0-0.5,1.2-0.6,1.6
			C139.3,210.8,139.4,212.3,140.9,212.4z M144.8,193.2c-1.2,0-2-1-1.9-2.2c0.2-1.2,1.4-2.2,2.6-2.2c1.2,0,2.1,1,1.9,2.2
			S146,193.2,144.8,193.2z"/>
		<path class="st11" d="M155.3,213.5c-1.8,0.4-5.1-1.2-3-6.8c0.8-2.2,2.8-5,3.3-6.4c0.8-1.8-1.1-2.5-4.2-2.5l-0.6,1.7
			c-1.3,3.4-3.9,9.4-6.5,11.9c-0.4,0.4-0.8-0.2-0.4-0.7c4.3-5.6,7.2-13.8,8.3-19.8c0.5-3,4-1.7,3.3,1.9c-0.3,1.5-2,3-3,3.6
			c2,0.1,4.8,0.1,7.4-0.2c0.4,0.8-0.5,2.8-1.1,4.2c-0.8,1.7-6.3,11.5-3.1,11.7c2.2,0.1,5.6-6.7,6.7-9c0.5-0.9,1.2-0.5,0.6,0.5
			C161.6,206.9,158.9,212.6,155.3,213.5z"/>
		<path class="st11" d="M181.7,213.8c-1.9,0-4.5-1.3-2.9-6.3c0.4-1.4,1.5-3.2,3-5.7c1.3-2.1,0.3-3.6-3.8,0.3
			c-2.3,2.2-6.9,8.2-7.6,11.4c-1.2,0-2-1.4-1.7-3c0.4-2.4,1.3-4.2,2.3-6.2c1.8-3.7,3.5-7.6-2.2-2.3c-1.8,1.7-4.4,4.6-7.4,10.5
			c-0.4,0.8-0.9,0.9-2.1,0.9c-0.8,0.1-1.2,0-1.8,0.3c2.6-5.1,4.7-10.1,7.3-15c1.4-2.6,2.1-3.5,3.8-3.4c0.7,0.1,1.5,0.4,2.3,0.2
			c-1.6,0.9-4.6,6.3-6.5,10.1c1.1-1.3,2.8-3.4,4.5-4.9c2.6-2.3,6-5.7,7.9-5.1c1,0.4,1.3,1.3,0.8,2.4c-1,2.3-2.6,4.9-3.9,7.6
			c1.1-1.3,2.9-3.4,4.5-4.9c2.6-2.3,8.2-5.7,10-5.1c0,0-5.7,10.1-6.5,13.9c-0.4,2.2,0.2,2.7,0.9,2.7c2.8,0,6.3-6.9,7.4-9.3
			c0.4-1,1.3-0.6,0.8,0.5C189,206.9,185.8,213.8,181.7,213.8z"/>
		<path class="st11" d="M201.3,213.7c-1.8,0.1-4.3-1.3-2.7-7c-0.9,1.4-2.3,3.6-3.9,5.1c-6.2,5.9-10.3-3.5-2.2-13.3
			c3.2-3.8,9.4-5.8,12.5-2.5c0.8,0.8,0.3,1.7-0.6,1.6c-0.6-2-2.6-2.4-4.6-1.3c-2.4,1.3-5.2,4.5-7.2,7.7c-0.4,0.8-1.9,3.4-2.2,5.4
			c-0.5,3.8,2.4,3.3,5,0.3c1.9-2.3,3.4-4.9,4.8-7.6c1.2-2.3,1.9-3.6,3.7-3.5c0.7,0.1,1.5,0.4,2.3,0.2c-1.1,1.1-4.3,6.8-5,10.1
			c-0.4,2.2-0.2,3.2,0.5,3.2c2.3,0.1,5.8-6.7,7-9.1c0.5-1,1.3-0.6,0.8,0.4C207.8,206.9,204.6,213.4,201.3,213.7z"/>
		<path class="st11" d="M215.6,213.5c-1.8,0.4-5.1-1.2-3-6.8c0.8-2.2,2.8-5,3.3-6.4c0.8-1.8-1.1-2.5-4.2-2.5l-0.6,1.7
			c-1.3,3.4-3.9,9.4-6.5,11.9c-0.4,0.4-0.8-0.2-0.4-0.7c4.3-5.6,7.2-13.8,8.3-19.8c0.5-3,4-1.7,3.3,1.9c-0.3,1.5-2,3-3,3.6
			c2,0.1,4.8,0.1,7.4-0.2c0.4,0.8-0.5,2.8-1.1,4.2c-0.8,1.7-6.3,11.5-3.1,11.7c2.2,0.1,5.6-6.7,6.7-9c0.5-0.9,1.2-0.5,0.6,0.5
			C221.9,206.9,219.1,212.6,215.6,213.5z"/>
		<path class="st11" d="M248.2,213.7c-1.8,0.1-4.3-1.3-2.7-7c-0.9,1.4-2.3,3.6-3.9,5.1c-6.2,5.9-10.3-3.5-2.2-13.3
			c3.2-3.8,9.4-5.8,12.5-2.5c0.8,0.8,0.3,1.7-0.6,1.6c-0.6-2-2.6-2.4-4.6-1.3c-2.4,1.3-5.2,4.5-7.2,7.7c-0.4,0.8-1.9,3.4-2.2,5.4
			c-0.5,3.8,2.4,3.3,5,0.3c1.9-2.3,3.4-4.9,4.8-7.6c1.2-2.3,1.9-3.6,3.7-3.5c0.7,0.1,1.5,0.4,2.3,0.2c-1.1,1.1-4.3,6.8-5,10.1
			c-0.4,2.2-0.2,3.2,0.5,3.2c2.3,0.1,5.8-6.7,7-9.1c0.5-1,1.3-0.6,0.8,0.4C254.7,206.9,251.4,213.4,248.2,213.7z"/>
		<path class="st11" d="M258.9,213.2c-0.8,0.3-1.5,0.5-2.2,0.5c-6.5,0-5.3-7.5-2.7-7.6c1.5-2.8,3.2-6.3,4.6-9.3
			c1-2.1,2.6-4.4,4.5-4.6c0.8-0.1,1.5,0,2,0.3c1,0.5,0.8,1.4-0.2,0.9c-0.5-0.2-1.2-0.3-1.7-0.1c-2.5,1.2-1.9,4.9-1.1,6.9
			c0.9,2.1,2.1,4,1.9,6.4c-0.1,2.1-1.7,4.6-3.8,6l0.4,0.1c1.8,0.3,3.5-0.9,4.9-2.5c1.2-1.5,2.9-4.9,4-7.1c0.3-0.5,1.1-0.2,0.8,0.3
			C268.3,207.8,265,215.1,258.9,213.2z M255.3,208.6c-1.7,1.7-1,4.3,1.1,4.3c0.4,0,0.8-0.1,1.1-0.2
			C256.3,211.9,255.4,210.6,255.3,208.6z M260,196.3c-1.5,2.9-3.8,7.6-5.1,10c0,0,1.2-0.1,1.1,1.7c-0.1,2,1,3.6,2.3,4.2
			c1.2-0.9,2.2-2.8,2.4-5.6C260.9,203.1,259.6,198.7,260,196.3z"/>
		<path class="st11" d="M271.2,212.4c0.8,0.1,1.8-0.5,2.4-1c1.8-1.8,3.6-5.1,5.1-8.1c0.4-1,1.2-0.6,0.7,0.5c-1.4,3-4.5,9.9-8.5,9.9
			c-4,0-4-4.2-2.9-7l3.5-8.8c0.4-1-0.3-2-0.5-2.3l3-0.1c1.7,0,1.7,0.6,1.1,1.9l-4.3,10.1c0,0-0.5,1.2-0.6,1.6
			C269.6,210.8,269.7,212.3,271.2,212.4z M275.1,193.2c-1.2,0-2.1-1-1.9-2.2c0.2-1.2,1.4-2.2,2.6-2.2c1.2,0,2.1,1,1.9,2.2
			S276.4,193.2,275.1,193.2z"/>
		<path class="st11" d="M282.1,213.2c-0.8,0.3-1.5,0.5-2.2,0.5c-6.5,0-5.3-7.5-2.7-7.6c1.5-2.8,3.2-6.3,4.6-9.3
			c1-2.1,2.6-4.4,4.5-4.6c0.8-0.1,1.5,0,2,0.3c1,0.5,0.8,1.4-0.2,0.9c-0.5-0.2-1.2-0.3-1.7-0.1c-2.5,1.2-1.9,4.9-1.1,6.9
			c0.9,2.1,2.1,4,1.9,6.4c-0.1,2.1-1.7,4.6-3.8,6l0.4,0.1c1.8,0.3,3.5-0.9,4.9-2.5c1.2-1.5,2.9-4.9,4-7.1c0.3-0.5,1.1-0.2,0.8,0.3
			C291.5,207.8,288.2,215.1,282.1,213.2z M278.5,208.6c-1.7,1.7-1,4.3,1.1,4.3c0.4,0,0.8-0.1,1.1-0.2
			C279.5,211.9,278.6,210.6,278.5,208.6z M283.2,196.3c-1.5,2.9-3.8,7.6-5.1,10c0,0,1.2-0.1,1.1,1.7c-0.1,2,1,3.6,2.3,4.2
			c1.2-0.9,2.2-2.8,2.4-5.6C284.1,203.1,282.8,198.7,283.2,196.3z"/>
		<path class="st11" d="M305.8,194.2h-3.1c-1.8,3.1-4,6-7.2,8.9c-0.5,1.4-1.2,5.5-1.2,5.5c-0.8,3.6,1.7,4.1,3.5,2.8
			c2.5-1.8,4.3-5.2,5.7-8.1c0.4-1,1.2-0.8,0.7,0.3c-2.4,5-3.3,6.4-5.3,8.4c-2.9,2.8-8.3,1.9-7.4-4c0.5-3.7,2.5-9.6,4.2-13.8h-2.8
			c-0.6,0-0.5-1.2,0.1-1.2h3.2c1.2-2.7,2.6-5.3,3.9-7.7c3.7-6.5,9.5-5.6,5.6,3c-0.8,1.6-1.5,3.1-2.3,4.6h2.6
			C306.4,193.1,306.3,194.2,305.8,194.2z M298.9,194.2c-1.1,2.6-2.2,5.3-2.9,7.2c2-2.1,3.9-4.6,5.4-7.2H298.9z M303.2,185.2
			c-1.3,1.8-2.5,4.8-3.8,7.9h2.7c1-1.8,1.9-3.7,2.7-5.5C305.8,185.3,306.6,180.5,303.2,185.2z"/>
		<path class="st11" d="M307.2,213.8c-2.7,0-5.1-1.8-5.2-5.2c-0.1-3.2,1.8-7.3,4.2-10.1c2.8-3.2,6.9-5.3,9.2-3.5
			c2,1.6,0.5,5.2-3,7.9c-1.7,1.2-5.2,2.4-6.6,2.4c-0.8,1.9-1.7,7.4,1.8,7.4c4.7,0,7.7-6.4,8.9-9.2c0.4-1,1.5-1.1,1,0.1
			C315.5,207.8,313.2,213.8,307.2,213.8z M309.4,199.3c-1.4,1.7-2.8,4.1-3.2,5.1c1,0,3.8-0.8,5.7-2.4
			C316.3,198.2,316,191.2,309.4,199.3z"/>
		<path class="st11" d="M326.6,213.8c-1.9,0-4.5-1.3-2.9-6.3c0.4-1.4,1.5-3.2,3-5.7c1.3-2.1,0.3-3.6-3.8,0.3
			c-1.8,1.7-4.5,4.7-7.5,10.7c-0.4,0.8-0.9,0.8-2,0.8c-0.8,0.1-1.3,0-1.8,0.3c2.6-5.1,4.8-10.3,7.4-15.1c1.4-2.6,2.1-3.5,3.8-3.4
			c0.7,0.1,1.5,0.4,2.3,0.2c-1.6,0.9-4.6,6.3-6.5,10.1c1.1-1.3,2.8-3.4,4.5-4.9c2.6-2.3,8.1-5.7,10-5.1c0,0-5.8,10.1-6.5,13.9
			c-0.4,2.2,0.2,2.7,0.9,2.7c2.8,0,6.3-7.1,7.4-9.3c0.4-1,1.3-0.6,0.8,0.5C333.9,206.9,330.7,213.8,326.6,213.8z"/>
		<path class="st11" d="M339.2,213.8c-8.5,0-5.7-9.7-1.8-14.9c2-2.7,4.6-4.3,7.2-4.3c2.7,0,4,1.5,3.7,3.7c-0.2,1.8-2.4,4-3.6,2.9
			c0.6-0.7,1.4-1.8,1.7-2.8c0.5-1.9-0.1-2.6-1.1-2.6c-1.9,0-4.3,2.5-5.8,4.6c-1,1.4-3,5.1-3,8.3c0,2.2,0.9,4.2,3.2,4.2
			c4.7,0,7.3-5.2,9.4-9.5c0.5-1,1.2-0.7,0.8,0.4C347.2,209.3,345.1,213.8,339.2,213.8z"/>
		<path class="st11" d="M350.6,212.4c0.8,0.1,1.8-0.5,2.4-1c1.8-1.8,3.6-5.1,5.1-8.1c0.4-1,1.2-0.6,0.7,0.5c-1.4,3-4.5,9.9-8.5,9.9
			c-4,0-4-4.2-2.9-7l3.5-8.8c0.4-1-0.3-2-0.5-2.3l3-0.1c1.7,0,1.7,0.6,1.1,1.9l-4.3,10.1c0,0-0.5,1.2-0.6,1.6
			C349,210.8,349.1,212.3,350.6,212.4z M354.5,193.2c-1.2,0-2.1-1-1.9-2.2c0.2-1.2,1.4-2.2,2.6-2.2c1.2,0,2.1,1,1.9,2.2
			S355.7,193.2,354.5,193.2z"/>
		<path class="st11" d="M369.6,213.7c-1.8,0.1-4.3-1.3-2.7-7c-0.9,1.4-2.3,3.6-3.9,5.1c-6.2,5.9-10.3-3.5-2.2-13.3
			c3.2-3.8,9.4-5.8,12.5-2.5c0.8,0.8,0.3,1.7-0.6,1.6c-0.6-2-2.6-2.4-4.6-1.3c-2.4,1.3-5.2,4.5-7.2,7.7c-0.4,0.8-1.9,3.4-2.2,5.4
			c-0.5,3.8,2.4,3.3,5,0.3c1.9-2.3,3.4-4.9,4.8-7.6c1.2-2.3,1.9-3.6,3.7-3.5c0.7,0.1,1.5,0.4,2.3,0.2c-1.1,1.1-4.3,6.8-5,10.1
			c-0.4,2.2-0.2,3.2,0.5,3.2c2.3,0.1,5.8-6.7,7-9.1c0.5-1,1.3-0.6,0.8,0.4C376.2,206.9,372.9,213.4,369.6,213.7z"/>
	</g>
</g>
<g>
	<g>
		<path class="st12" d="M69.8,274.9h-0.3l7.5-17.6l0.3-0.1l6.3,17.7h-2.1l-2-5.5h-7.3L69.8,274.9z M76.2,260l-3.9,9.1h7.2L76.2,260z
			"/>
		<path class="st12" d="M85.1,269.1c0-2.2,0.5-3.9,1.6-5.1c1.1-1.2,2.6-1.8,4.8-1.8c1.6,0,3.1,0.3,4.8,0.8v12.1c0,4-1.8,6-5.2,6
			c-1.9,0-3.5-0.6-4.9-1.9l0.2-0.2c1.4,1.2,3,1.8,4.7,1.8c2.3,0,3.5-1.9,3.5-5.8v-2.5c-0.3,0.6-0.8,1.1-1.6,1.6
			c-0.7,0.5-1.6,0.7-2.6,0.7C86.8,274.9,85.1,272.9,85.1,269.1z M90.3,274.8c1.1,0,2.1-0.3,2.9-0.9s1.2-1.2,1.3-1.8v-8.9
			c-1.2-0.5-2.2-0.8-3.1-0.8c-1.5,0-2.6,0.6-3.4,1.7c-0.8,1.2-1.1,2.8-1.1,4.9C86.9,272.9,88,274.8,90.3,274.8z"/>
		<path class="st12" d="M104.8,263.4v-0.5c-0.8,0.3-1.4,0.9-2.1,1.8c-0.6,0.9-0.9,1.8-1,2.6v7.6H100v-12.6h1.8v4
			c0.3-1,0.8-1.9,1.5-2.8c0.8-0.9,1.6-1.3,2.6-1.3h0.1c0.3,0,0.6,0.1,0.8,0.3c0.2,0.2,0.3,0.5,0.3,0.8c0,0.3-0.1,0.6-0.3,0.8
			c-0.2,0.2-0.5,0.3-0.8,0.3s-0.6-0.1-0.8-0.3C104.9,264,104.8,263.8,104.8,263.4z"/>
		<path class="st12" d="M119.3,274.9c-1.1,0-1.9-0.2-2.3-0.7c-0.4-0.4-0.6-0.7-0.6-1v-0.5c-0.8,1.5-2.1,2.2-3.9,2.2
			c-2.1,0-3.3-1-3.6-2.9c0-0.2-0.1-0.4-0.1-0.6c0-0.2,0-0.4,0.1-0.7c0.1-0.3,0.3-0.5,0.6-0.8c0.6-0.6,2-1,4.2-1.1
			c0.5-0.1,1-0.1,1.5-0.1s0.9,0,1.2,0.1v-4.2c0,0,0-0.1,0-0.2c0-0.1,0-0.3-0.1-0.6c-0.1-0.2-0.2-0.4-0.4-0.7s-0.4-0.4-0.8-0.6
			s-0.9-0.2-1.5-0.2s-1.3,0.1-2.2,0.3c-0.8,0.2-1.4,0.4-1.8,0.7l-0.1-0.2c1.5-0.7,3-1,4.6-1c1.7,0,2.9,0.3,3.4,0.9
			c0.4,0.5,0.7,1,0.7,1.5v8.4c0,0.5,0.1,0.9,0.3,1.1c0.2,0.3,0.4,0.4,0.6,0.4l0.3,0.1h0.8v0.2H119.3z M112.8,274.8
			c0.9,0,1.7-0.3,2.4-0.9c0.7-0.6,1.1-1.2,1.1-1.8v-3c-0.5,0-0.9-0.1-1.4-0.1c-0.5,0-0.9,0-1.4,0.1c-1.3,0.2-2.1,0.4-2.5,0.9
			c-0.4,0.4-0.6,1-0.6,1.7c0,0.1,0,0.3,0,0.5C110.7,273.9,111.5,274.8,112.8,274.8z"/>
		<path class="st12" d="M122,269.1c0-2.2,0.5-3.9,1.6-5.1c1.1-1.2,2.6-1.8,4.8-1.8c1,0,2,0.3,3,0.8v-6.9h1.8v17.1
			c0,0.5,0.1,0.9,0.3,1.1c0.2,0.3,0.4,0.4,0.6,0.4l0.3,0.1h0.8v0.2h-1.5c-0.7,0-1.2-0.2-1.6-0.5c-0.4-0.3-0.5-0.6-0.6-0.9l0-0.4
			v-0.4c-0.3,0.6-0.8,1.1-1.6,1.6s-1.6,0.7-2.6,0.7C123.8,274.9,122,272.9,122,269.1z M127.2,274.8c1.1,0,2.1-0.3,2.9-0.9
			s1.2-1.2,1.3-1.8v-8.9c-1.2-0.5-2.2-0.8-3.1-0.8c-1.5,0-2.6,0.6-3.4,1.7c-0.8,1.2-1.1,2.8-1.1,4.9
			C123.8,272.9,124.9,274.8,127.2,274.8z"/>
		<path class="st12" d="M138.2,268.8c0,2.1,0.4,3.6,1.1,4.6c0.7,1,1.7,1.5,2.9,1.5c1.7,0,3.2-0.3,4.5-0.8l0.1,0.2
			c-1.3,0.5-2.9,0.8-4.5,0.8c-1.7,0-3.1-0.5-4.1-1.5s-1.6-2.6-1.6-4.7s0.6-3.7,1.7-4.9s2.5-1.7,4.2-1.7c1.4,0,2.5,0.4,3.5,1.2
			c0.9,0.8,1.4,2,1.4,3.6c0,0.1,0,0.2,0,0.3h-9C138.2,267.8,138.2,268.3,138.2,268.8z M144.6,263.6c-0.6-0.8-1.4-1.2-2.3-1.2
			s-1.8,0.4-2.6,1.3s-1.2,2-1.4,3.5h7.2C145.5,265.6,145.2,264.4,144.6,263.6z"/>
		<path class="st12" d="M155.5,262.5c-1.2,0-2.2,0.6-3,1.7c-0.8,1.1-1.2,2.7-1.2,4.7s0.4,3.5,1.1,4.5c0.7,1,1.7,1.5,2.9,1.5
			c1.5,0,2.8-0.3,4-0.8l0.1,0.2c-1.2,0.5-2.6,0.8-4.2,0.8s-2.9-0.5-4-1.5s-1.6-2.6-1.6-4.7s0.6-3.7,1.7-4.9s2.5-1.7,4.2-1.7
			c1,0,1.8,0.2,2.7,0.7c0.8,0.4,1.4,1.1,1.8,2h-1.6c-0.3-0.8-0.6-1.4-1.1-1.8C156.7,262.7,156.1,262.5,155.5,262.5z"/>
		<path class="st12" d="M163.8,268.8c0,2.1,0.4,3.6,1.1,4.6c0.7,1,1.7,1.5,2.9,1.5c1.7,0,3.2-0.3,4.5-0.8l0.1,0.2
			c-1.3,0.5-2.9,0.8-4.5,0.8c-1.7,0-3.1-0.5-4.1-1.5s-1.6-2.6-1.6-4.7s0.6-3.7,1.7-4.9s2.5-1.7,4.2-1.7c1.4,0,2.5,0.4,3.5,1.2
			c0.9,0.8,1.4,2,1.4,3.6c0,0.1,0,0.2,0,0.3h-9C163.8,267.8,163.8,268.3,163.8,268.8z M170.2,263.6c-0.6-0.8-1.4-1.2-2.3-1.2
			s-1.8,0.4-2.6,1.3s-1.2,2-1.4,3.5h7.2C171.1,265.6,170.8,264.4,170.2,263.6z"/>
		<path class="st12" d="M189.7,265.2c0-1-0.1-1.7-0.4-2.2c-0.3-0.4-0.8-0.6-1.5-0.6c-1,0-1.9,0.4-2.7,1.3c-0.8,0.8-1.2,1.6-1.2,2.3
			v9h-1.8v-9.7c0-1-0.1-1.7-0.4-2.2c-0.3-0.4-0.8-0.6-1.7-0.6s-1.7,0.4-2.5,1.2c-0.8,0.8-1.2,1.6-1.3,2.2v9h-1.8v-12.6h1.8v2.8
			c0.3-0.7,0.8-1.4,1.5-2c0.7-0.6,1.5-0.9,2.4-0.9s1.6,0.1,2.1,0.2c0.5,0.2,0.9,0.4,1.1,0.7c0.2,0.3,0.4,0.6,0.4,0.9
			s0.1,0.6,0.1,1.1c0.3-0.7,0.8-1.4,1.5-2c0.7-0.6,1.5-0.9,2.3-0.9s1.5,0.1,1.9,0.2c0.5,0.1,0.9,0.3,1.1,0.5
			c0.2,0.2,0.4,0.4,0.6,0.7c0.1,0.3,0.2,0.6,0.2,0.8s0,0.5,0,0.9v7.9c0,0.5,0.1,0.9,0.3,1.1c0.2,0.3,0.4,0.4,0.6,0.4l0.3,0.1h0.8
			v0.2h-1.5c-0.7,0-1.2-0.2-1.6-0.5c-0.4-0.3-0.5-0.6-0.6-0.9l0-0.4V265.2z"/>
		<path class="st12" d="M200.5,275c-1.8,0-3.2-0.5-4.3-1.5s-1.7-2.6-1.7-4.7s0.6-3.7,1.7-4.9s2.6-1.7,4.4-1.7c1.8,0,3.2,0.5,4.3,1.5
			c1.1,1,1.7,2.6,1.7,4.7s-0.6,3.7-1.7,4.9C203.7,274.5,202.3,275,200.5,275z M200.7,262.5c-1.3,0-2.3,0.6-3.2,1.7
			c-0.8,1.1-1.3,2.7-1.3,4.7c0,2,0.4,3.5,1.2,4.5c0.8,1,1.8,1.5,3.1,1.5c1.3,0,2.3-0.6,3.2-1.7c0.8-1.1,1.3-2.7,1.3-4.7
			c0-2-0.4-3.5-1.2-4.5S201.9,262.5,200.7,262.5z"/>
		<path class="st12" d="M216.1,263.2c-0.3-0.2-0.7-0.4-1.3-0.6c-0.6-0.2-1-0.2-1.3-0.2s-0.5,0-0.5,0c-0.9,0-1.6,0.2-2,0.7
			s-0.6,0.9-0.6,1.5s0.2,1,0.5,1.4c0.4,0.4,0.8,0.7,1.3,0.9c0.5,0.2,1.1,0.4,1.7,0.7c0.6,0.3,1.2,0.5,1.7,0.8c0.5,0.3,1,0.7,1.3,1.2
			c0.4,0.5,0.5,1.2,0.5,2c0,0.8-0.3,1.5-0.8,2s-1.2,0.9-1.8,1.1c-0.7,0.2-1.4,0.3-2.2,0.3c-1.7,0-3-0.4-3.8-1.1l0.2-0.2
			c0.3,0.3,0.8,0.6,1.5,0.8c0.7,0.2,1.3,0.3,1.9,0.3c1,0,1.8-0.3,2.5-0.8c0.6-0.5,1-1.2,1-2c0-0.8-0.2-1.5-0.7-2
			c-0.5-0.5-1.1-0.9-1.8-1.2s-1.4-0.6-2.1-0.8c-0.7-0.3-1.3-0.7-1.8-1.2c-0.5-0.5-0.7-1.1-0.7-1.7s0.2-1.2,0.5-1.6
			c0.3-0.4,0.7-0.7,1.2-0.9c0.9-0.3,1.7-0.4,2.6-0.4c1.4,0,2.6,0.3,3.4,0.8L216.1,263.2z"/>
		<path class="st12" d="M228.1,269.1c0-2.2,0.5-3.9,1.6-5.1c1.1-1.2,2.6-1.8,4.8-1.8c1,0,2,0.3,3,0.8v-0.7h1.8v18.9h-1.8v-8.5
			c-0.3,0.6-0.8,1.1-1.6,1.6c-0.7,0.5-1.6,0.7-2.6,0.7C229.8,274.9,228.1,272.9,228.1,269.1z M233.3,274.8c1.1,0,2.1-0.3,2.9-0.9
			s1.2-1.2,1.3-1.8v-8.9c-1.2-0.5-2.2-0.8-3.1-0.8c-1.5,0-2.6,0.6-3.4,1.7c-0.8,1.2-1.1,2.8-1.1,4.9
			C229.9,272.9,231,274.8,233.3,274.8z"/>
		<path class="st12" d="M244.1,272c0,1.3,0.4,2.2,1.1,2.5c0.3,0.2,0.8,0.3,1.3,0.3c1.1,0,2-0.4,2.8-1.2c0.8-0.8,1.3-1.6,1.3-2.2v-9
			h1.8v10.8c0,0.5,0.1,0.9,0.3,1.1c0.2,0.3,0.4,0.4,0.6,0.4l0.3,0.1h0.8v0.2h-1.5c-0.7,0-1.2-0.2-1.6-0.5c-0.4-0.3-0.5-0.6-0.6-0.9
			l0-0.4v-1.1c-0.3,0.7-0.8,1.4-1.6,2c-0.8,0.6-1.6,0.9-2.5,0.9c-0.9,0-1.7-0.1-2.2-0.3c-0.6-0.2-1-0.4-1.2-0.7
			c-0.4-0.5-0.7-1.2-0.7-2v-9.7h1.8V272z"/>
		<path class="st12" d="M257.9,268.8c0,2.1,0.4,3.6,1.1,4.6c0.7,1,1.7,1.5,2.9,1.5c1.7,0,3.2-0.3,4.5-0.8l0.1,0.2
			c-1.3,0.5-2.9,0.8-4.5,0.8c-1.7,0-3.1-0.5-4.1-1.5c-1.1-1-1.6-2.6-1.6-4.7s0.6-3.7,1.7-4.9s2.5-1.7,4.2-1.7c1.4,0,2.5,0.4,3.5,1.2
			c0.9,0.8,1.4,2,1.4,3.6c0,0.1,0,0.2,0,0.3h-9C257.9,267.8,257.9,268.3,257.9,268.8z M264.3,263.6c-0.6-0.8-1.4-1.2-2.3-1.2
			c-1,0-1.8,0.4-2.6,1.3s-1.2,2-1.4,3.5h7.2C265.2,265.6,264.9,264.4,264.3,263.6z"/>
		<path class="st12" d="M277.8,262.4h1.8v3.1c0.3-0.8,0.8-1.5,1.6-2.2c0.8-0.7,1.6-1,2.6-1c3.4,0,5.1,2,5.1,6c0,4.5-2.2,6.8-6.6,6.8
			c-0.8,0-1.7-0.2-2.7-0.6v6.7h-1.8V262.4z M283.7,262.5c-1,0-2,0.4-2.8,1.3c-0.8,0.9-1.3,1.7-1.4,2.4v8c1,0.4,1.9,0.6,2.7,0.6
			c3.2,0,4.9-2.2,4.9-6.6C287.1,264.4,286,262.5,283.7,262.5z"/>
		<path class="st12" d="M293.3,272c0,1.3,0.4,2.2,1.1,2.5c0.3,0.2,0.8,0.3,1.3,0.3c1.1,0,2-0.4,2.8-1.2c0.8-0.8,1.3-1.6,1.3-2.2v-9
			h1.8v10.8c0,0.5,0.1,0.9,0.3,1.1c0.2,0.3,0.4,0.4,0.6,0.4l0.3,0.1h0.8v0.2h-1.5c-0.7,0-1.2-0.2-1.6-0.5c-0.4-0.3-0.5-0.6-0.6-0.9
			l0-0.4v-1.1c-0.3,0.7-0.8,1.4-1.6,2c-0.8,0.6-1.6,0.9-2.5,0.9s-1.7-0.1-2.2-0.3c-0.6-0.2-1-0.4-1.2-0.7c-0.4-0.5-0.7-1.2-0.7-2
			v-9.7h1.8V272z"/>
		<path class="st12" d="M307.1,268.8c0,2.1,0.4,3.6,1.1,4.6c0.7,1,1.7,1.5,2.9,1.5c1.7,0,3.2-0.3,4.5-0.8l0.1,0.2
			c-1.3,0.5-2.9,0.8-4.5,0.8c-1.7,0-3.1-0.5-4.1-1.5c-1.1-1-1.6-2.6-1.6-4.7s0.6-3.7,1.7-4.9s2.5-1.7,4.2-1.7c1.4,0,2.5,0.4,3.5,1.2
			c0.9,0.8,1.4,2,1.4,3.6c0,0.1,0,0.2,0,0.3h-9C307.1,267.8,307.1,268.3,307.1,268.8z M313.5,263.6c-0.6-0.8-1.4-1.2-2.3-1.2
			c-1,0-1.8,0.4-2.6,1.3s-1.2,2-1.4,3.5h7.2C314.4,265.6,314.1,264.4,313.5,263.6z"/>
		<path class="st12" d="M318.5,269.1c0-2.2,0.5-3.9,1.6-5.1c1.1-1.2,2.6-1.8,4.8-1.8c1,0,2,0.3,3,0.8v-6.9h1.8v17.1
			c0,0.5,0.1,0.9,0.3,1.1c0.2,0.3,0.4,0.4,0.6,0.4l0.3,0.1h0.8v0.2H330c-0.7,0-1.2-0.2-1.6-0.5s-0.5-0.6-0.6-0.9l0-0.4v-0.4
			c-0.3,0.6-0.8,1.1-1.6,1.6c-0.7,0.5-1.6,0.7-2.6,0.7C320.2,274.9,318.5,272.9,318.5,269.1z M323.7,274.8c1.1,0,2.1-0.3,2.9-0.9
			s1.2-1.2,1.3-1.8v-8.9c-1.2-0.5-2.2-0.8-3.1-0.8c-1.5,0-2.6,0.6-3.4,1.7c-0.8,1.2-1.1,2.8-1.1,4.9
			C320.3,272.9,321.4,274.8,323.7,274.8z"/>
		<path class="st12" d="M344.1,274.9c-1.1,0-1.9-0.2-2.3-0.7c-0.4-0.4-0.6-0.7-0.6-1v-0.5c-0.8,1.5-2.1,2.2-3.9,2.2
			c-2.1,0-3.3-1-3.6-2.9c0-0.2-0.1-0.4-0.1-0.6c0-0.2,0-0.4,0.1-0.7c0.1-0.3,0.3-0.5,0.6-0.8c0.6-0.6,2-1,4.2-1.1
			c0.5-0.1,1-0.1,1.5-0.1c0.5,0,0.9,0,1.2,0.1v-4.2c0,0,0-0.1,0-0.2c0-0.1,0-0.3-0.1-0.6c-0.1-0.2-0.2-0.4-0.4-0.7
			c-0.2-0.2-0.4-0.4-0.8-0.6c-0.4-0.2-0.9-0.2-1.5-0.2c-0.6,0-1.3,0.1-2.2,0.3c-0.8,0.2-1.4,0.4-1.8,0.7l-0.1-0.2c1.5-0.7,3-1,4.6-1
			c1.7,0,2.9,0.3,3.4,0.9c0.4,0.5,0.7,1,0.7,1.5v8.4c0,0.5,0.1,0.9,0.3,1.1c0.2,0.3,0.4,0.4,0.6,0.4l0.3,0.1h0.8v0.2H344.1z
			 M337.6,274.8c0.9,0,1.7-0.3,2.4-0.9c0.7-0.6,1.1-1.2,1.1-1.8v-3c-0.5,0-0.9-0.1-1.4-0.1c-0.5,0-0.9,0-1.4,0.1
			c-1.3,0.2-2.1,0.4-2.5,0.9c-0.4,0.4-0.6,1-0.6,1.7c0,0.1,0,0.3,0,0.5C335.5,273.9,336.3,274.8,337.6,274.8z"/>
		<path class="st12" d="M357.3,274.9c-0.7,0-1.2-0.2-1.6-0.5c-0.4-0.3-0.5-0.6-0.6-0.9l0-0.4v-7.9c0-1.3-0.3-2.2-1-2.5
			c-0.4-0.2-0.8-0.3-1.3-0.3c-1.1,0-2,0.4-2.9,1.3c-0.9,0.8-1.3,1.6-1.3,2.3v8.9h-1.8v-12.6h1.8v2.9c0.3-0.7,0.8-1.4,1.6-2
			c0.8-0.6,1.6-0.9,2.5-0.9s1.7,0.1,2.3,0.3c0.6,0.2,1,0.4,1.3,0.7c0.4,0.5,0.6,1.2,0.6,2v7.9c0,0.5,0.1,0.9,0.3,1.1
			c0.2,0.3,0.4,0.4,0.6,0.4l0.3,0.1h0.8v0.2H357.3z"/>
		<path class="st12" d="M60.6,292.6c-1.2,0-2.2,0.6-3,1.7c-0.8,1.1-1.2,2.7-1.2,4.7s0.4,3.5,1.1,4.5c0.7,1,1.7,1.5,2.9,1.5
			c1.5,0,2.8-0.3,4-0.8l0.1,0.2c-1.2,0.5-2.6,0.8-4.2,0.8s-2.9-0.5-4-1.5s-1.6-2.6-1.6-4.7s0.6-3.7,1.7-4.9s2.5-1.7,4.2-1.7
			c1,0,1.8,0.2,2.7,0.7c0.8,0.4,1.4,1.1,1.8,2h-1.6c-0.3-0.8-0.6-1.4-1.1-1.8C61.8,292.8,61.2,292.6,60.6,292.6z"/>
		<path class="st12" d="M72.9,305.2c-1.8,0-3.2-0.5-4.3-1.5s-1.7-2.6-1.7-4.7s0.6-3.7,1.7-4.9s2.6-1.7,4.4-1.7
			c1.8,0,3.2,0.5,4.3,1.5c1.1,1,1.7,2.6,1.7,4.7s-0.6,3.7-1.7,4.9C76.1,304.6,74.7,305.2,72.9,305.2z M73.1,292.6
			c-1.3,0-2.3,0.6-3.2,1.7c-0.8,1.1-1.3,2.7-1.3,4.7c0,2,0.4,3.5,1.2,4.5c0.8,1,1.8,1.5,3.1,1.5c1.3,0,2.3-0.6,3.2-1.7
			c0.8-1.1,1.3-2.7,1.3-4.7c0-2-0.4-3.5-1.2-4.5S74.3,292.6,73.1,292.6z"/>
		<path class="st12" d="M91.6,305.1c-0.7,0-1.2-0.2-1.6-0.5c-0.4-0.3-0.5-0.6-0.6-0.9l0-0.4v-7.9c0-1.3-0.3-2.2-1-2.5
			c-0.4-0.2-0.8-0.3-1.3-0.3c-1.1,0-2,0.4-2.9,1.3c-0.9,0.8-1.3,1.6-1.3,2.3v8.9h-1.8v-12.6h1.8v2.9c0.3-0.7,0.8-1.4,1.6-2
			c0.8-0.6,1.6-0.9,2.5-0.9c0.9,0,1.7,0.1,2.3,0.3c0.6,0.2,1,0.4,1.3,0.7c0.4,0.5,0.6,1.2,0.6,2v7.9c0,0.5,0.1,0.9,0.3,1.1
			c0.2,0.3,0.4,0.4,0.6,0.4l0.3,0.1h0.8v0.2H91.6z"/>
		<path class="st12" d="M97.2,291.4v1.2h2v0.2h-2v12.4h-1.8v-12.4h-0.5v-0.2h0.5v-1.2c0-1.8,0.4-3.1,1.2-3.9
			c0.8-0.8,2.1-1.2,3.8-1.2v0.2c-1.2,0-2,0.4-2.5,1.2C97.4,288.4,97.2,289.6,97.2,291.4z"/>
		<path class="st12" d="M102.1,289.7c-0.2-0.2-0.3-0.5-0.3-0.8s0.1-0.6,0.3-0.8c0.2-0.2,0.5-0.3,0.8-0.3s0.6,0.1,0.8,0.3
			c0.2,0.2,0.3,0.5,0.3,0.8s-0.1,0.6-0.3,0.8c-0.2,0.2-0.5,0.3-0.8,0.3S102.3,289.9,102.1,289.7z M104.1,305.1
			c-0.7,0-1.2-0.2-1.6-0.5c-0.4-0.3-0.5-0.6-0.6-0.9l0-0.4v-10.8h1.8v10.8c0,0.5,0.1,0.9,0.3,1.1c0.2,0.3,0.4,0.4,0.6,0.4l0.3,0.1
			h0.8v0.2H104.1z"/>
		<path class="st12" d="M112.6,293.6v-0.5c-0.8,0.3-1.4,0.9-2.1,1.8c-0.6,0.9-0.9,1.8-1,2.6v7.6h-1.8v-12.6h1.8v4
			c0.3-1,0.8-1.9,1.5-2.8c0.8-0.9,1.6-1.3,2.6-1.3h0.1c0.3,0,0.6,0.1,0.8,0.3c0.2,0.2,0.3,0.5,0.3,0.8c0,0.3-0.1,0.6-0.3,0.8
			c-0.2,0.2-0.5,0.3-0.8,0.3s-0.6-0.1-0.8-0.3C112.7,294.2,112.6,294,112.6,293.6z"/>
		<path class="st12" d="M132.6,295.4c0-1-0.1-1.7-0.4-2.2c-0.3-0.4-0.8-0.6-1.5-0.6c-1,0-1.9,0.4-2.7,1.3c-0.8,0.8-1.2,1.6-1.2,2.3
			v9h-1.8v-9.7c0-1-0.1-1.7-0.4-2.2c-0.3-0.4-0.8-0.6-1.7-0.6s-1.7,0.4-2.5,1.2c-0.8,0.8-1.2,1.6-1.3,2.2v9h-1.8v-12.6h1.8v2.8
			c0.3-0.7,0.8-1.4,1.5-2c0.7-0.6,1.5-0.9,2.4-0.9s1.6,0.1,2.1,0.2c0.5,0.2,0.9,0.4,1.1,0.7c0.2,0.3,0.4,0.6,0.4,0.9
			s0.1,0.6,0.1,1.1c0.3-0.7,0.8-1.4,1.5-2c0.7-0.6,1.5-0.9,2.3-0.9s1.5,0.1,1.9,0.2c0.5,0.1,0.9,0.3,1.1,0.5
			c0.2,0.2,0.4,0.4,0.6,0.7c0.1,0.3,0.2,0.6,0.2,0.8s0,0.5,0,0.9v7.9c0,0.5,0.1,0.9,0.3,1.1c0.2,0.3,0.4,0.4,0.6,0.4l0.3,0.1h0.8
			v0.2h-1.5c-0.7,0-1.2-0.2-1.6-0.5c-0.4-0.3-0.5-0.6-0.6-0.9l0-0.4V295.4z"/>
		<path class="st12" d="M148.1,305.1c-1.1,0-1.9-0.2-2.3-0.7c-0.4-0.4-0.6-0.7-0.6-1V303c-0.8,1.5-2.1,2.2-3.9,2.2
			c-2.1,0-3.3-1-3.6-2.9c0-0.2-0.1-0.4-0.1-0.6c0-0.2,0-0.4,0.1-0.7c0.1-0.3,0.3-0.5,0.6-0.8c0.6-0.6,2-1,4.2-1.1
			c0.5-0.1,1-0.1,1.5-0.1s0.9,0,1.2,0.1v-4.2c0,0,0-0.1,0-0.2c0-0.1,0-0.3-0.1-0.6c-0.1-0.2-0.2-0.4-0.4-0.7s-0.4-0.4-0.8-0.6
			s-0.9-0.2-1.5-0.2s-1.3,0.1-2.2,0.3c-0.8,0.2-1.4,0.4-1.8,0.7l-0.1-0.2c1.5-0.7,3-1,4.6-1c1.7,0,2.9,0.3,3.4,0.9
			c0.4,0.5,0.7,1,0.7,1.5v8.4c0,0.5,0.1,0.9,0.3,1.1c0.2,0.3,0.4,0.4,0.6,0.4l0.3,0.1h0.8v0.2H148.1z M141.6,305
			c0.9,0,1.7-0.3,2.4-0.9c0.7-0.6,1.1-1.2,1.1-1.8v-3c-0.5,0-0.9-0.1-1.4-0.1c-0.5,0-0.9,0-1.4,0.1c-1.3,0.2-2.1,0.4-2.5,0.9
			c-0.4,0.4-0.6,1-0.6,1.7c0,0.1,0,0.3,0,0.5C139.5,304.1,140.3,305,141.6,305z"/>
		<path class="st12" d="M155.7,293.6v-0.5c-0.8,0.3-1.4,0.9-2.1,1.8c-0.6,0.9-0.9,1.8-1,2.6v7.6h-1.8v-12.6h1.8v4
			c0.3-1,0.8-1.9,1.5-2.8c0.8-0.9,1.6-1.3,2.6-1.3h0.1c0.3,0,0.6,0.1,0.8,0.3c0.2,0.2,0.3,0.5,0.3,0.8c0,0.3-0.1,0.6-0.3,0.8
			c-0.2,0.2-0.5,0.3-0.8,0.3s-0.6-0.1-0.8-0.3C155.8,294.2,155.7,294,155.7,293.6z"/>
		<path class="st12" d="M176,293.4c-0.3-0.2-0.7-0.4-1.3-0.6c-0.6-0.2-1-0.2-1.3-0.2s-0.5,0-0.5,0c-0.9,0-1.6,0.2-2,0.7
			s-0.6,0.9-0.6,1.5s0.2,1,0.5,1.4c0.4,0.4,0.8,0.7,1.3,0.9c0.5,0.2,1.1,0.4,1.7,0.7c0.6,0.3,1.2,0.5,1.7,0.8c0.5,0.3,1,0.7,1.3,1.2
			c0.4,0.5,0.5,1.2,0.5,2c0,0.8-0.3,1.5-0.8,2s-1.2,0.9-1.8,1.1c-0.7,0.2-1.4,0.3-2.2,0.3c-1.7,0-3-0.4-3.8-1.1l0.2-0.2
			c0.3,0.3,0.8,0.6,1.5,0.8c0.7,0.2,1.3,0.3,1.9,0.3c1,0,1.8-0.3,2.5-0.8c0.6-0.5,1-1.2,1-2c0-0.8-0.2-1.5-0.7-2
			c-0.5-0.5-1.1-0.9-1.8-1.2s-1.4-0.6-2.1-0.8c-0.7-0.3-1.3-0.7-1.8-1.2c-0.5-0.5-0.7-1.1-0.7-1.7s0.2-1.2,0.5-1.6
			c0.3-0.4,0.7-0.7,1.2-0.9c0.9-0.3,1.7-0.4,2.6-0.4c1.4,0,2.6,0.3,3.4,0.8L176,293.4z"/>
		<path class="st12" d="M181.7,302.2c0,1.3,0.4,2.2,1.1,2.5c0.3,0.2,0.8,0.3,1.3,0.3c1.1,0,2-0.4,2.8-1.2c0.8-0.8,1.3-1.6,1.3-2.2
			v-9h1.8v10.8c0,0.5,0.1,0.9,0.3,1.1c0.2,0.3,0.4,0.4,0.6,0.4l0.3,0.1h0.8v0.2h-1.5c-0.7,0-1.2-0.2-1.6-0.5
			c-0.4-0.3-0.5-0.6-0.6-0.9l0-0.4v-1.1c-0.3,0.7-0.8,1.4-1.6,2c-0.8,0.6-1.6,0.9-2.5,0.9s-1.7-0.1-2.2-0.3c-0.6-0.2-1-0.4-1.2-0.7
			c-0.4-0.5-0.7-1.2-0.7-2v-9.7h1.8V302.2z"/>
		<path class="st12" d="M202.2,292.5h1.8v3.1c0.3-0.8,0.8-1.5,1.6-2.2c0.8-0.7,1.6-1,2.6-1c3.4,0,5.1,2,5.1,6c0,4.5-2.2,6.8-6.6,6.8
			c-0.8,0-1.7-0.2-2.7-0.6v6.7h-1.8V292.5z M208.1,292.6c-1,0-2,0.4-2.8,1.3c-0.8,0.9-1.3,1.7-1.4,2.4v8c1,0.4,1.9,0.6,2.7,0.6
			c3.2,0,4.9-2.2,4.9-6.6C211.5,294.6,210.3,292.6,208.1,292.6z"/>
		<path class="st12" d="M220.7,293.6v-0.5c-0.8,0.3-1.4,0.9-2.1,1.8c-0.6,0.9-0.9,1.8-1,2.6v7.6h-1.8v-12.6h1.8v4
			c0.3-1,0.8-1.9,1.5-2.8c0.8-0.9,1.6-1.3,2.6-1.3h0.1c0.3,0,0.6,0.1,0.8,0.3c0.2,0.2,0.3,0.5,0.3,0.8c0,0.3-0.1,0.6-0.3,0.8
			c-0.2,0.2-0.5,0.3-0.8,0.3s-0.6-0.1-0.8-0.3C220.8,294.2,220.7,294,220.7,293.6z"/>
		<path class="st12" d="M226.5,299c0,2.1,0.4,3.6,1.1,4.6c0.7,1,1.7,1.5,2.9,1.5c1.7,0,3.2-0.3,4.5-0.8l0.1,0.2
			c-1.3,0.5-2.9,0.8-4.5,0.8c-1.7,0-3.1-0.5-4.1-1.5c-1.1-1-1.6-2.6-1.6-4.7s0.6-3.7,1.7-4.9s2.5-1.7,4.2-1.7c1.4,0,2.5,0.4,3.5,1.2
			c0.9,0.8,1.4,2,1.4,3.6c0,0.1,0,0.2,0,0.3h-9C226.5,298,226.5,298.5,226.5,299z M232.9,293.8c-0.6-0.8-1.4-1.2-2.3-1.2
			c-1,0-1.8,0.4-2.6,1.3s-1.2,2-1.4,3.5h7.2C233.8,295.8,233.5,294.6,232.9,293.8z"/>
		<path class="st12" d="M245.3,293.4c-0.3-0.2-0.7-0.4-1.3-0.6c-0.6-0.2-1-0.2-1.3-0.2s-0.5,0-0.5,0c-0.9,0-1.6,0.2-2,0.7
			s-0.6,0.9-0.6,1.5s0.2,1,0.5,1.4c0.4,0.4,0.8,0.7,1.3,0.9c0.5,0.2,1.1,0.4,1.7,0.7c0.6,0.3,1.2,0.5,1.7,0.8c0.5,0.3,1,0.7,1.3,1.2
			c0.4,0.5,0.5,1.2,0.5,2c0,0.8-0.3,1.5-0.8,2c-0.6,0.6-1.2,0.9-1.8,1.1c-0.7,0.2-1.4,0.3-2.2,0.3c-1.7,0-3-0.4-3.8-1.1l0.2-0.2
			c0.3,0.3,0.8,0.6,1.5,0.8s1.3,0.3,1.9,0.3c1,0,1.8-0.3,2.5-0.8c0.6-0.5,1-1.2,1-2c0-0.8-0.2-1.5-0.7-2c-0.5-0.5-1.1-0.9-1.8-1.2
			c-0.7-0.3-1.4-0.6-2.1-0.8c-0.7-0.3-1.3-0.7-1.8-1.2c-0.5-0.5-0.7-1.1-0.7-1.7s0.2-1.2,0.5-1.6c0.3-0.4,0.7-0.7,1.2-0.9
			c0.9-0.3,1.7-0.4,2.6-0.4c1.4,0,2.6,0.3,3.4,0.8L245.3,293.4z"/>
		<path class="st12" d="M250.9,299c0,2.1,0.4,3.6,1.1,4.6c0.7,1,1.7,1.5,2.9,1.5c1.7,0,3.2-0.3,4.5-0.8l0.1,0.2
			c-1.3,0.5-2.9,0.8-4.5,0.8c-1.7,0-3.1-0.5-4.1-1.5c-1.1-1-1.6-2.6-1.6-4.7s0.6-3.7,1.7-4.9s2.5-1.7,4.2-1.7c1.4,0,2.5,0.4,3.5,1.2
			c0.9,0.8,1.4,2,1.4,3.6c0,0.1,0,0.2,0,0.3h-9C250.9,298,250.9,298.5,250.9,299z M257.3,293.8c-0.6-0.8-1.4-1.2-2.3-1.2
			c-1,0-1.8,0.4-2.6,1.3s-1.2,2-1.4,3.5h7.2C258.2,295.8,257.9,294.6,257.3,293.8z"/>
		<path class="st12" d="M272,305.1c-0.7,0-1.2-0.2-1.6-0.5c-0.4-0.3-0.5-0.6-0.6-0.9l0-0.4v-7.9c0-1.3-0.3-2.2-1-2.5
			c-0.4-0.2-0.8-0.3-1.3-0.3c-1.1,0-2,0.4-2.9,1.3c-0.9,0.8-1.3,1.6-1.3,2.3v8.9h-1.8v-12.6h1.8v2.9c0.3-0.7,0.8-1.4,1.6-2
			c0.8-0.6,1.6-0.9,2.5-0.9s1.7,0.1,2.3,0.3c0.6,0.2,1,0.4,1.3,0.7c0.4,0.5,0.6,1.2,0.6,2v7.9c0,0.5,0.1,0.9,0.3,1.1
			c0.2,0.3,0.4,0.4,0.6,0.4l0.3,0.1h0.8v0.2H272z"/>
		<path class="st12" d="M281.1,292.6c-1.2,0-2.2,0.6-3,1.7c-0.8,1.1-1.2,2.7-1.2,4.7s0.4,3.5,1.1,4.5c0.7,1,1.7,1.5,2.9,1.5
			c1.5,0,2.8-0.3,4-0.8l0.1,0.2c-1.2,0.5-2.6,0.8-4.2,0.8s-2.9-0.5-4-1.5c-1.1-1-1.6-2.6-1.6-4.7s0.6-3.7,1.7-4.9s2.5-1.7,4.2-1.7
			c1,0,1.8,0.2,2.7,0.7c0.8,0.4,1.4,1.1,1.8,2h-1.6c-0.3-0.8-0.6-1.4-1.1-1.8C282.3,292.8,281.7,292.6,281.1,292.6z"/>
		<path class="st12" d="M288.5,289.7c-0.2-0.2-0.3-0.5-0.3-0.8s0.1-0.6,0.3-0.8c0.2-0.2,0.5-0.3,0.8-0.3s0.6,0.1,0.8,0.3
			c0.2,0.2,0.3,0.5,0.3,0.8s-0.1,0.6-0.3,0.8c-0.2,0.2-0.5,0.3-0.8,0.3S288.7,289.9,288.5,289.7z M290.5,305.1
			c-0.7,0-1.2-0.2-1.6-0.5s-0.5-0.6-0.6-0.9l0-0.4v-10.8h1.8v10.8c0,0.5,0.1,0.9,0.3,1.1c0.2,0.3,0.4,0.4,0.6,0.4l0.3,0.1h0.8v0.2
			H290.5z"/>
		<path class="st12" d="M304.6,305.1c-1.1,0-1.9-0.2-2.3-0.7c-0.4-0.4-0.6-0.7-0.6-1V303c-0.8,1.5-2.1,2.2-3.9,2.2
			c-2.1,0-3.3-1-3.6-2.9c0-0.2-0.1-0.4-0.1-0.6c0-0.2,0-0.4,0.1-0.7c0.1-0.3,0.3-0.5,0.6-0.8c0.6-0.6,2-1,4.2-1.1
			c0.5-0.1,1-0.1,1.5-0.1c0.5,0,0.9,0,1.2,0.1v-4.2c0,0,0-0.1,0-0.2c0-0.1,0-0.3-0.1-0.6c-0.1-0.2-0.2-0.4-0.4-0.7
			c-0.2-0.2-0.4-0.4-0.8-0.6c-0.4-0.2-0.9-0.2-1.5-0.2c-0.6,0-1.3,0.1-2.2,0.3c-0.8,0.2-1.4,0.4-1.8,0.7l-0.1-0.2c1.5-0.7,3-1,4.6-1
			c1.7,0,2.9,0.3,3.4,0.9c0.4,0.5,0.7,1,0.7,1.5v8.4c0,0.5,0.1,0.9,0.3,1.1c0.2,0.3,0.4,0.4,0.6,0.4l0.3,0.1h0.8v0.2H304.6z
			 M298.1,305c0.9,0,1.7-0.3,2.4-0.9c0.7-0.6,1.1-1.2,1.1-1.8v-3c-0.5,0-0.9-0.1-1.4-0.1c-0.5,0-0.9,0-1.4,0.1
			c-1.3,0.2-2.1,0.4-2.5,0.9c-0.4,0.4-0.6,1-0.6,1.7c0,0.1,0,0.3,0,0.5C296,304.1,296.8,305,298.1,305z"/>
		<path class="st12" d="M326.4,305.1c-1.1,0-1.9-0.2-2.3-0.7c-0.4-0.4-0.6-0.7-0.6-1V303c-0.8,1.5-2.1,2.2-3.9,2.2
			c-2.1,0-3.3-1-3.6-2.9c0-0.2-0.1-0.4-0.1-0.6c0-0.2,0-0.4,0.1-0.7c0.1-0.3,0.3-0.5,0.6-0.8c0.6-0.6,2-1,4.2-1.1
			c0.5-0.1,1-0.1,1.5-0.1c0.5,0,0.9,0,1.2,0.1v-4.2c0,0,0-0.1,0-0.2c0-0.1,0-0.3-0.1-0.6c-0.1-0.2-0.2-0.4-0.4-0.7
			c-0.2-0.2-0.4-0.4-0.8-0.6c-0.4-0.2-0.9-0.2-1.5-0.2c-0.6,0-1.3,0.1-2.2,0.3c-0.8,0.2-1.4,0.4-1.8,0.7l-0.1-0.2c1.5-0.7,3-1,4.6-1
			c1.7,0,2.9,0.3,3.4,0.9c0.4,0.5,0.7,1,0.7,1.5v8.4c0,0.5,0.1,0.9,0.3,1.1c0.2,0.3,0.4,0.4,0.6,0.4l0.3,0.1h0.8v0.2H326.4z
			 M319.9,305c0.9,0,1.7-0.3,2.4-0.9c0.7-0.6,1.1-1.2,1.1-1.8v-3c-0.5,0-0.9-0.1-1.4-0.1c-0.5,0-0.9,0-1.4,0.1
			c-1.3,0.2-2.1,0.4-2.5,0.9c-0.4,0.4-0.6,1-0.6,1.7c0,0.1,0,0.3,0,0.5C317.8,304.1,318.6,305,319.9,305z"/>
		<path class="st12" d="M339.6,305.1c-0.7,0-1.2-0.2-1.6-0.5c-0.4-0.3-0.5-0.6-0.6-0.9l0-0.4v-7.9c0-1.3-0.3-2.2-1-2.5
			c-0.4-0.2-0.8-0.3-1.3-0.3c-1.1,0-2,0.4-2.9,1.3c-0.9,0.8-1.3,1.6-1.3,2.3v8.9h-1.8v-12.6h1.8v2.9c0.3-0.7,0.8-1.4,1.6-2
			c0.8-0.6,1.6-0.9,2.5-0.9s1.7,0.1,2.3,0.3c0.6,0.2,1,0.4,1.3,0.7c0.4,0.5,0.6,1.2,0.6,2v7.9c0,0.5,0.1,0.9,0.3,1.1
			c0.2,0.3,0.4,0.4,0.6,0.4l0.3,0.1h0.8v0.2H339.6z"/>
		<path class="st12" d="M342.9,292.7v-0.2h0.5V290h1.8v2.5h3.8v0.2h-3.8v9.2c0,1.1,0.1,1.9,0.4,2.4s0.8,0.7,1.5,0.7s1.6-0.2,2.4-0.5
			l0.1,0.2c-0.8,0.3-1.8,0.5-2.9,0.5s-1.9-0.2-2.4-0.7s-0.8-1.3-0.8-2.7v-9.1H342.9z"/>
		<path class="st12" d="M353,299c0,2.1,0.4,3.6,1.1,4.6c0.7,1,1.7,1.5,2.9,1.5c1.7,0,3.2-0.3,4.5-0.8l0.1,0.2
			c-1.3,0.5-2.9,0.8-4.5,0.8c-1.7,0-3.1-0.5-4.1-1.5c-1.1-1-1.6-2.6-1.6-4.7s0.6-3.7,1.7-4.9s2.5-1.7,4.2-1.7c1.4,0,2.5,0.4,3.5,1.2
			c0.9,0.8,1.4,2,1.4,3.6c0,0.1,0,0.2,0,0.3h-9C353,298,353,298.5,353,299z M359.4,293.8c-0.6-0.8-1.4-1.2-2.3-1.2
			c-1,0-1.8,0.4-2.6,1.3s-1.2,2-1.4,3.5h7.2C360.3,295.8,360,294.6,359.4,293.8z"/>
		<path class="st12" d="M371.8,293.4c-0.3-0.2-0.7-0.4-1.3-0.6c-0.6-0.2-1-0.2-1.3-0.2s-0.5,0-0.5,0c-0.9,0-1.6,0.2-2,0.7
			s-0.6,0.9-0.6,1.5s0.2,1,0.5,1.4c0.4,0.4,0.8,0.7,1.3,0.9c0.5,0.2,1.1,0.4,1.7,0.7c0.6,0.3,1.2,0.5,1.7,0.8c0.5,0.3,1,0.7,1.3,1.2
			c0.4,0.5,0.5,1.2,0.5,2c0,0.8-0.3,1.5-0.8,2c-0.6,0.6-1.2,0.9-1.8,1.1c-0.7,0.2-1.4,0.3-2.2,0.3c-1.7,0-3-0.4-3.8-1.1l0.2-0.2
			c0.3,0.3,0.8,0.6,1.5,0.8c0.7,0.2,1.3,0.3,1.9,0.3c1,0,1.8-0.3,2.5-0.8c0.6-0.5,1-1.2,1-2c0-0.8-0.2-1.5-0.7-2
			c-0.5-0.5-1.1-0.9-1.8-1.2c-0.7-0.3-1.4-0.6-2.1-0.8c-0.7-0.3-1.3-0.7-1.8-1.2c-0.5-0.5-0.7-1.1-0.7-1.7s0.2-1.2,0.5-1.6
			c0.3-0.4,0.7-0.7,1.2-0.9c0.9-0.3,1.7-0.4,2.6-0.4c1.4,0,2.6,0.3,3.4,0.8L371.8,293.4z"/>
		<path class="st12" d="M38.6,329.5c0-2.2,0.5-3.9,1.6-5.1c1.1-1.2,2.6-1.8,4.8-1.8c1,0,2,0.3,3,0.8v-6.9h1.8v17.1
			c0,0.5,0.1,0.9,0.3,1.1s0.4,0.4,0.6,0.4l0.3,0.1h0.8v0.2h-1.5c-0.7,0-1.2-0.2-1.6-0.5c-0.4-0.3-0.5-0.6-0.6-0.9l0-0.4v-0.4
			c-0.3,0.6-0.8,1.1-1.6,1.6c-0.7,0.5-1.6,0.7-2.6,0.7C40.3,335.3,38.6,333.3,38.6,329.5z M43.7,335.1c1.1,0,2.1-0.3,2.9-0.9
			s1.2-1.2,1.3-1.8v-8.9c-1.2-0.5-2.2-0.8-3.1-0.8c-1.5,0-2.6,0.6-3.4,1.7c-0.8,1.2-1.1,2.8-1.1,4.9
			C40.4,333.2,41.5,335.1,43.7,335.1z"/>
		<path class="st12" d="M54.7,329.1c0,2.1,0.4,3.6,1.1,4.6c0.7,1,1.7,1.5,2.9,1.5c1.7,0,3.2-0.3,4.5-0.8l0.1,0.2
			c-1.3,0.5-2.9,0.8-4.5,0.8c-1.7,0-3.1-0.5-4.1-1.5s-1.6-2.6-1.6-4.7s0.6-3.7,1.7-4.9s2.5-1.7,4.2-1.7c1.4,0,2.5,0.4,3.5,1.2
			c0.9,0.8,1.4,2,1.4,3.6c0,0.1,0,0.2,0,0.3h-9C54.7,328.2,54.7,328.7,54.7,329.1z M61.1,324c-0.6-0.8-1.4-1.2-2.3-1.2
			s-1.8,0.4-2.6,1.3s-1.2,2-1.4,3.5h7.2C62,325.9,61.7,324.7,61.1,324z"/>
		<path class="st12" d="M69.4,335.3c-1.5,0-2.4-0.4-2.8-1.2c-0.1-0.2-0.1-0.3-0.1-0.5v-17.2h1.8v17.1c0,0.5,0.1,0.9,0.3,1.1
			c0.2,0.3,0.4,0.4,0.6,0.4l0.3,0.1h0.8v0.2H69.4z"/>
		<path class="st12" d="M93.4,317.7c0.3,0.3,0.5,0.7,0.5,1.2c0,0.4-0.1,0.8-0.3,1.3l-6.4,15.1l-0.3,0.1l-6.3-17.7h2.1l5.3,14.9
			l5.4-12.4c0.2-0.4,0.3-0.9,0.3-1.3s-0.1-0.8-0.4-1.1L93.4,317.7z"/>
		<path class="st12" d="M96.8,319.9c-0.2-0.2-0.3-0.5-0.3-0.8s0.1-0.6,0.3-0.8c0.2-0.2,0.5-0.3,0.8-0.3s0.6,0.1,0.8,0.3
			c0.2,0.2,0.3,0.5,0.3,0.8s-0.1,0.6-0.3,0.8c-0.2,0.2-0.5,0.3-0.8,0.3S97,320.1,96.8,319.9z M98.8,335.3c-0.7,0-1.2-0.2-1.6-0.5
			c-0.4-0.3-0.5-0.6-0.6-0.9l0-0.4v-10.8h1.8v10.8c0,0.5,0.1,0.9,0.3,1.1c0.2,0.3,0.4,0.4,0.6,0.4l0.3,0.1h0.8v0.2H98.8z"/>
		<path class="st12" d="M103.5,329.1c0,2.1,0.4,3.6,1.1,4.6c0.7,1,1.7,1.5,2.9,1.5c1.7,0,3.2-0.3,4.5-0.8l0.1,0.2
			c-1.3,0.5-2.9,0.8-4.5,0.8c-1.7,0-3.1-0.5-4.1-1.5s-1.6-2.6-1.6-4.7s0.6-3.7,1.7-4.9s2.5-1.7,4.2-1.7c1.4,0,2.5,0.4,3.5,1.2
			c0.9,0.8,1.4,2,1.4,3.6c0,0.1,0,0.2,0,0.3h-9C103.5,328.2,103.5,328.7,103.5,329.1z M109.9,324c-0.6-0.8-1.4-1.2-2.3-1.2
			s-1.8,0.4-2.6,1.3s-1.2,2-1.4,3.5h7.2C110.8,325.9,110.5,324.7,109.9,324z"/>
		<path class="st12" d="M119,323.8v-0.5c-0.8,0.3-1.4,0.9-2.1,1.8c-0.6,0.9-0.9,1.8-1,2.6v7.6h-1.8v-12.6h1.8v4
			c0.3-1,0.8-1.9,1.5-2.8c0.8-0.9,1.6-1.3,2.6-1.3h0.1c0.3,0,0.6,0.1,0.8,0.3c0.2,0.2,0.3,0.5,0.3,0.8c0,0.3-0.1,0.6-0.3,0.8
			c-0.2,0.2-0.5,0.3-0.8,0.3s-0.6-0.1-0.8-0.3C119.1,324.4,119,324.1,119,323.8z"/>
		<path class="st12" d="M134.3,335.3c-0.7,0-1.2-0.2-1.6-0.5c-0.4-0.3-0.5-0.6-0.6-0.9l0-0.4v-7.9c0-1.3-0.3-2.2-1-2.5
			c-0.4-0.2-0.8-0.3-1.3-0.3c-1.1,0-2,0.4-2.9,1.3c-0.9,0.8-1.3,1.6-1.3,2.3v8.9h-1.8v-12.6h1.8v2.9c0.3-0.7,0.8-1.4,1.6-2
			c0.8-0.6,1.6-0.9,2.5-0.9c0.9,0,1.7,0.1,2.3,0.3c0.6,0.2,1,0.4,1.3,0.7c0.4,0.5,0.6,1.2,0.6,2v7.9c0,0.5,0.1,0.9,0.3,1.1
			s0.4,0.4,0.6,0.4l0.3,0.1h0.8v0.2H134.3z"/>
		<path class="st12" d="M139.2,329.1c0,2.1,0.4,3.6,1.1,4.6c0.7,1,1.7,1.5,2.9,1.5c1.7,0,3.2-0.3,4.5-0.8l0.1,0.2
			c-1.3,0.5-2.9,0.8-4.5,0.8c-1.7,0-3.1-0.5-4.1-1.5s-1.6-2.6-1.6-4.7s0.6-3.7,1.7-4.9s2.5-1.7,4.2-1.7c1.4,0,2.5,0.4,3.5,1.2
			c0.9,0.8,1.4,2,1.4,3.6c0,0.1,0,0.2,0,0.3h-9C139.2,328.2,139.2,328.7,139.2,329.1z M145.6,324c-0.6-0.8-1.4-1.2-2.3-1.2
			s-1.8,0.4-2.6,1.3s-1.2,2-1.4,3.5h7.2C146.5,325.9,146.2,324.7,145.6,324z"/>
		<path class="st12" d="M158,323.6c-0.3-0.2-0.7-0.4-1.3-0.6c-0.6-0.2-1-0.2-1.3-0.2s-0.5,0-0.5,0c-0.9,0-1.6,0.2-2,0.7
			s-0.6,0.9-0.6,1.5s0.2,1,0.5,1.4c0.4,0.4,0.8,0.7,1.3,0.9c0.5,0.2,1.1,0.4,1.7,0.7c0.6,0.3,1.2,0.5,1.7,0.8c0.5,0.3,1,0.7,1.3,1.2
			c0.4,0.5,0.5,1.2,0.5,2c0,0.8-0.3,1.5-0.8,2c-0.6,0.6-1.2,0.9-1.8,1.1c-0.7,0.2-1.4,0.3-2.2,0.3c-1.7,0-3-0.4-3.8-1.1l0.2-0.2
			c0.3,0.3,0.8,0.6,1.5,0.8c0.7,0.2,1.3,0.3,1.9,0.3c1,0,1.8-0.3,2.5-0.8s1-1.2,1-2c0-0.8-0.2-1.5-0.7-2c-0.5-0.5-1.1-0.9-1.8-1.2
			s-1.4-0.6-2.1-0.8c-0.7-0.3-1.3-0.7-1.8-1.2c-0.5-0.5-0.7-1.1-0.7-1.7s0.2-1.2,0.5-1.6c0.3-0.4,0.7-0.7,1.2-0.9
			c0.9-0.3,1.7-0.4,2.6-0.4c1.4,0,2.6,0.3,3.4,0.8L158,323.6z"/>
		<path class="st12" d="M177.6,327.7c0,2.5,0,4.7,0.1,5.8c0.1,0.8,0.2,1.2,1,1.3c0.4,0.1,1.4,0.2,1.7,0.2c0.1,0,0.2,0.1,0.2,0.2
			c0,0.1-0.1,0.2-0.4,0.2c-1.9,0-3.5-0.1-3.6-0.1c-0.1,0-2.2,0.1-3.8,0.1c-0.3,0-0.4,0-0.4-0.2c0-0.1,0.1-0.2,0.2-0.2
			c0.3,0,1.5-0.1,2-0.2c0.8-0.2,1-0.5,1.1-1.3c0.1-1.1,0.1-3.3,0.1-5.8v-4.4c0-1.4,0-2.4,0-3.8c0-0.5-0.1-0.8-0.5-0.8
			c-0.5,0-2.2,0.9-2.9,1.2c-0.1,0.1-0.2,0.1-0.3,0.1c-0.1,0-0.2-0.1-0.2-0.2c0-0.1,0.1-0.2,0.2-0.3l4.9-3.2c0.2-0.2,0.4-0.3,0.6-0.3
			c0.2,0,0.3,0.3,0.3,0.5c0,0.2-0.1,2.7-0.1,6.5L177.6,327.7z"/>
		<path class="st12" d="M197,322.8c0,7.1-5.6,11.4-8.7,13c-0.2,0.1-0.3,0.1-0.4,0.1s-0.2-0.1-0.2-0.3c0-0.2,0.1-0.3,0.3-0.4
			c3-1.6,6.8-5.8,6.8-11.7c0-4.4-1.9-6.6-4.1-6.6c-2.3,0-3.4,1.9-3.4,3.8c0,4.2,3.1,5,3.8,5c1.2,0,1.7-0.3,2-0.5
			c0.2-0.1,0.3-0.2,0.3-0.2s0.1,0.1,0.1,0.2c0,0.1,0,0.1-0.1,0.2c-0.7,0.8-2,1.2-3,1.2c-3.6,0-5.1-2.7-5.1-4.9c0-3.5,2.5-5.9,6-5.9
			C194.8,316,197,319,197,322.8z"/>
		<path class="st12" d="M208.1,329.5c0-2.2,0.5-3.9,1.6-5.1c1.1-1.2,2.6-1.8,4.8-1.8c1,0,2,0.3,3,0.8v-6.9h1.8v17.1
			c0,0.5,0.1,0.9,0.3,1.1s0.4,0.4,0.6,0.4l0.3,0.1h0.8v0.2h-1.5c-0.7,0-1.2-0.2-1.6-0.5c-0.4-0.3-0.5-0.6-0.6-0.9l0-0.4v-0.4
			c-0.3,0.6-0.8,1.1-1.6,1.6c-0.7,0.5-1.6,0.7-2.6,0.7C209.8,335.3,208.1,333.3,208.1,329.5z M213.3,335.1c1.1,0,2.1-0.3,2.9-0.9
			s1.2-1.2,1.3-1.8v-8.9c-1.2-0.5-2.2-0.8-3.1-0.8c-1.5,0-2.6,0.6-3.4,1.7c-0.8,1.2-1.1,2.8-1.1,4.9
			C209.9,333.2,211,335.1,213.3,335.1z"/>
		<path class="st12" d="M224.3,329.1c0,2.1,0.4,3.6,1.1,4.6c0.7,1,1.7,1.5,2.9,1.5c1.7,0,3.2-0.3,4.5-0.8l0.1,0.2
			c-1.3,0.5-2.9,0.8-4.5,0.8c-1.7,0-3.1-0.5-4.1-1.5c-1.1-1-1.6-2.6-1.6-4.7s0.6-3.7,1.7-4.9s2.5-1.7,4.2-1.7c1.4,0,2.5,0.4,3.5,1.2
			c0.9,0.8,1.4,2,1.4,3.6c0,0.1,0,0.2,0,0.3h-9C224.3,328.2,224.3,328.7,224.3,329.1z M230.7,324c-0.6-0.8-1.4-1.2-2.3-1.2
			c-1,0-1.8,0.4-2.6,1.3s-1.2,2-1.4,3.5h7.2C231.6,325.9,231.3,324.7,230.7,324z"/>
		<path class="st12" d="M243.9,335.3h-0.3l7.5-17.6l0.3-0.1l6.3,17.7h-2.1l-2-5.5h-7.3L243.9,335.3z M250.4,320.4l-3.9,9.1h7.2
			L250.4,320.4z"/>
		<path class="st12" d="M259.3,329.5c0-2.2,0.5-3.9,1.6-5.1c1.1-1.2,2.6-1.8,4.8-1.8c1.6,0,3.1,0.3,4.8,0.8v12.1c0,4-1.8,6-5.2,6
			c-1.9,0-3.5-0.6-4.9-1.9l0.2-0.2c1.4,1.2,3,1.8,4.7,1.8c2.3,0,3.5-1.9,3.5-5.8v-2.5c-0.3,0.6-0.8,1.1-1.6,1.6
			c-0.7,0.5-1.6,0.7-2.6,0.7C261,335.3,259.3,333.3,259.3,329.5z M264.4,335.1c1.1,0,2.1-0.3,2.9-0.9s1.2-1.2,1.3-1.8v-8.9
			c-1.2-0.5-2.2-0.8-3.1-0.8c-1.5,0-2.6,0.6-3.4,1.7c-0.8,1.2-1.1,2.8-1.1,4.9C261,333.2,262.2,335.1,264.4,335.1z"/>
		<path class="st12" d="M278.8,335.4c-1.8,0-3.2-0.5-4.3-1.5s-1.7-2.6-1.7-4.7s0.6-3.7,1.7-4.9s2.6-1.7,4.4-1.7
			c1.8,0,3.2,0.5,4.3,1.5c1.1,1,1.7,2.6,1.7,4.7s-0.6,3.7-1.7,4.9C282.1,334.8,280.6,335.4,278.8,335.4z M279,322.8
			c-1.3,0-2.3,0.6-3.2,1.7c-0.8,1.1-1.3,2.7-1.3,4.7c0,2,0.4,3.5,1.2,4.5c0.8,1,1.8,1.5,3.1,1.5c1.3,0,2.3-0.6,3.2-1.7
			c0.8-1.1,1.3-2.7,1.3-4.7c0-2-0.4-3.5-1.2-4.5S280.3,322.8,279,322.8z"/>
		<path class="st12" d="M294.4,323.6c-0.3-0.2-0.7-0.4-1.3-0.6c-0.6-0.2-1-0.2-1.3-0.2s-0.5,0-0.5,0c-0.9,0-1.6,0.2-2,0.7
			s-0.6,0.9-0.6,1.5s0.2,1,0.5,1.4c0.4,0.4,0.8,0.7,1.3,0.9c0.5,0.2,1.1,0.4,1.7,0.7c0.6,0.3,1.2,0.5,1.7,0.8c0.5,0.3,1,0.7,1.3,1.2
			c0.4,0.5,0.5,1.2,0.5,2c0,0.8-0.3,1.5-0.8,2c-0.6,0.6-1.2,0.9-1.8,1.1c-0.7,0.2-1.4,0.3-2.2,0.3c-1.7,0-3-0.4-3.8-1.1l0.2-0.2
			c0.3,0.3,0.8,0.6,1.5,0.8c0.7,0.2,1.3,0.3,1.9,0.3c1,0,1.8-0.3,2.5-0.8c0.6-0.5,1-1.2,1-2c0-0.8-0.2-1.5-0.7-2
			c-0.5-0.5-1.1-0.9-1.8-1.2c-0.7-0.3-1.4-0.6-2.1-0.8c-0.7-0.3-1.3-0.7-1.8-1.2c-0.5-0.5-0.7-1.1-0.7-1.7s0.2-1.2,0.5-1.6
			c0.3-0.4,0.7-0.7,1.2-0.9c0.9-0.3,1.7-0.4,2.6-0.4c1.4,0,2.6,0.3,3.4,0.8L294.4,323.6z"/>
		<path class="st12" d="M298.2,322.9v-0.2h0.5v-2.5h1.8v2.5h3.8v0.2h-3.8v9.2c0,1.1,0.1,1.9,0.4,2.4c0.2,0.5,0.8,0.7,1.5,0.7
			s1.6-0.2,2.4-0.5l0.1,0.2c-0.8,0.3-1.8,0.5-2.9,0.5s-1.9-0.2-2.4-0.7s-0.8-1.3-0.8-2.7v-9.1H298.2z"/>
		<path class="st12" d="M312.1,335.4c-1.8,0-3.2-0.5-4.3-1.5s-1.7-2.6-1.7-4.7s0.6-3.7,1.7-4.9s2.6-1.7,4.4-1.7
			c1.8,0,3.2,0.5,4.3,1.5c1.1,1,1.7,2.6,1.7,4.7s-0.6,3.7-1.7,4.9C315.3,334.8,313.8,335.4,312.1,335.4z M312.2,322.8
			c-1.3,0-2.3,0.6-3.2,1.7c-0.8,1.1-1.3,2.7-1.3,4.7c0,2,0.4,3.5,1.2,4.5c0.8,1,1.8,1.5,3.1,1.5c1.3,0,2.3-0.6,3.2-1.7
			c0.8-1.1,1.3-2.7,1.3-4.7c0-2-0.4-3.5-1.2-4.5S313.5,322.8,312.2,322.8z"/>
		<path class="st12" d="M320.8,333.2l0.8,0l-1.1,4.6h-0.3L320.8,333.2z"/>
		<path class="st12" d="M332.1,335.3c-0.2,0-0.4-0.2-0.4-0.4s0.3-0.4,0.5-0.6c5-4.5,8.8-7.9,8.8-12.8c0-3.6-2.3-4.7-4-4.7
			c-1.2,0-2,0.3-2.7,1c-0.6,0.6-0.9,1.5-0.9,2.4c0,0.2-0.1,0.4-0.2,0.4c-0.1,0-0.2-0.1-0.2-0.3s-0.2-2.3-0.2-3.1
			c0-0.2,0-0.2,0.3-0.4c0.9-0.4,2.4-0.9,4.4-0.9c3.8,0,5.7,2.4,5.7,5.1c0,5.2-5.6,9.9-8.8,12.5c-0.1,0.1-0.1,0.2,0,0.2h1.8
			c0.4,0,3.4,0,4.3-0.1c1.8-0.2,2.6-1.1,2.9-2.4c0.1-0.3,0.2-0.4,0.3-0.4c0.1,0,0.2,0.2,0.2,0.4c0,0.5-0.5,2.4-0.8,3.3
			c-0.2,0.7-0.6,0.8-1.6,0.8H332.1z"/>
		<path class="st12" d="M353.2,316c4.6,0,5.9,6,5.9,9.3c0,5.8-2.2,10.4-6.3,10.4c-3.9,0-5.9-4.8-5.9-9.3
			C346.9,320.5,349.2,316,353.2,316z M353.3,334.8c2.3,0,3.8-3.5,3.8-8.4c0-4.8-1.6-9.4-4.4-9.4c-2.3,0-3.8,3.4-3.8,8.5
			C349,329.8,350.3,334.8,353.3,334.8z"/>
		<path class="st12" d="M362.1,335.3c-0.2,0-0.4-0.2-0.4-0.4s0.3-0.4,0.5-0.6c5-4.5,8.8-7.9,8.8-12.8c0-3.6-2.3-4.7-4-4.7
			c-1.2,0-2,0.3-2.7,1c-0.6,0.6-0.9,1.5-0.9,2.4c0,0.2-0.1,0.4-0.2,0.4c-0.1,0-0.2-0.1-0.2-0.3s-0.2-2.3-0.2-3.1
			c0-0.2,0-0.2,0.3-0.4c0.9-0.4,2.4-0.9,4.4-0.9c3.8,0,5.7,2.4,5.7,5.1c0,5.2-5.6,9.9-8.8,12.5c-0.1,0.1-0.1,0.2,0,0.2h1.8
			c0.4,0,3.4,0,4.3-0.1c1.8-0.2,2.6-1.1,2.9-2.4c0.1-0.3,0.2-0.4,0.3-0.4c0.1,0,0.2,0.2,0.2,0.4c0,0.5-0.5,2.4-0.8,3.3
			c-0.2,0.7-0.6,0.8-1.6,0.8H362.1z"/>
		<path class="st12" d="M386.3,328.3h1.9c0.7,0,0.9-0.3,1-0.3c0.1,0,0.1,0.2,0.1,0.3s-0.1,0.7-0.2,1c-0.1,0.3-0.2,0.3-0.5,0.3h-2.3
			c0,0.8,0,2.8,0,3.9c0.1,0.8,0.3,1.2,1.1,1.4c0.4,0.1,0.9,0.1,1.1,0.1c0.1,0,0.2,0.1,0.2,0.2c0,0.1-0.1,0.2-0.4,0.2
			c-1.4,0-3-0.1-3.2-0.1s-1.5,0.1-2.9,0.1c-0.3,0-0.4,0-0.4-0.2c0-0.1,0.1-0.2,0.2-0.2c0.2,0,0.8,0,1.2-0.1c0.8-0.1,1-0.7,1.1-1.4
			c0.1-1.1,0.1-3,0.1-3.9h-7.7c-0.3,0-0.5-0.1-0.5-0.3c0-0.2,0.1-0.4,0.2-0.5c0.2-0.2,8.3-11.2,9.1-12.3c0.2-0.3,0.4-0.5,0.5-0.5
			c0.2,0,0.3,0.2,0.3,0.4c0,0.4,0,2.4,0,3.8V328.3z M384.4,319.4L384.4,319.4c-0.4,0.7-6,8.3-6.4,8.9h6.4V319.4z"/>
	</g>
</g>
</svg>
