<?xml version="1.0" encoding="utf-8"?>
<!-- Generator: Adobe Illustrator 28.0.0, SVG Export Plug-In . SVG Version: 6.00 Build 0)  -->
<svg version="1.1" id="Capa_1" xmlns="http://www.w3.org/2000/svg" xmlns:xlink="http://www.w3.org/1999/xlink" x="0px" y="0px"
	 viewBox="0 0 430 734" style="enable-background:new 0 0 430 734;" xml:space="preserve">
<style type="text/css">
	.st0{fill:none;}
	.st1{fill:url(#SVGID_1_);}
	.st2{fill:url(#XMLID_00000048461378156740444160000006617829741954979748_);}
	.st3{fill:#7F5F1F;}
	
		.st4{fill:none;stroke:url(#SVGID_00000135684004616185632070000008689120270529990327_);stroke-width:0.1235;stroke-miterlimit:10;}
	
		.st5{fill:none;stroke:url(#SVGID_00000150824168285021899380000016535269003351639228_);stroke-width:0.1235;stroke-miterlimit:10;}
	
		.st6{fill:none;stroke:url(#SVGID_00000071523296394483857480000017794557231640442498_);stroke-width:0.1235;stroke-miterlimit:10;}
	
		.st7{fill:none;stroke:url(#SVGID_00000119806657002876855110000007948994140012596375_);stroke-width:0.1235;stroke-miterlimit:10;}
	
		.st8{fill:none;stroke:url(#SVGID_00000141413292767833279390000003990471032219042963_);stroke-width:0.1235;stroke-miterlimit:10;}
	
		.st9{fill:none;stroke:url(#SVGID_00000062894955377206414920000012302305826367265665_);stroke-width:0.1235;stroke-miterlimit:10;}
	
		.st10{fill:none;stroke:url(#SVGID_00000086657428923116061170000017703327446571230644_);stroke-width:0.1235;stroke-miterlimit:10;}
	
		.st11{fill:none;stroke:url(#SVGID_00000059300539884835753150000011489485970925122217_);stroke-width:0.1235;stroke-miterlimit:10;}
	
		.st12{fill:none;stroke:url(#SVGID_00000092423606077105481100000012556612777627448211_);stroke-width:1.2348;stroke-miterlimit:10;}
	.st13{fill:url(#SVGID_00000111895249859694918540000000448841427867535499_);}
	.st14{fill:url(#SVGID_00000132793154551749608440000012117843973944593811_);}
	.st15{fill:url(#SVGID_00000156587476633037425470000011207241913143250111_);}
	.st16{fill:url(#SVGID_00000104692269306834739010000010664112138497612442_);}
	.st17{fill:#5E402F;}
	.st18{fill:#7F5F1F;stroke:#7F5F1F;stroke-width:0.3087;stroke-miterlimit:10;}
	
		.st19{fill:#7F5F1F;stroke:url(#SVGID_00000116939901338840059820000017956975605171842183_);stroke-width:0.3087;stroke-miterlimit:10;}
	
		.st20{fill:#7F5F1F;stroke:url(#SVGID_00000075849340436417549120000011809065730289143202_);stroke-width:0.3087;stroke-miterlimit:10;}
	.st21{fill:url(#Nueva_muestra_de_motivo_2);}
</style>
<pattern  y="734" width="276" height="169" patternUnits="userSpaceOnUse" id="Nueva_muestra_de_motivo_1" viewBox="0 -169 276 169" style="overflow:visible;">
	<g>
		<rect y="-169" class="st0" width="276" height="169"/>
		
			<linearGradient id="SVGID_1_" gradientUnits="userSpaceOnUse" x1="545" y1="-15591" x2="821" y2="-15591" gradientTransform="matrix(1 0 0 -1 -545 -15675.5)">
			<stop  offset="0" style="stop-color:#DCC173"/>
			<stop  offset="0.2398" style="stop-color:#AB8136"/>
			<stop  offset="0.5153" style="stop-color:#73582B"/>
			<stop  offset="0.8571" style="stop-color:#DCC173"/>
		</linearGradient>
		<rect y="-169" class="st1" width="276" height="169"/>
	</g>
</pattern>
<pattern  y="734" width="286.7" height="240.9" patternUnits="userSpaceOnUse" id="Nueva_muestra_de_motivo_2" viewBox="0 -240.9 286.7 240.9" style="overflow:visible;">
	<g>
		<rect y="-240.9" class="st0" width="286.7" height="240.9"/>
		
			<linearGradient id="XMLID_00000065063997781832490670000004388693514331128960_" gradientUnits="userSpaceOnUse" x1="1703.2894" y1="313.9805" x2="1944.1627" y2="313.9805" gradientTransform="matrix(4.489700e-11 -1 -1 -4.489700e-11 457.3437 1703.2894)">
			<stop  offset="0" style="stop-color:#DCC173"/>
			<stop  offset="0.2398" style="stop-color:#AB8136"/>
			<stop  offset="0.5153" style="stop-color:#73582B"/>
			<stop  offset="0.8571" style="stop-color:#DCC173"/>
		</linearGradient>
		<polygon id="XMLID_48_" style="fill:url(#XMLID_00000065063997781832490670000004388693514331128960_);" points="286.7,-240.9 
			286.7,0 0,0 0,-240.9 		"/>
	</g>
</pattern>
<g>
	<g>
		<g>
			<g>
				<g>
					<path class="st3" d="M166.5,281.3c-0.9-0.2-1.8-0.3-2.7-0.5c-5.1-1.6-8.7-4.8-9.9-10.2c-1.7-7.3,2.6-14.3,9.8-16.3
						c4-1.1,7.8-0.6,11.3,1.8c0.3,0.2,0.4,0.1,0.6-0.1c5.5-3.7,12.9-2.9,17.4,1.9c4.4,4.6,5.2,11.5,2,16.7c-0.4,0.7-1,1.4-1.5,2
						c-0.4,0.5-0.8,0.5-1.1,0.2c-0.3-0.3-0.3-0.6,0.1-1.1c1.5-1.8,2.6-3.8,3-6.1c0.7-4.1-0.5-7.7-3.3-10.7c-2.5-2.7-5.6-4-9.3-4
						c-2.4,0-4.6,0.8-6.5,2c0.5,0.5,0.9,0.9,1.4,1.4c2.7-1.6,5.6-1.9,8.7-0.9c2.5,0.8,4.4,2.4,5.7,4.6c2.6,4.3,1.7,9.9-2.1,13.2
						c-3.9,3.4-9.5,3.5-13.5,0.3c-3.8-3-5.6-9.1-2.2-14.1c-0.4-0.5-0.9-0.9-1.3-1.5c-0.8,1.2-1.4,2.3-1.8,3.4
						c-1.6,4.8-0.1,10.1,3.9,13.4c2.5,2.1,5.4,3.1,8.6,3c2.3-0.1,4.3-0.9,6.2-2.1c0.1-0.1,0.3-0.2,0.4-0.3c0.4-0.2,0.7-0.2,0.9,0.2
						c0.2,0.3,0.1,0.6-0.2,0.9c-1,0.7-2.1,1.3-3.3,1.7c-1.2,0.4-2.4,0.7-3.7,0.8c-0.1,0-0.2,0-0.4,0.1c-0.5,0-1,0-1.5,0
						c-0.1,0-0.2-0.1-0.3-0.1c-2.4-0.2-4.6-0.9-6.6-2.3c-0.2-0.1-0.4-0.1-0.6,0c-1.2,0.9-2.6,1.5-4,1.9c-0.8,0.2-1.6,0.3-2.4,0.5
						C167.8,281.3,167.1,281.3,166.5,281.3z M178.6,275.5c3.2,2.1,8.3,1.7,11.6-1.9c3.1-3.4,3.1-8.8-0.1-12.2
						c-3.3-3.6-8.4-3.8-11.5-1.8c1.7,2.4,2.5,5,2.5,7.9C181.1,270.5,180.3,273.1,178.6,275.5z M171.9,259.6c-3.6-2.4-9.1-1.3-12,2.4
						c-3,3.8-2.5,9.2,1.2,12.4c3.5,3.1,8.2,2.9,10.7,1.1C168.6,270.2,168.6,264.9,171.9,259.6z M172.7,276.6c-0.1,0-0.2,0.1-0.3,0.1
						c-2.3,1.3-4.7,1.7-7.3,1.1c-4.8-1-9-5.4-8.3-11.4c0.5-4.8,4.3-8.6,9.2-9.2c6.4-0.8,11.4,4.2,11.8,9.8c0.2,2.2-0.4,4.3-1.6,6.1
						c-0.1,0.1-0.1,0.3-0.1,0.4c0.4,0.4,0.8,0.9,1.3,1.3c3.8-5,3-12.3-2-16.7c-5-4.4-12.7-4-17.3,0.9c-4.6,4.8-4.5,12.5,0.2,17.1
						c4.7,4.7,11.6,4.8,15.8,1.7C173.6,277.5,173.2,277,172.7,276.6z M175.2,272.2c1.8-2.6,1.6-7.1,0-9.2
						C173.5,265.7,173.6,269.8,175.2,272.2z"/>
				</g>
				<g>
					
						<linearGradient id="SVGID_00000101816982099260826920000001984214876273113500_" gradientUnits="userSpaceOnUse" x1="153.4274" y1="267.5577" x2="197.0306" y2="267.5577">
						<stop  offset="0" style="stop-color:#FFFFFF"/>
						<stop  offset="1" style="stop-color:#FFFFFF"/>
					</linearGradient>
					
						<path style="fill:none;stroke:url(#SVGID_00000101816982099260826920000001984214876273113500_);stroke-width:0.1235;stroke-miterlimit:10;" d="
						M166.5,281.3c-0.9-0.2-1.8-0.3-2.7-0.5c-5.1-1.6-8.7-4.8-9.9-10.2c-1.7-7.3,2.6-14.3,9.8-16.3c4-1.1,7.8-0.6,11.3,1.8
						c0.3,0.2,0.4,0.1,0.6-0.1c5.5-3.7,12.9-2.9,17.4,1.9c4.4,4.6,5.2,11.5,2,16.7c-0.4,0.7-1,1.4-1.5,2c-0.4,0.5-0.8,0.5-1.1,0.2
						c-0.3-0.3-0.3-0.6,0.1-1.1c1.5-1.8,2.6-3.8,3-6.1c0.7-4.1-0.5-7.7-3.3-10.7c-2.5-2.7-5.6-4-9.3-4c-2.4,0-4.6,0.8-6.5,2
						c0.5,0.5,0.9,0.9,1.4,1.4c2.7-1.6,5.6-1.9,8.7-0.9c2.5,0.8,4.4,2.4,5.7,4.6c2.6,4.3,1.7,9.9-2.1,13.2
						c-3.9,3.4-9.5,3.5-13.5,0.3c-3.8-3-5.6-9.1-2.2-14.1c-0.4-0.5-0.9-0.9-1.3-1.5c-0.8,1.2-1.4,2.3-1.8,3.4
						c-1.6,4.8-0.1,10.1,3.9,13.4c2.5,2.1,5.4,3.1,8.6,3c2.3-0.1,4.3-0.9,6.2-2.1c0.1-0.1,0.3-0.2,0.4-0.3c0.4-0.2,0.7-0.2,0.9,0.2
						c0.2,0.3,0.1,0.6-0.2,0.9c-1,0.7-2.1,1.3-3.3,1.7c-1.2,0.4-2.4,0.7-3.7,0.8c-0.1,0-0.2,0-0.4,0.1c-0.5,0-1,0-1.5,0
						c-0.1,0-0.2-0.1-0.3-0.1c-2.4-0.2-4.6-0.9-6.6-2.3c-0.2-0.1-0.4-0.1-0.6,0c-1.2,0.9-2.6,1.5-4,1.9c-0.8,0.2-1.6,0.3-2.4,0.5
						C167.8,281.3,167.1,281.3,166.5,281.3z M178.6,275.5c3.2,2.1,8.3,1.7,11.6-1.9c3.1-3.4,3.1-8.8-0.1-12.2
						c-3.3-3.6-8.4-3.8-11.5-1.8c1.7,2.4,2.5,5,2.5,7.9C181.1,270.5,180.3,273.1,178.6,275.5z M171.9,259.6c-3.6-2.4-9.1-1.3-12,2.4
						c-3,3.8-2.5,9.2,1.2,12.4c3.5,3.1,8.2,2.9,10.7,1.1C168.6,270.2,168.6,264.9,171.9,259.6z M172.7,276.6c-0.1,0-0.2,0.1-0.3,0.1
						c-2.3,1.3-4.7,1.7-7.3,1.1c-4.8-1-9-5.4-8.3-11.4c0.5-4.8,4.3-8.6,9.2-9.2c6.4-0.8,11.4,4.2,11.8,9.8c0.2,2.2-0.4,4.3-1.6,6.1
						c-0.1,0.1-0.1,0.3-0.1,0.4c0.4,0.4,0.8,0.9,1.3,1.3c3.8-5,3-12.3-2-16.7c-5-4.4-12.7-4-17.3,0.9c-4.6,4.8-4.5,12.5,0.2,17.1
						c4.7,4.7,11.6,4.8,15.8,1.7C173.6,277.5,173.2,277,172.7,276.6z M175.2,272.2c1.8-2.6,1.6-7.1,0-9.2
						C173.5,265.7,173.6,269.8,175.2,272.2z"/>
				</g>
			</g>
			<g>
				<path class="st3" d="M175.3,241.9c0.7-1,1.7-1.7,2.9-1.9c3.1-0.5,5.6,2.6,4.6,5.5c-0.5,1.4-1.5,2.6-2.5,3.7
					c-1.3,1.4-2.7,2.6-4.3,3.7c-0.6,0.4-0.7,0.4-1.3,0c-2.2-1.6-4.3-3.3-5.9-5.5c-0.6-0.8-1-1.6-1.2-2.6c-0.1-0.8,0-1.5,0.3-2.3
					c0.2-0.4,0.5-0.6,0.8-0.4c0.4,0.1,0.5,0.5,0.4,0.9c-0.4,1-0.2,2,0.2,2.9c0.6,1.3,1.6,2.3,2.6,3.3c1,0.9,2.1,1.8,3.3,2.7
					c0.7-0.6,1.5-1.1,2.2-1.7c1.3-1.1,2.6-2.3,3.5-3.8c0.6-0.9,1-1.9,0.6-3.1c-0.4-1.3-1.6-2.1-3-2c-1.4,0.1-2.5,1.1-2.6,2.5
					c0,0.1,0,0.3-0.1,0.4c-0.1,0.4-0.3,0.6-0.7,0.5c-0.3,0-0.5-0.2-0.6-0.6c0-0.2,0-0.5-0.1-0.7c-0.4-1.6-2.2-2.6-3.7-2.1
					c-0.6,0.2-1,0.1-1.1-0.3c-0.1-0.4,0.1-0.7,0.7-0.9c1.5-0.5,3.4,0,4.5,1.3C175,241.5,175.1,241.7,175.3,241.9z"/>
				
					<linearGradient id="SVGID_00000029044077104884822130000014162832938715466390_" gradientUnits="userSpaceOnUse" x1="167.5075" y1="246.5427" x2="183.0011" y2="246.5427">
					<stop  offset="0" style="stop-color:#FFFFFF"/>
					<stop  offset="1" style="stop-color:#FFFFFF"/>
				</linearGradient>
				
					<path style="fill:none;stroke:url(#SVGID_00000029044077104884822130000014162832938715466390_);stroke-width:0.1235;stroke-miterlimit:10;" d="
					M175.3,241.9c0.7-1,1.7-1.7,2.9-1.9c3.1-0.5,5.6,2.6,4.6,5.5c-0.5,1.4-1.5,2.6-2.5,3.7c-1.3,1.4-2.7,2.6-4.3,3.7
					c-0.6,0.4-0.7,0.4-1.3,0c-2.2-1.6-4.3-3.3-5.9-5.5c-0.6-0.8-1-1.6-1.2-2.6c-0.1-0.8,0-1.5,0.3-2.3c0.2-0.4,0.5-0.6,0.8-0.4
					c0.4,0.1,0.5,0.5,0.4,0.9c-0.4,1-0.2,2,0.2,2.9c0.6,1.3,1.6,2.3,2.6,3.3c1,0.9,2.1,1.8,3.3,2.7c0.7-0.6,1.5-1.1,2.2-1.7
					c1.3-1.1,2.6-2.3,3.5-3.8c0.6-0.9,1-1.9,0.6-3.1c-0.4-1.3-1.6-2.1-3-2c-1.4,0.1-2.5,1.1-2.6,2.5c0,0.1,0,0.3-0.1,0.4
					c-0.1,0.4-0.3,0.6-0.7,0.5c-0.3,0-0.5-0.2-0.6-0.6c0-0.2,0-0.5-0.1-0.7c-0.4-1.6-2.2-2.6-3.7-2.1c-0.6,0.2-1,0.1-1.1-0.3
					c-0.1-0.4,0.1-0.7,0.7-0.9c1.5-0.5,3.4,0,4.5,1.3C175,241.5,175.1,241.7,175.3,241.9z"/>
			</g>
			<g>
				<path class="st3" d="M186.5,238.4c-0.1,0.1-0.2,0.3-0.4,0.4c-0.4,0.3-0.8,0.5-1.2,0.7c-0.4,0.2-0.7,0.1-0.9-0.2
					c-0.2-0.3-0.1-0.7,0.3-0.9c0.4-0.3,0.8-0.5,1.3-0.7C186,237.5,186.5,237.8,186.5,238.4z"/>
				
					<linearGradient id="SVGID_00000181802398978033420720000017640188811969858695_" gradientUnits="userSpaceOnUse" x1="183.8034" y1="238.6677" x2="186.5444" y2="238.6677">
					<stop  offset="0" style="stop-color:#FFFFFF"/>
					<stop  offset="1" style="stop-color:#FFFFFF"/>
				</linearGradient>
				
					<path style="fill:none;stroke:url(#SVGID_00000181802398978033420720000017640188811969858695_);stroke-width:0.1235;stroke-miterlimit:10;" d="
					M186.5,238.4c-0.1,0.1-0.2,0.3-0.4,0.4c-0.4,0.3-0.8,0.5-1.2,0.7c-0.4,0.2-0.7,0.1-0.9-0.2c-0.2-0.3-0.1-0.7,0.3-0.9
					c0.4-0.3,0.8-0.5,1.3-0.7C186,237.5,186.5,237.8,186.5,238.4z"/>
			</g>
			<g>
				<path class="st3" d="M164.6,251.2c-0.2-0.2-0.5-0.3-0.5-0.5c-0.1-0.2,0-0.6,0.2-0.7c0.5-0.3,1-0.6,1.5-0.9
					c0.2-0.1,0.5,0,0.7,0.2c0.1,0.1,0.2,0.5,0.1,0.7C166.1,250.6,165.3,250.8,164.6,251.2z"/>
				
					<linearGradient id="SVGID_00000021113942268728706760000006996226901230635172_" gradientUnits="userSpaceOnUse" x1="164.0086" y1="250.1596" x2="166.6442" y2="250.1596">
					<stop  offset="0" style="stop-color:#FFFFFF"/>
					<stop  offset="1" style="stop-color:#FFFFFF"/>
				</linearGradient>
				
					<path style="fill:none;stroke:url(#SVGID_00000021113942268728706760000006996226901230635172_);stroke-width:0.1235;stroke-miterlimit:10;" d="
					M164.6,251.2c-0.2-0.2-0.5-0.3-0.5-0.5c-0.1-0.2,0-0.6,0.2-0.7c0.5-0.3,1-0.6,1.5-0.9c0.2-0.1,0.5,0,0.7,0.2
					c0.1,0.1,0.2,0.5,0.1,0.7C166.1,250.6,165.3,250.8,164.6,251.2z"/>
			</g>
			<g>
				<path class="st3" d="M186.5,250.4c0,0.6-0.5,0.9-0.9,0.7c-0.5-0.2-1-0.5-1.4-0.8c-0.3-0.2-0.4-0.5-0.2-0.8
					c0.2-0.3,0.5-0.4,0.8-0.2c0.5,0.2,0.9,0.5,1.4,0.8C186.3,250.1,186.4,250.3,186.5,250.4z"/>
				
					<linearGradient id="SVGID_00000013873560635855663490000000198188141906147997_" gradientUnits="userSpaceOnUse" x1="183.7938" y1="250.089" x2="186.5437" y2="250.089">
					<stop  offset="0" style="stop-color:#FFFFFF"/>
					<stop  offset="1" style="stop-color:#FFFFFF"/>
				</linearGradient>
				
					<path style="fill:none;stroke:url(#SVGID_00000013873560635855663490000000198188141906147997_);stroke-width:0.1235;stroke-miterlimit:10;" d="
					M186.5,250.4c0,0.6-0.5,0.9-0.9,0.7c-0.5-0.2-1-0.5-1.4-0.8c-0.3-0.2-0.4-0.5-0.2-0.8c0.2-0.3,0.5-0.4,0.8-0.2
					c0.5,0.2,0.9,0.5,1.4,0.8C186.3,250.1,186.4,250.3,186.5,250.4z"/>
			</g>
			<g>
				<path class="st3" d="M166.6,238.9c0,0.6-0.5,0.9-0.9,0.7c-0.5-0.2-1-0.5-1.5-0.8c-0.3-0.2-0.4-0.5-0.2-0.8
					c0.2-0.3,0.5-0.4,0.8-0.3c0.5,0.3,1,0.5,1.4,0.8C166.5,238.6,166.6,238.9,166.6,238.9z"/>
				
					<linearGradient id="SVGID_00000103256109733610278440000013181493209080100508_" gradientUnits="userSpaceOnUse" x1="163.9394" y1="238.6548" x2="166.689" y2="238.6548">
					<stop  offset="0" style="stop-color:#FFFFFF"/>
					<stop  offset="1" style="stop-color:#FFFFFF"/>
				</linearGradient>
				
					<path style="fill:none;stroke:url(#SVGID_00000103256109733610278440000013181493209080100508_);stroke-width:0.1235;stroke-miterlimit:10;" d="
					M166.6,238.9c0,0.6-0.5,0.9-0.9,0.7c-0.5-0.2-1-0.5-1.5-0.8c-0.3-0.2-0.4-0.5-0.2-0.8c0.2-0.3,0.5-0.4,0.8-0.3
					c0.5,0.3,1,0.5,1.4,0.8C166.5,238.6,166.6,238.9,166.6,238.9z"/>
			</g>
			<g>
				<path class="st3" d="M186.7,245c-0.3,0-0.5,0-0.8,0c-0.4,0-0.6-0.3-0.6-0.7c0-0.4,0.2-0.6,0.6-0.6c0.5,0,1.1,0,1.6,0
					c0.4,0,0.6,0.3,0.6,0.6c0,0.4-0.2,0.6-0.6,0.6C187.3,245,187,245,186.7,245C186.7,245,186.7,245,186.7,245z"/>
				
					<linearGradient id="SVGID_00000168802054109003616730000012150216978299860398_" gradientUnits="userSpaceOnUse" x1="185.2415" y1="244.3791" x2="188.1693" y2="244.3791">
					<stop  offset="0" style="stop-color:#FFFFFF"/>
					<stop  offset="1" style="stop-color:#FFFFFF"/>
				</linearGradient>
				
					<path style="fill:none;stroke:url(#SVGID_00000168802054109003616730000012150216978299860398_);stroke-width:0.1235;stroke-miterlimit:10;" d="
					M186.7,245c-0.3,0-0.5,0-0.8,0c-0.4,0-0.6-0.3-0.6-0.7c0-0.4,0.2-0.6,0.6-0.6c0.5,0,1.1,0,1.6,0c0.4,0,0.6,0.3,0.6,0.6
					c0,0.4-0.2,0.6-0.6,0.6C187.3,245,187,245,186.7,245C186.7,245,186.7,245,186.7,245z"/>
			</g>
			<g>
				<path class="st3" d="M163.8,243.8c0.3,0,0.5,0,0.8,0c0.4,0,0.6,0.2,0.6,0.6c0,0.4-0.2,0.6-0.5,0.6c-0.6,0-1.1,0-1.7,0
					c-0.4,0-0.6-0.3-0.6-0.6c0-0.4,0.2-0.6,0.6-0.6C163.2,243.7,163.5,243.8,163.8,243.8z"/>
				
					<linearGradient id="SVGID_00000170257277108939968430000004758134370551136667_" gradientUnits="userSpaceOnUse" x1="162.3187" y1="244.3809" x2="165.2403" y2="244.3809">
					<stop  offset="0" style="stop-color:#FFFFFF"/>
					<stop  offset="1" style="stop-color:#FFFFFF"/>
				</linearGradient>
				
					<path style="fill:none;stroke:url(#SVGID_00000170257277108939968430000004758134370551136667_);stroke-width:0.1235;stroke-miterlimit:10;" d="
					M163.8,243.8c0.3,0,0.5,0,0.8,0c0.4,0,0.6,0.2,0.6,0.6c0,0.4-0.2,0.6-0.5,0.6c-0.6,0-1.1,0-1.7,0c-0.4,0-0.6-0.3-0.6-0.6
					c0-0.4,0.2-0.6,0.6-0.6C163.2,243.7,163.5,243.8,163.8,243.8z"/>
			</g>
		</g>
	</g>
	
		<pattern  id="SVGID_00000124873976170025694040000016772633504082051721_" xlink:href="#Nueva_muestra_de_motivo_1" patternTransform="matrix(1 0 0 1 -2.8513 9.3754)">
	</pattern>
	
		<line style="fill:none;stroke:url(#SVGID_00000124873976170025694040000016772633504082051721_);stroke-width:1.2348;stroke-miterlimit:10;" x1="216.3" y1="571.2" x2="216.3" y2="258.1"/>
	
		<pattern  id="SVGID_00000082327912899772323450000016799450604622637740_" xlink:href="#Nueva_muestra_de_motivo_1" patternTransform="matrix(1 0 0 1 56.1487 56.3754)">
	</pattern>
	<circle style="fill:url(#SVGID_00000082327912899772323450000016799450604622637740_);" cx="216.3" cy="258.1" r="3.6"/>
	
		<pattern  id="SVGID_00000085946474564942159820000014828354725959697555_" xlink:href="#Nueva_muestra_de_motivo_1" patternTransform="matrix(1 0 0 1 56.1487 55.3754)">
	</pattern>
	<circle style="fill:url(#SVGID_00000085946474564942159820000014828354725959697555_);" cx="216.3" cy="364" r="3.6"/>
	
		<pattern  id="SVGID_00000125571347911517079630000000320540374464873134_" xlink:href="#Nueva_muestra_de_motivo_1" patternTransform="matrix(1 0 0 1 56.1487 55.3754)">
	</pattern>
	<circle style="fill:url(#SVGID_00000125571347911517079630000000320540374464873134_);" cx="216.3" cy="466.1" r="3.6"/>
	
		<pattern  id="SVGID_00000126298462012393713080000003671948246153764535_" xlink:href="#Nueva_muestra_de_motivo_1" patternTransform="matrix(1 0 0 1 56.1487 55.3754)">
	</pattern>
	<circle style="fill:url(#SVGID_00000126298462012393713080000003671948246153764535_);" cx="216.3" cy="568.9" r="3.6"/>
	<g>
		<g>
			<path class="st3" d="M237.6,253.9c0.6,0.1,1,0.2,1.3,0.3c0.1,0,0.2,0.1,0.2,0.1c0,0.1,0.1,0.1,0.1,0.3l0.2,2.4c0,0,0,0.1-0.1,0.1
				c-0.1,0-0.1,0-0.1-0.1c-0.4-0.9-0.9-1.6-1.6-2.1c-0.7-0.5-1.4-0.7-2.3-0.7c-1.1,0-2,0.4-2.6,1.3c-0.6,0.8-0.9,2-0.9,3.4
				c0,1.1,0.2,2,0.5,2.9c0.3,0.9,0.8,1.6,1.4,2.1c0.6,0.5,1.3,0.8,2.1,0.8c0.7,0,1.4-0.2,2-0.7c0.6-0.5,1.1-1.2,1.6-2.2
				c0,0,0-0.1,0.1-0.1c0.1,0,0.1,0,0.1,0.1l-0.3,2.4c0,0.1,0,0.2-0.1,0.3c0,0-0.1,0.1-0.2,0.1c-1,0.4-2.1,0.6-3.2,0.6
				c-1.4,0-2.6-0.3-3.5-0.8c-0.9-0.6-1.6-1.3-2.1-2.1c-0.4-0.9-0.7-1.8-0.7-2.7c0-1.1,0.3-2.1,0.9-2.9c0.6-0.8,1.4-1.5,2.4-2
				c1-0.5,2-0.7,3.2-0.7C236.6,253.7,237.1,253.8,237.6,253.9z"/>
			<path class="st3" d="M247,263.6C247.1,263.6,247.1,263.6,247,263.6c0.1,0.1,0.1,0.1,0.1,0.2c-0.4,0.4-0.9,0.7-1.3,0.9
				c-0.4,0.2-0.9,0.3-1.4,0.3c-0.7,0-1.4-0.2-1.9-0.5s-0.9-0.7-1.2-1.2c-0.3-0.5-0.4-1.1-0.4-1.7c0-0.7,0.2-1.3,0.5-1.9
				c0.3-0.6,0.8-1,1.4-1.3c0.6-0.3,1.3-0.5,2-0.5c0.7,0,1.3,0.2,1.6,0.5c0.4,0.3,0.6,0.7,0.6,1.3c0,0.3-0.1,0.5-0.2,0.5h-1.1l-3.1,0
				c0,0.2-0.1,0.5-0.1,0.7c0,1,0.2,1.8,0.7,2.4c0.5,0.6,1.1,0.9,1.9,0.9c0.3,0,0.6,0,0.9-0.1C246.5,263.9,246.8,263.8,247,263.6
				L247,263.6z M243.3,258.7c-0.3,0.3-0.4,0.7-0.6,1.1l2.5-0.1c0-1-0.4-1.5-1-1.5C243.8,258.2,243.5,258.4,243.3,258.7z"/>
			<path class="st3" d="M253.5,258.2c0.2,0.2,0.4,0.4,0.4,0.7c0,0.2-0.1,0.4-0.2,0.6c-0.2,0.2-0.3,0.2-0.6,0.2c-0.2,0-0.3,0-0.4-0.1
				c-0.1-0.1-0.2-0.2-0.3-0.3c-0.1-0.1-0.2-0.2-0.3-0.3c-0.1-0.1-0.2-0.1-0.3-0.1c-0.1,0-0.2,0-0.4,0.1c-0.1,0.1-0.3,0.3-0.6,0.5
				v3.7c0,0.5,0.1,0.8,0.3,0.9c0.2,0.2,0.6,0.3,1.2,0.3c0,0,0.1,0,0.1,0.1c0,0.1,0,0.1-0.1,0.1c-0.4,0-0.7,0-1,0l-1.4,0l-1,0
				c-0.2,0-0.4,0-0.7,0c0,0-0.1,0-0.1-0.1c0-0.1,0-0.1,0.1-0.1c0.4,0,0.6-0.1,0.7-0.3c0.1-0.2,0.2-0.5,0.2-0.9v-3.3
				c0-0.4,0-0.6-0.1-0.8c-0.1-0.2-0.2-0.3-0.4-0.3c-0.2,0-0.5,0.1-0.8,0.2h0c0,0-0.1,0-0.1-0.1c0-0.1,0-0.1,0-0.1l2.4-1.2
				c0.1,0,0.1,0,0.1,0c0.1,0,0.2,0.1,0.4,0.4c0.1,0.2,0.2,0.6,0.2,1c0.5-0.5,0.9-0.8,1.2-1c0.3-0.2,0.6-0.3,0.8-0.3
				C253,257.9,253.3,258,253.5,258.2z"/>
			<path class="st3" d="M260.6,263.6C260.6,263.6,260.7,263.6,260.6,263.6c0.1,0.1,0.1,0.1,0.1,0.2c-0.4,0.4-0.9,0.7-1.3,0.9
				c-0.4,0.2-0.9,0.3-1.4,0.3c-0.7,0-1.4-0.2-1.9-0.5s-0.9-0.7-1.2-1.2c-0.3-0.5-0.4-1.1-0.4-1.7c0-0.7,0.2-1.3,0.5-1.9
				c0.3-0.6,0.8-1,1.4-1.3c0.6-0.3,1.3-0.5,2-0.5c0.7,0,1.3,0.2,1.6,0.5c0.4,0.3,0.6,0.7,0.6,1.3c0,0.3-0.1,0.5-0.2,0.5h-1.1l-3.1,0
				c0,0.2-0.1,0.5-0.1,0.7c0,1,0.2,1.8,0.7,2.4c0.5,0.6,1.1,0.9,1.9,0.9c0.3,0,0.6,0,0.9-0.1C260,263.9,260.3,263.8,260.6,263.6
				L260.6,263.6z M256.9,258.7c-0.3,0.3-0.4,0.7-0.6,1.1l2.5-0.1c0-1-0.4-1.5-1-1.5C257.4,258.2,257.1,258.4,256.9,258.7z"/>
			<path class="st3" d="M274.3,264.6c0,0.1,0,0.1-0.1,0.1c-0.3,0-0.5,0-0.7,0l-1,0l-1,0c-0.2,0-0.4,0-0.7,0c0,0-0.1,0-0.1-0.1
				c0-0.1,0-0.1,0.1-0.1c0.4,0,0.6-0.1,0.7-0.3c0.1-0.2,0.2-0.5,0.2-0.9v-2.5c0-0.6-0.1-1.1-0.3-1.4c-0.2-0.3-0.5-0.4-1-0.4
				c-0.3,0-0.6,0.1-0.9,0.2c-0.3,0.1-0.5,0.3-0.7,0.5v0.1v3.5c0,0.5,0.1,0.8,0.2,0.9c0.1,0.2,0.4,0.3,0.7,0.3c0,0,0.1,0,0.1,0.1
				c0,0.1,0,0.1-0.1,0.1c-0.3,0-0.5,0-0.7,0l-1,0l-1,0c-0.2,0-0.4,0-0.7,0c0,0-0.1,0-0.1-0.1c0-0.1,0-0.1,0.1-0.1
				c0.4,0,0.6-0.1,0.7-0.3c0.1-0.2,0.2-0.5,0.2-0.9v-2.5c0-0.6-0.1-1.1-0.3-1.4c-0.2-0.3-0.5-0.4-1-0.4c-0.3,0-0.6,0.1-0.8,0.2
				c-0.3,0.1-0.5,0.3-0.7,0.5v3.7c0,0.5,0.1,0.8,0.2,0.9c0.1,0.2,0.4,0.3,0.7,0.3c0,0,0.1,0,0.1,0.1c0,0.1,0,0.1-0.1,0.1
				c-0.3,0-0.5,0-0.7,0l-1,0l-1,0c-0.2,0-0.4,0-0.7,0c0,0-0.1,0-0.1-0.1c0-0.1,0-0.1,0.1-0.1c0.4,0,0.6-0.1,0.7-0.3
				c0.1-0.2,0.2-0.5,0.2-0.9v-3.3c0-0.4,0-0.6-0.1-0.8c-0.1-0.2-0.2-0.3-0.4-0.3c-0.2,0-0.5,0.1-0.8,0.2h0c0,0-0.1,0-0.1-0.1
				c0-0.1,0-0.1,0-0.1l2.4-1.2c0.1,0,0.1,0,0.1,0c0.1,0,0.2,0.1,0.4,0.4c0.1,0.2,0.2,0.6,0.2,1c0.8-0.9,1.6-1.4,2.5-1.4
				c0.5,0,1,0.1,1.3,0.4c0.3,0.3,0.5,0.6,0.6,1.1c0.8-1,1.7-1.5,2.6-1.5c0.6,0,1.1,0.2,1.4,0.5c0.3,0.4,0.5,0.9,0.5,1.6v3.3
				c0,0.5,0.1,0.8,0.2,0.9c0.1,0.2,0.4,0.3,0.7,0.3C274.3,264.5,274.3,264.6,274.3,264.6z"/>
			<path class="st3" d="M276.8,264.5c-0.5-0.3-0.9-0.8-1.2-1.3c-0.3-0.6-0.4-1.2-0.4-1.8c0-0.7,0.2-1.4,0.6-1.9
				c0.4-0.5,0.9-0.9,1.5-1.2c0.6-0.3,1.2-0.4,1.8-0.4c0.7,0,1.3,0.2,1.9,0.5c0.5,0.3,0.9,0.8,1.2,1.3c0.3,0.5,0.4,1.1,0.4,1.8
				c0,0.7-0.2,1.3-0.5,1.8c-0.3,0.5-0.8,1-1.4,1.3c-0.6,0.3-1.2,0.4-1.9,0.4C277.9,264.9,277.3,264.8,276.8,264.5z M280.2,263.9
				c0.2-0.4,0.4-1.1,0.4-1.9c0-0.8-0.1-1.5-0.3-2.1s-0.5-1-0.8-1.3c-0.3-0.3-0.7-0.4-1.1-0.4c-0.9,0-1.4,0.8-1.4,2.5
				c0,0.8,0.1,1.5,0.3,2c0.2,0.6,0.5,1.1,0.8,1.4c0.3,0.3,0.7,0.5,1.1,0.5C279.6,264.6,280,264.4,280.2,263.9z"/>
			<path class="st3" d="M291.9,264.6c0,0.1,0,0.1-0.1,0.1c-0.3,0-0.5,0-0.7,0l-1,0l-1,0c-0.2,0-0.4,0-0.7,0c0,0-0.1,0-0.1-0.1
				c0-0.1,0-0.1,0.1-0.1c0.4,0,0.6-0.1,0.7-0.3c0.1-0.2,0.2-0.5,0.2-0.9v-2.5c0-0.6-0.1-1.1-0.3-1.4c-0.2-0.3-0.6-0.4-1.1-0.4
				c-0.3,0-0.6,0.1-0.9,0.2c-0.3,0.1-0.6,0.3-0.8,0.5v3.7c0,0.5,0.1,0.8,0.2,0.9c0.1,0.2,0.4,0.3,0.7,0.3c0,0,0.1,0,0.1,0.1
				c0,0.1,0,0.1-0.1,0.1c-0.3,0-0.5,0-0.7,0l-1,0l-1,0c-0.2,0-0.4,0-0.7,0c0,0-0.1,0-0.1-0.1c0-0.1,0-0.1,0.1-0.1
				c0.4,0,0.6-0.1,0.7-0.3c0.1-0.2,0.2-0.5,0.2-0.9v-3.3c0-0.4,0-0.6-0.1-0.8c-0.1-0.2-0.2-0.3-0.4-0.3c-0.2,0-0.5,0.1-0.8,0.2h0
				c0,0-0.1,0-0.1-0.1c0-0.1,0-0.1,0-0.1l2.4-1.2c0.1,0,0.1,0,0.1,0c0.1,0,0.2,0.1,0.4,0.4c0.1,0.2,0.2,0.6,0.2,1
				c0.8-0.9,1.7-1.4,2.6-1.4c0.6,0,1.1,0.2,1.5,0.6c0.4,0.4,0.5,0.9,0.5,1.6v3.3c0,0.5,0.1,0.8,0.2,0.9c0.1,0.2,0.4,0.3,0.7,0.3
				C291.9,264.5,291.9,264.6,291.9,264.6z"/>
			<path class="st3" d="M292.7,264.6c0-0.1,0-0.1,0.1-0.1c0.4,0,0.6-0.1,0.7-0.3c0.1-0.2,0.2-0.5,0.2-0.9v-3.1c0-0.4,0-0.7-0.1-0.8
				c-0.1-0.2-0.2-0.3-0.4-0.3c-0.2,0-0.4,0.1-0.6,0.2h0c0,0-0.1,0-0.1-0.1c0-0.1,0-0.1,0-0.1l2.6-1.2l0.1,0c0.1,0,0.1,0,0.2,0.1
				c0.1,0.1,0.1,0.1,0.1,0.2v0.4c0,0.5,0,1,0,1.7v3.1c0,0.5,0.1,0.8,0.2,0.9c0.1,0.2,0.4,0.3,0.7,0.3c0,0,0.1,0,0.1,0.1
				c0,0.1,0,0.1-0.1,0.1c-0.3,0-0.5,0-0.7,0l-1,0l-1,0c-0.2,0-0.4,0-0.7,0C292.8,264.7,292.7,264.7,292.7,264.6z M293.7,255.9
				c-0.2-0.2-0.3-0.4-0.3-0.8c0-0.3,0.1-0.5,0.3-0.7c0.2-0.2,0.4-0.3,0.8-0.3s0.6,0.1,0.7,0.3c0.2,0.2,0.3,0.4,0.3,0.7
				c0,0.3-0.1,0.6-0.3,0.8c-0.2,0.2-0.4,0.3-0.7,0.3C294.1,256.2,293.9,256.1,293.7,255.9z"/>
			<path class="st3" d="M305,263.6C305.1,263.6,305.1,263.6,305,263.6c0.1,0.1,0.1,0.2,0.1,0.2l-2.4,1.2c0,0-0.1,0-0.1,0
				c-0.1,0-0.2-0.1-0.3-0.3c-0.1-0.2-0.1-0.5-0.2-0.8c-0.4,0.4-0.8,0.6-1.1,0.8c-0.4,0.2-0.8,0.3-1.3,0.3c-0.5,0-0.9-0.1-1.3-0.4
				c-0.4-0.2-0.7-0.6-0.9-1c-0.2-0.5-0.3-1-0.3-1.7c0-0.8,0.2-1.5,0.6-2.2c0.4-0.6,0.9-1.1,1.5-1.4c0.6-0.3,1.3-0.5,2-0.5
				c0.6,0,1.2,0.1,1.7,0.4c0.3-0.1,0.5-0.3,0.7-0.4c0,0,0,0,0.1,0s0,0,0.1,0c0,0,0,0,0,0.1v4.9c0,0.3,0,0.6,0.1,0.7
				c0.1,0.1,0.2,0.2,0.4,0.2C304.5,263.8,304.7,263.7,305,263.6L305,263.6z M302.2,263.5v-0.2v-3.6c0-0.4-0.1-0.8-0.4-1.1
				c-0.2-0.3-0.6-0.4-1-0.4c-0.6,0-1,0.3-1.4,0.9c-0.3,0.6-0.5,1.3-0.5,2.2c0,0.9,0.1,1.5,0.4,2c0.3,0.5,0.7,0.7,1.3,0.7
				C301.1,264,301.6,263.8,302.2,263.5z"/>
		</g>
	</g>
	<g>
		<g>
			<path class="st17" d="M241.1,288.7c1.9-2.4,4-4.7,4-6.7c0-1.2-0.6-1.9-1.7-1.9c-1,0-1.7,0.6-2,1.6c0,0-0.2,0-0.2,0
				c0.3-1.4,1.3-2.2,2.6-2.2c1.5,0,2.3,0.9,2.3,2.2c0,2.4-3.2,5.1-4.1,6.4c-0.1,0.1,0,0.1,0.1,0.1c3.4,0,4.1,0,4.2-1
				c0,0,0.2,0,0.2,0l0,1.6c0,0.1-0.1,0.2-0.1,0.2h-5.1C241.2,288.9,241.1,288.7,241.1,288.7z"/>
			<path class="st17" d="M248.3,284.2c0-0.4,0.3-0.6,0.6-0.6c0.4,0,0.7,0.2,0.7,0.6c0,0.4-0.3,0.6-0.7,0.6
				C248.5,284.9,248.3,284.6,248.3,284.2z M248.3,288.4c0-0.4,0.3-0.6,0.6-0.6c0.4,0,0.7,0.2,0.7,0.6c0,0.4-0.3,0.7-0.7,0.7
				C248.5,289,248.3,288.8,248.3,288.4z"/>
			<path class="st17" d="M251.2,284.2c0-2.8,1.2-4.8,3.1-4.8c1.8,0,3,2,3,4.8c0,2.9-1.2,4.8-3,4.8
				C252.5,289.1,251.2,287.1,251.2,284.2z M256.2,284.4c0-3.3-0.9-4.8-2.1-4.8c-1.2,0-1.9,1.8-1.9,4.5c0,2.9,0.8,4.7,2.2,4.7
				C255.6,288.8,256.2,287.2,256.2,284.4z"/>
			<path class="st17" d="M258.8,284.2c0-2.8,1.2-4.8,3.1-4.8c1.8,0,3,2,3,4.8c0,2.9-1.2,4.8-3,4.8S258.8,287.1,258.8,284.2z
				 M263.8,284.4c0-3.3-0.9-4.8-2.1-4.8c-1.2,0-1.9,1.8-1.9,4.5c0,2.9,0.8,4.7,2.2,4.7C263.2,288.8,263.8,287.2,263.8,284.4z"/>
			<path class="st17" d="M276.3,285.7c0,2.4-1.9,3.4-3.2,3.4c-0.6,0-1.1-0.1-1.6-0.4v3.1c0,0.8,0.2,1,1.5,1c0.1,0,0.1,0.2,0,0.2
				c-0.5,0-1.2,0-1.9,0c-0.5,0-1,0-1.4,0c0,0,0-0.2,0-0.2c0.8,0,0.9-0.2,0.9-1v-7c0-0.7-0.1-1-0.5-1c-0.2,0-0.5,0.1-0.8,0.2
				c-0.1,0-0.1-0.1-0.1-0.1l1.6-0.8c0,0,0.1,0,0.1,0c0.3,0,0.5,0.4,0.5,1.2c0.9-0.9,1.7-1.3,2.5-1.3
				C275.2,283,276.3,283.9,276.3,285.7z M275.3,286.1c0-1.7-0.9-2.6-1.9-2.6c-0.8,0-1.3,0.4-1.9,1v3.3c0.5,0.6,1.1,0.9,2,0.9
				C274.6,288.7,275.3,287.8,275.3,286.1z"/>
			<path class="st17" d="M277.8,288.4c0-0.4,0.2-0.6,0.7-0.6c0.4,0,0.6,0.2,0.6,0.6c0,0.4-0.2,0.7-0.6,0.7
				C278.1,289,277.8,288.8,277.8,288.4z"/>
			<path class="st17" d="M291.1,288.9c-0.4,0-0.8,0-1.3,0c-0.5,0-1,0-1.3,0c-0.1,0-0.1-0.2,0-0.2c0.8,0,0.9-0.2,0.9-1v-2.4
				c0-1.2-0.4-1.7-1.3-1.7c-0.6,0-1.2,0.4-1.7,0.9c0,0.1,0,0.1,0,0.2v2.9c0,0.8,0.1,1,0.9,1c0.1,0,0.1,0.2,0,0.2c-0.4,0-0.8,0-1.3,0
				s-1,0-1.4,0c0,0,0-0.2,0-0.2c0.8,0,0.9-0.2,0.9-1v-2.4c0-1.2-0.4-1.7-1.3-1.7c-0.6,0-1.2,0.3-1.7,0.9v3.2c0,0.8,0.1,1,0.9,1
				c0,0,0,0.2,0,0.2c-0.4,0-0.8,0-1.4,0c-0.5,0-1,0-1.3,0c0,0,0-0.2,0-0.2c0.8,0,0.9-0.2,0.9-1v-2.9c0-0.7-0.1-1-0.5-1
				c-0.2,0-0.5,0.1-0.8,0.2c-0.1,0-0.2-0.1-0.1-0.1l1.7-0.8c0,0,0.1,0,0.1,0c0.1,0,0.4,0.4,0.4,1.2c0.7-0.9,1.4-1.2,2.2-1.2
				c0.9,0,1.4,0.4,1.6,1.3c0.7-0.9,1.5-1.3,2.2-1.3c1,0,1.6,0.6,1.6,1.8v2.9c0,0.8,0.1,1,0.9,1C291.1,288.7,291.1,288.9,291.1,288.9
				z"/>
			<path class="st17" d="M292.4,288.4c0-0.4,0.2-0.6,0.7-0.6c0.4,0,0.6,0.2,0.6,0.6c0,0.4-0.2,0.7-0.6,0.7
				C292.6,289,292.4,288.8,292.4,288.4z"/>
		</g>
	</g>
	<g>
		<g>
			<path class="st3" d="M243.5,366.7c0,0.1,0,0.1,0,0.1h-3.1c-0.3,0-0.7-0.5-1.4-1.4c-0.7-1-1.5-2.3-2.5-4c-0.1,0-0.2,0-0.4,0
				c-0.4,0-0.8,0-1,0v4c0,0.4,0,0.6,0.1,0.8c0.1,0.2,0.2,0.3,0.3,0.3c0.2,0.1,0.4,0.1,0.8,0.1c0,0,0,0,0,0.1c0,0.1,0,0.1,0,0.1
				c-0.4,0-0.7,0-0.9,0l-1.3,0l-1.3,0c-0.2,0-0.5,0-0.9,0c0,0-0.1,0-0.1-0.1c0-0.1,0-0.1,0.1-0.1c0.4,0,0.6,0,0.8-0.1
				c0.2-0.1,0.3-0.2,0.3-0.3c0.1-0.2,0.1-0.4,0.1-0.8v-8c0-0.3,0-0.6-0.1-0.8c-0.1-0.2-0.2-0.3-0.3-0.3c-0.2-0.1-0.4-0.1-0.8-0.1
				c0,0,0,0,0-0.1c0-0.1,0-0.1,0-0.1l0.9,0c0.5,0,1,0,1.3,0c0.3,0,0.7,0,1.1-0.1c0.1,0,0.3,0,0.5,0c0.2,0,0.4,0,0.7,0
				c1.1,0,1.9,0.2,2.5,0.6c0.6,0.4,0.9,0.9,0.9,1.6c0,0.5-0.2,1-0.5,1.5c-0.3,0.5-0.7,0.9-1.3,1.2c0.9,1.5,1.7,2.6,2.3,3.4
				c0.6,0.8,1.2,1.4,1.7,1.8c0.5,0.4,1,0.6,1.4,0.6C243.5,366.6,243.5,366.7,243.5,366.7z M236.2,361c0.4,0,0.7-0.1,1-0.2
				c0.2-0.1,0.4-0.3,0.5-0.7c0.1-0.3,0.2-0.7,0.2-1.3c0-0.9-0.1-1.6-0.4-2c-0.3-0.4-0.7-0.5-1.2-0.5c-0.4,0-0.7,0.1-0.8,0.3
				c-0.2,0.2-0.2,0.5-0.2,0.9v3.5C235.4,361,235.8,361,236.2,361z"/>
			<path class="st3" d="M249.7,365.7C249.8,365.7,249.8,365.7,249.7,365.7c0.1,0.1,0.1,0.1,0.1,0.2c-0.4,0.4-0.9,0.7-1.3,0.9
				c-0.4,0.2-0.9,0.3-1.4,0.3c-0.7,0-1.4-0.2-1.9-0.5c-0.5-0.3-0.9-0.7-1.2-1.2c-0.3-0.5-0.4-1.1-0.4-1.7c0-0.7,0.2-1.3,0.5-1.9
				c0.3-0.6,0.8-1,1.4-1.3c0.6-0.3,1.3-0.5,2-0.5c0.7,0,1.3,0.2,1.6,0.5c0.4,0.3,0.6,0.7,0.6,1.3c0,0.3-0.1,0.5-0.2,0.5h-1.1l-3.1,0
				c0,0.2-0.1,0.5-0.1,0.7c0,1,0.2,1.8,0.7,2.4c0.5,0.6,1.1,0.9,1.9,0.9c0.3,0,0.6,0,0.9-0.1C249.2,366,249.4,365.9,249.7,365.7
				L249.7,365.7z M246,360.8c-0.3,0.3-0.4,0.7-0.6,1.1l2.5-0.1c0-1-0.4-1.5-1-1.5C246.5,360.4,246.2,360.5,246,360.8z"/>
			<path class="st3" d="M252.3,366.6c-0.5-0.3-0.9-0.8-1.2-1.3c-0.3-0.5-0.4-1.1-0.4-1.7c0-0.7,0.2-1.4,0.6-1.9
				c0.4-0.5,0.9-1,1.5-1.3c0.6-0.3,1.3-0.4,1.9-0.4c0.6,0,1.1,0.1,1.5,0.3c0.4,0.2,0.7,0.5,0.7,1c0,0.2-0.1,0.4-0.3,0.6
				c-0.2,0.2-0.4,0.2-0.7,0.2c-0.3,0-0.5-0.1-0.7-0.2c-0.2-0.1-0.3-0.4-0.4-0.7c-0.1-0.3-0.2-0.5-0.3-0.7c-0.1-0.1-0.3-0.2-0.5-0.2
				c-0.5,0-0.9,0.2-1.2,0.7s-0.4,1.1-0.4,1.9c0,1,0.2,1.7,0.6,2.3c0.4,0.6,1.1,0.9,2,0.9c0.3,0,0.6,0,0.8-0.1
				c0.2-0.1,0.5-0.2,0.9-0.3h0c0,0,0.1,0,0.1,0.1c0,0,0,0.1,0,0.1c-0.4,0.4-0.9,0.7-1.3,0.9c-0.4,0.2-0.9,0.3-1.5,0.3
				C253.4,367.1,252.8,366.9,252.3,366.6z"/>
			<path class="st3" d="M264.1,365.7C264.1,365.7,264.1,365.7,264.1,365.7c0.1,0.1,0.1,0.1,0.1,0.2c-0.4,0.4-0.9,0.7-1.3,0.9
				c-0.4,0.2-0.9,0.3-1.4,0.3c-0.7,0-1.4-0.2-1.9-0.5s-0.9-0.7-1.2-1.2c-0.3-0.5-0.4-1.1-0.4-1.7c0-0.7,0.2-1.3,0.5-1.9
				c0.3-0.6,0.8-1,1.4-1.3c0.6-0.3,1.3-0.5,2-0.5c0.7,0,1.3,0.2,1.6,0.5c0.4,0.3,0.6,0.7,0.6,1.3c0,0.3-0.1,0.5-0.2,0.5h-1.1l-3.1,0
				c0,0.2-0.1,0.5-0.1,0.7c0,1,0.2,1.8,0.7,2.4c0.5,0.6,1.1,0.9,1.9,0.9c0.3,0,0.6,0,0.9-0.1C263.5,366,263.8,365.9,264.1,365.7
				L264.1,365.7z M260.3,360.8c-0.3,0.3-0.4,0.7-0.6,1.1l2.5-0.1c0-1-0.4-1.5-1-1.5C260.9,360.4,260.6,360.5,260.3,360.8z"/>
			<path class="st3" d="M267.6,366.9v3.3c0,0.3,0,0.6,0.1,0.8s0.2,0.3,0.4,0.3c0.2,0.1,0.5,0.1,1,0.1c0,0,0.1,0,0.1,0.1
				c0,0.1,0,0.1-0.1,0.1c-0.4,0-0.8,0-1,0l-1.4,0l-1,0c-0.2,0-0.4,0-0.7,0c0,0-0.1,0-0.1-0.1c0-0.1,0-0.1,0.1-0.1
				c0.3,0,0.5,0,0.6-0.1c0.1-0.1,0.2-0.2,0.3-0.3s0.1-0.4,0.1-0.8v-8c0-0.4,0-0.6-0.1-0.8c-0.1-0.2-0.2-0.2-0.4-0.2
				c-0.2,0-0.4,0.1-0.8,0.2h0c0,0-0.1,0-0.1-0.1c0-0.1,0-0.1,0-0.1l2.5-1.2c0,0,0.1,0,0.1,0c0.1,0,0.2,0.1,0.3,0.3
				c0.1,0.2,0.2,0.5,0.2,0.8c0.8-0.8,1.7-1.1,2.6-1.1c0.5,0,0.9,0.1,1.4,0.4c0.4,0.3,0.8,0.6,1,1.1c0.3,0.5,0.4,1,0.4,1.7
				c0,0.9-0.2,1.7-0.6,2.3c-0.4,0.6-0.9,1-1.4,1.3c-0.6,0.3-1.2,0.4-1.8,0.4C268.6,367.1,268.1,367,267.6,366.9z M267.6,361.5v0.1
				v4.2c0.3,0.3,0.5,0.5,0.8,0.6c0.3,0.1,0.6,0.2,1,0.2c1.2,0,1.7-1,1.7-3c0-0.9-0.2-1.6-0.6-2s-0.9-0.7-1.5-0.7
				C268.5,360.9,268.1,361.1,267.6,361.5z"/>
			<path class="st3" d="M275.6,366.6c-0.5-0.3-0.9-0.8-1.2-1.3c-0.3-0.5-0.4-1.1-0.4-1.7c0-0.7,0.2-1.4,0.6-1.9
				c0.4-0.5,0.9-1,1.5-1.3c0.6-0.3,1.3-0.4,1.9-0.4c0.6,0,1.1,0.1,1.5,0.3c0.4,0.2,0.7,0.5,0.7,1c0,0.2-0.1,0.4-0.3,0.6
				c-0.2,0.2-0.4,0.2-0.7,0.2c-0.3,0-0.5-0.1-0.7-0.2c-0.2-0.1-0.3-0.4-0.4-0.7c-0.1-0.3-0.2-0.5-0.3-0.7c-0.1-0.1-0.3-0.2-0.5-0.2
				c-0.5,0-0.9,0.2-1.2,0.7c-0.3,0.5-0.4,1.1-0.4,1.9c0,1,0.2,1.7,0.6,2.3c0.4,0.6,1.1,0.9,2,0.9c0.3,0,0.6,0,0.8-0.1
				c0.2-0.1,0.5-0.2,0.9-0.3h0c0,0,0.1,0,0.1,0.1c0,0,0,0.1,0,0.1c-0.4,0.4-0.9,0.7-1.3,0.9c-0.4,0.2-0.9,0.3-1.5,0.3
				C276.8,367.1,276.1,366.9,275.6,366.6z"/>
			<path class="st3" d="M281.4,366.7c0-0.1,0-0.1,0.1-0.1c0.4,0,0.6-0.1,0.7-0.3c0.1-0.2,0.2-0.5,0.2-0.9v-3.1c0-0.4,0-0.7-0.1-0.8
				c-0.1-0.2-0.2-0.3-0.4-0.3c-0.1,0-0.4,0.1-0.6,0.2h0c0,0-0.1,0-0.1-0.1c0-0.1,0-0.1,0-0.1l2.6-1.2l0.1,0c0.1,0,0.1,0,0.2,0.1
				c0.1,0.1,0.1,0.1,0.1,0.2v0.4c0,0.5,0,1,0,1.7v3.1c0,0.5,0.1,0.8,0.2,0.9c0.1,0.2,0.4,0.3,0.7,0.3c0,0,0.1,0,0.1,0.1
				c0,0.1,0,0.1-0.1,0.1c-0.3,0-0.5,0-0.7,0l-1,0l-1,0c-0.2,0-0.4,0-0.7,0C281.5,366.8,281.4,366.8,281.4,366.7z M282.4,358
				c-0.2-0.2-0.3-0.4-0.3-0.8c0-0.3,0.1-0.5,0.3-0.7c0.2-0.2,0.4-0.3,0.8-0.3c0.3,0,0.6,0.1,0.7,0.3c0.2,0.2,0.3,0.4,0.3,0.7
				c0,0.3-0.1,0.6-0.3,0.8c-0.2,0.2-0.4,0.3-0.7,0.3C282.8,358.3,282.6,358.2,282.4,358z"/>
			<path class="st3" d="M287.6,366.6c-0.5-0.3-0.9-0.8-1.2-1.3c-0.3-0.6-0.4-1.2-0.4-1.8c0-0.7,0.2-1.4,0.6-1.9
				c0.4-0.5,0.9-0.9,1.5-1.2c0.6-0.3,1.2-0.4,1.8-0.4c0.7,0,1.3,0.2,1.9,0.5c0.5,0.3,0.9,0.8,1.2,1.3c0.3,0.5,0.4,1.1,0.4,1.8
				c0,0.7-0.2,1.3-0.5,1.8c-0.3,0.5-0.8,1-1.4,1.3c-0.6,0.3-1.2,0.4-1.9,0.4C288.8,367.1,288.1,366.9,287.6,366.6z M291,366
				c0.2-0.4,0.4-1.1,0.4-1.9c0-0.8-0.1-1.5-0.3-2.1c-0.2-0.6-0.5-1-0.8-1.3c-0.3-0.3-0.7-0.4-1.1-0.4c-0.9,0-1.4,0.8-1.4,2.5
				c0,0.8,0.1,1.5,0.3,2c0.2,0.6,0.5,1.1,0.8,1.4c0.3,0.3,0.7,0.5,1.1,0.5C290.4,366.7,290.8,366.5,291,366z M289.5,358.7
				C289.5,358.7,289.5,358.7,289.5,358.7c-0.1,0-0.1-0.1-0.1-0.1l0.6-4.1c0,0,0.2-0.1,0.6-0.2c0.4-0.1,0.7-0.1,0.9-0.1
				c0.2,0,0.2,0,0.2,0.1L289.5,358.7C289.6,358.7,289.6,358.7,289.5,358.7z"/>
			<path class="st3" d="M302.7,366.7c0,0.1,0,0.1-0.1,0.1c-0.3,0-0.5,0-0.7,0l-1,0l-1,0c-0.2,0-0.4,0-0.7,0c0,0-0.1,0-0.1-0.1
				c0-0.1,0-0.1,0.1-0.1c0.4,0,0.6-0.1,0.7-0.3c0.1-0.2,0.2-0.5,0.2-0.9V363c0-0.6-0.1-1.1-0.3-1.4c-0.2-0.3-0.6-0.4-1.1-0.4
				c-0.3,0-0.6,0.1-0.9,0.2c-0.3,0.1-0.5,0.3-0.8,0.5v3.7c0,0.5,0.1,0.8,0.2,0.9c0.1,0.2,0.4,0.3,0.7,0.3c0,0,0.1,0,0.1,0.1
				c0,0.1,0,0.1-0.1,0.1c-0.3,0-0.5,0-0.7,0l-1,0l-1,0c-0.2,0-0.4,0-0.7,0c0,0-0.1,0-0.1-0.1c0-0.1,0-0.1,0.1-0.1
				c0.4,0,0.6-0.1,0.7-0.3c0.1-0.2,0.2-0.5,0.2-0.9v-3.2c0-0.4,0-0.6-0.1-0.8c-0.1-0.2-0.2-0.3-0.4-0.3c-0.2,0-0.5,0.1-0.8,0.2h0
				c0,0-0.1,0-0.1-0.1c0-0.1,0-0.1,0-0.1l2.4-1.2c0.1,0,0.1,0,0.1,0c0.1,0,0.2,0.1,0.4,0.4c0.1,0.2,0.2,0.6,0.2,1
				c0.8-0.9,1.7-1.4,2.6-1.4c0.6,0,1.1,0.2,1.5,0.6c0.4,0.4,0.5,0.9,0.5,1.6v3.3c0,0.5,0.1,0.8,0.2,0.9c0.1,0.2,0.4,0.3,0.7,0.3
				C302.7,366.6,302.7,366.7,302.7,366.7z"/>
		</g>
	</g>
	<g>
		<g>
			<path class="st17" d="M244.2,388.4l-1.2,0v1.5c0,0.9,0.1,1,1.1,1c0.1,0,0.1,0.2,0,0.2c-0.4,0-0.9,0-1.5,0c-0.7,0-1.4,0-1.9,0
				c-0.1,0-0.1-0.2,0-0.2c1.3,0,1.4-0.1,1.4-1v-1.5c-1,0-2.2,0-3.7,0c-0.1,0-0.2-0.1-0.1-0.2l4.5-6.4c0.1-0.1,0.2,0,0.2,0.1v6.1
				l1.2,0C244.3,387.7,244.3,388.4,244.2,388.4z M242.1,387.8v-4.6l-3.1,4.5c-0.1,0.1,0,0.1,0.1,0.1
				C240.3,387.8,241.2,387.8,242.1,387.8z"/>
			<path class="st17" d="M246,386.3c0-0.4,0.3-0.6,0.6-0.6c0.4,0,0.7,0.2,0.7,0.6c0,0.4-0.3,0.6-0.7,0.6
				C246.2,387,246,386.8,246,386.3z M246,390.5c0-0.4,0.3-0.6,0.6-0.6c0.4,0,0.7,0.2,0.7,0.6c0,0.4-0.3,0.7-0.7,0.7
				C246.2,391.1,246,390.9,246,390.5z"/>
			<path class="st17" d="M248.9,386.3c0-2.8,1.2-4.8,3.1-4.8c1.8,0,3,2,3,4.8c0,2.9-1.2,4.8-3,4.8
				C250.1,391.2,248.9,389.2,248.9,386.3z M253.9,386.6c0-3.3-0.9-4.8-2.1-4.8c-1.2,0-1.9,1.8-1.9,4.5c0,2.9,0.8,4.7,2.2,4.7
				C253.3,391,253.9,389.3,253.9,386.6z"/>
			<path class="st17" d="M256.5,386.3c0-2.8,1.2-4.8,3.1-4.8c1.8,0,3,2,3,4.8c0,2.9-1.2,4.8-3,4.8
				C257.7,391.2,256.5,389.2,256.5,386.3z M261.4,386.6c0-3.3-0.9-4.8-2.1-4.8c-1.2,0-1.9,1.8-1.9,4.5c0,2.9,0.8,4.7,2.2,4.7
				C260.9,391,261.4,389.3,261.4,386.6z"/>
			<path class="st17" d="M274,387.8c0,2.4-1.9,3.4-3.2,3.4c-0.6,0-1.1-0.1-1.6-0.4v3.1c0,0.8,0.2,1,1.5,1c0.1,0,0.1,0.2,0,0.2
				c-0.5,0-1.2,0-1.9,0c-0.5,0-1,0-1.4,0c0,0,0-0.2,0-0.2c0.8,0,0.9-0.2,0.9-1v-7c0-0.7-0.1-1-0.5-1c-0.2,0-0.5,0.1-0.8,0.2
				c-0.1,0-0.1-0.1-0.1-0.1l1.6-0.8c0,0,0.1,0,0.1,0c0.3,0,0.5,0.4,0.5,1.2c0.9-0.9,1.7-1.3,2.5-1.3
				C272.9,385.1,274,386.1,274,387.8z M273,388.3c0-1.7-0.9-2.6-1.9-2.6c-0.8,0-1.3,0.4-1.9,1v3.3c0.5,0.6,1.1,0.9,2,0.9
				C272.3,390.9,273,389.9,273,388.3z"/>
			<path class="st17" d="M275.5,390.5c0-0.4,0.2-0.6,0.7-0.6c0.4,0,0.6,0.2,0.6,0.6c0,0.4-0.2,0.7-0.6,0.7
				C275.8,391.1,275.5,390.9,275.5,390.5z"/>
			<path class="st17" d="M288.8,391c-0.4,0-0.8,0-1.3,0c-0.5,0-1,0-1.3,0c-0.1,0-0.1-0.2,0-0.2c0.8,0,0.9-0.2,0.9-1v-2.4
				c0-1.2-0.4-1.7-1.3-1.7c-0.6,0-1.2,0.4-1.7,0.9c0,0.1,0,0.1,0,0.2v2.9c0,0.8,0.1,1,0.9,1c0.1,0,0.1,0.2,0,0.2c-0.4,0-0.8,0-1.3,0
				s-1,0-1.4,0c0,0,0-0.2,0-0.2c0.8,0,0.9-0.2,0.9-1v-2.4c0-1.2-0.4-1.7-1.3-1.7c-0.6,0-1.2,0.3-1.7,0.9v3.2c0,0.8,0.1,1,0.9,1
				c0,0,0,0.2,0,0.2c-0.4,0-0.8,0-1.4,0c-0.5,0-1,0-1.3,0c0,0,0-0.2,0-0.2c0.8,0,0.9-0.2,0.9-1v-2.9c0-0.7-0.1-1-0.5-1
				c-0.2,0-0.5,0.1-0.8,0.2c-0.1,0-0.2-0.1-0.1-0.1l1.7-0.8c0,0,0.1,0,0.1,0c0.1,0,0.4,0.4,0.4,1.2c0.7-0.9,1.4-1.2,2.2-1.2
				c0.9,0,1.4,0.4,1.6,1.3c0.7-0.9,1.5-1.3,2.2-1.3c1,0,1.6,0.6,1.6,1.8v2.9c0,0.8,0.1,1,0.9,1C288.8,390.8,288.8,391,288.8,391z"/>
			<path class="st17" d="M290.1,390.5c0-0.4,0.2-0.6,0.7-0.6c0.4,0,0.6,0.2,0.6,0.6c0,0.4-0.2,0.7-0.6,0.7
				C290.3,391.1,290.1,390.9,290.1,390.5z"/>
		</g>
	</g>
	<g>
		<g>
			<path class="st3" d="M255.8,458.7c0.6,0.1,1,0.2,1.3,0.3c0.1,0,0.2,0.1,0.2,0.1c0,0.1,0.1,0.1,0.1,0.3l0.2,2.4c0,0,0,0.1-0.1,0.1
				c-0.1,0-0.1,0-0.1-0.1c-0.4-0.9-0.9-1.6-1.6-2.1c-0.7-0.5-1.4-0.7-2.3-0.7c-1.1,0-2,0.4-2.6,1.3c-0.6,0.8-0.9,2-0.9,3.4
				c0,1.1,0.2,2,0.5,2.9c0.3,0.9,0.8,1.6,1.4,2.1c0.6,0.5,1.3,0.8,2.1,0.8c0.7,0,1.4-0.2,2-0.7c0.6-0.5,1.1-1.2,1.6-2.2
				c0,0,0-0.1,0.1-0.1c0.1,0,0.1,0,0.1,0.1l-0.3,2.4c0,0.1,0,0.2-0.1,0.3c0,0-0.1,0.1-0.2,0.1c-1,0.4-2.1,0.6-3.2,0.6
				c-1.4,0-2.6-0.3-3.5-0.8c-0.9-0.6-1.6-1.3-2.1-2.1c-0.4-0.9-0.7-1.8-0.7-2.7c0-1.1,0.3-2.1,0.9-2.9c0.6-0.8,1.4-1.5,2.4-2
				c1-0.5,2-0.7,3.2-0.7C254.7,458.6,255.3,458.7,255.8,458.7z"/>
			<path class="st3" d="M265.2,468.5C265.3,468.5,265.3,468.5,265.2,468.5c0.1,0.1,0.1,0.1,0.1,0.2c-0.4,0.4-0.9,0.7-1.3,0.9
				c-0.4,0.2-0.9,0.3-1.4,0.3c-0.7,0-1.4-0.2-1.9-0.5c-0.5-0.3-0.9-0.7-1.2-1.2c-0.3-0.5-0.4-1.1-0.4-1.7c0-0.7,0.2-1.3,0.5-1.9
				c0.3-0.6,0.8-1,1.4-1.3c0.6-0.3,1.3-0.5,2-0.5c0.7,0,1.3,0.2,1.6,0.5c0.4,0.3,0.6,0.7,0.6,1.3c0,0.3-0.1,0.5-0.2,0.5H264l-3.1,0
				c0,0.2-0.1,0.5-0.1,0.7c0,1,0.2,1.8,0.7,2.4c0.5,0.6,1.1,0.9,1.9,0.9c0.3,0,0.6,0,0.9-0.1C264.7,468.8,264.9,468.6,265.2,468.5
				L265.2,468.5z M261.5,463.5c-0.3,0.3-0.4,0.7-0.6,1.1l2.5-0.1c0-1-0.4-1.5-1-1.5C262,463.1,261.7,463.3,261.5,463.5z"/>
			<path class="st3" d="M274.6,469.5c0,0.1,0,0.1-0.1,0.1c-0.3,0-0.5,0-0.7,0l-1,0l-1,0c-0.2,0-0.4,0-0.7,0c0,0-0.1,0-0.1-0.1
				c0-0.1,0-0.1,0.1-0.1c0.4,0,0.6-0.1,0.7-0.3c0.1-0.2,0.2-0.5,0.2-0.9v-2.5c0-0.6-0.1-1.1-0.3-1.4c-0.2-0.3-0.6-0.4-1.1-0.4
				c-0.3,0-0.6,0.1-0.9,0.2c-0.3,0.1-0.6,0.3-0.8,0.5v3.7c0,0.5,0.1,0.8,0.2,0.9c0.1,0.2,0.4,0.3,0.7,0.3c0,0,0.1,0,0.1,0.1
				c0,0.1,0,0.1-0.1,0.1c-0.3,0-0.5,0-0.7,0l-1,0l-1,0c-0.2,0-0.4,0-0.7,0c0,0-0.1,0-0.1-0.1c0-0.1,0-0.1,0.1-0.1
				c0.4,0,0.6-0.1,0.7-0.3c0.1-0.2,0.2-0.5,0.2-0.9V465c0-0.4,0-0.6-0.1-0.8c-0.1-0.2-0.2-0.3-0.4-0.3c-0.2,0-0.5,0.1-0.8,0.2h0
				c0,0-0.1,0-0.1-0.1c0-0.1,0-0.1,0-0.1l2.4-1.2c0.1,0,0.1,0,0.1,0c0.1,0,0.2,0.1,0.4,0.4c0.1,0.2,0.2,0.6,0.2,1
				c0.8-0.9,1.7-1.4,2.6-1.4c0.6,0,1.1,0.2,1.5,0.6c0.4,0.4,0.5,0.9,0.5,1.6v3.3c0,0.5,0.1,0.8,0.2,0.9c0.1,0.2,0.4,0.3,0.7,0.3
				C274.6,469.4,274.6,469.4,274.6,469.5z"/>
			<path class="st3" d="M283.2,468.5C283.3,468.5,283.3,468.5,283.2,468.5c0.1,0.1,0.1,0.2,0.1,0.2l-2.4,1.2c0,0-0.1,0-0.1,0
				c-0.1,0-0.2-0.1-0.3-0.3c-0.1-0.2-0.1-0.5-0.2-0.8c-0.4,0.4-0.8,0.6-1.1,0.8c-0.4,0.2-0.8,0.3-1.3,0.3c-0.5,0-0.9-0.1-1.3-0.4
				c-0.4-0.2-0.7-0.6-0.9-1c-0.2-0.5-0.3-1-0.3-1.7c0-0.8,0.2-1.5,0.6-2.2c0.4-0.6,0.9-1.1,1.5-1.4c0.6-0.3,1.3-0.5,2-0.5
				c0.6,0,1.2,0.1,1.7,0.4c0.3-0.1,0.5-0.3,0.7-0.4c0,0,0,0,0.1,0c0,0,0,0,0.1,0c0,0,0,0,0,0.1v4.9c0,0.3,0,0.6,0.1,0.7
				c0.1,0.1,0.2,0.2,0.4,0.2C282.6,468.7,282.9,468.6,283.2,468.5L283.2,468.5z M280.4,468.4v-0.2v-3.6c0-0.4-0.1-0.8-0.4-1.1
				c-0.2-0.3-0.6-0.4-1-0.4c-0.6,0-1,0.3-1.4,0.9c-0.3,0.6-0.5,1.3-0.5,2.2c0,0.9,0.1,1.5,0.4,2c0.3,0.5,0.7,0.7,1.3,0.7
				C279.3,468.9,279.8,468.7,280.4,468.4z"/>
		</g>
	</g>
	<g>
		<g>
			<path class="st17" d="M244.9,491.2c0,1.6-1.2,2.8-2.9,2.8c-1.9,0-2.8-1.5-2.8-3.5c0-2.8,1.7-5.9,4.7-6.1c0.1,0,0.1,0.1,0,0.1
				c-2.5,0.5-3.7,3.2-3.7,5.7c0,1.8,0.6,3.5,2.2,3.5c1.1,0,1.5-0.8,1.5-2.1c0-1.5-0.6-2.4-1.6-2.4c-0.4,0-0.8,0.1-1.3,0.6
				c-0.1,0-0.2-0.1-0.1-0.1c0.5-0.6,1.1-0.9,1.8-0.9C244.1,488.7,244.9,489.9,244.9,491.2z"/>
			<path class="st17" d="M246.5,489.1c0-0.4,0.3-0.6,0.6-0.6c0.4,0,0.7,0.2,0.7,0.6c0,0.4-0.3,0.6-0.7,0.6
				C246.8,489.8,246.5,489.5,246.5,489.1z M246.5,493.3c0-0.4,0.3-0.6,0.6-0.6c0.4,0,0.7,0.2,0.7,0.6c0,0.4-0.3,0.7-0.7,0.7
				C246.8,493.9,246.5,493.7,246.5,493.3z"/>
			<path class="st17" d="M249.5,489.1c0-2.8,1.2-4.8,3.1-4.8c1.8,0,3,2,3,4.8c0,2.9-1.2,4.8-3,4.8S249.5,492,249.5,489.1z
				 M254.5,489.3c0-3.3-0.9-4.8-2.1-4.8c-1.2,0-1.9,1.8-1.9,4.5c0,2.9,0.8,4.7,2.2,4.7C253.9,493.7,254.5,492.1,254.5,489.3z"/>
			<path class="st17" d="M257.1,489.1c0-2.8,1.2-4.8,3.1-4.8c1.8,0,3,2,3,4.8c0,2.9-1.2,4.8-3,4.8
				C258.3,493.9,257.1,492,257.1,489.1z M262,489.3c0-3.3-0.9-4.8-2.1-4.8c-1.2,0-1.9,1.8-1.9,4.5c0,2.9,0.8,4.7,2.2,4.7
				C261.5,493.7,262,492.1,262,489.3z"/>
			<path class="st17" d="M274.6,490.6c0,2.4-1.9,3.4-3.2,3.4c-0.6,0-1.1-0.1-1.6-0.4v3.1c0,0.8,0.2,1,1.5,1c0.1,0,0.1,0.2,0,0.2
				c-0.5,0-1.2,0-1.9,0c-0.5,0-1,0-1.4,0c0,0,0-0.2,0-0.2c0.8,0,0.9-0.2,0.9-1v-7c0-0.7-0.1-1-0.5-1c-0.2,0-0.5,0.1-0.8,0.2
				c-0.1,0-0.1-0.1-0.1-0.1l1.6-0.8c0,0,0.1,0,0.1,0c0.3,0,0.5,0.4,0.5,1.2c0.9-0.9,1.7-1.3,2.5-1.3
				C273.5,487.8,274.6,488.8,274.6,490.6z M273.6,491c0-1.7-0.9-2.6-1.9-2.6c-0.8,0-1.3,0.4-1.9,1v3.3c0.5,0.6,1.1,0.9,2,0.9
				C272.8,493.6,273.6,492.7,273.6,491z"/>
			<path class="st17" d="M276.1,493.3c0-0.4,0.2-0.6,0.7-0.6c0.4,0,0.6,0.2,0.6,0.6c0,0.4-0.2,0.7-0.6,0.7
				C276.3,493.9,276.1,493.7,276.1,493.3z"/>
			<path class="st17" d="M289.4,493.7c-0.4,0-0.8,0-1.3,0s-1,0-1.3,0c-0.1,0-0.1-0.2,0-0.2c0.8,0,0.9-0.2,0.9-1v-2.4
				c0-1.2-0.4-1.7-1.3-1.7c-0.6,0-1.2,0.4-1.7,0.9c0,0.1,0,0.1,0,0.2v2.9c0,0.8,0.1,1,0.9,1c0.1,0,0.1,0.2,0,0.2c-0.4,0-0.8,0-1.3,0
				s-1,0-1.4,0c0,0,0-0.2,0-0.2c0.8,0,0.9-0.2,0.9-1v-2.4c0-1.2-0.4-1.7-1.3-1.7c-0.6,0-1.2,0.3-1.7,0.9v3.2c0,0.8,0.1,1,0.9,1
				c0,0,0,0.2,0,0.2c-0.4,0-0.8,0-1.4,0c-0.5,0-1,0-1.3,0c0,0,0-0.2,0-0.2c0.8,0,0.9-0.2,0.9-1v-2.9c0-0.7-0.1-1-0.5-1
				c-0.2,0-0.5,0.1-0.8,0.2c-0.1,0-0.2-0.1-0.1-0.1l1.7-0.8c0,0,0.1,0,0.1,0c0.1,0,0.4,0.4,0.4,1.2c0.7-0.9,1.4-1.2,2.2-1.2
				c0.9,0,1.4,0.4,1.6,1.3c0.7-0.9,1.5-1.3,2.2-1.3c1,0,1.6,0.6,1.6,1.8v2.9c0,0.8,0.1,1,0.9,1C289.4,493.6,289.4,493.7,289.4,493.7
				z"/>
			<path class="st17" d="M290.7,493.3c0-0.4,0.2-0.6,0.7-0.6c0.4,0,0.6,0.2,0.6,0.6c0,0.4-0.2,0.7-0.6,0.7
				C290.9,493.9,290.7,493.7,290.7,493.3z"/>
		</g>
	</g>
	<g>
		<g>
			<path class="st3" d="M256.6,566.1c0.6,0.5,0.9,1.2,0.9,2c0,0.6-0.2,1.1-0.5,1.6c-0.3,0.5-0.8,0.9-1.4,1.1c-0.6,0.3-1.3,0.4-2,0.4
				c-0.3,0-0.7,0-1.1-0.1c-0.2,0-0.4,0-0.6,0c-0.2,0-0.5,0-0.8,0l-1.3,0c-0.2,0-0.5,0-0.9,0c0,0-0.1,0-0.1-0.1c0-0.1,0-0.1,0.1-0.1
				c0.3,0,0.6,0,0.8-0.1c0.2-0.1,0.3-0.2,0.4-0.3c0.1-0.2,0.1-0.4,0.1-0.8v-8c0-0.5-0.1-0.8-0.2-1c-0.2-0.2-0.5-0.2-1-0.2
				c0,0,0,0,0-0.1c0-0.1,0-0.1,0-0.1l0.9,0c0.5,0,1,0,1.3,0c0.3,0,0.7,0,1-0.1c0.1,0,0.3,0,0.5,0c0.2,0,0.4,0,0.6,0
				c1,0,1.9,0.2,2.4,0.6c0.6,0.4,0.9,0.9,0.9,1.7c0,0.6-0.2,1.1-0.5,1.5c-0.4,0.4-0.9,0.8-1.6,1.1
				C255.2,565.2,256,565.6,256.6,566.1z M252.1,561c-0.1,0.2-0.2,0.4-0.2,0.9v3.3l0.7,0c0.6,0,1.1-0.2,1.4-0.7
				c0.3-0.4,0.5-1,0.5-1.7c0-0.7-0.1-1.2-0.4-1.5c-0.3-0.3-0.7-0.5-1.2-0.5C252.5,560.7,252.3,560.8,252.1,561z M255.4,568.5
				c0-0.9-0.2-1.6-0.6-2.1c-0.4-0.5-1.1-0.8-1.9-0.8c-0.3,0-0.6,0-0.9,0v4.2c0,0.4,0.1,0.6,0.2,0.8c0.1,0.2,0.5,0.2,1,0.2
				C254.7,570.8,255.4,570.1,255.4,568.5z"/>
			<path class="st3" d="M266.7,570.1C266.8,570.1,266.8,570.1,266.7,570.1c0.1,0.1,0.1,0.2,0.1,0.2l-2.4,1.2c0,0-0.1,0-0.1,0
				c-0.1,0-0.2-0.1-0.3-0.3c-0.1-0.2-0.1-0.5-0.2-0.8c-0.4,0.4-0.8,0.6-1.1,0.8c-0.4,0.2-0.8,0.3-1.3,0.3c-0.5,0-0.9-0.1-1.3-0.4
				c-0.4-0.2-0.7-0.6-0.9-1c-0.2-0.5-0.3-1-0.3-1.7c0-0.8,0.2-1.5,0.6-2.2c0.4-0.6,0.9-1.1,1.5-1.4c0.6-0.3,1.3-0.5,2-0.5
				c0.6,0,1.2,0.1,1.7,0.4c0.3-0.1,0.5-0.3,0.7-0.4c0,0,0,0,0.1,0c0,0,0,0,0.1,0c0,0,0,0,0,0.1v4.9c0,0.3,0,0.6,0.1,0.7
				c0.1,0.1,0.2,0.2,0.4,0.2C266.1,570.3,266.4,570.2,266.7,570.1L266.7,570.1z M263.9,570v-0.2v-3.6c0-0.4-0.1-0.8-0.4-1.1
				c-0.2-0.3-0.6-0.4-1-0.4c-0.6,0-1,0.3-1.4,0.9c-0.3,0.6-0.5,1.3-0.5,2.2c0,0.9,0.1,1.5,0.4,2c0.3,0.5,0.7,0.7,1.3,0.7
				C262.8,570.5,263.3,570.3,263.9,570z"/>
			<path class="st3" d="M267.4,571.1c0-0.1,0-0.1,0.1-0.1c0.4,0,0.6-0.1,0.7-0.3c0.1-0.2,0.2-0.5,0.2-0.9v-3.1c0-0.4,0-0.7-0.1-0.8
				c-0.1-0.2-0.2-0.3-0.4-0.3c-0.1,0-0.4,0.1-0.6,0.2h0c0,0-0.1,0-0.1-0.1c0-0.1,0-0.1,0-0.1l2.6-1.2l0.1,0c0.1,0,0.1,0,0.2,0.1
				c0.1,0.1,0.1,0.1,0.1,0.2v0.4c0,0.5,0,1,0,1.7v3.1c0,0.5,0.1,0.8,0.2,0.9c0.1,0.2,0.4,0.3,0.7,0.3c0,0,0.1,0,0.1,0.1
				c0,0.1,0,0.1-0.1,0.1c-0.3,0-0.5,0-0.7,0l-1,0l-1,0c-0.2,0-0.4,0-0.7,0C267.4,571.2,267.4,571.2,267.4,571.1z M268.4,562.4
				c-0.2-0.2-0.3-0.4-0.3-0.8c0-0.3,0.1-0.5,0.3-0.7c0.2-0.2,0.4-0.3,0.8-0.3c0.3,0,0.6,0.1,0.7,0.3c0.2,0.2,0.3,0.4,0.3,0.7
				c0,0.3-0.1,0.6-0.3,0.8c-0.2,0.2-0.4,0.3-0.7,0.3C268.8,562.6,268.5,562.6,268.4,562.4z"/>
			<path class="st3" d="M271.9,571.1c0-0.1,0-0.1,0-0.1c0.4,0,0.6-0.1,0.7-0.3c0.1-0.2,0.2-0.5,0.2-0.9l0-8.8c0-0.4,0-0.7-0.1-0.9
				s-0.2-0.3-0.4-0.3c-0.1,0-0.4,0.1-0.7,0.2h0c0,0-0.1,0-0.1-0.1c0-0.1,0-0.1,0-0.1l2.5-1.2l0.1,0c0.1,0,0.1,0,0.2,0.1
				c0.1,0.1,0.1,0.1,0.1,0.1v10.9c0,0.5,0.1,0.8,0.2,0.9c0.1,0.2,0.4,0.3,0.7,0.3c0,0,0.1,0,0.1,0.1c0,0.1,0,0.1-0.1,0.1
				c-0.3,0-0.5,0-0.7,0l-1.1,0l-1,0c-0.2,0-0.4,0-0.7,0C271.9,571.2,271.9,571.2,271.9,571.1z"/>
			<path class="st3" d="M282.7,570.1C282.7,570.1,282.7,570.1,282.7,570.1c0.1,0.1,0.1,0.1,0.1,0.2c-0.4,0.4-0.9,0.7-1.3,0.9
				c-0.4,0.2-0.9,0.3-1.4,0.3c-0.7,0-1.4-0.2-1.9-0.5c-0.5-0.3-0.9-0.7-1.2-1.2c-0.3-0.5-0.4-1.1-0.4-1.7c0-0.7,0.2-1.3,0.5-1.9
				c0.3-0.6,0.8-1,1.4-1.3c0.6-0.3,1.3-0.5,2-0.5c0.7,0,1.3,0.2,1.6,0.5c0.4,0.3,0.6,0.7,0.6,1.3c0,0.3-0.1,0.5-0.2,0.5h-1.1l-3.1,0
				c0,0.2-0.1,0.5-0.1,0.7c0,1,0.2,1.8,0.7,2.4c0.5,0.6,1.1,0.9,1.9,0.9c0.3,0,0.6,0,0.9-0.1S282.4,570.2,282.7,570.1L282.7,570.1z
				 M278.9,565.1c-0.3,0.3-0.4,0.7-0.6,1.1l2.5-0.1c0-1-0.4-1.5-1-1.5C279.5,564.7,279.2,564.9,278.9,565.1z"/>
		</g>
	</g>
	<g>
		<g>
			<path class="st17" d="M245.6,593c0,1.6-1.4,2.6-3.1,2.6c-1.9,0-2.9-1.1-2.9-2.5c0-1.3,1-2.4,2.1-3c-0.7-0.5-1.2-1.1-1.2-2.1
				c0-1.3,1.2-2.1,2.4-2.1c1.3,0,2.1,0.8,2.1,1.9c0,0.9-0.6,1.7-1.4,2.3C244.6,590.7,245.6,591.5,245.6,593z M244.7,593.4
				c0-1.5-1.2-2.1-2.3-2.8c-0.2-0.1-0.4-0.3-0.6-0.4c-0.8,0.6-1.3,1.5-1.3,2.5c0,1.5,0.9,2.6,2.3,2.6
				C244,595.3,244.7,594.6,244.7,593.4z M241.2,587.5c0,1.2,1,1.8,2.1,2.5h0c0.5-0.5,0.7-1.2,0.7-2c0-1.2-0.7-1.8-1.6-1.8
				C241.7,586.2,241.2,586.7,241.2,587.5z"/>
			<path class="st17" d="M247.1,590.7c0-0.4,0.3-0.6,0.6-0.6c0.4,0,0.7,0.2,0.7,0.6c0,0.4-0.3,0.6-0.7,0.6
				C247.4,591.3,247.1,591.1,247.1,590.7z M247.1,594.9c0-0.4,0.3-0.6,0.6-0.6c0.4,0,0.7,0.2,0.7,0.6c0,0.4-0.3,0.7-0.7,0.7
				C247.4,595.5,247.1,595.3,247.1,594.9z"/>
			<path class="st17" d="M250.1,590.7c0-2.8,1.2-4.8,3.1-4.8c1.8,0,3,2,3,4.8c0,2.9-1.2,4.8-3,4.8S250.1,593.6,250.1,590.7z
				 M255,590.9c0-3.3-0.9-4.8-2.1-4.8c-1.2,0-1.9,1.8-1.9,4.5c0,2.9,0.8,4.7,2.2,4.7C254.5,595.3,255,593.7,255,590.9z"/>
			<path class="st17" d="M257.6,590.7c0-2.8,1.2-4.8,3.1-4.8c1.8,0,3,2,3,4.8c0,2.9-1.2,4.8-3,4.8
				C258.9,595.5,257.6,593.6,257.6,590.7z M262.6,590.9c0-3.3-0.9-4.8-2.1-4.8c-1.2,0-1.9,1.8-1.9,4.5c0,2.9,0.8,4.7,2.2,4.7
				C262.1,595.3,262.6,593.7,262.6,590.9z"/>
			<path class="st17" d="M275.1,592.2c0,2.4-1.9,3.4-3.2,3.4c-0.6,0-1.1-0.1-1.6-0.4v3.1c0,0.8,0.2,1,1.5,1c0.1,0,0.1,0.2,0,0.2
				c-0.5,0-1.2,0-1.9,0c-0.5,0-1,0-1.4,0c0,0,0-0.2,0-0.2c0.8,0,0.9-0.2,0.9-1v-7c0-0.7-0.1-1-0.5-1c-0.2,0-0.5,0.1-0.8,0.2
				c-0.1,0-0.1-0.1-0.1-0.1l1.6-0.8c0,0,0.1,0,0.1,0c0.3,0,0.5,0.4,0.5,1.2c0.9-0.9,1.7-1.3,2.5-1.3
				C274.1,589.4,275.1,590.4,275.1,592.2z M274.2,592.6c0-1.7-0.9-2.6-1.9-2.6c-0.8,0-1.3,0.4-1.9,1v3.3c0.5,0.6,1.1,0.9,2,0.9
				C273.4,595.2,274.2,594.3,274.2,592.6z"/>
			<path class="st17" d="M276.7,594.9c0-0.4,0.2-0.6,0.7-0.6c0.4,0,0.6,0.2,0.6,0.6c0,0.4-0.2,0.7-0.6,0.7
				C276.9,595.5,276.7,595.3,276.7,594.9z"/>
			<path class="st17" d="M289.9,595.3c-0.4,0-0.8,0-1.3,0c-0.5,0-1,0-1.3,0c-0.1,0-0.1-0.2,0-0.2c0.8,0,0.9-0.2,0.9-1v-2.4
				c0-1.2-0.4-1.7-1.3-1.7c-0.6,0-1.2,0.4-1.7,0.9c0,0.1,0,0.1,0,0.2v2.9c0,0.8,0.1,1,0.9,1c0.1,0,0.1,0.2,0,0.2c-0.4,0-0.8,0-1.3,0
				s-1,0-1.4,0c0,0,0-0.2,0-0.2c0.8,0,0.9-0.2,0.9-1v-2.4c0-1.2-0.4-1.7-1.3-1.7c-0.6,0-1.2,0.3-1.7,0.9v3.2c0,0.8,0.1,1,0.9,1
				c0,0,0,0.2,0,0.2c-0.4,0-0.8,0-1.4,0c-0.5,0-1,0-1.3,0c0,0,0-0.2,0-0.2c0.8,0,0.9-0.2,0.9-1v-2.9c0-0.7-0.1-1-0.5-1
				c-0.2,0-0.5,0.1-0.8,0.2c-0.1,0-0.2-0.1-0.1-0.1l1.7-0.8c0,0,0.1,0,0.1,0c0.1,0,0.4,0.4,0.4,1.2c0.7-0.9,1.4-1.2,2.2-1.2
				c0.9,0,1.4,0.4,1.6,1.3c0.7-0.9,1.5-1.3,2.2-1.3c1,0,1.6,0.6,1.6,1.8v2.9c0,0.8,0.1,1,0.9,1C290,595.2,290,595.3,289.9,595.3z"/>
			<path class="st17" d="M291.2,594.9c0-0.4,0.2-0.6,0.7-0.6c0.4,0,0.6,0.2,0.6,0.6c0,0.4-0.2,0.7-0.6,0.7
				C291.5,595.5,291.2,595.3,291.2,594.9z"/>
		</g>
	</g>
	<g>
		<g>
			<g>
				<path class="st18" d="M178.1,579.2L178.1,579.2c-0.2,0-0.4-0.1-0.4-0.3l-0.8-3.1l-3.1-0.8c-0.2-0.1-0.3-0.2-0.3-0.4
					s0.1-0.4,0.3-0.4l3.1-0.8l0.8-3.1c0.1-0.4,0.8-0.4,0.9,0l0.8,3.1l3.1,0.8c0.2,0.1,0.3,0.2,0.3,0.4s-0.1,0.4-0.3,0.4l-3.1,0.8
					l-0.8,3.1C178.5,579.1,178.3,579.2,178.1,579.2z M175.5,574.5l1.7,0.5c0.2,0,0.3,0.2,0.3,0.3l0.5,1.7l0.5-1.7
					c0-0.2,0.2-0.3,0.3-0.3l1.7-0.5l-1.7-0.5c-0.2,0-0.3-0.2-0.3-0.3l-0.5-1.7l-0.5,1.7c0,0.2-0.2,0.3-0.3,0.3L175.5,574.5z"/>
				<path class="st18" d="M181.7,551.3L181.7,551.3c-0.2,0-0.4-0.1-0.4-0.3l-0.8-3.1l-3.1-0.8c-0.2-0.1-0.3-0.2-0.3-0.4
					c0-0.2,0.1-0.4,0.3-0.4l3.1-0.8l0.8-3.1c0.1-0.4,0.8-0.4,0.9,0l0.8,3.1l3.1,0.8c0.2,0.1,0.3,0.2,0.3,0.4c0,0.2-0.1,0.4-0.3,0.4
					l-3.1,0.8l-0.8,3.1C182,551.2,181.9,551.3,181.7,551.3z M179.1,546.6l1.7,0.5c0.2,0,0.3,0.2,0.3,0.3l0.5,1.7l0.5-1.7
					c0-0.2,0.2-0.3,0.3-0.3l1.7-0.5l-1.7-0.5c-0.2,0-0.3-0.2-0.3-0.3l-0.5-1.7l-0.5,1.7c0,0.2-0.2,0.3-0.3,0.3L179.1,546.6z"/>
				<path class="st18" d="M194.3,561.1L194.3,561.1c-0.2,0-0.4-0.1-0.4-0.3l-0.8-3.1l-3.1-0.8c-0.2-0.1-0.3-0.2-0.3-0.4
					s0.1-0.4,0.3-0.4l3.1-0.8l0.8-3.1c0.1-0.4,0.8-0.4,0.9,0l0.8,3.1l3.1,0.8c0.2,0.1,0.3,0.2,0.3,0.4s-0.1,0.4-0.3,0.4l-3.1,0.8
					l-0.8,3.1C194.7,560.9,194.5,561.1,194.3,561.1z M191.8,556.3l1.7,0.5c0.2,0,0.3,0.2,0.3,0.3l0.5,1.7l0.5-1.7
					c0-0.2,0.2-0.3,0.3-0.3l1.7-0.5l-1.7-0.5c-0.2,0-0.3-0.2-0.3-0.3l-0.5-1.7l-0.5,1.7c0,0.2-0.2,0.3-0.3,0.3L191.8,556.3z"/>
				<g>
					<path class="st18" d="M167.7,574.4c-2.5,0-4.5-2-4.5-4.5c0-2.5,2-4.5,4.5-4.5c1,0,1.9,0.3,2.7,0.9l2.4-8l-10.2-2.8l-3.2,10.9
						c0,0,0,0.1-0.1,0.1c-0.7,1.7-2.3,2.8-4.1,2.8c-2.5,0-4.5-2-4.5-4.5c0-2.5,2-4.5,4.5-4.5c1,0,1.9,0.3,2.7,0.9l3.6-12
						c0.1-0.2,0.3-0.4,0.6-0.3l14.7,3.8c0.1,0,0.2,0.1,0.3,0.2c0.1,0.1,0.1,0.2,0,0.4l-5.2,18c0,0,0,0.1-0.1,0.1
						C171.1,573.3,169.5,574.4,167.7,574.4z M167.7,566.4c-2,0-3.5,1.6-3.5,3.5c0,1.9,1.6,3.5,3.5,3.5c1.5,0,2.8-0.9,3.3-2.3
						c0,0,0,0,0-0.1l5-17.4l-13.8-3.5l-3.7,12.3c0,0.2-0.2,0.3-0.3,0.3c-0.2,0-0.3,0-0.4-0.1c-0.7-0.7-1.6-1.1-2.6-1.1
						c-2,0-3.5,1.6-3.5,3.5c0,2,1.6,3.5,3.5,3.5c1.5,0,2.8-0.9,3.3-2.3c0,0,0,0,0-0.1l3.3-11.2c0.1-0.2,0.3-0.4,0.6-0.3l11.1,3.1
						c0.1,0,0.2,0.1,0.3,0.2c0.1,0.1,0.1,0.2,0,0.4l-2.7,9.1c0,0.2-0.2,0.3-0.3,0.3c-0.2,0-0.3,0-0.4-0.1
						C169.5,566.8,168.6,566.4,167.7,566.4z"/>
				</g>
				<g>
					<path class="st18" d="M186.2,586.6c-0.2,0-0.4,0-0.5,0c-1.2-0.1-2.2-0.7-3-1.7c-0.7-0.9-1.1-2.1-0.9-3.3c0.1-1.2,0.7-2.2,1.7-3
						c0.8-0.6,1.7-0.9,2.7-0.9l-6.5-16.6c-0.1-0.2,0-0.4,0.1-0.5c0.1-0.1,3.6-3.3,7.4-1.7c0.1,0,0.2,0.1,0.2,0.2l1.4,3
						c0.1,0.2,0.1,0.4-0.1,0.5c-0.1,0.1-0.3,0.2-0.5,0.1c-1-0.3-3.7-0.8-5.1-0.1l7.3,18c0,0,0,0.1,0,0.1c0.5,1.8-0.1,3.7-1.5,4.8
						C188.2,586.3,187.2,586.6,186.2,586.6z M186.2,578.6c-0.8,0-1.5,0.3-2.2,0.7c-0.7,0.6-1.2,1.4-1.3,2.4
						c-0.1,0.9,0.1,1.9,0.7,2.6c0.6,0.7,1.4,1.2,2.4,1.3c0.9,0.1,1.9-0.1,2.6-0.7c1.2-0.9,1.6-2.5,1.2-3.9c0,0,0,0,0-0.1l-7.4-18.3
						c-0.1-0.2,0-0.4,0.1-0.5c1.4-1.1,3.9-0.8,5.2-0.5l-0.9-1.9c-2.7-1-5.3,0.8-6.1,1.4l6.7,16.9c0.1,0.2,0,0.3-0.1,0.5
						c-0.1,0.1-0.3,0.2-0.4,0.2C186.6,578.6,186.4,578.6,186.2,578.6z"/>
				</g>
			</g>
		</g>
	</g>
	<g>
		<g>
			<g>
				<g>
					<path class="st18" d="M156.6,476.1c-8.8-3.8-12.8-14.1-9-22.9c3.8-8.8,14.1-12.8,22.9-9c8.8,3.8,12.8,14.1,9,22.9
						C175.7,475.9,165.4,479.9,156.6,476.1z M170.2,444.9c-8.4-3.7-18.2,0.2-21.8,8.6c-3.7,8.4,0.2,18.2,8.6,21.8
						c8.4,3.7,18.2-0.2,21.8-8.6C182.4,458.4,178.6,448.6,170.2,444.9z"/>
					<path class="st18" d="M157.3,474.5c-7.9-3.4-11.5-12.6-8.1-20.5c3.4-7.9,12.6-11.5,20.5-8.1c7.9,3.4,11.5,12.6,8.1,20.5
						C174.5,474.3,165.2,477.9,157.3,474.5z M169.5,446.6c-7.5-3.3-16.2,0.2-19.5,7.7c-3.3,7.5,0.2,16.2,7.7,19.5
						c7.5,3.3,16.2-0.2,19.5-7.7C180.4,458.6,177,449.8,169.5,446.6z"/>
					<path class="st18" d="M158.9,471c-6-2.6-8.7-9.6-6.1-15.6c2.6-6,9.6-8.7,15.6-6.1s8.7,9.6,6.1,15.6
						C171.8,470.8,164.8,473.6,158.9,471z M168,450.1c-5.6-2.4-12.1,0.1-14.5,5.7c-2.4,5.6,0.1,12.1,5.7,14.5
						c5.6,2.4,12.1-0.1,14.5-5.7C176.1,459,173.5,452.5,168,450.1z"/>
				</g>
				<g>
					<path class="st18" d="M192.6,473c-0.6-0.2-1-0.8-1-1.8l0-13.5c-0.4-0.5-1.7-2.2-1.4-5.7c0.2-2.7,2.5-9.9,3.9-9.9
						c0.4,0,0.6,0.4,0.6,1c0,0.3,0,25.6,0,28.1l0,0c0,1.3-0.8,1.9-1.5,1.9C193,473.1,192.8,473,192.6,473z M193.8,443.2
						c-0.9,1.3-2.6,5.9-2.8,8.8c-0.3,3.7,1.3,5.2,1.3,5.2c0.1,0.1,0.1,0.2,0.1,0.3l0,13.7c0,0.7,0.4,1.1,0.8,1.1
						c0.4,0,0.7-0.4,0.7-1.1l0,0C193.8,468.8,193.8,445.1,193.8,443.2z"/>
				</g>
				<g>
					<path class="st18" d="M183.9,472.9c0,0-0.1,0-0.1-0.1c-0.4-0.2-0.6-0.5-0.6-0.9l0-20.4c-0.4,0-1-0.2-1.5-0.6
						c-0.4-0.4-0.6-1-0.7-1.7l0-6c0-0.5,0.2-0.9,0.6-1.1c0.4-0.2,0.9-0.2,1.3,0c0.4,0.2,0.6,0.6,0.6,1.1l0,3.6c0,0,0.1,0,0.1,0
						l0-3.6c0-0.9,0.6-1.4,1.3-1.4c0.6,0,1.2,0.5,1.2,1.4l0,3.6c0,0,0.1,0,0.1,0l0-3.5c0-0.8,0.7-1.3,1.3-1.3c0.6,0,1.2,0.4,1.2,1.3
						l0,6c0,0.7-0.2,1.2-0.6,1.6c-0.5,0.5-1.3,0.7-1.7,0.7l0,20.4c0,0.7-0.6,1.1-1.6,1.1C184.4,473.1,184.1,473,183.9,472.9z
						 M183.7,450.8c0,0,0.1,0,0.1,0.1c0.1,0.1,0.1,0.2,0.1,0.3l0,20.8c0,0,0,0.1,0.1,0.2c0.1,0.1,0.4,0.1,0.6,0.1
						c0.4,0,0.7-0.2,0.7-0.3l0-20.8c0-0.1,0-0.2,0.1-0.3c0.1-0.1,0.2-0.1,0.3-0.1c0,0,1,0,1.5-0.5c0.3-0.2,0.4-0.6,0.4-1l0-6
						c0-0.4-0.3-0.5-0.4-0.5c-0.2,0-0.5,0.1-0.5,0.5l0,3.6c0,0.4-0.4,0.8-0.9,0.8c-0.5,0-0.8-0.3-0.8-0.8l0-3.6
						c0-0.3-0.2-0.6-0.4-0.6c-0.2,0-0.4,0.2-0.4,0.6l0,3.6c0,0.5-0.3,0.8-0.8,0.8c-0.5,0-0.9-0.4-0.9-0.8l0-3.6
						c0-0.2-0.1-0.3-0.2-0.4c-0.1-0.1-0.4-0.1-0.5,0c-0.1,0.1-0.2,0.2-0.2,0.4l0,6c0,0.5,0.1,0.8,0.4,1.1c0.5,0.5,1.3,0.4,1.3,0.4
						C183.6,450.8,183.7,450.8,183.7,450.8z M186.1,446.9L186.1,446.9L186.1,446.9z"/>
				</g>
			</g>
		</g>
	</g>
	<g>
		<g>
			
				<linearGradient id="SVGID_00000139296167101100893080000013534467692306585483_" gradientUnits="userSpaceOnUse" x1="153.0403" y1="368.5736" x2="196.7082" y2="368.5736">
				<stop  offset="0" style="stop-color:#FFFFFF"/>
				<stop  offset="1" style="stop-color:#FFFFFF"/>
			</linearGradient>
			
				<path style="fill:#7F5F1F;stroke:url(#SVGID_00000139296167101100893080000013534467692306585483_);stroke-width:0.3087;stroke-miterlimit:10;" d="
				M196.6,384.2c-0.2,0.5-0.6,0.6-1.2,0.6c-8.9,0-17.9,0-26.8,0c-0.1,0-0.2,0-0.3,0c-0.5,0-0.8-0.4-0.8-0.8c0-0.5,0.3-0.8,0.8-0.9
				c0.6,0,1.2,0,1.9,0c0-1,0-2,0-2.9c0-0.4,0-0.8,0-1.1c0-0.4-0.1-0.7-0.5-0.8c-1.6-0.6-3.1-0.5-4.5,0.5c-0.5,0.4-0.8,0.4-1.4,0
				c-1.2-1-3.4-1.1-4.7-0.3c-0.1,0.1-0.3,0.3-0.3,0.4c0,1.4,0,2.7,0,4.1c0,0.1,0,0.1,0,0.2c0.6,0,1.1,0,1.7,0c0.6,0,1,0.3,1,0.8
				c0,0.5-0.4,0.9-1,0.9c-2.1,0-4.2,0-6.4,0c-0.6,0-1-0.3-1-1c0-1.9,0-3.8,0-5.8c0-1.4,0.4-2.7,1.4-3.7c0.1-0.1,0.2-0.3,0.2-0.5
				c0.5-3.4,1.1-6.8,1.5-10.2c0.1-1.1,0-2.2,0-3.3c0-1.2,0.3-2.3,0.8-3.4c1.5-3.2,4.9-5.1,8.4-4.6c3.5,0.5,6.3,3.3,6.8,6.7
				c0.1,0.6,0.1,1.3,0.1,1.9c-0.1,1.9,0.2,3.7,0.5,5.5c0.4,2.4,0.7,4.7,1,7.1c0.1,0.6,0.6,0.9,0.8,1.4c0.1,0,0.1,0,0.1,0
				c1-1.4,2.6-2.1,4.2-2.6c0.7-0.2,1.5-0.4,2.2-0.6c0.3-0.1,0.4-0.2,0.4-0.5c0.1-0.8-0.2-1.4-0.9-1.9c-1.6-1.3-2.7-2.9-3.1-4.9
				c-0.1-0.3-0.1-0.6-0.1-0.9c0-1.4,0-2.7,0-4.1c0.1-3.5,2.6-6.4,6-7.1c4.1-0.8,8,1.7,8.9,5.8c0.1,0.4,0.1,0.8,0.1,1.3
				c0,1.4,0,2.8,0,4.1c0,1.9-0.9,3.5-2.2,4.8c-0.5,0.5-1.1,1-1.6,1.4c-0.1,0.1-0.2,0.3-0.2,0.4c0,0,0,0.1,0,0.2c0,1.2,0,1.2,1.1,1.5
				c1.4,0.4,2.8,0.8,4.1,1.6c1.4,0.9,2.2,2.1,2.4,3.7c0,0.1,0,0.2,0.1,0.2C196.6,379.8,196.6,382,196.6,384.2z M162.6,371.3
				c0,0.4,0,0.7,0,1c0,0.5-0.2,0.8-0.7,1c-0.4,0.1-0.8,0.2-1.3,0.4c-1.1,0.4-2.2,0.7-3.3,1.1c-1.6,0.7-2.4,1.9-2.4,3.7
				c0,1.5,0,2.9,0,4.4c0,0.1,0,0.2,0,0.3c0.8,0,1.5,0,2.2,0c0-1.4,0-2.9,0-4.3c0-0.8,0.3-1.4,1-1.8c2-1.1,4-1,6-0.1
				c0.3,0.1,0.4,0.1,0.7,0c1.9-0.9,3.9-1,5.8,0c0.9,0.4,1.2,1.1,1.2,2.1c0,1.3,0,2.5,0,3.8c0,0.1,0,0.2,0,0.4c0.7,0,1.5,0,2.2,0
				c0-1.8,0-3.6,0-5.4c0-1.1-0.5-2-1.5-2.5c-0.7-0.4-1.4-0.7-2.2-1c-1.1-0.4-2.2-0.6-3.3-1c-0.5-0.2-0.7-0.4-0.7-1
				c0-0.3,0-0.6,0-0.9C165.1,371.7,163.9,371.8,162.6,371.3z M191.1,361.7c-0.3,0.1-0.7,0.2-1,0.3c-2.2,0.7-4.3,0.7-6.3-0.4
				c-0.3-0.2-0.7-0.3-1.1-0.5c-0.9-0.4-1.9-0.5-2.9-0.3c-0.3,0.1-0.4,0.2-0.4,0.5c0,0.7,0,1.4,0,2.1c0.1,0.6,0.1,1.3,0.4,1.8
				c0.7,1.7,1.9,3,3.6,3.8c1.2,0.6,2.5,0.7,3.7,0C189.7,367.8,191.6,365.4,191.1,361.7z M170.8,362.6c0-0.8,0-1.5,0-2.2
				c-0.1-4.2-4-7.2-8-6c-3.7,1.1-5.1,4.4-4.6,7.8c1.1-0.6,2.1-1.4,2.8-2.4c0.4-0.5,0.8-0.6,1.3-0.2
				C164.9,361.2,167.8,362,170.8,362.6z M169.9,364.1c-0.2-0.1-0.3-0.1-0.4-0.1c-2.6-0.5-5.1-1.3-7.3-2.7c-0.1,0-0.3,0-0.3,0
				c-0.8,0.6-1.6,1.3-2.4,2c-0.1,0.1-0.2,0.2-0.2,0.3c0,0.4,0,0.9,0,1.3c0.5,2.4,2,3.9,4.2,4.8c0.8,0.3,1.6,0.3,2.3,0
				c1.9-0.8,3.2-2.1,3.9-4C169.7,365.2,169.8,364.7,169.9,364.1z M179.5,359.2c0.1,0,0.1,0,0.1,0c0.1,0,0.2,0,0.3,0
				c0.8,0,1.7,0,2.5,0.1c0.8,0.2,1.6,0.6,2.4,1c0.6,0.2,1.2,0.5,1.8,0.6c1.3,0.2,2.6-0.2,3.8-0.7c0.9-0.3,0.9-0.3,0.7-1.2
				c-0.5-2.4-1.9-4.1-4.3-4.7c-2.4-0.6-4.5,0.1-6.1,2C180,357,179.6,358.1,179.5,359.2z M182.3,383.1c-0.2-0.1-0.3-0.2-0.5-0.3
				c-1.2-0.8-2.5-1.6-3.7-2.4c-0.5-0.3-0.6-0.6-0.5-1.1c0.2-0.7,0.3-1.5,0.5-2.2c0.2-0.9,0.4-1.8,0.6-2.7c-2,0.5-3.1,1.9-3.1,3.8
				c0,1.5,0,3,0,4.6c0,0.1,0,0.2,0,0.3C177.9,383.1,180.1,383.1,182.3,383.1z M194.8,383.1c0-0.1,0-0.1,0-0.1c0-1.5,0-3,0-4.4
				c0-0.4,0-0.8-0.1-1.2c-0.2-1.4-1.7-2.9-3-3c0.4,1.6,0.7,3.2,1.1,4.8c0.2,0.7,0.1,0.9-0.6,1.3c-1.2,0.8-2.4,1.6-3.7,2.3
				c-0.1,0.1-0.2,0.1-0.3,0.2C190.5,383.1,192.7,383.1,194.8,383.1z M156.7,372.9c1.2-0.4,2.3-0.7,3.4-1c0.8-0.2,0.7-0.2,0.8-1
				c0-0.4-0.1-0.6-0.4-0.9c-1.2-0.9-2-2.1-2.6-3.4c0-0.1-0.1-0.2-0.2-0.3C157.4,368.6,157.1,370.7,156.7,372.9z M171.2,366.4
				c-0.7,1.6-1.7,2.9-3.1,3.9c0,0.5,0,1,0,1.4c0,0,0.1,0.1,0.1,0.1c1.3,0.4,2.6,0.8,4,1.2C171.9,370.8,171.5,368.6,171.2,366.4z
				 M185.3,382c0.7-1.4,1.4-2.8,2-4.2c0-0.1,0-0.2-0.1-0.3c-0.6-0.6-1.3-1.2-1.9-1.7c-0.6,0.6-1.2,1.1-1.8,1.6
				c-0.2,0.2-0.3,0.3-0.1,0.6c0.5,1,0.9,1.9,1.4,2.9C184.9,381.3,185.1,381.6,185.3,382z M190.3,375.6c-1,2-1.9,4-2.9,5.9
				c1.2-0.7,2.4-1.4,3.5-2.2c0.1,0,0.1-0.2,0.1-0.3C190.8,378,190.6,376.8,190.3,375.6z M183.1,381.6
				C183.1,381.5,183.1,381.5,183.1,381.6c-0.9-2-1.8-3.9-2.8-6c-0.3,1.2-0.5,2.3-0.8,3.4c0,0.1,0.1,0.3,0.1,0.3
				C180.8,380.1,182,380.8,183.1,381.6z M187.1,371c-1.2,0.5-2.4,0.4-3.7,0c0.1,0.4,0,0.8,0.2,1c0.5,0.6,1.2,1.1,1.8,1.6
				c0.5-0.4,0.9-0.8,1.4-1.1C187.2,372,187.2,371.6,187.1,371z M182.4,376.1c0.5-0.5,1-0.9,1.6-1.4c-0.5-0.4-1-0.9-1.5-1.3
				c-0.1-0.1-0.2-0.1-0.3-0.1c-0.3,0.1-0.7,0.2-1,0.3C181.6,374.5,182,375.3,182.4,376.1z M188.1,376.1c0.4-0.8,0.8-1.6,1.2-2.5
				c-0.3-0.1-0.6-0.2-0.8-0.2c-0.1,0-0.3-0.1-0.4,0c-0.5,0.4-1,0.9-1.6,1.3C187.1,375.2,187.6,375.6,188.1,376.1z"/>
			
				<linearGradient id="SVGID_00000170974088420637900680000006140591670942026681_" gradientUnits="userSpaceOnUse" x1="167.6438" y1="348.2534" x2="182.0941" y2="348.2534">
				<stop  offset="0" style="stop-color:#FFFFFF"/>
				<stop  offset="1" style="stop-color:#FFFFFF"/>
			</linearGradient>
			
				<path style="fill:#7F5F1F;stroke:url(#SVGID_00000170974088420637900680000006140591670942026681_);stroke-width:0.3087;stroke-miterlimit:10;" d="
				M174.9,343c1.2-1,2.5-1.4,4-1.1c1.8,0.5,3.1,2.3,3,4.4c0,1.3-0.5,2.4-1.4,3.3c-1.6,1.6-3.2,3.1-4.9,4.7c-0.5,0.5-1,0.5-1.5,0
				c-1.6-1.6-3.3-3.1-4.9-4.7c-1.4-1.4-1.8-3.1-1.2-5c0.9-2.7,3.9-3.6,6.2-2C174.5,342.7,174.7,342.8,174.9,343z M174.8,352.8
				c0,0,0.1-0.1,0.1-0.1c0,0,0.1-0.1,0.1-0.1c1.5-1.4,2.9-2.8,4.4-4.2c0.8-0.7,1-1.7,0.8-2.7c-0.3-2-2.3-2.8-4-1.5
				c-0.1,0.1-0.3,0.2-0.4,0.4c-0.7,0.6-1.2,0.6-1.9,0c-0.4-0.3-0.7-0.6-1.2-0.8c-1.2-0.5-2.3-0.1-2.9,1.1c-0.7,1.2-0.4,2.7,0.5,3.6
				c1.1,1.1,2.3,2.2,3.5,3.4C174.2,352,174.5,352.4,174.8,352.8z"/>
		</g>
	</g>
	<g>
		<g>
			<path class="st21" d="M183.8,167.2c-0.7,0-1.9,0.5-2.5,0.5c-7.1,13.1-6.7,24.8-16.1,36.7c-6.4,8.3-14.6,12.9-23.1,14.4
				c-16.5,2.8-29.2-4.6-23.7-19.2c1.5-3.9,6.2-7.6,8-7.7c1.2-0.1,0.6,0.5,0.1,0.8c-2,0.9-5.9,4.6-7.1,9.4
				c-3.1,12.8,12.2,17.1,21.6,14.8c17-4.3,26.5-21.5,29.7-30c3.5-9.2,7.6-16.8,8.8-18.9c-10.5,2.3-25.7,6-28.5,18.6
				c-1.3,5.6,1.8,9.5,6.9,7.6c6.1-2.5,5.9-9.4,4.9-10.3c-0.2-0.3,0.8-1.6,1.2-0.5c2.3,4.4-1.3,10.3-6.1,12.1
				c-6.2,2.4-12.4-2-10.8-8.9c3-13.8,22.3-18.3,33.4-20.2c0.5-0.9,2.6-4.2,4.5-4.8c1.8-0.5,3.3-0.2,3.3,1.4
				C188.4,165.5,186.1,166.5,183.8,167.2z M182.4,166.3c5.2-1.1,3.9-2.9,3.2-2.9C184.9,163.1,183.2,165.2,182.4,166.3z"/>
			<path class="st21" d="M189.3,189.3h-3.4c-2,3.4-4.3,6.5-7.8,9.7c-0.5,1.5-1.3,6-1.3,6c-0.9,3.9,1.8,4.5,3.7,3
				c2.7-2,4.6-5.7,6.2-8.8c0.5-1.1,1.3-0.8,0.8,0.4c-2.6,5.4-3.6,7-5.7,9.1c-3.2,3-9,2-8.1-4.4c0.5-4,2.7-10.4,4.6-14.9h-3
				c-0.6,0-0.5-1.3,0.1-1.3h3.5c1.3-2.9,2.8-5.8,4.3-8.3c4-7.1,10.4-6.1,6,3.3c-0.8,1.8-1.6,3.4-2.5,5h2.8
				C190,188,189.9,189.3,189.3,189.3z M181.8,189.3c-1.2,2.9-2.3,5.7-3.2,7.8c2.2-2.3,4.2-5,5.9-7.8H181.8z M186.6,179.5
				c-1.4,2-2.7,5.2-4.2,8.6h2.9c1.1-2,2.1-4,2.9-6C189.4,179.6,190.2,174.4,186.6,179.5z"/>
			<path class="st21" d="M188.7,209c0.9,0.1,2-0.5,2.6-1.1c1.9-1.9,3.9-5.6,5.5-8.8c0.5-1.1,1.3-0.6,0.8,0.5
				c-1.5,3.3-4.9,10.7-9.2,10.7c-4.4,0-4.4-4.6-3.2-7.6l3.7-9.5c0.5-1.1-0.4-2.2-0.6-2.5l3.2-0.1c1.9,0,1.9,0.6,1.2,2l-4.7,11
				c0,0-0.6,1.3-0.7,1.7C187,207.3,187.1,208.9,188.7,209z M193,188.2c-1.3,0-2.2-1.1-2-2.4c0.2-1.3,1.5-2.4,2.8-2.4
				c1.3,0,2.3,1.1,2,2.4C195.5,187.2,194.3,188.2,193,188.2z"/>
			<path class="st21" d="M207.7,210.5c-2.1,0-4.9-1.4-3.1-6.9c0.5-1.5,1.6-3.5,3.2-6.2c1.4-2.3,0.4-3.9-4.2,0.4
				c-2,1.8-4.9,5.1-8.1,11.6c-0.5,0.8-1,0.9-2.2,0.9c-0.9,0.1-1.4,0-2,0.4c2.8-5.6,5.2-11.1,8.1-16.4c1.5-2.8,2.3-3.8,4.2-3.7
				c0.8,0.1,1.6,0.4,2.5,0.2c-1.8,0.9-5,6.8-7.1,11c1.2-1.5,3-3.7,4.9-5.3c2.8-2.5,8.8-6.2,10.8-5.5c0,0-6.3,11-7,15.1
				c-0.5,2.4,0.2,2.9,0.9,2.9c3,0,6.8-7.7,8-10.1c0.5-1.1,1.4-0.6,0.8,0.5C215.6,203.1,212.2,210.5,207.7,210.5z"/>
			<path class="st21" d="M220.7,210.5c-2.9,0-5.6-1.9-5.6-5.6c-0.1-3.5,1.9-7.9,4.5-11c3-3.5,7.4-5.7,10-3.8
				c2.2,1.7,0.5,5.7-3.2,8.6c-1.8,1.3-5.6,2.6-7.2,2.6c-0.9,2.1-1.9,8,2,8c5.2,0,8.3-6.9,9.7-10c0.5-1.1,1.6-1.2,1.1,0.1
				C229.7,204,227.2,210.5,220.7,210.5z M223.1,194.8c-1.5,1.9-3,4.5-3.5,5.5c1.1,0,4.1-0.8,6.2-2.6
				C230.6,193.7,230.3,186.1,223.1,194.8z"/>
			<path class="st21" d="M238.5,210.2c-2,0.5-5.6-1.3-3.2-7.4c0.9-2.4,3-5.4,3.6-6.9c0.8-1.9-1.2-2.7-4.5-2.8l-0.7,1.9
				c-1.4,3.7-4.2,10.2-7.1,12.9c-0.5,0.4-0.8-0.2-0.5-0.8c4.6-6.1,7.9-14.9,9-21.5c0.6-3.3,4.4-1.8,3.6,2.1
				c-0.4,1.6-2.2,3.2-3.2,3.9c2.2,0.1,5.2,0.1,8.1-0.2c0.4,0.8-0.5,3-1.2,4.5c-0.9,1.8-6.9,12.5-3.3,12.7c2.4,0.1,6-7.3,7.3-9.8
				c0.5-1,1.3-0.6,0.7,0.6C245.3,203.1,242.3,209.3,238.5,210.2z"/>
			<path class="st21" d="M258.7,210.4c-1.9,0.1-4.7-1.4-2.9-7.6c-0.9,1.5-2.5,3.9-4.2,5.5c-6.7,6.4-11.2-3.8-2.3-14.4
				c3.5-4.2,10.3-6.3,13.6-2.7c0.8,0.9,0.4,1.9-0.6,1.7c-0.6-2.2-2.8-2.6-5-1.5c-2.6,1.5-5.7,4.9-7.8,8.4c-0.5,0.8-2,3.7-2.4,5.9
				c-0.6,4.1,2.6,3.6,5.4,0.4c2-2.5,3.7-5.3,5.2-8.2c1.3-2.5,2.1-3.9,4-3.7c0.8,0.1,1.6,0.4,2.5,0.2c-1.2,1.2-4.7,7.4-5.4,11
				c-0.5,2.4-0.2,3.5,0.6,3.5c2.5,0.1,6.3-7.3,7.6-9.8c0.5-1.1,1.4-0.7,0.8,0.5C265.8,203.1,262.2,210.1,258.7,210.4z"/>
			<path class="st21" d="M274.2,210.2c-2,0.5-5.6-1.3-3.2-7.4c0.9-2.4,3-5.4,3.6-6.9c0.8-1.9-1.2-2.7-4.5-2.8l-0.7,1.9
				c-1.4,3.7-4.2,10.2-7.1,12.9c-0.5,0.4-0.8-0.2-0.5-0.8c4.6-6.1,7.9-14.9,9-21.5c0.6-3.3,4.4-1.8,3.6,2.1
				c-0.4,1.6-2.2,3.2-3.2,3.9c2.2,0.1,5.2,0.1,8.1-0.2c0.4,0.8-0.5,3-1.2,4.5c-0.9,1.8-6.9,12.5-3.3,12.7c2.4,0.1,6-7.3,7.3-9.8
				c0.5-1,1.3-0.6,0.7,0.6C281,203.1,278,209.3,274.2,210.2z"/>
			<path class="st21" d="M283.9,209c0.9,0.1,2-0.5,2.6-1.1c1.9-1.9,3.9-5.6,5.5-8.8c0.5-1.1,1.3-0.6,0.8,0.5
				c-1.5,3.3-4.9,10.7-9.2,10.7c-4.4,0-4.4-4.6-3.2-7.6l3.7-9.5c0.5-1.1-0.4-2.2-0.6-2.5l3.2-0.1c1.9,0,1.9,0.6,1.2,2l-4.7,11
				c0,0-0.6,1.3-0.7,1.7C282.2,207.3,282.3,208.9,283.9,209z M288.2,188.2c-1.3,0-2.2-1.1-2-2.4c0.2-1.3,1.5-2.4,2.8-2.4
				c1.3,0,2.3,1.1,2,2.4C290.7,187.2,289.5,188.2,288.2,188.2z"/>
			<path class="st21" d="M303.5,209.8c-1.8,0-3-0.6-3.7-1.5c-1.6,1.2-3.4,2.1-5.1,2c-4.5-0.1-5.1-5.4-2.9-10.7
				c2.3-5.4,7.1-10,11.1-9.8c4.5,0.1,5.1,5.4,2.9,10.7c-0.9,2-2.7,4.8-4.9,6.9c0.5,0.9,1.3,1.5,2.8,1.5c3.7,0,6.8-7.3,8.2-10.1
				c0.3-0.6,1.3-0.4,0.9,0.5C311.7,201.5,308.4,209.8,303.5,209.8z M295.8,199.4c-2.3,4.8-2.8,8.9-0.7,9.5c1.1,0.3,2.6-0.3,4-1.5
				c-0.6-0.9-0.9-2-0.9-2.9c0.1-1.3,0.6-2.5,2-2.5c1,0,1.8,0.8,1.8,1.8c0,0.2-0.1,0.4-0.1,0.6c0.6-0.9,1.3-2,1.8-3.2
				c2.3-4.8,2.6-9,0.5-9.6C301.6,191,298,194.8,295.8,199.4z"/>
		</g>
	</g>
</g>
</svg>
