<?xml version="1.0" encoding="utf-8"?>
<!-- Generator: Adobe Illustrator 28.0.0, SVG Export Plug-In . SVG Version: 6.00 Build 0)  -->
<svg version="1.1" id="Capa_1" xmlns="http://www.w3.org/2000/svg" xmlns:xlink="http://www.w3.org/1999/xlink" x="0px" y="0px"
	 viewBox="0 0 430 734" style="enable-background:new 0 0 430 734;" xml:space="preserve">
<style type="text/css">
	.st0{fill:none;}
	.st1{fill:url(#SVGID_1_);}
	.st2{fill:url(#XMLID_00000167369083016080102750000002903650029075524793_);}
	.st3{fill:url(#Nueva_muestra_de_motivo_2);}
	.st4{fill:#504322;stroke:#504322;stroke-width:0.3;stroke-miterlimit:10;}
	.st5{fill:url(#SVGID_00000145773219343907935730000018309951997151771312_);}
	.st6{fill:url(#SVGID_00000028292003379548583240000008017766555380718490_);}
	.st7{fill:url(#SVGID_00000181071298285660525000000004490844747731709831_);}
	.st8{fill:url(#SVGID_00000033370489527018870140000003327278717287431322_);}
	.st9{fill:url(#SVGID_00000147189019110388251180000008114354642630087297_);}
	.st10{fill:url(#SVGID_00000003807301730334998130000000795560502809450898_);}
	.st11{fill:#FFFFFF;}
</style>
<pattern  y="734" width="276" height="169" patternUnits="userSpaceOnUse" id="Nueva_muestra_de_motivo_1" viewBox="0 -169 276 169" style="overflow:visible;">
	<g>
		<rect y="-169" class="st0" width="276" height="169"/>
		
			<linearGradient id="SVGID_1_" gradientUnits="userSpaceOnUse" x1="545" y1="-15591" x2="821" y2="-15591" gradientTransform="matrix(1 0 0 -1 -545 -15675.5)">
			<stop  offset="0" style="stop-color:#DCC173"/>
			<stop  offset="0.2398" style="stop-color:#AB8136"/>
			<stop  offset="0.5153" style="stop-color:#73582B"/>
			<stop  offset="0.8571" style="stop-color:#DCC173"/>
		</linearGradient>
		<rect y="-169" class="st1" width="276" height="169"/>
	</g>
</pattern>
<pattern  y="734" width="286.7" height="240.9" patternUnits="userSpaceOnUse" id="Nueva_muestra_de_motivo_2" viewBox="0 -240.9 286.7 240.9" style="overflow:visible;">
	<g>
		<rect y="-240.9" class="st0" width="286.7" height="240.9"/>
		
			<linearGradient id="XMLID_00000088815718921496150640000016202608810052480640_" gradientUnits="userSpaceOnUse" x1="1703.2894" y1="313.9805" x2="1944.1627" y2="313.9805" gradientTransform="matrix(4.489700e-11 -1 -1 -4.489700e-11 457.3437 1703.2894)">
			<stop  offset="0" style="stop-color:#DCC173"/>
			<stop  offset="0.2398" style="stop-color:#AB8136"/>
			<stop  offset="0.5153" style="stop-color:#73582B"/>
			<stop  offset="0.8571" style="stop-color:#DCC173"/>
		</linearGradient>
		<polygon id="XMLID_48_" style="fill:url(#XMLID_00000088815718921496150640000016202608810052480640_);" points="286.7,-240.9 
			286.7,0 0,0 0,-240.9 		"/>
	</g>
</pattern>
<g>
	<g>
		<g>
			<path class="st3" d="M159.6,289.3c-3.5-0.6-2.4-7.7,3.2-21.2c2.2-5.2,5.2-14.1,1.9-16.1c-6.8-4.2-20.7,4.1-24.2,13.5
				c-3.2,8.8,1.2,13.1,5.9,13.1c4.7,0,9.7-5.1,9.7-9.7c0-2.3-1-4.2-3.8-3.4c-1.3,0.4-1-0.2-0.2-0.6c3.6-1.7,5.9,0.7,5.9,3.9
				c0,5.3-7,10.9-12.2,10.9c-5.8,0-11.4-6.6-7.5-15.5c4.5-10.4,18.8-16.7,26.3-13.4c6.1,2.7,4.3,11.3,1.1,17.9
				c-2.7,5.5-4.7,12.1-5.4,15.9c-1.6,9.5,10.2-3,11.6-4.7c4.5-5.3,8.2-12.1,7.4-17.2c-0.4-2.2-1.1-2-2-2.1c-1.5-0.3-1.5-1.6,0.2-1.1
				c2.1,0.5,5.8,3.4,3.4,9.7C176.7,279.7,165,290.3,159.6,289.3z"/>
			<path class="st3" d="M183.6,285.6c-2.1,0-4-1.4-4-4c0-2.5,1.4-5.7,3.2-7.9c2.1-2.5,5.3-4.1,7.2-2.7c1.6,1.2,0.4,4.1-2.3,6.1
				c-1.3,1-4,1.8-5.2,1.8c-0.6,1.5-1.3,5.8,1.4,5.8c3.7,0,6-5,6.9-7.2c0.3-0.8,1.2-0.8,0.8,0C190.1,280.9,188.3,285.6,183.6,285.6z
				 M185.4,274.3c-1.1,1.3-2.1,3.2-2.5,3.9c0.8,0,2.9-0.6,4.5-1.8C190.7,273.5,190.5,268,185.4,274.3z"/>
			<path class="st3" d="M193.6,285.1c-0.6,0.3-1.2,0.4-1.7,0.4c-5.1,0-4.1-5.8-2.1-5.9c1.1-2.1,2.5-4.9,3.6-7.3
				c0.8-1.6,2-3.4,3.5-3.6c0.6-0.1,1.1,0,1.6,0.2c0.8,0.4,0.6,1.1-0.2,0.7c-0.4-0.2-0.9-0.3-1.3,0c-1.9,0.9-1.5,3.8-0.9,5.3
				c0.7,1.6,1.6,3.1,1.5,5c-0.1,1.6-1.3,3.6-3,4.7l0.3,0c1.4,0.2,2.7-0.7,3.8-1.9c1-1.2,2.3-3.8,3.1-5.5c0.2-0.4,0.8-0.2,0.6,0.3
				C200.9,280.9,198.4,286.6,193.6,285.1z M190.8,281.5c-1.3,1.3-0.8,3.3,0.8,3.3c0.3,0,0.6,0,0.8-0.2
				C191.6,284.1,190.9,283.1,190.8,281.5z M194.5,271.9c-1.1,2.3-2.9,5.9-3.9,7.8c0,0,0.9,0,0.9,1.3c-0.1,1.6,0.8,2.8,1.8,3.2
				c0.9-0.7,1.7-2.1,1.8-4.4C195.2,277.3,194.1,273.8,194.5,271.9z"/>
			<path class="st3" d="M212,270.3h-2.4c-1.4,2.4-3.1,4.7-5.6,6.9c-0.4,1.1-1,4.3-1,4.3c-0.6,2.8,1.3,3.2,2.7,2.2
				c1.9-1.4,3.3-4.1,4.5-6.3c0.3-0.8,1-0.6,0.5,0.3c-1.8,3.9-2.6,5-4.1,6.6c-2.3,2.2-6.4,1.5-5.8-3.1c0.4-2.9,1.9-7.4,3.3-10.7h-2.2
				c-0.5,0-0.4-0.9,0.1-0.9h2.5c1-2.1,2-4.2,3.1-6c2.9-5.1,7.4-4.4,4.3,2.4c-0.6,1.3-1.2,2.4-1.8,3.6h2
				C212.5,269.4,212.5,270.3,212,270.3z M206.7,270.3c-0.9,2.1-1.7,4.1-2.3,5.6c1.6-1.6,3-3.6,4.2-5.6H206.7z M210.1,263.3
				c-1,1.4-1.9,3.7-3,6.1h2.1c0.8-1.4,1.5-2.9,2.1-4.3C212.1,263.4,212.7,259.6,210.1,263.3z"/>
			<path class="st3" d="M211.6,284.5c0.6,0.1,1.4-0.4,1.9-0.8c1.4-1.4,2.8-4,3.9-6.3c0.3-0.8,0.9-0.5,0.5,0.4
				c-1.1,2.4-3.5,7.7-6.6,7.7c-3.1,0-3.1-3.3-2.3-5.5l2.7-6.8c0.3-0.8-0.3-1.6-0.4-1.8l2.3,0c1.3,0,1.3,0.5,0.9,1.5l-3.4,7.9
				c0,0-0.4,0.9-0.5,1.2C210.4,283.2,210.4,284.4,211.6,284.5z M214.6,269.5c-1,0-1.6-0.8-1.5-1.7c0.2-1,1.1-1.7,2-1.7
				c1,0,1.6,0.8,1.5,1.7C216.5,268.8,215.6,269.5,214.6,269.5z"/>
			<path class="st3" d="M232.4,285.6c-1.5,0-3.5-1-2.3-4.9c0.3-1.1,1.1-2.5,2.3-4.4c1-1.6,0.3-2.8-3,0.3c-1.8,1.7-5.4,6.4-5.9,8.9
				c-1,0-1.6-1.1-1.3-2.3c0.3-1.8,1-3.2,1.8-4.8c1.4-2.9,2.7-5.9-1.7-1.8c-1.4,1.3-3.4,3.6-5.8,8.2c-0.3,0.6-0.7,0.7-1.6,0.7
				c-0.6,0-1,0-1.4,0.3c2-4,3.7-7.9,5.7-11.7c1.1-2,1.6-2.7,3-2.6c0.5,0,1.2,0.3,1.8,0.2c-1.3,0.7-3.6,4.9-5.1,7.9
				c0.8-1.1,2.2-2.6,3.5-3.8c2-1.8,4.7-4.5,6.1-3.9c0.8,0.3,1,1,0.6,1.8c-0.8,1.8-2.1,3.8-3.1,5.9c0.8-1.1,2.2-2.6,3.5-3.8
				c2-1.8,6.4-4.5,7.8-3.9c0,0-4.5,7.9-5,10.8c-0.3,1.7,0.2,2.1,0.7,2.1c2.2,0,4.9-5.3,5.8-7.3c0.3-0.8,1-0.5,0.6,0.4
				C238.1,280.2,235.6,285.6,232.4,285.6z"/>
			<path class="st3" d="M241.7,285.6c-2.1,0-4-1.4-4-4c0-2.5,1.4-5.7,3.2-7.9c2.1-2.5,5.3-4.1,7.2-2.7c1.6,1.2,0.4,4.1-2.3,6.1
				c-1.3,1-4,1.8-5.2,1.8c-0.6,1.5-1.3,5.8,1.4,5.8c3.7,0,6-5,6.9-7.2c0.3-0.8,1.2-0.8,0.8,0C248.2,280.9,246.4,285.6,241.7,285.6z
				 M243.4,274.3c-1.1,1.3-2.1,3.2-2.5,3.9c0.8,0,2.9-0.6,4.5-1.8C248.8,273.5,248.6,268,243.4,274.3z"/>
			<path class="st3" d="M256.8,285.6c-1.5,0-3.5-1-2.2-4.9c0.3-1.1,1.1-2.5,2.3-4.4c1-1.6,0.3-2.8-3,0.3c-1.4,1.3-3.5,3.7-5.8,8.3
				c-0.3,0.6-0.7,0.6-1.6,0.6c-0.6,0-1,0-1.4,0.3c2-4,3.7-8,5.8-11.8c1.1-2,1.6-2.7,3-2.6c0.5,0,1.2,0.3,1.8,0.2
				c-1.3,0.7-3.6,4.9-5.1,7.9c0.8-1.1,2.2-2.6,3.5-3.8c2-1.8,6.3-4.5,7.8-3.9c0,0-4.5,7.9-5,10.8c-0.3,1.7,0.1,2.1,0.7,2.1
				c2.2,0,4.9-5.5,5.8-7.3c0.3-0.8,1-0.5,0.6,0.4C262.5,280.2,260.1,285.6,256.8,285.6z"/>
			<path class="st3" d="M273.4,270.3H271c-1.4,2.4-3.1,4.7-5.6,6.9c-0.4,1.1-1,4.3-1,4.3c-0.6,2.8,1.3,3.2,2.7,2.2
				c1.9-1.4,3.3-4.1,4.5-6.3c0.3-0.8,1-0.6,0.5,0.3c-1.8,3.9-2.6,5-4.1,6.6c-2.3,2.2-6.4,1.5-5.8-3.1c0.4-2.9,1.9-7.4,3.3-10.7h-2.2
				c-0.5,0-0.4-0.9,0.1-0.9h2.5c1-2.1,2-4.2,3.1-6c2.9-5.1,7.4-4.4,4.3,2.4c-0.6,1.3-1.2,2.4-1.8,3.6h2
				C273.9,269.4,273.9,270.3,273.4,270.3z M268.1,270.3c-0.9,2.1-1.7,4.1-2.3,5.6c1.6-1.6,3-3.6,4.2-5.6H268.1z M271.5,263.3
				c-1,1.4-1.9,3.7-3,6.1h2.1c0.8-1.4,1.5-2.9,2.1-4.3C273.5,263.4,274.1,259.6,271.5,263.3z"/>
			<path class="st3" d="M280.5,285.5c-1.4,0.1-3.4-1-2.1-5.4c-0.7,1.1-1.8,2.8-3,3.9c-4.8,4.6-8-2.7-1.7-10.3c2.5-3,7.4-4.5,9.7-1.9
				c0.6,0.6,0.3,1.3-0.5,1.2c-0.5-1.6-2-1.9-3.6-1.1c-1.9,1.1-4.1,3.5-5.6,6c-0.3,0.6-1.5,2.6-1.7,4.2c-0.4,2.9,1.9,2.6,3.9,0.3
				c1.5-1.8,2.6-3.8,3.7-5.9c0.9-1.8,1.5-2.8,2.9-2.7c0.5,0,1.2,0.3,1.8,0.2c-0.9,0.9-3.4,5.3-3.9,7.9c-0.3,1.7-0.1,2.5,0.4,2.5
				c1.8,0.1,4.5-5.3,5.4-7.1c0.4-0.8,1-0.5,0.6,0.3C285.6,280.2,283.1,285.3,280.5,285.5z"/>
		</g>
	</g>
	<g>
		<g>
			<path class="st4" d="M178.3,317v0.2h-7.6v7.2h7v0.2h-7v8.9h8.1v0.2h-10.1V317H178.3z"/>
			<path class="st4" d="M184.3,333.8c-1.4,0-2.3-0.4-2.7-1.1c-0.1-0.2-0.1-0.3-0.1-0.4v-16.4h1.7v16.3c0,0.5,0.1,0.8,0.3,1.1
				c0.2,0.2,0.4,0.4,0.6,0.4l0.3,0h0.7v0.2H184.3z"/>
			<path class="st4" d="M187.8,327.9c0,2,0.3,3.4,1,4.4c0.7,0.9,1.6,1.4,2.7,1.4c1.6,0,3-0.2,4.3-0.7l0.1,0.2
				c-1.3,0.5-2.7,0.7-4.3,0.7s-2.9-0.5-3.9-1.4c-1-1-1.5-2.4-1.5-4.4c0-2,0.5-3.6,1.6-4.7s2.4-1.7,4-1.7c1.3,0,2.4,0.4,3.3,1.2
				c0.9,0.8,1.3,1.9,1.3,3.5c0,0.1,0,0.2,0,0.2h-8.6C187.9,327,187.8,327.5,187.8,327.9z M194,323c-0.6-0.7-1.3-1.1-2.2-1.1
				c-0.9,0-1.7,0.4-2.4,1.2c-0.7,0.8-1.2,1.9-1.4,3.3h6.9C194.8,324.9,194.5,323.7,194,323z"/>
			<path class="st4" d="M198.7,328.2c0-2.1,0.5-3.7,1.5-4.8c1-1.1,2.5-1.7,4.5-1.7c1.5,0,3,0.3,4.5,0.8v11.6c0,3.8-1.7,5.7-5,5.7
				c-1.8,0-3.4-0.6-4.7-1.8l0.2-0.1c1.4,1.2,2.9,1.7,4.5,1.7c2.2,0,3.3-1.8,3.3-5.5v-2.4c-0.3,0.6-0.8,1.1-1.5,1.5
				c-0.7,0.4-1.5,0.6-2.5,0.6C200.3,333.8,198.7,331.9,198.7,328.2z M203.6,333.7c1.1,0,2-0.3,2.8-0.9c0.8-0.6,1.2-1.1,1.2-1.7v-8.5
				c-1.2-0.5-2.1-0.7-2.9-0.7c-1.4,0-2.5,0.6-3.2,1.7c-0.7,1.1-1.1,2.7-1.1,4.7C200.3,331.8,201.4,333.7,203.6,333.7z"/>
			<path class="st4" d="M221.6,333.8c-1.1,0-1.8-0.2-2.2-0.6c-0.4-0.4-0.6-0.7-0.6-0.9v-0.5c-0.8,1.4-2,2.1-3.8,2.1
				c-2,0-3.2-0.9-3.4-2.7c0-0.2,0-0.4,0-0.6c0-0.2,0-0.4,0.1-0.7c0.1-0.2,0.2-0.5,0.6-0.8c0.6-0.6,1.9-0.9,4-1.1
				c0.5,0,1-0.1,1.4-0.1c0.4,0,0.8,0,1.2,0v-4c0,0,0-0.1,0-0.2c0-0.1,0-0.3-0.1-0.5c-0.1-0.2-0.2-0.4-0.3-0.6
				c-0.1-0.2-0.4-0.4-0.8-0.5c-0.4-0.2-0.8-0.2-1.4-0.2c-0.6,0-1.3,0.1-2.1,0.3c-0.8,0.2-1.4,0.4-1.7,0.6l-0.1-0.2
				c1.4-0.7,2.9-1,4.3-1c1.6,0,2.7,0.3,3.3,0.9c0.4,0.5,0.6,1,0.6,1.5v8c0,0.5,0.1,0.8,0.3,1.1c0.2,0.2,0.4,0.4,0.6,0.4l0.3,0h0.7
				v0.2H221.6z M215.4,333.7c0.8,0,1.6-0.3,2.3-0.9c0.7-0.6,1-1.1,1.1-1.7v-2.9c-0.4,0-0.9,0-1.3,0c-0.4,0-0.9,0-1.3,0.1
				c-1.2,0.1-2,0.4-2.4,0.8c-0.4,0.4-0.6,1-0.6,1.7c0,0.1,0,0.3,0,0.4C213.4,332.9,214.1,333.7,215.4,333.7z"/>
			<path class="st4" d="M234.2,333.8c-0.7,0-1.2-0.1-1.5-0.4c-0.3-0.3-0.5-0.6-0.5-0.9l0-0.4v-7.5c0-1.3-0.3-2.1-1-2.4
				c-0.3-0.2-0.8-0.2-1.2-0.2c-1,0-1.9,0.4-2.8,1.2c-0.8,0.8-1.2,1.5-1.2,2.2v8.5h-1.7v-12h1.7v2.7c0.3-0.7,0.8-1.3,1.5-1.9
				c0.7-0.6,1.5-0.9,2.4-0.9s1.6,0.1,2.1,0.3c0.6,0.2,1,0.4,1.2,0.7c0.4,0.5,0.6,1.1,0.6,1.9v7.5c0,0.5,0.1,0.8,0.3,1.1
				c0.2,0.2,0.4,0.4,0.6,0.4l0.3,0h0.7v0.2H234.2z"/>
			<path class="st4" d="M237.3,322v-0.2h0.5v-2.4h1.7v2.4h3.7v0.2h-3.7v8.7c0,1,0.1,1.8,0.3,2.3c0.2,0.5,0.7,0.7,1.5,0.7
				c0.7,0,1.5-0.2,2.3-0.5l0.1,0.2c-0.8,0.3-1.7,0.5-2.7,0.5c-1,0-1.8-0.2-2.3-0.6c-0.5-0.4-0.8-1.3-0.8-2.5V322H237.3z"/>
			<path class="st4" d="M247,327.9c0,2,0.3,3.4,1,4.4c0.7,0.9,1.6,1.4,2.7,1.4c1.6,0,3-0.2,4.3-0.7l0.1,0.2
				c-1.3,0.5-2.7,0.7-4.3,0.7s-2.9-0.5-3.9-1.4c-1-1-1.5-2.4-1.5-4.4c0-2,0.5-3.6,1.6-4.7c1.1-1.1,2.4-1.7,4-1.7
				c1.3,0,2.4,0.4,3.3,1.2c0.9,0.8,1.3,1.9,1.3,3.5c0,0.1,0,0.2,0,0.2H247C247,327,247,327.5,247,327.9z M253.1,323
				c-0.6-0.7-1.3-1.1-2.2-1.1c-0.9,0-1.7,0.4-2.4,1.2c-0.7,0.8-1.2,1.9-1.4,3.3h6.9C254,324.9,253.7,323.7,253.1,323z"/>
		</g>
	</g>
	<g>
		
			<pattern  id="SVGID_00000016043616782894500210000012848557168116813736_" xlink:href="#Nueva_muestra_de_motivo_1" patternTransform="matrix(0.8616 0 0 0.8616 -1404.1932 -1050.4991)">
		</pattern>
		<path style="fill:url(#SVGID_00000016043616782894500210000012848557168116813736_);" d="M254.5,444.4c-2-1.8-2.9-4.1-3.6-6.4
			c-1.1-3.6-1.3-7.4-1.4-11.1c-0.1-10.7-0.2-21.5-0.3-32.2c0-3.7-1.3-7-3.5-10c-0.3-0.4-0.9-0.7-1.4-0.7c-3.8-0.1-7.5-0.1-11.3,0
			c-0.4,0-1,0.3-1.3,0.6c-2.2,2.9-3.5,6.1-3.6,9.8c-0.1,8-0.1,16.1-0.2,24.1c-0.1,4.8-0.1,9.5-0.5,14.3c-0.4,4.3-1.2,8.5-4.5,11.8
			c3.2,0,6.4-0.1,9.6-0.4c4.9-0.5,7.6-3.6,8.6-8.1c0.7-3.1,1-6.4,1.2-9.6c0.2-2.2,0-4.5,0.1-6.8c0-0.5,0.4-1,0.5-1.5
			c0.2,0.5,0.4,1,0.4,1.5c0.1,2.5,0,5,0.1,7.5c0.1,3.8,0.3,7.6,1.5,11.2C246.3,442.1,248.9,444.5,254.5,444.4z M202.9,390.6
			c0-0.3,0-0.4-0.1-0.6c-0.8-2.8-0.6-5.8-0.5-8.7c0-0.4,0.3-0.7,0.5-1.1c0.2,0.3,0.5,0.6,0.7,1c0.2,0.7,0.4,1.5,0.5,2.2
			c1.3,5.3,2.5,10.7,3.8,16c0.2,0.9,0.5,1.3,1.5,1c0.9-0.3,1.8-0.4,2.7-0.6c0.7-0.1,0.9-0.4,0.8-1.2c-0.9-4.6-1.7-9.1-2.5-13.7
			c-1.3-7.3-2.7-14.7-3.9-22c-0.1-0.8-0.5-1.2-1.1-1.6c-3.1-2-6.8-3-9.4-5.7c-0.3,4-0.5,8-0.9,12.1c-0.5,4.7-1.3,9.4-3.1,13.9
			c-0.1,0.3-0.4,0.6-0.6,1c-0.3-0.3-0.6-0.6-0.8-1c-2-5.2-2.8-10.6-3.3-16.1c-0.3-3.4-0.5-6.7-0.7-9.8c-1.1,0.7-2.2,1.6-3.4,2.3
			c-1.6,1-3.3,1.9-5,2.7c-1.5,0.7-2,1.7-2.3,3.3c-1.6,9.6-3.4,19.1-5.1,28.7c-0.4,2.2-0.8,4.5-1.2,6.8c1.3,0.3,2.4,0.5,3.6,0.8
			c1,0.3,1.3,0,1.5-1c1.4-6.3,2.9-12.5,4.4-18.7c0.1-0.3,0.4-0.6,0.7-0.9c0.1,0.3,0.4,0.6,0.4,0.9c0.2,2.9,0.4,5.8-0.4,8.7
			c-0.3,0.9,0,1.3,0.8,1.6c2,0.8,4,1.6,5.9,2.5c0.7,0.3,1.1,0.3,1.5-0.5c0.8-2,1.8-4,2.7-6c0.1-0.3,0.5-0.5,0.7-0.7
			c0.2,0.2,0.4,0.4,0.6,0.7c0.4,0.9,0.8,1.8,1.3,2.8c0.6,1.4,1.2,2.8,1.9,4.2C197.7,392.8,200.3,391.7,202.9,390.6z M188.4,427
			c0.5-3.9,1-7.6,1.4-11.4c0.4-3.4,0.6-6.8,0.9-10.2c0-0.3,0.4-0.5,0.6-0.8c0.1,0.2,0.4,0.5,0.4,0.7c0.5,5.1,1,10.3,1.5,15.4
			c0.2,2.1,0.6,4.1,0.9,6.2c2.1-0.5,3.7-1.4,5.1-2.7c3.9-3.7,5.2-8.6,5.9-13.7c0.7-5.1,0.2-10.2-0.9-15.3c-0.2-1-0.5-1.9-0.7-2.9
			c-2.8,1.2-5.5,2.3-8.2,3.5c-1,0.5-1.4,0.2-1.8-0.7c-0.7-1.7-1.5-3.3-2.3-5.2c-0.8,1.8-1.6,3.4-2.3,5.1c-0.4,1.2-0.9,1.3-2.1,0.8
			c-2.6-1.2-5.2-2.3-7.9-3.4c-0.1,0.3-0.2,0.5-0.2,0.6c-1.4,5.5-2.1,11.2-1.5,16.9c0.4,3.5,1.1,6.9,2.7,10.1
			C181.8,423.3,184.3,425.9,188.4,427z M238.4,370.6c-0.4-0.7-0.7-1.1-0.9-1.5c-0.9-1.5-2-2.8-2.5-4.4c-0.7-2.1-0.9-4.3-1.2-6.5
			c-0.1-0.7-0.3-1-1-0.9c-0.6,0.1-1.5-0.4-1.6,0.7c-0.3,2.1-0.7,4.1-0.9,6.2c-0.2,2.1-0.6,4.4-0.3,6.4c0.6,3.7,1.8,7.3,2.7,10.9
			c0.1,0.3,0.5,0.6,0.8,0.7c3.5,0,6.9,0,10.4,0c0.3,0,0.7-0.4,0.8-0.6c0.8-3.1,1.7-6.2,2.4-9.4c0.3-1.5,0.5-3.2,0.4-4.8
			c-0.3-3.4-0.9-6.7-1.4-10c-2.2-0.5-2.2-0.4-2.4,1.8c-0.3,3.3-1,6.6-3.2,9.2C239.9,369.2,239.1,369.8,238.4,370.6z M194.5,359.6
			c-0.2-0.5-0.1-1.3-0.4-1.4c-0.5-0.1-1.1,0.1-1.5,0.4c-1,0.9-1.7,0.9-2.7,0c-0.4-0.3-1.1-0.3-1.7-0.4c0,0.9,0,1.7,0,2.6
			c0.6-0.1,1.3,0,1.7-0.3c1-0.7,1.8-0.6,2.7,0c0.4,0.3,1.1,0.6,1.4,0.4C194.4,360.7,194.3,360.1,194.5,359.6z"/>
		
			<pattern  id="SVGID_00000103987957324728283490000002390328237509354125_" xlink:href="#Nueva_muestra_de_motivo_1" patternTransform="matrix(0.9282 0 0 0.9282 -896.0527 -457.0326)">
		</pattern>
		<path style="fill:url(#SVGID_00000103987957324728283490000002390328237509354125_);" d="M254.5,444.4c-5.6,0.1-8.2-2.3-9.4-5.9
			c-1.2-3.6-1.4-7.4-1.5-11.2c-0.1-2.5,0-5-0.1-7.5c0-0.5-0.3-1-0.4-1.5c-0.2,0.5-0.5,1-0.5,1.5c-0.1,2.3,0.1,4.5-0.1,6.8
			c-0.3,3.2-0.5,6.4-1.2,9.6c-1,4.5-3.7,7.6-8.6,8.1c-3.2,0.3-6.4,0.4-9.6,0.4c3.3-3.3,4.2-7.5,4.5-11.8c0.4-4.7,0.4-9.5,0.5-14.3
			c0.1-8,0.2-16.1,0.2-24.1c0-3.7,1.3-6.9,3.6-9.8c0.3-0.3,0.9-0.6,1.3-0.6c3.8,0,7.5-0.1,11.3,0c0.5,0,1.1,0.3,1.4,0.7
			c2.3,2.9,3.5,6.2,3.5,10c0.1,10.7,0.1,21.5,0.3,32.2c0.1,3.7,0.3,7.5,1.4,11.1C251.6,440.4,252.5,442.6,254.5,444.4z"/>
		
			<pattern  id="SVGID_00000085246143454234235620000010226616432150640298_" xlink:href="#Nueva_muestra_de_motivo_1" patternTransform="matrix(0.8616 0 0 0.8616 -1404.1932 -1050.4991)">
		</pattern>
		<path style="fill:url(#SVGID_00000085246143454234235620000010226616432150640298_);" d="M202.9,390.6c-2.6,1.1-5.2,2.2-7.9,3.4
			c-0.6-1.4-1.2-2.8-1.9-4.2c-0.4-0.9-0.8-1.8-1.3-2.8c-0.1-0.3-0.4-0.5-0.6-0.7c-0.2,0.2-0.6,0.4-0.7,0.7c-0.9,2-1.8,4-2.7,6
			c-0.3,0.8-0.7,0.9-1.5,0.5c-1.9-0.9-3.9-1.7-5.9-2.5c-0.8-0.3-1.1-0.7-0.8-1.6c0.8-2.8,0.6-5.8,0.4-8.7c0-0.3-0.3-0.6-0.4-0.9
			c-0.2,0.3-0.6,0.5-0.7,0.9c-1.5,6.2-3,12.5-4.4,18.7c-0.2,1-0.6,1.3-1.5,1c-1.1-0.3-2.3-0.5-3.6-0.8c0.4-2.3,0.8-4.6,1.2-6.8
			c1.7-9.6,3.5-19.1,5.1-28.7c0.3-1.6,0.8-2.6,2.3-3.3c1.7-0.7,3.4-1.7,5-2.7c1.2-0.7,2.3-1.6,3.4-2.3c0.2,3.1,0.4,6.4,0.7,9.8
			c0.5,5.5,1.3,10.9,3.3,16.1c0.1,0.4,0.5,0.6,0.8,1c0.2-0.3,0.5-0.6,0.6-1c1.8-4.5,2.6-9.2,3.1-13.9c0.4-4,0.6-8.1,0.9-12.1
			c2.6,2.6,6.2,3.7,9.4,5.7c0.6,0.4,1,0.8,1.1,1.6c1.3,7.3,2.6,14.7,3.9,22c0.8,4.6,1.6,9.1,2.5,13.7c0.1,0.7-0.1,1-0.8,1.2
			c-0.9,0.2-1.8,0.3-2.7,0.6c-1,0.3-1.3-0.1-1.5-1c-1.2-5.3-2.5-10.7-3.8-16c-0.2-0.7-0.3-1.5-0.5-2.2c-0.1-0.4-0.4-0.7-0.7-1
			c-0.2,0.4-0.5,0.7-0.5,1.1c-0.2,2.9-0.4,5.8,0.5,8.7C202.9,390.2,202.9,390.3,202.9,390.6z M201.7,367.2c-0.1-0.1-0.3-0.1-0.4-0.2
			c-0.9,0.5-1.8,1-2.7,1.6c-0.1,0.1,0,0.5,0,0.8c0.9,0,2,0.1,2.8-0.2C201.7,369,201.6,367.8,201.7,367.2z"/>
		
			<pattern  id="SVGID_00000098207085209493263500000009867305595539034509_" xlink:href="#Nueva_muestra_de_motivo_1" patternTransform="matrix(0.9282 0 0 0.9282 -896.0527 -457.0326)">
		</pattern>
		<path style="fill:url(#SVGID_00000098207085209493263500000009867305595539034509_);" d="M188.4,427c-4.2-1.1-6.6-3.7-8.4-7.1
			c-1.6-3.2-2.4-6.6-2.7-10.1c-0.6-5.7,0-11.3,1.5-16.9c0-0.2,0.1-0.4,0.2-0.6c2.7,1.2,5.3,2.2,7.9,3.4c1.1,0.5,1.6,0.4,2.1-0.8
			c0.6-1.6,1.4-3.2,2.3-5.1c0.8,1.9,1.6,3.5,2.3,5.2c0.4,0.9,0.8,1.2,1.8,0.7c2.6-1.2,5.3-2.3,8.2-3.5c0.2,1,0.5,2,0.7,2.9
			c1.1,5,1.5,10.2,0.9,15.3c-0.7,5.1-2,10-5.9,13.7c-1.4,1.3-3,2.2-5.1,2.7c-0.3-2.1-0.7-4.1-0.9-6.2c-0.5-5.1-1-10.3-1.5-15.4
			c0-0.3-0.3-0.5-0.4-0.7c-0.2,0.3-0.5,0.5-0.6,0.8c-0.3,3.4-0.5,6.8-0.9,10.2C189.4,419.3,188.9,423.1,188.4,427z"/>
		
			<pattern  id="SVGID_00000085239920885013004320000018249947542504769462_" xlink:href="#Nueva_muestra_de_motivo_1" patternTransform="matrix(0.9282 0 0 0.9282 -896.0527 -457.0326)">
		</pattern>
		<path style="fill:url(#SVGID_00000085239920885013004320000018249947542504769462_);" d="M238.4,370.6c0.8-0.7,1.6-1.4,2.2-2.1
			c2.2-2.7,2.9-5.9,3.2-9.2c0.2-2.1,0.3-2.2,2.4-1.8c0.5,3.3,1.1,6.7,1.4,10c0.2,1.6-0.1,3.2-0.4,4.8c-0.7,3.1-1.6,6.3-2.4,9.4
			c-0.1,0.3-0.5,0.6-0.8,0.6c-3.5,0-6.9,0-10.4,0c-0.3,0-0.7-0.4-0.8-0.7c-1-3.6-2.1-7.2-2.7-10.9c-0.4-2.1,0.1-4.3,0.3-6.4
			c0.2-2.1,0.6-4.1,0.9-6.2c0.2-1.2,1-0.6,1.6-0.7c0.6-0.1,0.9,0.2,1,0.9c0.3,2.2,0.5,4.4,1.2,6.5c0.5,1.6,1.6,2.9,2.5,4.4
			C237.7,369.5,237.9,369.9,238.4,370.6z"/>
		
			<pattern  id="SVGID_00000132054532086825084440000004587782373272766606_" xlink:href="#Nueva_muestra_de_motivo_1" patternTransform="matrix(0.9282 0 0 0.9282 -896.0527 -457.0326)">
		</pattern>
		<path style="fill:url(#SVGID_00000132054532086825084440000004587782373272766606_);" d="M194.3,359.6c-0.2,0.5,0.1,1.1-0.3,1.3
			c-0.3,0.2-1-0.1-1.4-0.4c-0.9-0.7-1.8-0.7-2.7,0c-0.4,0.3-1.1,0.2-1.7,0.3c0-0.9,0-1.9,0-2.7c0.6,0.1,1.4,0.2,1.7,0.5
			c1,0.9,1.7,0.9,2.7,0c0.4-0.3,1-0.5,1.5-0.4C194.4,358.2,194.1,359.1,194.3,359.6z"/>
		<path class="st11" d="M201.7,367.2c-0.1,0.7,0,1.8-0.3,1.9c-0.9,0.3-1.9,0.2-2.8,0.2c0-0.3-0.1-0.7,0-0.8c0.9-0.6,1.8-1,2.7-1.6
			C201.5,367,201.6,367.1,201.7,367.2z"/>
	</g>
</g>
</svg>
