<?xml version="1.0" encoding="utf-8"?>
<!-- Generator: Adobe Illustrator 28.0.0, SVG Export Plug-In . SVG Version: 6.00 Build 0)  -->
<svg version="1.1" id="Capa_1" xmlns="http://www.w3.org/2000/svg" xmlns:xlink="http://www.w3.org/1999/xlink" x="0px" y="0px"
	 viewBox="0 0 121 35" style="enable-background:new 0 0 121 35;" xml:space="preserve">
<style type="text/css">
	.st0{fill:none;}
	.st1{fill:url(#SVGID_1_);}
	.st2{fill:url(#SVGID_00000173147197846502695920000010035899258454997140_);}
	.st3{fill:#FFFFFF;}
</style>
<pattern  width="276" height="169" patternUnits="userSpaceOnUse" id="Nueva_muestra_de_motivo_1" viewBox="0 -169 276 169" style="overflow:visible;">
	<g>
		<rect y="-169" class="st0" width="276" height="169"/>
		
			<linearGradient id="SVGID_1_" gradientUnits="userSpaceOnUse" x1="545" y1="-15591" x2="821" y2="-15591" gradientTransform="matrix(1 0 0 -1 -545 -15675.5)">
			<stop  offset="0" style="stop-color:#DCC173"/>
			<stop  offset="0.2398" style="stop-color:#AB8136"/>
			<stop  offset="0.5153" style="stop-color:#73582B"/>
			<stop  offset="0.8571" style="stop-color:#DCC173"/>
		</linearGradient>
		<rect y="-169" class="st1" width="276" height="169"/>
	</g>
</pattern>
<g>
	<g>
		
			<pattern  id="SVGID_00000099620020238125578090000014044833687227182773_" xlink:href="#Nueva_muestra_de_motivo_1" patternTransform="matrix(0.8852 0 0 0.7913 -720.1392 -910.9825)">
		</pattern>
		<path style="fill:url(#SVGID_00000099620020238125578090000014044833687227182773_);" d="M105.1,30.2H14.8c-6.6,0-12-5.4-12-12
			v-2.9c0-6.6,5.4-12,12-12h90.4c6.6,0,12,5.4,12,12v2.9C117.1,24.8,111.7,30.2,105.1,30.2z"/>
		<g>
			<g>
				<path class="st3" d="M21.9,14.2c0.3-0.6,0.8-1.1,1.4-1.4c0.6-0.3,1.2-0.5,1.9-0.5c0.8,0,1.6,0.2,2.2,0.6c0.6,0.4,1.1,1,1.4,1.7
					h-1.2c-0.2-0.5-0.5-0.8-0.9-1.1c-0.4-0.2-0.9-0.4-1.4-0.4c-0.5,0-1,0.1-1.4,0.4c-0.4,0.2-0.8,0.6-1,1.1c-0.2,0.5-0.4,1-0.4,1.6
					c0,0.6,0.1,1.1,0.4,1.6c0.2,0.5,0.6,0.8,1,1.1c0.4,0.2,0.9,0.4,1.4,0.4c0.6,0,1-0.1,1.4-0.4c0.4-0.2,0.7-0.6,0.9-1.1h1.2
					c-0.3,0.7-0.7,1.3-1.4,1.7c-0.6,0.4-1.4,0.6-2.2,0.6c-0.7,0-1.4-0.2-1.9-0.5c-0.6-0.3-1-0.8-1.4-1.4c-0.3-0.6-0.5-1.3-0.5-2
					S21.6,14.8,21.9,14.2z"/>
				<path class="st3" d="M32.3,11.9V20h-1v-8.1H32.3z"/>
				<path class="st3" d="M35.2,12.8c-0.1-0.1-0.2-0.3-0.2-0.5c0-0.2,0.1-0.4,0.2-0.5c0.1-0.1,0.3-0.2,0.5-0.2c0.2,0,0.3,0.1,0.5,0.2
					c0.1,0.1,0.2,0.3,0.2,0.5c0,0.2-0.1,0.4-0.2,0.5S35.9,13,35.7,13C35.5,13,35.3,13,35.2,12.8z M36.2,14v6h-1v-6H36.2z"/>
				<path class="st3" d="M39,15.4c0.2-0.5,0.6-0.8,1-1.1c0.4-0.3,1-0.4,1.5-0.4c0.7,0,1.4,0.2,1.8,0.5c0.5,0.4,0.8,0.9,1,1.5h-1.1
					c-0.1-0.4-0.3-0.7-0.6-0.9c-0.3-0.2-0.7-0.3-1.1-0.3c-0.6,0-1,0.2-1.4,0.6s-0.5,0.9-0.5,1.7c0,0.7,0.2,1.3,0.5,1.7
					s0.8,0.6,1.4,0.6c0.4,0,0.8-0.1,1.1-0.3c0.3-0.2,0.5-0.5,0.6-0.9h1.1c-0.2,0.6-0.5,1.1-1,1.5c-0.5,0.4-1.1,0.6-1.8,0.6
					c-0.6,0-1.1-0.1-1.5-0.4c-0.4-0.3-0.8-0.6-1-1.1c-0.2-0.5-0.4-1-0.4-1.6C38.6,16.4,38.7,15.8,39,15.4z"/>
				<path class="st3" d="M50.1,20l-2.4-2.7V20h-1v-8.1h1v4.8l2.3-2.7h1.4l-2.8,3l2.8,3H50.1z"/>
				<path class="st3" d="M57.5,15.4c0.2-0.5,0.6-0.8,1-1.1c0.4-0.3,0.9-0.4,1.5-0.4c0.5,0,1,0.1,1.4,0.3c0.4,0.2,0.7,0.5,0.9,0.9V14
					h1v6h-1v-1.1c-0.2,0.4-0.5,0.6-0.9,0.9s-0.8,0.3-1.4,0.3c-0.5,0-1-0.1-1.5-0.4c-0.4-0.3-0.8-0.6-1-1.1c-0.2-0.5-0.4-1-0.4-1.6
					C57.2,16.4,57.3,15.8,57.5,15.4z M62,15.8c-0.2-0.3-0.4-0.6-0.7-0.8s-0.7-0.3-1-0.3s-0.7,0.1-1,0.3c-0.3,0.2-0.6,0.4-0.7,0.8
					c-0.2,0.3-0.3,0.7-0.3,1.2c0,0.5,0.1,0.9,0.3,1.2c0.2,0.3,0.4,0.6,0.7,0.8c0.3,0.2,0.6,0.3,1,0.3s0.7-0.1,1-0.3s0.6-0.4,0.7-0.8
					s0.3-0.7,0.3-1.2S62.2,16.2,62,15.8z"/>
				<path class="st3" d="M66.1,15.4c0.2-0.5,0.6-0.8,1-1.1c0.4-0.3,0.9-0.4,1.5-0.4c0.5,0,1,0.1,1.4,0.3c0.4,0.2,0.7,0.5,0.9,0.9V14
					h1v8.9h-1v-4c-0.2,0.3-0.5,0.6-0.9,0.9c-0.4,0.2-0.9,0.4-1.4,0.4c-0.5,0-1-0.1-1.4-0.4c-0.4-0.3-0.8-0.6-1-1.1
					c-0.2-0.5-0.4-1-0.4-1.6C65.7,16.4,65.8,15.8,66.1,15.4z M70.5,15.8c-0.2-0.3-0.4-0.6-0.7-0.8s-0.7-0.3-1-0.3s-0.7,0.1-1,0.3
					c-0.3,0.2-0.6,0.4-0.7,0.8c-0.2,0.3-0.3,0.7-0.3,1.2c0,0.5,0.1,0.9,0.3,1.2c0.2,0.3,0.4,0.6,0.7,0.8c0.3,0.2,0.6,0.3,1,0.3
					s0.7-0.1,1-0.3s0.6-0.4,0.7-0.8s0.3-0.7,0.3-1.2S70.7,16.2,70.5,15.8z"/>
				<path class="st3" d="M80,14v6h-1v-0.9c-0.2,0.3-0.5,0.5-0.8,0.7s-0.7,0.3-1.1,0.3c-0.5,0-0.9-0.1-1.3-0.3s-0.7-0.5-0.9-0.9
					c-0.2-0.4-0.3-0.9-0.3-1.4V14h1v3.4c0,0.6,0.2,1.1,0.5,1.4c0.3,0.3,0.7,0.5,1.2,0.5c0.5,0,1-0.2,1.3-0.5
					c0.3-0.3,0.5-0.8,0.5-1.4V14H80z"/>
				<path class="st3" d="M84.3,12.3L82,13.6v-0.7l2.3-1.4V12.3z M83.8,14v6h-1v-6H83.8z"/>
			</g>
		</g>
		<g>
			<g>
				<path class="st3" d="M99.2,18.5c0.1,0.2,0.1,0.3,0.1,0.5c0,0.2,0,0.5,0.1,0.7c0,0.2,0.1,0.3,0.1,0.5c0,0,0,0.1,0.1,0.1
					c0.1,0.1,0.1,0.1,0.2,0.2c0.1,0.1,0.1,0.2,0.2,0.2c0.1,0.1,0.1,0.1,0.2,0.2c0.1,0.1,0.2,0.2,0.3,0.3c0.1,0.1,0.2,0.3,0.3,0.4
					c0.1,0.1,0.1,0.1,0.2,0.2c0,0,0,0,0.1,0.1c0.1,0.1,0.1,0.2,0.1,0.3c0,0.1-0.1,0.1-0.1,0.1c-0.1,0.1-0.1,0.1-0.2,0.2c0,0,0,0,0,0
					c-0.2,0.1-0.3,0.3-0.5,0.5c-0.1,0.1-0.2,0.2-0.3,0.3c-0.1,0.1-0.2,0.2-0.3,0.3c-0.1,0.1-0.2,0.2-0.3,0.3
					c-0.2,0.2-0.3,0.3-0.5,0.5c-0.1,0.1-0.1,0.1-0.2,0.2c-0.1,0.1-0.1,0.1-0.2,0.2c-0.1,0.1-0.1,0.1-0.2,0.2
					c-0.1,0.1-0.1,0.1-0.2,0.1c0,0-0.2,0-0.2,0c-0.1-0.1-0.1-0.2-0.2-0.2c0-0.1-0.1-0.1-0.1-0.2c-0.1-0.1-0.1-0.2-0.2-0.2
					c-0.1-0.1-0.1-0.1-0.2-0.2c-0.1-0.1-0.2-0.2-0.3-0.3c-0.2-0.2-0.3-0.4-0.5-0.6c-0.1-0.1-0.2-0.3-0.3-0.4c0,0-0.1,0-0.1,0
					c-0.1,0.1-0.2,0.1-0.3,0.2c-0.1,0.1-0.2,0.1-0.3,0.1c-0.1,0-0.2,0-0.3,0c-0.2,0-0.4-0.1-0.5-0.2c-0.1-0.1-0.2-0.1-0.4-0.2
					c-0.2-0.1-0.3-0.2-0.5-0.2c-0.1,0-0.2-0.1-0.3-0.1c-0.1,0-0.2,0-0.3,0c-0.2,0-0.5,0-0.7,0c-0.1,0-0.2,0-0.3,0.1
					c-0.1,0-0.2,0-0.3,0c-0.1,0-0.2-0.1-0.3-0.2c-0.1-0.1-0.1-0.2-0.1-0.2c0-0.1,0-0.1,0-0.2c0-0.2,0-0.4,0-0.5
					c0-0.2,0.1-0.3,0.2-0.4c0.1-0.1,0.2-0.2,0.4-0.3c0.1,0,0.1-0.1,0.2-0.1c0.1,0,0.2-0.1,0.3-0.1c0.1-0.1,0.3-0.1,0.4-0.1
					c0.1,0,0.2,0,0.3,0c0,0,0.1,0,0.1,0c0,0,0-0.1,0-0.1c-0.1-0.1-0.1-0.1-0.2-0.2c-0.1-0.1-0.2-0.2-0.3-0.3
					c-0.1-0.1-0.2-0.3-0.4-0.4c-0.2-0.2-0.3-0.4-0.5-0.5c-0.1-0.1-0.2-0.3-0.4-0.4c-0.1-0.1-0.1-0.2-0.2-0.2
					c-0.1-0.1-0.1-0.2-0.2-0.2c-0.1-0.1-0.1-0.2-0.2-0.3c-0.1-0.1-0.1-0.2-0.2-0.2c-0.1-0.1-0.1-0.1-0.2-0.2
					c-0.1-0.1-0.3-0.3-0.4-0.4c-0.1-0.1-0.1-0.2-0.2-0.2c-0.1-0.1-0.2-0.2-0.3-0.3c-0.1-0.1-0.2-0.3-0.3-0.5c0-0.1,0-0.3,0-0.4
					c0-0.2,0.1-0.4,0.2-0.5c0,0,0.1-0.1,0.1-0.1c0.1-0.1,0.2-0.2,0.4-0.2c0,0,0.1,0,0.1,0c0.2,0,0.4,0,0.6,0.2
					c0.1,0.1,0.2,0.2,0.3,0.3c0,0,0,0,0.1,0.1c0.1,0.1,0.2,0.2,0.3,0.4c0.1,0.1,0.1,0.2,0.2,0.2c0.1,0.1,0.3,0.3,0.4,0.4
					c0.1,0.1,0.2,0.3,0.3,0.4c0,0,0,0,0,0.1c0,0.1,0.1,0.1,0.1,0c0.1-0.1,0.2-0.3,0.3-0.3c0.2-0.1,0.4-0.2,0.7-0.1c0,0,0.1,0,0.1,0
					c0.1,0,0.1,0,0.2-0.1c0-0.1,0.1-0.2,0.1-0.3c0.1-0.1,0.2-0.1,0.2-0.2c0.1-0.1,0.2-0.1,0.3-0.1c0.1,0,0.3,0,0.4,0.1
					c0,0,0.1,0,0.1-0.1c0-0.2,0.1-0.3,0.3-0.4c0.1-0.1,0.2-0.1,0.3-0.2c0.2-0.1,0.3-0.1,0.5,0c0.1,0,0.1,0,0.2,0.1
					c0.1,0.1,0.2,0.1,0.3,0.2c0.1,0.1,0.1,0.2,0.2,0.2c0.2,0.2,0.3,0.4,0.5,0.5c0.1,0.1,0.2,0.3,0.3,0.4c0.1,0.1,0.2,0.3,0.4,0.4
					c0.1,0.1,0.2,0.2,0.2,0.3c0.1,0.1,0.1,0.1,0.2,0.2c0.1,0.1,0.3,0.3,0.4,0.4c0.1,0.1,0.2,0.2,0.2,0.2
					C99.1,18.2,99.2,18.3,99.2,18.5z M98.7,18.7c0-0.1-0.1-0.2-0.2-0.3c-0.1-0.1-0.2-0.3-0.3-0.4c-0.1-0.1-0.2-0.2-0.3-0.4
					c-0.1-0.1-0.1-0.2-0.2-0.2c-0.1-0.1-0.1-0.2-0.2-0.2c-0.1-0.1-0.1-0.2-0.2-0.2c-0.1-0.1-0.2-0.2-0.2-0.3
					c-0.1-0.1-0.1-0.1-0.2-0.2c-0.1-0.1-0.1-0.2-0.2-0.2c-0.1-0.2-0.3-0.3-0.4-0.5c-0.1-0.1-0.2-0.1-0.2-0.1c-0.1,0-0.3,0-0.4,0.2
					c-0.1,0.2-0.1,0.4,0,0.5c0.1,0.1,0.2,0.2,0.3,0.4c0.1,0.1,0.1,0.2,0.1,0.3c0,0.1-0.1,0.2-0.3,0.2c-0.1,0-0.1,0-0.1-0.1
					c-0.1-0.1-0.2-0.2-0.2-0.2c-0.1-0.1-0.1-0.2-0.2-0.2c-0.1-0.1-0.1-0.2-0.2-0.2c-0.1-0.1-0.3-0.2-0.4-0.1c-0.1,0-0.1,0.1-0.2,0.1
					c-0.1,0.1-0.2,0.3-0.1,0.5c0.1,0.1,0.1,0.2,0.2,0.3c0.1,0.2,0.3,0.3,0.4,0.5c0.1,0.1,0.1,0.3,0,0.4C94.9,18,94.8,18,94.6,18
					c-0.1,0-0.2-0.2-0.2-0.2c-0.1-0.1-0.1-0.2-0.2-0.2c-0.1-0.1-0.1-0.1-0.2-0.2c-0.1-0.1-0.1-0.2-0.2-0.2c0,0-0.1-0.1-0.1-0.1
					c-0.1-0.1-0.1-0.1-0.2-0.1c-0.1,0-0.2,0-0.3,0.1C93,17,92.9,17.2,93,17.4c0,0.1,0.1,0.2,0.2,0.3c0.1,0.1,0.2,0.2,0.3,0.3
					c0.1,0.1,0.2,0.2,0.3,0.3c0.1,0.1,0.1,0.2,0.2,0.2c0.1,0.1,0.1,0.1,0.1,0.2c0,0.2-0.2,0.3-0.3,0.3c-0.1,0-0.1-0.1-0.2-0.1
					c-0.1-0.1-0.2-0.3-0.4-0.4c-0.1-0.1-0.1-0.1-0.2-0.2c-0.1-0.1-0.2-0.3-0.4-0.4c0-0.1-0.1-0.1-0.1-0.2c-0.1-0.1-0.1-0.1-0.2-0.2
					c0-0.1-0.1-0.1-0.1-0.2c-0.1-0.1-0.2-0.3-0.4-0.4c-0.1-0.1-0.1-0.1-0.2-0.2c0,0-0.1-0.1-0.1-0.1c-0.1-0.1-0.1-0.1-0.2-0.2
					c-0.1-0.1-0.2-0.2-0.3-0.4c-0.1-0.1-0.2-0.3-0.3-0.4c-0.1-0.1-0.1-0.1-0.2-0.2c-0.1,0-0.2,0-0.3,0c-0.1,0-0.1,0.1-0.2,0.2
					c-0.1,0.1-0.1,0.2-0.1,0.3c0,0.2,0,0.3,0.1,0.4c0.1,0.1,0.1,0.2,0.2,0.2c0.1,0.1,0.2,0.2,0.3,0.4c0.1,0.1,0.2,0.2,0.3,0.3
					c0.1,0.1,0.1,0.1,0.2,0.2c0.1,0.1,0.2,0.2,0.2,0.3c0.1,0.1,0.1,0.2,0.2,0.2c0.1,0.1,0.1,0.1,0.2,0.2c0.1,0.1,0.1,0.2,0.2,0.2
					c0.1,0.1,0.3,0.3,0.4,0.4c0,0,0.1,0.1,0.1,0.1c0.1,0.1,0.1,0.2,0.2,0.2c0.1,0.1,0.2,0.2,0.2,0.3c0.1,0.1,0.2,0.2,0.3,0.3
					c0.1,0.1,0.1,0.1,0.2,0.2c0.1,0.1,0.2,0.2,0.3,0.3c0.2,0.2,0.3,0.3,0.5,0.5c0.2,0.2,0.3,0.4,0.5,0.5c0.1,0.2,0.1,0.2,0,0.4
					c0,0-0.1,0.1-0.2,0.1c0,0-0.1,0-0.1,0c-0.1,0-0.2-0.2-0.3-0.2c-0.1-0.1-0.1-0.2-0.3-0.2c-0.1,0-0.2,0-0.3,0c0,0-0.1,0-0.1,0
					c-0.1,0-0.2,0-0.4,0c-0.1,0-0.3,0.1-0.4,0.1c-0.2,0.1-0.3,0.2-0.4,0.4c-0.1,0.2-0.1,0.4-0.1,0.6c0,0,0.1,0.1,0.1,0.1
					c0,0,0.1,0,0.1,0c0.2-0.1,0.4-0.1,0.6-0.1c0.1,0,0.2,0,0.4,0c0.2,0,0.3,0,0.5,0.1c0.2,0,0.3,0.1,0.5,0.1
					c0.2,0.1,0.3,0.1,0.5,0.2c0.2,0.1,0.5,0.2,0.7,0.3c0.1,0,0.1,0,0.2,0c0.2-0.1,0.4-0.2,0.6-0.4c0.1,0,0.1-0.1,0.2,0
					c0.1,0,0.1,0.1,0.1,0.1c0.1,0.1,0.2,0.2,0.3,0.4c0.1,0.1,0.2,0.3,0.3,0.4c0.1,0.1,0.2,0.2,0.3,0.4c0.1,0.1,0.3,0.3,0.4,0.4
					c0.1,0.1,0.1,0.1,0.2,0.2c0.1,0.1,0.1,0.2,0.2,0.2c0,0.1,0.1,0.1,0.1,0c0.1-0.1,0.1-0.1,0.2-0.2c0.1-0.1,0.1-0.1,0.2-0.2
					c0.2-0.2,0.4-0.4,0.6-0.6c0.1-0.1,0.2-0.2,0.3-0.3c0,0,0.1-0.1,0.2-0.1c0.1-0.1,0.2-0.2,0.3-0.3c0,0,0.1-0.1,0.1-0.1
					c0.1-0.1,0.2-0.2,0.3-0.3c0.1-0.1,0.1-0.1,0.2-0.2c0.1-0.1,0.1-0.1,0-0.2c-0.1-0.1-0.1-0.1-0.2-0.2c-0.2-0.2-0.3-0.4-0.5-0.6
					c-0.1-0.1-0.2-0.3-0.4-0.4c-0.1-0.1-0.1-0.1-0.2-0.2c-0.1-0.1-0.1-0.2-0.2-0.2c0,0-0.1-0.1-0.1-0.2c0-0.1,0-0.2,0-0.3
					c0-0.2,0-0.3,0-0.5C98.9,19.3,98.8,19,98.7,18.7z"/>
				<path class="st3" d="M88.2,13.4c0.1,0,0.2,0,0.2,0.1c0.1,0.1,0.2,0.2,0.3,0.4c0.1,0.1,0.2,0.2,0.2,0.3c0.1,0.2,0.3,0.4,0.4,0.5
					c0,0,0,0.1,0,0.1c0,0.1-0.1,0.1-0.2,0.1c0,0,0,0-0.1,0c-0.1-0.1-0.2-0.2-0.3-0.2c-0.1-0.1-0.2-0.2-0.2-0.2
					c-0.1-0.1-0.2-0.2-0.3-0.3c-0.1-0.1-0.2-0.2-0.3-0.3c0,0,0-0.1,0-0.1C88,13.6,88.1,13.5,88.2,13.4z"/>
				<path class="st3" d="M87.9,17.7c0-0.1,0-0.2,0.1-0.2c0,0,0.1,0,0.1-0.1c0,0,0.1-0.1,0.1-0.1c0,0,0,0,0.1,0c0,0,0.1,0,0.1-0.1
					c0,0,0.1,0,0.1-0.1c0.1-0.1,0.3-0.2,0.4-0.3c0.1-0.1,0.2-0.1,0.2-0.2c0.1-0.1,0.2,0,0.2,0.1c0,0,0,0,0,0.1
					c0,0.1-0.1,0.1-0.1,0.2c-0.1,0.1-0.1,0.1-0.2,0.2c0,0-0.1,0.1-0.1,0.1c-0.1,0.1-0.2,0.2-0.3,0.3c-0.1,0.1-0.1,0.1-0.2,0.2
					c-0.1,0.1-0.2,0.1-0.3,0C88,17.8,88,17.8,87.9,17.7z"/>
				<path class="st3" d="M90.4,13.1c0,0,0,0.1,0,0.1c0,0.2,0,0.3-0.1,0.5c0,0.2,0,0.3,0,0.5c0,0.1,0,0.2,0,0.3
					c0,0.1-0.1,0.1-0.1,0.1c-0.1,0-0.1-0.1-0.1-0.2c0-0.1,0-0.3,0-0.4c0-0.1,0-0.3,0-0.4c0-0.1,0-0.3,0-0.4c0-0.1,0.1-0.2,0.2-0.2
					C90.1,12.9,90.3,13,90.4,13.1z"/>
				<path class="st3" d="M92.5,14c0,0.1,0,0.1-0.1,0.2c-0.1,0.1-0.3,0.2-0.4,0.3c-0.1,0.1-0.2,0.2-0.3,0.2c-0.1,0.1-0.2,0.2-0.4,0.3
					c0,0,0,0-0.1,0c-0.1,0-0.2-0.1-0.1-0.1c0-0.1,0.1-0.1,0.1-0.1c0.1-0.1,0.1-0.2,0.2-0.2c0.1-0.1,0.1-0.1,0.2-0.2
					c0.1-0.1,0.1-0.1,0.2-0.2c0.1-0.1,0.1-0.1,0.2-0.2c0,0,0,0,0.1-0.1c0.1-0.1,0.1-0.1,0.3,0C92.4,13.8,92.5,13.9,92.5,14z"/>
				<path class="st3" d="M88.9,15.7c0,0-0.1,0-0.1,0c-0.1,0-0.1,0-0.2,0c-0.1,0-0.1,0-0.2,0c-0.1,0-0.1,0-0.2,0c0,0,0,0-0.1,0
					c0,0-0.1,0-0.1,0c0,0-0.1,0-0.1,0c-0.1,0-0.2,0-0.3,0c-0.1,0-0.1-0.1-0.1-0.2c0-0.1,0-0.1,0.1-0.2c0-0.1,0.1-0.1,0.2-0.1
					c0.1,0,0.2,0,0.3,0c0.1,0,0.3,0,0.4,0.1c0.2,0,0.4,0,0.5,0.1c0.1,0,0.1,0.1,0.1,0.1C89,15.6,89,15.7,88.9,15.7z"/>
				<path class="st3" d="M92.6,15.2c-0.2,0.1-0.4,0.1-0.6,0.2c-0.1,0-0.2,0.1-0.3,0.1c-0.1,0-0.1,0-0.2,0c0,0,0-0.1,0.1-0.2
					c0.1,0,0.2-0.1,0.3-0.1c0.1-0.1,0.3-0.1,0.4-0.2c0.1,0,0.2-0.1,0.3-0.1c0.1,0,0.2,0.1,0.2,0.1C92.8,15.1,92.8,15.2,92.6,15.2z"
					/>
				<path class="st3" d="M89.2,18.3c0,0-0.1,0-0.1,0c0,0-0.1,0-0.1-0.1c0,0,0-0.1,0-0.1c0-0.1,0.1-0.1,0.1-0.2
					c0.1-0.2,0.2-0.4,0.4-0.6c0,0,0-0.1,0.1-0.1c0-0.1,0.1-0.1,0.1,0c0,0,0.1,0.1,0,0.1c0,0.1-0.1,0.1-0.1,0.2
					c-0.1,0.1-0.1,0.3-0.2,0.4c0,0.1-0.1,0.2-0.1,0.3C89.3,18.2,89.2,18.3,89.2,18.3z"/>
				<path class="st3" d="M88,16.6c0-0.1,0-0.2,0.1-0.2c0,0,0,0,0.1,0c0.2-0.1,0.4-0.1,0.6-0.2c0,0,0,0,0.1,0c0,0,0.1,0,0.1,0.1
					c0,0,0,0.1,0,0.1c-0.1,0-0.1,0.1-0.2,0.1c-0.2,0.1-0.3,0.1-0.5,0.2c0,0,0,0,0,0C88.1,16.7,88.1,16.7,88,16.6z"/>
				<path class="st3" d="M90.8,14.6C90.8,14.6,90.8,14.5,90.8,14.6c-0.1,0-0.1-0.1-0.1-0.1c0-0.1,0.1-0.2,0.1-0.3
					c0.1-0.1,0.1-0.3,0.2-0.4c0-0.1,0.1-0.1,0.1-0.1c0.1,0.1,0.2,0.1,0.1,0.2c-0.1,0.2-0.2,0.3-0.3,0.5
					C90.9,14.4,90.9,14.5,90.8,14.6C90.9,14.5,90.9,14.5,90.8,14.6z"/>
			</g>
		</g>
	</g>
</g>
<g>
</g>
<g>
</g>
<g>
</g>
<g>
</g>
<g>
</g>
<g>
</g>
<g>
</g>
<g>
</g>
<g>
</g>
<g>
</g>
<g>
</g>
<g>
</g>
<g>
</g>
<g>
</g>
<g>
</g>
</svg>
