<?xml version="1.0" encoding="UTF-8"?>
<svg id="Capa_2" data-name="Capa 2" xmlns="http://www.w3.org/2000/svg" xmlns:xlink="http://www.w3.org/1999/xlink" viewBox="0 0 158.39 359.29">
  <defs>
    <style>
      .cls-1 {
        fill: url(#Nueva_muestra_de_motivo_3);
        font-family: GreatVibes-Regular, 'Great Vibes';
        font-size: 47.44px;
      }

      .cls-2 {
        font-family: CormorantInfant-Bold, 'Cormorant Infant';
        font-size: 14px;
        font-weight: 700;
      }

      .cls-2, .cls-3, .cls-4, .cls-5, .cls-6 {
        fill: #7f5f1f;
      }

      .cls-7 {
        fill: url(#linear-gradient);
      }

      .cls-7, .cls-8, .cls-4, .cls-9, .cls-10, .cls-11, .cls-12, .cls-13 {
        stroke-width: 0px;
      }

      .cls-8 {
        fill: url(#Nueva_muestra_de_motivo_1);
      }

      .cls-14 {
        stroke: url(#Nueva_muestra_de_motivo_1);
      }

      .cls-14, .cls-15, .cls-3, .cls-16, .cls-17, .cls-18, .cls-19, .cls-20, .cls-21, .cls-22, .cls-5, .cls-6 {
        stroke-miterlimit: 10;
      }

      .cls-14, .cls-15, .cls-9, .cls-16, .cls-17, .cls-18, .cls-19, .cls-20, .cls-21, .cls-22 {
        fill: none;
      }

      .cls-15 {
        stroke: url(#_Безымянный_градиент_17-8);
      }

      .cls-15, .cls-16, .cls-17, .cls-18, .cls-19, .cls-20, .cls-21, .cls-22 {
        stroke-width: .1px;
      }

      .cls-23 {
        letter-spacing: 0em;
      }

      .cls-3 {
        stroke: url(#_Безымянный_градиент_17-9);
      }

      .cls-3, .cls-5, .cls-6 {
        stroke-width: .25px;
      }

      .cls-10 {
        fill: url(#Nueva_muestra_de_motivo_1-2);
      }

      .cls-16 {
        stroke: url(#_Безымянный_градиент_17-3);
      }

      .cls-11 {
        fill: url(#Nueva_muestra_de_motivo_1-3);
      }

      .cls-17 {
        stroke: url(#_Безымянный_градиент_17-7);
      }

      .cls-12 {
        fill: url(#Nueva_muestra_de_motivo_1-4);
      }

      .cls-24 {
        letter-spacing: -.01em;
      }

      .cls-13 {
        fill: url(#linear-gradient-2);
      }

      .cls-18 {
        stroke: url(#_Безымянный_градиент_17-6);
      }

      .cls-19 {
        stroke: url(#_Безымянный_градиент_17);
      }

      .cls-20 {
        stroke: url(#_Безымянный_градиент_17-4);
      }

      .cls-21 {
        stroke: url(#_Безымянный_градиент_17-2);
      }

      .cls-22 {
        stroke: url(#_Безымянный_градиент_17-5);
      }

      .cls-5 {
        stroke: url(#_Безымянный_градиент_17-10);
      }

      .cls-25 {
        fill: #5e402f;
        font-family: CormorantInfant-Regular, 'Cormorant Infant';
        font-size: 12px;
        letter-spacing: .01em;
      }

      .cls-26 {
        letter-spacing: -.02em;
      }

      .cls-6 {
        stroke: #7f5f1f;
      }
    </style>
    <linearGradient id="_Безымянный_градиент_17" data-name="Безымянный градиент 17" x1="29.33" y1="90.44" x2="64.64" y2="90.44" gradientUnits="userSpaceOnUse">
      <stop offset="0" stop-color="#fff"/>
      <stop offset="1" stop-color="#fff"/>
    </linearGradient>
    <linearGradient id="_Безымянный_градиент_17-2" data-name="Безымянный градиент 17" x1="40.73" y1="73.42" x2="53.28" y2="73.42" xlink:href="#_Безымянный_градиент_17"/>
    <linearGradient id="_Безымянный_градиент_17-3" data-name="Безымянный градиент 17" x1="53.93" y1="67.04" x2="56.15" y2="67.04" xlink:href="#_Безымянный_градиент_17"/>
    <linearGradient id="_Безымянный_градиент_17-4" data-name="Безымянный градиент 17" x1="37.9" y1="76.35" x2="40.04" y2="76.35" xlink:href="#_Безымянный_градиент_17"/>
    <linearGradient id="_Безымянный_градиент_17-5" data-name="Безымянный градиент 17" x1="53.92" y1="76.29" x2="56.15" y2="76.29" xlink:href="#_Безымянный_градиент_17"/>
    <linearGradient id="_Безымянный_градиент_17-6" data-name="Безымянный градиент 17" x1="37.84" y1="67.03" x2="40.07" y2="67.03" xlink:href="#_Безымянный_градиент_17"/>
    <linearGradient id="_Безымянный_градиент_17-7" data-name="Безымянный градиент 17" x1="55.1" y1="71.67" x2="57.47" y2="71.67" xlink:href="#_Безымянный_градиент_17"/>
    <linearGradient id="_Безымянный_градиент_17-8" data-name="Безымянный градиент 17" x1="36.53" y1="71.67" x2="38.9" y2="71.67" xlink:href="#_Безымянный_градиент_17"/>
    <linearGradient id="linear-gradient" x1="545" y1="-15422" x2="821" y2="-15422" gradientTransform="translate(-545 -15337.5) scale(1 -1)" gradientUnits="userSpaceOnUse">
      <stop offset="0" stop-color="#dcc173"/>
      <stop offset=".24" stop-color="#ab8136"/>
      <stop offset=".52" stop-color="#73582b"/>
      <stop offset=".86" stop-color="#dcc173"/>
    </linearGradient>
    <pattern id="Nueva_muestra_de_motivo_1" data-name="Nueva muestra de motivo 1" x="0" y="0" width="276" height="169" patternTransform="translate(1065.14 -4498.3)" patternUnits="userSpaceOnUse" viewBox="0 0 276 169">
      <g>
        <rect class="cls-9" width="276" height="169"/>
        <rect class="cls-7" width="276" height="169"/>
      </g>
    </pattern>
    <pattern id="Nueva_muestra_de_motivo_1-2" data-name="Nueva muestra de motivo 1" patternTransform="translate(1065.14 -4499.3)" xlink:href="#Nueva_muestra_de_motivo_1"/>
    <pattern id="Nueva_muestra_de_motivo_1-3" data-name="Nueva muestra de motivo 1" patternTransform="translate(1065.14 -4499.3)" xlink:href="#Nueva_muestra_de_motivo_1"/>
    <pattern id="Nueva_muestra_de_motivo_1-4" data-name="Nueva muestra de motivo 1" patternTransform="translate(1065.14 -4499.3)" xlink:href="#Nueva_muestra_de_motivo_1"/>
    <linearGradient id="_Безымянный_градиент_17-9" data-name="Безымянный градиент 17" x1="29.02" y1="172.24" x2="64.38" y2="172.24" xlink:href="#_Безымянный_градиент_17"/>
    <linearGradient id="_Безымянный_градиент_17-10" data-name="Безымянный градиент 17" x1="40.84" y1="155.79" x2="52.55" y2="155.79" xlink:href="#_Безымянный_градиент_17"/>
    <linearGradient id="linear-gradient-2" x1="1703.29" y1="554.85" x2="1944.16" y2="554.85" gradientTransform="translate(698.22 1944.16) rotate(-90) scale(1 -1)" xlink:href="#linear-gradient"/>
    <pattern id="Nueva_muestra_de_motivo_3" data-name="Nueva muestra de motivo 3" x="0" y="0" width="286.73" height="240.87" patternTransform="translate(1068 -4507.68)" patternUnits="userSpaceOnUse" viewBox="0 0 286.73 240.87">
      <g>
        <rect class="cls-9" width="286.73" height="240.87"/>
        <polygon class="cls-13" points="286.73 0 286.73 240.87 0 240.87 0 0 286.73 0"/>
      </g>
    </pattern>
  </defs>
  <g id="Capa_1-2" data-name="Capa 1">
    <g>
      <g>
        <g>
          <path class="cls-4" d="m39.88,101.58c-.73-.14-1.49-.21-2.19-.43-4.17-1.27-7.01-3.92-8.01-8.23-1.36-5.88,2.09-11.54,7.9-13.17,3.27-.92,6.36-.47,9.19,1.45.22.15.34.07.51-.04,4.46-2.97,10.46-2.33,14.13,1.51,3.54,3.71,4.21,9.32,1.6,13.54-.36.58-.81,1.11-1.25,1.65-.31.39-.62.44-.88.2-.24-.22-.21-.52.09-.88,1.24-1.44,2.13-3.06,2.46-4.94.58-3.34-.4-6.25-2.69-8.69-2.02-2.16-4.53-3.27-7.51-3.22-1.93.03-3.7.65-5.29,1.65.38.37.75.74,1.16,1.14,2.18-1.29,4.56-1.54,7.04-.69,1.99.68,3.56,1.91,4.65,3.72,2.09,3.47,1.35,8-1.71,10.67-3.15,2.75-7.68,2.86-10.94.24-3.06-2.46-4.51-7.33-1.78-11.39-.34-.38-.7-.76-1.09-1.19-.68.96-1.14,1.84-1.46,2.79-1.33,3.88-.08,8.15,3.19,10.86,2.03,1.68,4.35,2.54,7,2.42,1.84-.09,3.5-.7,5.04-1.7.11-.07.21-.14.32-.21.29-.18.59-.12.76.13.16.25.1.52-.17.72-.81.6-1.69,1.06-2.64,1.4-.96.34-1.94.56-2.96.63-.1,0-.2.04-.3.06h-1.24c-.09-.02-.18-.05-.27-.06-1.93-.15-3.71-.75-5.31-1.84-.18-.12-.29-.1-.45.01-1,.69-2.09,1.21-3.27,1.51-.64.16-1.3.25-1.96.38h-1.66Zm9.81-4.72c2.63,1.73,6.73,1.39,9.36-1.5,2.55-2.79,2.53-7.11-.05-9.9-2.69-2.91-6.8-3.11-9.31-1.44,1.36,1.91,2.01,4.06,2.01,6.4,0,2.35-.64,4.51-2.01,6.43Zm-5.4-12.87c-2.93-1.93-7.4-1.03-9.69,1.94-2.4,3.11-1.98,7.44.99,10.05,2.84,2.49,6.65,2.33,8.69.88-2.68-4.29-2.68-8.57.02-12.87Zm.66,13.74c-.06.03-.14.07-.21.12-1.85,1.05-3.82,1.34-5.9.89-3.89-.85-7.27-4.4-6.75-9.25.41-3.85,3.49-6.98,7.44-7.48,5.18-.66,9.21,3.39,9.54,7.96.13,1.79-.3,3.45-1.26,4.96-.06.09-.1.27-.06.32.33.36.68.7,1.03,1.05,3.04-4.03,2.41-9.95-1.61-13.5-4.06-3.58-10.26-3.23-14.02.76-3.69,3.92-3.63,10.12.17,13.88,3.83,3.8,9.43,3.88,12.76,1.41-.37-.37-.74-.74-1.13-1.13Zm2.06-3.57c1.47-2.11,1.28-5.75-.02-7.45-1.43,2.18-1.3,5.57.02,7.45Z"/>
          <path class="cls-19" d="m39.88,101.58c-.73-.14-1.49-.21-2.19-.43-4.17-1.27-7.01-3.92-8.01-8.23-1.36-5.88,2.09-11.54,7.9-13.17,3.27-.92,6.36-.47,9.19,1.45.22.15.34.07.51-.04,4.46-2.97,10.46-2.33,14.13,1.51,3.54,3.71,4.21,9.32,1.6,13.54-.36.58-.81,1.11-1.25,1.65-.31.39-.62.44-.88.2-.24-.22-.21-.52.09-.88,1.24-1.44,2.13-3.06,2.46-4.94.58-3.34-.4-6.25-2.69-8.69-2.02-2.16-4.53-3.27-7.51-3.22-1.93.03-3.7.65-5.29,1.65.38.37.75.74,1.16,1.14,2.18-1.29,4.56-1.54,7.04-.69,1.99.68,3.56,1.91,4.65,3.72,2.09,3.47,1.35,8-1.71,10.67-3.15,2.75-7.68,2.86-10.94.24-3.06-2.46-4.51-7.33-1.78-11.39-.34-.38-.7-.76-1.09-1.19-.68.96-1.14,1.84-1.46,2.79-1.33,3.88-.08,8.15,3.19,10.86,2.03,1.68,4.35,2.54,7,2.42,1.84-.09,3.5-.7,5.04-1.7.11-.07.21-.14.32-.21.29-.18.59-.12.76.13.16.25.1.52-.17.72-.81.6-1.69,1.06-2.64,1.4-.96.34-1.94.56-2.96.63-.1,0-.2.04-.3.06h-1.24c-.09-.02-.18-.05-.27-.06-1.93-.15-3.71-.75-5.31-1.84-.18-.12-.29-.1-.45.01-1,.69-2.09,1.21-3.27,1.51-.64.16-1.3.25-1.96.38h-1.66Zm9.81-4.72c2.63,1.73,6.73,1.39,9.36-1.5,2.55-2.79,2.53-7.11-.05-9.9-2.69-2.91-6.8-3.11-9.31-1.44,1.36,1.91,2.01,4.06,2.01,6.4,0,2.35-.64,4.51-2.01,6.43Zm-5.4-12.87c-2.93-1.93-7.4-1.03-9.69,1.94-2.4,3.11-1.98,7.44.99,10.05,2.84,2.49,6.65,2.33,8.69.88-2.68-4.29-2.68-8.57.02-12.87Zm.66,13.74c-.06.03-.14.07-.21.12-1.85,1.05-3.82,1.34-5.9.89-3.89-.85-7.27-4.4-6.75-9.25.41-3.85,3.49-6.98,7.44-7.48,5.18-.66,9.21,3.39,9.54,7.96.13,1.79-.3,3.45-1.26,4.96-.06.09-.1.27-.06.32.33.36.68.7,1.03,1.05,3.04-4.03,2.41-9.95-1.61-13.5-4.06-3.58-10.26-3.23-14.02.76-3.69,3.92-3.63,10.12.17,13.88,3.83,3.8,9.43,3.88,12.76,1.41-.37-.37-.74-.74-1.13-1.13Zm2.06-3.57c1.47-2.11,1.28-5.75-.02-7.45-1.43,2.18-1.3,5.57.02,7.45Z"/>
        </g>
        <g>
          <path class="cls-4" d="m47.01,69.62c.59-.84,1.34-1.35,2.33-1.5,2.52-.38,4.55,2.07,3.69,4.47-.42,1.16-1.19,2.09-2.02,2.97-1.05,1.12-2.22,2.11-3.49,2.97-.47.32-.57.32-1.02,0-1.79-1.26-3.45-2.65-4.74-4.44-.46-.64-.81-1.33-.93-2.13-.1-.63,0-1.24.22-1.83.13-.34.39-.46.68-.35.29.11.42.38.29.71-.32.81-.17,1.58.19,2.33.51,1.04,1.28,1.88,2.14,2.64.84.75,1.73,1.45,2.64,2.2.61-.47,1.2-.91,1.76-1.38,1.08-.91,2.09-1.88,2.84-3.09.47-.76.78-1.56.49-2.48-.33-1.03-1.32-1.69-2.39-1.59-1.17.11-2.01.92-2.13,2.04-.01.11-.02.23-.04.34-.06.29-.24.45-.53.43-.28-.01-.44-.18-.47-.46-.03-.19-.03-.39-.07-.58-.29-1.3-1.74-2.1-3.01-1.67-.51.17-.79.1-.9-.24-.11-.34.08-.58.57-.75,1.25-.43,2.77,0,3.64,1.02.09.1.17.21.29.36Z"/>
          <path class="cls-21" d="m47.01,69.62c.59-.84,1.34-1.35,2.33-1.5,2.52-.38,4.55,2.07,3.69,4.47-.42,1.16-1.19,2.09-2.02,2.97-1.05,1.12-2.22,2.11-3.49,2.97-.47.32-.57.32-1.02,0-1.79-1.26-3.45-2.65-4.74-4.44-.46-.64-.81-1.33-.93-2.13-.1-.63,0-1.24.22-1.83.13-.34.39-.46.68-.35.29.11.42.38.29.71-.32.81-.17,1.58.19,2.33.51,1.04,1.28,1.88,2.14,2.64.84.75,1.73,1.45,2.64,2.2.61-.47,1.2-.91,1.76-1.38,1.08-.91,2.09-1.88,2.84-3.09.47-.76.78-1.56.49-2.48-.33-1.03-1.32-1.69-2.39-1.59-1.17.11-2.01.92-2.13,2.04-.01.11-.02.23-.04.34-.06.29-.24.45-.53.43-.28-.01-.44-.18-.47-.46-.03-.19-.03-.39-.07-.58-.29-1.3-1.74-2.1-3.01-1.67-.51.17-.79.1-.9-.24-.11-.34.08-.58.57-.75,1.25-.43,2.77,0,3.64,1.02.09.1.17.21.29.36Z"/>
        </g>
        <g>
          <path class="cls-4" d="m56.1,66.82c-.06.08-.16.26-.3.36-.32.22-.66.41-1.01.59-.32.17-.6.1-.74-.17-.14-.27-.06-.55.24-.73.34-.21.69-.41,1.04-.6.36-.19.76.05.77.54Z"/>
          <path class="cls-16" d="m56.1,66.82c-.06.08-.16.26-.3.36-.32.22-.66.41-1.01.59-.32.17-.6.1-.74-.17-.14-.27-.06-.55.24-.73.34-.21.69-.41,1.04-.6.36-.19.76.05.77.54Z"/>
        </g>
        <g>
          <path class="cls-4" d="m38.38,77.19c-.15-.14-.38-.25-.42-.4-.04-.17.02-.47.15-.56.37-.28.79-.51,1.21-.7.14-.06.43.02.54.14.11.12.16.44.08.54-.39.48-.98.67-1.57.99Z"/>
          <path class="cls-20" d="m38.38,77.19c-.15-.14-.38-.25-.42-.4-.04-.17.02-.47.15-.56.37-.28.79-.51,1.21-.7.14-.06.43.02.54.14.11.12.16.44.08.54-.39.48-.98.67-1.57.99Z"/>
        </g>
        <g>
          <path class="cls-4" d="m56.1,76.52c0,.46-.4.72-.74.55-.4-.2-.79-.42-1.16-.67-.24-.16-.29-.4-.15-.66.13-.25.41-.34.68-.2.38.2.77.41,1.13.65.13.08.19.26.24.33Z"/>
          <path class="cls-22" d="m56.1,76.52c0,.46-.4.72-.74.55-.4-.2-.79-.42-1.16-.67-.24-.16-.29-.4-.15-.66.13-.25.41-.34.68-.2.38.2.77.41,1.13.65.13.08.19.26.24.33Z"/>
        </g>
        <g>
          <path class="cls-4" d="m40.02,67.27c-.01.45-.39.71-.71.55-.41-.2-.81-.43-1.19-.68-.24-.16-.29-.42-.14-.67.15-.25.39-.34.65-.2.4.21.79.42,1.16.67.13.08.19.26.23.33Z"/>
          <path class="cls-18" d="m40.02,67.27c-.01.45-.39.71-.71.55-.41-.2-.81-.43-1.19-.68-.24-.16-.29-.42-.14-.67.15-.25.39-.34.65-.2.4.21.79.42,1.16.67.13.08.19.26.23.33Z"/>
        </g>
        <g>
          <path class="cls-4" d="m56.27,72.18c-.22,0-.44.02-.65,0-.31-.03-.49-.25-.47-.53.02-.3.2-.47.49-.48.44-.01.87-.01,1.31,0,.3.01.47.2.47.49,0,.29-.16.48-.45.51-.23.02-.46,0-.69,0,0,0,0,0,0,0Z"/>
          <path class="cls-17" d="m56.27,72.18c-.22,0-.44.02-.65,0-.31-.03-.49-.25-.47-.53.02-.3.2-.47.49-.48.44-.01.87-.01,1.31,0,.3.01.47.2.47.49,0,.29-.16.48-.45.51-.23.02-.46,0-.69,0,0,0,0,0,0,0Z"/>
        </g>
        <g>
          <path class="cls-4" d="m37.71,71.16c.22,0,.44-.01.66,0,.29.02.47.18.48.48.01.3-.14.5-.44.52-.46.03-.92.02-1.38,0-.3-.01-.46-.22-.45-.51,0-.29.18-.47.48-.49.22-.01.44,0,.66,0Z"/>
          <path class="cls-15" d="m37.71,71.16c.22,0,.44-.01.66,0,.29.02.47.18.48.48.01.3-.14.5-.44.52-.46.03-.92.02-1.38,0-.3-.01-.46-.22-.45-.51,0-.29.18-.47.48-.49.22-.01.44,0,.66,0Z"/>
        </g>
      </g>
      <line class="cls-14" x1="80.26" y1="336.34" x2="80.26" y2="82.76"/>
      <circle class="cls-8" cx="80.26" cy="82.76" r="2.87"/>
      <circle class="cls-10" cx="80.26" cy="168.56" r="2.87"/>
      <circle class="cls-11" cx="80.27" cy="251.19" r="2.87"/>
      <circle class="cls-12" cx="80.26" cy="334.47" r="2.87"/>
      <text class="cls-2" transform="translate(90.35 88.14)"><tspan x="0" y="0">Ce</tspan><tspan class="cls-24" x="15.22" y="0">r</tspan><tspan x="20.36" y="0">emonia</tspan></text>
      <text class="cls-25" transform="translate(100 107.69)"><tspan x="0" y="0">2:00 p.m.</tspan></text>
      <text class="cls-2" transform="translate(92.37 170.85)"><tspan class="cls-26" x="0" y="0">R</tspan><tspan class="cls-23" x="9.52" y="0">ec</tspan><tspan x="21.15" y="0">epción</tspan></text>
      <text class="cls-25" transform="translate(97.88 190.39)"><tspan x="0" y="0">4:00 p.m.</tspan></text>
      <text class="cls-2" transform="translate(105.08 254.07)"><tspan x="0" y="0">Cena</tspan></text>
      <text class="cls-25" transform="translate(98.1 273.62)"><tspan x="0" y="0">6:00 p.m.</tspan></text>
      <text class="cls-2" transform="translate(105.96 336.34)"><tspan x="0" y="0">Baile</tspan></text>
      <text class="cls-25" transform="translate(98.56 355.89)"><tspan x="0" y="0">8:00 p.m.</tspan></text>
      <g>
        <path class="cls-6" d="m49.29,342.86h0c-.17,0-.32-.11-.36-.28l-.69-2.55-2.55-.69c-.16-.04-.28-.19-.28-.36s.11-.32.28-.36l2.55-.69.69-2.55c.09-.33.63-.33.72,0l.69,2.55,2.54.69c.16.04.28.19.28.36s-.11.32-.28.36l-2.54.69-.69,2.55c-.04.16-.19.28-.36.28Zm-2.06-3.87l1.41.38c.13.03.23.14.26.26l.38,1.41.38-1.41c.03-.13.13-.23.26-.26l1.41-.38-1.41-.38c-.13-.03-.23-.14-.26-.26l-.38-1.41-.38,1.41c-.03.13-.13.23-.26.26l-1.41.38Z"/>
        <path class="cls-6" d="m52.19,320.25h0c-.17,0-.32-.11-.36-.28l-.69-2.55-2.55-.69c-.16-.04-.28-.19-.28-.36s.11-.32.28-.36l2.55-.69.69-2.55c.09-.33.63-.33.72,0l.69,2.55,2.54.69c.16.04.28.19.28.36s-.11.32-.28.36l-2.54.69-.69,2.55c-.04.16-.19.28-.36.28Zm-2.06-3.87l1.41.38c.13.03.23.14.26.26l.38,1.41.38-1.41c.03-.13.13-.23.26-.26l1.41-.38-1.41-.38c-.13-.03-.23-.14-.26-.26l-.38-1.41-.38,1.41c-.03.13-.13.23-.26.26l-1.41.38Z"/>
        <path class="cls-6" d="m62.42,328.12h0c-.17,0-.32-.11-.36-.28l-.68-2.55-2.55-.69c-.16-.04-.28-.19-.28-.36s.11-.32.28-.36l2.55-.69.69-2.55c.09-.33.63-.33.72,0l.69,2.55,2.54.69c.16.04.28.19.28.36s-.11.32-.28.36l-2.54.69-.69,2.55c-.04.16-.19.28-.36.28Zm-2.06-3.87l1.41.38c.13.03.23.14.26.26l.38,1.41.38-1.41c.03-.13.13-.23.26-.26l1.41-.38-1.41-.38c-.13-.03-.23-.14-.26-.26l-.38-1.41-.38,1.41c-.03.13-.13.23-.26.26l-1.41.38Z"/>
        <path class="cls-6" d="m40.85,338.94c-1.99,0-3.61-1.62-3.61-3.61s1.62-3.61,3.61-3.61c.79,0,1.54.26,2.17.73l1.93-6.44-8.26-2.29-2.56,8.81s-.03.07-.05.1c-.54,1.38-1.87,2.3-3.35,2.3-1.99,0-3.61-1.62-3.61-3.61s1.62-3.61,3.61-3.61c.79,0,1.54.26,2.17.73l2.9-9.71c.06-.19.25-.31.45-.26l11.93,3.04c.1.02.18.09.23.18.05.09.06.19.03.29l-4.19,14.54s-.03.07-.05.11c-.54,1.38-1.87,2.3-3.35,2.3Zm0-6.48c-1.58,0-2.86,1.28-2.86,2.86s1.29,2.86,2.86,2.86c1.2,0,2.28-.76,2.68-1.9,0-.02.02-.04.03-.06l4.06-14.08-11.21-2.86-2.97,9.93c-.04.13-.14.23-.27.26-.13.03-.27-.01-.36-.11-.55-.59-1.29-.91-2.08-.91-1.58,0-2.86,1.28-2.86,2.86s1.29,2.86,2.86,2.86c1.2,0,2.28-.76,2.68-1.9,0-.02.02-.04.03-.06l2.64-9.08c.06-.2.26-.31.46-.26l8.98,2.49c.1.03.18.09.23.18.05.09.06.19.03.29l-2.21,7.38c-.04.13-.14.23-.27.26-.13.03-.27-.01-.36-.11-.55-.59-1.29-.91-2.08-.91Z"/>
        <path class="cls-6" d="m55.88,348.82c-.15,0-.29,0-.44-.03-.96-.12-1.81-.6-2.41-1.36-.6-.76-.86-1.7-.74-2.66.12-.96.6-1.81,1.36-2.41.62-.49,1.37-.75,2.16-.76l-5.3-13.41c-.06-.14-.02-.31.1-.41.12-.11,2.93-2.63,6.01-1.39.09.04.16.1.2.19l1.12,2.39c.06.13.04.29-.06.4-.1.11-.25.16-.39.11-.79-.24-2.96-.67-4.1-.05l5.91,14.61s.02.07.03.11c.43,1.42-.05,2.97-1.22,3.89-.64.5-1.42.77-2.22.77Zm-.03-6.47c-.64,0-1.24.21-1.75.6-.6.47-.98,1.15-1.08,1.91-.09.76.12,1.51.59,2.11.47.6,1.15.98,1.91,1.08.76.09,1.51-.12,2.11-.59.94-.74,1.32-2.01.94-3.15,0-.02-.01-.04-.01-.06l-5.99-14.81c-.06-.15-.02-.33.11-.43,1.12-.9,3.13-.65,4.23-.43l-.72-1.55c-2.17-.78-4.27.64-4.9,1.14l5.42,13.71c.05.12.03.27-.06.37-.08.1-.22.15-.35.14-.15-.02-.3-.03-.45-.03Z"/>
      </g>
      <g>
        <g>
          <path class="cls-6" d="m31.92,259.33c-7.13-3.1-10.4-11.42-7.3-18.55,3.1-7.13,11.42-10.4,18.55-7.3,7.13,3.1,10.4,11.42,7.3,18.55-3.1,7.13-11.42,10.4-18.55,7.3Zm10.99-25.24c-6.79-2.96-14.72.16-17.68,6.96-2.96,6.79.16,14.72,6.96,17.68,6.79,2.96,14.72-.16,17.68-6.96s-.16-14.72-6.96-17.68Z"/>
          <path class="cls-6" d="m32.51,258c-6.39-2.78-9.33-10.24-6.55-16.63,2.78-6.39,10.24-9.33,16.63-6.55,6.39,2.78,9.33,10.24,6.55,16.63-2.78,6.39-10.24,9.33-16.63,6.55Zm9.83-22.58c-6.06-2.64-13.13.15-15.77,6.2s.15,13.13,6.2,15.77c6.06,2.64,13.13-.15,15.77-6.2,2.64-6.06-.15-13.13-6.2-15.77Z"/>
          <path class="cls-6" d="m33.73,255.19c-4.84-2.11-7.07-7.76-4.96-12.6,2.11-4.84,7.76-7.07,12.6-4.96,4.84,2.11,7.07,7.76,4.96,12.6-2.11,4.84-7.76,7.07-12.6,4.96Zm7.38-16.96c-4.51-1.96-9.77.11-11.73,4.62-1.96,4.51.11,9.77,4.62,11.73,4.51,1.96,9.77-.11,11.73-4.62,1.96-4.51-.11-9.77-4.62-11.74Z"/>
        </g>
        <path class="cls-6" d="m61.06,256.77c-.45-.2-.83-.69-.83-1.43l-.02-10.95c-.35-.39-1.38-1.77-1.14-4.64.19-2.22,2.05-8.02,3.13-7.98.32.01.48.29.48.84,0,.27.03,20.74.04,22.73h0c0,1.05-.62,1.54-1.21,1.54-.15,0-.31-.03-.46-.1Zm.97-24.07c-.7,1.09-2.1,4.77-2.3,7.1-.26,3.01,1.01,4.19,1.03,4.2.07.06.11.15.11.25l.02,11.08c0,.57.32.87.63.88.33,0,.55-.34.55-.88h0c0-1.92-.03-21.1-.04-22.63Z"/>
        <path class="cls-6" d="m54.01,256.75s-.06-.03-.09-.05c-.3-.16-.47-.42-.47-.72l-.03-16.54c-.33-.04-.83-.15-1.21-.51-.35-.33-.53-.78-.53-1.34v-4.85c0-.39.17-.72.47-.89.32-.18.73-.18,1.06,0,.32.18.5.5.5.88v2.89s.06,0,.08-.01l-.03-2.88c0-.72.52-1.11,1.02-1.11.49,0,.98.38.98,1.11v2.89s.05-.02.06-.03l-.02-2.86c0-.67.54-1.03,1.04-1.03.49,0,.99.35.99,1.02v4.85c0,.54-.16.97-.51,1.3-.43.41-1.02.53-1.39.56l.03,16.53c0,.53-.52.9-1.26.9-.26,0-.5-.05-.71-.14Zm-.13-17.92s.07.04.09.06c.07.06.1.15.1.24l.03,16.85s0,.07.12.14c.11.06.3.1.49.1.35,0,.6-.13.6-.24l-.03-16.85c0-.09.04-.18.1-.24.07-.06.15-.1.24-.09,0,0,.8.03,1.25-.39.21-.2.31-.46.31-.82v-4.85c0-.33-.24-.37-.34-.37-.13,0-.38.08-.38.37v2.89c0,.36-.32.65-.71.65-.38,0-.65-.27-.65-.65v-2.89c0-.28-.13-.45-.33-.45-.17,0-.36.14-.36.45v2.89c0,.38-.27.65-.64.65-.39,0-.71-.29-.72-.65v-2.89c0-.14-.06-.24-.17-.31-.12-.07-.29-.08-.4-.01-.1.06-.15.17-.15.32v4.85c0,.38.11.66.32.86.4.38,1.06.34,1.07.34.05,0,.1,0,.15.03Zm1.89-3.2h0s0,0,0,0Z"/>
      </g>
      <g>
        <path class="cls-3" d="m64.26,184.92c-.2.37-.51.49-.93.49-7.25,0-14.49,0-21.74,0-.09,0-.18,0-.27,0-.38-.03-.64-.31-.65-.67,0-.37.27-.68.66-.69.49-.02.98,0,1.51,0,0-.81,0-1.58,0-2.36,0-.31-.02-.62,0-.92.03-.34-.09-.54-.4-.66-1.28-.5-2.5-.44-3.64.39-.43.32-.68.33-1.09,0-.95-.78-2.76-.92-3.78-.28-.11.07-.23.22-.23.33-.01,1.11,0,2.22,0,3.33,0,.05.02.11.03.19.45,0,.9,0,1.34,0,.48,0,.78.26.79.67,0,.42-.3.7-.79.7-1.71,0-3.43,0-5.14,0-.52,0-.78-.27-.78-.78,0-1.55-.02-3.11,0-4.66.02-1.13.35-2.15,1.17-2.99.09-.1.15-.25.17-.39.42-2.77.86-5.53,1.22-8.3.11-.87.03-1.76.03-2.64,0-.97.2-1.9.61-2.79,1.2-2.58,3.99-4.1,6.8-3.7,2.83.4,5.12,2.65,5.53,5.46.07.52.1,1.05.07,1.57-.07,1.51.15,2.98.38,4.46.29,1.91.6,3.81.84,5.73.07.52.45.77.66,1.14.04,0,.07,0,.08-.01.85-1.16,2.08-1.71,3.4-2.11.6-.18,1.21-.35,1.81-.51.22-.06.29-.15.32-.39.07-.66-.14-1.1-.69-1.54-1.29-1.01-2.17-2.33-2.49-3.98-.05-.23-.07-.48-.07-.72,0-1.1-.03-2.19,0-3.29.09-2.86,2.07-5.19,4.87-5.76,3.35-.68,6.51,1.37,7.25,4.69.07.33.11.68.12,1.02.02,1.12.03,2.24,0,3.36-.03,1.54-.75,2.8-1.75,3.91-.39.43-.87.78-1.29,1.17-.09.09-.14.23-.19.36-.02.04,0,.09,0,.14q0,.94.92,1.18c1.15.31,2.29.62,3.31,1.26,1.11.7,1.76,1.69,1.95,3,0,.07.04.13.06.19v5.42Zm-27.5-10.49c0,.3,0,.54,0,.78,0,.43-.17.65-.58.78-.34.11-.68.19-1.02.3-.9.29-1.82.54-2.69.89-1.33.53-1.97,1.56-1.95,3,.01,1.19,0,2.38,0,3.56,0,.09,0,.18.01.27h1.79c0-1.17.01-2.31,0-3.45-.01-.67.24-1.17.83-1.5,1.61-.9,3.23-.83,4.85-.04.21.1.35.09.55,0,1.56-.75,3.13-.83,4.71-.03.7.35.99.91.96,1.7-.04,1.02-.01,2.03-.01,3.05,0,.1.02.19.03.29h1.76c0-1.47.03-2.92-.01-4.36-.03-.86-.43-1.6-1.18-2.06-.55-.33-1.15-.6-1.76-.82-.87-.3-1.77-.52-2.66-.78-.43-.13-.59-.35-.6-.8,0-.24,0-.48,0-.76-1.01.38-1.99.39-3.03,0Zm23.1-7.72c-.28.1-.54.19-.8.28-1.75.61-3.47.6-5.14-.29-.28-.15-.58-.27-.87-.4-.77-.34-1.56-.41-2.38-.24-.24.05-.31.15-.31.39.02.56-.03,1.12.02,1.68.05.5.12,1.03.31,1.49.58,1.37,1.57,2.39,2.9,3.08,1,.52,2.01.55,3.02.03,2.05-1.07,3.66-3.01,3.24-6.01Zm-16.45.67c0-.63,0-1.23,0-1.82-.04-3.38-3.26-5.84-6.51-4.9-2.98.86-4.11,3.54-3.71,6.31.88-.52,1.67-1.12,2.29-1.93.32-.41.66-.47,1.07-.19,2.04,1.45,4.39,2.08,6.86,2.53Zm-.77,1.27c-.17-.05-.25-.07-.32-.09-2.09-.43-4.11-1.05-5.94-2.17-.06-.04-.21-.01-.28.04-.66.52-1.32,1.05-1.97,1.58-.08.06-.16.18-.16.27,0,.34-.04.69.03,1.02.41,1.9,1.61,3.15,3.37,3.88.63.26,1.28.23,1.9-.03,1.51-.63,2.56-1.72,3.13-3.26.14-.39.16-.82.24-1.25Zm7.77-3.99s.07.03.09.03c.08,0,.16-.03.24-.03.67.03,1.36-.04,2,.11.68.15,1.31.52,1.97.77.48.18.96.37,1.46.45,1.08.18,2.1-.14,3.1-.53.71-.28.72-.28.58-1.01-.38-1.96-1.51-3.3-3.45-3.81-1.95-.51-3.64.05-4.97,1.58-.6.7-.93,1.52-1.02,2.44Zm2.34,19.36c-.18-.12-.28-.19-.38-.26-1-.64-2-1.27-3-1.91-.38-.24-.47-.46-.37-.9.14-.6.28-1.2.42-1.8.17-.73.33-1.46.5-2.2-1.59.39-2.52,1.53-2.53,3.11-.01,1.23,0,2.47,0,3.7,0,.09.02.17.03.26h5.34Zm10.09,0c.02-.05.03-.07.03-.09,0-1.2,0-2.4,0-3.6,0-.32-.02-.64-.07-.95-.18-1.16-1.37-2.31-2.46-2.39.3,1.29.6,2.58.89,3.87.13.59.07.74-.45,1.08-.99.63-1.98,1.26-2.97,1.9-.08.05-.15.11-.27.2h5.29Zm-30.84-8.23c.95-.28,1.86-.56,2.76-.82.62-.18.6-.17.63-.83.01-.31-.08-.51-.33-.71-.94-.74-1.65-1.67-2.11-2.77-.03-.07-.07-.14-.14-.27-.27,1.85-.54,3.61-.8,5.4Zm11.74-5.33c-.58,1.28-1.4,2.33-2.51,3.16-.01.39-.03.77-.03,1.16,0,.02.07.04.12.05,1.06.31,2.11.62,3.21.94-.26-1.77-.53-3.54-.79-5.32Zm11.4,12.67c.57-1.17,1.1-2.27,1.63-3.38.03-.06-.02-.18-.07-.23-.51-.47-1.03-.93-1.56-1.41-.5.45-.97.89-1.46,1.31-.18.15-.21.28-.1.49.39.77.76,1.56,1.14,2.33.13.27.26.54.43.89Zm4.03-5.19c-.8,1.65-1.56,3.23-2.32,4.8.99-.56,1.93-1.15,2.87-1.76.06-.04.1-.16.09-.22-.2-.91-.41-1.82-.64-2.82Zm-5.81,4.83s.04-.02.06-.04c-.76-1.57-1.51-3.14-2.31-4.79-.23,1-.44,1.89-.63,2.79-.02.08.05.22.12.27.92.6,1.84,1.18,2.77,1.77Zm3.25-8.56c-.98.37-1.97.36-3.02-.02.04.34-.02.68.13.83.43.46.94.85,1.43,1.27.38-.33.72-.66,1.1-.92.43-.29.49-.67.37-1.15Zm-3.78,4.14c.44-.39.85-.76,1.27-1.15-.42-.36-.8-.7-1.19-1.03-.05-.04-.15-.08-.21-.07-.27.07-.54.15-.84.24.33.68.64,1.33.97,2.01Zm4.62,0c.33-.68.64-1.33.97-2.01-.25-.07-.46-.14-.66-.19-.1-.02-.25-.06-.32,0-.43.34-.83.7-1.26,1.06.44.4.85.76,1.27,1.15Z"/>
        <path class="cls-5" d="m46.71,151.53c.98-.81,2.04-1.17,3.27-.85,1.46.38,2.49,1.88,2.44,3.53-.03,1.05-.41,1.96-1.17,2.69-1.31,1.27-2.63,2.54-3.94,3.81-.44.43-.77.43-1.21,0-1.31-1.27-2.64-2.53-3.94-3.81-1.16-1.14-1.47-2.53-.95-4.06.74-2.18,3.14-2.95,5.04-1.64.15.1.29.22.45.34Zm-.1,7.9s.07-.06.1-.08c.04-.03.07-.05.1-.08,1.18-1.13,2.36-2.26,3.52-3.4.62-.6.82-1.36.67-2.2-.28-1.61-1.9-2.24-3.2-1.25-.12.09-.23.19-.34.29-.55.49-.98.48-1.54,0-.29-.24-.59-.48-.93-.62-.96-.4-1.85-.05-2.35.87-.53.96-.36,2.15.44,2.93.93.91,1.88,1.8,2.81,2.72.26.25.48.55.71.83Z"/>
      </g>
      <text class="cls-1" transform="translate(.87 44.07)"><tspan x="0" y="0">Itinerario</tspan></text>
    </g>
  </g>
</svg>