<?xml version="1.0" encoding="utf-8"?>
<!-- Generator: Adobe Illustrator 28.0.0, SVG Export Plug-In . SVG Version: 6.00 Build 0)  -->
<svg version="1.1" id="Capa_1" xmlns="http://www.w3.org/2000/svg" xmlns:xlink="http://www.w3.org/1999/xlink" x="0px" y="0px"
	 viewBox="0 0 430 734" style="enable-background:new 0 0 430 734;" xml:space="preserve">
<style type="text/css">
	.st0{fill:#504322;stroke:#504322;stroke-width:0.2972;stroke-miterlimit:10;}
</style>
<g>
	<path class="st0" d="M132.3,291.4c-0.7-2.8-1.1-4.2-1.1-4.4c0-0.2,0.1-0.4,0.3-0.6c0.2-0.2,0.4-0.3,0.7-0.3c0.3,0,0.5,0.1,0.7,0.3
		c0.2,0.2,0.3,0.4,0.3,0.7c0,0.3-0.1,0.5-0.3,0.7c-0.2,0.2-0.4,0.3-0.7,0.3h-0.1l0.5,3.4H132.3z M134.9,291.4
		c-0.7-2.8-1.1-4.2-1.1-4.4c0-0.2,0.1-0.4,0.3-0.6c0.2-0.2,0.4-0.3,0.7-0.3c0.3,0,0.5,0.1,0.7,0.3c0.2,0.2,0.3,0.4,0.3,0.7
		c0,0.3-0.1,0.5-0.3,0.7c-0.2,0.2-0.4,0.3-0.7,0.3h-0.1l0.5,3.4H134.9z"/>
	<path class="st0" d="M149.4,287.2v0.2h-7.5v7.1h6.9v0.2h-6.9v8.8h8v0.2h-10v-16.6H149.4z"/>
	<path class="st0" d="M155.3,303.9c-1.4,0-2.3-0.4-2.6-1.1c-0.1-0.2-0.1-0.3-0.1-0.4v-16.3h1.7v16.1c0,0.5,0.1,0.8,0.3,1.1
		c0.2,0.2,0.4,0.4,0.6,0.4l0.3,0h0.7v0.2H155.3z"/>
	<path class="st0" d="M176.1,303.9c-0.7,0-1.1-0.1-1.5-0.4c-0.3-0.3-0.5-0.6-0.5-0.9l0-0.4v-7.5c0-1.3-0.3-2.1-1-2.4
		c-0.3-0.2-0.7-0.2-1.2-0.2c-1,0-1.9,0.4-2.7,1.2c-0.8,0.8-1.2,1.5-1.2,2.2v8.4h-1.7v-17.8h1.7v8.6c0.3-0.7,0.7-1.3,1.5-1.9
		c0.7-0.6,1.5-0.9,2.4-0.9c1.5,0,2.6,0.3,3.1,0.8c0.5,0.5,0.8,1.2,0.8,2.1v7.4c0,0.5,0.1,0.8,0.3,1.1c0.2,0.2,0.4,0.4,0.5,0.4l0.3,0
		h0.7v0.2H176.1z"/>
	<path class="st0" d="M184.9,304c-1.7,0-3-0.5-4.1-1.4s-1.6-2.4-1.6-4.4c0-2,0.5-3.5,1.6-4.6c1.1-1.1,2.5-1.6,4.1-1.6
		c1.7,0,3,0.5,4.1,1.4c1,1,1.6,2.4,1.6,4.4c0,2-0.5,3.5-1.6,4.6C187.9,303.4,186.5,304,184.9,304z M185,292.1c-1.2,0-2.2,0.5-3,1.6
		c-0.8,1.1-1.2,2.6-1.2,4.5c0,1.9,0.4,3.3,1.1,4.2c0.7,0.9,1.7,1.4,2.9,1.4c1.2,0,2.2-0.5,3-1.6c0.8-1.1,1.2-2.6,1.2-4.5
		c0-1.9-0.4-3.3-1.1-4.2C187.2,292.5,186.2,292.1,185,292.1z"/>
	<path class="st0" d="M207,294.7c0-1-0.1-1.6-0.4-2c-0.3-0.4-0.7-0.6-1.5-0.6c-1,0-1.8,0.4-2.5,1.2s-1.1,1.5-1.1,2.1v8.5h-1.7v-9.2
		c0-1-0.1-1.6-0.4-2c-0.3-0.4-0.8-0.6-1.6-0.6c-0.8,0-1.6,0.4-2.3,1.1c-0.7,0.8-1.1,1.5-1.2,2.1v8.5h-1.7V292h1.7v2.7
		c0.3-0.7,0.7-1.3,1.4-1.9c0.7-0.6,1.4-0.9,2.3-0.9c0.8,0,1.5,0.1,2,0.2c0.5,0.2,0.9,0.4,1.1,0.7c0.2,0.3,0.3,0.6,0.4,0.8
		c0,0.2,0.1,0.6,0.1,1c0.3-0.7,0.7-1.3,1.4-1.9c0.7-0.6,1.4-0.9,2.1-0.9c0.8,0,1.4,0.1,1.8,0.2s0.8,0.3,1,0.4
		c0.2,0.2,0.4,0.4,0.5,0.7c0.1,0.3,0.2,0.5,0.2,0.7c0,0.2,0,0.5,0,0.8v7.4c0,0.5,0.1,0.8,0.3,1.1c0.2,0.2,0.4,0.4,0.6,0.4l0.3,0h0.7
		v0.2H209c-0.7,0-1.1-0.1-1.5-0.4c-0.3-0.3-0.5-0.6-0.5-0.9l0-0.4V294.7z"/>
	<path class="st0" d="M211.8,286.1h1.7v8.9c0.3-0.7,0.8-1.4,1.5-2.1c0.7-0.7,1.6-1,2.5-1c3.2,0,4.8,1.9,4.8,5.7
		c0,4.3-2.1,6.4-6.2,6.4c-1.2,0-2.6-0.2-4.2-0.6V286.1z M217.4,292.1c-1,0-1.9,0.4-2.7,1.3c-0.8,0.8-1.2,1.6-1.3,2.3v7.6
		c1,0.4,1.8,0.5,2.5,0.5c3.1,0,4.6-2.1,4.6-6.3C220.6,293.9,219.5,292.1,217.4,292.1z"/>
	<path class="st0" d="M229.3,293v-0.5c-0.7,0.3-1.4,0.9-2,1.7c-0.6,0.9-0.9,1.7-0.9,2.4v7.2h-1.7V292h1.7v3.8
		c0.3-0.9,0.7-1.8,1.5-2.6c0.7-0.8,1.5-1.2,2.4-1.3h0.1c0.3,0,0.6,0.1,0.8,0.3c0.2,0.2,0.3,0.5,0.3,0.8c0,0.3-0.1,0.6-0.3,0.8
		c-0.2,0.2-0.5,0.3-0.8,0.3c-0.3,0-0.6-0.1-0.8-0.3C229.4,293.6,229.3,293.3,229.3,293z"/>
	<path class="st0" d="M234.8,298.1c0,2,0.3,3.4,1,4.3c0.7,0.9,1.6,1.4,2.7,1.4c1.6,0,3-0.2,4.2-0.7l0.1,0.2
		c-1.3,0.5-2.7,0.7-4.3,0.7c-1.6,0-2.9-0.5-3.9-1.4c-1-1-1.5-2.4-1.5-4.4c0-2,0.5-3.5,1.6-4.6c1-1.1,2.4-1.6,4-1.6
		c1.3,0,2.4,0.4,3.3,1.2c0.9,0.8,1.3,1.9,1.3,3.4c0,0.1,0,0.2,0,0.2h-8.5C234.8,297.2,234.8,297.6,234.8,298.1z M240.8,293.2
		c-0.6-0.7-1.3-1.1-2.2-1.1c-0.9,0-1.7,0.4-2.4,1.2c-0.7,0.8-1.2,1.9-1.3,3.3h6.8C241.7,295,241.4,293.9,240.8,293.2z"/>
	<path class="st0" d="M253.3,298.4c0-2.1,0.5-3.7,1.5-4.8c1-1.1,2.5-1.7,4.5-1.7c0.9,0,1.9,0.2,2.8,0.7V292h1.7v17.8h-1.7v-8
		c-0.3,0.6-0.8,1-1.5,1.5c-0.7,0.4-1.5,0.6-2.5,0.6C254.9,303.8,253.3,302,253.3,298.4z M258.2,303.7c1.1,0,2-0.3,2.7-0.9
		c0.8-0.6,1.2-1.1,1.2-1.7v-8.4c-1.1-0.5-2.1-0.7-2.9-0.7c-1.4,0-2.5,0.6-3.2,1.7c-0.7,1.1-1.1,2.6-1.1,4.6
		C255,301.9,256.1,303.7,258.2,303.7z"/>
	<path class="st0" d="M268.5,301.1c0,1.3,0.3,2.1,1,2.4c0.3,0.2,0.7,0.2,1.2,0.2c1,0,1.9-0.4,2.7-1.1c0.8-0.8,1.2-1.5,1.3-2.1V292
		h1.7v10.2c0,0.5,0.1,0.8,0.3,1.1c0.2,0.2,0.4,0.4,0.6,0.4l0.3,0h0.7v0.2h-1.5c-0.7,0-1.1-0.1-1.5-0.4c-0.3-0.3-0.5-0.6-0.5-0.9
		l0-0.4v-1c-0.3,0.7-0.8,1.3-1.5,1.9c-0.7,0.6-1.5,0.9-2.4,0.9c-0.9,0-1.6-0.1-2.1-0.2s-0.9-0.4-1.2-0.7c-0.4-0.5-0.6-1.1-0.6-1.9
		V292h1.7V301.1z"/>
	<path class="st0" d="M281.5,298.1c0,2,0.3,3.4,1,4.3c0.7,0.9,1.6,1.4,2.7,1.4c1.6,0,3-0.2,4.2-0.7l0.1,0.2
		c-1.3,0.5-2.7,0.7-4.3,0.7s-2.9-0.5-3.9-1.4c-1-1-1.5-2.4-1.5-4.4c0-2,0.5-3.5,1.6-4.6s2.4-1.6,4-1.6c1.3,0,2.4,0.4,3.3,1.2
		c0.9,0.8,1.3,1.9,1.3,3.4c0,0.1,0,0.2,0,0.2h-8.5C281.5,297.2,281.5,297.6,281.5,298.1z M287.6,293.2c-0.6-0.7-1.3-1.1-2.2-1.1
		c-0.9,0-1.7,0.4-2.4,1.2c-0.7,0.8-1.2,1.9-1.3,3.3h6.8C288.4,295,288.1,293.9,287.6,293.2z"/>
	<path class="st0" d="M93.6,326.6c0,2,0.3,3.4,1,4.3c0.7,0.9,1.6,1.4,2.7,1.4c1.6,0,3-0.2,4.2-0.7l0.1,0.2c-1.3,0.5-2.7,0.7-4.3,0.7
		c-1.6,0-2.9-0.5-3.9-1.4c-1-1-1.5-2.4-1.5-4.4c0-2,0.5-3.5,1.6-4.6c1-1.1,2.4-1.6,4-1.6c1.3,0,2.4,0.4,3.3,1.2
		c0.9,0.8,1.3,1.9,1.3,3.4c0,0.1,0,0.2,0,0.2h-8.5C93.6,325.7,93.6,326.1,93.6,326.6z M99.6,321.7c-0.6-0.7-1.3-1.1-2.2-1.1
		c-0.9,0-1.7,0.4-2.4,1.2c-0.7,0.8-1.2,1.9-1.3,3.3h6.8C100.5,323.6,100.2,322.4,99.6,321.7z"/>
	<path class="st0" d="M113.6,332.4c-0.7,0-1.1-0.1-1.5-0.4c-0.3-0.3-0.5-0.6-0.5-0.9l0-0.4v-7.5c0-1.3-0.3-2.1-1-2.4
		c-0.3-0.2-0.7-0.2-1.2-0.2c-1,0-1.9,0.4-2.7,1.2c-0.8,0.8-1.2,1.5-1.2,2.2v8.4h-1.7v-11.9h1.7v2.7c0.3-0.7,0.8-1.3,1.5-1.9
		s1.5-0.9,2.4-0.9c0.9,0,1.6,0.1,2.1,0.2s0.9,0.4,1.2,0.7c0.4,0.5,0.6,1.1,0.6,1.9v7.4c0,0.5,0.1,0.8,0.3,1.1
		c0.2,0.2,0.4,0.4,0.6,0.4l0.3,0h0.7v0.2H113.6z"/>
	<path class="st0" d="M122.1,320.6c-1.1,0-2.1,0.5-2.8,1.6c-0.8,1.1-1.1,2.6-1.1,4.5c0,1.9,0.3,3.3,1,4.2c0.7,0.9,1.6,1.4,2.7,1.4
		c1.4,0,2.7-0.2,3.8-0.7l0.1,0.2c-1.1,0.5-2.4,0.7-3.9,0.7c-1.5,0-2.8-0.5-3.8-1.4c-1-1-1.5-2.4-1.5-4.4c0-2,0.5-3.5,1.6-4.6
		c1-1.1,2.4-1.6,4-1.6c0.9,0,1.7,0.2,2.5,0.6c0.8,0.4,1.3,1,1.7,1.9h-1.5c-0.2-0.8-0.6-1.4-1.1-1.7
		C123.3,320.8,122.7,320.6,122.1,320.6z"/>
	<path class="st0" d="M130.3,329.7c0,1.3,0.3,2.1,1,2.4c0.3,0.2,0.7,0.2,1.2,0.2c1,0,1.9-0.4,2.7-1.1c0.8-0.8,1.2-1.5,1.3-2.1v-8.5
		h1.7v10.2c0,0.5,0.1,0.8,0.3,1.1c0.2,0.2,0.4,0.4,0.6,0.4l0.3,0h0.7v0.2h-1.5c-0.7,0-1.1-0.1-1.5-0.4c-0.3-0.3-0.5-0.6-0.5-0.9
		l0-0.4v-1c-0.3,0.7-0.8,1.3-1.5,1.9c-0.7,0.6-1.5,0.9-2.4,0.9c-0.9,0-1.6-0.1-2.1-0.2s-0.9-0.4-1.2-0.7c-0.4-0.5-0.6-1.1-0.6-1.9
		v-9.1h1.7V329.7z"/>
	<path class="st0" d="M143.3,326.6c0,2,0.3,3.4,1,4.3c0.7,0.9,1.6,1.4,2.7,1.4c1.6,0,3-0.2,4.2-0.7l0.1,0.2
		c-1.3,0.5-2.7,0.7-4.3,0.7s-2.9-0.5-3.9-1.4c-1-1-1.5-2.4-1.5-4.4c0-2,0.5-3.5,1.6-4.6s2.4-1.6,4-1.6c1.3,0,2.4,0.4,3.3,1.2
		c0.9,0.8,1.3,1.9,1.3,3.4c0,0.1,0,0.2,0,0.2h-8.5C143.3,325.7,143.3,326.1,143.3,326.6z M149.4,321.7c-0.6-0.7-1.3-1.1-2.2-1.1
		c-0.9,0-1.7,0.4-2.4,1.2c-0.7,0.8-1.2,1.9-1.3,3.3h6.8C150.2,323.6,149.9,322.4,149.4,321.7z"/>
	<path class="st0" d="M163.3,332.4c-0.7,0-1.1-0.1-1.5-0.4c-0.3-0.3-0.5-0.6-0.5-0.9l0-0.4v-7.5c0-1.3-0.3-2.1-1-2.4
		c-0.3-0.2-0.7-0.2-1.2-0.2c-1,0-1.9,0.4-2.7,1.2c-0.8,0.8-1.2,1.5-1.2,2.2v8.4h-1.7v-11.9h1.7v2.7c0.3-0.7,0.8-1.3,1.5-1.9
		c0.7-0.6,1.5-0.9,2.4-0.9c0.9,0,1.6,0.1,2.1,0.2s0.9,0.4,1.2,0.7c0.4,0.5,0.6,1.1,0.6,1.9v7.4c0,0.5,0.1,0.8,0.3,1.1
		c0.2,0.2,0.4,0.4,0.6,0.4l0.3,0h0.7v0.2H163.3z"/>
	<path class="st0" d="M166.4,320.7v-0.2h0.5v-2.4h1.7v2.4h3.6v0.2h-3.6v8.7c0,1,0.1,1.8,0.3,2.2c0.2,0.5,0.7,0.7,1.5,0.7
		c0.7,0,1.5-0.2,2.2-0.5l0.1,0.2c-0.8,0.3-1.7,0.5-2.7,0.5c-1,0-1.8-0.2-2.3-0.6s-0.8-1.3-0.8-2.5v-8.6H166.4z"/>
	<path class="st0" d="M178.9,321.5V321c-0.7,0.3-1.4,0.9-2,1.7c-0.6,0.9-0.9,1.7-0.9,2.4v7.2h-1.7v-11.9h1.7v3.8
		c0.3-0.9,0.7-1.8,1.5-2.6c0.7-0.8,1.5-1.2,2.4-1.3h0.1c0.3,0,0.6,0.1,0.8,0.3c0.2,0.2,0.3,0.5,0.3,0.8s-0.1,0.6-0.3,0.8
		c-0.2,0.2-0.5,0.3-0.8,0.3c-0.3,0-0.6-0.1-0.8-0.3C179,322.1,178.9,321.9,178.9,321.5z"/>
	<path class="st0" d="M192.6,332.4c-1.1,0-1.8-0.2-2.2-0.6c-0.4-0.3-0.5-0.7-0.5-0.9v-0.5c-0.8,1.4-2,2.1-3.7,2.1
		c-2,0-3.1-0.9-3.4-2.7c0-0.2,0-0.4,0-0.6c0-0.2,0-0.4,0.1-0.7c0.1-0.2,0.2-0.5,0.5-0.8c0.6-0.6,1.9-0.9,4-1c0.5,0,1-0.1,1.4-0.1
		c0.4,0,0.8,0,1.2,0v-3.9c0,0,0-0.1,0-0.2c0-0.1,0-0.3-0.1-0.5c-0.1-0.2-0.2-0.4-0.3-0.6c-0.1-0.2-0.4-0.4-0.8-0.5
		c-0.4-0.1-0.8-0.2-1.4-0.2c-0.6,0-1.3,0.1-2.1,0.3c-0.8,0.2-1.4,0.4-1.7,0.6l-0.1-0.2c1.4-0.7,2.8-1,4.3-1c1.6,0,2.7,0.3,3.2,0.9
		c0.4,0.5,0.6,0.9,0.6,1.5v8c0,0.5,0.1,0.8,0.3,1.1c0.2,0.2,0.4,0.4,0.6,0.4l0.3,0h0.7v0.2H192.6z M186.5,332.3
		c0.8,0,1.6-0.3,2.3-0.9c0.7-0.6,1-1.1,1.1-1.7v-2.9c-0.4,0-0.9,0-1.3,0s-0.9,0-1.3,0.1c-1.2,0.1-2,0.4-2.4,0.8
		c-0.4,0.4-0.5,0.9-0.5,1.6c0,0.1,0,0.3,0,0.4C184.5,331.5,185.2,332.3,186.5,332.3z"/>
	<path class="st0" d="M213.2,332.4c-1.1,0-1.8-0.2-2.2-0.6c-0.4-0.3-0.5-0.7-0.5-0.9v-0.5c-0.8,1.4-2,2.1-3.7,2.1
		c-2,0-3.1-0.9-3.4-2.7c0-0.2,0-0.4,0-0.6c0-0.2,0-0.4,0.1-0.7c0.1-0.2,0.2-0.5,0.5-0.8c0.6-0.6,1.9-0.9,4-1c0.5,0,1-0.1,1.4-0.1
		c0.4,0,0.8,0,1.2,0v-3.9c0,0,0-0.1,0-0.2c0-0.1,0-0.3-0.1-0.5c-0.1-0.2-0.2-0.4-0.3-0.6c-0.1-0.2-0.4-0.4-0.8-0.5
		c-0.4-0.1-0.8-0.2-1.4-0.2c-0.6,0-1.3,0.1-2.1,0.3c-0.8,0.2-1.4,0.4-1.7,0.6l-0.1-0.2c1.4-0.7,2.8-1,4.3-1c1.6,0,2.7,0.3,3.2,0.9
		c0.4,0.5,0.6,0.9,0.6,1.5v8c0,0.5,0.1,0.8,0.3,1.1c0.2,0.2,0.4,0.4,0.6,0.4l0.3,0h0.7v0.2H213.2z M207.1,332.3
		c0.8,0,1.6-0.3,2.3-0.9c0.7-0.6,1-1.1,1.1-1.7v-2.9c-0.4,0-0.9,0-1.3,0s-0.9,0-1.3,0.1c-1.2,0.1-2,0.4-2.4,0.8
		c-0.4,0.4-0.5,0.9-0.5,1.6c0,0.1,0,0.3,0,0.4C205.2,331.5,205.9,332.3,207.1,332.3z"/>
	<path class="st0" d="M225.7,329.7c0,1.3,0.3,2.1,1,2.4c0.3,0.2,0.7,0.2,1.2,0.2c1,0,1.9-0.4,2.7-1.1c0.8-0.8,1.2-1.5,1.3-2.1v-8.5
		h1.7v10.2c0,0.5,0.1,0.8,0.3,1.1c0.2,0.2,0.4,0.4,0.6,0.4l0.3,0h0.7v0.2h-1.5c-0.7,0-1.1-0.1-1.5-0.4c-0.3-0.3-0.5-0.6-0.5-0.9
		l0-0.4v-1c-0.3,0.7-0.8,1.3-1.5,1.9c-0.7,0.6-1.5,0.9-2.4,0.9c-0.9,0-1.6-0.1-2.1-0.2s-0.9-0.4-1.2-0.7c-0.4-0.5-0.6-1.1-0.6-1.9
		v-9.1h1.7V329.7z"/>
	<path class="st0" d="M247,332.4c-0.7,0-1.1-0.1-1.5-0.4c-0.3-0.3-0.5-0.6-0.5-0.9l0-0.4v-7.5c0-1.3-0.3-2.1-1-2.4
		c-0.3-0.2-0.7-0.2-1.2-0.2c-1,0-1.9,0.4-2.7,1.2c-0.8,0.8-1.2,1.5-1.2,2.2v8.4h-1.7v-11.9h1.7v2.7c0.3-0.7,0.8-1.3,1.5-1.9
		s1.5-0.9,2.4-0.9c0.9,0,1.6,0.1,2.1,0.2s0.9,0.4,1.2,0.7c0.4,0.5,0.6,1.1,0.6,1.9v7.4c0,0.5,0.1,0.8,0.3,1.1
		c0.2,0.2,0.4,0.4,0.6,0.4l0.3,0h0.7v0.2H247z"/>
	<path class="st0" d="M260.1,332.4c-1.1,0-1.8-0.2-2.2-0.6c-0.4-0.3-0.5-0.7-0.5-0.9v-0.5c-0.8,1.4-2,2.1-3.7,2.1
		c-2,0-3.1-0.9-3.4-2.7c0-0.2,0-0.4,0-0.6c0-0.2,0-0.4,0.1-0.7c0.1-0.2,0.2-0.5,0.5-0.8c0.6-0.6,1.9-0.9,4-1c0.5,0,1-0.1,1.4-0.1
		c0.4,0,0.8,0,1.2,0v-3.9c0,0,0-0.1,0-0.2c0-0.1,0-0.3-0.1-0.5c-0.1-0.2-0.2-0.4-0.3-0.6c-0.1-0.2-0.4-0.4-0.8-0.5
		c-0.4-0.1-0.8-0.2-1.4-0.2c-0.6,0-1.3,0.1-2.1,0.3c-0.8,0.2-1.4,0.4-1.7,0.6l-0.1-0.2c1.4-0.7,2.8-1,4.3-1c1.6,0,2.7,0.3,3.2,0.9
		c0.4,0.5,0.6,0.9,0.6,1.5v8c0,0.5,0.1,0.8,0.3,1.1c0.2,0.2,0.4,0.4,0.6,0.4l0.3,0h0.7v0.2H260.1z M254,332.3c0.8,0,1.6-0.3,2.3-0.9
		c0.7-0.6,1-1.1,1.1-1.7v-2.9c-0.4,0-0.9,0-1.3,0c-0.4,0-0.9,0-1.3,0.1c-1.2,0.1-2,0.4-2.4,0.8c-0.4,0.4-0.5,0.9-0.5,1.6
		c0,0.1,0,0.3,0,0.4C252,331.5,252.7,332.3,254,332.3z"/>
	<path class="st0" d="M285.3,323.2c0-1-0.1-1.6-0.4-2c-0.3-0.4-0.7-0.6-1.5-0.6c-1,0-1.8,0.4-2.5,1.2c-0.7,0.8-1.1,1.5-1.1,2.1v8.5
		h-1.7v-9.2c0-1-0.1-1.6-0.4-2c-0.3-0.4-0.8-0.6-1.6-0.6c-0.8,0-1.6,0.4-2.3,1.1c-0.7,0.8-1.1,1.5-1.2,2.1v8.5h-1.7v-11.9h1.7v2.7
		c0.3-0.7,0.7-1.3,1.4-1.9c0.7-0.6,1.4-0.9,2.3-0.9s1.5,0.1,2,0.2c0.5,0.2,0.9,0.4,1.1,0.7c0.2,0.3,0.3,0.6,0.4,0.8
		c0,0.2,0.1,0.6,0.1,1c0.3-0.7,0.7-1.3,1.4-1.9c0.7-0.6,1.4-0.9,2.1-0.9c0.8,0,1.4,0.1,1.8,0.2c0.5,0.1,0.8,0.3,1,0.4
		c0.2,0.2,0.4,0.4,0.5,0.7c0.1,0.3,0.2,0.5,0.2,0.7c0,0.2,0,0.5,0,0.8v7.4c0,0.5,0.1,0.8,0.3,1.1c0.2,0.2,0.4,0.4,0.6,0.4l0.3,0h0.7
		v0.2h-1.5c-0.7,0-1.1-0.1-1.5-0.4c-0.3-0.3-0.5-0.6-0.5-0.9l0-0.4V323.2z"/>
	<path class="st0" d="M292.2,329.7c0,1.3,0.3,2.1,1,2.4c0.3,0.2,0.7,0.2,1.2,0.2c1,0,1.9-0.4,2.7-1.1c0.8-0.8,1.2-1.5,1.3-2.1v-8.5
		h1.7v10.2c0,0.5,0.1,0.8,0.3,1.1c0.2,0.2,0.4,0.4,0.6,0.4l0.3,0h0.7v0.2h-1.5c-0.7,0-1.1-0.1-1.5-0.4c-0.3-0.3-0.5-0.6-0.5-0.9
		l0-0.4v-1c-0.3,0.7-0.8,1.3-1.5,1.9c-0.7,0.6-1.5,0.9-2.4,0.9c-0.9,0-1.6-0.1-2.1-0.2s-0.9-0.4-1.2-0.7c-0.4-0.5-0.6-1.1-0.6-1.9
		v-9.1h1.7V329.7z"/>
	<path class="st0" d="M301.3,337.9l0.1-0.2c0.8,0.3,1.5,0.5,2.2,0.5c0.7,0,1.2-0.2,1.5-0.7c0.2-0.5,0.3-1.2,0.3-2.2v-14.7h1.7v14.7
		c0,1.3-0.3,2.1-0.8,2.5c-0.5,0.4-1.3,0.6-2.3,0.6C303,338.3,302,338.2,301.3,337.9z M305.5,317.9c-0.2-0.2-0.3-0.4-0.3-0.7
		c0-0.3,0.1-0.5,0.3-0.7c0.2-0.2,0.4-0.3,0.7-0.3c0.3,0,0.5,0.1,0.7,0.3c0.2,0.2,0.3,0.4,0.3,0.7c0,0.3-0.1,0.5-0.3,0.7
		c-0.2,0.2-0.4,0.3-0.7,0.3C305.9,318.1,305.7,318,305.5,317.9z"/>
	<path class="st0" d="M311.3,326.6c0,2,0.3,3.4,1,4.3c0.7,0.9,1.6,1.4,2.7,1.4c1.6,0,3-0.2,4.2-0.7l0.1,0.2
		c-1.3,0.5-2.7,0.7-4.3,0.7c-1.6,0-2.9-0.5-3.9-1.4c-1-1-1.5-2.4-1.5-4.4c0-2,0.5-3.5,1.6-4.6s2.4-1.6,4-1.6c1.3,0,2.4,0.4,3.3,1.2
		c0.9,0.8,1.3,1.9,1.3,3.4c0,0.1,0,0.2,0,0.2h-8.5C311.4,325.7,311.3,326.1,311.3,326.6z M317.4,321.7c-0.6-0.7-1.3-1.1-2.2-1.1
		c-0.9,0-1.7,0.4-2.4,1.2c-0.7,0.8-1.2,1.9-1.3,3.3h6.8C318.3,323.6,318,322.4,317.4,321.7z"/>
	<path class="st0" d="M326,321.5V321c-0.7,0.3-1.4,0.9-2,1.7c-0.6,0.9-0.9,1.7-0.9,2.4v7.2h-1.7v-11.9h1.7v3.8
		c0.3-0.9,0.7-1.8,1.5-2.6c0.7-0.8,1.5-1.2,2.4-1.3h0.1c0.3,0,0.6,0.1,0.8,0.3c0.2,0.2,0.3,0.5,0.3,0.8s-0.1,0.6-0.3,0.8
		c-0.2,0.2-0.5,0.3-0.8,0.3c-0.3,0-0.6-0.1-0.8-0.3C326.1,322.1,326,321.9,326,321.5z"/>
	<path class="st0" d="M75.9,349h1.7v2.9c0.3-0.7,0.8-1.4,1.5-2.1c0.7-0.7,1.6-1,2.5-1c3.2,0,4.8,1.9,4.8,5.7c0,4.3-2.1,6.4-6.2,6.4
		c-0.7,0-1.6-0.2-2.6-0.5v6.4h-1.7V349z M81.5,349.1c-1,0-1.9,0.4-2.7,1.3c-0.8,0.8-1.2,1.6-1.3,2.3v7.6c1,0.4,1.8,0.5,2.5,0.5
		c3.1,0,4.6-2.1,4.6-6.3C84.7,351,83.6,349.1,81.5,349.1z"/>
	<path class="st0" d="M98.6,360.9c-1.1,0-1.8-0.2-2.2-0.6c-0.4-0.3-0.5-0.7-0.5-0.9v-0.5c-0.8,1.4-2,2.1-3.7,2.1
		c-2,0-3.1-0.9-3.4-2.7c0-0.2,0-0.4,0-0.6c0-0.2,0-0.4,0.1-0.7s0.2-0.5,0.5-0.8c0.6-0.6,1.9-0.9,4-1c0.5,0,1-0.1,1.4-0.1
		c0.4,0,0.8,0,1.2,0v-3.9c0,0,0-0.1,0-0.2c0-0.1,0-0.3-0.1-0.5c-0.1-0.2-0.2-0.4-0.3-0.6c-0.1-0.2-0.4-0.4-0.8-0.5
		c-0.4-0.1-0.8-0.2-1.4-0.2c-0.6,0-1.3,0.1-2.1,0.3c-0.8,0.2-1.4,0.4-1.7,0.6l-0.1-0.2c1.4-0.7,2.8-1,4.3-1c1.6,0,2.7,0.3,3.2,0.9
		c0.4,0.5,0.6,0.9,0.6,1.5v8c0,0.5,0.1,0.8,0.3,1.1c0.2,0.2,0.4,0.4,0.6,0.4l0.3,0h0.7v0.2H98.6z M92.5,360.8c0.8,0,1.6-0.3,2.3-0.9
		c0.7-0.6,1-1.1,1.1-1.7v-2.9c-0.4,0-0.9,0-1.3,0c-0.4,0-0.9,0-1.3,0.1c-1.2,0.1-2,0.4-2.4,0.8c-0.4,0.4-0.5,0.9-0.5,1.6
		c0,0.1,0,0.3,0,0.4C90.5,360,91.3,360.8,92.5,360.8z"/>
	<path class="st0" d="M105.8,350.1v-0.5c-0.7,0.3-1.4,0.9-2,1.7c-0.6,0.9-0.9,1.7-0.9,2.4v7.2h-1.7V349h1.7v3.8
		c0.3-0.9,0.7-1.8,1.5-2.6s1.5-1.2,2.4-1.3h0.1c0.3,0,0.6,0.1,0.8,0.3c0.2,0.2,0.3,0.5,0.3,0.8s-0.1,0.6-0.3,0.8
		c-0.2,0.2-0.5,0.3-0.8,0.3c-0.3,0-0.6-0.1-0.8-0.3C105.9,350.7,105.8,350.4,105.8,350.1z"/>
	<path class="st0" d="M119.5,360.9c-1.1,0-1.8-0.2-2.2-0.6c-0.4-0.3-0.5-0.7-0.5-0.9v-0.5c-0.8,1.4-2,2.1-3.7,2.1
		c-2,0-3.1-0.9-3.4-2.7c0-0.2,0-0.4,0-0.6c0-0.2,0-0.4,0.1-0.7s0.2-0.5,0.5-0.8c0.6-0.6,1.9-0.9,4-1c0.5,0,1-0.1,1.4-0.1
		c0.4,0,0.8,0,1.2,0v-3.9c0,0,0-0.1,0-0.2c0-0.1,0-0.3-0.1-0.5c-0.1-0.2-0.2-0.4-0.3-0.6c-0.1-0.2-0.4-0.4-0.8-0.5
		c-0.4-0.1-0.8-0.2-1.4-0.2c-0.6,0-1.3,0.1-2.1,0.3c-0.8,0.2-1.4,0.4-1.7,0.6l-0.1-0.2c1.4-0.7,2.8-1,4.3-1c1.6,0,2.7,0.3,3.2,0.9
		c0.4,0.5,0.6,0.9,0.6,1.5v8c0,0.5,0.1,0.8,0.3,1.1c0.2,0.2,0.4,0.4,0.6,0.4l0.3,0h0.7v0.2H119.5z M113.4,360.8
		c0.8,0,1.6-0.3,2.3-0.9c0.7-0.6,1-1.1,1.1-1.7v-2.9c-0.4,0-0.9,0-1.3,0s-0.9,0-1.3,0.1c-1.2,0.1-2,0.4-2.4,0.8
		c-0.4,0.4-0.5,0.9-0.5,1.6c0,0.1,0,0.3,0,0.4C111.4,360,112.1,360.8,113.4,360.8z"/>
	<path class="st0" d="M140.2,360.9c-1.1,0-1.8-0.2-2.2-0.6c-0.4-0.3-0.5-0.7-0.5-0.9v-0.5c-0.8,1.4-2,2.1-3.7,2.1
		c-2,0-3.1-0.9-3.4-2.7c0-0.2,0-0.4,0-0.6c0-0.2,0-0.4,0.1-0.7c0.1-0.2,0.2-0.5,0.5-0.8c0.6-0.6,1.9-0.9,4-1c0.5,0,1-0.1,1.4-0.1
		c0.4,0,0.8,0,1.2,0v-3.9c0,0,0-0.1,0-0.2c0-0.1,0-0.3-0.1-0.5c-0.1-0.2-0.2-0.4-0.3-0.6c-0.1-0.2-0.4-0.4-0.8-0.5
		c-0.4-0.1-0.8-0.2-1.4-0.2c-0.6,0-1.3,0.1-2.1,0.3c-0.8,0.2-1.4,0.4-1.7,0.6l-0.1-0.2c1.4-0.7,2.8-1,4.3-1c1.6,0,2.7,0.3,3.2,0.9
		c0.4,0.5,0.6,0.9,0.6,1.5v8c0,0.5,0.1,0.8,0.3,1.1c0.2,0.2,0.4,0.4,0.6,0.4l0.3,0h0.7v0.2H140.2z M134,360.8c0.8,0,1.6-0.3,2.3-0.9
		c0.7-0.6,1-1.1,1.1-1.7v-2.9c-0.4,0-0.9,0-1.3,0s-0.9,0-1.3,0.1c-1.2,0.1-2,0.4-2.4,0.8c-0.4,0.4-0.5,0.9-0.5,1.6
		c0,0.1,0,0.3,0,0.4C132.1,360,132.8,360.8,134,360.8z"/>
	<path class="st0" d="M157.1,351.8c0-1-0.1-1.6-0.4-2c-0.3-0.4-0.7-0.6-1.5-0.6c-1,0-1.8,0.4-2.5,1.2c-0.7,0.8-1.1,1.5-1.1,2.1v8.5
		H150v-9.2c0-1-0.1-1.6-0.4-2c-0.3-0.4-0.8-0.6-1.6-0.6c-0.8,0-1.6,0.4-2.3,1.1c-0.7,0.8-1.1,1.5-1.2,2.1v8.5h-1.7V349h1.7v2.7
		c0.3-0.7,0.7-1.3,1.4-1.9c0.7-0.6,1.4-0.9,2.3-0.9c0.8,0,1.5,0.1,2,0.2c0.5,0.2,0.9,0.4,1.1,0.7s0.3,0.6,0.4,0.8
		c0,0.2,0.1,0.6,0.1,1c0.3-0.7,0.7-1.3,1.4-1.9c0.7-0.6,1.4-0.9,2.1-0.9c0.8,0,1.4,0.1,1.8,0.2c0.5,0.1,0.8,0.3,1,0.4
		c0.2,0.2,0.4,0.4,0.5,0.7c0.1,0.3,0.2,0.5,0.2,0.7c0,0.2,0,0.5,0,0.8v7.4c0,0.5,0.1,0.8,0.3,1.1c0.2,0.2,0.4,0.4,0.6,0.4l0.3,0h0.7
		v0.2h-1.5c-0.7,0-1.1-0.1-1.5-0.4c-0.3-0.3-0.5-0.6-0.5-0.9l0-0.4V351.8z"/>
	<path class="st0" d="M171.8,360.9c-1.1,0-1.8-0.2-2.2-0.6c-0.4-0.3-0.5-0.7-0.5-0.9v-0.5c-0.8,1.4-2,2.1-3.7,2.1
		c-2,0-3.1-0.9-3.4-2.7c0-0.2,0-0.4,0-0.6c0-0.2,0-0.4,0.1-0.7s0.2-0.5,0.5-0.8c0.6-0.6,1.9-0.9,4-1c0.5,0,1-0.1,1.4-0.1
		c0.4,0,0.8,0,1.2,0v-3.9c0,0,0-0.1,0-0.2c0-0.1,0-0.3-0.1-0.5c-0.1-0.2-0.2-0.4-0.3-0.6c-0.1-0.2-0.4-0.4-0.8-0.5
		c-0.4-0.1-0.8-0.2-1.4-0.2c-0.6,0-1.3,0.1-2.1,0.3c-0.8,0.2-1.4,0.4-1.7,0.6l-0.1-0.2c1.4-0.7,2.8-1,4.3-1c1.6,0,2.7,0.3,3.2,0.9
		c0.4,0.5,0.6,0.9,0.6,1.5v8c0,0.5,0.1,0.8,0.3,1.1c0.2,0.2,0.4,0.4,0.6,0.4l0.3,0h0.7v0.2H171.8z M165.6,360.8
		c0.8,0,1.6-0.3,2.3-0.9c0.7-0.6,1-1.1,1.1-1.7v-2.9c-0.4,0-0.9,0-1.3,0s-0.9,0-1.3,0.1c-1.2,0.1-2,0.4-2.4,0.8
		c-0.4,0.4-0.5,0.9-0.5,1.6c0,0.1,0,0.3,0,0.4C163.7,360,164.4,360.8,165.6,360.8z"/>
	<path class="st0" d="M178.9,350.1v-0.5c-0.7,0.3-1.4,0.9-2,1.7c-0.6,0.9-0.9,1.7-0.9,2.4v7.2h-1.7V349h1.7v3.8
		c0.3-0.9,0.7-1.8,1.5-2.6c0.7-0.8,1.5-1.2,2.4-1.3h0.1c0.3,0,0.6,0.1,0.8,0.3c0.2,0.2,0.3,0.5,0.3,0.8s-0.1,0.6-0.3,0.8
		c-0.2,0.2-0.5,0.3-0.8,0.3c-0.3,0-0.6-0.1-0.8-0.3C179,350.7,178.9,350.4,178.9,350.1z"/>
	<path class="st0" d="M183.5,359l0.8,0l-1.1,4.4h-0.3L183.5,359z"/>
	<path class="st0" d="M204,360.9c-0.7,0-1.1-0.1-1.5-0.4c-0.3-0.3-0.5-0.6-0.5-0.9l0-0.4v-7.5c0-1.3-0.3-2.1-1-2.4
		c-0.3-0.2-0.7-0.2-1.2-0.2c-1,0-1.9,0.4-2.7,1.2c-0.8,0.8-1.2,1.5-1.2,2.2v8.4h-1.7v-17.8h1.7v8.6c0.3-0.7,0.7-1.3,1.5-1.9
		c0.7-0.6,1.5-0.9,2.4-0.9c1.5,0,2.6,0.3,3.1,0.8c0.5,0.5,0.8,1.2,0.8,2.1v7.4c0,0.5,0.1,0.8,0.3,1.1c0.2,0.2,0.4,0.4,0.5,0.4l0.3,0
		h0.7v0.2H204z"/>
	<path class="st0" d="M217.2,360.9c-1.1,0-1.8-0.2-2.2-0.6c-0.4-0.3-0.5-0.7-0.5-0.9v-0.5c-0.8,1.4-2,2.1-3.7,2.1
		c-2,0-3.1-0.9-3.4-2.7c0-0.2,0-0.4,0-0.6c0-0.2,0-0.4,0.1-0.7s0.2-0.5,0.5-0.8c0.6-0.6,1.9-0.9,4-1c0.5,0,1-0.1,1.4-0.1
		c0.4,0,0.8,0,1.2,0v-3.9c0,0,0-0.1,0-0.2c0-0.1,0-0.3-0.1-0.5c-0.1-0.2-0.2-0.4-0.3-0.6c-0.1-0.2-0.4-0.4-0.8-0.5
		c-0.4-0.1-0.8-0.2-1.4-0.2c-0.6,0-1.3,0.1-2.1,0.3c-0.8,0.2-1.4,0.4-1.7,0.6l-0.1-0.2c1.4-0.7,2.8-1,4.3-1c1.6,0,2.7,0.3,3.2,0.9
		c0.4,0.5,0.6,0.9,0.6,1.5v8c0,0.5,0.1,0.8,0.3,1.1c0.2,0.2,0.4,0.4,0.6,0.4l0.3,0h0.7v0.2H217.2z M211.1,360.8
		c0.8,0,1.6-0.3,2.3-0.9c0.7-0.6,1-1.1,1.1-1.7v-2.9c-0.4,0-0.9,0-1.3,0c-0.4,0-0.9,0-1.3,0.1c-1.2,0.1-2,0.4-2.4,0.8
		c-0.4,0.4-0.5,0.9-0.5,1.6c0,0.1,0,0.3,0,0.4C209.1,360,209.8,360.8,211.1,360.8z"/>
	<path class="st0" d="M229.6,355.1c0,2,0.3,3.4,1,4.3c0.7,0.9,1.6,1.4,2.7,1.4c1.6,0,3-0.2,4.2-0.7l0.1,0.2
		c-1.3,0.5-2.7,0.7-4.3,0.7c-1.6,0-2.9-0.5-3.9-1.4c-1-1-1.5-2.4-1.5-4.4c0-2,0.5-3.5,1.6-4.6c1-1.1,2.4-1.6,4-1.6
		c1.3,0,2.4,0.4,3.3,1.2c0.9,0.8,1.3,1.9,1.3,3.4c0,0.1,0,0.2,0,0.2h-8.5C229.6,354.2,229.6,354.7,229.6,355.1z M235.7,350.2
		c-0.6-0.7-1.3-1.1-2.2-1.1c-0.9,0-1.7,0.4-2.4,1.2c-0.7,0.8-1.2,1.9-1.3,3.3h6.8C236.5,352.1,236.2,351,235.7,350.2z"/>
	<path class="st0" d="M249.6,360.9c-0.7,0-1.1-0.1-1.5-0.4c-0.3-0.3-0.5-0.6-0.5-0.9l0-0.4v-7.5c0-1.3-0.3-2.1-1-2.4
		c-0.3-0.2-0.7-0.2-1.2-0.2c-1,0-1.9,0.4-2.7,1.2c-0.8,0.8-1.2,1.5-1.2,2.2v8.4h-1.7V349h1.7v2.7c0.3-0.7,0.8-1.3,1.5-1.9
		c0.7-0.6,1.5-0.9,2.4-0.9c0.9,0,1.6,0.1,2.1,0.2s0.9,0.4,1.2,0.7c0.4,0.5,0.6,1.1,0.6,1.9v7.4c0,0.5,0.1,0.8,0.3,1.1
		c0.2,0.2,0.4,0.4,0.6,0.4l0.3,0h0.7v0.2H249.6z"/>
	<path class="st0" d="M258.2,349.1c-1.1,0-2.1,0.5-2.8,1.6c-0.8,1.1-1.1,2.6-1.1,4.5c0,1.9,0.3,3.3,1,4.2c0.7,0.9,1.6,1.4,2.7,1.4
		c1.4,0,2.7-0.2,3.8-0.7l0.1,0.2c-1.1,0.5-2.4,0.7-3.9,0.7c-1.5,0-2.8-0.5-3.8-1.4c-1-1-1.5-2.4-1.5-4.4c0-2,0.5-3.5,1.6-4.6
		s2.4-1.6,4-1.6c0.9,0,1.7,0.2,2.5,0.6c0.8,0.4,1.3,1,1.7,1.9h-1.5c-0.2-0.8-0.6-1.4-1.1-1.7C259.3,349.3,258.8,349.1,258.2,349.1z"
		/>
	<path class="st0" d="M269.8,361c-1.7,0-3-0.5-4.1-1.4c-1-1-1.6-2.4-1.6-4.4c0-2,0.5-3.5,1.6-4.6c1.1-1.1,2.5-1.6,4.1-1.6
		c1.7,0,3,0.5,4.1,1.4c1,1,1.6,2.4,1.6,4.4c0,2-0.5,3.5-1.6,4.6C272.9,360.5,271.5,361,269.8,361z M270,349.1c-1.2,0-2.2,0.5-3,1.6
		c-0.8,1.1-1.2,2.6-1.2,4.5c0,1.9,0.4,3.3,1.1,4.2c0.7,0.9,1.7,1.4,2.9,1.4c1.2,0,2.2-0.5,3-1.6c0.8-1.1,1.2-2.6,1.2-4.5
		c0-1.9-0.4-3.3-1.1-4.2C272.1,349.6,271.2,349.1,270,349.1z"/>
	<path class="st0" d="M287.5,360.9c-0.7,0-1.1-0.1-1.5-0.4c-0.3-0.3-0.5-0.6-0.5-0.9l0-0.4v-7.5c0-1.3-0.3-2.1-1-2.4
		c-0.3-0.2-0.7-0.2-1.2-0.2c-1,0-1.9,0.4-2.7,1.2c-0.8,0.8-1.2,1.5-1.2,2.2v8.4h-1.7V349h1.7v2.7c0.3-0.7,0.8-1.3,1.5-1.9
		s1.5-0.9,2.4-0.9c0.9,0,1.6,0.1,2.1,0.2s0.9,0.4,1.2,0.7c0.4,0.5,0.6,1.1,0.6,1.9v7.4c0,0.5,0.1,0.8,0.3,1.1
		c0.2,0.2,0.4,0.4,0.6,0.4l0.3,0h0.7v0.2H287.5z"/>
	<path class="st0" d="M290.6,349.2V349h0.5v-2.4h1.7v2.4h3.6v0.2h-3.6v8.7c0,1,0.1,1.8,0.3,2.2c0.2,0.5,0.7,0.7,1.5,0.7
		c0.7,0,1.5-0.2,2.2-0.5l0.1,0.2c-0.8,0.3-1.7,0.5-2.7,0.5s-1.8-0.2-2.3-0.6c-0.5-0.4-0.8-1.3-0.8-2.5v-8.6H290.6z"/>
	<path class="st0" d="M303.1,350.1v-0.5c-0.7,0.3-1.4,0.9-2,1.7c-0.6,0.9-0.9,1.7-0.9,2.4v7.2h-1.7V349h1.7v3.8
		c0.3-0.9,0.7-1.8,1.5-2.6c0.7-0.8,1.5-1.2,2.4-1.3h0.1c0.3,0,0.6,0.1,0.8,0.3c0.2,0.2,0.3,0.5,0.3,0.8s-0.1,0.6-0.3,0.8
		c-0.2,0.2-0.5,0.3-0.8,0.3c-0.3,0-0.6-0.1-0.8-0.3C303.2,350.7,303.1,350.4,303.1,350.1z"/>
	<path class="st0" d="M316.8,360.9c-1.1,0-1.8-0.2-2.2-0.6c-0.4-0.3-0.5-0.7-0.5-0.9v-0.5c-0.8,1.4-2,2.1-3.7,2.1
		c-2,0-3.1-0.9-3.4-2.7c0-0.2,0-0.4,0-0.6c0-0.2,0-0.4,0.1-0.7c0.1-0.2,0.2-0.5,0.5-0.8c0.6-0.6,1.9-0.9,4-1c0.5,0,1-0.1,1.4-0.1
		c0.4,0,0.8,0,1.2,0v-3.9c0,0,0-0.1,0-0.2c0-0.1,0-0.3-0.1-0.5c-0.1-0.2-0.2-0.4-0.3-0.6c-0.1-0.2-0.4-0.4-0.8-0.5
		c-0.4-0.1-0.8-0.2-1.4-0.2c-0.6,0-1.3,0.1-2.1,0.3c-0.8,0.2-1.4,0.4-1.7,0.6l-0.1-0.2c1.4-0.7,2.8-1,4.3-1c1.6,0,2.7,0.3,3.2,0.9
		c0.4,0.5,0.6,0.9,0.6,1.5v8c0,0.5,0.1,0.8,0.3,1.1c0.2,0.2,0.4,0.4,0.6,0.4l0.3,0h0.7v0.2H316.8z M310.6,360.8
		c0.8,0,1.6-0.3,2.3-0.9c0.7-0.6,1-1.1,1.1-1.7v-2.9c-0.4,0-0.9,0-1.3,0s-0.9,0-1.3,0.1c-1.2,0.1-2,0.4-2.4,0.8
		c-0.4,0.4-0.5,0.9-0.5,1.6c0,0.1,0,0.3,0,0.4C308.7,360,309.4,360.8,310.6,360.8z"/>
	<path class="st0" d="M319.4,355.4c0-2.1,0.5-3.7,1.5-4.8c1-1.1,2.5-1.7,4.5-1.7c0.9,0,1.9,0.2,2.8,0.7v-6.5h1.7v16.1
		c0,0.5,0.1,0.8,0.3,1.1c0.2,0.2,0.4,0.4,0.6,0.4l0.3,0h0.7v0.2h-1.5c-0.7,0-1.1-0.1-1.5-0.4c-0.3-0.3-0.5-0.6-0.5-0.9l0-0.4v-0.4
		c-0.3,0.6-0.8,1-1.5,1.5c-0.7,0.4-1.5,0.6-2.5,0.6C321,360.9,319.4,359.1,319.4,355.4z M324.3,360.8c1.1,0,2-0.3,2.7-0.9
		c0.8-0.6,1.2-1.1,1.2-1.7v-8.4c-1.1-0.5-2.1-0.7-2.9-0.7c-1.4,0-2.5,0.6-3.2,1.7c-0.7,1.1-1.1,2.6-1.1,4.6
		C321.1,359,322.1,360.8,324.3,360.8z"/>
	<path class="st0" d="M338.7,361c-1.7,0-3-0.5-4.1-1.4c-1-1-1.6-2.4-1.6-4.4c0-2,0.5-3.5,1.6-4.6c1.1-1.1,2.5-1.6,4.1-1.6
		c1.7,0,3,0.5,4.1,1.4c1,1,1.6,2.4,1.6,4.4c0,2-0.5,3.5-1.6,4.6C341.7,360.5,340.3,361,338.7,361z M338.8,349.1
		c-1.2,0-2.2,0.5-3,1.6c-0.8,1.1-1.2,2.6-1.2,4.5c0,1.9,0.4,3.3,1.1,4.2c0.7,0.9,1.7,1.4,2.9,1.4c1.2,0,2.2-0.5,3-1.6
		c0.8-1.1,1.2-2.6,1.2-4.5c0-1.9-0.4-3.3-1.1-4.2C341,349.6,340,349.1,338.8,349.1z"/>
	<path class="st0" d="M70,389.5c-1.4,0-2.3-0.4-2.6-1.1c-0.1-0.2-0.1-0.3-0.1-0.4v-16.3h1.7v16.1c0,0.5,0.1,0.8,0.3,1.1
		c0.2,0.2,0.4,0.4,0.6,0.4l0.3,0h0.7v0.2H70z"/>
	<path class="st0" d="M82.4,389.5c-1.1,0-1.8-0.2-2.2-0.6c-0.4-0.3-0.5-0.7-0.5-0.9v-0.5c-0.8,1.4-2,2.1-3.7,2.1
		c-2,0-3.1-0.9-3.4-2.7c0-0.2,0-0.4,0-0.6c0-0.2,0-0.4,0.1-0.7c0.1-0.2,0.2-0.5,0.5-0.8c0.6-0.6,1.9-0.9,4-1c0.5,0,1-0.1,1.4-0.1
		c0.4,0,0.8,0,1.2,0v-3.9c0,0,0-0.1,0-0.2c0-0.1,0-0.3-0.1-0.5c-0.1-0.2-0.2-0.4-0.3-0.6c-0.1-0.2-0.4-0.4-0.8-0.5
		c-0.4-0.1-0.8-0.2-1.4-0.2c-0.6,0-1.3,0.1-2.1,0.3c-0.8,0.2-1.4,0.4-1.7,0.6l-0.1-0.2c1.4-0.7,2.8-1,4.3-1c1.6,0,2.7,0.3,3.2,0.9
		c0.4,0.5,0.6,0.9,0.6,1.5v8c0,0.5,0.1,0.8,0.3,1.1c0.2,0.2,0.4,0.4,0.6,0.4l0.3,0h0.7v0.2H82.4z M76.3,389.4c0.8,0,1.6-0.3,2.3-0.9
		c0.7-0.6,1-1.1,1.1-1.7V384c-0.4,0-0.9,0-1.3,0s-0.9,0-1.3,0.1c-1.2,0.1-2,0.4-2.4,0.8c-0.4,0.4-0.5,0.9-0.5,1.6c0,0.1,0,0.3,0,0.4
		C74.3,388.5,75,389.4,76.3,389.4z"/>
	<path class="st0" d="M93.1,384c0-2.1,0.5-3.7,1.5-4.8c1-1.1,2.5-1.7,4.5-1.7c1.5,0,3,0.3,4.5,0.8v11.5c0,3.8-1.7,5.7-4.9,5.7
		c-1.8,0-3.4-0.6-4.6-1.8l0.2-0.1c1.4,1.1,2.9,1.7,4.5,1.7c2.2,0,3.3-1.8,3.3-5.5v-2.4c-0.3,0.6-0.8,1-1.5,1.5
		c-0.7,0.4-1.5,0.6-2.5,0.6C94.7,389.4,93.1,387.6,93.1,384z M98,389.3c1.1,0,2-0.3,2.7-0.9c0.8-0.6,1.2-1.1,1.2-1.7v-8.4
		c-1.1-0.5-2.1-0.7-2.9-0.7c-1.4,0-2.5,0.6-3.2,1.7c-0.7,1.1-1.1,2.6-1.1,4.6C94.8,387.5,95.9,389.3,98,389.3z"/>
	<path class="st0" d="M111.7,378.6v-0.5c-0.7,0.3-1.4,0.9-2,1.7c-0.6,0.9-0.9,1.7-0.9,2.4v7.2h-1.7v-11.9h1.7v3.8
		c0.3-0.9,0.7-1.8,1.5-2.6c0.7-0.8,1.5-1.2,2.4-1.3h0.1c0.3,0,0.6,0.1,0.8,0.3c0.2,0.2,0.3,0.5,0.3,0.8c0,0.3-0.1,0.6-0.3,0.8
		c-0.2,0.2-0.5,0.3-0.8,0.3c-0.3,0-0.6-0.1-0.8-0.3C111.8,379.2,111.7,378.9,111.7,378.6z"/>
	<path class="st0" d="M125.4,389.5c-1.1,0-1.8-0.2-2.2-0.6c-0.4-0.3-0.5-0.7-0.5-0.9v-0.5c-0.8,1.4-2,2.1-3.7,2.1
		c-2,0-3.1-0.9-3.4-2.7c0-0.2,0-0.4,0-0.6c0-0.2,0-0.4,0.1-0.7c0.1-0.2,0.2-0.5,0.5-0.8c0.6-0.6,1.9-0.9,4-1c0.5,0,1-0.1,1.4-0.1
		c0.4,0,0.8,0,1.2,0v-3.9c0,0,0-0.1,0-0.2c0-0.1,0-0.3-0.1-0.5c-0.1-0.2-0.2-0.4-0.3-0.6c-0.1-0.2-0.4-0.4-0.8-0.5
		c-0.4-0.1-0.8-0.2-1.4-0.2c-0.6,0-1.3,0.1-2.1,0.3c-0.8,0.2-1.4,0.4-1.7,0.6l-0.1-0.2c1.4-0.7,2.8-1,4.3-1c1.6,0,2.7,0.3,3.2,0.9
		c0.4,0.5,0.6,0.9,0.6,1.5v8c0,0.5,0.1,0.8,0.3,1.1c0.2,0.2,0.4,0.4,0.6,0.4l0.3,0h0.7v0.2H125.4z M119.3,389.4
		c0.8,0,1.6-0.3,2.3-0.9c0.7-0.6,1-1.1,1.1-1.7V384c-0.4,0-0.9,0-1.3,0c-0.4,0-0.9,0-1.3,0.1c-1.2,0.1-2,0.4-2.4,0.8
		c-0.4,0.4-0.5,0.9-0.5,1.6c0,0.1,0,0.3,0,0.4C117.3,388.5,118,389.4,119.3,389.4z"/>
	<path class="st0" d="M133.6,377.7c-1.1,0-2.1,0.5-2.8,1.6c-0.8,1.1-1.1,2.6-1.1,4.5c0,1.9,0.3,3.3,1,4.2c0.7,0.9,1.6,1.4,2.7,1.4
		c1.4,0,2.7-0.2,3.8-0.7l0.1,0.2c-1.1,0.5-2.4,0.7-3.9,0.7c-1.5,0-2.8-0.5-3.8-1.4c-1-1-1.5-2.4-1.5-4.4c0-2,0.5-3.5,1.6-4.6
		s2.4-1.6,4-1.6c0.9,0,1.7,0.2,2.5,0.6c0.8,0.4,1.3,1,1.7,1.9h-1.5c-0.2-0.8-0.6-1.4-1.1-1.7C134.7,377.9,134.2,377.7,133.6,377.7z"
		/>
	<path class="st0" d="M140.6,374.9c-0.2-0.2-0.3-0.4-0.3-0.7c0-0.3,0.1-0.5,0.3-0.7c0.2-0.2,0.4-0.3,0.7-0.3c0.3,0,0.5,0.1,0.7,0.3
		c0.2,0.2,0.3,0.4,0.3,0.7c0,0.3-0.1,0.5-0.3,0.7c-0.2,0.2-0.4,0.3-0.7,0.3C141,375.2,140.8,375.1,140.6,374.9z M142.5,389.5
		c-0.7,0-1.1-0.1-1.5-0.4c-0.3-0.3-0.5-0.6-0.5-0.9l0-0.4v-10.2h1.7v10.2c0,0.5,0.1,0.8,0.3,1.1c0.2,0.2,0.4,0.4,0.5,0.4l0.3,0h0.7
		v0.2H142.5z"/>
	<path class="st0" d="M155.8,389.5c-1.1,0-1.8-0.2-2.2-0.6c-0.4-0.3-0.5-0.7-0.5-0.9v-0.5c-0.8,1.4-2,2.1-3.7,2.1
		c-2,0-3.1-0.9-3.4-2.7c0-0.2,0-0.4,0-0.6c0-0.2,0-0.4,0.1-0.7c0.1-0.2,0.2-0.5,0.5-0.8c0.6-0.6,1.9-0.9,4-1c0.5,0,1-0.1,1.4-0.1
		c0.4,0,0.8,0,1.2,0v-3.9c0,0,0-0.1,0-0.2c0-0.1,0-0.3-0.1-0.5c-0.1-0.2-0.2-0.4-0.3-0.6c-0.1-0.2-0.4-0.4-0.8-0.5
		c-0.4-0.1-0.8-0.2-1.4-0.2c-0.6,0-1.3,0.1-2.1,0.3c-0.8,0.2-1.4,0.4-1.7,0.6l-0.1-0.2c1.4-0.7,2.8-1,4.3-1c1.6,0,2.7,0.3,3.2,0.9
		c0.4,0.5,0.6,0.9,0.6,1.5v8c0,0.5,0.1,0.8,0.3,1.1c0.2,0.2,0.4,0.4,0.6,0.4l0.3,0h0.7v0.2H155.8z M149.7,389.4
		c0.8,0,1.6-0.3,2.3-0.9c0.7-0.6,1-1.1,1.1-1.7V384c-0.4,0-0.9,0-1.3,0s-0.9,0-1.3,0.1c-1.2,0.1-2,0.4-2.4,0.8
		c-0.4,0.4-0.5,0.9-0.5,1.6c0,0.1,0,0.3,0,0.4C147.7,388.5,148.4,389.4,149.7,389.4z"/>
	<path class="st0" d="M166.6,384c0-2.1,0.5-3.7,1.5-4.8c1-1.1,2.5-1.7,4.5-1.7c0.9,0,1.9,0.2,2.8,0.7v-6.5h1.7v16.1
		c0,0.5,0.1,0.8,0.3,1.1c0.2,0.2,0.4,0.4,0.6,0.4l0.3,0h0.7v0.2h-1.5c-0.7,0-1.1-0.1-1.5-0.4c-0.3-0.3-0.5-0.6-0.5-0.9l0-0.4v-0.4
		c-0.3,0.6-0.8,1-1.5,1.5c-0.7,0.4-1.5,0.6-2.5,0.6C168.2,389.4,166.6,387.6,166.6,384z M171.5,389.3c1.1,0,2-0.3,2.7-0.9
		c0.8-0.6,1.2-1.1,1.2-1.7v-8.4c-1.1-0.5-2.1-0.7-2.9-0.7c-1.4,0-2.5,0.6-3.2,1.7c-0.7,1.1-1.1,2.6-1.1,4.6
		C168.3,387.5,169.4,389.3,171.5,389.3z"/>
	<path class="st0" d="M181.9,383.7c0,2,0.3,3.4,1,4.3c0.7,0.9,1.6,1.4,2.7,1.4c1.6,0,3-0.2,4.2-0.7l0.1,0.2
		c-1.3,0.5-2.7,0.7-4.3,0.7s-2.9-0.5-3.9-1.4c-1-1-1.5-2.4-1.5-4.4c0-2,0.5-3.5,1.6-4.6s2.4-1.6,4-1.6c1.3,0,2.4,0.4,3.3,1.2
		c0.9,0.8,1.3,1.9,1.3,3.4c0,0.1,0,0.2,0,0.2h-8.5C181.9,382.8,181.9,383.2,181.9,383.7z M187.9,378.8c-0.6-0.7-1.3-1.1-2.2-1.1
		c-0.9,0-1.7,0.4-2.4,1.2c-0.7,0.8-1.2,1.9-1.3,3.3h6.8C188.8,380.6,188.5,379.5,187.9,378.8z"/>
	<path class="st0" d="M210.3,389.5c-0.7,0-1.1-0.1-1.5-0.4c-0.3-0.3-0.5-0.6-0.5-0.9l0-0.4v-7.5c0-1.3-0.3-2.1-1-2.4
		c-0.3-0.2-0.7-0.2-1.2-0.2c-1,0-1.9,0.4-2.7,1.2c-0.8,0.8-1.2,1.5-1.2,2.2v8.4h-1.7v-11.9h1.7v2.7c0.3-0.7,0.8-1.3,1.5-1.9
		c0.7-0.6,1.5-0.9,2.4-0.9c0.9,0,1.6,0.1,2.1,0.2c0.5,0.2,0.9,0.4,1.2,0.7c0.4,0.5,0.6,1.1,0.6,1.9v7.4c0,0.5,0.1,0.8,0.3,1.1
		c0.2,0.2,0.4,0.4,0.6,0.4l0.3,0h0.7v0.2H210.3z"/>
	<path class="st0" d="M215.2,386.7c0,1.3,0.3,2.1,1,2.4c0.3,0.2,0.7,0.2,1.2,0.2c1,0,1.9-0.4,2.7-1.1s1.2-1.5,1.3-2.1v-8.5h1.7v10.2
		c0,0.5,0.1,0.8,0.3,1.1c0.2,0.2,0.4,0.4,0.6,0.4l0.3,0h0.7v0.2h-1.5c-0.7,0-1.1-0.1-1.5-0.4c-0.3-0.3-0.5-0.6-0.5-0.9l0-0.4v-1
		c-0.3,0.7-0.8,1.3-1.5,1.9c-0.7,0.6-1.5,0.9-2.4,0.9c-0.9,0-1.6-0.1-2.1-0.2c-0.5-0.2-0.9-0.4-1.2-0.7c-0.4-0.5-0.6-1.1-0.6-1.9
		v-9.1h1.7V386.7z"/>
	<path class="st0" d="M228.2,383.7c0,2,0.3,3.4,1,4.3c0.7,0.9,1.6,1.4,2.7,1.4c1.6,0,3-0.2,4.2-0.7l0.1,0.2
		c-1.3,0.5-2.7,0.7-4.3,0.7s-2.9-0.5-3.9-1.4c-1-1-1.5-2.4-1.5-4.4c0-2,0.5-3.5,1.6-4.6s2.4-1.6,4-1.6c1.3,0,2.4,0.4,3.3,1.2
		c0.9,0.8,1.3,1.9,1.3,3.4c0,0.1,0,0.2,0,0.2h-8.5C228.3,382.8,228.2,383.2,228.2,383.7z M234.3,378.8c-0.6-0.7-1.3-1.1-2.2-1.1
		c-0.9,0-1.7,0.4-2.4,1.2c-0.7,0.8-1.2,1.9-1.3,3.3h6.8C235.2,380.6,234.9,379.5,234.3,378.8z"/>
	<path class="st0" d="M246,378.4c-0.3-0.2-0.7-0.4-1.2-0.5c-0.6-0.1-1-0.2-1.3-0.2c-0.3,0-0.5,0-0.5,0c-0.9,0-1.5,0.2-1.9,0.7
		c-0.4,0.4-0.6,0.9-0.6,1.4c0,0.5,0.2,1,0.5,1.3c0.3,0.4,0.7,0.6,1.2,0.8c0.5,0.2,1,0.4,1.6,0.7c0.6,0.3,1.1,0.5,1.6,0.8
		c0.5,0.3,0.9,0.6,1.2,1.1c0.3,0.5,0.5,1.1,0.5,1.9c0,0.7-0.3,1.4-0.8,1.9c-0.5,0.5-1.1,0.9-1.7,1c-0.6,0.2-1.3,0.3-2.1,0.3
		c-1.6,0-2.8-0.4-3.6-1.1l0.1-0.1c0.3,0.3,0.8,0.5,1.4,0.7c0.6,0.2,1.2,0.3,1.8,0.3c0.9,0,1.7-0.3,2.3-0.8c0.6-0.5,0.9-1.2,0.9-1.9
		s-0.2-1.4-0.7-1.9c-0.5-0.5-1-0.8-1.7-1.1c-0.7-0.3-1.3-0.5-2-0.8c-0.7-0.3-1.2-0.6-1.7-1.1c-0.5-0.5-0.7-1-0.7-1.6
		c0-0.6,0.1-1.1,0.4-1.5c0.3-0.4,0.7-0.7,1.1-0.8c0.8-0.3,1.6-0.4,2.4-0.4c1.4,0,2.4,0.3,3.2,0.8L246,378.4z"/>
	<path class="st0" d="M249.6,377.8v-0.2h0.5v-2.4h1.7v2.4h3.6v0.2h-3.6v8.7c0,1,0.1,1.8,0.3,2.2c0.2,0.5,0.7,0.7,1.5,0.7
		c0.7,0,1.5-0.2,2.2-0.5l0.1,0.2c-0.8,0.3-1.7,0.5-2.7,0.5s-1.8-0.2-2.3-0.6c-0.5-0.4-0.8-1.3-0.8-2.5v-8.6H249.6z"/>
	<path class="st0" d="M262.1,378.6v-0.5c-0.7,0.3-1.4,0.9-2,1.7c-0.6,0.9-0.9,1.7-0.9,2.4v7.2h-1.7v-11.9h1.7v3.8
		c0.3-0.9,0.7-1.8,1.5-2.6c0.7-0.8,1.5-1.2,2.4-1.3h0.1c0.3,0,0.6,0.1,0.8,0.3c0.2,0.2,0.3,0.5,0.3,0.8c0,0.3-0.1,0.6-0.3,0.8
		c-0.2,0.2-0.5,0.3-0.8,0.3c-0.3,0-0.6-0.1-0.8-0.3C262.2,379.2,262.1,378.9,262.1,378.6z"/>
	<path class="st0" d="M271.4,389.6c-1.7,0-3-0.5-4.1-1.4s-1.6-2.4-1.6-4.4c0-2,0.5-3.5,1.6-4.6c1.1-1.1,2.5-1.6,4.1-1.6
		c1.7,0,3,0.5,4.1,1.4c1,1,1.6,2.4,1.6,4.4s-0.5,3.5-1.6,4.6C274.4,389,273,389.6,271.4,389.6z M271.5,377.7c-1.2,0-2.2,0.5-3,1.6
		c-0.8,1.1-1.2,2.6-1.2,4.5c0,1.9,0.4,3.3,1.1,4.2c0.7,0.9,1.7,1.4,2.9,1.4c1.2,0,2.2-0.5,3-1.6c0.8-1.1,1.2-2.6,1.2-4.5
		c0-1.9-0.4-3.3-1.1-4.2C273.7,378.1,272.7,377.7,271.5,377.7z"/>
	<path class="st0" d="M296.8,373.8c-1.4-0.6-2.8-0.8-4.1-0.8c-1.3,0-2.3,0.3-3,0.8c-0.7,0.5-1.1,1.3-1.1,2.2c0,1.2,0.6,2.1,1.8,2.7
		c0.5,0.3,1.1,0.5,1.8,0.7c0.6,0.2,1.3,0.5,1.9,0.8c0.6,0.3,1.2,0.6,1.8,1c0.5,0.4,1,0.9,1.3,1.5c0.3,0.6,0.5,1.5,0.5,2.4
		c0,1-0.3,1.8-0.8,2.5c-0.6,0.7-1.2,1.2-2,1.4c-0.8,0.2-1.7,0.4-2.7,0.4c-2,0-3.6-0.5-5-1.5l0.1-0.2c0.5,0.4,1.2,0.7,2,1
		c0.8,0.3,1.7,0.4,2.6,0.4c1.3,0,2.4-0.3,3.3-0.9c0.9-0.6,1.4-1.5,1.4-2.6c0-1.3-0.6-2.3-1.8-3c-0.5-0.3-1.1-0.6-1.8-0.9
		c-0.6-0.3-1.3-0.6-1.9-0.8c-0.7-0.3-1.2-0.6-1.8-1c-1.2-0.8-1.8-1.9-1.8-3.4c0-1.2,0.4-2.1,1.2-2.8c0.8-0.7,1.9-1.1,3.5-1.1
		c1.6,0,3.2,0.3,4.8,0.8L296.8,373.8z"/>
	<path class="st0" d="M301.8,383.7c0,2,0.3,3.4,1,4.3c0.7,0.9,1.6,1.4,2.7,1.4c1.6,0,3-0.2,4.2-0.7l0.1,0.2
		c-1.3,0.5-2.7,0.7-4.3,0.7s-2.9-0.5-3.9-1.4s-1.5-2.4-1.5-4.4c0-2,0.5-3.5,1.6-4.6s2.4-1.6,4-1.6c1.3,0,2.4,0.4,3.3,1.2
		c0.9,0.8,1.3,1.9,1.3,3.4c0,0.1,0,0.2,0,0.2h-8.5C301.8,382.8,301.8,383.2,301.8,383.7z M307.8,378.8c-0.6-0.7-1.3-1.1-2.2-1.1
		c-0.9,0-1.7,0.4-2.4,1.2c-0.7,0.8-1.2,1.9-1.3,3.3h6.8C308.7,380.6,308.4,379.5,307.8,378.8z"/>
	<path class="st0" d="M321.8,389.5c-0.7,0-1.1-0.1-1.5-0.4c-0.3-0.3-0.5-0.6-0.5-0.9l0-0.4v-7.5c0-1.3-0.3-2.1-1-2.4
		c-0.3-0.2-0.7-0.2-1.2-0.2c-1,0-1.9,0.4-2.7,1.2c-0.8,0.8-1.2,1.5-1.2,2.2v8.4h-1.7v-11.9h1.7v2.7c0.3-0.7,0.8-1.3,1.5-1.9
		c0.7-0.6,1.5-0.9,2.4-0.9c0.9,0,1.6,0.1,2.1,0.2c0.5,0.2,0.9,0.4,1.2,0.7c0.4,0.5,0.6,1.1,0.6,1.9v7.4c0,0.5,0.1,0.8,0.3,1.1
		c0.2,0.2,0.4,0.4,0.6,0.4l0.3,0h0.7v0.2H321.8z M314.7,374.8c-0.8,0-1.3,0.3-1.5,0.8l-0.2-0.1c0.1-0.5,0.3-0.9,0.6-1.3
		c0.1-0.1,0.3-0.2,0.5-0.3l0.6-0.1c0.3-0.1,0.8,0,1.5,0.2c0.7,0.2,1.4,0.3,1.9,0.4c0.6,0.1,1.2,0.2,1.7,0.2c0.5,0,0.8-0.1,1-0.2
		c0.2-0.1,0.3-0.4,0.4-0.7l0.2,0c-0.2,0.9-0.5,1.4-1,1.7c-0.2,0.1-0.4,0.2-0.5,0.2c-0.2,0-0.3,0-0.5,0c-0.4,0-0.8-0.1-1.2-0.2
		s-0.7-0.2-0.7-0.2c0,0-0.1,0-0.1,0c0,0-0.4-0.1-0.9-0.2C315.9,374.9,315.3,374.8,314.7,374.8z"/>
	<path class="st0" d="M329.7,389.6c-1.7,0-3-0.5-4.1-1.4s-1.6-2.4-1.6-4.4c0-2,0.5-3.5,1.6-4.6c1.1-1.1,2.5-1.6,4.1-1.6
		c1.7,0,3,0.5,4.1,1.4s1.6,2.4,1.6,4.4s-0.5,3.5-1.6,4.6C332.8,389,331.4,389.6,329.7,389.6z M329.9,377.7c-1.2,0-2.2,0.5-3,1.6
		c-0.8,1.1-1.2,2.6-1.2,4.5c0,1.9,0.4,3.3,1.1,4.2c0.7,0.9,1.7,1.4,2.9,1.4c1.2,0,2.2-0.5,3-1.6c0.8-1.1,1.2-2.6,1.2-4.5
		c0-1.9-0.4-3.3-1.1-4.2C332,378.1,331.1,377.7,329.9,377.7z"/>
	<path class="st0" d="M342,378.6v-0.5c-0.7,0.3-1.4,0.9-2,1.7c-0.6,0.9-0.9,1.7-0.9,2.4v7.2h-1.7v-11.9h1.7v3.8
		c0.3-0.9,0.7-1.8,1.5-2.6c0.7-0.8,1.5-1.2,2.4-1.3h0.1c0.3,0,0.6,0.1,0.8,0.3c0.2,0.2,0.3,0.5,0.3,0.8c0,0.3-0.1,0.6-0.3,0.8
		c-0.2,0.2-0.5,0.3-0.8,0.3c-0.3,0-0.6-0.1-0.8-0.3C342.1,379.2,342,378.9,342,378.6z"/>
	<path class="st0" d="M348.6,371.6c0.3,0,0.5,0.1,0.7,0.3s0.3,0.4,0.3,0.6c0,0.2-0.4,1.7-1.1,4.4h-0.3l0.5-3.4h-0.1
		c-0.3,0-0.5-0.1-0.7-0.3c-0.2-0.2-0.3-0.4-0.3-0.7c0-0.3,0.1-0.5,0.3-0.7C348.1,371.7,348.3,371.6,348.6,371.6z M351.2,371.6
		c0.3,0,0.5,0.1,0.7,0.3c0.2,0.2,0.3,0.4,0.3,0.6c0,0.2-0.4,1.7-1.1,4.4h-0.3l0.5-3.4h-0.1c-0.3,0-0.5-0.1-0.7-0.3
		c-0.2-0.2-0.3-0.4-0.3-0.7c0-0.3,0.1-0.5,0.3-0.7C350.7,371.7,350.9,371.6,351.2,371.6z"/>
	<path class="st0" d="M125.8,414.6c1.8-0.1,3.5-0.2,4.9-0.2c3.9,0,5.9,1.4,5.9,4.2c0,1.3-0.3,2.4-1,3.4c-0.3,0.5-0.9,0.9-1.6,1.2
		c-0.7,0.3-1.6,0.5-2.6,0.5h-3.5v7.4h-2V414.6z M130.7,414.7c-0.9,0-1.9,0.1-2.9,0.2v8.6h3.5c2.2-0.1,3.4-1.7,3.4-4.8
		c0-1.3-0.3-2.2-1-2.9C133,415,132,414.7,130.7,414.7z"/>
	<path class="st0" d="M143.6,420.2v-0.5c-0.7,0.3-1.4,0.9-2,1.7c-0.6,0.9-0.9,1.7-0.9,2.4v7.2h-1.7v-11.9h1.7v3.8
		c0.3-0.9,0.7-1.8,1.5-2.6c0.7-0.8,1.5-1.2,2.4-1.3h0.1c0.3,0,0.6,0.1,0.8,0.3c0.2,0.2,0.3,0.5,0.3,0.8c0,0.3-0.1,0.6-0.3,0.8
		c-0.2,0.2-0.5,0.3-0.8,0.3c-0.3,0-0.6-0.1-0.8-0.3C143.7,420.8,143.6,420.5,143.6,420.2z"/>
	<path class="st0" d="M152.9,431.2c-1.7,0-3-0.5-4.1-1.4c-1-1-1.6-2.4-1.6-4.4c0-2,0.5-3.5,1.6-4.6c1.1-1.1,2.5-1.6,4.1-1.6
		s3,0.5,4.1,1.4s1.6,2.4,1.6,4.4s-0.5,3.5-1.6,4.6C155.9,430.6,154.6,431.2,152.9,431.2z M153,419.3c-1.2,0-2.2,0.5-3,1.6
		c-0.8,1.1-1.2,2.6-1.2,4.5c0,1.9,0.4,3.3,1.1,4.2c0.7,0.9,1.7,1.4,2.9,1.4c1.2,0,2.2-0.5,3-1.6c0.8-1.1,1.2-2.6,1.2-4.5
		c0-1.9-0.4-3.3-1.1-4.2C155.2,419.8,154.2,419.3,153,419.3z"/>
	<path class="st0" d="M169.2,419.3l0.1-0.1c0.1,0,0.1,0.1,0.2,0.3c0.1,0.2,0.2,0.3,0.2,0.4c0,0.1,0,0.2,0,0.4c0,0.4-0.1,0.9-0.3,1.3
		l-4.6,9.5h-0.2l-4.4-11.9h1.7l3.6,9.8l3.7-7.5c0.2-0.3,0.3-0.7,0.3-1.2C169.6,419.9,169.5,419.6,169.2,419.3z"/>
	<path class="st0" d="M173.3,425.3c0,2,0.3,3.4,1,4.3c0.7,0.9,1.6,1.4,2.7,1.4c1.6,0,3-0.2,4.2-0.7l0.1,0.2
		c-1.3,0.5-2.7,0.7-4.3,0.7s-2.9-0.5-3.9-1.4s-1.5-2.4-1.5-4.4c0-2,0.5-3.5,1.6-4.6s2.4-1.6,4-1.6c1.3,0,2.4,0.4,3.3,1.2
		c0.9,0.8,1.3,1.9,1.3,3.4c0,0.1,0,0.2,0,0.2h-8.5C173.4,424.4,173.3,424.8,173.3,425.3z M179.4,420.4c-0.6-0.7-1.3-1.1-2.2-1.1
		c-0.9,0-1.7,0.4-2.4,1.2c-0.7,0.8-1.2,1.9-1.3,3.3h6.8C180.3,422.2,180,421.1,179.4,420.4z"/>
	<path class="st0" d="M188,420.2v-0.5c-0.7,0.3-1.4,0.9-2,1.7c-0.6,0.9-0.9,1.7-0.9,2.4v7.2h-1.7v-11.9h1.7v3.8
		c0.3-0.9,0.7-1.8,1.5-2.6s1.5-1.2,2.4-1.3h0.1c0.3,0,0.6,0.1,0.8,0.3c0.2,0.2,0.3,0.5,0.3,0.8c0,0.3-0.1,0.6-0.3,0.8
		c-0.2,0.2-0.5,0.3-0.8,0.3c-0.3,0-0.6-0.1-0.8-0.3C188.1,420.8,188,420.5,188,420.2z"/>
	<path class="st0" d="M192.6,413.3h1.7v8.9c0.3-0.7,0.8-1.4,1.5-2.1c0.7-0.7,1.6-1,2.5-1c3.2,0,4.8,1.9,4.8,5.7
		c0,4.3-2.1,6.4-6.2,6.4c-1.2,0-2.6-0.2-4.2-0.6V413.3z M198.2,419.3c-1,0-1.9,0.4-2.7,1.3c-0.8,0.8-1.2,1.6-1.3,2.3v7.6
		c1,0.4,1.8,0.5,2.5,0.5c3.1,0,4.6-2.1,4.6-6.3C201.4,421.1,200.3,419.3,198.2,419.3z"/>
	<path class="st0" d="M206.1,416.5c-0.2-0.2-0.3-0.4-0.3-0.7c0-0.3,0.1-0.5,0.3-0.7c0.2-0.2,0.4-0.3,0.7-0.3c0.3,0,0.5,0.1,0.7,0.3
		c0.2,0.2,0.3,0.4,0.3,0.7c0,0.3-0.1,0.5-0.3,0.7c-0.2,0.2-0.4,0.3-0.7,0.3C206.5,416.8,206.3,416.7,206.1,416.5z M208,431.1
		c-0.7,0-1.1-0.1-1.5-0.4c-0.3-0.3-0.5-0.6-0.5-0.9l0-0.4v-10.2h1.7v10.2c0,0.5,0.1,0.8,0.3,1.1c0.2,0.2,0.4,0.4,0.5,0.4l0.3,0h0.7
		v0.2H208z"/>
	<path class="st0" d="M216.4,431.2c-1.7,0-3-0.5-4.1-1.4s-1.6-2.4-1.6-4.4c0-2,0.5-3.5,1.6-4.6c1.1-1.1,2.5-1.6,4.1-1.6
		c1.7,0,3,0.5,4.1,1.4c1,1,1.6,2.4,1.6,4.4s-0.5,3.5-1.6,4.6C219.4,430.6,218.1,431.2,216.4,431.2z M216.5,419.3
		c-1.2,0-2.2,0.5-3,1.6c-0.8,1.1-1.2,2.6-1.2,4.5c0,1.9,0.4,3.3,1.1,4.2c0.7,0.9,1.7,1.4,2.9,1.4c1.2,0,2.2-0.5,3-1.6
		c0.8-1.1,1.2-2.6,1.2-4.5c0-1.9-0.4-3.3-1.1-4.2C218.7,419.8,217.8,419.3,216.5,419.3z"/>
	<path class="st0" d="M231.1,420c-0.3-0.2-0.7-0.4-1.2-0.5c-0.6-0.1-1-0.2-1.3-0.2c-0.3,0-0.5,0-0.5,0c-0.9,0-1.5,0.2-1.9,0.7
		c-0.4,0.4-0.6,0.9-0.6,1.4c0,0.5,0.2,1,0.5,1.3c0.3,0.4,0.7,0.6,1.2,0.8c0.5,0.2,1,0.4,1.6,0.7c0.6,0.3,1.1,0.5,1.6,0.8
		c0.5,0.3,0.9,0.6,1.2,1.1c0.3,0.5,0.5,1.1,0.5,1.9c0,0.7-0.3,1.4-0.8,1.9c-0.5,0.5-1.1,0.9-1.7,1c-0.6,0.2-1.3,0.3-2.1,0.3
		c-1.6,0-2.8-0.4-3.6-1.1l0.1-0.1c0.3,0.3,0.8,0.5,1.4,0.7c0.6,0.2,1.2,0.3,1.8,0.3c0.9,0,1.7-0.3,2.3-0.8c0.6-0.5,0.9-1.2,0.9-1.9
		s-0.2-1.4-0.7-1.9c-0.5-0.5-1-0.8-1.7-1.1c-0.7-0.3-1.3-0.5-2-0.8c-0.7-0.3-1.2-0.6-1.7-1.1c-0.5-0.5-0.7-1-0.7-1.6
		c0-0.6,0.1-1.1,0.4-1.5c0.3-0.4,0.7-0.7,1.1-0.8c0.8-0.3,1.6-0.4,2.4-0.4c1.4,0,2.4,0.3,3.2,0.8L231.1,420z"/>
	<path class="st0" d="M249,424.6c0,2.1,0,4,0.1,4.9c0.1,0.7,0.2,1,0.9,1.1c0.3,0.1,1.2,0.1,1.4,0.1c0.1,0,0.2,0.1,0.2,0.2
		c0,0.1-0.1,0.1-0.4,0.1c-1.6,0-3-0.1-3.1-0.1c-0.1,0-1.9,0.1-3.3,0.1c-0.2,0-0.4,0-0.4-0.1c0-0.1,0.1-0.2,0.2-0.2
		c0.3,0,1.3-0.1,1.7-0.1c0.7-0.1,0.9-0.4,0.9-1.1c0.1-0.9,0.1-2.8,0.1-4.9v-3.7c0-1.2,0-2.1,0-3.3c0-0.4,0-0.7-0.4-0.7
		c-0.4,0-1.9,0.8-2.4,1c-0.1,0.1-0.2,0.1-0.3,0.1c-0.1,0-0.1-0.1-0.1-0.2c0-0.1,0.1-0.2,0.1-0.2l4.1-2.8c0.2-0.1,0.4-0.3,0.5-0.3
		c0.2,0,0.2,0.2,0.2,0.5c0,0.2-0.1,2.3-0.1,5.6L249,424.6z"/>
	<path class="st0" d="M258.8,422.5c-1.7-1-3-2.1-3-4c0-1.6,1.4-3.8,4.6-3.8c2.2,0,3.9,1.2,3.9,3.3c0,2.2-1.9,3.5-3.1,4.1
		c1.4,0.7,3.7,2,3.7,4.7c0,2.5-2,4.7-5.1,4.7c-2.7,0-4.9-1.6-4.9-4.2C255,424.9,256.9,423.3,258.8,422.5z M263.3,427.2
		c0-2.3-1.8-3.4-3.8-4.4c-1.6,0.8-2.9,2.1-2.9,4.2c0,1.9,1.4,3.6,3.4,3.6C262,430.6,263.3,429.1,263.3,427.2z M257.4,418.1
		c0,1.8,1.4,2.7,3.2,3.6c0.8-0.5,2.3-1.3,2.3-3.5c0-1.6-1-2.8-2.7-2.8C258.2,415.4,257.4,416.9,257.4,418.1z"/>
	<path class="st0" d="M267.6,422c0-0.5,0.3-1.2,1.2-1.2c0.7,0,1.2,0.4,1.2,1.1c0,0.7-0.5,1.2-1.2,1.2
		C268,423.2,267.6,422.6,267.6,422z M267.6,429.3c0-0.5,0.3-1.2,1.2-1.2c0.7,0,1.2,0.4,1.2,1.1c0,0.7-0.5,1.2-1.2,1.2
		C268,430.4,267.6,429.8,267.6,429.3z"/>
	<path class="st0" d="M272.5,431.1c-0.1,0-0.3-0.1-0.3-0.3c0-0.2,0.2-0.4,0.4-0.5c4.3-3.8,7.5-6.8,7.5-10.9c0-3.1-2-4-3.4-4
		c-1,0-1.7,0.2-2.3,0.8c-0.5,0.5-0.7,1.2-0.7,2.1c0,0.2-0.1,0.3-0.2,0.3c-0.1,0-0.2-0.1-0.2-0.3c0-0.2-0.1-2-0.1-2.6
		c0-0.1,0-0.2,0.2-0.3c0.8-0.4,2-0.8,3.8-0.8c3.2,0,4.8,2.1,4.8,4.3c0,4.4-4.8,8.4-7.5,10.7c-0.1,0.1-0.1,0.1,0,0.1h1.6
		c0.4,0,2.9,0,3.7-0.1c1.6-0.1,2.2-0.9,2.5-2.1c0.1-0.2,0.1-0.3,0.3-0.3c0.1,0,0.1,0.2,0.1,0.3c0,0.4-0.4,2.1-0.6,2.8
		c-0.2,0.6-0.5,0.6-1.4,0.6H272.5z"/>
	<path class="st0" d="M284.7,431.1c-0.1,0-0.3-0.1-0.3-0.3c0-0.2,0.2-0.4,0.4-0.5c4.3-3.8,7.5-6.8,7.5-10.9c0-3.1-2-4-3.4-4
		c-1,0-1.7,0.2-2.3,0.8c-0.5,0.5-0.7,1.2-0.7,2.1c0,0.2-0.1,0.3-0.2,0.3c-0.1,0-0.1-0.1-0.2-0.3c0-0.2-0.1-2-0.1-2.6
		c0-0.1,0-0.2,0.2-0.3c0.8-0.4,2-0.8,3.8-0.8c3.2,0,4.8,2.1,4.8,4.3c0,4.4-4.8,8.4-7.5,10.7c-0.1,0.1-0.1,0.1,0,0.1h1.6
		c0.4,0,2.9,0,3.7-0.1c1.6-0.1,2.2-0.9,2.5-2.1c0.1-0.2,0.1-0.3,0.3-0.3c0.1,0,0.1,0.2,0.1,0.3c0,0.4-0.4,2.1-0.6,2.8
		c-0.2,0.6-0.5,0.6-1.4,0.6H284.7z"/>
</g>
</svg>
