<?xml version="1.0" encoding="utf-8"?>
<!-- Generator: Adobe Illustrator 28.0.0, SVG Export Plug-In . SVG Version: 6.00 Build 0)  -->
<svg version="1.1" id="Capa_1" xmlns="http://www.w3.org/2000/svg" xmlns:xlink="http://www.w3.org/1999/xlink" x="0px" y="0px"
	 viewBox="0 0 430 734" style="enable-background:new 0 0 430 734;" xml:space="preserve">
<style type="text/css">
	.st0{fill:none;}
	.st1{fill:url(#XMLID_00000013871476316003785380000013853251319967299470_);}
	.st2{fill:url(#SVGID_1_);}
	.st3{fill:url(#SVGID_00000089535284246574846830000007106264620719642035_);}
	.st4{fill:url(#SVGID_00000078044031749425758830000002191164550861936308_);}
	.st5{fill:url(#SVGID_00000164509168026577426490000006168021899210167706_);}
	.st6{fill:url(#SVGID_00000044895247836326042400000000799707058459276451_);}
	.st7{fill:url(#SVGID_00000161631101495593002180000006652566432714231743_);}
	.st8{fill:url(#SVGID_00000076569514209506164100000014158830263141364864_);}
	.st9{fill:url(#SVGID_00000111178083299467575880000018092929946312575632_);}
	.st10{fill:url(#SVGID_00000020367360500304027450000002783559683685224336_);}
	.st11{fill:url(#SVGID_00000029744455015535741030000010289918893628005253_);}
	.st12{fill:url(#SVGID_00000088834220892386402730000008870553977275446457_);}
	.st13{fill:url(#SVGID_00000042728651105669611610000008218340093279815591_);}
	.st14{fill:url(#SVGID_00000047774227995772028790000009536045741652296886_);}
	.st15{fill:url(#SVGID_00000129185553610198991930000005548972357151596429_);}
	.st16{fill:url(#SVGID_00000032632840276468787580000014456704075885728437_);}
	
		.st17{fill:url(#SVGID_00000003826476424321470010000008238123375444917143_);stroke:url(#SVGID_00000007403735479403078580000011527023549260483464_);stroke-width:0.3043;stroke-miterlimit:10;}
</style>
<pattern  y="734" width="286.7" height="240.9" patternUnits="userSpaceOnUse" id="Nueva_muestra_de_motivo_2" viewBox="0 -240.9 286.7 240.9" style="overflow:visible;">
	<g>
		<rect y="-240.9" class="st0" width="286.7" height="240.9"/>
		<g>
			<rect y="-240.9" class="st0" width="286.7" height="240.9"/>
			
				<linearGradient id="XMLID_00000142145056424964260710000007537000134781278395_" gradientUnits="userSpaceOnUse" x1="17191.3887" y1="-341.0063" x2="17432.2891" y2="-341.0063" gradientTransform="matrix(4.489700e-11 1 -1 4.489700e-11 -197.6563 -17432.2891)">
				<stop  offset="0" style="stop-color:#DCC173"/>
				<stop  offset="0.2398" style="stop-color:#AB8136"/>
				<stop  offset="0.5153" style="stop-color:#73582B"/>
				<stop  offset="0.8571" style="stop-color:#DCC173"/>
			</linearGradient>
			
				<polygon id="XMLID_00000104707027599474006310000010033274012897440417_" style="fill:url(#XMLID_00000142145056424964260710000007537000134781278395_);" points="
				286.7,0 286.7,-240.9 0,-240.9 0,0 			"/>
		</g>
	</g>
</pattern>
<pattern  y="734" width="276" height="169" patternUnits="userSpaceOnUse" id="SVGID_0000006000790871776856997" viewBox="0 -169 276 169" style="overflow:visible;">
	<g>
		<rect y="-169" class="st0" width="276" height="169"/>
		<g>
			<rect y="-169" class="st0" width="276" height="169"/>
			
				<linearGradient id="SVGID_1_" gradientUnits="userSpaceOnUse" x1="545" y1="-16640" x2="821" y2="-16640" gradientTransform="matrix(1 0 0 1 -545 16555.5)">
				<stop  offset="0" style="stop-color:#DCC173"/>
				<stop  offset="0.2398" style="stop-color:#AB8136"/>
				<stop  offset="0.5153" style="stop-color:#73582B"/>
				<stop  offset="0.8571" style="stop-color:#DCC173"/>
			</linearGradient>
			<rect y="-169" class="st2" width="276" height="169"/>
		</g>
	</g>
</pattern>
<pattern  y="734" width="276" height="169" patternUnits="userSpaceOnUse" id="SVGID_0000009965265926550141086" viewBox="0 -169 276 169" style="overflow:visible;">
	<g>
		<rect y="-169" class="st0" width="276" height="169"/>
		<g>
			<rect y="-169" class="st0" width="276" height="169"/>
			
				<linearGradient id="SVGID_00000029760157471103678110000001075969851046800813_" gradientUnits="userSpaceOnUse" x1="545" y1="-16640" x2="821" y2="-16640" gradientTransform="matrix(1 0 0 1 -545 16555.5)">
				<stop  offset="0" style="stop-color:#DCC173"/>
				<stop  offset="0.2398" style="stop-color:#AB8136"/>
				<stop  offset="0.5153" style="stop-color:#73582B"/>
				<stop  offset="0.8571" style="stop-color:#DCC173"/>
			</linearGradient>
			<rect y="-169" style="fill:url(#SVGID_00000029760157471103678110000001075969851046800813_);" width="276" height="169"/>
		</g>
	</g>
</pattern>
<g>
	<g>
		<g>
			
				<pattern  id="SVGID_00000149367216472558344350000004654738811724096160_" xlink:href="#Nueva_muestra_de_motivo_2" patternTransform="matrix(1 0 0 -1 0 -17620.6992)">
			</pattern>
			<path style="fill:url(#SVGID_00000149367216472558344350000004654738811724096160_);" d="M151.6,520.3c-2-0.2-8.3-1-7.5-9.1
				c0.6-5.8,4.5-13.2,7.6-20.3c3.8-8.8-1.5-8.4-10.1,2.5c-3,3.7-11.2,16.4-12.9,20.6c-1.8,4.2-5.3,2.4-4.4,1
				c0.8-1.6,7.6-12.1,9.6-27.9c0.8-6.2-3.3-5.9-7.1-1.2c-8.4,10.4-10.8,16.2-17.4,30.8c-0.8,1.8-4.4,1.8-3.9,0.3
				c4.1-6.3,10.6-22.7,11.7-30.5c2.6-19.1-21.4-5.7-26.1,7.1c-4,11.2,2.5,16.5,8.9,14.2c6.2-2.3,10.7-14.3,3.1-13.3
				c-0.9,0.1-2.1-0.7,0.2-1c8-1.2,7,10.9-3.4,15.2c-7.1,2.9-16.2-4.1-11.4-15.6c6.9-16.1,33.2-25.7,31.4-6.5c-0.3,3-1.3,6.4-2.5,9.6
				c-0.6,1.8-0.2,2.1,0.6,0.5c2.8-5,4.4-7.5,7.8-11.6c3.7-4.5,11.6-6.4,10.9,1.8c-0.6,6.2-2.7,12-4.7,18c2-3.1,5.6-8.2,9.5-13.1
				c11.1-13.9,18.3-10.8,12.8,0.3c-4.2,8.3-13.1,28.2-1.9,27.7C154.2,519.4,153.6,520.5,151.6,520.3z"/>
			
				<pattern  id="SVGID_00000111898805833106727530000016009651398670001324_" xlink:href="#Nueva_muestra_de_motivo_2" patternTransform="matrix(1 0 0 -1 0 -17620.6992)">
			</pattern>
			<path style="fill:url(#SVGID_00000111898805833106727530000016009651398670001324_);" d="M156.4,515c-2.4,0-4.6-1.6-4.6-4.6
				c0-2.9,1.6-6.5,3.7-9c2.5-2.9,6.1-4.7,8.2-3.1c1.8,1.4,0.4,4.7-2.6,7c-1.5,1.1-4.6,2.1-5.9,2.1c-0.7,1.7-1.5,6.6,1.6,6.6
				c4.2,0,6.8-5.7,7.9-8.2c0.4-0.9,1.3-1,0.9,0C163.8,509.6,161.7,515,156.4,515z M158.3,502c-1.2,1.5-2.5,3.7-2.9,4.5
				c0.9,0,3.4-0.7,5.1-2.1C164.5,501.1,164.2,494.9,158.3,502z"/>
			
				<pattern  id="SVGID_00000181072047819824294440000011573983965354762681_" xlink:href="#Nueva_muestra_de_motivo_2" patternTransform="matrix(1 0 0 -1 0 -17620.6992)">
			</pattern>
			<path style="fill:url(#SVGID_00000181072047819824294440000011573983965354762681_);" d="M167.8,514.5c-0.7,0.3-1.3,0.5-2,0.5
				c-5.8,0-4.7-6.7-2.4-6.8c1.3-2.5,2.9-5.6,4.1-8.3c0.9-1.9,2.3-3.9,4-4.1c0.7-0.1,1.3,0,1.8,0.2c0.9,0.4,0.7,1.2-0.2,0.8
				c-0.5-0.2-1.1-0.3-1.5,0c-2.2,1.1-1.7,4.4-1,6.1c0.8,1.8,1.8,3.6,1.7,5.7c-0.1,1.9-1.5,4.1-3.4,5.3h0.3c1.6,0.2,3.1-0.8,4.3-2.2
				c1.1-1.3,2.6-4.3,3.6-6.3c0.2-0.5,1-0.2,0.7,0.3C176.1,509.7,173.2,516.1,167.8,514.5z M164.5,510.4c-1.5,1.5-0.9,3.8,1,3.8
				c0.3,0,0.7,0,1-0.2C165.4,513.3,164.6,512.2,164.5,510.4z M168.8,499.4c-1.3,2.6-3.4,6.8-4.5,8.9c0,0,1.1,0,1,1.5
				c-0.1,1.8,0.9,3.2,2,3.7c1.1-0.8,2-2.5,2.1-5C169.5,505.5,168.4,501.6,168.8,499.4z"/>
			
				<pattern  id="SVGID_00000119832577636467929190000013571963637021261495_" xlink:href="#Nueva_muestra_de_motivo_2" patternTransform="matrix(1 0 0 -1 0 -17620.6992)">
			</pattern>
			<path style="fill:url(#SVGID_00000119832577636467929190000013571963637021261495_);" d="M187.4,514.9c-1.6,0.1-3.8-1.2-2.4-6.2
				c-0.8,1.2-2.1,3.2-3.5,4.5c-5.5,5.3-9.2-3.1-1.9-11.8c2.9-3.4,8.4-5.2,11.2-2.2c0.7,0.7,0.3,1.5-0.5,1.4
				c-0.5-1.8-2.3-2.2-4.1-1.2c-2.2,1.2-4.7,4-6.4,6.9c-0.4,0.7-1.7,3-2,4.9c-0.5,3.4,2.2,3,4.4,0.3c1.7-2,3-4.4,4.3-6.7
				c1.1-2,1.7-3.2,3.3-3.1c0.6,0,1.3,0.3,2,0.2c-1,1-3.8,6.1-4.5,9c-0.4,2-0.1,2.9,0.5,2.9c2,0.1,5.2-6,6.2-8.1
				c0.4-0.9,1.2-0.6,0.7,0.4C193.2,508.9,190.2,514.6,187.4,514.9z"/>
			
				<pattern  id="SVGID_00000049190965994294050230000012724728590677995904_" xlink:href="#Nueva_muestra_de_motivo_2" patternTransform="matrix(1 0 0 -1 0 -17620.6992)">
			</pattern>
			<path style="fill:url(#SVGID_00000049190965994294050230000012724728590677995904_);" d="M217.5,508.4c-0.5,1.1-2,5.1,0.3,5.1
				c2.4,0,5.2-6,6.2-8c0.4-0.9,1.2-0.7,0.7,0.3c-1.2,2.7-3.9,8.9-7.8,8.9c-0.8,0-1.5-0.4-2.2-1.3c-0.5-0.8-0.9-2.3-0.4-4.2
				c-1.4,2.4-3.7,6.2-7,5.3c-4.5-1.2-1.9-9,1.6-13.2c2.7-3.1,6.9-4.8,10.3-2.8c2.3-4.4,4.4-8.8,5.6-11.4c0.9-2.2,1.7-2.6,3.3-2.5
				c0.6,0,1.3,0.3,2.1,0.2C228.7,486.2,220.3,501.8,217.5,508.4z M208.7,507c-3.2,6-0.3,8.9,3.8,3.2c1.8-2.5,4.2-6.6,6.4-10.9
				C216.5,497,211.2,502.3,208.7,507z"/>
			
				<pattern  id="SVGID_00000180334882800814760000000014823611465609496992_" xlink:href="#Nueva_muestra_de_motivo_2" patternTransform="matrix(1 0 0 -1 0 -17620.6992)">
			</pattern>
			<path style="fill:url(#SVGID_00000180334882800814760000000014823611465609496992_);" d="M227.4,515c-2.4,0-4.6-1.6-4.6-4.6
				c0-2.9,1.6-6.5,3.7-9c2.5-2.9,6.1-4.7,8.2-3.1c1.8,1.4,0.4,4.7-2.6,7c-1.5,1.1-4.6,2.1-5.9,2.1c-0.7,1.7-1.5,6.6,1.6,6.6
				c4.2,0,6.8-5.7,7.9-8.2c0.4-0.9,1.3-1,0.9,0C234.8,509.6,232.7,515,227.4,515z M229.4,502c-1.2,1.5-2.5,3.7-2.9,4.5
				c0.9,0,3.4-0.7,5.1-2.1C235.5,501.1,235.3,494.9,229.4,502z"/>
			
				<pattern  id="SVGID_00000075882800849903697930000007758476767833886600_" xlink:href="#Nueva_muestra_de_motivo_2" patternTransform="matrix(1 0 0 -1 0 -17620.6992)">
			</pattern>
			<path style="fill:url(#SVGID_00000075882800849903697930000007758476767833886600_);" d="M254.5,514.7c-1.6,0.4-4.6-1.1-2.6-6.1
				c0.7-2,2.5-4.5,3-5.7c0.7-1.6-1-2.2-3.7-2.3l-0.6,1.5c-1.2,3-3.5,8.4-5.8,10.6c-0.4,0.3-0.7-0.2-0.4-0.6c3.8-5,6.4-12.3,7.4-17.6
				c0.5-2.7,3.6-1.5,2.9,1.7c-0.3,1.3-1.8,2.6-2.6,3.2c1.8,0.1,4.3,0,6.6-0.2c0.3,0.7-0.4,2.5-1,3.7c-0.7,1.5-5.6,10.3-2.7,10.4
				c2,0,5-6,6-8c0.4-0.8,1.1-0.5,0.6,0.5C260,508.9,257.6,514,254.5,514.7z"/>
			
				<pattern  id="SVGID_00000155112885915777513530000011345433250510941355_" xlink:href="#Nueva_muestra_de_motivo_2" patternTransform="matrix(1 0 0 -1 0 -17620.6992)">
			</pattern>
			<path style="fill:url(#SVGID_00000155112885915777513530000011345433250510941355_);" d="M264.2,515c-2.4,0-4.6-1.6-4.6-4.6
				c0-2.9,1.6-6.5,3.7-9c2.5-2.9,6.1-4.7,8.2-3.1c1.8,1.4,0.4,4.7-2.6,7c-1.5,1.1-4.6,2.1-5.9,2.1c-0.7,1.7-1.5,6.6,1.6,6.6
				c4.2,0,6.8-5.7,7.9-8.2c0.4-0.9,1.3-1,0.9,0C271.6,509.6,269.5,515,264.2,515z M266.1,502c-1.2,1.5-2.5,3.7-2.9,4.5
				c0.9,0,3.4-0.7,5.1-2.1C272.3,501.1,272.1,494.9,266.1,502z"/>
			
				<pattern  id="SVGID_00000057124002240895140250000017708452438823427491_" xlink:href="#Nueva_muestra_de_motivo_2" patternTransform="matrix(1 0 0 -1 0 -17620.6992)">
			</pattern>
			<path style="fill:url(#SVGID_00000057124002240895140250000017708452438823427491_);" d="M284.7,515.4
				c-2.1,6.1-8.5,14.6-15.4,14.6c-3,0-4.5-1.2-4.5-3.7c0-2.4,1.9-4.2,4.2-5.5c4.7-2.8,9.1-3.7,12.8-5.2c0.6-1.7,0.9-3.4,1.1-5.3
				c0.2-1.9,0.2-3.4,0-3.9c-1.5,3-5.4,9.5-9.2,8.3c-4.8-2.1-1.9-9,1.6-13.2c2.8-3.4,7.5-5,11.2-2.2c1.7,1.4,0,2.8-0.5,1.4
				c-1.2-3.4-4.8-1.5-7.7,1.8c-3.5,3.9-6.2,9.8-3.7,10.9c2.8,1.2,7.5-6.2,8.4-9.2c0.7-2.2,2.2-1.3,3-1.9c0.6,3.8,0.4,7.9-0.6,11.7
				c1.2-0.8,2.4-1.8,3.4-3.1c1.6-2.1,2.3-4.2,2.8-5.1c0.4-0.9,1.2-0.6,0.7,0.4C289.7,511,288.3,513.7,284.7,515.4z M279.6,517.5
				c-3.5,1.2-7.5,2.6-10.6,4.6c-3.1,2.1-4.9,6.9-0.9,6.9c2.1,0,4.9-1.6,6.1-2.5c1.5-1.2,3-2.9,4.3-4.7c1.2-1.6,2.1-3.2,2.7-4.9
				L279.6,517.5z"/>
			
				<pattern  id="SVGID_00000167385100035789227710000003361096009851750310_" xlink:href="#Nueva_muestra_de_motivo_2" patternTransform="matrix(1 0 0 -1 0 -17620.6992)">
			</pattern>
			<path style="fill:url(#SVGID_00000167385100035789227710000003361096009851750310_);" d="M301.7,514.9c-1.6,0.1-3.8-1.2-2.4-6.2
				c-0.8,1.2-2.1,3.2-3.5,4.5c-5.5,5.3-9.2-3.1-1.9-11.8c2.9-3.4,8.4-5.2,11.2-2.2c0.7,0.7,0.3,1.5-0.5,1.4
				c-0.5-1.8-2.3-2.2-4.1-1.2c-2.2,1.2-4.7,4-6.4,6.9c-0.4,0.7-1.7,3-2,4.9c-0.5,3.4,2.2,3,4.4,0.3c1.7-2,3-4.4,4.3-6.7
				c1.1-2,1.7-3.2,3.3-3.1c0.6,0,1.3,0.3,2,0.2c-1,1-3.8,6.1-4.5,9c-0.4,2-0.1,2.9,0.5,2.9c2,0.1,5.2-6,6.2-8.1
				c0.4-0.9,1.2-0.6,0.7,0.4C307.5,508.9,304.6,514.6,301.7,514.9z"/>
			
				<pattern  id="SVGID_00000003067004590186306570000004972561180503388552_" xlink:href="#Nueva_muestra_de_motivo_2" patternTransform="matrix(1 0 0 -1 0 -17620.6992)">
			</pattern>
			<path style="fill:url(#SVGID_00000003067004590186306570000004972561180503388552_);" d="M310.9,505.5c-0.2,0.8-0.7,2-1,3.2
				c-1.4,5.8,2.4,6.6,5,3c1.6-2.3,2.9-4.9,3.6-6.1c0.4-0.8,1.2-0.7,0.7,0.2c-1.2,2.5-3.7,9-8.6,9c-5.4,0-3.1-6.6-2.3-9.5
				c1.5-5.4,4.5-12.3,7.3-17c3.4-5.7,8.6-5,5.1,2.6C318.6,496,315.7,501.2,310.9,505.5z M318.9,488.2c-2.4,3.3-6.1,11.9-7.6,15.8
				c3.4-3.5,6.9-9.1,8.7-13.6C321,488.2,321.5,484.5,318.9,488.2z"/>
			
				<pattern  id="SVGID_00000021116451785875660020000012713520517828937627_" xlink:href="#Nueva_muestra_de_motivo_2" patternTransform="matrix(1 0 0 -1 0 -17620.6992)">
			</pattern>
			<path style="fill:url(#SVGID_00000021116451785875660020000012713520517828937627_);" d="M327.8,514.4c-1.4,0-2.5-0.5-3.1-1.2
				c-1.3,1-2.8,1.7-4.2,1.6c-3.7-0.1-4.2-4.5-2.4-8.7c1.9-4.4,5.9-8.2,9.1-8.1c3.7,0,4.2,4.5,2.4,8.7c-0.7,1.7-2.2,3.9-4,5.7
				c0.4,0.7,1.1,1.2,2.3,1.2c3.1,0,5.6-6,6.7-8.3c0.2-0.5,1.1-0.3,0.7,0.4C334.5,507.6,331.8,514.4,327.8,514.4z M321.5,505.8
				c-1.9,3.9-2.3,7.3-0.6,7.8c0.9,0.2,2.1-0.2,3.3-1.2c-0.5-0.8-0.8-1.6-0.8-2.4c0-1.1,0.5-2.1,1.7-2.1c0.8,0,1.4,0.7,1.4,1.4
				c0,0.2,0,0.3-0.1,0.5c0.5-0.8,1.1-1.7,1.5-2.6c1.9-3.9,2.1-7.4,0.4-7.9C326.3,499,323.3,502,321.5,505.8z"/>
			
				<pattern  id="SVGID_00000093866965255719080150000012515822704054083971_" xlink:href="#Nueva_muestra_de_motivo_2" patternTransform="matrix(1 0 0 -1 0 -17620.6992)">
			</pattern>
			<path style="fill:url(#SVGID_00000093866965255719080150000012515822704054083971_);" d="M337.6,514.5c-0.7,0.3-1.3,0.5-2,0.5
				c-5.8,0-4.7-6.7-2.4-6.8c1.3-2.5,2.9-5.6,4.1-8.3c0.9-1.9,2.3-3.9,4-4.1c0.7-0.1,1.3,0,1.8,0.2c0.9,0.4,0.7,1.2-0.2,0.8
				c-0.5-0.2-1.1-0.3-1.5,0c-2.2,1.1-1.7,4.4-1,6.1c0.8,1.8,1.8,3.6,1.7,5.7c-0.1,1.9-1.5,4.1-3.4,5.3h0.3c1.6,0.2,3.1-0.8,4.3-2.2
				c1.1-1.3,2.6-4.3,3.6-6.3c0.2-0.5,1-0.2,0.7,0.3C345.9,509.7,343,516.1,337.6,514.5z M334.3,510.4c-1.5,1.5-0.9,3.8,1,3.8
				c0.3,0,0.7,0,1-0.2C335.2,513.3,334.4,512.2,334.3,510.4z M338.5,499.4c-1.3,2.6-3.4,6.8-4.5,8.9c0,0,1.1,0,1,1.5
				c-0.1,1.8,0.9,3.2,2,3.7c1.1-0.8,2-2.5,2.1-5C339.3,505.5,338.1,501.6,338.5,499.4z"/>
		</g>
	</g>
	<g>
		<g>
			
				<pattern  id="SVGID_00000121244050996346154640000002239713654161417652_" xlink:href="#SVGID_0000009965265926550141086" patternTransform="matrix(1.5513 0 0 -1.5513 8535.9941 -27184.5078)">
			</pattern>
			
				<pattern  id="SVGID_00000049211794076850374120000003056661625688817549_" xlink:href="#SVGID_0000006000790871776856997" patternTransform="matrix(1.2455 0 0 -1.2455 3634.8586 -21757.4961)">
			</pattern>
			
				<path style="fill:url(#SVGID_00000121244050996346154640000002239713654161417652_);stroke:url(#SVGID_00000049211794076850374120000003056661625688817549_);stroke-width:0.3043;stroke-miterlimit:10;" d="
				M214.8,615.9c-8.4,0-16.8,0-25.1,0c-2.8,0-3.7-0.9-3.7-3.7c0-9.3,0-18.6,0-27.9c0-1.2-0.2-1.9-1.5-2.2c-1.4-0.3-2.2-1.4-2.2-2.9
				c0-5.1,0-10.1,0-15.2c0-1.9,1.2-3,3.2-3c2.8-0.1,5.6,0,8.4-0.1c1.5,0,1.7-0.2,1-1.7c-1.7-3.5,0-8.8,5.3-8.8c5,0,8.8,2.3,12.1,5.8
				c0.6,0.7,1.2,1.4,1.7,2.1c0.8,1,1,1,1.7,0c2-2.6,4.3-5,7.3-6.5c2.1-1.1,4.3-1.6,6.6-1.6c4.8,0.1,7.5,4.5,5.5,8.9
				c-0.7,1.5-0.6,1.6,1,1.6c2.6,0,5.2,0,7.8,0s3.8,1.2,3.8,3.8c0,4.2,0,8.4,0,12.6c0,2.2-0.9,3.8-2.9,4.8c-0.9,0.5-0.9,1.1-0.9,2
				c0,9.4,0,18.8,0,28.2c0,0.7,0,1.5-0.3,2.1c-0.6,1.4-1.7,1.9-3.2,1.9c-7.2,0-14.4,0-21.6,0c-1.4,0-2.8,0-4.2,0
				C214.8,616.1,214.8,616,214.8,615.9z M215,591.8c0-0.1,0-0.1,0-0.2c-8.3,0-16.6,0-24.9,0c-1.6,0-1.8,0.2-1.8,1.8
				c0,1.8,0,3.6,0,5.3c0,1.8,0.2,2,2,2c7.7,0,15.5-0.1,23.2-0.1c8.8,0,17.5,0,26.3-0.1c1.4,0,1.6-0.1,1.6-1.6c0-1.8,0-3.6,0-5.3
				s-0.1-1.8-1.7-1.8C231.4,591.8,223.2,591.8,215,591.8z M233.6,563.6C233.6,563.5,233.6,563.5,233.6,563.6
				c-3.3-0.1-6.6-0.1-9.8-0.1c-1.7,0-1.8,0.1-1.8,1.8c0,3,0,5.9,0,8.9c0,2.1,0,2.1,2.1,2.1c5.3,0,10.7,0,16,0c0.5,0,1.4,0.5,1.5,0.7
				c0,0.9-0.8,0.8-1.5,0.9c-0.2,0-0.5,0-0.7,0c-5.2,0-10.4,0-15.5,0c-0.4,0-0.8-0.1-1.2,0.1c-0.3,0.1-0.6,0.6-0.6,0.9
				c0,0.3,0.3,0.7,0.6,0.9c0.2,0.2,0.6,0.1,0.9,0.1c6.3,0,12.6,0,18.8,0c1.9,0,2.8-0.9,2.8-2.9c0-3.9,0-7.8,0-11.7
				c0-1.4-0.2-1.6-1.6-1.6C240.2,563.6,236.9,563.6,233.6,563.6z M196.1,576.5C196.1,576.4,196.1,576.4,196.1,576.5
				c3.5-0.1,7-0.1,10.4-0.1c1,0,1.5-0.4,1.5-1.5c0-3.3,0-6.6,0-10c0-1.1-0.4-1.5-1.5-1.5c-6.8,0-13.7,0-20.5-0.1
				c-1,0-1.5,0.4-1.5,1.5c0,3.4,0,6.7,0,10.1c0,1.4,0.2,1.6,1.6,1.6C189.4,576.5,192.8,576.5,196.1,576.5z M231.6,613.5L231.6,613.5
				c2.8,0,5.6,0,8.4,0c0.9,0,1.4-0.4,1.4-1.3c0-2.6,0-5.2,0-7.8c0-0.7-0.3-1.2-1.1-1.2c-5.7,0-11.4,0-17.1,0c-0.9,0-1.3,0.4-1.3,1.3
				c0,1.1,0.1,2.2,0,3.3s0.4,1.5,1.5,1.5c3.9-0.1,7.8,0,11.7,0c0.7,0,1.4-0.1,2,0c0.4,0.1,0.7,0.5,1,0.8c-0.3,0.3-0.6,0.6-1,0.8
				c-0.3,0.1-0.6,0-0.9,0c-4.3,0-8.5,0-12.8,0c-0.9,0-1.5,0.2-1.5,1.3s0.4,1.5,1.5,1.4C226.1,613.5,228.8,613.5,231.6,613.5z
				 M219.3,571.7c0-2.3,0-4.5,0-6.8c0-1-0.4-1.4-1.4-1.4c-2,0-4,0-6,0c-0.9,0-1.3,0.4-1.3,1.3c0,4.6,0,9.2,0,13.9
				c0,0.9,0.4,1.3,1.3,1.3c2,0,4-0.1,6,0c1,0,1.4-0.4,1.4-1.4C219.3,576.2,219.3,573.9,219.3,571.7z M198.2,582.4L198.2,582.4
				c-2.8,0-5.7,0-8.5-0.1c-0.9,0-1.4,0.3-1.4,1.3c0,1.5,0,2.9,0,4.4c0,0.8,0.4,1.2,1.2,1.2c5.7,0,11.5,0,17.2-0.1
				c0.9,0,1.3-0.4,1.3-1.3c0-1.3,0-2.7,0-4c0-1.1-0.4-1.5-1.5-1.5C203.8,582.4,201,582.4,198.2,582.4z M231.6,589.1L231.6,589.1
				c2.8,0,5.6,0,8.4,0c1,0,1.4-0.3,1.3-1.3c0-1.4,0-2.8,0-4.1c0-0.8-0.3-1.2-1.1-1.2c-5.7,0-11.4,0-17.1,0c-0.8,0-1.2,0.4-1.2,1.2
				c0,1.2,0,2.5,0,3.7c0,1.7,0.1,1.8,1.7,1.8C226.3,589.1,228.9,589.1,231.6,589.1z M198.1,609.4L198.1,609.4c2.8,0,5.7,0,8.5,0
				c0.9,0,1.4-0.4,1.4-1.3c0-1.3,0-2.5,0-3.8c0-0.8-0.3-1.3-1.2-1.3c-5.8,0-11.6,0-17.4,0c-0.8,0-1.2,0.4-1.2,1.2c0,1.2,0,2.4,0,3.7
				c0,1.4,0.2,1.6,1.6,1.6C192.6,609.4,195.4,609.4,198.1,609.4z M210.5,608.3L210.5,608.3c0,1.3,0,2.6,0,3.9c0,1,0.4,1.5,1.4,1.5
				c2-0.1,4.1-0.1,6.2-0.1c0.8,0,1.2-0.4,1.2-1.2c0-2.6,0-5.3,0-7.9c0-1-0.5-1.3-1.4-1.3c-2,0-4,0-6,0c-1,0-1.4,0.4-1.4,1.3
				C210.5,605.7,210.5,607,210.5,608.3z M206.1,560.9L206.1,560.9c1.6,0,3.2,0,4.7,0c0.4,0,0.7-0.2,1-0.4c-0.1-0.3-0.2-0.7-0.4-0.9
				c-0.8-0.9-1.5-1.8-2.4-2.6c-2.3-2.2-5-3.8-8.2-4.1c-1.9-0.2-3.3,0.5-4,1.9c-0.7,1.5-0.5,3.4,0.9,4.5c0.9,0.7,2.1,1.3,3.2,1.5
				C202.7,561.1,204.4,560.9,206.1,560.9z M223.6,560.9C223.6,560.8,223.6,560.8,223.6,560.9c1.6,0,3.2,0,4.9,0c0.2,0,0.4,0,0.6-0.1
				c2.5-0.4,4.4-2.6,4.1-4.8c-0.3-2-1.9-3.1-4.3-2.9c-4.7,0.4-7.9,3.3-10.7,6.7c-0.6,0.7-0.1,1.1,0.6,1.1
				C220.4,560.9,222,560.9,223.6,560.9z M198.1,610.6L198.1,610.6c-2.8,0-5.5,0-8.3,0c-1.1,0-1.6,0.3-1.6,1.5
				c0.1,1.3,0.3,1.6,1.6,1.6c5.5,0,11.1,0,16.6,0c1.4,0,1.7-0.3,1.7-1.5c0-1.3-0.3-1.6-1.6-1.6C203.7,610.6,200.9,610.6,198.1,610.6
				z M214.7,589.1L214.7,589.1c1.1,0,2.3,0,3.4,0c0.7,0,1.1-0.3,1.1-1.1c0-1.5,0-3,0-4.5c0-0.7-0.4-1.1-1.1-1.1c-2.2,0-4.3,0-6.5,0
				c-0.8,0-1.1,0.4-1.1,1.2c0,1.5,0,2.9,0,4.4c0,0.9,0.4,1.2,1.2,1.2C212.8,589.1,213.8,589.1,214.7,589.1z M196.3,580L196.3,580
				c0.6-0.1,1.3-0.1,1.9-0.1c2.8,0,5.6,0,8.4,0c0.7,0,1.3-0.1,1.3-1s-0.6-1.1-1.3-1.1c-0.1,0-0.2,0-0.4,0c-6.7,0-13.4-0.1-20.2-0.1
				c-0.8,0-1.6,0-1.6,1.1s0.7,1.3,1.6,1.3C189.5,580,192.9,580,196.3,580z"/>
		</g>
	</g>
</g>
</svg>
