<?xml version="1.0" encoding="utf-8"?>
<!-- Generator: Adobe Illustrator 28.0.0, SVG Export Plug-In . SVG Version: 6.00 Build 0)  -->
<svg version="1.1" id="Capa_1" xmlns="http://www.w3.org/2000/svg" xmlns:xlink="http://www.w3.org/1999/xlink" x="0px" y="0px"
	 viewBox="0 0 430 734" style="enable-background:new 0 0 430 734;" xml:space="preserve">
<style type="text/css">
	.st0{fill:none;}
	.st1{fill:url(#XMLID_00000129167656591561696350000016738364830414419329_);}
	.st2{fill:url(#SVGID_1_);}
	.st3{fill:url(#SVGID_00000020380166410929550600000010685391063858354588_);}
	.st4{fill:url(#SVGID_00000152248918550407231830000017250889545088308669_);}
	.st5{fill:url(#SVGID_00000062170007309918097800000010589622987352640649_);}
	.st6{fill:url(#SVGID_00000047029190009218343820000013991323974568452020_);}
	.st7{fill:url(#SVGID_00000160174862675794112730000001086055860429543856_);}
	.st8{fill:url(#SVGID_00000003823477388065485390000003662854848623368325_);}
	.st9{fill:url(#SVGID_00000070083614493343412210000002856142175767496326_);}
	.st10{fill:url(#SVGID_00000150786161316050811280000009093777819190237847_);}
	.st11{fill:url(#SVGID_00000013169983356807708730000017025609553922518682_);}
	.st12{fill:#FFFFFF;}
	.st13{enable-background:new    ;}
	.st14{fill:url(#SVGID_00000102506821937978745230000012463590931604400058_);}
	.st15{fill:url(#SVGID_00000181784724705690558140000003485273609169533625_);}
	.st16{fill:url(#SVGID_00000119102216271585053700000012964607085443660425_);}
	.st17{fill:url(#SVGID_00000078014998647191677330000010645355945771510426_);}
	.st18{fill:url(#SVGID_00000177464704927142154180000002707543746449632686_);}
	.st19{fill:url(#SVGID_00000109719845855717979750000016510073453967162259_);}
	.st20{fill:url(#SVGID_00000126300100232774965160000006874599824056118707_);}
	.st21{fill:url(#SVGID_00000062879061655255334270000013068406459071606433_);}
	.st22{fill:url(#SVGID_00000166668582664002151840000010098009615458804354_);}
	.st23{fill:#504322;}
	.st24{fill:none;stroke:#504322;stroke-width:0.3278;stroke-miterlimit:10;}
</style>
<pattern  y="734" width="286.7" height="240.9" patternUnits="userSpaceOnUse" id="Nueva_muestra_de_motivo_2" viewBox="0 -240.9 286.7 240.9" style="overflow:visible;">
	<g>
		<rect y="-240.9" class="st0" width="286.7" height="240.9"/>
		<g>
			<rect y="-240.9" class="st0" width="286.7" height="240.9"/>
			
				<linearGradient id="XMLID_00000045595498555670921660000004555350214351725707_" gradientUnits="userSpaceOnUse" x1="17191.3887" y1="-341.0063" x2="17432.2891" y2="-341.0063" gradientTransform="matrix(4.489700e-11 1 -1 4.489700e-11 -197.6563 -17432.2891)">
				<stop  offset="0" style="stop-color:#DCC173"/>
				<stop  offset="0.2398" style="stop-color:#AB8136"/>
				<stop  offset="0.5153" style="stop-color:#73582B"/>
				<stop  offset="0.8571" style="stop-color:#DCC173"/>
			</linearGradient>
			
				<polygon id="XMLID_00000141428639271344674360000007400485914624590465_" style="fill:url(#XMLID_00000045595498555670921660000004555350214351725707_);" points="
				286.7,0 286.7,-240.9 0,-240.9 0,0 			"/>
		</g>
	</g>
</pattern>
<pattern  y="734" width="276" height="169" patternUnits="userSpaceOnUse" id="SVGID_0000000452588870462000611" viewBox="0 -169 276 169" style="overflow:visible;">
	<g>
		<rect y="-169" class="st0" width="276" height="169"/>
		<g>
			<rect y="-169" class="st0" width="276" height="169"/>
			
				<linearGradient id="SVGID_1_" gradientUnits="userSpaceOnUse" x1="545" y1="-16640" x2="821" y2="-16640" gradientTransform="matrix(1 0 0 1 -545 16555.5)">
				<stop  offset="0" style="stop-color:#DCC173"/>
				<stop  offset="0.2398" style="stop-color:#AB8136"/>
				<stop  offset="0.5153" style="stop-color:#73582B"/>
				<stop  offset="0.8571" style="stop-color:#DCC173"/>
			</linearGradient>
			<rect y="-169" class="st2" width="276" height="169"/>
		</g>
	</g>
</pattern>
<pattern  y="734" width="276" height="169" patternUnits="userSpaceOnUse" id="SVGID_0000007152795388988792685" viewBox="0 -169 276 169" style="overflow:visible;">
	<g>
		<rect y="-169" class="st0" width="276" height="169"/>
		<g>
			<rect y="-169" class="st0" width="276" height="169"/>
			
				<linearGradient id="SVGID_00000093857695954769016960000011978553073443542196_" gradientUnits="userSpaceOnUse" x1="545" y1="-16640" x2="821" y2="-16640" gradientTransform="matrix(1 0 0 1 -545 16555.5)">
				<stop  offset="0" style="stop-color:#DCC173"/>
				<stop  offset="0.2398" style="stop-color:#AB8136"/>
				<stop  offset="0.5153" style="stop-color:#73582B"/>
				<stop  offset="0.8571" style="stop-color:#DCC173"/>
			</linearGradient>
			<rect y="-169" style="fill:url(#SVGID_00000093857695954769016960000011978553073443542196_);" width="276" height="169"/>
		</g>
	</g>
</pattern>
<pattern  y="734" width="276" height="169" patternUnits="userSpaceOnUse" id="SVGID_0000010182405627816630117" viewBox="0 -169 276 169" style="overflow:visible;">
	<g>
		<rect y="-169" class="st0" width="276" height="169"/>
		<g>
			<rect y="-169" class="st0" width="276" height="169"/>
			
				<linearGradient id="SVGID_00000143583774572071224850000003895881736640441255_" gradientUnits="userSpaceOnUse" x1="545" y1="-16640" x2="821" y2="-16640" gradientTransform="matrix(1 0 0 1 -545 16555.5)">
				<stop  offset="0" style="stop-color:#DCC173"/>
				<stop  offset="0.2398" style="stop-color:#AB8136"/>
				<stop  offset="0.5153" style="stop-color:#73582B"/>
				<stop  offset="0.8571" style="stop-color:#DCC173"/>
			</linearGradient>
			<rect y="-169" style="fill:url(#SVGID_00000143583774572071224850000003895881736640441255_);" width="276" height="169"/>
		</g>
	</g>
</pattern>
<pattern  y="734" width="276" height="169" patternUnits="userSpaceOnUse" id="SVGID_0000013854004148852496177" viewBox="0 -169 276 169" style="overflow:visible;">
	<g>
		<rect y="-169" class="st0" width="276" height="169"/>
		<g>
			<rect y="-169" class="st0" width="276" height="169"/>
			
				<linearGradient id="SVGID_00000011726909173043758790000010847596517489902235_" gradientUnits="userSpaceOnUse" x1="545" y1="-16640" x2="821" y2="-16640" gradientTransform="matrix(1 0 0 1 -545 16555.5)">
				<stop  offset="0" style="stop-color:#DCC173"/>
				<stop  offset="0.2398" style="stop-color:#AB8136"/>
				<stop  offset="0.5153" style="stop-color:#73582B"/>
				<stop  offset="0.8571" style="stop-color:#DCC173"/>
			</linearGradient>
			<rect y="-169" style="fill:url(#SVGID_00000011726909173043758790000010847596517489902235_);" width="276" height="169"/>
		</g>
	</g>
</pattern>
<pattern  y="734" width="276" height="169" patternUnits="userSpaceOnUse" id="SVGID_0000016738506804309854825" viewBox="0 -169 276 169" style="overflow:visible;">
	<g>
		<rect y="-169" class="st0" width="276" height="169"/>
		<g>
			<rect y="-169" class="st0" width="276" height="169"/>
			
				<linearGradient id="SVGID_00000080182685333873200470000010874730934516604833_" gradientUnits="userSpaceOnUse" x1="545" y1="-16640" x2="821" y2="-16640" gradientTransform="matrix(1 0 0 1 -545 16555.5)">
				<stop  offset="0" style="stop-color:#DCC173"/>
				<stop  offset="0.2398" style="stop-color:#AB8136"/>
				<stop  offset="0.5153" style="stop-color:#73582B"/>
				<stop  offset="0.8571" style="stop-color:#DCC173"/>
			</linearGradient>
			<rect y="-169" style="fill:url(#SVGID_00000080182685333873200470000010874730934516604833_);" width="276" height="169"/>
		</g>
	</g>
</pattern>
<g>
	<g>
		<g>
			
				<pattern  id="SVGID_00000108992739008342099900000002034705072471839414_" xlink:href="#SVGID_0000010182405627816630117" patternTransform="matrix(0.8767 0 0 -0.8767 -2063.9878 -15409.2246)">
			</pattern>
			<path style="fill:url(#SVGID_00000108992739008342099900000002034705072471839414_);" d="M168,501.7c0.9-1.8,2.5-1.5,4-1.3
				c0.8,0.1,1.6,0.3,2.5,0.3c1.5,0,2.2-0.4,2.7-1.8c1.2-3.2,2.2-6.4,3.1-9.7c1.5-5.3,2.9-10.6,4-15.9c0.5-2.5,0.3-5,0-7.5
				c-0.5-4.8-1.6-9.4-1.7-14.2c-0.1-5.2,0.9-10.2,2.1-15.3c1.1-4.9,2.8-9.7,4.1-14.6c0.2-0.6,0.5-0.7,1.1-0.5
				c6.2,1.7,12.3,3.3,18.5,4.9c0.4,0.1,0.8,0.1,0.6,0.8c-1.5,6.3-3,12.6-5,18.8c-2.2,7-5.9,13-10.7,18.6c-1.4,1.6-2.6,3.4-3.9,5.2
				c-1.9,2.5-2.7,5.5-3.6,8.4c-1.9,6.3-3.6,12.6-5,19.1c-0.2,1-0.4,2-0.5,3c-0.2,1.6,0.2,2.2,1.6,2.9c1.1,0.5,2.3,1,3.4,1.5
				c0.8,0.4,1.4,0.9,1.5,1.9c0,0.7-0.2,1-0.9,0.8c-5.5-1.5-11.1-3-16.6-4.5c-0.4-0.1-0.8-0.3-1.3-0.2C168,501.9,168,501.8,168,501.7
				z"/>
			
				<pattern  id="SVGID_00000132073405380532288500000001112836608307038637_" xlink:href="#SVGID_0000000452588870462000611" patternTransform="matrix(0.8767 0 0 -0.8767 -2063.9878 -15409.2246)">
			</pattern>
			<path style="fill:url(#SVGID_00000132073405380532288500000001112836608307038637_);" d="M236.7,450.3c0.1,4.3-0.6,8.3-1.3,12.3
				c-0.8,5.1-0.8,10.1,0.6,15.1c1.9,7,3.5,14,6,20.8c0.7,2,1.6,2.4,3.7,2.1c1.2-0.2,2.4-0.4,3.6-0.3c0.5,0,0.9,0.1,1.3,0.4
				c0.4,0.3,0.7,0.7,0.6,1.2c-0.1,0.4-0.6,0.3-0.9,0.4c-5.6,1.5-11.2,3-16.7,4.5c-0.9,0.2-1.2,0-1-1c0.2-0.9,0.9-1.3,1.6-1.7
				c1-0.5,2-0.8,3-1.3c1.7-0.8,2.1-1.6,1.8-3.4c-1.7-9-4.1-17.9-7-26.6c-0.6-1.6-1.6-3-2.5-4.4c-2.7-3.7-5.7-7.2-8.4-11
				c-3.1-4.5-4.9-9.7-6.5-14.8c-1.7-5.2-2.7-10.6-4.1-15.9c-0.2-0.7,0.3-0.7,0.7-0.8c3.5-1,7-1.9,10.6-2.8c2.6-0.7,5.2-1.4,7.8-2.1
				c0.6-0.2,0.9-0.1,1.1,0.6c2,6.5,4.1,13.1,5.3,19.8C236.4,444.4,236.9,447.5,236.7,450.3z"/>
			
				<pattern  id="SVGID_00000057124512043513063190000001520414946956993454_" xlink:href="#SVGID_0000016738506804309854825" patternTransform="matrix(0.8767 0 0 -0.8767 -2063.9878 -15409.2246)">
			</pattern>
			<path style="fill:url(#SVGID_00000057124512043513063190000001520414946956993454_);" d="M210.4,418.3c0,1.7,0,3.3,0,5
				c0,0.5,0,1-0.6,1c-0.7,0-0.8-0.5-0.8-1c0-3.4,0-6.8,0-10.2c0-0.5,0.1-1,0.7-1c0.7,0,0.7,0.4,0.7,1
				C210.4,414.8,210.4,416.5,210.4,418.3z"/>
			
				<pattern  id="SVGID_00000134214925921661189610000016639347989560993415_" xlink:href="#SVGID_0000007152795388988792685" patternTransform="matrix(0.8767 0 0 -0.8767 -2063.9878 -15409.2246)">
			</pattern>
			<path style="fill:url(#SVGID_00000134214925921661189610000016639347989560993415_);" d="M212.4,424.3c-0.6,0-0.8-0.6-0.4-1.4
				c1-1.9,2.1-3.7,3.1-5.6c0.2-0.3,0.4-0.6,0.5-1c0.3-0.5,0.6-1,1.2-0.6c0.6,0.3,0.3,0.9,0.1,1.3c-0.9,1.6-1.8,3.2-2.7,4.8
				c-0.3,0.6-0.7,1.2-1,1.8C213,424,212.8,424.3,212.4,424.3z"/>
			
				<pattern  id="SVGID_00000063629749476726643960000016687922453009673114_" xlink:href="#SVGID_0000013854004148852496177" patternTransform="matrix(0.8767 0 0 -0.8767 -2063.9878 -15409.2246)">
			</pattern>
			<path style="fill:url(#SVGID_00000063629749476726643960000016687922453009673114_);" d="M207.6,423.6c0,0.3-0.1,0.6-0.5,0.7
				s-0.7-0.1-0.9-0.4c-0.4-0.7-0.8-1.4-1.2-2.1c-0.9-1.6-1.7-3.1-2.6-4.7c-0.3-0.5-0.4-1,0.1-1.3s0.9,0.1,1.2,0.6
				c1.2,2.1,2.4,4.3,3.6,6.4C207.4,423,207.6,423.3,207.6,423.6z"/>
		</g>
		<path class="st12" d="M188.4,464.7c-1.2-0.3-1.5-1.1-1.8-1.9c-0.5-1.6-0.7-3.2-0.9-4.9c-0.4-3.1-0.8-6.1-0.6-9.2
			c0.4-5.2,1.4-10.2,2.8-15.2c0.9-3.2,1.9-6.4,2.8-9.6c0.2-0.6,0.4-0.8,1-0.6c4.5,1.2,9,2.4,13.5,3.6c0.9,0.2,1.1,0.5,0.8,1.4
			c-0.8,2.9-1.4,5.8-2.1,8.7c-0.2,0.7-0.5,1-1.3,1c-4.5,0-9,0-13.5,0c-0.6,0-0.9,0.1-1.1,0.8c-0.8,3.8-1.5,7.6-1.6,11.5
			c-0.1,3.4,0.4,6.8,1,10.1C187.7,461.9,188,463.2,188.4,464.7z"/>
		<path class="st12" d="M225,437.5c-2.2,0-4.5,0-6.7,0c-0.6,0-0.9,0.2-0.7,0.8c1.6,5.3,3.2,10.6,6,15.5c2.1,3.6,4.8,6.8,7.7,9.9
			c0.2,0.2,0.6,0.3,0.4,0.6c-0.2,0.3-0.6,0.3-0.9,0.3c-0.8-0.2-1.5-0.7-2.1-1.3c-3.9-4.5-7.4-9.2-9.6-14.8
			c-2.6-6.7-4.3-13.5-5.9-20.5c-0.1-0.6,0-0.8,0.6-0.9c4.5-1.2,9-2.4,13.5-3.7c0.9-0.2,1.2,0.1,1.4,0.8c1.1,4.1,2.4,8.1,3.4,12.3
			c0.2,0.8,0.1,1.1-0.8,1.1C229.3,437.5,227.1,437.5,225,437.5z"/>
	</g>
	<g>
		<g class="st13">
			
				<pattern  id="SVGID_00000086676142969527423210000015796564389487086522_" xlink:href="#Nueva_muestra_de_motivo_2" patternTransform="matrix(1 0 0 -1 123.4425 -17855.9648)"  class="st13">
			</pattern>
			<path style="fill:url(#SVGID_00000086676142969527423210000015796564389487086522_);" d="M179.4,234.8c-3.5,3.8-8.3,3.8-11.9-0.1
				c-5.1-5.3-7.5-16.3-8.2-20c-2.7,5.3-5.3,10.5-9.9,15.6c-5,5.3-11.2,7.8-17.7,7c-11.9-1.4-8-14.7,5.1-10.2c1,0.4,0.6,1-0.3,0.7
				c-9-3.4-11.1,7.6-3.3,8c10,0.5,16.2-9.8,22.2-20.4c4.6-8,8.7-16.3,13.3-21.4c-6.4-0.6-13.3-0.3-20.9,1.3c-9.6,2-15,7.4-16,12.3
				c-1.6,7.6,7.3,10.2,12.2,5.1c1.4-1.5,2.1-2.9,2.1-3.7c0.1-1.3,0.8-0.5,0.7,0.1c-0.3,1.8-1.1,3.4-2.2,4.6
				c-5.7,6-16.5,3.4-15.7-6.1c0.6-6,7.1-12.8,19.6-14.6c7.8-1.1,14.9-1.2,21.4-0.3c2.4-2.6,2.6-1.5,2.1,0.3c2,0.3,3.9,0.6,5.6,1.1
				c15.3,4.4,8.3,16.7-9.5,19.6c-2.2,0.3-3.9,0.5-5.2,0.5c0.3,1.6,2,10.4,6.2,16.8c2.8,4.3,5.6,6.3,9.7,2.3c2.7-2.7,4.8-7.1,5.4-8.4
				c0.5-1,1.5-1.2,1,0C184.4,226.4,181.8,232.1,179.4,234.8z M171.3,194.3c-3.5,6.2-7.5,11.8-10.8,18.3c2.2-0.4,4.4-0.4,7.1-0.7
				c11.6-1.5,20.3-13.2,9.2-16.5C175.1,194.9,173.3,194.6,171.3,194.3z"/>
			
				<pattern  id="SVGID_00000112591687926234387010000012114399915092794514_" xlink:href="#Nueva_muestra_de_motivo_2" patternTransform="matrix(1 0 0 -1 123.4425 -17855.9648)"  class="st13">
			</pattern>
			<path style="fill:url(#SVGID_00000112591687926234387010000012114399915092794514_);" d="M188.2,235.5c-2.8,0-5.3-1.9-5.4-5.4
				c-0.1-3.4,1.9-7.6,4.3-10.5c2.9-3.4,7.1-5.5,9.6-3.7c2.1,1.6,0.5,5.5-3.1,8.2c-1.7,1.3-5.4,2.5-6.9,2.5c-0.8,2-1.8,7.7,1.9,7.7
				c5,0,8-6.6,9.3-9.6c0.4-1,1.6-1.1,1,0.1C196.9,229.2,194.4,235.5,188.2,235.5z M190.5,220.4c-1.5,1.8-2.9,4.3-3.4,5.3
				c1,0,3.9-0.8,6-2.5C197.7,219.3,197.4,212,190.5,220.4z"/>
			
				<pattern  id="SVGID_00000173840616209494433270000001273051203302973083_" xlink:href="#Nueva_muestra_de_motivo_2" patternTransform="matrix(1 0 0 -1 123.4425 -17855.9648)"  class="st13">
			</pattern>
			<path style="fill:url(#SVGID_00000173840616209494433270000001273051203302973083_);" d="M202.7,235.5c-8.9,0-6-10.1-1.9-15.6
				c2.1-2.8,4.8-4.4,7.5-4.4c2.8,0,4.2,1.6,3.9,3.9c-0.2,1.9-2.5,4.2-3.8,3c0.6-0.7,1.5-1.9,1.7-2.9c0.5-2-0.1-2.8-1.1-2.8
				c-2,0-4.4,2.6-6,4.8c-1,1.5-3.1,5.3-3.1,8.6c0,2.2,0.9,4.3,3.3,4.3c4.9,0,7.6-5.5,9.8-9.9c0.5-1,1.3-0.7,0.8,0.4
				C211.1,230.8,208.9,235.5,202.7,235.5z"/>
			
				<pattern  id="SVGID_00000174577734047266465680000016233205500167673758_" xlink:href="#Nueva_muestra_de_motivo_2" patternTransform="matrix(1 0 0 -1 123.4425 -17855.9648)"  class="st13">
			</pattern>
			<path style="fill:url(#SVGID_00000174577734047266465680000016233205500167673758_);" d="M216.7,235.5c-2.8,0-5.3-1.9-5.4-5.4
				c-0.1-3.4,1.9-7.6,4.3-10.5c2.9-3.4,7.1-5.5,9.6-3.7c2.1,1.6,0.5,5.5-3.1,8.2c-1.7,1.3-5.4,2.5-6.9,2.5c-0.8,2-1.8,7.7,1.9,7.7
				c5,0,8-6.6,9.3-9.6c0.4-1,1.6-1.1,1,0.1C225.3,229.2,222.9,235.5,216.7,235.5z M219,220.4c-1.5,1.8-2.9,4.3-3.4,5.3
				c1,0,3.9-0.8,6-2.5C226.2,219.3,225.9,212,219,220.4z"/>
			
				<pattern  id="SVGID_00000013186134900858727320000013597703416037795211_" xlink:href="#Nueva_muestra_de_motivo_2" patternTransform="matrix(1 0 0 -1 123.4425 -17855.9648)"  class="st13">
			</pattern>
			<path style="fill:url(#SVGID_00000013186134900858727320000013597703416037795211_);" d="M238.7,231c-3.1,3.7-8,5.6-12,3.3
				l-5.3,13.3c-1.1,2.4-1.9,3-3.8,2.9c-0.7-0.1-1.6-0.4-2.4-0.3c1.4-1.4,11-19.6,12-24.8c-0.6,1-1.7,1.3-1.3,0.5
				c0.3-0.6,0.8-1.9,1.1-2.5c1.1-2.5,1.7-6.8,0.3-7c0,0,2.3-0.4,2.8-0.5c1.6-0.2,2.1-0.5,2,2.3c-0.1,1.9-0.8,4.8-1.6,6.8
				c1.7-2.8,6.2-10.5,10.1-9.5C246,217,242.8,226,238.7,231z M234.7,220.6c-2.1,2.9-4.9,7.8-7.5,12.8c2.8,2.8,8.9-3.5,12-9.1
				C242.8,217.4,239.4,213.9,234.7,220.6z"/>
			
				<pattern  id="SVGID_00000079460606494662292090000014021703463453487262_" xlink:href="#Nueva_muestra_de_motivo_2" patternTransform="matrix(1 0 0 -1 123.4425 -17855.9648)"  class="st13">
			</pattern>
			<path style="fill:url(#SVGID_00000079460606494662292090000014021703463453487262_);" d="M250.1,235.5c-8.9,0-6-10.1-1.9-15.6
				c2.1-2.8,4.8-4.4,7.5-4.4c2.8,0,4.2,1.6,3.9,3.9c-0.2,1.9-2.5,4.2-3.8,3c0.6-0.7,1.5-1.9,1.7-2.9c0.5-2-0.1-2.8-1.1-2.8
				c-2,0-4.4,2.6-6,4.8c-1,1.5-3.1,5.3-3.1,8.6c0,2.2,0.9,4.3,3.3,4.3c4.9,0,7.6-5.5,9.8-9.9c0.5-1,1.3-0.7,0.8,0.4
				C258.5,230.8,256.3,235.5,250.1,235.5z"/>
			
				<pattern  id="SVGID_00000118369283687121775830000003785898761687179431_" xlink:href="#Nueva_muestra_de_motivo_2" patternTransform="matrix(1 0 0 -1 123.4425 -17855.9648)"  class="st13">
			</pattern>
			<path style="fill:url(#SVGID_00000118369283687121775830000003785898761687179431_);" d="M262,234c0.8,0.1,1.9-0.5,2.5-1.1
				c1.9-1.9,3.7-5.3,5.3-8.5c0.5-1,1.2-0.6,0.7,0.5c-1.5,3.2-4.7,10.3-8.8,10.3c-4.2,0-4.2-4.4-3-7.3l3.6-9.2
				c0.5-1.1-0.3-2.1-0.6-2.4l3.1-0.1c1.8,0,1.8,0.6,1.2,2l-4.5,10.5c0,0-0.6,1.2-0.7,1.6C260.3,232.3,260.4,233.9,262,234z
				 M266.1,214.1c-1.3,0-2.1-1-2-2.3c0.2-1.3,1.5-2.3,2.7-2.3c1.3,0,2.2,1,2,2.3C268.5,213,267.3,214.1,266.1,214.1z"/>
			
				<pattern  id="SVGID_00000040577138530057481580000006366321965060990399_" xlink:href="#Nueva_muestra_de_motivo_2" patternTransform="matrix(1 0 0 -1 123.4425 -17855.9648)"  class="st13">
			</pattern>
			<path style="fill:url(#SVGID_00000040577138530057481580000006366321965060990399_);" d="M280.8,234.8c-1.7,0-2.9-0.6-3.6-1.5
				c-1.6,1.2-3.3,2-4.9,1.9c-4.3-0.1-4.9-5.2-2.8-10.2c2.2-5.2,6.9-9.6,10.7-9.5c4.3,0.1,4.9,5.2,2.8,10.2c-0.8,2-2.6,4.6-4.7,6.6
				c0.5,0.8,1.3,1.4,2.6,1.4c3.6,0,6.5-7,7.9-9.7c0.3-0.6,1.2-0.3,0.8,0.5C288.7,226.8,285.5,234.8,280.8,234.8z M273.4,224.8
				c-2.2,4.6-2.7,8.6-0.7,9.2c1.1,0.3,2.5-0.3,3.8-1.4c-0.6-0.9-0.9-1.9-0.9-2.8c0.1-1.3,0.6-2.4,2-2.4c1,0,1.7,0.8,1.7,1.7
				c0,0.2-0.1,0.4-0.1,0.6c0.6-0.9,1.2-2,1.7-3c2.2-4.6,2.5-8.6,0.4-9.2C279,216.8,275.5,220.4,273.4,224.8z M281,211.7
				c-0.3-0.2-0.3-0.5-0.2-0.7c0.2-0.5,6-4.4,6.9-5.1c0.9-0.7,2.1-1.2,3.3-0.7c0.6,0.3,0.8,1,0.5,1.5
				C291.1,207.7,281.4,211.9,281,211.7z"/>
			
				<pattern  id="SVGID_00000145052857549352506800000001376376246846172822_" xlink:href="#Nueva_muestra_de_motivo_2" patternTransform="matrix(1 0 0 -1 123.4425 -17855.9648)"  class="st13">
			</pattern>
			<path style="fill:url(#SVGID_00000145052857549352506800000001376376246846172822_);" d="M299.1,235.5c-2,0-4.7-1.3-3-6.6
				c0.5-1.5,1.5-3.4,3.1-5.9c1.4-2.2,0.3-3.7-4,0.3c-1.9,1.7-4.7,4.9-7.8,11.1c-0.5,0.8-1,0.8-2.1,0.8c-0.8,0.1-1.3,0-1.9,0.3
				c2.7-5.3,5-10.7,7.8-15.8c1.5-2.7,2.2-3.7,4-3.5c0.7,0.1,1.6,0.4,2.4,0.2c-1.7,0.9-4.8,6.5-6.8,10.6c1.1-1.4,2.9-3.5,4.7-5.1
				c2.7-2.4,8.5-6,10.4-5.3c0,0-6,10.6-6.8,14.5c-0.5,2.3,0.2,2.8,0.9,2.8c2.9,0,6.5-7.4,7.7-9.7c0.5-1,1.4-0.6,0.8,0.5
				C306.7,228.3,303.4,235.5,299.1,235.5z"/>
		</g>
	</g>
	<g>
		<g class="st13">
			<path class="st23" d="M89.2,290.4c-3.3,0-5.7-0.9-7.3-2.8c-0.6-0.7-1-1.5-1.4-2.6s-0.5-2.4-0.5-4s0.3-3,0.8-4.2
				c0.5-1.2,1.2-2.2,2.1-2.9c1.7-1.3,3.8-1.9,6.3-1.9c0.7,0,1.4,0.1,2,0.2c0.7,0.1,1.2,0.2,1.5,0.4l0.5,0.2l-0.1,0.3
				c-1.2-0.5-2.5-0.7-3.9-0.7c-1.9,0-3.4,0.6-4.6,1.8c-0.9,0.9-1.6,2.2-2,3.9c-0.2,1-0.3,2.2-0.3,3.6s0.2,2.7,0.6,3.9
				c0.4,1.2,0.9,2.1,1.4,2.7c0.5,0.6,1.1,1,1.9,1.4s1.3,0.5,1.8,0.6c0.4,0.1,1,0.1,1.6,0.1c0.6,0,1.3-0.1,2.1-0.2s1.4-0.2,1.8-0.3
				l0.6-0.2l0.1,0.3C92.6,290.2,91,290.4,89.2,290.4z"/>
			<path class="st23" d="M97.2,283.9c0,2.2,0.4,3.8,1.1,4.8c0.8,1,1.8,1.5,3,1.5c1.7,0,3.3-0.3,4.7-0.8l0.1,0.2
				c-1.4,0.5-3,0.8-4.7,0.8s-3.2-0.5-4.3-1.6c-1.1-1-1.7-2.7-1.7-4.9s0.6-3.9,1.7-5.1c1.2-1.2,2.6-1.8,4.4-1.8
				c1.4,0,2.6,0.4,3.6,1.3c1,0.9,1.5,2.1,1.5,3.8c0,0.1,0,0.2,0,0.3h-9.4C97.2,282.9,97.2,283.4,97.2,283.9z M103.9,278.5
				c-0.6-0.8-1.4-1.2-2.4-1.2s-1.9,0.4-2.7,1.3c-0.8,0.9-1.3,2.1-1.5,3.6h7.6C104.8,280.6,104.5,279.3,103.9,278.5z"/>
			<path class="st23" d="M118.6,290.3c-0.7,0-1.3-0.2-1.6-0.5c-0.4-0.3-0.6-0.6-0.6-0.9l0-0.4v-8.2c0-1.4-0.4-2.3-1.1-2.6
				c-0.4-0.2-0.8-0.3-1.4-0.3c-1.1,0-2.1,0.4-3,1.3s-1.3,1.7-1.3,2.4v9.3h-1.8v-13.1h1.8v3c0.3-0.8,0.8-1.5,1.7-2.1
				c0.8-0.7,1.7-1,2.6-1c1,0,1.7,0.1,2.3,0.3s1,0.4,1.3,0.8c0.4,0.5,0.7,1.2,0.7,2.1v8.2c0,0.5,0.1,0.9,0.3,1.2
				c0.2,0.3,0.4,0.4,0.6,0.4l0.3,0.1h0.8v0.2H118.6z"/>
			<path class="st23" d="M121.4,277.4v-0.2h0.6v-2.6h1.8v2.6h4v0.2h-4v9.5c0,1.1,0.1,2,0.4,2.5s0.8,0.8,1.6,0.8s1.6-0.2,2.5-0.5
				l0.1,0.2c-0.9,0.3-1.9,0.5-3,0.5s-2-0.2-2.5-0.7c-0.6-0.5-0.8-1.4-0.8-2.8v-9.5H121.4z"/>
			<path class="st23" d="M134.5,278.3v-0.6c-0.8,0.3-1.5,0.9-2.1,1.9c-0.6,1-1,1.8-1,2.7v7.9h-1.8v-13.1h1.8v4.2
				c0.3-1,0.8-2,1.6-2.9c0.8-0.9,1.7-1.4,2.7-1.4h0.1c0.3,0,0.6,0.1,0.9,0.4c0.2,0.2,0.4,0.5,0.4,0.9s-0.1,0.6-0.4,0.9
				s-0.5,0.3-0.9,0.3c-0.4,0-0.6-0.1-0.9-0.3C134.6,279,134.5,278.7,134.5,278.3z"/>
			<path class="st23" d="M144.1,290.4c-1.8,0-3.3-0.5-4.5-1.6c-1.2-1-1.7-2.7-1.7-4.9s0.6-3.9,1.8-5.1c1.2-1.2,2.7-1.8,4.6-1.8
				c1.8,0,3.3,0.5,4.5,1.6s1.7,2.7,1.7,4.9c0,2.2-0.6,3.9-1.8,5.1C147.4,289.8,145.9,290.4,144.1,290.4z M144.2,277.3
				c-1.3,0-2.4,0.6-3.3,1.8c-0.9,1.2-1.3,2.8-1.3,4.9c0,2.1,0.4,3.7,1.2,4.7c0.8,1,1.9,1.5,3.2,1.5s2.4-0.6,3.3-1.8
				c0.9-1.2,1.3-2.8,1.3-4.9s-0.4-3.7-1.2-4.7C146.6,277.8,145.6,277.3,144.2,277.3z"/>
			<path class="st23" d="M160.4,284.2c0-2.3,0.6-4,1.7-5.3c1.1-1.2,2.8-1.9,5-1.9c1,0,2.1,0.3,3.1,0.8v-7.2h1.8v17.8
				c0,0.5,0.1,0.9,0.3,1.2c0.2,0.3,0.4,0.4,0.6,0.4l0.3,0.1h0.8v0.2h-1.6c-0.7,0-1.3-0.2-1.6-0.5c-0.4-0.3-0.6-0.6-0.6-0.9l0-0.4
				V288c-0.3,0.6-0.9,1.2-1.7,1.6c-0.8,0.5-1.7,0.7-2.7,0.7C162.1,290.3,160.4,288.2,160.4,284.2z M165.7,290.2c1.2,0,2.2-0.3,3-0.9
				c0.8-0.6,1.3-1.2,1.3-1.9v-9.2c-1.2-0.5-2.3-0.8-3.2-0.8c-1.6,0-2.7,0.6-3.5,1.8s-1.2,2.9-1.2,5.1
				C162.2,288.2,163.4,290.2,165.7,290.2z"/>
			<path class="st23" d="M176.5,283.9c0,2.2,0.4,3.8,1.1,4.8c0.8,1,1.8,1.5,3,1.5c1.7,0,3.3-0.3,4.7-0.8l0.1,0.2
				c-1.4,0.5-3,0.8-4.7,0.8s-3.2-0.5-4.3-1.6c-1.1-1-1.7-2.7-1.7-4.9s0.6-3.9,1.7-5.1c1.2-1.2,2.6-1.8,4.4-1.8
				c1.4,0,2.6,0.4,3.6,1.3c1,0.9,1.5,2.1,1.5,3.8c0,0.1,0,0.2,0,0.3h-9.4C176.5,282.9,176.5,283.4,176.5,283.9z M183.2,278.5
				c-0.6-0.8-1.4-1.2-2.4-1.2s-1.9,0.4-2.7,1.3c-0.8,0.9-1.3,2.1-1.5,3.6h7.6C184.2,280.6,183.8,279.3,183.2,278.5z"/>
			<path class="st23" d="M196.4,272.2c2-0.1,3.8-0.2,5.4-0.2c4.3,0,6.5,1.4,6.5,4.3c0,1.2-0.3,2.3-0.9,3.3c-0.6,1-1.6,1.6-3.1,1.9
				l5.2,8.8h-2.4l-5.1-8.7h-3.4v8.7h-2.2V272.2z M201.8,272.2c-1,0-2.1,0.1-3.2,0.2v9h3.9c2.5-0.1,3.7-1.8,3.7-5
				c0-1.3-0.4-2.3-1.1-3.1C204.4,272.6,203.3,272.2,201.8,272.2z"/>
			<path class="st23" d="M213.2,283.9c0,2.2,0.4,3.8,1.1,4.8c0.8,1,1.8,1.5,3,1.5c1.7,0,3.3-0.3,4.7-0.8l0.1,0.2
				c-1.4,0.5-3,0.8-4.7,0.8s-3.2-0.5-4.3-1.6c-1.1-1-1.7-2.7-1.7-4.9s0.6-3.9,1.7-5.1c1.2-1.2,2.6-1.8,4.4-1.8
				c1.4,0,2.6,0.4,3.6,1.3c1,0.9,1.5,2.1,1.5,3.8c0,0.1,0,0.2,0,0.3h-9.4C213.2,282.9,213.2,283.4,213.2,283.9z M219.9,278.5
				c-0.6-0.8-1.4-1.2-2.4-1.2c-1,0-1.9,0.4-2.7,1.3c-0.8,0.9-1.3,2.1-1.5,3.6h7.6C220.8,280.6,220.5,279.3,219.9,278.5z"/>
			<path class="st23" d="M230.6,277.3c-1.2,0-2.3,0.6-3.1,1.8c-0.8,1.2-1.2,2.8-1.2,4.9c0,2.1,0.4,3.7,1.1,4.7c0.8,1,1.8,1.5,3,1.5
				c1.6,0,2.9-0.3,4.1-0.8l0.1,0.2c-1.2,0.5-2.7,0.8-4.4,0.8c-1.7,0-3-0.5-4.1-1.6c-1.1-1-1.7-2.7-1.7-4.9s0.6-3.9,1.7-5.1
				c1.2-1.2,2.6-1.8,4.4-1.8c1,0,1.9,0.2,2.8,0.7c0.8,0.5,1.5,1.1,1.9,2.1h-1.7c-0.3-0.9-0.7-1.5-1.2-1.9
				C231.9,277.5,231.3,277.3,230.6,277.3z"/>
			<path class="st23" d="M238.6,283.9c0,2.2,0.4,3.8,1.1,4.8c0.8,1,1.8,1.5,3,1.5c1.7,0,3.3-0.3,4.7-0.8l0.1,0.2
				c-1.4,0.5-3,0.8-4.7,0.8s-3.2-0.5-4.3-1.6c-1.1-1-1.7-2.7-1.7-4.9s0.6-3.9,1.7-5.1c1.2-1.2,2.6-1.8,4.4-1.8
				c1.4,0,2.6,0.4,3.6,1.3c1,0.9,1.5,2.1,1.5,3.8c0,0.1,0,0.2,0,0.3h-9.4C238.7,282.9,238.6,283.4,238.6,283.9z M245.3,278.5
				c-0.6-0.8-1.4-1.2-2.4-1.2c-1,0-1.9,0.4-2.7,1.3c-0.8,0.9-1.3,2.1-1.5,3.6h7.6C246.3,280.6,246,279.3,245.3,278.5z"/>
			<path class="st23" d="M249.4,277.2h1.8v3.3c0.3-0.8,0.8-1.6,1.7-2.3c0.8-0.7,1.7-1.1,2.7-1.1c3.5,0,5.3,2.1,5.3,6.2
				c0,4.7-2.3,7.1-6.9,7.1c-0.8,0-1.8-0.2-2.8-0.6v7h-1.8V277.2z M255.6,277.3c-1.1,0-2.1,0.5-2.9,1.4c-0.9,0.9-1.3,1.8-1.4,2.5v8.4
				c1.1,0.4,2,0.6,2.8,0.6c3.4,0,5.1-2.3,5.1-6.9C259.1,279.3,257.9,277.3,255.6,277.3z"/>
			<path class="st23" d="M269.2,277.3c-1.2,0-2.3,0.6-3.1,1.8c-0.8,1.2-1.2,2.8-1.2,4.9c0,2.1,0.4,3.7,1.1,4.7c0.8,1,1.8,1.5,3,1.5
				c1.6,0,2.9-0.3,4.1-0.8l0.1,0.2c-1.2,0.5-2.7,0.8-4.4,0.8c-1.7,0-3-0.5-4.1-1.6s-1.7-2.7-1.7-4.9s0.6-3.9,1.7-5.1
				c1.2-1.2,2.6-1.8,4.4-1.8c1,0,1.9,0.2,2.8,0.7c0.8,0.5,1.5,1.1,1.9,2.1h-1.7c-0.3-0.9-0.7-1.5-1.2-1.9S269.8,277.3,269.2,277.3z"
				/>
			<path class="st23" d="M276.2,274.3c-0.2-0.2-0.3-0.5-0.3-0.8s0.1-0.6,0.3-0.8c0.2-0.2,0.5-0.3,0.8-0.3c0.3,0,0.6,0.1,0.8,0.3
				c0.2,0.2,0.3,0.5,0.3,0.8s-0.1,0.6-0.3,0.8c-0.2,0.2-0.5,0.3-0.8,0.3C276.7,274.6,276.4,274.5,276.2,274.3z M278.3,290.3
				c-0.7,0-1.3-0.2-1.6-0.5c-0.4-0.3-0.6-0.6-0.6-0.9l0-0.4v-11.2h1.8v11.2c0,0.5,0.1,0.9,0.3,1.2c0.2,0.3,0.4,0.4,0.6,0.4l0.3,0.1
				h0.8v0.2H278.3z"/>
			<path class="st23" d="M286.9,290.4c-1.8,0-3.3-0.5-4.5-1.6c-1.2-1-1.7-2.7-1.7-4.9s0.6-3.9,1.8-5.1c1.2-1.2,2.7-1.8,4.6-1.8
				c1.8,0,3.3,0.5,4.5,1.6c1.2,1,1.7,2.7,1.7,4.9c0,2.2-0.6,3.9-1.8,5.1C290.3,289.8,288.8,290.4,286.9,290.4z M287.1,277.3
				c-1.3,0-2.4,0.6-3.3,1.8c-0.9,1.2-1.3,2.8-1.3,4.9c0,2.1,0.4,3.7,1.2,4.7c0.8,1,1.9,1.5,3.2,1.5c1.3,0,2.4-0.6,3.3-1.8
				c0.9-1.2,1.3-2.8,1.3-4.9s-0.4-3.7-1.2-4.7C289.5,277.8,288.4,277.3,287.1,277.3z"/>
			<path class="st23" d="M305.8,290.3c-0.7,0-1.3-0.2-1.6-0.5c-0.4-0.3-0.6-0.6-0.6-0.9l0-0.4v-8.2c0-1.4-0.4-2.3-1.1-2.6
				c-0.4-0.2-0.8-0.3-1.4-0.3c-1.1,0-2.1,0.4-3,1.3s-1.3,1.7-1.3,2.4v9.3h-1.8v-13.1h1.8v3c0.3-0.8,0.8-1.5,1.7-2.1
				c0.8-0.7,1.7-1,2.6-1c1,0,1.7,0.1,2.3,0.3c0.6,0.2,1,0.4,1.3,0.8c0.4,0.5,0.7,1.2,0.7,2.1v8.2c0,0.5,0.1,0.9,0.3,1.2
				c0.2,0.3,0.4,0.4,0.6,0.4l0.3,0.1h0.8v0.2H305.8z"/>
			<path class="st23" d="M310.2,283.9c0,2.2,0.4,3.8,1.1,4.8c0.8,1,1.8,1.5,3,1.5c1.7,0,3.3-0.3,4.7-0.8l0.1,0.2
				c-1.4,0.5-3,0.8-4.7,0.8s-3.2-0.5-4.3-1.6c-1.1-1-1.7-2.7-1.7-4.9s0.6-3.9,1.7-5.1c1.2-1.2,2.6-1.8,4.4-1.8
				c1.4,0,2.6,0.4,3.6,1.3c1,0.9,1.5,2.1,1.5,3.8c0,0.1,0,0.2,0,0.3h-9.4C310.2,282.9,310.2,283.4,310.2,283.9z M316.9,278.5
				c-0.6-0.8-1.4-1.2-2.4-1.2s-1.9,0.4-2.7,1.3c-0.8,0.9-1.3,2.1-1.5,3.6h7.6C317.8,280.6,317.5,279.3,316.9,278.5z"/>
			<path class="st23" d="M329.2,278.1c-0.3-0.2-0.7-0.4-1.4-0.6c-0.6-0.2-1.1-0.2-1.4-0.2c-0.3,0-0.5,0-0.6,0c-0.9,0-1.6,0.3-2,0.7
				c-0.4,0.5-0.6,1-0.6,1.6c0,0.6,0.2,1.1,0.5,1.5c0.4,0.4,0.8,0.7,1.4,0.9s1.1,0.5,1.8,0.7c0.6,0.3,1.2,0.6,1.8,0.9
				c0.6,0.3,1,0.7,1.4,1.3c0.4,0.5,0.6,1.2,0.6,2.1c0,0.8-0.3,1.5-0.9,2.1c-0.6,0.6-1.2,1-1.9,1.2s-1.5,0.3-2.3,0.3
				c-1.8,0-3.1-0.4-4-1.2l0.2-0.2c0.3,0.3,0.9,0.6,1.6,0.8c0.7,0.2,1.4,0.3,2,0.3c1,0,1.9-0.3,2.6-0.9s1-1.3,1-2.1s-0.3-1.5-0.8-2
				s-1.1-0.9-1.8-1.2c-0.7-0.3-1.5-0.6-2.2-0.9c-0.7-0.3-1.4-0.7-1.9-1.2c-0.5-0.5-0.8-1.1-0.8-1.8s0.2-1.2,0.5-1.7
				c0.3-0.4,0.7-0.7,1.3-0.9c0.9-0.3,1.8-0.4,2.7-0.4c1.5,0,2.7,0.3,3.5,0.8L329.2,278.1z"/>
		</g>
		<g class="st13">
			<path class="st24" d="M89.2,290.4c-3.3,0-5.7-0.9-7.3-2.8c-0.6-0.7-1-1.5-1.4-2.6s-0.5-2.4-0.5-4s0.3-3,0.8-4.2
				c0.5-1.2,1.2-2.2,2.1-2.9c1.7-1.3,3.8-1.9,6.3-1.9c0.7,0,1.4,0.1,2,0.2c0.7,0.1,1.2,0.2,1.5,0.4l0.5,0.2l-0.1,0.3
				c-1.2-0.5-2.5-0.7-3.9-0.7c-1.9,0-3.4,0.6-4.6,1.8c-0.9,0.9-1.6,2.2-2,3.9c-0.2,1-0.3,2.2-0.3,3.6s0.2,2.7,0.6,3.9
				c0.4,1.2,0.9,2.1,1.4,2.7c0.5,0.6,1.1,1,1.9,1.4s1.3,0.5,1.8,0.6c0.4,0.1,1,0.1,1.6,0.1c0.6,0,1.3-0.1,2.1-0.2s1.4-0.2,1.8-0.3
				l0.6-0.2l0.1,0.3C92.6,290.2,91,290.4,89.2,290.4z"/>
			<path class="st24" d="M97.2,283.9c0,2.2,0.4,3.8,1.1,4.8c0.8,1,1.8,1.5,3,1.5c1.7,0,3.3-0.3,4.7-0.8l0.1,0.2
				c-1.4,0.5-3,0.8-4.7,0.8s-3.2-0.5-4.3-1.6c-1.1-1-1.7-2.7-1.7-4.9s0.6-3.9,1.7-5.1c1.2-1.2,2.6-1.8,4.4-1.8
				c1.4,0,2.6,0.4,3.6,1.3c1,0.9,1.5,2.1,1.5,3.8c0,0.1,0,0.2,0,0.3h-9.4C97.2,282.9,97.2,283.4,97.2,283.9z M103.9,278.5
				c-0.6-0.8-1.4-1.2-2.4-1.2s-1.9,0.4-2.7,1.3c-0.8,0.9-1.3,2.1-1.5,3.6h7.6C104.8,280.6,104.5,279.3,103.9,278.5z"/>
			<path class="st24" d="M118.6,290.3c-0.7,0-1.3-0.2-1.6-0.5c-0.4-0.3-0.6-0.6-0.6-0.9l0-0.4v-8.2c0-1.4-0.4-2.3-1.1-2.6
				c-0.4-0.2-0.8-0.3-1.4-0.3c-1.1,0-2.1,0.4-3,1.3s-1.3,1.7-1.3,2.4v9.3h-1.8v-13.1h1.8v3c0.3-0.8,0.8-1.5,1.7-2.1
				c0.8-0.7,1.7-1,2.6-1c1,0,1.7,0.1,2.3,0.3s1,0.4,1.3,0.8c0.4,0.5,0.7,1.2,0.7,2.1v8.2c0,0.5,0.1,0.9,0.3,1.2
				c0.2,0.3,0.4,0.4,0.6,0.4l0.3,0.1h0.8v0.2H118.6z"/>
			<path class="st24" d="M121.4,277.4v-0.2h0.6v-2.6h1.8v2.6h4v0.2h-4v9.5c0,1.1,0.1,2,0.4,2.5s0.8,0.8,1.6,0.8s1.6-0.2,2.5-0.5
				l0.1,0.2c-0.9,0.3-1.9,0.5-3,0.5s-2-0.2-2.5-0.7c-0.6-0.5-0.8-1.4-0.8-2.8v-9.5H121.4z"/>
			<path class="st24" d="M134.5,278.3v-0.6c-0.8,0.3-1.5,0.9-2.1,1.9c-0.6,1-1,1.8-1,2.7v7.9h-1.8v-13.1h1.8v4.2
				c0.3-1,0.8-2,1.6-2.9c0.8-0.9,1.7-1.4,2.7-1.4h0.1c0.3,0,0.6,0.1,0.9,0.4c0.2,0.2,0.4,0.5,0.4,0.9s-0.1,0.6-0.4,0.9
				s-0.5,0.3-0.9,0.3c-0.4,0-0.6-0.1-0.9-0.3C134.6,279,134.5,278.7,134.5,278.3z"/>
			<path class="st24" d="M144.1,290.4c-1.8,0-3.3-0.5-4.5-1.6c-1.2-1-1.7-2.7-1.7-4.9s0.6-3.9,1.8-5.1c1.2-1.2,2.7-1.8,4.6-1.8
				c1.8,0,3.3,0.5,4.5,1.6s1.7,2.7,1.7,4.9c0,2.2-0.6,3.9-1.8,5.1C147.4,289.8,145.9,290.4,144.1,290.4z M144.2,277.3
				c-1.3,0-2.4,0.6-3.3,1.8c-0.9,1.2-1.3,2.8-1.3,4.9c0,2.1,0.4,3.7,1.2,4.7c0.8,1,1.9,1.5,3.2,1.5s2.4-0.6,3.3-1.8
				c0.9-1.2,1.3-2.8,1.3-4.9s-0.4-3.7-1.2-4.7C146.6,277.8,145.6,277.3,144.2,277.3z"/>
			<path class="st24" d="M160.4,284.2c0-2.3,0.6-4,1.7-5.3c1.1-1.2,2.8-1.9,5-1.9c1,0,2.1,0.3,3.1,0.8v-7.2h1.8v17.8
				c0,0.5,0.1,0.9,0.3,1.2c0.2,0.3,0.4,0.4,0.6,0.4l0.3,0.1h0.8v0.2h-1.6c-0.7,0-1.3-0.2-1.6-0.5c-0.4-0.3-0.6-0.6-0.6-0.9l0-0.4
				V288c-0.3,0.6-0.9,1.2-1.7,1.6c-0.8,0.5-1.7,0.7-2.7,0.7C162.1,290.3,160.4,288.2,160.4,284.2z M165.7,290.2c1.2,0,2.2-0.3,3-0.9
				c0.8-0.6,1.3-1.2,1.3-1.9v-9.2c-1.2-0.5-2.3-0.8-3.2-0.8c-1.6,0-2.7,0.6-3.5,1.8s-1.2,2.9-1.2,5.1
				C162.2,288.2,163.4,290.2,165.7,290.2z"/>
			<path class="st24" d="M176.5,283.9c0,2.2,0.4,3.8,1.1,4.8c0.8,1,1.8,1.5,3,1.5c1.7,0,3.3-0.3,4.7-0.8l0.1,0.2
				c-1.4,0.5-3,0.8-4.7,0.8s-3.2-0.5-4.3-1.6c-1.1-1-1.7-2.7-1.7-4.9s0.6-3.9,1.7-5.1c1.2-1.2,2.6-1.8,4.4-1.8
				c1.4,0,2.6,0.4,3.6,1.3c1,0.9,1.5,2.1,1.5,3.8c0,0.1,0,0.2,0,0.3h-9.4C176.5,282.9,176.5,283.4,176.5,283.9z M183.2,278.5
				c-0.6-0.8-1.4-1.2-2.4-1.2s-1.9,0.4-2.7,1.3c-0.8,0.9-1.3,2.1-1.5,3.6h7.6C184.2,280.6,183.8,279.3,183.2,278.5z"/>
			<path class="st24" d="M196.4,272.2c2-0.1,3.8-0.2,5.4-0.2c4.3,0,6.5,1.4,6.5,4.3c0,1.2-0.3,2.3-0.9,3.3c-0.6,1-1.6,1.6-3.1,1.9
				l5.2,8.8h-2.4l-5.1-8.7h-3.4v8.7h-2.2V272.2z M201.8,272.2c-1,0-2.1,0.1-3.2,0.2v9h3.9c2.5-0.1,3.7-1.8,3.7-5
				c0-1.3-0.4-2.3-1.1-3.1C204.4,272.6,203.3,272.2,201.8,272.2z"/>
			<path class="st24" d="M213.2,283.9c0,2.2,0.4,3.8,1.1,4.8c0.8,1,1.8,1.5,3,1.5c1.7,0,3.3-0.3,4.7-0.8l0.1,0.2
				c-1.4,0.5-3,0.8-4.7,0.8s-3.2-0.5-4.3-1.6c-1.1-1-1.7-2.7-1.7-4.9s0.6-3.9,1.7-5.1c1.2-1.2,2.6-1.8,4.4-1.8
				c1.4,0,2.6,0.4,3.6,1.3c1,0.9,1.5,2.1,1.5,3.8c0,0.1,0,0.2,0,0.3h-9.4C213.2,282.9,213.2,283.4,213.2,283.9z M219.9,278.5
				c-0.6-0.8-1.4-1.2-2.4-1.2c-1,0-1.9,0.4-2.7,1.3c-0.8,0.9-1.3,2.1-1.5,3.6h7.6C220.8,280.6,220.5,279.3,219.9,278.5z"/>
			<path class="st24" d="M230.6,277.3c-1.2,0-2.3,0.6-3.1,1.8c-0.8,1.2-1.2,2.8-1.2,4.9c0,2.1,0.4,3.7,1.1,4.7c0.8,1,1.8,1.5,3,1.5
				c1.6,0,2.9-0.3,4.1-0.8l0.1,0.2c-1.2,0.5-2.7,0.8-4.4,0.8c-1.7,0-3-0.5-4.1-1.6c-1.1-1-1.7-2.7-1.7-4.9s0.6-3.9,1.7-5.1
				c1.2-1.2,2.6-1.8,4.4-1.8c1,0,1.9,0.2,2.8,0.7c0.8,0.5,1.5,1.1,1.9,2.1h-1.7c-0.3-0.9-0.7-1.5-1.2-1.9
				C231.9,277.5,231.3,277.3,230.6,277.3z"/>
			<path class="st24" d="M238.6,283.9c0,2.2,0.4,3.8,1.1,4.8c0.8,1,1.8,1.5,3,1.5c1.7,0,3.3-0.3,4.7-0.8l0.1,0.2
				c-1.4,0.5-3,0.8-4.7,0.8s-3.2-0.5-4.3-1.6c-1.1-1-1.7-2.7-1.7-4.9s0.6-3.9,1.7-5.1c1.2-1.2,2.6-1.8,4.4-1.8
				c1.4,0,2.6,0.4,3.6,1.3c1,0.9,1.5,2.1,1.5,3.8c0,0.1,0,0.2,0,0.3h-9.4C238.7,282.9,238.6,283.4,238.6,283.9z M245.3,278.5
				c-0.6-0.8-1.4-1.2-2.4-1.2c-1,0-1.9,0.4-2.7,1.3c-0.8,0.9-1.3,2.1-1.5,3.6h7.6C246.3,280.6,246,279.3,245.3,278.5z"/>
			<path class="st24" d="M249.4,277.2h1.8v3.3c0.3-0.8,0.8-1.6,1.7-2.3c0.8-0.7,1.7-1.1,2.7-1.1c3.5,0,5.3,2.1,5.3,6.2
				c0,4.7-2.3,7.1-6.9,7.1c-0.8,0-1.8-0.2-2.8-0.6v7h-1.8V277.2z M255.6,277.3c-1.1,0-2.1,0.5-2.9,1.4c-0.9,0.9-1.3,1.8-1.4,2.5v8.4
				c1.1,0.4,2,0.6,2.8,0.6c3.4,0,5.1-2.3,5.1-6.9C259.1,279.3,257.9,277.3,255.6,277.3z"/>
			<path class="st24" d="M269.2,277.3c-1.2,0-2.3,0.6-3.1,1.8c-0.8,1.2-1.2,2.8-1.2,4.9c0,2.1,0.4,3.7,1.1,4.7c0.8,1,1.8,1.5,3,1.5
				c1.6,0,2.9-0.3,4.1-0.8l0.1,0.2c-1.2,0.5-2.7,0.8-4.4,0.8c-1.7,0-3-0.5-4.1-1.6s-1.7-2.7-1.7-4.9s0.6-3.9,1.7-5.1
				c1.2-1.2,2.6-1.8,4.4-1.8c1,0,1.9,0.2,2.8,0.7c0.8,0.5,1.5,1.1,1.9,2.1h-1.7c-0.3-0.9-0.7-1.5-1.2-1.9S269.8,277.3,269.2,277.3z"
				/>
			<path class="st24" d="M276.2,274.3c-0.2-0.2-0.3-0.5-0.3-0.8s0.1-0.6,0.3-0.8c0.2-0.2,0.5-0.3,0.8-0.3c0.3,0,0.6,0.1,0.8,0.3
				c0.2,0.2,0.3,0.5,0.3,0.8s-0.1,0.6-0.3,0.8c-0.2,0.2-0.5,0.3-0.8,0.3C276.7,274.6,276.4,274.5,276.2,274.3z M278.3,290.3
				c-0.7,0-1.3-0.2-1.6-0.5c-0.4-0.3-0.6-0.6-0.6-0.9l0-0.4v-11.2h1.8v11.2c0,0.5,0.1,0.9,0.3,1.2c0.2,0.3,0.4,0.4,0.6,0.4l0.3,0.1
				h0.8v0.2H278.3z"/>
			<path class="st24" d="M286.9,290.4c-1.8,0-3.3-0.5-4.5-1.6c-1.2-1-1.7-2.7-1.7-4.9s0.6-3.9,1.8-5.1c1.2-1.2,2.7-1.8,4.6-1.8
				c1.8,0,3.3,0.5,4.5,1.6c1.2,1,1.7,2.7,1.7,4.9c0,2.2-0.6,3.9-1.8,5.1C290.3,289.8,288.8,290.4,286.9,290.4z M287.1,277.3
				c-1.3,0-2.4,0.6-3.3,1.8c-0.9,1.2-1.3,2.8-1.3,4.9c0,2.1,0.4,3.7,1.2,4.7c0.8,1,1.9,1.5,3.2,1.5c1.3,0,2.4-0.6,3.3-1.8
				c0.9-1.2,1.3-2.8,1.3-4.9s-0.4-3.7-1.2-4.7C289.5,277.8,288.4,277.3,287.1,277.3z"/>
			<path class="st24" d="M305.8,290.3c-0.7,0-1.3-0.2-1.6-0.5c-0.4-0.3-0.6-0.6-0.6-0.9l0-0.4v-8.2c0-1.4-0.4-2.3-1.1-2.6
				c-0.4-0.2-0.8-0.3-1.4-0.3c-1.1,0-2.1,0.4-3,1.3s-1.3,1.7-1.3,2.4v9.3h-1.8v-13.1h1.8v3c0.3-0.8,0.8-1.5,1.7-2.1
				c0.8-0.7,1.7-1,2.6-1c1,0,1.7,0.1,2.3,0.3c0.6,0.2,1,0.4,1.3,0.8c0.4,0.5,0.7,1.2,0.7,2.1v8.2c0,0.5,0.1,0.9,0.3,1.2
				c0.2,0.3,0.4,0.4,0.6,0.4l0.3,0.1h0.8v0.2H305.8z"/>
			<path class="st24" d="M310.2,283.9c0,2.2,0.4,3.8,1.1,4.8c0.8,1,1.8,1.5,3,1.5c1.7,0,3.3-0.3,4.7-0.8l0.1,0.2
				c-1.4,0.5-3,0.8-4.7,0.8s-3.2-0.5-4.3-1.6c-1.1-1-1.7-2.7-1.7-4.9s0.6-3.9,1.7-5.1c1.2-1.2,2.6-1.8,4.4-1.8
				c1.4,0,2.6,0.4,3.6,1.3c1,0.9,1.5,2.1,1.5,3.8c0,0.1,0,0.2,0,0.3h-9.4C310.2,282.9,310.2,283.4,310.2,283.9z M316.9,278.5
				c-0.6-0.8-1.4-1.2-2.4-1.2s-1.9,0.4-2.7,1.3c-0.8,0.9-1.3,2.1-1.5,3.6h7.6C317.8,280.6,317.5,279.3,316.9,278.5z"/>
			<path class="st24" d="M329.2,278.1c-0.3-0.2-0.7-0.4-1.4-0.6c-0.6-0.2-1.1-0.2-1.4-0.2c-0.3,0-0.5,0-0.6,0c-0.9,0-1.6,0.3-2,0.7
				c-0.4,0.5-0.6,1-0.6,1.6c0,0.6,0.2,1.1,0.5,1.5c0.4,0.4,0.8,0.7,1.4,0.9s1.1,0.5,1.8,0.7c0.6,0.3,1.2,0.6,1.8,0.9
				c0.6,0.3,1,0.7,1.4,1.3c0.4,0.5,0.6,1.2,0.6,2.1c0,0.8-0.3,1.5-0.9,2.1c-0.6,0.6-1.2,1-1.9,1.2s-1.5,0.3-2.3,0.3
				c-1.8,0-3.1-0.4-4-1.2l0.2-0.2c0.3,0.3,0.9,0.6,1.6,0.8c0.7,0.2,1.4,0.3,2,0.3c1,0,1.9-0.3,2.6-0.9s1-1.3,1-2.1s-0.3-1.5-0.8-2
				s-1.1-0.9-1.8-1.2c-0.7-0.3-1.5-0.6-2.2-0.9c-0.7-0.3-1.4-0.7-1.9-1.2c-0.5-0.5-0.8-1.1-0.8-1.8s0.2-1.2,0.5-1.7
				c0.3-0.4,0.7-0.7,1.3-0.9c0.9-0.3,1.8-0.4,2.7-0.4c1.5,0,2.7,0.3,3.5,0.8L329.2,278.1z"/>
		</g>
		<g class="st13">
			<path class="st23" d="M107.9,308c-0.8-3-1.2-4.7-1.2-4.9s0.1-0.4,0.3-0.7c0.2-0.2,0.5-0.3,0.7-0.3c0.3,0,0.6,0.1,0.8,0.3
				c0.2,0.2,0.3,0.5,0.3,0.7c0,0.3-0.1,0.5-0.3,0.7s-0.5,0.3-0.7,0.3h-0.1l0.6,3.8H107.9z M110.8,308c-0.8-3-1.2-4.7-1.2-4.9
				s0.1-0.4,0.3-0.7c0.2-0.2,0.4-0.3,0.7-0.3s0.6,0.1,0.8,0.3c0.2,0.2,0.3,0.5,0.3,0.7c0,0.3-0.1,0.5-0.3,0.7
				c-0.2,0.2-0.5,0.3-0.7,0.3h-0.1l0.6,3.8H110.8z"/>
			<path class="st23" d="M124.3,321.9c-3.3,0-5.7-0.9-7.3-2.8c-0.6-0.7-1-1.5-1.4-2.6s-0.5-2.4-0.5-4s0.3-3,0.8-4.2
				c0.5-1.2,1.2-2.2,2.1-2.9c1.7-1.3,3.8-1.9,6.3-1.9c0.7,0,1.4,0.1,2,0.2c0.7,0.1,1.2,0.2,1.5,0.4l0.5,0.2l-0.1,0.3
				c-1.2-0.5-2.5-0.7-3.9-0.7c-1.9,0-3.4,0.6-4.6,1.8c-0.9,0.9-1.6,2.2-2,3.9c-0.2,1-0.3,2.2-0.3,3.6s0.2,2.7,0.6,3.9
				c0.4,1.2,0.9,2.1,1.4,2.7c0.5,0.6,1.1,1,1.9,1.4s1.3,0.5,1.8,0.6c0.4,0.1,1,0.1,1.6,0.1c0.6,0,1.3-0.1,2.1-0.2s1.4-0.2,1.8-0.3
				l0.6-0.2l0.1,0.3C127.8,321.7,126.2,321.9,124.3,321.9z"/>
			<path class="st23" d="M141.8,321.8h-10v-18.4h2.2v18.1h7.8V321.8z"/>
			<path class="st23" d="M156.3,303.5h0.3v10.5c0,2.7-0.5,4.8-1.6,6c-1.1,1.3-2.5,1.9-4.2,1.9c-1.1,0-2-0.1-2.8-0.3
				c-0.8-0.2-1.5-0.6-2.2-1.1c-1.4-1.1-2.1-3.3-2.1-6.6v-10.5h2.2v10.5c0,3.2,0.5,5.3,1.4,6.4c0.5,0.5,1,0.9,1.5,1.1
				c0.5,0.2,1.2,0.3,1.9,0.3c1.7,0,3-0.6,4-1.8c1-1.2,1.5-3.2,1.5-5.9V303.5z"/>
			<path class="st23" d="M159.9,303.7c2-0.1,3.8-0.2,5.4-0.2c4.3,0,6.5,1.4,6.5,4.3c0,1.1-0.3,2-0.9,2.8c-0.6,0.8-1.6,1.3-3,1.6
				c1.3,0.2,2.4,0.6,3.1,1.2c0.8,0.6,1.2,1.8,1.2,3.4c0,3.4-2.2,5.1-6.5,5.1h-5.7V303.7z M165.3,303.7c-1,0-2.1,0.1-3.2,0.2v8.2h3.9
				c2.5-0.1,3.7-1.5,3.7-4.2c0-1.3-0.4-2.3-1.1-3.1C167.8,304.1,166.7,303.7,165.3,303.7z M162.1,321.5h3.5c1.6,0,2.7-0.4,3.3-1.2
				c0.7-0.8,1-2.1,1-3.7c0-1.7-0.3-2.8-1-3.4c-0.7-0.6-1.7-0.9-3-0.9h-3.9V321.5z"/>
			<path class="st23" d="M184.8,303.5c0.8,0,1.5-0.1,2.3-0.1c0.7,0,1.5,0.1,2.4,0.2c0.8,0.2,1.7,0.5,2.5,0.9c0.8,0.4,1.5,1,2.1,1.7
				c0.6,0.7,1,1.6,1.4,2.7c0.3,1.1,0.5,2.4,0.5,4c0,1.6-0.3,3-0.8,4.2s-1.2,2.2-2.1,2.9c-1.7,1.3-3.8,1.9-6.3,1.9
				c-0.9,0-1.8,0-2.7-0.1h-1.3v-18.3H184.8z M184.9,321.6c0.4,0,0.8,0.1,1.4,0.1c0.6,0,1,0,1.3,0c0.3,0,0.7-0.1,1.2-0.2
				c0.5-0.1,0.9-0.3,1.4-0.5c0.4-0.2,0.9-0.6,1.3-1c0.5-0.4,0.9-1,1.2-1.6c0.8-1.4,1.1-3.3,1.1-5.6c0-1.6-0.2-3.1-0.6-4.3
				c-0.4-1.2-0.9-2.1-1.4-2.7s-1.1-1-1.9-1.4c-0.7-0.3-1.3-0.5-1.8-0.6s-0.9-0.1-1.5-0.1c-0.6,0-1.1,0-1.7,0.1V321.6z"/>
			<path class="st23" d="M209.2,303.5v0.3h-8.3v8.4h7.7v0.3h-7.7v9.4h-2.2v-18.4H209.2z"/>
			<path class="st23" d="M229.7,321.8h-10v-18.4h2.2v18.1h7.8V321.8z"/>
			<path class="st23" d="M242.8,303.5v0.3h-8.3v7.9h7.7v0.3h-7.7v9.7h8.8v0.3h-11v-18.4H242.8z"/>
			<path class="st23" d="M245.6,313.1c0-3.2,0.8-5.6,2.3-7.2c1.5-1.7,3.5-2.5,6-2.5s4.4,0.7,5.8,2.2c1.4,1.4,2.2,3.7,2.2,6.9
				c0,3.1-0.8,5.5-2.3,7.1s-3.6,2.4-6.2,2.4c-2.2,0-4-0.6-5.5-1.9c-0.7-0.7-1.3-1.6-1.7-2.8C245.8,316.1,245.6,314.7,245.6,313.1z
				 M253.8,303.6c-1.8,0-3.2,0.8-4.3,2.4s-1.7,3.9-1.7,6.9c0,3,0.5,5.3,1.6,6.7s2.5,2.1,4.3,2.1s3.2-0.8,4.4-2.4
				c1.1-1.6,1.7-3.9,1.7-6.9s-0.5-5.2-1.6-6.6S255.6,303.6,253.8,303.6z"/>
			<path class="st23" d="M265,321.8h-0.3v-18.4h0.9l10.9,17v-17h0.3v18.4h-1.9l-9.9-15.2V321.8z"/>
			<path class="st23" d="M290.7,303.5v0.3h-8.3v7.9h7.7v0.3h-7.7v9.7h8.8v0.3h-11v-18.4H290.7z"/>
			<path class="st23" d="M303.7,304.6c-1.6-0.6-3.1-0.9-4.5-0.9c-1.4,0-2.5,0.3-3.3,0.9c-0.8,0.6-1.2,1.4-1.2,2.5c0,1.3,0.7,2.3,2,3
				c0.6,0.3,1.2,0.6,2,0.8c0.7,0.3,1.4,0.5,2.1,0.9c0.7,0.3,1.4,0.7,2,1.1c0.6,0.4,1.1,1,1.4,1.7s0.6,1.6,0.6,2.7
				c0,1.1-0.3,2-0.9,2.8c-0.6,0.8-1.4,1.3-2.2,1.6c-0.9,0.3-1.9,0.4-3,0.4c-2.1,0-4-0.5-5.5-1.6l0.1-0.2c0.6,0.5,1.3,0.8,2.2,1.1
				c0.9,0.3,1.9,0.4,2.8,0.4c1.4,0,2.6-0.3,3.6-1c1-0.7,1.5-1.6,1.5-2.9c0-1.4-0.7-2.5-2-3.3c-0.6-0.3-1.2-0.7-2-1
				c-0.7-0.3-1.4-0.6-2.1-0.9c-0.7-0.3-1.4-0.7-2-1.1c-1.3-0.9-2-2.1-2-3.7c0-1.3,0.4-2.3,1.3-3.1c0.9-0.8,2.1-1.2,3.9-1.2
				s3.5,0.3,5.3,0.9L303.7,304.6z"/>
			<path class="st23" d="M309,302.1c0.3,0,0.5,0.1,0.7,0.3c0.2,0.2,0.3,0.4,0.3,0.7s-0.4,1.9-1.2,4.9h-0.3l0.6-3.8H309
				c-0.3,0-0.5-0.1-0.7-0.3c-0.2-0.2-0.3-0.5-0.3-0.7c0-0.3,0.1-0.5,0.3-0.7C308.4,302.2,308.7,302.1,309,302.1z M311.8,302.1
				c0.3,0,0.5,0.1,0.7,0.3c0.2,0.2,0.3,0.4,0.3,0.7s-0.4,1.9-1.2,4.9h-0.3l0.6-3.8h-0.1c-0.3,0-0.5-0.1-0.7-0.3s-0.3-0.5-0.3-0.7
				c0-0.3,0.1-0.5,0.3-0.7C311.3,302.2,311.5,302.1,311.8,302.1z"/>
		</g>
		<g class="st13">
			<path class="st24" d="M107.9,308c-0.8-3-1.2-4.7-1.2-4.9s0.1-0.4,0.3-0.7c0.2-0.2,0.5-0.3,0.7-0.3c0.3,0,0.6,0.1,0.8,0.3
				c0.2,0.2,0.3,0.5,0.3,0.7c0,0.3-0.1,0.5-0.3,0.7s-0.5,0.3-0.7,0.3h-0.1l0.6,3.8H107.9z M110.8,308c-0.8-3-1.2-4.7-1.2-4.9
				s0.1-0.4,0.3-0.7c0.2-0.2,0.4-0.3,0.7-0.3s0.6,0.1,0.8,0.3c0.2,0.2,0.3,0.5,0.3,0.7c0,0.3-0.1,0.5-0.3,0.7
				c-0.2,0.2-0.5,0.3-0.7,0.3h-0.1l0.6,3.8H110.8z"/>
			<path class="st24" d="M124.3,321.9c-3.3,0-5.7-0.9-7.3-2.8c-0.6-0.7-1-1.5-1.4-2.6s-0.5-2.4-0.5-4s0.3-3,0.8-4.2
				c0.5-1.2,1.2-2.2,2.1-2.9c1.7-1.3,3.8-1.9,6.3-1.9c0.7,0,1.4,0.1,2,0.2c0.7,0.1,1.2,0.2,1.5,0.4l0.5,0.2l-0.1,0.3
				c-1.2-0.5-2.5-0.7-3.9-0.7c-1.9,0-3.4,0.6-4.6,1.8c-0.9,0.9-1.6,2.2-2,3.9c-0.2,1-0.3,2.2-0.3,3.6s0.2,2.7,0.6,3.9
				c0.4,1.2,0.9,2.1,1.4,2.7c0.5,0.6,1.1,1,1.9,1.4s1.3,0.5,1.8,0.6c0.4,0.1,1,0.1,1.6,0.1c0.6,0,1.3-0.1,2.1-0.2s1.4-0.2,1.8-0.3
				l0.6-0.2l0.1,0.3C127.8,321.7,126.2,321.9,124.3,321.9z"/>
			<path class="st24" d="M141.8,321.8h-10v-18.4h2.2v18.1h7.8V321.8z"/>
			<path class="st24" d="M156.3,303.5h0.3v10.5c0,2.7-0.5,4.8-1.6,6c-1.1,1.3-2.5,1.9-4.2,1.9c-1.1,0-2-0.1-2.8-0.3
				c-0.8-0.2-1.5-0.6-2.2-1.1c-1.4-1.1-2.1-3.3-2.1-6.6v-10.5h2.2v10.5c0,3.2,0.5,5.3,1.4,6.4c0.5,0.5,1,0.9,1.5,1.1
				c0.5,0.2,1.2,0.3,1.9,0.3c1.7,0,3-0.6,4-1.8c1-1.2,1.5-3.2,1.5-5.9V303.5z"/>
			<path class="st24" d="M159.9,303.7c2-0.1,3.8-0.2,5.4-0.2c4.3,0,6.5,1.4,6.5,4.3c0,1.1-0.3,2-0.9,2.8c-0.6,0.8-1.6,1.3-3,1.6
				c1.3,0.2,2.4,0.6,3.1,1.2c0.8,0.6,1.2,1.8,1.2,3.4c0,3.4-2.2,5.1-6.5,5.1h-5.7V303.7z M165.3,303.7c-1,0-2.1,0.1-3.2,0.2v8.2h3.9
				c2.5-0.1,3.7-1.5,3.7-4.2c0-1.3-0.4-2.3-1.1-3.1C167.8,304.1,166.7,303.7,165.3,303.7z M162.1,321.5h3.5c1.6,0,2.7-0.4,3.3-1.2
				c0.7-0.8,1-2.1,1-3.7c0-1.7-0.3-2.8-1-3.4c-0.7-0.6-1.7-0.9-3-0.9h-3.9V321.5z"/>
			<path class="st24" d="M184.8,303.5c0.8,0,1.5-0.1,2.3-0.1c0.7,0,1.5,0.1,2.4,0.2c0.8,0.2,1.7,0.5,2.5,0.9c0.8,0.4,1.5,1,2.1,1.7
				c0.6,0.7,1,1.6,1.4,2.7c0.3,1.1,0.5,2.4,0.5,4c0,1.6-0.3,3-0.8,4.2s-1.2,2.2-2.1,2.9c-1.7,1.3-3.8,1.9-6.3,1.9
				c-0.9,0-1.8,0-2.7-0.1h-1.3v-18.3H184.8z M184.9,321.6c0.4,0,0.8,0.1,1.4,0.1c0.6,0,1,0,1.3,0c0.3,0,0.7-0.1,1.2-0.2
				c0.5-0.1,0.9-0.3,1.4-0.5c0.4-0.2,0.9-0.6,1.3-1c0.5-0.4,0.9-1,1.2-1.6c0.8-1.4,1.1-3.3,1.1-5.6c0-1.6-0.2-3.1-0.6-4.3
				c-0.4-1.2-0.9-2.1-1.4-2.7s-1.1-1-1.9-1.4c-0.7-0.3-1.3-0.5-1.8-0.6s-0.9-0.1-1.5-0.1c-0.6,0-1.1,0-1.7,0.1V321.6z"/>
			<path class="st24" d="M209.2,303.5v0.3h-8.3v8.4h7.7v0.3h-7.7v9.4h-2.2v-18.4H209.2z"/>
			<path class="st24" d="M229.7,321.8h-10v-18.4h2.2v18.1h7.8V321.8z"/>
			<path class="st24" d="M242.8,303.5v0.3h-8.3v7.9h7.7v0.3h-7.7v9.7h8.8v0.3h-11v-18.4H242.8z"/>
			<path class="st24" d="M245.6,313.1c0-3.2,0.8-5.6,2.3-7.2c1.5-1.7,3.5-2.5,6-2.5s4.4,0.7,5.8,2.2c1.4,1.4,2.2,3.7,2.2,6.9
				c0,3.1-0.8,5.5-2.3,7.1s-3.6,2.4-6.2,2.4c-2.2,0-4-0.6-5.5-1.9c-0.7-0.7-1.3-1.6-1.7-2.8C245.8,316.1,245.6,314.7,245.6,313.1z
				 M253.8,303.6c-1.8,0-3.2,0.8-4.3,2.4s-1.7,3.9-1.7,6.9c0,3,0.5,5.3,1.6,6.7s2.5,2.1,4.3,2.1s3.2-0.8,4.4-2.4
				c1.1-1.6,1.7-3.9,1.7-6.9s-0.5-5.2-1.6-6.6S255.6,303.6,253.8,303.6z"/>
			<path class="st24" d="M265,321.8h-0.3v-18.4h0.9l10.9,17v-17h0.3v18.4h-1.9l-9.9-15.2V321.8z"/>
			<path class="st24" d="M290.7,303.5v0.3h-8.3v7.9h7.7v0.3h-7.7v9.7h8.8v0.3h-11v-18.4H290.7z"/>
			<path class="st24" d="M303.7,304.6c-1.6-0.6-3.1-0.9-4.5-0.9c-1.4,0-2.5,0.3-3.3,0.9c-0.8,0.6-1.2,1.4-1.2,2.5c0,1.3,0.7,2.3,2,3
				c0.6,0.3,1.2,0.6,2,0.8c0.7,0.3,1.4,0.5,2.1,0.9c0.7,0.3,1.4,0.7,2,1.1c0.6,0.4,1.1,1,1.4,1.7s0.6,1.6,0.6,2.7
				c0,1.1-0.3,2-0.9,2.8c-0.6,0.8-1.4,1.3-2.2,1.6c-0.9,0.3-1.9,0.4-3,0.4c-2.1,0-4-0.5-5.5-1.6l0.1-0.2c0.6,0.5,1.3,0.8,2.2,1.1
				c0.9,0.3,1.9,0.4,2.8,0.4c1.4,0,2.6-0.3,3.6-1c1-0.7,1.5-1.6,1.5-2.9c0-1.4-0.7-2.5-2-3.3c-0.6-0.3-1.2-0.7-2-1
				c-0.7-0.3-1.4-0.6-2.1-0.9c-0.7-0.3-1.4-0.7-2-1.1c-1.3-0.9-2-2.1-2-3.7c0-1.3,0.4-2.3,1.3-3.1c0.9-0.8,2.1-1.2,3.9-1.2
				s3.5,0.3,5.3,0.9L303.7,304.6z"/>
			<path class="st24" d="M309,302.1c0.3,0,0.5,0.1,0.7,0.3c0.2,0.2,0.3,0.4,0.3,0.7s-0.4,1.9-1.2,4.9h-0.3l0.6-3.8H309
				c-0.3,0-0.5-0.1-0.7-0.3c-0.2-0.2-0.3-0.5-0.3-0.7c0-0.3,0.1-0.5,0.3-0.7C308.4,302.2,308.7,302.1,309,302.1z M311.8,302.1
				c0.3,0,0.5,0.1,0.7,0.3c0.2,0.2,0.3,0.4,0.3,0.7s-0.4,1.9-1.2,4.9h-0.3l0.6-3.8h-0.1c-0.3,0-0.5-0.1-0.7-0.3s-0.3-0.5-0.3-0.7
				c0-0.3,0.1-0.5,0.3-0.7C311.3,302.2,311.5,302.1,311.8,302.1z"/>
		</g>
		<g class="st13">
			<path class="st23" d="M107.7,353.2h-0.3l7.8-18.4l0.3-0.1l6.6,18.5h-2.2l-2-5.8h-7.7L107.7,353.2z M114.4,337.7l-4.1,9.5h7.5
				L114.4,337.7z"/>
			<path class="st23" d="M131.3,340.3l0.2-0.2c0.1,0,0.2,0.1,0.3,0.3c0.1,0.2,0.2,0.3,0.2,0.5c0,0.1,0,0.3,0,0.4
				c0,0.5-0.1,1-0.3,1.4l-5,10.5h-0.3l-4.9-13.1h1.8l4,10.9l4.1-8.2c0.2-0.4,0.3-0.8,0.3-1.3S131.6,340.5,131.3,340.3z"/>
			<path class="st23" d="M134.5,353.3c-0.2,0-0.4-0.1-0.6-0.2c-0.2-0.2-0.2-0.4-0.2-0.6c0-0.2,0.1-0.4,0.2-0.6
				c0.2-0.2,0.4-0.2,0.6-0.2c0.2,0,0.4,0.1,0.6,0.2c0.2,0.2,0.2,0.4,0.2,0.6c0,0.2-0.1,0.4-0.2,0.6
				C134.9,353.2,134.7,353.3,134.5,353.3z"/>
			<path class="st23" d="M144.7,353.2h-0.3l7.8-18.4l0.3-0.1l6.6,18.5h-2.2l-2-5.8h-7.7L144.7,353.2z M151.4,337.7l-4.1,9.5h7.5
				L151.4,337.7z"/>
			<path class="st23" d="M165.7,341.2v-0.6c-0.8,0.3-1.5,0.9-2.1,1.9c-0.6,1-1,1.8-1,2.7v7.9h-1.8v-13.1h1.8v4.2
				c0.3-1,0.8-2,1.6-2.9c0.8-0.9,1.7-1.4,2.7-1.4h0.1c0.3,0,0.6,0.1,0.9,0.4c0.2,0.2,0.4,0.5,0.4,0.9s-0.1,0.6-0.4,0.9
				s-0.5,0.3-0.9,0.3c-0.4,0-0.6-0.1-0.9-0.3C165.8,341.9,165.7,341.6,165.7,341.2z"/>
			<path class="st23" d="M171.1,346.8c0,2.2,0.4,3.8,1.1,4.8c0.8,1,1.8,1.5,3,1.5c1.7,0,3.3-0.3,4.7-0.8l0.1,0.2
				c-1.4,0.5-3,0.8-4.7,0.8s-3.2-0.5-4.3-1.6c-1.1-1-1.7-2.7-1.7-4.9s0.6-3.9,1.7-5.1c1.2-1.2,2.6-1.8,4.4-1.8
				c1.4,0,2.6,0.4,3.6,1.3c1,0.9,1.5,2.1,1.5,3.8c0,0.1,0,0.2,0,0.3h-9.4C171.1,345.8,171.1,346.3,171.1,346.8z M177.8,341.4
				c-0.6-0.8-1.4-1.2-2.4-1.2s-1.9,0.4-2.7,1.3c-0.8,0.9-1.3,2.1-1.5,3.6h7.6C178.8,343.5,178.4,342.2,177.8,341.4z"/>
			<path class="st23" d="M182.4,347.1c0-2.3,0.6-4,1.7-5.3c1.1-1.2,2.8-1.9,5-1.9c1,0,2.1,0.3,3.1,0.8v-0.7h1.8v19.7h-1.8v-8.8
				c-0.3,0.6-0.9,1.2-1.7,1.6c-0.8,0.5-1.7,0.7-2.7,0.7C184.2,353.2,182.4,351.1,182.4,347.1z M187.8,353.1c1.2,0,2.2-0.3,3-0.9
				c0.8-0.6,1.3-1.2,1.3-1.9V341c-1.2-0.5-2.3-0.8-3.2-0.8c-1.6,0-2.7,0.6-3.5,1.8s-1.2,2.9-1.2,5.1
				C184.2,351.1,185.4,353.1,187.8,353.1z"/>
			<path class="st23" d="M198.4,350.2c0,1.4,0.4,2.3,1.1,2.6c0.3,0.2,0.8,0.3,1.3,0.3c1.1,0,2.1-0.4,2.9-1.3
				c0.9-0.8,1.3-1.6,1.4-2.3v-9.4h1.8v11.2c0,0.5,0.1,0.9,0.3,1.2c0.2,0.3,0.4,0.4,0.6,0.4l0.3,0.1h0.8v0.2h-1.6
				c-0.7,0-1.3-0.2-1.6-0.5c-0.4-0.3-0.6-0.6-0.6-0.9l0-0.4v-1.1c-0.3,0.8-0.9,1.5-1.7,2.1c-0.8,0.7-1.7,1-2.6,1s-1.7-0.1-2.3-0.3
				c-0.6-0.2-1-0.4-1.3-0.8c-0.5-0.5-0.7-1.2-0.7-2.1v-10.1h1.8V350.2z"/>
			<path class="st23" d="M211,337.2c-0.2-0.2-0.3-0.5-0.3-0.8s0.1-0.6,0.3-0.8c0.2-0.2,0.5-0.3,0.8-0.3c0.3,0,0.6,0.1,0.8,0.3
				c0.2,0.2,0.3,0.5,0.3,0.8s-0.1,0.6-0.3,0.8c-0.2,0.2-0.5,0.3-0.8,0.3C211.4,337.5,211.2,337.4,211,337.2z M213.1,353.2
				c-0.7,0-1.3-0.2-1.6-0.5c-0.4-0.3-0.6-0.6-0.6-0.9l0-0.4v-11.2h1.8v11.2c0,0.5,0.1,0.9,0.3,1.2c0.2,0.3,0.4,0.4,0.6,0.4l0.3,0.1
				h0.8v0.2H213.1z"/>
			<path class="st23" d="M216.5,340.1h1.8v3.3c0.3-0.8,0.8-1.6,1.7-2.3c0.8-0.7,1.7-1.1,2.7-1.1c3.5,0,5.3,2.1,5.3,6.2
				c0,4.7-2.3,7.1-6.9,7.1c-0.8,0-1.8-0.2-2.8-0.6v7h-1.8V340.1z M222.7,340.2c-1.1,0-2.1,0.5-2.9,1.4c-0.9,0.9-1.3,1.8-1.4,2.5v8.4
				c1.1,0.4,2,0.6,2.8,0.6c3.4,0,5.1-2.3,5.1-6.9C226.2,342.2,225,340.2,222.7,340.2z"/>
			<path class="st23" d="M241,353.2c-1.2,0-2-0.2-2.4-0.7c-0.4-0.4-0.6-0.7-0.6-1V351c-0.9,1.6-2.2,2.3-4.1,2.3c-2.2,0-3.5-1-3.8-3
				c0-0.2-0.1-0.4-0.1-0.6c0-0.2,0-0.5,0.1-0.7c0.1-0.3,0.3-0.6,0.6-0.9c0.7-0.6,2.1-1,4.4-1.2c0.6-0.1,1.1-0.1,1.5-0.1
				c0.5,0,0.9,0,1.3,0.1v-4.4c0,0,0-0.1,0-0.2s0-0.3-0.1-0.6c-0.1-0.2-0.2-0.5-0.4-0.7s-0.4-0.4-0.8-0.6c-0.4-0.2-0.9-0.2-1.6-0.2
				c-0.6,0-1.4,0.1-2.3,0.4s-1.5,0.5-1.9,0.7l-0.1-0.2c1.6-0.7,3.1-1.1,4.7-1.1c1.8,0,3,0.3,3.6,1c0.5,0.5,0.7,1,0.7,1.6v8.8
				c0,0.5,0.1,0.9,0.3,1.2c0.2,0.3,0.4,0.4,0.6,0.4l0.3,0.1h0.8v0.2H241z M234.2,353.1c0.9,0,1.8-0.3,2.5-1c0.7-0.6,1.1-1.3,1.2-1.8
				v-3.2c-0.5,0-0.9-0.1-1.4-0.1c-0.5,0-1,0-1.4,0.1c-1.3,0.2-2.2,0.5-2.6,0.9c-0.4,0.4-0.6,1-0.6,1.8c0,0.1,0,0.3,0,0.5
				C232.1,352.2,232.8,353.1,234.2,353.1z"/>
		</g>
		<g class="st13">
			<path class="st24" d="M107.7,353.2h-0.3l7.8-18.4l0.3-0.1l6.6,18.5h-2.2l-2-5.8h-7.7L107.7,353.2z M114.4,337.7l-4.1,9.5h7.5
				L114.4,337.7z"/>
			<path class="st24" d="M131.3,340.3l0.2-0.2c0.1,0,0.2,0.1,0.3,0.3c0.1,0.2,0.2,0.3,0.2,0.5c0,0.1,0,0.3,0,0.4
				c0,0.5-0.1,1-0.3,1.4l-5,10.5h-0.3l-4.9-13.1h1.8l4,10.9l4.1-8.2c0.2-0.4,0.3-0.8,0.3-1.3S131.6,340.5,131.3,340.3z"/>
			<path class="st24" d="M134.5,353.3c-0.2,0-0.4-0.1-0.6-0.2c-0.2-0.2-0.2-0.4-0.2-0.6c0-0.2,0.1-0.4,0.2-0.6
				c0.2-0.2,0.4-0.2,0.6-0.2c0.2,0,0.4,0.1,0.6,0.2c0.2,0.2,0.2,0.4,0.2,0.6c0,0.2-0.1,0.4-0.2,0.6
				C134.9,353.2,134.7,353.3,134.5,353.3z"/>
			<path class="st24" d="M144.7,353.2h-0.3l7.8-18.4l0.3-0.1l6.6,18.5h-2.2l-2-5.8h-7.7L144.7,353.2z M151.4,337.7l-4.1,9.5h7.5
				L151.4,337.7z"/>
			<path class="st24" d="M165.7,341.2v-0.6c-0.8,0.3-1.5,0.9-2.1,1.9c-0.6,1-1,1.8-1,2.7v7.9h-1.8v-13.1h1.8v4.2
				c0.3-1,0.8-2,1.6-2.9c0.8-0.9,1.7-1.4,2.7-1.4h0.1c0.3,0,0.6,0.1,0.9,0.4c0.2,0.2,0.4,0.5,0.4,0.9s-0.1,0.6-0.4,0.9
				s-0.5,0.3-0.9,0.3c-0.4,0-0.6-0.1-0.9-0.3C165.8,341.9,165.7,341.6,165.7,341.2z"/>
			<path class="st24" d="M171.1,346.8c0,2.2,0.4,3.8,1.1,4.8c0.8,1,1.8,1.5,3,1.5c1.7,0,3.3-0.3,4.7-0.8l0.1,0.2
				c-1.4,0.5-3,0.8-4.7,0.8s-3.2-0.5-4.3-1.6c-1.1-1-1.7-2.7-1.7-4.9s0.6-3.9,1.7-5.1c1.2-1.2,2.6-1.8,4.4-1.8
				c1.4,0,2.6,0.4,3.6,1.3c1,0.9,1.5,2.1,1.5,3.8c0,0.1,0,0.2,0,0.3h-9.4C171.1,345.8,171.1,346.3,171.1,346.8z M177.8,341.4
				c-0.6-0.8-1.4-1.2-2.4-1.2s-1.9,0.4-2.7,1.3c-0.8,0.9-1.3,2.1-1.5,3.6h7.6C178.8,343.5,178.4,342.2,177.8,341.4z"/>
			<path class="st24" d="M182.4,347.1c0-2.3,0.6-4,1.7-5.3c1.1-1.2,2.8-1.9,5-1.9c1,0,2.1,0.3,3.1,0.8v-0.7h1.8v19.7h-1.8v-8.8
				c-0.3,0.6-0.9,1.2-1.7,1.6c-0.8,0.5-1.7,0.7-2.7,0.7C184.2,353.2,182.4,351.1,182.4,347.1z M187.8,353.1c1.2,0,2.2-0.3,3-0.9
				c0.8-0.6,1.3-1.2,1.3-1.9V341c-1.2-0.5-2.3-0.8-3.2-0.8c-1.6,0-2.7,0.6-3.5,1.8s-1.2,2.9-1.2,5.1
				C184.2,351.1,185.4,353.1,187.8,353.1z"/>
			<path class="st24" d="M198.4,350.2c0,1.4,0.4,2.3,1.1,2.6c0.3,0.2,0.8,0.3,1.3,0.3c1.1,0,2.1-0.4,2.9-1.3
				c0.9-0.8,1.3-1.6,1.4-2.3v-9.4h1.8v11.2c0,0.5,0.1,0.9,0.3,1.2c0.2,0.3,0.4,0.4,0.6,0.4l0.3,0.1h0.8v0.2h-1.6
				c-0.7,0-1.3-0.2-1.6-0.5c-0.4-0.3-0.6-0.6-0.6-0.9l0-0.4v-1.1c-0.3,0.8-0.9,1.5-1.7,2.1c-0.8,0.7-1.7,1-2.6,1s-1.7-0.1-2.3-0.3
				c-0.6-0.2-1-0.4-1.3-0.8c-0.5-0.5-0.7-1.2-0.7-2.1v-10.1h1.8V350.2z"/>
			<path class="st24" d="M211,337.2c-0.2-0.2-0.3-0.5-0.3-0.8s0.1-0.6,0.3-0.8c0.2-0.2,0.5-0.3,0.8-0.3c0.3,0,0.6,0.1,0.8,0.3
				c0.2,0.2,0.3,0.5,0.3,0.8s-0.1,0.6-0.3,0.8c-0.2,0.2-0.5,0.3-0.8,0.3C211.4,337.5,211.2,337.4,211,337.2z M213.1,353.2
				c-0.7,0-1.3-0.2-1.6-0.5c-0.4-0.3-0.6-0.6-0.6-0.9l0-0.4v-11.2h1.8v11.2c0,0.5,0.1,0.9,0.3,1.2c0.2,0.3,0.4,0.4,0.6,0.4l0.3,0.1
				h0.8v0.2H213.1z"/>
			<path class="st24" d="M216.5,340.1h1.8v3.3c0.3-0.8,0.8-1.6,1.7-2.3c0.8-0.7,1.7-1.1,2.7-1.1c3.5,0,5.3,2.1,5.3,6.2
				c0,4.7-2.3,7.1-6.9,7.1c-0.8,0-1.8-0.2-2.8-0.6v7h-1.8V340.1z M222.7,340.2c-1.1,0-2.1,0.5-2.9,1.4c-0.9,0.9-1.3,1.8-1.4,2.5v8.4
				c1.1,0.4,2,0.6,2.8,0.6c3.4,0,5.1-2.3,5.1-6.9C226.2,342.2,225,340.2,222.7,340.2z"/>
			<path class="st24" d="M241,353.2c-1.2,0-2-0.2-2.4-0.7c-0.4-0.4-0.6-0.7-0.6-1V351c-0.9,1.6-2.2,2.3-4.1,2.3c-2.2,0-3.5-1-3.8-3
				c0-0.2-0.1-0.4-0.1-0.6c0-0.2,0-0.5,0.1-0.7c0.1-0.3,0.3-0.6,0.6-0.9c0.7-0.6,2.1-1,4.4-1.2c0.6-0.1,1.1-0.1,1.5-0.1
				c0.5,0,0.9,0,1.3,0.1v-4.4c0,0,0-0.1,0-0.2s0-0.3-0.1-0.6c-0.1-0.2-0.2-0.5-0.4-0.7s-0.4-0.4-0.8-0.6c-0.4-0.2-0.9-0.2-1.6-0.2
				c-0.6,0-1.4,0.1-2.3,0.4s-1.5,0.5-1.9,0.7l-0.1-0.2c1.6-0.7,3.1-1.1,4.7-1.1c1.8,0,3,0.3,3.6,1c0.5,0.5,0.7,1,0.7,1.6v8.8
				c0,0.5,0.1,0.9,0.3,1.2c0.2,0.3,0.4,0.4,0.6,0.4l0.3,0.1h0.8v0.2H241z M234.2,353.1c0.9,0,1.8-0.3,2.5-1c0.7-0.6,1.1-1.3,1.2-1.8
				v-3.2c-0.5,0-0.9-0.1-1.4-0.1c-0.5,0-1,0-1.4,0.1c-1.3,0.2-2.2,0.5-2.6,0.9c-0.4,0.4-0.6,1-0.6,1.8c0,0.1,0,0.3,0,0.5
				C232.1,352.2,232.8,353.1,234.2,353.1z"/>
		</g>
		<g class="st13">
			<path class="st23" d="M273.4,345.9h2c0.7,0,1-0.3,1.1-0.3c0.1,0,0.1,0.2,0.1,0.3s-0.1,0.7-0.2,1c-0.1,0.3-0.2,0.3-0.6,0.3h-2.4
				c0,0.9-0.1,2.9,0.1,4c0.1,0.8,0.3,1.2,1.1,1.4c0.4,0.1,0.9,0.1,1.2,0.1c0.1,0,0.2,0.1,0.2,0.2c0,0.1-0.1,0.2-0.4,0.2
				c-1.4,0-3.1-0.1-3.3-0.1s-1.6,0.1-3,0.1c-0.3,0-0.4-0.1-0.4-0.2c0-0.1,0.1-0.2,0.2-0.2c0.2,0,0.8,0,1.2-0.1
				c0.9-0.1,1-0.7,1.1-1.5c0.1-1.2,0.1-3.2,0.1-4h-8c-0.3,0-0.6-0.1-0.6-0.3c0-0.2,0.1-0.4,0.2-0.6c0.2-0.2,8.7-11.7,9.5-12.9
				c0.2-0.3,0.4-0.5,0.6-0.5s0.3,0.2,0.3,0.4c0,0.4,0,2.5,0,3.9V345.9z M271.4,336.6L271.4,336.6c-0.4,0.7-6.2,8.6-6.7,9.3h6.7
				V336.6z"/>
			<path class="st23" d="M291.3,333.5c0.3,0,0.5,0.1,0.5,0.3c0,0.1,0,0.3-0.2,0.5c-2.1,3.1-6.5,13.4-6.8,16.8c-0.1,0.4,0,0.6,0,0.9
				c0,0.5-2,1.6-2.6,1.6c-0.2,0-0.2-0.1-0.2-0.3c0-0.3,0.1-0.7,0.2-0.9c1-3.4,3.9-10.4,7.8-17.3h-6.5c-0.8,0-1.8,0.1-2.4,0.7
				c-0.6,0.4-0.9,1.3-1,2c0,0.2-0.1,0.4-0.2,0.4c-0.1,0-0.2-0.1-0.2-0.4c0-0.8,0.4-3.9,0.4-4.2s0.1-0.4,0.3-0.4s0.8,0.3,2.5,0.3
				H291.3z"/>
			<path class="st23" d="M300.1,333.1c4.8,0,6.2,6.2,6.2,9.7c0,6-2.3,10.9-6.6,10.9c-4.1,0-6.2-5-6.2-9.7
				C293.6,337.8,295.9,333.1,300.1,333.1z M300.2,352.7c2.4,0,4-3.6,4-8.8c0-5-1.6-9.8-4.6-9.8c-2.4,0-3.9,3.5-3.9,8.8
				C295.7,347.5,297,352.7,300.2,352.7z"/>
			<path class="st23" d="M316.3,345.3c0,2.6,0,4.9,0.1,6c0.1,0.8,0.2,1.2,1,1.4c0.4,0.1,1.5,0.2,1.7,0.2c0.1,0,0.2,0.1,0.2,0.2
				c0,0.1-0.1,0.2-0.4,0.2c-2,0-3.6-0.1-3.8-0.1c-0.1,0-2.3,0.1-4,0.1c-0.3,0-0.4-0.1-0.4-0.2c0-0.1,0.1-0.2,0.2-0.2
				c0.3,0,1.6-0.1,2.1-0.2c0.9-0.2,1-0.6,1.1-1.4c0.1-1.2,0.1-3.4,0.1-6v-4.6c0-1.4,0-2.5,0-4c0-0.5-0.1-0.8-0.5-0.8
				c-0.5,0-2.3,0.9-3,1.3c-0.1,0.1-0.2,0.1-0.3,0.1c-0.1,0-0.2-0.1-0.2-0.2c0-0.1,0.1-0.2,0.2-0.3l5.1-3.4c0.2-0.2,0.4-0.3,0.6-0.3
				c0.2,0,0.3,0.3,0.3,0.6c0,0.2-0.1,2.8-0.1,6.8L316.3,345.3z"/>
		</g>
		<g class="st13">
			<path class="st24" d="M273.4,345.9h2c0.7,0,1-0.3,1.1-0.3c0.1,0,0.1,0.2,0.1,0.3s-0.1,0.7-0.2,1c-0.1,0.3-0.2,0.3-0.6,0.3h-2.4
				c0,0.9-0.1,2.9,0.1,4c0.1,0.8,0.3,1.2,1.1,1.4c0.4,0.1,0.9,0.1,1.2,0.1c0.1,0,0.2,0.1,0.2,0.2c0,0.1-0.1,0.2-0.4,0.2
				c-1.4,0-3.1-0.1-3.3-0.1s-1.6,0.1-3,0.1c-0.3,0-0.4-0.1-0.4-0.2c0-0.1,0.1-0.2,0.2-0.2c0.2,0,0.8,0,1.2-0.1
				c0.9-0.1,1-0.7,1.1-1.5c0.1-1.2,0.1-3.2,0.1-4h-8c-0.3,0-0.6-0.1-0.6-0.3c0-0.2,0.1-0.4,0.2-0.6c0.2-0.2,8.7-11.7,9.5-12.9
				c0.2-0.3,0.4-0.5,0.6-0.5s0.3,0.2,0.3,0.4c0,0.4,0,2.5,0,3.9V345.9z M271.4,336.6L271.4,336.6c-0.4,0.7-6.2,8.6-6.7,9.3h6.7
				V336.6z"/>
			<path class="st24" d="M291.3,333.5c0.3,0,0.5,0.1,0.5,0.3c0,0.1,0,0.3-0.2,0.5c-2.1,3.1-6.5,13.4-6.8,16.8c-0.1,0.4,0,0.6,0,0.9
				c0,0.5-2,1.6-2.6,1.6c-0.2,0-0.2-0.1-0.2-0.3c0-0.3,0.1-0.7,0.2-0.9c1-3.4,3.9-10.4,7.8-17.3h-6.5c-0.8,0-1.8,0.1-2.4,0.7
				c-0.6,0.4-0.9,1.3-1,2c0,0.2-0.1,0.4-0.2,0.4c-0.1,0-0.2-0.1-0.2-0.4c0-0.8,0.4-3.9,0.4-4.2s0.1-0.4,0.3-0.4s0.8,0.3,2.5,0.3
				H291.3z"/>
			<path class="st24" d="M300.1,333.1c4.8,0,6.2,6.2,6.2,9.7c0,6-2.3,10.9-6.6,10.9c-4.1,0-6.2-5-6.2-9.7
				C293.6,337.8,295.9,333.1,300.1,333.1z M300.2,352.7c2.4,0,4-3.6,4-8.8c0-5-1.6-9.8-4.6-9.8c-2.4,0-3.9,3.5-3.9,8.8
				C295.7,347.5,297,352.7,300.2,352.7z"/>
			<path class="st24" d="M316.3,345.3c0,2.6,0,4.9,0.1,6c0.1,0.8,0.2,1.2,1,1.4c0.4,0.1,1.5,0.2,1.7,0.2c0.1,0,0.2,0.1,0.2,0.2
				c0,0.1-0.1,0.2-0.4,0.2c-2,0-3.6-0.1-3.8-0.1c-0.1,0-2.3,0.1-4,0.1c-0.3,0-0.4-0.1-0.4-0.2c0-0.1,0.1-0.2,0.2-0.2
				c0.3,0,1.6-0.1,2.1-0.2c0.9-0.2,1-0.6,1.1-1.4c0.1-1.2,0.1-3.4,0.1-6v-4.6c0-1.4,0-2.5,0-4c0-0.5-0.1-0.8-0.5-0.8
				c-0.5,0-2.3,0.9-3,1.3c-0.1,0.1-0.2,0.1-0.3,0.1c-0.1,0-0.2-0.1-0.2-0.2c0-0.1,0.1-0.2,0.2-0.3l5.1-3.4c0.2-0.2,0.4-0.3,0.6-0.3
				c0.2,0,0.3,0.3,0.3,0.6c0,0.2-0.1,2.8-0.1,6.8L316.3,345.3z"/>
		</g>
		<g class="st13">
			<path class="st23" d="M159,384.7h-0.3l2.3-18.4h0.9l5.5,17l5.5-17h0.9l2.3,18.4h-2.2l-1.8-14.7l-4.7,14.7h-1.7l-4.8-14.5
				L159,384.7z"/>
			<path class="st23" d="M179.4,368.7c-0.2-0.2-0.3-0.5-0.3-0.8c0-0.3,0.1-0.6,0.3-0.8c0.2-0.2,0.5-0.3,0.8-0.3
				c0.3,0,0.6,0.1,0.8,0.3c0.2,0.2,0.3,0.5,0.3,0.8c0,0.3-0.1,0.6-0.3,0.8c-0.2,0.2-0.5,0.3-0.8,0.3
				C179.8,369,179.6,368.9,179.4,368.7z M181.4,384.7c-0.7,0-1.3-0.2-1.6-0.5c-0.4-0.3-0.6-0.6-0.6-0.9l0-0.4v-11.2h1.8v11.2
				c0,0.5,0.1,0.9,0.3,1.2c0.2,0.3,0.4,0.4,0.6,0.4l0.3,0.1h0.8v0.2H181.4z"/>
			<path class="st23" d="M189.6,372.7v-0.6c-0.8,0.3-1.5,0.9-2.1,1.9c-0.6,1-1,1.8-1,2.7v7.9h-1.8v-13.1h1.8v4.2
				c0.3-1,0.8-2,1.6-2.9c0.8-0.9,1.7-1.4,2.7-1.4h0.1c0.3,0,0.6,0.1,0.9,0.4c0.2,0.2,0.4,0.5,0.4,0.9s-0.1,0.6-0.4,0.9
				s-0.5,0.3-0.9,0.3c-0.4,0-0.6-0.1-0.9-0.3C189.7,373.4,189.6,373.1,189.6,372.7z"/>
			<path class="st23" d="M204.1,384.7c-1.2,0-2-0.2-2.4-0.7c-0.4-0.4-0.6-0.7-0.6-1v-0.5c-0.9,1.6-2.2,2.3-4.1,2.3
				c-2.2,0-3.5-1-3.8-3c0-0.2-0.1-0.4-0.1-0.6c0-0.2,0-0.5,0.1-0.7c0.1-0.3,0.3-0.6,0.6-0.9c0.7-0.6,2.1-1,4.4-1.2
				c0.6-0.1,1.1-0.1,1.5-0.1c0.5,0,0.9,0,1.3,0.1v-4.4c0,0,0-0.1,0-0.2c0-0.1,0-0.3-0.1-0.6c-0.1-0.2-0.2-0.5-0.4-0.7
				c-0.2-0.2-0.4-0.4-0.8-0.6c-0.4-0.2-0.9-0.2-1.6-0.2c-0.6,0-1.4,0.1-2.3,0.4c-0.9,0.2-1.5,0.5-1.9,0.7l-0.1-0.2
				c1.6-0.7,3.1-1.1,4.7-1.1c1.8,0,3,0.3,3.6,1c0.5,0.5,0.7,1,0.7,1.6v8.8c0,0.5,0.1,0.9,0.3,1.2c0.2,0.3,0.4,0.4,0.6,0.4l0.3,0.1
				h0.8v0.2H204.1z M197.3,384.6c0.9,0,1.8-0.3,2.5-1c0.7-0.6,1.1-1.3,1.2-1.8v-3.2c-0.5,0-0.9-0.1-1.4-0.1c-0.5,0-1,0-1.4,0.1
				c-1.3,0.2-2.2,0.5-2.6,0.9c-0.4,0.4-0.6,1-0.6,1.8c0,0.1,0,0.3,0,0.5C195.2,383.7,195.9,384.6,197.3,384.6z"/>
			<path class="st23" d="M208.6,370.4v1.2h2.1v0.2h-2.1v12.9h-1.8v-12.9h-0.6v-0.2h0.6v-1.2c0-1.9,0.4-3.3,1.2-4.1
				c0.8-0.8,2.2-1.2,4-1.2v0.2c-1.2,0-2.1,0.4-2.6,1.2C208.9,367.3,208.6,368.6,208.6,370.4z"/>
			<path class="st23" d="M216.1,384.7c-1.5,0-2.5-0.4-2.9-1.2c-0.1-0.2-0.1-0.3-0.1-0.5v-18h1.8v17.8c0,0.5,0.1,0.9,0.3,1.2
				c0.2,0.3,0.4,0.4,0.6,0.4l0.3,0.1h0.8v0.2H216.1z"/>
			<path class="st23" d="M223.8,384.8c-1.8,0-3.3-0.5-4.5-1.6s-1.7-2.7-1.7-4.9s0.6-3.9,1.8-5.1c1.2-1.2,2.7-1.8,4.6-1.8
				s3.3,0.5,4.5,1.6c1.2,1,1.7,2.7,1.7,4.9c0,2.2-0.6,3.9-1.8,5.1C227.2,384.2,225.6,384.8,223.8,384.8z M224,371.7
				c-1.3,0-2.4,0.6-3.3,1.8s-1.3,2.8-1.3,4.9c0,2.1,0.4,3.7,1.2,4.7c0.8,1,1.9,1.5,3.2,1.5c1.3,0,2.4-0.6,3.3-1.8s1.3-2.8,1.3-4.9
				s-0.4-3.7-1.2-4.7C226.4,372.2,225.3,371.7,224,371.7z"/>
			<path class="st23" d="M236.7,372.7v-0.6c-0.8,0.3-1.5,0.9-2.1,1.9c-0.6,1-1,1.8-1,2.7v7.9h-1.8v-13.1h1.8v4.2
				c0.3-1,0.8-2,1.6-2.9c0.8-0.9,1.7-1.4,2.7-1.4h0.1c0.3,0,0.6,0.1,0.9,0.4c0.2,0.2,0.4,0.5,0.4,0.9s-0.1,0.6-0.4,0.9
				c-0.2,0.2-0.5,0.3-0.9,0.3c-0.4,0-0.6-0.1-0.9-0.3C236.8,373.4,236.7,373.1,236.7,372.7z"/>
			<path class="st23" d="M242.1,378.3c0,2.2,0.4,3.8,1.1,4.8c0.8,1,1.8,1.5,3,1.5c1.7,0,3.3-0.3,4.7-0.8l0.1,0.2
				c-1.4,0.5-3,0.8-4.7,0.8s-3.2-0.5-4.3-1.6s-1.7-2.7-1.7-4.9s0.6-3.9,1.7-5.1c1.2-1.2,2.6-1.8,4.4-1.8c1.4,0,2.6,0.4,3.6,1.3
				c1,0.9,1.5,2.1,1.5,3.8c0,0.1,0,0.2,0,0.3h-9.4C242.2,377.3,242.1,377.8,242.1,378.3z M248.8,372.9c-0.6-0.8-1.4-1.2-2.4-1.2
				c-1,0-1.9,0.4-2.7,1.3c-0.8,0.9-1.3,2.1-1.5,3.6h7.6C249.8,375,249.4,373.7,248.8,372.9z"/>
			<path class="st23" d="M261.1,372.5c-0.3-0.2-0.7-0.4-1.3-0.6c-0.6-0.2-1.1-0.2-1.4-0.2s-0.5,0-0.6,0c-0.9,0-1.6,0.3-2,0.7
				c-0.4,0.5-0.6,1-0.6,1.6c0,0.6,0.2,1.1,0.6,1.5s0.8,0.7,1.4,0.9s1.1,0.5,1.8,0.7c0.6,0.3,1.2,0.6,1.8,0.9c0.6,0.3,1,0.7,1.4,1.3
				c0.4,0.5,0.6,1.2,0.6,2.1c0,0.8-0.3,1.5-0.9,2.1c-0.6,0.6-1.2,1-1.9,1.2s-1.5,0.3-2.3,0.3c-1.8,0-3.1-0.4-4-1.2l0.2-0.2
				c0.3,0.3,0.9,0.6,1.6,0.8c0.7,0.2,1.4,0.3,2,0.3c1,0,1.9-0.3,2.6-0.9c0.7-0.6,1-1.3,1-2.1s-0.3-1.5-0.8-2
				c-0.5-0.5-1.1-0.9-1.8-1.2c-0.7-0.3-1.5-0.6-2.2-0.9c-0.7-0.3-1.4-0.7-1.9-1.2s-0.8-1.1-0.8-1.8s0.2-1.2,0.5-1.7
				c0.3-0.4,0.7-0.7,1.3-0.9c0.9-0.3,1.8-0.4,2.7-0.4c1.5,0,2.7,0.3,3.5,0.8L261.1,372.5z"/>
		</g>
		<g class="st13">
			<path class="st24" d="M159,384.7h-0.3l2.3-18.4h0.9l5.5,17l5.5-17h0.9l2.3,18.4h-2.2l-1.8-14.7l-4.7,14.7h-1.7l-4.8-14.5
				L159,384.7z"/>
			<path class="st24" d="M179.4,368.7c-0.2-0.2-0.3-0.5-0.3-0.8c0-0.3,0.1-0.6,0.3-0.8c0.2-0.2,0.5-0.3,0.8-0.3
				c0.3,0,0.6,0.1,0.8,0.3c0.2,0.2,0.3,0.5,0.3,0.8c0,0.3-0.1,0.6-0.3,0.8c-0.2,0.2-0.5,0.3-0.8,0.3
				C179.8,369,179.6,368.9,179.4,368.7z M181.4,384.7c-0.7,0-1.3-0.2-1.6-0.5c-0.4-0.3-0.6-0.6-0.6-0.9l0-0.4v-11.2h1.8v11.2
				c0,0.5,0.1,0.9,0.3,1.2c0.2,0.3,0.4,0.4,0.6,0.4l0.3,0.1h0.8v0.2H181.4z"/>
			<path class="st24" d="M189.6,372.7v-0.6c-0.8,0.3-1.5,0.9-2.1,1.9c-0.6,1-1,1.8-1,2.7v7.9h-1.8v-13.1h1.8v4.2
				c0.3-1,0.8-2,1.6-2.9c0.8-0.9,1.7-1.4,2.7-1.4h0.1c0.3,0,0.6,0.1,0.9,0.4c0.2,0.2,0.4,0.5,0.4,0.9s-0.1,0.6-0.4,0.9
				s-0.5,0.3-0.9,0.3c-0.4,0-0.6-0.1-0.9-0.3C189.7,373.4,189.6,373.1,189.6,372.7z"/>
			<path class="st24" d="M204.1,384.7c-1.2,0-2-0.2-2.4-0.7c-0.4-0.4-0.6-0.7-0.6-1v-0.5c-0.9,1.6-2.2,2.3-4.1,2.3
				c-2.2,0-3.5-1-3.8-3c0-0.2-0.1-0.4-0.1-0.6c0-0.2,0-0.5,0.1-0.7c0.1-0.3,0.3-0.6,0.6-0.9c0.7-0.6,2.1-1,4.4-1.2
				c0.6-0.1,1.1-0.1,1.5-0.1c0.5,0,0.9,0,1.3,0.1v-4.4c0,0,0-0.1,0-0.2c0-0.1,0-0.3-0.1-0.6c-0.1-0.2-0.2-0.5-0.4-0.7
				c-0.2-0.2-0.4-0.4-0.8-0.6c-0.4-0.2-0.9-0.2-1.6-0.2c-0.6,0-1.4,0.1-2.3,0.4c-0.9,0.2-1.5,0.5-1.9,0.7l-0.1-0.2
				c1.6-0.7,3.1-1.1,4.7-1.1c1.8,0,3,0.3,3.6,1c0.5,0.5,0.7,1,0.7,1.6v8.8c0,0.5,0.1,0.9,0.3,1.2c0.2,0.3,0.4,0.4,0.6,0.4l0.3,0.1
				h0.8v0.2H204.1z M197.3,384.6c0.9,0,1.8-0.3,2.5-1c0.7-0.6,1.1-1.3,1.2-1.8v-3.2c-0.5,0-0.9-0.1-1.4-0.1c-0.5,0-1,0-1.4,0.1
				c-1.3,0.2-2.2,0.5-2.6,0.9c-0.4,0.4-0.6,1-0.6,1.8c0,0.1,0,0.3,0,0.5C195.2,383.7,195.9,384.6,197.3,384.6z"/>
			<path class="st24" d="M208.6,370.4v1.2h2.1v0.2h-2.1v12.9h-1.8v-12.9h-0.6v-0.2h0.6v-1.2c0-1.9,0.4-3.3,1.2-4.1
				c0.8-0.8,2.2-1.2,4-1.2v0.2c-1.2,0-2.1,0.4-2.6,1.2C208.9,367.3,208.6,368.6,208.6,370.4z"/>
			<path class="st24" d="M216.1,384.7c-1.5,0-2.5-0.4-2.9-1.2c-0.1-0.2-0.1-0.3-0.1-0.5v-18h1.8v17.8c0,0.5,0.1,0.9,0.3,1.2
				c0.2,0.3,0.4,0.4,0.6,0.4l0.3,0.1h0.8v0.2H216.1z"/>
			<path class="st24" d="M223.8,384.8c-1.8,0-3.3-0.5-4.5-1.6s-1.7-2.7-1.7-4.9s0.6-3.9,1.8-5.1c1.2-1.2,2.7-1.8,4.6-1.8
				s3.3,0.5,4.5,1.6c1.2,1,1.7,2.7,1.7,4.9c0,2.2-0.6,3.9-1.8,5.1C227.2,384.2,225.6,384.8,223.8,384.8z M224,371.7
				c-1.3,0-2.4,0.6-3.3,1.8s-1.3,2.8-1.3,4.9c0,2.1,0.4,3.7,1.2,4.7c0.8,1,1.9,1.5,3.2,1.5c1.3,0,2.4-0.6,3.3-1.8s1.3-2.8,1.3-4.9
				s-0.4-3.7-1.2-4.7C226.4,372.2,225.3,371.7,224,371.7z"/>
			<path class="st24" d="M236.7,372.7v-0.6c-0.8,0.3-1.5,0.9-2.1,1.9c-0.6,1-1,1.8-1,2.7v7.9h-1.8v-13.1h1.8v4.2
				c0.3-1,0.8-2,1.6-2.9c0.8-0.9,1.7-1.4,2.7-1.4h0.1c0.3,0,0.6,0.1,0.9,0.4c0.2,0.2,0.4,0.5,0.4,0.9s-0.1,0.6-0.4,0.9
				c-0.2,0.2-0.5,0.3-0.9,0.3c-0.4,0-0.6-0.1-0.9-0.3C236.8,373.4,236.7,373.1,236.7,372.7z"/>
			<path class="st24" d="M242.1,378.3c0,2.2,0.4,3.8,1.1,4.8c0.8,1,1.8,1.5,3,1.5c1.7,0,3.3-0.3,4.7-0.8l0.1,0.2
				c-1.4,0.5-3,0.8-4.7,0.8s-3.2-0.5-4.3-1.6s-1.7-2.7-1.7-4.9s0.6-3.9,1.7-5.1c1.2-1.2,2.6-1.8,4.4-1.8c1.4,0,2.6,0.4,3.6,1.3
				c1,0.9,1.5,2.1,1.5,3.8c0,0.1,0,0.2,0,0.3h-9.4C242.2,377.3,242.1,377.8,242.1,378.3z M248.8,372.9c-0.6-0.8-1.4-1.2-2.4-1.2
				c-1,0-1.9,0.4-2.7,1.3c-0.8,0.9-1.3,2.1-1.5,3.6h7.6C249.8,375,249.4,373.7,248.8,372.9z"/>
			<path class="st24" d="M261.1,372.5c-0.3-0.2-0.7-0.4-1.3-0.6c-0.6-0.2-1.1-0.2-1.4-0.2s-0.5,0-0.6,0c-0.9,0-1.6,0.3-2,0.7
				c-0.4,0.5-0.6,1-0.6,1.6c0,0.6,0.2,1.1,0.6,1.5s0.8,0.7,1.4,0.9s1.1,0.5,1.8,0.7c0.6,0.3,1.2,0.6,1.8,0.9c0.6,0.3,1,0.7,1.4,1.3
				c0.4,0.5,0.6,1.2,0.6,2.1c0,0.8-0.3,1.5-0.9,2.1c-0.6,0.6-1.2,1-1.9,1.2s-1.5,0.3-2.3,0.3c-1.8,0-3.1-0.4-4-1.2l0.2-0.2
				c0.3,0.3,0.9,0.6,1.6,0.8c0.7,0.2,1.4,0.3,2,0.3c1,0,1.9-0.3,2.6-0.9c0.7-0.6,1-1.3,1-2.1s-0.3-1.5-0.8-2
				c-0.5-0.5-1.1-0.9-1.8-1.2c-0.7-0.3-1.5-0.6-2.2-0.9c-0.7-0.3-1.4-0.7-1.9-1.2s-0.8-1.1-0.8-1.8s0.2-1.2,0.5-1.7
				c0.3-0.4,0.7-0.7,1.3-0.9c0.9-0.3,1.8-0.4,2.7-0.4c1.5,0,2.7,0.3,3.5,0.8L261.1,372.5z"/>
		</g>
	</g>
</g>
</svg>
